G04*
G04 #@! TF.GenerationSoftware,Altium Limited,Altium Designer,26.1.1 (7)*
G04*
G04 Layer_Color=16776960*
%FSLAX44Y44*%
%MOMM*%
G71*
G04*
G04 #@! TF.SameCoordinates,92A7BCAF-68E7-4111-A48F-47A069CEA177*
G04*
G04*
G04 #@! TF.FilePolarity,Positive*
G04*
G01*
G75*
%ADD63C,0.0500*%
%ADD65C,0.1000*%
D63*
X292100Y397350D02*
X393700D01*
X292100D02*
Y549200D01*
X393700D01*
Y397350D02*
X393700Y549200D01*
X342900Y447200D02*
Y487200D01*
X322900Y467200D02*
X362900D01*
X442100Y397350D02*
X543700D01*
X442100D02*
Y549200D01*
X543700D01*
Y397350D02*
X543700Y549200D01*
X492900Y447200D02*
Y487200D01*
X472900Y467200D02*
X512900D01*
X442100Y136050D02*
X543700D01*
Y-15800D02*
Y136050D01*
X442100Y-15800D02*
X543700D01*
X442100D02*
X442100Y136050D01*
X492900Y46200D02*
Y86200D01*
X472900Y66200D02*
X512900D01*
X585470Y266700D02*
X598170D01*
X585470D02*
Y279400D01*
X572770Y266700D02*
X585470D01*
Y254000D02*
Y266700D01*
X614770Y73700D02*
Y459700D01*
X556170Y73700D02*
X614770D01*
X556170D02*
Y459700D01*
X614770D01*
X116840Y266700D02*
X129540D01*
X116840D02*
Y279400D01*
X104140Y266700D02*
X116840D01*
Y254000D02*
Y266700D01*
X146140Y73700D02*
Y459700D01*
X87540Y73700D02*
X146140D01*
X87540D02*
Y459700D01*
X146140D01*
D65*
X93900Y526200D02*
X259900D01*
Y461200D02*
Y526200D01*
X93900Y461200D02*
X259900D01*
X93900D02*
Y526200D01*
X176900Y486200D02*
X191900D01*
X176900Y471200D02*
Y486200D01*
X161900D02*
X176900D01*
Y501200D01*
X93900Y7700D02*
X259900D01*
X93900D02*
Y72700D01*
X259900D01*
Y7700D02*
Y72700D01*
X161900Y47700D02*
X176900D01*
Y62700D01*
Y47700D02*
X191900D01*
X176900Y32700D02*
Y47700D01*
X259900Y7700D02*
X425900D01*
X259900D02*
Y72700D01*
X425900D01*
Y7700D02*
Y72700D01*
X327900Y47700D02*
X342900D01*
Y62700D01*
Y47700D02*
X357900D01*
X342900Y32700D02*
Y47700D01*
M02*
