G04*
G04 #@! TF.GenerationSoftware,Altium Limited,Altium Designer,26.1.1 (7)*
G04*
G04 Layer_Color=128*
%FSLAX44Y44*%
%MOMM*%
G71*
G04*
G04 #@! TF.SameCoordinates,92A7BCAF-68E7-4111-A48F-47A069CEA177*
G04*
G04*
G04 #@! TF.FilePolarity,Positive*
G04*
G01*
G75*
%ADD74C,0.0508*%
D74*
X553800Y520700D02*
X563800D01*
X558800Y515700D02*
Y525700D01*
X553800Y12700D02*
X563800D01*
X558800Y7700D02*
Y17700D01*
X579200Y12700D02*
X589200D01*
X584200Y7700D02*
Y17700D01*
X630000Y12700D02*
X640000D01*
X635000Y7700D02*
Y17700D01*
X604600Y12700D02*
X614600D01*
X609600Y7700D02*
Y17700D01*
X579200Y520700D02*
X589200D01*
X584200Y515700D02*
Y525700D01*
X604600Y520700D02*
X614600D01*
X609600Y515700D02*
Y525700D01*
X630000Y520700D02*
X640000D01*
X635000Y515700D02*
Y525700D01*
X581470Y88900D02*
X589470D01*
X585470Y84900D02*
Y92900D01*
X581470Y444500D02*
X589470D01*
X585470Y440500D02*
Y448500D01*
X112840Y88900D02*
X120840D01*
X116840Y84900D02*
Y92900D01*
X112840Y444500D02*
X120840D01*
X116840Y440500D02*
Y448500D01*
X625470Y73309D02*
X628470D01*
X626970Y71810D02*
Y74809D01*
X547065Y458395D02*
X550065D01*
X548565Y456895D02*
Y459895D01*
X637125Y227973D02*
X640125D01*
X638625Y226473D02*
Y229473D01*
X636324Y220747D02*
X639324D01*
X637824Y219247D02*
Y222247D01*
X516750Y165515D02*
X519750D01*
X518250Y164015D02*
Y167015D01*
X522366Y170134D02*
X525366D01*
X523866Y168634D02*
Y171634D01*
X529634Y170000D02*
X532634D01*
X531134Y168500D02*
Y171500D01*
X543500Y298000D02*
X546500D01*
X545000Y296500D02*
Y299500D01*
X535400Y280200D02*
X538400D01*
X536900Y278700D02*
Y281700D01*
X528750Y198745D02*
X531750D01*
X530250Y197245D02*
Y200245D01*
X518088Y188587D02*
X521087D01*
X519588Y187087D02*
Y190088D01*
X544500Y199000D02*
X547500D01*
X546000Y197500D02*
Y200500D01*
X537919Y238482D02*
X540919D01*
X539418Y236982D02*
Y239982D01*
X544500Y311000D02*
X547500D01*
X546000Y309500D02*
Y312500D01*
X544500Y323900D02*
X547500D01*
X546000Y322400D02*
Y325400D01*
X544500Y336600D02*
X547500D01*
X546000Y335100D02*
Y338100D01*
X544500Y362000D02*
X547500D01*
X546000Y360500D02*
Y363500D01*
X544500Y349300D02*
X547500D01*
X546000Y347800D02*
Y350800D01*
X544500Y375000D02*
X547500D01*
X546000Y373500D02*
Y376500D01*
X544500Y387000D02*
X547500D01*
X546000Y385500D02*
Y388500D01*
X544500Y400000D02*
X547500D01*
X546000Y398500D02*
Y401500D01*
X542500Y415000D02*
X545500D01*
X544000Y413500D02*
Y416500D01*
X544670Y426000D02*
X547670D01*
X546170Y424500D02*
Y427500D01*
X544500Y438000D02*
X547500D01*
X546000Y436500D02*
Y439500D01*
X585724Y400553D02*
X588724D01*
X587224Y399053D02*
Y402053D01*
X585724Y413253D02*
X588724D01*
X587224Y411753D02*
Y414753D01*
X585724Y387853D02*
X588724D01*
X587224Y386353D02*
Y389353D01*
X585724Y425953D02*
X588724D01*
X587224Y424453D02*
Y427453D01*
X586500Y435000D02*
X589500D01*
X588000Y433500D02*
Y436500D01*
X619119Y461357D02*
X622119D01*
X620619Y459857D02*
Y462857D01*
X624500Y372000D02*
X627500D01*
X626000Y370500D02*
Y373500D01*
X624500Y362000D02*
X627500D01*
X626000Y360500D02*
Y363500D01*
X624500Y336600D02*
X627500D01*
X626000Y335100D02*
Y338100D01*
X624500Y349300D02*
X627500D01*
X626000Y347800D02*
Y350800D01*
X624500Y323900D02*
X627500D01*
X626000Y322400D02*
Y325400D01*
X624436Y315232D02*
X627436D01*
X625936Y313732D02*
Y316732D01*
X624884Y305966D02*
X627884D01*
X626384Y304466D02*
Y307466D01*
X637600Y302930D02*
X640600D01*
X639100Y301430D02*
Y304430D01*
X624061Y297764D02*
X627061D01*
X625560Y296264D02*
Y299263D01*
X623868Y284914D02*
X626868D01*
X625368Y283414D02*
Y286413D01*
X622759Y272964D02*
X625759D01*
X624259Y271464D02*
Y274464D01*
X625400Y260419D02*
X628400D01*
X626900Y258919D02*
Y261919D01*
X625401Y252659D02*
X628401D01*
X626901Y251159D02*
Y254159D01*
X625280Y238608D02*
X628280D01*
X626780Y237108D02*
Y240108D01*
X637719Y235696D02*
X640719D01*
X639219Y234196D02*
Y237196D01*
X623500Y222000D02*
X626500D01*
X625000Y220500D02*
Y223500D01*
X623500Y210000D02*
X626500D01*
X625000Y208500D02*
Y211500D01*
X622864Y197411D02*
X625864D01*
X624364Y195911D02*
Y198911D01*
X624500Y184000D02*
X627500D01*
X626000Y182500D02*
Y185500D01*
X637271Y181834D02*
X640271D01*
X638771Y180334D02*
Y183334D01*
X623500Y171000D02*
X626500D01*
X625000Y169500D02*
Y172500D01*
X637771Y171334D02*
X640771D01*
X639271Y169834D02*
Y172834D01*
X624500Y159000D02*
X627500D01*
X626000Y157500D02*
Y160500D01*
X623500Y146000D02*
X626500D01*
X625000Y144500D02*
Y147500D01*
X627399Y139864D02*
X630399D01*
X628899Y138364D02*
Y141364D01*
X623500Y133000D02*
X626500D01*
X625000Y131500D02*
Y134500D01*
X626574Y126412D02*
X629574D01*
X628074Y124912D02*
Y127912D01*
X622727Y119661D02*
X625727D01*
X624226Y118161D02*
Y121161D01*
X624219Y95048D02*
X627219D01*
X625719Y93547D02*
Y96547D01*
X623635Y107986D02*
X626635D01*
X625135Y106487D02*
Y109487D01*
X647836Y96613D02*
X650836D01*
X649336Y95113D02*
Y98113D01*
X652841Y86381D02*
X655841D01*
X654341Y84881D02*
Y87881D01*
X626815Y52833D02*
X629815D01*
X628315Y51333D02*
Y54333D01*
X75500Y82000D02*
X78500D01*
X77000Y80500D02*
Y83500D01*
X75500Y94700D02*
X78500D01*
X77000Y93200D02*
Y96200D01*
X590150Y465200D02*
X593150D01*
X591650Y463700D02*
Y466700D01*
X590144Y474852D02*
X593144D01*
X591644Y473353D02*
Y476353D01*
X536500Y380050D02*
X539500D01*
X538000Y378550D02*
Y381550D01*
X463500Y366000D02*
X466500D01*
X465000Y364500D02*
Y367500D01*
X479029Y319050D02*
X482029D01*
X480529Y317550D02*
Y320550D01*
X469029Y319050D02*
X472029D01*
X470528Y317550D02*
Y320550D01*
X587491Y264400D02*
X590491D01*
X588991Y262900D02*
Y265900D01*
X502559Y242941D02*
X505559D01*
X504059Y241441D02*
Y244441D01*
X461240Y241411D02*
X464240D01*
X462740Y239911D02*
Y242911D01*
X404150Y484150D02*
X407150D01*
X405650Y482650D02*
Y485650D01*
X404150Y442150D02*
X407150D01*
X405650Y440650D02*
Y443650D01*
X403520Y393700D02*
X406520D01*
X405020Y392200D02*
Y395200D01*
X413100Y348310D02*
X416100D01*
X414600Y346810D02*
Y349810D01*
X459029Y319050D02*
X462029D01*
X460528Y317550D02*
Y320550D01*
X383402Y316992D02*
X386402D01*
X384902Y315492D02*
Y318492D01*
X362779Y337450D02*
X365779D01*
X364279Y335950D02*
Y338950D01*
X317529Y319050D02*
X320529D01*
X319029Y317550D02*
Y320550D01*
X307529Y319050D02*
X310529D01*
X309029Y317550D02*
Y320550D01*
X297529Y319050D02*
X300529D01*
X299029Y317550D02*
Y320550D01*
X411400Y293700D02*
X414400D01*
X412900Y292200D02*
Y295200D01*
X384779Y266700D02*
X387779D01*
X386279Y265200D02*
Y268200D01*
X341828Y311255D02*
X344828D01*
X343328Y309755D02*
Y312754D01*
X299740Y241411D02*
X302740D01*
X301240Y239911D02*
Y242911D01*
X581453Y209550D02*
X584453D01*
X582953Y208050D02*
Y211050D01*
X581645Y184300D02*
X584645D01*
X583145Y182800D02*
Y185800D01*
X581691Y97989D02*
X584691D01*
X583191Y96489D02*
Y99489D01*
X426931Y39800D02*
X429931D01*
X428431Y38300D02*
Y41300D01*
X375105Y123979D02*
X378105D01*
X376605Y122479D02*
Y125479D01*
X423500Y105000D02*
X426500D01*
X425000Y103500D02*
Y106500D01*
X360500Y80000D02*
X363500D01*
X362000Y78500D02*
Y81500D01*
X345500Y146730D02*
X348500D01*
X347000Y145230D02*
Y148230D01*
X345500Y168540D02*
X348500D01*
X347000Y167040D02*
Y170040D01*
X355500Y118000D02*
X358500D01*
X357000Y116500D02*
Y119500D01*
X348500Y79000D02*
X351500D01*
X350000Y77500D02*
Y80500D01*
X418931Y69800D02*
X421931D01*
X420431Y68300D02*
Y71300D01*
X338570Y76250D02*
X341570D01*
X340070Y74750D02*
Y77750D01*
X335592Y124031D02*
X338592D01*
X337092Y122531D02*
Y125532D01*
X383500Y44000D02*
X386500D01*
X385000Y42500D02*
Y45500D01*
X352300Y44000D02*
X355300D01*
X353800Y42500D02*
Y45500D01*
X330500Y44000D02*
X333500D01*
X332000Y42500D02*
Y45500D01*
X323500Y29000D02*
X326500D01*
X325000Y27500D02*
Y30500D01*
X264500Y527000D02*
X267500D01*
X266000Y525500D02*
Y528500D01*
X235500Y520000D02*
X238500D01*
X237000Y518500D02*
Y521500D01*
X219865Y497933D02*
X222866D01*
X221366Y496433D02*
Y499433D01*
X212195Y508986D02*
X215195D01*
X213695Y507486D02*
Y510486D01*
X212900Y481400D02*
X215900D01*
X214400Y479900D02*
Y482900D01*
X198057Y497776D02*
X201057D01*
X199557Y496276D02*
Y499276D01*
X197570Y483000D02*
X200570D01*
X199070Y481500D02*
Y484500D01*
X168500Y482000D02*
X171500D01*
X170000Y480500D02*
Y483500D01*
X182841Y481400D02*
X185841D01*
X184341Y479900D02*
Y482900D01*
X237500Y470000D02*
X240500D01*
X239000Y468500D02*
Y471500D01*
X239091Y423598D02*
X242091D01*
X240591Y422098D02*
Y425098D01*
X223500Y458000D02*
X226500D01*
X225000Y456500D02*
Y459500D01*
X286150Y415200D02*
X289150D01*
X287650Y413700D02*
Y416700D01*
X268650Y415200D02*
X271650D01*
X270150Y413700D02*
Y416700D01*
X254318Y411178D02*
X257318D01*
X255818Y409678D02*
Y412678D01*
X263500Y387000D02*
X266500D01*
X265000Y385500D02*
Y388500D01*
X206847Y445229D02*
X209847D01*
X208347Y443729D02*
Y446729D01*
X198500Y445000D02*
X201500D01*
X200000Y443500D02*
Y446500D01*
X187507Y430499D02*
X190507D01*
X189007Y428999D02*
Y431999D01*
X154350Y336550D02*
X157350D01*
X155850Y335050D02*
Y338050D01*
X154350Y374650D02*
X157350D01*
X155850Y373150D02*
Y376150D01*
X154350Y298450D02*
X157350D01*
X155850Y296950D02*
Y299950D01*
X146500Y482000D02*
X149500D01*
X148000Y480500D02*
Y483500D01*
X102500Y459000D02*
X105500D01*
X104000Y457500D02*
Y460500D01*
X115340Y457200D02*
X118340D01*
X116840Y455700D02*
Y458700D01*
X115500Y413000D02*
X118500D01*
X117000Y411500D02*
Y414500D01*
X75331Y374650D02*
X78331D01*
X76831Y373150D02*
Y376150D01*
X75331Y336550D02*
X78331D01*
X76831Y335050D02*
Y338050D01*
X75331Y298450D02*
X78331D01*
X76831Y296950D02*
Y299950D01*
X281040Y162000D02*
X284040D01*
X282540Y160500D02*
Y163500D01*
X212105Y175152D02*
X215105D01*
X213605Y173652D02*
Y176652D01*
X261370Y156167D02*
X264370D01*
X262870Y154667D02*
Y157667D01*
X239560Y156193D02*
X242560D01*
X241060Y154693D02*
Y157693D01*
X201400Y191000D02*
X204400D01*
X202900Y189500D02*
Y192500D01*
X179500Y191000D02*
X182500D01*
X181000Y189500D02*
Y192500D01*
X189500Y175000D02*
X192500D01*
X191000Y173500D02*
Y176500D01*
X212920Y75600D02*
X215920D01*
X214420Y74100D02*
Y77100D01*
X198479Y75897D02*
X201479D01*
X199979Y74397D02*
Y77397D01*
X154350Y260350D02*
X157350D01*
X155850Y258850D02*
Y261850D01*
X168275Y76194D02*
X171275D01*
X169775Y74694D02*
Y77694D01*
X152500Y75000D02*
X155500D01*
X154000Y73500D02*
Y76500D01*
X250500Y47000D02*
X253500D01*
X252000Y45500D02*
Y48500D01*
X117622Y222023D02*
X120622D01*
X119122Y220523D02*
Y223523D01*
X117520Y180299D02*
X120520D01*
X119020Y178799D02*
Y181799D01*
X117520Y150000D02*
X120520D01*
X119020Y148500D02*
Y151500D01*
X75331Y222250D02*
X78331D01*
X76831Y220750D02*
Y223750D01*
X75331Y260350D02*
X78331D01*
X76831Y258850D02*
Y261850D01*
X76500Y184000D02*
X79500D01*
X78000Y182500D02*
Y185500D01*
X116500Y111000D02*
X119500D01*
X118000Y109500D02*
Y112500D01*
X113500Y64000D02*
X116500D01*
X115000Y62500D02*
Y65500D01*
X75331Y146050D02*
X78331D01*
X76831Y144550D02*
Y147550D01*
X75331Y107950D02*
X78331D01*
X76831Y106450D02*
Y109450D01*
X26500Y36000D02*
X29500D01*
X28000Y34500D02*
Y37500D01*
X7500Y26000D02*
X10500D01*
X9000Y24500D02*
Y27500D01*
X529634Y178000D02*
X532634D01*
X531134Y176500D02*
Y179500D01*
X216184Y456453D02*
X219184D01*
X217684Y454953D02*
Y457953D01*
X205327Y497776D02*
X208327D01*
X206827Y496276D02*
Y499276D01*
X210927Y451432D02*
X213927D01*
X212427Y449932D02*
Y452932D01*
X212597Y497776D02*
X215597D01*
X214097Y496276D02*
Y499276D01*
X185809Y438308D02*
X188809D01*
X187309Y436809D02*
Y439809D01*
X218711Y512211D02*
X221711D01*
X220211Y510711D02*
Y513711D01*
X190949Y443449D02*
X193949D01*
X192449Y441949D02*
Y444949D01*
X228770Y515000D02*
X231770D01*
X230270Y513500D02*
Y516500D01*
X247051Y423449D02*
X250051D01*
X248551Y421949D02*
Y424949D01*
X74751Y361950D02*
X77751D01*
X76251Y360450D02*
Y363450D01*
X252192Y418308D02*
X255191D01*
X253692Y416809D02*
Y419809D01*
X75331Y349250D02*
X78331D01*
X76831Y347750D02*
Y350750D01*
X273770Y162000D02*
X276770D01*
X275270Y160500D02*
Y163500D01*
X427150Y322200D02*
X430150D01*
X428650Y320700D02*
Y323700D01*
X75331Y323850D02*
X78331D01*
X76831Y322350D02*
Y325350D01*
X266500Y162000D02*
X269500D01*
X268000Y160500D02*
Y163500D01*
X432150Y313200D02*
X435150D01*
X433650Y311700D02*
Y314700D01*
X75331Y311150D02*
X78331D01*
X76831Y309650D02*
Y312650D01*
X254100Y156193D02*
X257100D01*
X255600Y154693D02*
Y157693D01*
X11230Y34000D02*
X14230D01*
X12730Y32500D02*
Y35500D01*
X246830Y156193D02*
X249830D01*
X248330Y154693D02*
Y157693D01*
X18869Y34427D02*
X21869D01*
X20369Y32927D02*
Y35927D01*
X157439Y85876D02*
X160439D01*
X158939Y84375D02*
Y87375D01*
X345035Y48235D02*
X348035D01*
X346535Y46735D02*
Y49735D01*
X164216Y83243D02*
X167216D01*
X165716Y81743D02*
Y84743D01*
X337765Y48235D02*
X340765D01*
X339265Y46735D02*
Y49735D01*
X194085Y191000D02*
X197085D01*
X195585Y189500D02*
Y192500D01*
X367803Y123989D02*
X370803D01*
X369303Y122490D02*
Y125490D01*
X186815Y191000D02*
X189815D01*
X188315Y189500D02*
Y192500D01*
X360500Y124000D02*
X363500D01*
X362000Y122500D02*
Y125500D01*
X197168Y175727D02*
X200168D01*
X198668Y174227D02*
Y177227D01*
X350197Y124010D02*
X353197D01*
X351697Y122510D02*
Y125511D01*
X204437Y175879D02*
X207437D01*
X205937Y174379D02*
Y177379D01*
X342895Y124021D02*
X345895D01*
X344395Y122521D02*
Y125521D01*
X335180Y232674D02*
X338180D01*
X336680Y231174D02*
Y234174D01*
X115034Y139208D02*
X118034D01*
X116534Y137708D02*
Y140708D01*
X345500Y161270D02*
X348500D01*
X347000Y159770D02*
Y162770D01*
X115552Y122998D02*
X118552D01*
X117052Y121498D02*
Y124498D01*
X325194Y229984D02*
X328194D01*
X326694Y228484D02*
Y231484D01*
X345500Y154000D02*
X348500D01*
X347000Y152500D02*
Y155500D01*
X116397Y79374D02*
X119397D01*
X117897Y77874D02*
Y80874D01*
X117704Y99442D02*
X120704D01*
X119204Y97942D02*
Y100942D01*
X288500Y208000D02*
X291500D01*
X290000Y206500D02*
Y209500D01*
X295500Y208000D02*
X298500D01*
X297000Y206500D02*
Y209500D01*
X288500Y201000D02*
X291500D01*
X290000Y199500D02*
Y202500D01*
X295500Y201000D02*
X298500D01*
X297000Y199500D02*
Y202500D01*
X402597Y168192D02*
X405597D01*
X404096Y166692D02*
Y169692D01*
X409866Y160922D02*
X412867D01*
X411367Y159422D02*
Y162422D01*
X402597Y160922D02*
X405597D01*
X404096Y159422D02*
Y162422D01*
X409866Y168192D02*
X412867D01*
X411367Y166692D02*
Y169692D01*
X581453Y285750D02*
X584453D01*
X582953Y284250D02*
Y287250D01*
X436500Y105000D02*
X439500D01*
X438000Y103500D02*
Y106500D01*
X587491Y277100D02*
X590491D01*
X588991Y275600D02*
Y278600D01*
X284500Y517000D02*
X287500D01*
X286000Y515500D02*
Y518500D01*
X412381Y393898D02*
X415381D01*
X413881Y392398D02*
Y395398D01*
X535067Y268475D02*
X538067D01*
X536567Y266975D02*
Y269975D01*
X537300Y228864D02*
X540300D01*
X538800Y227364D02*
Y230364D01*
X581453Y273050D02*
X584453D01*
X582953Y271550D02*
Y274550D01*
X435931Y34800D02*
X438931D01*
X437431Y33300D02*
Y36300D01*
X536500Y409000D02*
X539500D01*
X538000Y407500D02*
Y410500D01*
X581453Y260350D02*
X584453D01*
X582953Y258850D02*
Y261850D01*
X429624Y356693D02*
X432624D01*
X431124Y355193D02*
Y358194D01*
X586500Y250000D02*
X589500D01*
X588000Y248500D02*
Y251500D01*
X580767Y245529D02*
X583767D01*
X582267Y244029D02*
Y247029D01*
X560400Y466200D02*
X563400D01*
X561900Y464700D02*
Y467700D01*
X581453Y234950D02*
X584453D01*
X582953Y233450D02*
Y236450D01*
X394500Y425000D02*
X397500D01*
X396000Y423500D02*
Y426500D01*
X450108Y365490D02*
X453108D01*
X451608Y363990D02*
Y366990D01*
X398500Y408000D02*
X401500D01*
X400000Y406500D02*
Y409500D01*
X581453Y222250D02*
X584453D01*
X582953Y220750D02*
Y223750D01*
X395500Y467000D02*
X398500D01*
X397000Y465500D02*
Y468500D01*
X581453Y196850D02*
X584453D01*
X582953Y195350D02*
Y198350D01*
X388900Y402200D02*
X391900D01*
X390400Y400700D02*
Y403700D01*
X289340Y443520D02*
X292340D01*
X290840Y442020D02*
Y445019D01*
X581645Y171600D02*
X584645D01*
X583145Y170100D02*
Y173100D01*
X581645Y158900D02*
X584645D01*
X583145Y157400D02*
Y160400D01*
X581645Y146200D02*
X584645D01*
X583145Y144700D02*
Y147700D01*
X581645Y133500D02*
X584645D01*
X583145Y132000D02*
Y135000D01*
X677621Y328636D02*
X680621D01*
X679121Y327136D02*
Y330136D01*
X677915Y262995D02*
X680915D01*
X679415Y261495D02*
Y264495D01*
X678037Y196420D02*
X681037D01*
X679537Y194920D02*
Y197920D01*
X678272Y130650D02*
X681272D01*
X679772Y129150D02*
Y132150D01*
X442932Y243872D02*
X445932D01*
X444432Y242372D02*
Y245372D01*
X670300Y90864D02*
X673300D01*
X671800Y89364D02*
Y92364D01*
X458997Y291450D02*
X461997D01*
X460497Y289950D02*
Y292950D01*
X427500Y299000D02*
X430500D01*
X429000Y297500D02*
Y300500D01*
X428650Y81730D02*
X431650D01*
X430150Y80230D02*
Y83230D01*
X428650Y89000D02*
X431650D01*
X430150Y87500D02*
Y90500D01*
X421380Y89000D02*
X424380D01*
X422880Y87500D02*
Y90500D01*
X421380Y81730D02*
X424380D01*
X422880Y80230D02*
Y83230D01*
X376500Y337000D02*
X379500D01*
X378000Y335500D02*
Y338500D01*
X348135Y318855D02*
X351135D01*
X349635Y317355D02*
Y320355D01*
X307529Y294476D02*
X310529D01*
X309029Y292976D02*
Y295976D01*
X288529Y232029D02*
X291529D01*
X290029Y230529D02*
Y233529D01*
X385367Y174778D02*
X388367D01*
X386867Y173278D02*
Y176278D01*
X87477Y460995D02*
X90477D01*
X88976Y459495D02*
Y462495D01*
X85464Y468348D02*
X88464D01*
X86964Y466848D02*
Y469848D01*
X582630Y107950D02*
X585630D01*
X584130Y106450D02*
Y109450D01*
X582630Y120650D02*
X585630D01*
X584130Y119150D02*
Y122150D01*
X310763Y241265D02*
X313763D01*
X312263Y239765D02*
Y242765D01*
X472263Y241265D02*
X475263D01*
X473763Y239765D02*
Y242765D01*
X305321Y260926D02*
X308321D01*
X306821Y259426D02*
Y262426D01*
X472332Y259921D02*
X475331D01*
X473831Y258421D02*
Y261421D01*
X584500Y71193D02*
X587500D01*
X586000Y69693D02*
Y72694D01*
X260375Y401875D02*
X263375D01*
X261875Y400375D02*
Y403375D01*
X224090Y78176D02*
X227090D01*
X225590Y76676D02*
Y79676D01*
X224389Y92036D02*
X227389D01*
X225889Y90536D02*
Y93536D01*
X413740Y188082D02*
X416740D01*
X415240Y186582D02*
Y189582D01*
X379823Y180323D02*
X382823D01*
X381323Y178823D02*
Y181823D01*
X369462Y190683D02*
X372462D01*
X370962Y189183D02*
Y192183D01*
X424330Y189901D02*
X427330D01*
X425830Y188401D02*
Y191401D01*
X391701Y110300D02*
X394701D01*
X393201Y108800D02*
Y111800D01*
X390487Y192658D02*
X393487D01*
X391987Y191158D02*
Y194158D01*
X391500Y97980D02*
X394500D01*
X393000Y96480D02*
Y99480D01*
X384500Y105000D02*
X387500D01*
X386000Y103500D02*
Y106500D01*
X264426Y394579D02*
X267425D01*
X265926Y393079D02*
Y396079D01*
X272081Y285066D02*
X275081D01*
X273581Y283566D02*
Y286566D01*
X376500Y103000D02*
X379500D01*
X378000Y101500D02*
Y104500D01*
X281013Y251353D02*
X284013D01*
X282513Y249853D02*
Y252853D01*
X408529Y321700D02*
X411529D01*
X410029Y320200D02*
Y323200D01*
X327529Y302450D02*
X330529D01*
X329029Y300950D02*
Y303950D01*
X353910Y336455D02*
X356910D01*
X355410Y334955D02*
Y337955D01*
X524500Y184000D02*
X527500D01*
X526000Y182500D02*
Y185500D01*
X432604Y253399D02*
X435604D01*
X434104Y251899D02*
Y254899D01*
X451156Y227208D02*
X454156D01*
X452656Y225708D02*
Y228708D01*
X406204Y201170D02*
X409204D01*
X407704Y199670D02*
Y202670D01*
X506300Y204864D02*
X509300D01*
X507800Y203364D02*
Y206364D01*
X631300Y118864D02*
X634300D01*
X632800Y117364D02*
Y120364D01*
X637237Y191868D02*
X640237D01*
X638737Y190368D02*
Y193368D01*
X637234Y312930D02*
X640234D01*
X638734Y311430D02*
Y314430D01*
X637234Y322930D02*
X640234D01*
X638734Y321430D02*
Y324430D01*
X506300Y212864D02*
X509300D01*
X507800Y211364D02*
Y214364D01*
X506300Y196864D02*
X509300D01*
X507800Y195364D02*
Y198364D01*
X492300Y207864D02*
X495300D01*
X493800Y206364D02*
Y209364D01*
X492300Y215864D02*
X495300D01*
X493800Y214364D02*
Y217364D01*
X492300Y223864D02*
X495300D01*
X493800Y222364D02*
Y225364D01*
X320528Y329400D02*
X323529D01*
X322029Y327900D02*
Y330900D01*
X369779Y213950D02*
X372779D01*
X371279Y212450D02*
Y215450D01*
X379779Y213950D02*
X382779D01*
X381279Y212450D02*
Y215450D01*
X389779Y213950D02*
X392779D01*
X391279Y212450D02*
Y215450D01*
X399779Y213950D02*
X402779D01*
X401279Y212450D02*
Y215450D01*
X416355Y317659D02*
X419355D01*
X417855Y316159D02*
Y319159D01*
X382279Y292393D02*
X385279D01*
X383779Y290893D02*
Y293894D01*
M02*
