G04*
G04 #@! TF.GenerationSoftware,Altium Limited,Altium Designer,26.1.1 (7)*
G04*
G04 Layer_Physical_Order=1*
G04 Layer_Color=255*
%FSLAX44Y44*%
%MOMM*%
G71*
G04*
G04 #@! TF.SameCoordinates,92A7BCAF-68E7-4111-A48F-47A069CEA177*
G04*
G04*
G04 #@! TF.FilePolarity,Positive*
G04*
G01*
G75*
%ADD11R,2.5700X0.7000*%
G04:AMPARAMS|DCode=12|XSize=0.55mm|YSize=0.58mm|CornerRadius=0.1403mm|HoleSize=0mm|Usage=FLASHONLY|Rotation=0.000|XOffset=0mm|YOffset=0mm|HoleType=Round|Shape=RoundedRectangle|*
%AMROUNDEDRECTD12*
21,1,0.5500,0.2995,0,0,0.0*
21,1,0.2695,0.5800,0,0,0.0*
1,1,0.2805,0.1348,-0.1498*
1,1,0.2805,-0.1348,-0.1498*
1,1,0.2805,-0.1348,0.1498*
1,1,0.2805,0.1348,0.1498*
%
%ADD12ROUNDEDRECTD12*%
G04:AMPARAMS|DCode=13|XSize=0.55mm|YSize=0.58mm|CornerRadius=0.1403mm|HoleSize=0mm|Usage=FLASHONLY|Rotation=270.000|XOffset=0mm|YOffset=0mm|HoleType=Round|Shape=RoundedRectangle|*
%AMROUNDEDRECTD13*
21,1,0.5500,0.2995,0,0,270.0*
21,1,0.2695,0.5800,0,0,270.0*
1,1,0.2805,-0.1498,-0.1348*
1,1,0.2805,-0.1498,0.1348*
1,1,0.2805,0.1498,0.1348*
1,1,0.2805,0.1498,-0.1348*
%
%ADD13ROUNDEDRECTD13*%
G04:AMPARAMS|DCode=14|XSize=0.63mm|YSize=0.58mm|CornerRadius=0.1508mm|HoleSize=0mm|Usage=FLASHONLY|Rotation=90.000|XOffset=0mm|YOffset=0mm|HoleType=Round|Shape=RoundedRectangle|*
%AMROUNDEDRECTD14*
21,1,0.6300,0.2784,0,0,90.0*
21,1,0.3284,0.5800,0,0,90.0*
1,1,0.3016,0.1392,0.1642*
1,1,0.3016,0.1392,-0.1642*
1,1,0.3016,-0.1392,-0.1642*
1,1,0.3016,-0.1392,0.1642*
%
%ADD14ROUNDEDRECTD14*%
G04:AMPARAMS|DCode=15|XSize=0.25mm|YSize=0.75mm|CornerRadius=0.0625mm|HoleSize=0mm|Usage=FLASHONLY|Rotation=180.000|XOffset=0mm|YOffset=0mm|HoleType=Round|Shape=RoundedRectangle|*
%AMROUNDEDRECTD15*
21,1,0.2500,0.6250,0,0,180.0*
21,1,0.1250,0.7500,0,0,180.0*
1,1,0.1250,-0.0625,0.3125*
1,1,0.1250,0.0625,0.3125*
1,1,0.1250,0.0625,-0.3125*
1,1,0.1250,-0.0625,-0.3125*
%
%ADD15ROUNDEDRECTD15*%
G04:AMPARAMS|DCode=16|XSize=0.63mm|YSize=0.58mm|CornerRadius=0.1508mm|HoleSize=0mm|Usage=FLASHONLY|Rotation=180.000|XOffset=0mm|YOffset=0mm|HoleType=Round|Shape=RoundedRectangle|*
%AMROUNDEDRECTD16*
21,1,0.6300,0.2784,0,0,180.0*
21,1,0.3284,0.5800,0,0,180.0*
1,1,0.3016,-0.1642,0.1392*
1,1,0.3016,0.1642,0.1392*
1,1,0.3016,0.1642,-0.1392*
1,1,0.3016,-0.1642,-0.1392*
%
%ADD16ROUNDEDRECTD16*%
%ADD17R,0.2500X0.6000*%
G04:AMPARAMS|DCode=18|XSize=0.54mm|YSize=0.54mm|CornerRadius=0.1404mm|HoleSize=0mm|Usage=FLASHONLY|Rotation=90.000|XOffset=0mm|YOffset=0mm|HoleType=Round|Shape=RoundedRectangle|*
%AMROUNDEDRECTD18*
21,1,0.5400,0.2592,0,0,90.0*
21,1,0.2592,0.5400,0,0,90.0*
1,1,0.2808,0.1296,0.1296*
1,1,0.2808,0.1296,-0.1296*
1,1,0.2808,-0.1296,-0.1296*
1,1,0.2808,-0.1296,0.1296*
%
%ADD18ROUNDEDRECTD18*%
%ADD19R,0.6000X0.2500*%
%ADD33R,2.4500X2.4500*%
%ADD34C,1.0000*%
%ADD35C,0.4000*%
%ADD36C,0.7000*%
%ADD37C,0.5000*%
%ADD38C,0.1800*%
%ADD39C,0.3000*%
%ADD40C,0.1500*%
%ADD41C,0.1270*%
%ADD42C,0.2000*%
%ADD43C,0.6000*%
%ADD44C,0.2500*%
%ADD45C,0.4500*%
%ADD46C,0.3500*%
%ADD47C,1.5000*%
%ADD48C,1.7000*%
%ADD49C,0.6000*%
G36*
X267721Y530341D02*
X269191Y528341D01*
X269133Y528047D01*
Y527700D01*
X274650D01*
X280167D01*
Y528047D01*
X280109Y528341D01*
X281579Y530341D01*
X308341D01*
Y458259D01*
X305707D01*
X304536Y458026D01*
X302331Y457113D01*
X301338Y456449D01*
X299651Y454762D01*
X298988Y453769D01*
X298074Y451564D01*
X297841Y450393D01*
Y448007D01*
X298026Y447076D01*
X296103Y446493D01*
X295927Y446918D01*
X294239Y448606D01*
X292034Y449520D01*
X289647D01*
X287442Y448606D01*
X285754Y446918D01*
X284840Y444713D01*
Y442326D01*
X285754Y440121D01*
X285497Y439698D01*
X283865Y438445D01*
X282148Y438786D01*
X279153D01*
X277435Y438445D01*
X276078Y437538D01*
X274722D01*
X273365Y438445D01*
X271647Y438786D01*
X268652D01*
X267474Y438552D01*
X265922Y439435D01*
X265658Y439693D01*
X265651Y441793D01*
X270354Y446496D01*
X271182Y447737D01*
X271474Y449200D01*
Y510121D01*
X273020Y511390D01*
X273153Y511364D01*
X276147D01*
X277865Y511705D01*
X279321Y512678D01*
X279387Y512776D01*
X281583Y512931D01*
X282601Y511913D01*
X284806Y511000D01*
X287194D01*
X289399Y511913D01*
X291087Y513601D01*
X292000Y515807D01*
Y518194D01*
X291087Y520399D01*
X289399Y522087D01*
X287194Y523000D01*
X284806D01*
X282601Y522087D01*
X281926Y521411D01*
X280397Y521450D01*
X280179Y521786D01*
X279502Y523277D01*
X279861Y523814D01*
X280167Y525353D01*
Y525700D01*
X274650D01*
X269133D01*
Y525353D01*
X269439Y523814D01*
X270141Y522763D01*
X269445Y521464D01*
X269081Y521023D01*
X269079D01*
X267616Y520732D01*
X266375Y519904D01*
X264946Y518475D01*
X264118Y517234D01*
X263827Y515771D01*
Y450784D01*
X258946Y445904D01*
X258118Y444663D01*
X257827Y443200D01*
Y432786D01*
X255979Y432021D01*
X242987Y445013D01*
Y530341D01*
X267721Y530341D01*
D02*
G37*
G36*
X626378Y528341D02*
X625798Y527761D01*
X624284Y525139D01*
X623500Y522214D01*
Y519186D01*
X624284Y516261D01*
X625798Y513639D01*
X627939Y511498D01*
X630561Y509984D01*
X633486Y509200D01*
X636514D01*
X639439Y509984D01*
X642061Y511498D01*
X644202Y513639D01*
X645716Y516261D01*
X646500Y519186D01*
Y522214D01*
X645716Y525139D01*
X644964Y526443D01*
X646564Y527671D01*
X657342Y516893D01*
Y466761D01*
X655416Y466317D01*
X654662Y468137D01*
X653568Y469775D01*
X652175Y471168D01*
X650537Y472262D01*
X648717Y473016D01*
X646785Y473400D01*
X644815D01*
X642883Y473016D01*
X641064Y472262D01*
X639426Y471168D01*
X638033Y469775D01*
X636938Y468137D01*
X636185Y466317D01*
X635800Y464385D01*
Y462415D01*
X636185Y460483D01*
X636938Y458663D01*
X638033Y457025D01*
X639426Y455633D01*
X641064Y454538D01*
X642883Y453784D01*
X644815Y453400D01*
X646785D01*
X648717Y453784D01*
X650537Y454538D01*
X652175Y455633D01*
X653568Y457025D01*
X654662Y458663D01*
X655416Y460483D01*
X657342Y460039D01*
Y403860D01*
X657342Y403860D01*
X657574Y402690D01*
X658237Y401697D01*
X658237Y401697D01*
X682741Y377193D01*
Y335796D01*
X680742Y334459D01*
X680314Y334636D01*
X677927D01*
X675722Y333723D01*
X674034Y332035D01*
X673121Y329830D01*
Y327443D01*
X674034Y325238D01*
X674166Y325106D01*
X673709Y322853D01*
X673355Y322624D01*
X673142Y322666D01*
X671466D01*
X668499Y325634D01*
X667259Y326462D01*
X666348Y328251D01*
X666875Y329467D01*
X667040Y329715D01*
X667382Y331432D01*
Y334427D01*
X667040Y336145D01*
X666067Y337602D01*
X665252Y338146D01*
Y339841D01*
X664970Y341259D01*
X664166Y342462D01*
X661077Y345551D01*
X659875Y346354D01*
X658457Y346636D01*
X645796D01*
X644377Y346354D01*
X643175Y345551D01*
X636114Y338489D01*
X635310Y337287D01*
X635028Y335869D01*
Y327755D01*
X633600Y326329D01*
X631486Y326335D01*
X631087Y327299D01*
X629399Y328987D01*
X628962Y329168D01*
Y331332D01*
X629399Y331513D01*
X631087Y333201D01*
X632000Y335407D01*
Y337794D01*
X631087Y339999D01*
X629399Y341687D01*
X628962Y341868D01*
Y344032D01*
X629399Y344213D01*
X631087Y345901D01*
X632000Y348107D01*
Y350494D01*
X631087Y352699D01*
X629399Y354387D01*
X628962Y354568D01*
Y356732D01*
X629399Y356913D01*
X631087Y358601D01*
X632000Y360807D01*
Y363194D01*
X631087Y365399D01*
X629485Y367000D01*
X631087Y368601D01*
X632000Y370807D01*
Y373194D01*
X631087Y375399D01*
X629399Y377086D01*
X627193Y378000D01*
X624807D01*
X624759Y377980D01*
X624456Y378182D01*
X622993Y378473D01*
X622670D01*
Y393550D01*
Y406250D01*
Y418950D01*
Y431650D01*
Y447324D01*
X623900Y448146D01*
X624779Y449025D01*
X625608Y450266D01*
X625899Y451729D01*
Y458425D01*
X626619Y460163D01*
Y462550D01*
X625705Y464756D01*
X624018Y466443D01*
X621812Y467357D01*
X619425D01*
X617220Y466443D01*
X615532Y464756D01*
X614619Y462550D01*
Y460163D01*
X614956Y459350D01*
X613619Y457350D01*
X590970D01*
Y449281D01*
X588970Y448452D01*
X588455Y448967D01*
X586518Y449770D01*
X584422D01*
X582485Y448967D01*
X581970Y448452D01*
X579970Y449281D01*
Y457350D01*
X575129D01*
X574932Y459350D01*
X575965Y459556D01*
X576457Y459884D01*
X578210Y460860D01*
X579514Y459989D01*
X581053Y459683D01*
X581400D01*
Y465200D01*
X582400D01*
Y466200D01*
X587767D01*
Y466698D01*
X587461Y468236D01*
X587250Y468552D01*
X586584Y470513D01*
X587456Y471817D01*
X587762Y473355D01*
Y473853D01*
X582394D01*
Y474853D01*
X581394D01*
Y480370D01*
X581047D01*
X579509Y480064D01*
X578205Y479193D01*
X576451Y480169D01*
X575960Y480497D01*
X574242Y480839D01*
X571547D01*
X569829Y480497D01*
X568373Y479524D01*
X567400Y478068D01*
X567058Y476350D01*
Y473355D01*
X567268Y472298D01*
X567166Y472089D01*
X565299Y471287D01*
X563093Y472200D01*
X560706D01*
X558501Y471287D01*
X558187Y470973D01*
X545506D01*
X543555Y470585D01*
X541901Y469480D01*
X536281Y463859D01*
X535176Y462206D01*
X534788Y460255D01*
Y458637D01*
X534434Y458228D01*
X532788Y457395D01*
X531264Y458026D01*
X530093Y458259D01*
X527459D01*
Y530341D01*
X550000D01*
X550828Y528341D01*
X549966Y527479D01*
X548512Y524961D01*
X547760Y522153D01*
Y521700D01*
X558800D01*
X569840D01*
Y522153D01*
X569088Y524961D01*
X567634Y527479D01*
X566772Y528341D01*
X567600Y530341D01*
X574749D01*
X575578Y528341D01*
X574998Y527761D01*
X573484Y525139D01*
X572700Y522214D01*
Y519186D01*
X573484Y516261D01*
X574998Y513639D01*
X577139Y511498D01*
X579761Y509984D01*
X582686Y509200D01*
X585714D01*
X588639Y509984D01*
X591261Y511498D01*
X593402Y513639D01*
X594916Y516261D01*
X595700Y519186D01*
Y522214D01*
X594916Y525139D01*
X593402Y527761D01*
X592822Y528341D01*
X593651Y530341D01*
X600149D01*
X600978Y528341D01*
X600398Y527761D01*
X598884Y525139D01*
X598100Y522214D01*
Y519186D01*
X598884Y516261D01*
X600398Y513639D01*
X602539Y511498D01*
X605161Y509984D01*
X608086Y509200D01*
X611114D01*
X614039Y509984D01*
X616661Y511498D01*
X618802Y513639D01*
X620316Y516261D01*
X621100Y519186D01*
Y522214D01*
X620316Y525139D01*
X618802Y527761D01*
X618222Y528341D01*
X619050Y530341D01*
X625550D01*
X626378Y528341D01*
D02*
G37*
G36*
X298988Y444631D02*
X299651Y443638D01*
X301338Y441951D01*
X302331Y441287D01*
X304536Y440374D01*
X305707Y440141D01*
X308341D01*
Y404200D01*
Y403007D01*
X308574Y401836D01*
X309408Y399823D01*
X309156Y399131D01*
X308290Y397823D01*
X288218D01*
X275138Y410904D01*
X273898Y411732D01*
X272435Y412023D01*
X269000D01*
Y418083D01*
X269150D01*
Y423450D01*
X271150D01*
Y418083D01*
X271647D01*
X273186Y418389D01*
X274490Y419260D01*
X276310Y419260D01*
X277614Y418389D01*
X279153Y418083D01*
X279650D01*
Y423450D01*
X280650D01*
Y424450D01*
X286167D01*
Y424798D01*
X285861Y426336D01*
X285844Y426362D01*
X286913Y428362D01*
X287400D01*
X289156Y428711D01*
X290644Y429706D01*
X294085Y433146D01*
X295079Y434635D01*
X295429Y436390D01*
Y439622D01*
X295927Y440121D01*
X296840Y442326D01*
Y444713D01*
X298688Y445353D01*
X298988Y444631D01*
D02*
G37*
G36*
X539000Y383883D02*
X539497D01*
X540698Y384122D01*
X540913Y383601D01*
X542362Y382152D01*
X542496Y381000D01*
X542362Y379848D01*
X540913Y378399D01*
X540000Y376194D01*
Y373806D01*
X540913Y371601D01*
X542601Y369913D01*
X543400Y369582D01*
Y367418D01*
X542601Y367087D01*
X540913Y365399D01*
X540000Y363194D01*
Y360807D01*
X540913Y358601D01*
X542601Y356913D01*
X543038Y356732D01*
Y354568D01*
X542601Y354387D01*
X540913Y352699D01*
X540000Y350494D01*
Y348107D01*
X540913Y345901D01*
X542601Y344213D01*
X543038Y344032D01*
Y341868D01*
X542601Y341687D01*
X540913Y339999D01*
X540000Y337794D01*
Y335407D01*
X540913Y333201D01*
X542601Y331513D01*
X543038Y331332D01*
Y329168D01*
X542601Y328987D01*
X540913Y327299D01*
X540000Y325093D01*
Y322707D01*
X540913Y320501D01*
X542601Y318813D01*
X543280Y318532D01*
Y316368D01*
X542601Y316087D01*
X540913Y314399D01*
X540000Y312194D01*
Y309806D01*
X540913Y307601D01*
X542601Y305913D01*
X544807Y305000D01*
X546941D01*
X547295Y304899D01*
X548515Y303685D01*
X548730Y302841D01*
Y299450D01*
X564120D01*
X579510D01*
Y302841D01*
X579970Y304650D01*
X579970Y306299D01*
Y317350D01*
Y330050D01*
Y342750D01*
Y355450D01*
Y368150D01*
Y380850D01*
Y384461D01*
X581970Y384859D01*
X582138Y384454D01*
X583825Y382766D01*
X586031Y381853D01*
X588418D01*
X588970Y382082D01*
X590970Y380850D01*
Y368150D01*
Y355450D01*
Y342750D01*
Y330050D01*
Y317350D01*
Y304650D01*
Y291950D01*
X591430Y291790D01*
Y285843D01*
X589784Y284680D01*
X588953Y285079D01*
Y286943D01*
X588040Y289148D01*
X586352Y290836D01*
X584147Y291750D01*
X581760D01*
X581594Y291681D01*
X579830Y292803D01*
X579510Y294059D01*
Y297450D01*
X564120D01*
X548730D01*
Y294059D01*
X548270Y292250D01*
X546578Y291358D01*
X542450D01*
X540304Y290931D01*
X538485Y289715D01*
X534448Y285679D01*
X533501Y285287D01*
X531813Y283599D01*
X530900Y281394D01*
Y279007D01*
X531813Y276801D01*
X532971Y275644D01*
X533123Y274044D01*
X532833Y273225D01*
X531481Y271873D01*
X530978Y270660D01*
X528719Y270090D01*
X526235Y272575D01*
Y376533D01*
X534321Y384618D01*
X534964Y384189D01*
X536502Y383883D01*
X537000D01*
Y389250D01*
X539000D01*
Y383883D01*
D02*
G37*
G36*
X407881Y394491D02*
Y392704D01*
X408795Y390499D01*
X410217Y389077D01*
Y381492D01*
X409678Y381132D01*
X408705Y379675D01*
X408364Y377957D01*
Y374963D01*
X408705Y373245D01*
X409678Y371788D01*
X411135Y370816D01*
X412852Y370474D01*
X415547D01*
X417265Y370816D01*
X417374Y370888D01*
X418950Y371674D01*
X420525Y370888D01*
X420635Y370816D01*
X422352Y370474D01*
X425047D01*
X425626Y370589D01*
X427626Y369169D01*
Y363798D01*
X427542Y363644D01*
X425626Y362312D01*
X424942Y362448D01*
X421658D01*
X419899Y362099D01*
X418536Y361188D01*
X417821Y361665D01*
X416242Y361979D01*
X415600D01*
Y356460D01*
Y350941D01*
X416242D01*
X417821Y351255D01*
X418536Y351732D01*
X419899Y350822D01*
X421658Y350472D01*
X424942D01*
X426701Y350822D01*
X427819Y351568D01*
X429931Y350694D01*
X432318D01*
X433177Y351049D01*
X435177Y349713D01*
Y346000D01*
X435468Y344537D01*
X436296Y343296D01*
X442538Y337055D01*
X441773Y335207D01*
X437333D01*
X435870Y334916D01*
X434630Y334087D01*
X428743Y328200D01*
X427457D01*
X425251Y327287D01*
X423563Y325599D01*
X422879Y323948D01*
X421938Y323252D01*
X420650Y322995D01*
X419048Y323659D01*
X416661D01*
X415851Y323323D01*
X415115Y325099D01*
X413427Y326786D01*
X411222Y327700D01*
X408835D01*
X407102Y326982D01*
X405632Y327636D01*
X405102Y328087D01*
Y374176D01*
X404811Y375639D01*
X403982Y376879D01*
X392158Y388704D01*
X391974Y390567D01*
X396896Y395489D01*
X406883D01*
X407881Y394491D01*
D02*
G37*
G36*
X374141Y341628D02*
X374140Y341625D01*
X372914Y340399D01*
X372000Y338194D01*
Y336567D01*
X369781D01*
X368243Y336261D01*
X366939Y335390D01*
X366067Y334086D01*
X365761Y332547D01*
Y332200D01*
X371279D01*
Y330200D01*
X365761D01*
Y329852D01*
X366067Y328314D01*
X366939Y327010D01*
X365963Y325257D01*
X365634Y324765D01*
X365292Y323047D01*
Y322339D01*
X363523Y321606D01*
X363073Y321730D01*
X362991Y321812D01*
X361668Y322696D01*
X360107Y323007D01*
X360107Y323007D01*
X353968D01*
X353033Y323941D01*
X350828Y324855D01*
X348441D01*
X346236Y323941D01*
X344548Y322253D01*
X343635Y320048D01*
Y317661D01*
X344548Y315456D01*
X345408Y314596D01*
X345067Y314086D01*
X344761Y312547D01*
Y312200D01*
X350279D01*
Y310200D01*
X344761D01*
Y309853D01*
X345067Y308314D01*
X345939Y307010D01*
X344963Y305257D01*
X344634Y304765D01*
X344292Y303048D01*
Y300352D01*
X344634Y298635D01*
X345607Y297178D01*
X346647Y296483D01*
X346746Y295987D01*
X347575Y294746D01*
X349712Y292609D01*
X350953Y291780D01*
X352416Y291489D01*
X367274D01*
X369529Y289235D01*
Y283450D01*
X361279D01*
Y282906D01*
X354779D01*
X354779Y282906D01*
X353360Y282624D01*
X352158Y281821D01*
X348078Y277741D01*
X347275Y276538D01*
X346992Y275120D01*
Y234530D01*
X347275Y233112D01*
X348078Y231909D01*
X365279Y214709D01*
Y212757D01*
X366192Y210551D01*
X367414Y209329D01*
Y195620D01*
X365886Y194091D01*
X350382Y209596D01*
X348188Y211279D01*
X345634Y212337D01*
X342893Y212698D01*
X342893Y212698D01*
X303664D01*
X300873Y215489D01*
X298679Y217172D01*
X296125Y218230D01*
X293384Y218591D01*
X293384Y218591D01*
X290000D01*
X287259Y218230D01*
X284705Y217172D01*
X283823Y216495D01*
X281823Y217482D01*
Y230542D01*
X282079Y230713D01*
X282313Y230727D01*
X284426Y229875D01*
X284942Y228630D01*
X286630Y226942D01*
X288835Y226029D01*
X291222D01*
X293427Y226942D01*
X295115Y228630D01*
X296029Y230835D01*
Y233222D01*
X295115Y235427D01*
X295081Y235462D01*
X294700Y237428D01*
X295673Y238885D01*
X296015Y240602D01*
Y243298D01*
X295884Y243958D01*
X297227Y245848D01*
X297376Y245927D01*
X297987Y245915D01*
X298290Y245462D01*
X299489Y244660D01*
X300904Y244379D01*
X302154D01*
X303568Y244660D01*
X304443Y245245D01*
X304669Y245094D01*
X305150Y244998D01*
X306270Y243440D01*
X306424Y242848D01*
X306263Y242459D01*
Y240072D01*
X304452Y239219D01*
X303037D01*
X301457Y238905D01*
X300118Y238010D01*
X299223Y236671D01*
X298909Y235092D01*
Y234700D01*
X304679D01*
Y232700D01*
X298909D01*
Y232308D01*
X299223Y230728D01*
X300118Y229390D01*
Y228010D01*
X299223Y226672D01*
X298909Y225092D01*
Y224700D01*
X304679D01*
Y223700D01*
X305679D01*
Y218181D01*
X306321D01*
X307900Y218495D01*
X308615Y218972D01*
X309978Y218062D01*
X311737Y217712D01*
X315021D01*
X316780Y218062D01*
X318271Y219058D01*
X319267Y220549D01*
X319617Y222308D01*
Y225092D01*
X319267Y226851D01*
X318784Y227575D01*
X318944Y227790D01*
X321225Y227509D01*
X321608Y226585D01*
X323295Y224897D01*
X325501Y223984D01*
X327888D01*
X330093Y224897D01*
X331618Y226423D01*
X333281Y227588D01*
X335486Y226674D01*
X337873D01*
X340079Y227588D01*
X341766Y229275D01*
X342680Y231481D01*
Y233868D01*
X341766Y236073D01*
X340503Y237336D01*
Y255891D01*
X341704Y257092D01*
X342532Y258332D01*
X342823Y259795D01*
Y283379D01*
X342532Y284842D01*
X341704Y286082D01*
X333632Y294154D01*
X332392Y294982D01*
X332356Y294989D01*
X332262Y295130D01*
X332410Y297134D01*
X332744Y297680D01*
X334115Y299051D01*
X335029Y301257D01*
Y303643D01*
X334115Y305849D01*
X332852Y307112D01*
Y339177D01*
X347281D01*
X349410Y337048D01*
Y335262D01*
X350323Y333056D01*
X352011Y331368D01*
X354216Y330455D01*
X356603D01*
X358809Y331368D01*
X360496Y333056D01*
X361410Y335262D01*
Y337649D01*
X360496Y339854D01*
X358809Y341542D01*
X358603Y341627D01*
X359001Y343627D01*
X373491D01*
X374141Y341628D01*
D02*
G37*
G36*
X458341Y458259D02*
X455706D01*
X454536Y458026D01*
X452331Y457113D01*
X451338Y456449D01*
X449651Y454762D01*
X448988Y453769D01*
X448074Y451564D01*
X447841Y450393D01*
Y448007D01*
X448074Y446836D01*
X448988Y444631D01*
X449651Y443638D01*
X451338Y441951D01*
X452331Y441287D01*
X454536Y440374D01*
X455706Y440141D01*
X458341D01*
Y404200D01*
Y403007D01*
X458574Y401836D01*
X459487Y399631D01*
X460151Y398638D01*
X461838Y396951D01*
X462831Y396287D01*
X465036Y395374D01*
X466207Y395141D01*
X468593D01*
X469764Y395374D01*
X471969Y396287D01*
X472962Y396951D01*
X474649Y398638D01*
X475312Y399631D01*
X475938Y401141D01*
X509862D01*
X510488Y399631D01*
X511151Y398638D01*
X512838Y396951D01*
X513831Y396287D01*
X516036Y395374D01*
X516156Y395350D01*
X517225Y395047D01*
X517601Y393141D01*
X517551Y392893D01*
Y391761D01*
X509085Y383294D01*
X507980Y381640D01*
X507591Y379689D01*
Y331163D01*
X505744Y330398D01*
X491067Y345074D01*
X489827Y345903D01*
X488364Y346194D01*
X460033D01*
X460026Y346200D01*
Y360894D01*
X459735Y362357D01*
X458907Y363598D01*
X457608Y364897D01*
Y366683D01*
X456694Y368888D01*
X455006Y370576D01*
X452801Y371490D01*
X450414D01*
X448209Y370576D01*
X446521Y368888D01*
X445608Y366683D01*
Y364296D01*
X446521Y362091D01*
X448209Y360403D01*
X450414Y359490D01*
X452200D01*
X452379Y359310D01*
Y344617D01*
X452671Y343154D01*
X453499Y341913D01*
X454309Y341104D01*
X453480Y339104D01*
X451303D01*
X442823Y347584D01*
Y381000D01*
X442532Y382463D01*
X441704Y383704D01*
X418823Y406584D01*
Y463000D01*
X418532Y464463D01*
X417704Y465704D01*
X415254Y468153D01*
X414013Y468982D01*
X412550Y469273D01*
X411219D01*
X410855Y469714D01*
X410159Y471013D01*
X410861Y472064D01*
X411167Y473602D01*
Y473950D01*
X405650D01*
X399649D01*
X398706Y473147D01*
X398215Y472991D01*
X398194Y473000D01*
X395807D01*
X393601Y472087D01*
X391913Y470399D01*
X391000Y468194D01*
Y465807D01*
X391913Y463601D01*
X393601Y461913D01*
X395807Y461000D01*
X398194D01*
X400332Y461886D01*
X400340Y461884D01*
X400979Y460928D01*
X402435Y459955D01*
X404152Y459614D01*
X407147D01*
X408865Y459955D01*
X409177Y460163D01*
X411177Y459094D01*
Y438690D01*
X409177Y437683D01*
X408686Y438011D01*
X407147Y438317D01*
X406650D01*
Y432950D01*
X405650D01*
Y431950D01*
X400133D01*
Y431947D01*
X399355Y431150D01*
X398305Y430540D01*
X397193Y431000D01*
X394807D01*
X392601Y430087D01*
X390913Y428399D01*
X390000Y426194D01*
Y423806D01*
X390913Y421601D01*
X392601Y419913D01*
X394807Y419000D01*
X397193D01*
X399399Y419913D01*
X400979Y418928D01*
X401827Y418362D01*
Y415848D01*
X401193Y414000D01*
X398806D01*
X396601Y413087D01*
X394913Y411399D01*
X394000Y409193D01*
X392000Y408032D01*
X391594Y408200D01*
X389207D01*
X387001Y407287D01*
X385313Y405599D01*
X384400Y403394D01*
Y401607D01*
X380616Y397823D01*
X377510D01*
X377308Y397983D01*
X376688Y399009D01*
X376392Y399823D01*
X377226Y401836D01*
X377459Y403007D01*
Y404200D01*
Y440141D01*
X380093D01*
X381264Y440374D01*
X383469Y441287D01*
X384462Y441951D01*
X386149Y443638D01*
X386813Y444631D01*
X387726Y446836D01*
X387959Y448007D01*
Y450393D01*
X387726Y451564D01*
X386813Y453769D01*
X386149Y454762D01*
X384462Y456449D01*
X383469Y457113D01*
X381264Y458026D01*
X380093Y458259D01*
X377459D01*
Y530341D01*
X458341D01*
Y458259D01*
D02*
G37*
G36*
X484705Y320816D02*
Y318272D01*
X482705Y317013D01*
X481921Y317169D01*
X481529D01*
Y311400D01*
X479529D01*
Y317169D01*
X479137D01*
X477557Y316855D01*
X476927Y316434D01*
X474839Y315960D01*
X473500Y316855D01*
X471921Y317169D01*
X471528D01*
Y311400D01*
X469528D01*
Y317169D01*
X469137D01*
X467557Y316855D01*
X466218Y315960D01*
X464129Y316434D01*
X463500Y316855D01*
X461921Y317169D01*
X461529D01*
Y311400D01*
X460529D01*
Y310400D01*
X455009D01*
Y309758D01*
X455323Y308179D01*
X455801Y307464D01*
X454890Y306101D01*
X454540Y304342D01*
Y301058D01*
X454890Y299299D01*
X455168Y298884D01*
X453953Y297102D01*
X453026Y297286D01*
X450031D01*
X448313Y296945D01*
X446857Y295972D01*
X445884Y294515D01*
X445542Y292798D01*
Y290103D01*
X445884Y288385D01*
X445957Y288276D01*
X446103Y287982D01*
X445056Y286023D01*
X442200D01*
X440737Y285732D01*
X439496Y284904D01*
X431401Y276808D01*
X430572Y275567D01*
X430281Y274104D01*
Y262708D01*
X428433Y261943D01*
X413555Y276821D01*
X413690Y278615D01*
X413981Y280079D01*
Y289343D01*
X413690Y290807D01*
X412861Y292047D01*
X410325Y294583D01*
X410527Y296583D01*
X412776D01*
X414314Y296889D01*
X415619Y297760D01*
X417433Y296876D01*
X418063Y296455D01*
X419781Y296114D01*
X422776D01*
X423631Y296284D01*
X423913Y295601D01*
X425601Y293913D01*
X427807Y293000D01*
X430193D01*
X432399Y293913D01*
X434087Y295601D01*
X435000Y297806D01*
Y300194D01*
X434087Y302399D01*
X432399Y304087D01*
X430193Y305000D01*
X428685D01*
X427611Y305718D01*
X427358Y307596D01*
X427612Y308073D01*
X429911Y308454D01*
X430251Y308113D01*
X432457Y307200D01*
X434843D01*
X437049Y308113D01*
X438737Y309801D01*
X439650Y312006D01*
Y314394D01*
X438737Y316599D01*
X437473Y317862D01*
Y318517D01*
X442975Y324018D01*
X481503D01*
X484705Y320816D01*
D02*
G37*
G36*
X299757Y324729D02*
X301213Y323755D01*
X302931Y323414D01*
X305626D01*
X307344Y323755D01*
X308800Y324729D01*
X309257D01*
X310713Y323755D01*
X312431Y323414D01*
X315126D01*
X316844Y323755D01*
X318249Y324694D01*
X318630Y324313D01*
X320835Y323400D01*
X323222D01*
X323542Y323533D01*
X325205Y322421D01*
Y316767D01*
X323904Y316205D01*
X323205Y316050D01*
X322000Y316855D01*
X320421Y317169D01*
X320029D01*
Y311400D01*
X318029D01*
Y317169D01*
X317637D01*
X316057Y316855D01*
X315428Y316434D01*
X313339Y315960D01*
X312000Y316855D01*
X310420Y317169D01*
X310028D01*
Y311400D01*
X308029D01*
Y317169D01*
X307637D01*
X306057Y316855D01*
X304718Y315960D01*
X302630Y316434D01*
X302000Y316855D01*
X300421Y317169D01*
X300029D01*
Y311400D01*
X298029D01*
Y317169D01*
X297637D01*
X296107Y316865D01*
X296055Y316856D01*
X294107Y317957D01*
Y325139D01*
X294289Y325322D01*
X299361D01*
X299757Y324729D01*
D02*
G37*
G36*
X389955Y328638D02*
Y303540D01*
X387955Y302541D01*
X387267Y303058D01*
Y303742D01*
X386917Y305501D01*
X386006Y306864D01*
X386484Y307579D01*
X386798Y309158D01*
Y309800D01*
X381279D01*
Y311800D01*
X386798D01*
Y312442D01*
X386484Y314021D01*
X385589Y315361D01*
X384250Y316255D01*
X382671Y316569D01*
X381977Y317414D01*
X382078Y317921D01*
X382078Y317922D01*
Y332593D01*
X383087Y333601D01*
X384675Y333917D01*
X389955Y328638D01*
D02*
G37*
G36*
X682741Y301956D02*
Y269911D01*
X681078Y268800D01*
X680608Y268995D01*
X678221D01*
X676016Y268082D01*
X674328Y266394D01*
X673415Y264189D01*
Y261802D01*
X674328Y259597D01*
X673865Y257304D01*
X673504Y257059D01*
X673146Y257130D01*
X671471D01*
X668504Y260098D01*
X667263Y260926D01*
X666353Y262715D01*
X666880Y263931D01*
X667045Y264179D01*
X667386Y265896D01*
Y268892D01*
X667045Y270609D01*
X666072Y272066D01*
X665257Y272610D01*
Y273175D01*
X665257Y273175D01*
X664974Y274594D01*
X664171Y275796D01*
X661416Y278551D01*
X660214Y279354D01*
X658796Y279636D01*
X644796D01*
X643377Y279354D01*
X642175Y278551D01*
X635180Y271555D01*
X634376Y270353D01*
X634094Y268935D01*
Y256198D01*
X632094Y255800D01*
X631987Y256058D01*
X630299Y257746D01*
X628094Y258659D01*
X625707D01*
X624210Y258039D01*
X622210Y259067D01*
Y259350D01*
X606820D01*
Y261350D01*
X622210D01*
Y265154D01*
X622901Y266615D01*
X623972Y266964D01*
X625453D01*
X627658Y267878D01*
X629346Y269566D01*
X630259Y271771D01*
Y273557D01*
X633284Y276582D01*
X634113Y277822D01*
X634404Y279286D01*
Y296528D01*
X636404Y297552D01*
X637907Y296930D01*
X640294D01*
X642499Y297843D01*
X643879Y299224D01*
X646879D01*
X647524Y298258D01*
X648980Y297285D01*
X650698Y296944D01*
X653393D01*
X655111Y297285D01*
X655220Y297358D01*
X656796Y298144D01*
X658371Y297358D01*
X658480Y297285D01*
X660198Y296944D01*
X662893D01*
X664611Y297285D01*
X666067Y298258D01*
X666634Y299107D01*
X673696D01*
X675159Y299398D01*
X676399Y300226D01*
X679366Y303194D01*
X681042D01*
X681196Y303224D01*
X682741Y301956D01*
D02*
G37*
G36*
X635513Y250315D02*
Y240475D01*
X634132Y239095D01*
X633219Y236889D01*
Y234502D01*
X634132Y232297D01*
X634298Y232131D01*
X633538Y231371D01*
X632625Y229166D01*
Y226779D01*
X632912Y226085D01*
X632314Y225248D01*
X630115Y225397D01*
X630014Y225471D01*
X628399Y227087D01*
X626194Y228000D01*
X623833D01*
X623767Y228037D01*
X622563Y229171D01*
X622210Y230559D01*
Y233950D01*
X606820D01*
X591430D01*
Y230559D01*
X590970Y228750D01*
X590970Y227101D01*
Y215750D01*
Y203050D01*
Y190350D01*
Y177650D01*
Y173614D01*
X588970Y173216D01*
X588232Y174999D01*
X586544Y176687D01*
X584339Y177600D01*
X581952D01*
X581164Y177274D01*
X579510Y178754D01*
Y183150D01*
X564120D01*
Y185150D01*
X579510D01*
Y189617D01*
X581129Y191111D01*
X581760Y190850D01*
X584147D01*
X586352Y191763D01*
X588040Y193451D01*
X588953Y195656D01*
Y198043D01*
X588040Y200248D01*
X586352Y201936D01*
X584147Y202850D01*
X581760D01*
X581128Y202588D01*
X579510Y204083D01*
Y208550D01*
X564120D01*
Y210550D01*
X579510D01*
Y215017D01*
X581129Y216511D01*
X581760Y216250D01*
X584147D01*
X586352Y217163D01*
X588040Y218851D01*
X588953Y221056D01*
Y223443D01*
X588040Y225648D01*
X586352Y227336D01*
X585915Y227517D01*
Y229682D01*
X586352Y229863D01*
X588040Y231551D01*
X588953Y233756D01*
Y236143D01*
X588040Y238348D01*
X586352Y240036D01*
X587110Y241887D01*
X587354Y242130D01*
X587692Y242946D01*
X589197Y243533D01*
X590970Y242398D01*
X590970Y241150D01*
X591430Y239341D01*
Y235950D01*
X606820D01*
X622210D01*
Y239341D01*
X622670Y241150D01*
X622670Y244548D01*
X623840Y245330D01*
X625327Y246817D01*
X625707Y246659D01*
X628094D01*
X630299Y247573D01*
X631987Y249260D01*
X632381Y250210D01*
X634592Y250901D01*
X635513Y250315D01*
D02*
G37*
G36*
X511902Y242161D02*
X512609Y241688D01*
X512002Y239688D01*
X511117D01*
X509358Y239338D01*
X507995Y238428D01*
X507281Y238905D01*
X505701Y239219D01*
X505059D01*
Y233700D01*
X504059D01*
Y232700D01*
X498290D01*
Y232308D01*
X498604Y230728D01*
X499318Y229660D01*
X497765Y228385D01*
X497199Y228951D01*
X494994Y229864D01*
X492607D01*
X490402Y228951D01*
X488714Y227263D01*
X487800Y225057D01*
Y223105D01*
X476156Y211461D01*
X465913D01*
X455922Y221452D01*
X456055Y222121D01*
X457743Y223809D01*
X458459Y225537D01*
X460409Y225092D01*
Y224700D01*
X466179D01*
Y223700D01*
X467178D01*
Y218181D01*
X467821D01*
X469400Y218495D01*
X470115Y218972D01*
X471478Y218062D01*
X473237Y217712D01*
X476521D01*
X478279Y218062D01*
X479771Y219058D01*
X480767Y220549D01*
X481117Y222308D01*
Y225092D01*
X480767Y226851D01*
X479771Y228342D01*
X480551Y230226D01*
X480767Y230549D01*
X481117Y232308D01*
Y235092D01*
X480975Y235804D01*
X481558Y236772D01*
X482263Y237555D01*
X483857Y237428D01*
X485313Y236455D01*
X487031Y236114D01*
X490026D01*
X491744Y236455D01*
X493200Y237428D01*
X493666Y238127D01*
X493745D01*
X495208Y238418D01*
X496448Y239246D01*
X501019Y243817D01*
X501848Y245058D01*
X502139Y246521D01*
Y249311D01*
X503987Y250076D01*
X511902Y242161D01*
D02*
G37*
G36*
X447370Y171643D02*
X448573Y170839D01*
X449991Y170557D01*
X449991Y170557D01*
X505504D01*
X509087Y166974D01*
X509087Y166974D01*
X510289Y166171D01*
X511708Y165889D01*
X512250D01*
Y164321D01*
X512749Y163118D01*
X511549Y161117D01*
X457280D01*
X454939Y160652D01*
X452954Y159326D01*
X433458Y139829D01*
X432132Y137844D01*
X431666Y135503D01*
Y128783D01*
X431827Y127971D01*
X430097Y126418D01*
X429598Y126517D01*
X429250D01*
Y121000D01*
Y115483D01*
X429598D01*
X430907Y115743D01*
X431381Y115620D01*
X432907Y114567D01*
Y114178D01*
X432348Y113341D01*
X431882Y111000D01*
Y105000D01*
X432000Y104409D01*
Y103806D01*
X432231Y103250D01*
X432348Y102659D01*
X432683Y102158D01*
X432913Y101601D01*
X433340Y101175D01*
X433674Y100674D01*
X434175Y100339D01*
X434601Y99913D01*
X435158Y99683D01*
X435659Y99348D01*
X436250Y99231D01*
X436806Y99000D01*
X437020D01*
X437569Y98187D01*
X437809Y96960D01*
X437674Y96826D01*
X436348Y94841D01*
X436228Y94236D01*
X434058Y93578D01*
X433549Y94087D01*
X431343Y95000D01*
X428956D01*
X426751Y94087D01*
X426515Y93850D01*
X426279Y94087D01*
X424073Y95000D01*
X421687D01*
X419481Y94087D01*
X417793Y92399D01*
X416880Y90193D01*
Y87807D01*
X417793Y85601D01*
X418030Y85365D01*
X417793Y85129D01*
X416880Y82923D01*
Y80536D01*
X417793Y78331D01*
X419481Y76643D01*
X421687Y75730D01*
X424073D01*
X426279Y76643D01*
X426515Y76880D01*
X426751Y76643D01*
X428956Y75730D01*
X429458D01*
X431099Y73730D01*
X431063Y73550D01*
X431385Y71932D01*
X431327Y71810D01*
X429974Y70440D01*
X429814Y70361D01*
X429028Y70517D01*
X428681D01*
Y65000D01*
Y59483D01*
X429028D01*
X430139Y59704D01*
X431901Y58550D01*
X431944Y58045D01*
X431806Y57298D01*
X429967Y56130D01*
X429028Y56317D01*
X428681D01*
Y50800D01*
Y45283D01*
X429028D01*
X430338Y45543D01*
X430812Y45420D01*
X432338Y44367D01*
Y43977D01*
X431779Y43141D01*
X431313Y40800D01*
Y34800D01*
X431431Y34209D01*
Y33607D01*
X431661Y33050D01*
X431779Y32459D01*
X432114Y31958D01*
X432344Y31401D01*
X432770Y30975D01*
X433105Y30474D01*
X433606Y30140D01*
X434032Y29713D01*
X434589Y29483D01*
X435090Y29148D01*
X435681Y29030D01*
X436237Y28800D01*
X436840D01*
X437431Y28682D01*
X438022Y28800D01*
X438624D01*
X439181Y29030D01*
X439772Y29148D01*
X440273Y29483D01*
X440830Y29713D01*
X441256Y30140D01*
X441757Y30474D01*
X442091Y30975D01*
X442517Y31401D01*
X442748Y31958D01*
X443083Y32459D01*
X443200Y33050D01*
X443431Y33607D01*
Y34209D01*
X443548Y34800D01*
Y40800D01*
X443083Y43141D01*
X442024Y44726D01*
Y46610D01*
X442676Y47585D01*
X443017Y49302D01*
Y52298D01*
X442676Y54015D01*
X442024Y54990D01*
Y58416D01*
X442057Y58583D01*
Y60860D01*
X442675Y61785D01*
X443017Y63502D01*
Y66498D01*
X442675Y68215D01*
X442024Y69190D01*
Y69742D01*
X446326Y74043D01*
X447652Y76028D01*
X447959Y77571D01*
X448487Y77904D01*
X449908Y78240D01*
X450060Y78229D01*
X451338Y76950D01*
X452331Y76287D01*
X454536Y75374D01*
X455706Y75141D01*
X458341D01*
Y3059D01*
X367852D01*
Y101590D01*
X370000Y103738D01*
X372000Y102909D01*
Y101806D01*
X372914Y99601D01*
X374601Y97913D01*
X376806Y97000D01*
X379193D01*
X381399Y97913D01*
X383087Y99601D01*
X383126Y99696D01*
X384807Y99000D01*
X387000D01*
Y96786D01*
X387913Y94581D01*
X389601Y92893D01*
X391806Y91980D01*
X394193D01*
X396399Y92893D01*
X398087Y94581D01*
X398393Y95322D01*
X399406Y95999D01*
X407704Y104296D01*
X408532Y105537D01*
X408823Y107000D01*
Y122966D01*
X441003Y155147D01*
X441832Y156387D01*
X442123Y157850D01*
Y174276D01*
X443971Y175042D01*
X447370Y171643D01*
D02*
G37*
G36*
X547776Y139808D02*
X548270Y139388D01*
Y126850D01*
Y114150D01*
Y103099D01*
X548270Y101450D01*
X548730Y99641D01*
Y96250D01*
X564120D01*
Y94250D01*
X548730D01*
Y90859D01*
X548270Y89050D01*
X548270Y87401D01*
Y76050D01*
X575882D01*
Y75194D01*
X576348Y72852D01*
X577674Y70868D01*
X581674Y66868D01*
X582175Y66533D01*
X582601Y66107D01*
X583158Y65876D01*
X583659Y65542D01*
X584250Y65424D01*
X584807Y65194D01*
X585409D01*
X586000Y65076D01*
X586591Y65194D01*
X587193D01*
X587750Y65424D01*
X588341Y65542D01*
X588842Y65876D01*
X589399Y66107D01*
X589825Y66533D01*
X590326Y66868D01*
X590661Y67369D01*
X591087Y67795D01*
X591317Y68351D01*
X591652Y68852D01*
X591769Y69443D01*
X592000Y70000D01*
Y70602D01*
X592118Y71193D01*
X592000Y71785D01*
Y72387D01*
X591769Y72944D01*
X591652Y73534D01*
X591317Y74036D01*
X591311Y74050D01*
X592031Y75597D01*
X592457Y76050D01*
X619240D01*
X620970Y74320D01*
Y72116D01*
X621884Y69911D01*
X623571Y68223D01*
X625777Y67309D01*
X628163D01*
X628184Y67296D01*
Y61973D01*
X623680Y57469D01*
X622638Y56111D01*
X621983Y54530D01*
X621759Y52833D01*
X621983Y51136D01*
X622638Y49555D01*
X623680Y48197D01*
X625037Y47155D01*
X626619Y46500D01*
X628315Y46277D01*
X628962Y46362D01*
X629557Y45664D01*
X629991Y44480D01*
X629222Y43478D01*
X628567Y41897D01*
X628344Y40200D01*
Y22136D01*
X627939Y21902D01*
X625798Y19761D01*
X624284Y17139D01*
X623500Y14214D01*
Y11186D01*
X624284Y8261D01*
X625798Y5639D01*
X626378Y5059D01*
X625550Y3059D01*
X619050D01*
X618222Y5059D01*
X618802Y5639D01*
X620316Y8261D01*
X621100Y11186D01*
Y14214D01*
X620316Y17139D01*
X618802Y19761D01*
X616661Y21902D01*
X614039Y23416D01*
X611114Y24200D01*
X608086D01*
X605161Y23416D01*
X602539Y21902D01*
X600398Y19761D01*
X598884Y17139D01*
X598100Y14214D01*
Y11186D01*
X598884Y8261D01*
X600398Y5639D01*
X600978Y5059D01*
X600149Y3059D01*
X593651D01*
X592822Y5059D01*
X593402Y5639D01*
X594916Y8261D01*
X595700Y11186D01*
Y14214D01*
X594916Y17139D01*
X593402Y19761D01*
X591261Y21902D01*
X588639Y23416D01*
X585714Y24200D01*
X582686D01*
X579761Y23416D01*
X577139Y21902D01*
X574998Y19761D01*
X573484Y17139D01*
X572700Y14214D01*
Y11186D01*
X573484Y8261D01*
X574998Y5639D01*
X575578Y5059D01*
X574749Y3059D01*
X567600D01*
X566772Y5059D01*
X567634Y5921D01*
X569088Y8439D01*
X569840Y11247D01*
Y11700D01*
X558800D01*
X547760D01*
Y11247D01*
X548512Y8439D01*
X549966Y5921D01*
X550828Y5059D01*
X550000Y3059D01*
X527459D01*
Y75141D01*
X530093D01*
X531264Y75374D01*
X533469Y76287D01*
X534462Y76951D01*
X536149Y78638D01*
X536812Y79631D01*
X537726Y81836D01*
X537959Y83006D01*
Y85393D01*
X537726Y86564D01*
X536812Y88769D01*
X536149Y89762D01*
X534462Y91449D01*
X533469Y92112D01*
X531264Y93026D01*
X530093Y93259D01*
X527459D01*
Y129200D01*
Y130393D01*
X527226Y131564D01*
X526312Y133769D01*
X525649Y134762D01*
X525528Y134882D01*
X526357Y136882D01*
X540402D01*
X542743Y137348D01*
X544728Y138674D01*
X546422Y140369D01*
X547776Y139808D01*
D02*
G37*
%LPC*%
G36*
X569840Y519700D02*
X559800D01*
Y509660D01*
X560253D01*
X563061Y510412D01*
X565579Y511866D01*
X567634Y513921D01*
X569088Y516439D01*
X569840Y519247D01*
Y519700D01*
D02*
G37*
G36*
X557800D02*
X547760D01*
Y519247D01*
X548512Y516439D01*
X549966Y513921D01*
X552021Y511866D01*
X554539Y510412D01*
X557347Y509660D01*
X557800D01*
Y519700D01*
D02*
G37*
G36*
X583742Y480370D02*
X583394D01*
Y475853D01*
X587762D01*
Y476350D01*
X587456Y477888D01*
X586584Y479193D01*
X585280Y480064D01*
X583742Y480370D01*
D02*
G37*
G36*
X587767Y464200D02*
X583400D01*
Y459683D01*
X583747D01*
X585286Y459989D01*
X586590Y460860D01*
X587461Y462164D01*
X587767Y463703D01*
Y464200D01*
D02*
G37*
G36*
X286167Y422450D02*
X281650D01*
Y418083D01*
X282148D01*
X283686Y418389D01*
X284990Y419260D01*
X285861Y420564D01*
X286167Y422103D01*
Y422450D01*
D02*
G37*
G36*
X413600Y361979D02*
X412958D01*
X411379Y361665D01*
X410039Y360770D01*
X409145Y359431D01*
X408831Y357852D01*
Y357460D01*
X413600D01*
Y361979D01*
D02*
G37*
G36*
Y355460D02*
X408831D01*
Y355068D01*
X409145Y353489D01*
X410039Y352150D01*
X411379Y351255D01*
X412958Y350941D01*
X413600D01*
Y355460D01*
D02*
G37*
G36*
X303679Y222700D02*
X298909D01*
Y222308D01*
X299223Y220729D01*
X300118Y219390D01*
X301457Y218495D01*
X303037Y218181D01*
X303679D01*
Y222700D01*
D02*
G37*
G36*
X407147Y480317D02*
X406650D01*
Y475950D01*
X411167D01*
Y476297D01*
X410861Y477836D01*
X409990Y479140D01*
X408686Y480011D01*
X407147Y480317D01*
D02*
G37*
G36*
X404650D02*
X404152D01*
X402614Y480011D01*
X401310Y479140D01*
X400439Y477836D01*
X400133Y476297D01*
Y475950D01*
X404650D01*
Y480317D01*
D02*
G37*
G36*
X404650Y438317D02*
X404152D01*
X402614Y438011D01*
X401310Y437140D01*
X400439Y435836D01*
X400133Y434297D01*
Y433950D01*
X404650D01*
Y438317D01*
D02*
G37*
G36*
X459529Y317169D02*
X459137D01*
X457557Y316855D01*
X456218Y315961D01*
X455323Y314622D01*
X455009Y313042D01*
Y312400D01*
X459529D01*
Y317169D01*
D02*
G37*
G36*
X503059Y239219D02*
X502417D01*
X500838Y238905D01*
X499499Y238010D01*
X498604Y236671D01*
X498290Y235092D01*
Y234700D01*
X503059D01*
Y239219D01*
D02*
G37*
G36*
X465178Y222700D02*
X460409D01*
Y222308D01*
X460723Y220729D01*
X461618Y219390D01*
X462957Y218495D01*
X464537Y218181D01*
X465178D01*
Y222700D01*
D02*
G37*
G36*
X427250Y126517D02*
X426903D01*
X425364Y126211D01*
X424060Y125340D01*
X423189Y124036D01*
X422883Y122498D01*
Y122000D01*
X427250D01*
Y126517D01*
D02*
G37*
G36*
Y120000D02*
X422883D01*
Y119502D01*
X423189Y117964D01*
X424060Y116660D01*
X425364Y115789D01*
X426903Y115483D01*
X427250D01*
Y120000D01*
D02*
G37*
G36*
X426681Y70517D02*
X426333D01*
X424795Y70211D01*
X423491Y69340D01*
X422620Y68036D01*
X422314Y66498D01*
Y66000D01*
X426681D01*
Y70517D01*
D02*
G37*
G36*
Y64000D02*
X422314D01*
Y63502D01*
X422620Y61964D01*
X423491Y60660D01*
X424795Y59789D01*
X426333Y59483D01*
X426681D01*
Y64000D01*
D02*
G37*
G36*
X426681Y56317D02*
X426333D01*
X424795Y56011D01*
X423491Y55140D01*
X422620Y53836D01*
X422314Y52298D01*
Y51800D01*
X426681D01*
Y56317D01*
D02*
G37*
G36*
Y49800D02*
X422314D01*
Y49302D01*
X422620Y47764D01*
X423491Y46460D01*
X424795Y45589D01*
X426333Y45283D01*
X426681D01*
Y49800D01*
D02*
G37*
G36*
X560253Y23740D02*
X559800D01*
Y13700D01*
X569840D01*
Y14153D01*
X569088Y16961D01*
X567634Y19479D01*
X565579Y21534D01*
X563061Y22988D01*
X560253Y23740D01*
D02*
G37*
G36*
X557800D02*
X557347D01*
X554539Y22988D01*
X552021Y21534D01*
X549966Y19479D01*
X548512Y16961D01*
X547760Y14153D01*
Y13700D01*
X557800D01*
Y23740D01*
D02*
G37*
%LPD*%
D11*
X606820Y285750D02*
D03*
Y260350D02*
D03*
Y234950D02*
D03*
X564120Y298450D02*
D03*
Y209550D02*
D03*
Y184150D02*
D03*
Y95250D02*
D03*
X138190Y374650D02*
D03*
Y450850D02*
D03*
Y412750D02*
D03*
Y336550D02*
D03*
Y298450D02*
D03*
Y260350D02*
D03*
Y222250D02*
D03*
Y184150D02*
D03*
Y146050D02*
D03*
Y107950D02*
D03*
X95490Y450850D02*
D03*
Y412750D02*
D03*
Y374650D02*
D03*
Y336550D02*
D03*
Y298450D02*
D03*
Y260350D02*
D03*
Y222250D02*
D03*
Y184150D02*
D03*
Y146050D02*
D03*
Y107950D02*
D03*
X564120Y82550D02*
D03*
Y107950D02*
D03*
Y120650D02*
D03*
Y133350D02*
D03*
Y146050D02*
D03*
Y158750D02*
D03*
Y171450D02*
D03*
Y196850D02*
D03*
Y222250D02*
D03*
Y234950D02*
D03*
Y247650D02*
D03*
Y260350D02*
D03*
Y273050D02*
D03*
Y285750D02*
D03*
Y311150D02*
D03*
Y323850D02*
D03*
Y336550D02*
D03*
Y349250D02*
D03*
Y361950D02*
D03*
Y374650D02*
D03*
Y387350D02*
D03*
Y400050D02*
D03*
Y412750D02*
D03*
Y425450D02*
D03*
Y438150D02*
D03*
Y450850D02*
D03*
X606820Y82550D02*
D03*
Y95250D02*
D03*
Y107950D02*
D03*
Y120650D02*
D03*
Y133350D02*
D03*
Y146050D02*
D03*
Y158750D02*
D03*
Y184150D02*
D03*
Y196850D02*
D03*
Y209550D02*
D03*
Y222250D02*
D03*
Y247650D02*
D03*
Y171450D02*
D03*
Y273050D02*
D03*
Y298450D02*
D03*
Y311150D02*
D03*
Y323850D02*
D03*
Y336550D02*
D03*
Y349250D02*
D03*
Y387350D02*
D03*
Y400050D02*
D03*
Y412750D02*
D03*
Y425450D02*
D03*
Y438150D02*
D03*
Y450850D02*
D03*
Y361950D02*
D03*
Y374650D02*
D03*
X95490Y82550D02*
D03*
Y95250D02*
D03*
Y120650D02*
D03*
Y133350D02*
D03*
Y158750D02*
D03*
Y171450D02*
D03*
Y196850D02*
D03*
Y209550D02*
D03*
Y234950D02*
D03*
Y247650D02*
D03*
Y273050D02*
D03*
Y285750D02*
D03*
Y311150D02*
D03*
Y323850D02*
D03*
Y349250D02*
D03*
Y361950D02*
D03*
Y387350D02*
D03*
Y400050D02*
D03*
Y425450D02*
D03*
Y438150D02*
D03*
X138190Y82550D02*
D03*
Y95250D02*
D03*
Y120650D02*
D03*
Y133350D02*
D03*
Y158750D02*
D03*
Y196850D02*
D03*
Y209550D02*
D03*
Y234950D02*
D03*
Y247650D02*
D03*
Y171450D02*
D03*
Y273050D02*
D03*
Y285750D02*
D03*
Y311150D02*
D03*
Y323850D02*
D03*
Y349250D02*
D03*
Y387350D02*
D03*
Y400050D02*
D03*
Y425450D02*
D03*
Y438150D02*
D03*
Y361950D02*
D03*
D12*
X582394Y474853D02*
D03*
X582400Y465200D02*
D03*
X428250Y121000D02*
D03*
X427681Y50800D02*
D03*
X427681Y65000D02*
D03*
X437750Y121000D02*
D03*
X414200Y376460D02*
D03*
X437181Y50800D02*
D03*
X437181Y65000D02*
D03*
X423700Y376460D02*
D03*
X572900Y465200D02*
D03*
X572894Y474853D02*
D03*
X304279Y329400D02*
D03*
X652046Y332930D02*
D03*
X661546D02*
D03*
X652050Y267394D02*
D03*
X661550D02*
D03*
X652049Y201868D02*
D03*
X661549D02*
D03*
X652050Y136334D02*
D03*
X661550D02*
D03*
X652050Y247394D02*
D03*
X661550D02*
D03*
X652049Y191868D02*
D03*
X661549D02*
D03*
X652049Y171868D02*
D03*
X661549D02*
D03*
X652049Y181868D02*
D03*
X661549D02*
D03*
X652050Y116334D02*
D03*
X661550D02*
D03*
X652050Y126334D02*
D03*
X661550D02*
D03*
X652050Y106334D02*
D03*
X661550D02*
D03*
X652050Y257394D02*
D03*
X661550D02*
D03*
X652050Y237394D02*
D03*
X661550D02*
D03*
X652046Y312930D02*
D03*
X661546D02*
D03*
X652046Y322930D02*
D03*
X661546D02*
D03*
X652046Y302930D02*
D03*
X661546D02*
D03*
X313779Y329400D02*
D03*
D13*
X538000Y389250D02*
D03*
X405650Y474950D02*
D03*
Y432950D02*
D03*
X371279Y331200D02*
D03*
X411279Y301950D02*
D03*
X350279Y311200D02*
D03*
X274650Y526700D02*
D03*
X280650Y423450D02*
D03*
X270150Y423450D02*
D03*
X488529Y241950D02*
D03*
Y291450D02*
D03*
X327029D02*
D03*
Y241950D02*
D03*
X274650Y517200D02*
D03*
X538000Y398750D02*
D03*
X405650Y423450D02*
D03*
Y465450D02*
D03*
X270150Y432950D02*
D03*
X280650Y432950D02*
D03*
X451529Y291450D02*
D03*
Y241950D02*
D03*
X361279Y311200D02*
D03*
X421279Y301950D02*
D03*
X371279Y311200D02*
D03*
X290029Y291450D02*
D03*
Y241950D02*
D03*
X327029Y261950D02*
D03*
Y281950D02*
D03*
Y251450D02*
D03*
X488529Y261950D02*
D03*
Y281950D02*
D03*
Y251450D02*
D03*
X290029D02*
D03*
Y281950D02*
D03*
X371279Y321700D02*
D03*
X421279Y311450D02*
D03*
X350279Y301700D02*
D03*
X361279D02*
D03*
X411279Y311450D02*
D03*
X371279Y301700D02*
D03*
X327029Y271450D02*
D03*
X451529Y281950D02*
D03*
X488529Y271450D02*
D03*
X451529Y251450D02*
D03*
D14*
X480528Y311400D02*
D03*
X470528Y311400D02*
D03*
X460528Y311400D02*
D03*
X381279Y310800D02*
D03*
X319029Y311400D02*
D03*
X299029Y311400D02*
D03*
X309028Y311400D02*
D03*
X528250Y207500D02*
D03*
Y216200D02*
D03*
X470528Y302700D02*
D03*
X460528D02*
D03*
X381279Y302100D02*
D03*
X309029Y302700D02*
D03*
X299029D02*
D03*
X319029D02*
D03*
X480528D02*
D03*
D15*
X468028Y251200D02*
D03*
X306529D02*
D03*
X478028D02*
D03*
Y282200D02*
D03*
X316529D02*
D03*
Y251200D02*
D03*
X468028Y282200D02*
D03*
X306529D02*
D03*
X311529Y251200D02*
D03*
X473028D02*
D03*
X301529D02*
D03*
X301529Y282200D02*
D03*
X311529D02*
D03*
X473028D02*
D03*
X463029D02*
D03*
X463028Y251200D02*
D03*
D16*
X414600Y356460D02*
D03*
X466179Y233700D02*
D03*
X504059D02*
D03*
X466179Y223700D02*
D03*
X304679Y233700D02*
D03*
Y223700D02*
D03*
X512759Y233700D02*
D03*
X423300Y356460D02*
D03*
X313379Y233700D02*
D03*
X313379Y223700D02*
D03*
X474879Y233700D02*
D03*
X474879Y223700D02*
D03*
D17*
X383779Y247700D02*
D03*
X388779Y285700D02*
D03*
X373779D02*
D03*
X378779D02*
D03*
X383779D02*
D03*
X393779D02*
D03*
X398779D02*
D03*
Y247700D02*
D03*
X393779D02*
D03*
X388779D02*
D03*
X378779D02*
D03*
X373779D02*
D03*
D18*
X679746Y316880D02*
D03*
X679750Y251344D02*
D03*
X679749Y185818D02*
D03*
X679750Y120284D02*
D03*
X679746Y308980D02*
D03*
X671845D02*
D03*
Y316880D02*
D03*
X679750Y243444D02*
D03*
X671850D02*
D03*
Y251344D02*
D03*
X679749Y177918D02*
D03*
X671849D02*
D03*
Y185818D02*
D03*
X679750Y112384D02*
D03*
X671850D02*
D03*
Y120284D02*
D03*
D19*
X405279Y279200D02*
D03*
Y274200D02*
D03*
Y269200D02*
D03*
Y264200D02*
D03*
Y259200D02*
D03*
Y254200D02*
D03*
X367279D02*
D03*
Y259200D02*
D03*
Y264200D02*
D03*
Y269200D02*
D03*
Y274200D02*
D03*
Y279200D02*
D03*
D33*
X386279Y266700D02*
D03*
D34*
X20000Y513400D02*
D03*
X672000Y57000D02*
D03*
X645800Y463400D02*
D03*
D35*
X558800Y505200D02*
Y520700D01*
X541300D02*
X558800D01*
X541300Y12700D02*
X558800D01*
Y33800D01*
X606820Y285750D02*
X623990D01*
X624827Y284914D01*
X625368D01*
X545000Y298000D02*
X563670D01*
X539886Y460255D02*
X545506Y465875D01*
X529400Y432148D02*
X539900Y442648D01*
X539886Y453771D02*
X539900Y453756D01*
X539886Y453771D02*
Y460255D01*
X529400Y399644D02*
Y432148D01*
X539900Y442648D02*
Y453756D01*
X524008Y254692D02*
X542064D01*
X549107Y247650D02*
X567470D01*
X542064Y254692D02*
X549107Y247650D01*
X567470D02*
X567471Y247650D01*
X528448Y216398D02*
X536707D01*
X521137Y378644D02*
X531000Y388507D01*
Y393282D01*
X522649Y392893D02*
X529400Y399644D01*
X521137Y270463D02*
Y378644D01*
X522649Y389649D02*
Y392893D01*
X512689Y379689D02*
X522649Y389649D01*
X521137Y270463D02*
X531250Y260350D01*
X545506Y465875D02*
X561575D01*
X512689Y266011D02*
Y379689D01*
Y266011D02*
X524008Y254692D01*
X623122Y234950D02*
X626780Y238608D01*
X606820Y234950D02*
X623122D01*
X579450Y82550D02*
X582000Y80000D01*
X564120Y82550D02*
X579450D01*
X98840D02*
Y95250D01*
X77275Y94975D02*
X98565D01*
X77275Y82275D02*
X98565D01*
X98840Y82550D01*
X77000Y94700D02*
X77275Y94975D01*
X98565D02*
X98840Y95250D01*
X77000Y82000D02*
X77275Y82275D01*
X591650Y465200D02*
X591650Y465200D01*
X582400Y465200D02*
X591650D01*
X582394Y474853D02*
X591644D01*
X287650Y415200D02*
Y421107D01*
X567471Y209550D02*
X582953D01*
X504059Y233700D02*
Y242941D01*
X582722Y97989D02*
X583191D01*
X580042Y95309D02*
X582722Y97989D01*
X567470Y95250D02*
X567529Y95309D01*
X580042D01*
X280650Y423450D02*
X285307D01*
X287650Y421107D01*
X136840Y374650D02*
X153850D01*
X136840Y260350D02*
X153850D01*
X136840Y336550D02*
X153850D01*
X136840Y298450D02*
X153850D01*
X123190Y450850D02*
X136840D01*
X136715Y412875D02*
X136840Y412750D01*
X117000Y413000D02*
X117125Y412875D01*
X136715D01*
X116840Y457200D02*
X123190Y450850D01*
X104000Y452550D02*
Y459000D01*
X102484Y451034D02*
X104000Y452550D01*
X98840Y451034D02*
X102484D01*
X116750Y412750D02*
X117000Y413000D01*
X98840Y412750D02*
X116750D01*
X79831Y374650D02*
X96840D01*
X79831Y336550D02*
X96840D01*
X95490Y260350D02*
X98840D01*
X79831D02*
X95490D01*
X79831Y260350D02*
X79831Y260350D01*
X136727Y222136D02*
X136740Y222149D01*
X122531Y184150D02*
X136840D01*
X119236Y222136D02*
X136727D01*
X119122Y222023D02*
X119236Y222136D01*
X95490Y222250D02*
X98840D01*
X98690Y184000D02*
X98840Y184150D01*
X81000Y184000D02*
X98690D01*
X119020Y180639D02*
X122531Y184150D01*
X119403Y148987D02*
X122340Y146050D01*
X119020Y150000D02*
X119403Y149617D01*
X119020Y180299D02*
Y180639D01*
X119403Y148987D02*
Y149617D01*
X79831Y222250D02*
X95490D01*
X79831Y222250D02*
X79831Y222250D01*
X122340Y146050D02*
X136840D01*
X121050Y107950D02*
X136840D01*
X118000Y111000D02*
X121050Y107950D01*
X95490Y146050D02*
X98840D01*
X79831D02*
X95490D01*
Y107950D02*
X98840D01*
X79831D02*
X95490D01*
X79831Y146050D02*
X79831Y146050D01*
X79831Y107950D02*
X79831Y107950D01*
X79251Y361950D02*
X96260D01*
X79831Y349250D02*
X96840D01*
X512759Y233700D02*
X520300D01*
X525161Y228839D01*
X531250Y260350D02*
X567470D01*
X538000Y398750D02*
Y409000D01*
X572819Y465200D02*
X572860Y465160D01*
X561900Y465200D02*
X572819D01*
X561575Y465875D02*
X561900Y466200D01*
D36*
X634740Y59258D02*
Y79942D01*
X628315Y52833D02*
X634740Y59258D01*
X634188Y80494D02*
X634740Y79942D01*
X634188Y80494D02*
Y86578D01*
X625516Y95250D02*
X634188Y86578D01*
X642458Y82988D02*
Y92998D01*
Y82988D02*
X646035Y79411D01*
X625098Y107950D02*
X625135Y107986D01*
X627469D02*
X642458Y92998D01*
X625135Y107986D02*
X627469D01*
X634900Y40200D02*
X646035Y51335D01*
Y79411D01*
X634900Y12800D02*
X635000Y12700D01*
X634900Y12800D02*
Y40200D01*
D37*
X626779Y73501D02*
Y76441D01*
X620670Y82550D02*
X626779Y76441D01*
Y73501D02*
X626970Y73309D01*
X606820Y82550D02*
X620670D01*
X536567Y268475D02*
X541143Y273050D01*
X536900Y280200D02*
X542450Y285750D01*
X541143Y273050D02*
X564120D01*
X542450Y285750D02*
X567470D01*
X622433Y120650D02*
X623230Y119853D01*
X624035D02*
X624226Y119661D01*
X623230Y119853D02*
X624035D01*
X603470Y95250D02*
X625516D01*
X606820Y107950D02*
X625098D01*
X606820Y120650D02*
X622433D01*
X567470Y107950D02*
X584130D01*
X567470Y120650D02*
X584130D01*
D38*
X329821Y15305D02*
X329821D01*
X328921Y14405D02*
X329821Y15305D01*
X328921Y14405D02*
Y14405D01*
X324333Y9818D02*
X328921Y14405D01*
X313800Y9818D02*
X324333D01*
X310461Y13157D02*
X313800Y9818D01*
X310461Y13157D02*
Y14231D01*
X303581D02*
X310461D01*
X303581Y9016D02*
Y14231D01*
X301296Y6731D02*
X303581Y9016D01*
X291185Y6731D02*
X301296D01*
X288901Y9016D02*
X291185Y6731D01*
X288901Y9016D02*
Y13271D01*
X282021D02*
X288901D01*
X282021Y9016D02*
Y13271D01*
X279736Y6731D02*
X282021Y9016D01*
X269625Y6731D02*
X279736D01*
X267341Y9016D02*
X269625Y6731D01*
X267341Y9016D02*
Y13271D01*
X260461D02*
X267341D01*
X260461Y9016D02*
Y13271D01*
X258176Y6731D02*
X260461Y9016D01*
X248065Y6731D02*
X258176D01*
X245781Y9016D02*
X248065Y6731D01*
X245781Y9016D02*
Y13271D01*
X238901D02*
X245781D01*
X238901Y9016D02*
Y13271D01*
X236616Y6731D02*
X238901Y9016D01*
X226505Y6731D02*
X236616D01*
X224221Y9016D02*
X226505Y6731D01*
X224221Y9016D02*
Y13271D01*
X217341D02*
X224221D01*
X217341Y9016D02*
Y13271D01*
X215056Y6731D02*
X217341Y9016D01*
X204945Y6731D02*
X215056D01*
X202661Y9016D02*
X204945Y6731D01*
X202661Y9016D02*
Y13271D01*
X195781D02*
X202661D01*
X195781Y9016D02*
Y13271D01*
X193496Y6731D02*
X195781Y9016D01*
X183385Y6731D02*
X193496D01*
X181101Y9016D02*
X183385Y6731D01*
X181101Y9016D02*
Y13271D01*
X174221D02*
X181101D01*
X174221Y9016D02*
Y13271D01*
X171936Y6731D02*
X174221Y9016D01*
X161825Y6731D02*
X171936D01*
X159541Y9016D02*
X161825Y6731D01*
X159541Y9016D02*
Y13271D01*
X152661D02*
X159541D01*
X152661Y9016D02*
Y13271D01*
X150376Y6731D02*
X152661Y9016D01*
X140265Y6731D02*
X150376D01*
X137981Y9016D02*
X140265Y6731D01*
X137981Y9016D02*
Y13271D01*
X131101D02*
X137981D01*
X131101Y9016D02*
Y13271D01*
X128816Y6731D02*
X131101Y9016D01*
X118705Y6731D02*
X128816D01*
X116421Y9016D02*
X118705Y6731D01*
X116421Y9016D02*
Y13271D01*
X109541D02*
X116421D01*
X109541Y9016D02*
Y13271D01*
X107256Y6731D02*
X109541Y9016D01*
X97145Y6731D02*
X107256D01*
X94861Y9016D02*
X97145Y6731D01*
X94861Y9016D02*
Y13271D01*
X87981D02*
X94861D01*
X87981Y13157D02*
Y13271D01*
X84642Y9818D02*
X87981Y13157D01*
X80984Y9818D02*
X84642D01*
X80984D02*
Y9818D01*
X329821Y20821D02*
Y20821D01*
X326163Y17163D02*
X329821Y20821D01*
X326163Y17163D02*
X326163D01*
X322718Y13718D02*
X326163Y17163D01*
X315415Y13718D02*
X322718D01*
X314361Y14773D02*
X315415Y13718D01*
X314361Y14773D02*
Y15846D01*
X312076Y18131D02*
X314361Y15846D01*
X301965Y18131D02*
X312076D01*
X299681Y15846D02*
X301965Y18131D01*
X299681Y10631D02*
Y15846D01*
X292801Y10631D02*
X299681D01*
X292801D02*
Y14886D01*
X290516Y17171D02*
X292801Y14886D01*
X280405Y17171D02*
X290516D01*
X278121Y14886D02*
X280405Y17171D01*
X278121Y10631D02*
Y14886D01*
X271241Y10631D02*
X278121D01*
X271241D02*
Y14886D01*
X268956Y17171D02*
X271241Y14886D01*
X258845Y17171D02*
X268956D01*
X256561Y14886D02*
X258845Y17171D01*
X256561Y10631D02*
Y14886D01*
X249681Y10631D02*
X256561D01*
X249681D02*
Y14886D01*
X247396Y17171D02*
X249681Y14886D01*
X237285Y17171D02*
X247396D01*
X235001Y14886D02*
X237285Y17171D01*
X235001Y10631D02*
Y14886D01*
X228121Y10631D02*
X235001D01*
X228121D02*
Y14886D01*
X225836Y17171D02*
X228121Y14886D01*
X215725Y17171D02*
X225836D01*
X213441Y14886D02*
X215725Y17171D01*
X213441Y10631D02*
Y14886D01*
X206561Y10631D02*
X213441D01*
X206561D02*
Y14886D01*
X204276Y17171D02*
X206561Y14886D01*
X194165Y17171D02*
X204276D01*
X191881Y14886D02*
X194165Y17171D01*
X191881Y10631D02*
Y14886D01*
X185001Y10631D02*
X191881D01*
X185001D02*
Y14886D01*
X182716Y17171D02*
X185001Y14886D01*
X172605Y17171D02*
X182716D01*
X170321Y14886D02*
X172605Y17171D01*
X170321Y10631D02*
Y14886D01*
X163441Y10631D02*
X170321D01*
X163441D02*
Y14886D01*
X161156Y17171D02*
X163441Y14886D01*
X151045Y17171D02*
X161156D01*
X148761Y14886D02*
X151045Y17171D01*
X148761Y10631D02*
Y14886D01*
X141881Y10631D02*
X148761D01*
X141881D02*
Y14886D01*
X139596Y17171D02*
X141881Y14886D01*
X129485Y17171D02*
X139596D01*
X127201Y14886D02*
X129485Y17171D01*
X127201Y10631D02*
Y14886D01*
X120321Y10631D02*
X127201D01*
X120321D02*
Y14886D01*
X118036Y17171D02*
X120321Y14886D01*
X107925Y17171D02*
X118036D01*
X105641Y14886D02*
X107925Y17171D01*
X105641Y10631D02*
Y14886D01*
X98761Y10631D02*
X105641D01*
X98761D02*
Y14886D01*
X96476Y17171D02*
X98761Y14886D01*
X86365Y17171D02*
X96476D01*
X84081Y14886D02*
X86365Y17171D01*
X84081Y14773D02*
Y14886D01*
X83027Y13718D02*
X84081Y14773D01*
X80984Y13718D02*
X83027D01*
X329821Y15305D02*
X344850Y30335D01*
X329821Y20821D02*
X340950Y31950D01*
X65674Y9818D02*
X80984D01*
X67290Y13718D02*
X80984D01*
X179354Y219798D02*
X184604D01*
X179354Y215934D02*
Y219798D01*
X172474Y215934D02*
X179354D01*
X172474D02*
Y219798D01*
X164693D02*
X172474D01*
X162567Y217672D02*
X164693Y219798D01*
X163078Y223698D02*
X186220D01*
X162567Y205874D02*
Y217672D01*
X158667Y207490D02*
Y219287D01*
X163078Y223698D01*
X154881Y198188D02*
X162567Y205874D01*
X186220Y223698D02*
X196227Y213690D01*
X184604Y219798D02*
X192327Y212075D01*
X159866Y395000D02*
X164866Y390000D01*
X156000Y395000D02*
X159866D01*
X158251Y391100D02*
X163251Y386100D01*
X152686Y389123D02*
X154662Y391100D01*
X158251D01*
X152233Y398768D02*
X156000Y395000D01*
X75183Y128483D02*
X78040Y131341D01*
X96831D02*
X98840Y133350D01*
X78040Y131341D02*
X96831D01*
X193000Y228485D02*
X198649Y222835D01*
X193000Y228485D02*
Y231251D01*
X187192D02*
X193000D01*
X187192D02*
Y238131D01*
X193000D01*
Y245011D01*
X186648D02*
X193000D01*
X186648D02*
Y251891D01*
X192229D01*
Y258771D01*
X192229D01*
X191329Y259671D02*
X192229Y258771D01*
X196227Y199027D02*
Y213690D01*
X192327Y200642D02*
Y212075D01*
X139528Y198188D02*
X154881D01*
X138190Y196850D02*
X139528Y198188D01*
X153245Y208000D02*
X155466Y205779D01*
X138190Y209550D02*
X139740Y208000D01*
X153245D01*
X155466Y205779D02*
X156957D01*
X158667Y207490D01*
X139615Y170025D02*
X153465D01*
X156896Y163326D02*
X161472Y167902D01*
X153465Y170025D02*
X155027Y168463D01*
X161472Y167902D02*
Y175043D01*
X159139Y177377D02*
X161472Y175043D01*
X159139Y177377D02*
Y183270D01*
X160193Y184325D01*
X155239Y175761D02*
Y184886D01*
X157572Y169518D02*
Y173428D01*
X155239Y184886D02*
X158578Y188225D01*
X155239Y175761D02*
X157572Y173428D01*
X156518Y168463D02*
X157572Y169518D01*
X155027Y168463D02*
X156518D01*
X158578Y188225D02*
X174115D01*
X160193Y184325D02*
X172500D01*
X155223Y163326D02*
X156896D01*
X152686Y160789D02*
X155223Y163326D01*
X138190Y158750D02*
X140229Y160789D01*
X152686D01*
X72265Y128483D02*
X75183D01*
X162243Y239293D02*
X166900Y243950D01*
X140394Y245446D02*
X154554D01*
X152686Y236782D02*
X155197Y239293D01*
X140022Y236782D02*
X152686D01*
X155197Y239293D02*
X162243D01*
X154554Y245446D02*
X156750Y243250D01*
X160685D01*
X163000Y245565D01*
X138190Y247650D02*
X140394Y245446D01*
X190615Y265900D02*
X196900Y259615D01*
X138190Y234950D02*
X140022Y236782D01*
X171317Y283682D02*
Y288360D01*
X180956Y298000D01*
X165107Y277472D02*
X171317Y283682D01*
X167417Y285297D02*
Y289975D01*
X163491Y281372D02*
X167417Y285297D01*
Y289975D02*
X179341Y301900D01*
X157472Y277472D02*
X165107D01*
X157683Y281372D02*
X163491D01*
X155212Y283843D02*
X157683Y281372D01*
X155000Y275000D02*
X157472Y277472D01*
X138190Y273050D02*
X140140Y275000D01*
X155000D01*
X138190Y285750D02*
X140097Y283843D01*
X155212D01*
X179341Y301900D02*
X199615D01*
X138190Y171450D02*
X139615Y170025D01*
X158780Y497289D02*
X163000D01*
X158780D02*
Y497679D01*
X151900D02*
X158780D01*
X151900Y497289D02*
Y497679D01*
X151000Y497289D02*
X151900D01*
X163000D02*
X187227D01*
X98818D02*
X151000D01*
X145000Y493389D02*
X166000D01*
X178860Y155000D02*
Y162835D01*
Y173104D01*
X181725D01*
Y179984D01*
X178860D02*
X181725D01*
X178860D02*
Y180884D01*
Y183479D01*
X280091Y91909D02*
X294766Y106583D01*
X290363Y110985D02*
X294766Y106583D01*
X290363Y110985D02*
X295228Y115850D01*
X299630Y111448D01*
X304495Y116313D01*
X298588Y122220D02*
X304495Y116313D01*
X298588Y122220D02*
X303453Y127085D01*
X309360Y121178D01*
X314225Y126042D01*
X308318Y131950D02*
X314225Y126042D01*
X308318Y131950D02*
X313183Y136814D01*
X319090Y130907D01*
X323955Y135772D01*
X323955Y135772D01*
X324591Y136409D01*
X197723Y315550D02*
X201771Y311502D01*
X186918Y315550D02*
X197723D01*
X186918Y310921D02*
Y315550D01*
X180038Y310921D02*
X186918D01*
X180038D02*
Y315550D01*
X173158D02*
X180038D01*
X173158Y310921D02*
Y315550D01*
X166278Y310921D02*
X173158D01*
X166278D02*
Y315550D01*
X158498D02*
X166278D01*
X201771Y311502D02*
X236495Y276778D01*
X52516Y277450D02*
X60351D01*
X34105Y259039D02*
X52516Y277450D01*
X34105Y259039D02*
X37308Y255837D01*
X34239Y252768D02*
X37308Y255837D01*
X31037Y255971D02*
X34239Y252768D01*
X27968Y252902D02*
X31037Y255971D01*
X27968Y252902D02*
X31711Y249158D01*
X28643Y246089D02*
X31711Y249158D01*
X24899Y249833D02*
X28643Y246089D01*
X21193Y246128D02*
X24899Y249833D01*
X15648Y240582D02*
X21193Y246128D01*
X28650Y213650D02*
X32169Y217169D01*
X28650Y206293D02*
Y213650D01*
Y206293D02*
X32682D01*
Y199413D02*
Y206293D01*
X28650Y199413D02*
X32682D01*
X28650Y192533D02*
Y199413D01*
Y192533D02*
X34091D01*
Y185653D02*
Y192533D01*
X28650Y185653D02*
X34091D01*
X28650Y177873D02*
Y185653D01*
Y82715D02*
Y177873D01*
X32169Y217169D02*
X54053Y239053D01*
X159736Y468000D02*
Y468000D01*
X149885Y468000D02*
X159736D01*
X146546Y471339D02*
X149885Y468000D01*
X146546Y471339D02*
Y472930D01*
X142246D02*
X146546D01*
X142246Y468953D02*
Y472930D01*
X139961Y466669D02*
X142246Y468953D01*
X132430Y466669D02*
X139961D01*
X130146Y468953D02*
X132430Y466669D01*
X130146Y468953D02*
Y481989D01*
X125846D02*
X130146D01*
X125846Y468953D02*
Y481989D01*
X123561Y466669D02*
X125846Y468953D01*
X116030Y466669D02*
X123561D01*
X113746Y468953D02*
X116030Y466669D01*
X113746Y468953D02*
Y481989D01*
X109446D02*
X113746D01*
X109446Y471339D02*
Y481989D01*
X106107Y468000D02*
X109446Y471339D01*
X102449Y468000D02*
X106107D01*
X102449D02*
Y468000D01*
X151500Y471900D02*
X159736D01*
X150446Y472954D02*
X151500Y471900D01*
X150446Y472954D02*
Y474546D01*
X148161Y476830D02*
X150446Y474546D01*
X140630Y476830D02*
X148161D01*
X138346Y474546D02*
X140630Y476830D01*
X138346Y470569D02*
Y474546D01*
X134046Y470569D02*
X138346D01*
X134046D02*
Y483604D01*
X131761Y485889D02*
X134046Y483604D01*
X124230Y485889D02*
X131761D01*
X121946Y483604D02*
X124230Y485889D01*
X121946Y470569D02*
Y483604D01*
X117646Y470569D02*
X121946D01*
X117646D02*
Y483604D01*
X115361Y485889D02*
X117646Y483604D01*
X107830Y485889D02*
X115361D01*
X105546Y483604D02*
X107830Y485889D01*
X105546Y472954D02*
Y483604D01*
X104491Y471900D02*
X105546Y472954D01*
X102449Y471900D02*
X104491D01*
X159736Y468000D02*
X161137D01*
X159736Y471900D02*
X162753D01*
X66100Y122318D02*
X72265Y128483D01*
X77103Y123753D02*
X78373Y122484D01*
X236406Y42708D02*
X328637Y134938D01*
X97007Y122484D02*
X98840Y120650D01*
X70000Y120703D02*
X73050Y123753D01*
X78373Y122484D02*
X97007D01*
X73050Y123753D02*
X77103D01*
X81400Y158750D02*
X95490D01*
X77000Y163150D02*
X81400Y158750D01*
X81400Y171450D02*
X95490D01*
X77000Y167050D02*
X81400Y171450D01*
X95490D02*
X98840D01*
X60050Y167050D02*
X77000D01*
X61665Y163150D02*
X77000D01*
X75000Y201000D02*
X79150Y196850D01*
X95490D01*
X54000Y201000D02*
X75000D01*
X79550Y209550D02*
X95490D01*
X74900Y204900D02*
X79550Y209550D01*
X95490D02*
X98840D01*
X46100Y198615D02*
X52385Y204900D01*
X50000Y197000D02*
X54000Y201000D01*
X46100Y178966D02*
Y198615D01*
X52385Y204900D02*
X74900D01*
X50000Y177350D02*
Y197000D01*
X38856Y171721D02*
X46100Y178966D01*
X38856Y58684D02*
Y171721D01*
X42756Y170106D02*
X50000Y177350D01*
X24750Y215265D02*
X52438Y242953D01*
X24750Y81100D02*
Y215265D01*
X42756Y60300D02*
Y170106D01*
X75279Y242953D02*
X78680Y246354D01*
X94194D01*
X66670Y242953D02*
X75279D01*
X94086Y236355D02*
X95490Y234950D01*
X78645Y236355D02*
X94086D01*
X75947Y239053D02*
X78645Y236355D01*
X94194Y246354D02*
X95490Y247650D01*
X65054Y239053D02*
X75947D01*
X66670Y242953D02*
X66670Y242953D01*
X52438Y242953D02*
X66670D01*
X65054Y239053D02*
X65054Y239053D01*
X54053Y239053D02*
X65054D01*
X77994Y275005D02*
X93535D01*
X75550Y277450D02*
X77994Y275005D01*
X71117Y277450D02*
X75550D01*
X93535Y275005D02*
X95490Y273050D01*
X60351Y277450D02*
X71117D01*
X71117Y277450D01*
X78000Y284000D02*
X93740D01*
X95490Y285750D01*
X75350Y281350D02*
X78000Y284000D01*
X50900Y281350D02*
X75350D01*
X11748Y242197D02*
X50900Y281350D01*
X34305Y428695D02*
Y488820D01*
X48000Y415000D02*
Y415000D01*
Y415000D02*
X71393Y391607D01*
X34305Y428695D02*
X48000Y415000D01*
X71393Y391607D02*
X77393D01*
X77097Y395507D02*
X80000Y398410D01*
X68452Y400452D02*
X73398Y395507D01*
X38205Y430700D02*
X38991Y429913D01*
X73398Y395507D02*
X77097D01*
X38205Y430700D02*
Y487205D01*
X77393Y391607D02*
X80000Y389000D01*
Y398410D02*
X81640Y400050D01*
X80000Y388990D02*
Y389000D01*
Y388990D02*
X81640Y387350D01*
X95490D01*
X81640Y400050D02*
X95490D01*
X93668Y427272D02*
X95490Y425450D01*
X80995Y427272D02*
X93668D01*
X78550Y429716D02*
X80995Y427272D01*
X72199Y429716D02*
X78550D01*
X64100Y437815D02*
X72199Y429716D01*
X73680Y433750D02*
X78759D01*
X93372Y436031D02*
X95490Y438150D01*
X78759Y433750D02*
X81040Y436031D01*
X93372D01*
X154000Y427000D02*
Y430158D01*
X155054Y431212D02*
X159024D01*
X154000Y430158D02*
X155054Y431212D01*
X159024D02*
X159024Y431212D01*
X165991D01*
X134840Y425450D02*
X138190D01*
X152450D01*
X154000Y427000D01*
X138190Y438150D02*
X152850D01*
X164375Y435112D02*
X165691Y436427D01*
X160639Y435112D02*
X160639Y435112D01*
X165991Y431212D02*
X169591Y434812D01*
X152850Y438150D02*
X155888Y435112D01*
X160639D01*
X160639Y435112D02*
X164375D01*
X165691Y436427D02*
Y463446D01*
X169591Y434812D02*
Y465062D01*
X164834Y417307D02*
X213823D01*
X163780Y416253D02*
X164834Y417307D01*
X159880Y408716D02*
Y417868D01*
X163218Y421207D01*
X212207D01*
X163251Y386100D02*
X218788D01*
X163780Y410331D02*
Y416253D01*
X213823Y417307D02*
X219900Y423385D01*
X212207Y421207D02*
X216000Y425000D01*
X139964Y389123D02*
X152686D01*
X138190Y387350D02*
X139964Y389123D01*
X139473Y398768D02*
X152233D01*
X138190Y400050D02*
X139473Y398768D01*
X164866Y390000D02*
X175000D01*
X152955Y349250D02*
X154009Y350304D01*
X138190Y349250D02*
X152955D01*
X154009Y352596D02*
X155064Y353650D01*
X154009Y350304D02*
Y352596D01*
X155064Y353650D02*
X156304D01*
X155604Y357550D02*
X156304D01*
X154250Y358904D02*
X155604Y357550D01*
X154250Y358904D02*
Y360750D01*
X138190Y361950D02*
X153050D01*
X154250Y360750D01*
X199338Y319450D02*
X240395Y278393D01*
Y226364D02*
Y278393D01*
X157550Y319450D02*
X199338D01*
X157183Y315550D02*
X158498D01*
X152782Y311150D02*
X157183Y315550D01*
X153150Y323850D02*
X157550Y319450D01*
X134840Y323850D02*
X138190D01*
X153150D01*
X134840Y311150D02*
X138190D01*
X152782D01*
X180956Y298000D02*
X198000D01*
X174115Y188225D02*
X178860Y183479D01*
X161137Y468000D02*
X165691Y463446D01*
X193411Y465589D02*
X197000Y462000D01*
X210000D02*
X215000Y457000D01*
X197000Y462000D02*
X210000D01*
X215000Y457000D02*
X217137D01*
X217684Y456453D01*
X193411Y465589D02*
Y491104D01*
X187227Y497289D02*
X193411Y491104D01*
X95479Y493950D02*
X98818Y497289D01*
X95479Y471521D02*
X99000Y468000D01*
X95479Y471521D02*
Y493950D01*
X99000Y468000D02*
X102449D01*
X68000Y439430D02*
X73680Y433750D01*
X207433Y498382D02*
Y502421D01*
X201470Y504530D02*
X205324D01*
X207433Y502421D01*
X206827Y497776D02*
X207433Y498382D01*
X68000Y439430D02*
Y443005D01*
X68000D01*
Y446660D01*
X64661Y449999D02*
X68000Y446660D01*
X47905Y449999D02*
X64661D01*
X47905D02*
Y456879D01*
X75787D01*
X78071Y459164D01*
Y469275D01*
X75787Y471559D02*
X78071Y469275D01*
X47905Y471559D02*
X75787D01*
X47905D02*
Y478439D01*
X75361D01*
X77646Y480724D01*
Y490835D01*
X75361Y493119D02*
X77646Y490835D01*
X69054Y493119D02*
X75361D01*
X68000Y494174D02*
X69054Y493119D01*
X68000Y494174D02*
Y497000D01*
X73352Y502352D01*
Y502352D01*
X77016Y506016D01*
X77016D01*
X83264Y512264D01*
X94360D01*
X99600D01*
X100654Y511210D01*
Y509644D02*
Y511210D01*
Y509644D02*
X101306Y508993D01*
X104344D01*
X104994Y509644D01*
Y511613D01*
X105646Y512264D01*
X108684D01*
X109334Y511613D01*
Y509644D02*
Y511613D01*
Y509644D02*
X109986Y508993D01*
X113024D01*
X113674Y509644D01*
Y511613D01*
X114326Y512264D01*
X117364D01*
X118014Y511613D01*
Y509644D02*
Y511613D01*
Y509644D02*
X118666Y508993D01*
X121704D01*
X122354Y509644D01*
Y511613D01*
X123006Y512264D01*
X126044D01*
X126694Y511613D01*
Y509677D02*
Y511613D01*
Y509677D02*
X127346Y509026D01*
X130384D01*
X131034Y509677D01*
Y511210D01*
X132089Y512264D01*
X141156D01*
X193736D02*
X201470Y504530D01*
X141156Y512264D02*
X193736D01*
X162753Y471900D02*
X169591Y465062D01*
X208385Y458100D02*
X212242Y454242D01*
X189511Y463974D02*
X195385Y458100D01*
X208385D01*
X212242Y451617D02*
Y454242D01*
Y451617D02*
X212427Y451432D01*
X189511Y463974D02*
Y489489D01*
X185611Y493389D02*
X189511Y489489D01*
X166000Y493389D02*
X185611D01*
X99379Y492334D02*
X100434Y493389D01*
X145000D01*
X99379Y473136D02*
Y492334D01*
Y473136D02*
X100615Y471900D01*
X102449D01*
X214097Y497776D02*
Y497904D01*
X211333Y500668D02*
Y504037D01*
X203085Y508430D02*
X206940D01*
X211333Y504037D01*
Y500668D02*
X214097Y497904D01*
X64100Y437815D02*
Y443000D01*
X71494Y506009D02*
X81649Y516164D01*
X64100Y443000D02*
Y445045D01*
X63046Y446099D02*
X64100Y445045D01*
X46289Y446099D02*
X63046D01*
X44005Y448384D02*
X46289Y446099D01*
X44005Y448384D02*
Y458495D01*
X46289Y460779D01*
X74171D01*
Y467659D01*
X46289D02*
X74171D01*
X44005Y469944D02*
X46289Y467659D01*
X44005Y469944D02*
Y480055D01*
X46289Y482339D01*
X73745D01*
Y489219D01*
X67439D02*
X73745D01*
X64100Y492558D02*
X67439Y489219D01*
X64100Y492558D02*
Y498615D01*
X70594Y505109D01*
X70594D01*
X71494Y506009D01*
Y506009D01*
X195351Y516164D02*
X203085Y508430D01*
X81649Y516164D02*
X195351D01*
X216000Y425000D02*
Y429000D01*
X212000Y433000D02*
X216000Y429000D01*
X190495Y437505D02*
X195000Y433000D01*
X212000D01*
X187309Y438308D02*
X188112Y437505D01*
X190495D01*
X217173Y390000D02*
X218227Y391054D01*
Y404322D01*
X217173Y405377D02*
X218227Y404322D01*
X159880Y408716D02*
X163218Y405377D01*
X217173D01*
X208000Y390000D02*
X217173D01*
X175000D02*
X175900D01*
X176954Y391054D01*
Y396016D01*
X177987Y397048D01*
X182803D01*
X183834Y396016D01*
Y391032D02*
Y396016D01*
Y391032D02*
X184867Y390000D01*
X189683D01*
X190714Y391032D01*
Y396016D01*
X191747Y397048D01*
X196562D01*
X197595Y396016D01*
Y391054D02*
Y396016D01*
Y391054D02*
X198649Y390000D01*
X208000D01*
X38205Y487205D02*
X73415Y522415D01*
X67816Y401089D02*
X68452Y400452D01*
X64747Y404158D02*
X67816Y401089D01*
X64747Y404158D02*
Y405649D01*
X66897Y407798D01*
Y408719D01*
X64748Y410867D02*
X66897Y408719D01*
X63828Y410867D02*
X64748D01*
X61198Y408238D02*
X63828Y410867D01*
X60278Y408238D02*
X61198D01*
X58129Y410386D02*
X60278Y408238D01*
X58129Y410386D02*
Y411307D01*
X60759Y413936D01*
Y414857D01*
X58611Y417005D02*
X60759Y414857D01*
X57690Y417005D02*
X58611D01*
X55061Y414375D02*
X57690Y417005D01*
X54140Y414375D02*
X55061D01*
X51992Y416524D02*
X54140Y414375D01*
X51992Y416524D02*
Y417444D01*
X54069Y419522D01*
Y420442D01*
X51921Y422590D02*
X54069Y420442D01*
X51000Y422590D02*
X51921D01*
X49403Y420993D02*
X51000Y422590D01*
X47912Y420993D02*
X49403D01*
X39628Y429277D02*
X47912Y420993D01*
X38991Y429913D02*
X39628Y429277D01*
X219653Y512769D02*
Y516365D01*
X73415Y522415D02*
X213603D01*
X219653Y512769D02*
X220211Y512211D01*
X213603Y522415D02*
X219653Y516365D01*
X219900Y423385D02*
Y430615D01*
X213615Y436900D02*
X219900Y430615D01*
X196615Y436900D02*
X213615D01*
X192449Y443449D02*
X193253Y442646D01*
Y440263D02*
Y442646D01*
Y440263D02*
X196615Y436900D01*
X218788Y386100D02*
X222127Y389439D01*
Y405938D01*
X218788Y409277D02*
X222127Y405938D01*
X164834Y409277D02*
X218788D01*
X163780Y410331D02*
X164834Y409277D01*
X34305Y488820D02*
X71799Y526315D01*
X230006Y515264D02*
X230270Y515000D01*
X226270Y515264D02*
X230006D01*
X215219Y526315D02*
X226270Y515264D01*
X71799Y526315D02*
X215219D01*
X227550Y357550D02*
X243000Y373000D01*
Y381000D01*
Y381900D01*
X241946Y382954D02*
X243000Y381900D01*
X236364Y382954D02*
X241946D01*
X235713Y383605D02*
X236364Y382954D01*
X235713Y383605D02*
Y386643D01*
X236364Y387295D01*
X241946D01*
X243000Y388349D01*
Y393653D01*
X216220Y357550D02*
X227550D01*
X216220D02*
Y357550D01*
X212562D02*
X216220D01*
X209223Y354211D02*
X212562Y357550D01*
X209223Y348959D02*
Y354211D01*
X204883Y348959D02*
X209223D01*
X204883D02*
Y362327D01*
X202598Y364612D02*
X204883Y362327D01*
X195028Y364612D02*
X202598D01*
X192743Y362327D02*
X195028Y364612D01*
X192743Y348959D02*
Y362327D01*
X188403Y348959D02*
X192743D01*
X188403D02*
Y362327D01*
X186118Y364612D02*
X188403Y362327D01*
X178547Y364612D02*
X186118D01*
X176263Y362327D02*
X178547Y364612D01*
X176263Y348959D02*
Y362327D01*
X171923Y348959D02*
X176263D01*
X171923D02*
Y360924D01*
X169638Y363209D02*
X171923Y360924D01*
X162068Y363209D02*
X169638D01*
X159783Y360924D02*
X162068Y363209D01*
X159783Y358604D02*
Y360924D01*
X158729Y357550D02*
X159783Y358604D01*
X156304Y357550D02*
X158729D01*
X156304Y357550D02*
Y357550D01*
X243000Y415515D02*
X247747Y420263D01*
Y422646D01*
X248551Y423449D01*
X243000Y393653D02*
Y415515D01*
X229165Y353650D02*
X246900Y371385D01*
X216220Y353650D02*
X229165D01*
X214177D02*
X216220D01*
X213123Y352596D02*
X214177Y353650D01*
X213123Y347344D02*
Y352596D01*
X210838Y345059D02*
X213123Y347344D01*
X203267Y345059D02*
X210838D01*
X200983Y347344D02*
X203267Y345059D01*
X200983Y347344D02*
Y360712D01*
X196643D02*
X200983D01*
X196643Y347344D02*
Y360712D01*
X194358Y345059D02*
X196643Y347344D01*
X186787Y345059D02*
X194358D01*
X184503Y347344D02*
X186787Y345059D01*
X184503Y347344D02*
Y360712D01*
X180163D02*
X184503D01*
X180163Y347344D02*
Y360712D01*
X177878Y345059D02*
X180163Y347344D01*
X170308Y345059D02*
X177878D01*
X168023Y347344D02*
X170308Y345059D01*
X168023Y347344D02*
Y359309D01*
X163683D02*
X168023D01*
X163683Y356989D02*
Y359309D01*
X160344Y353650D02*
X163683Y356989D01*
X156304Y353650D02*
X160344D01*
X246900Y413900D02*
X250505Y417505D01*
X252888D01*
X246900Y371385D02*
Y413900D01*
X252888Y417505D02*
X253692Y418308D01*
X275270Y162000D02*
Y163137D01*
X240395Y226364D02*
X273585Y193174D01*
Y164821D02*
X275270Y163137D01*
X273585Y164821D02*
Y193174D01*
X236495Y224748D02*
Y276778D01*
X268000Y162000D02*
Y163137D01*
X269685Y164821D01*
X236495Y224748D02*
X269685Y191558D01*
Y164821D02*
Y191558D01*
X220078Y232963D02*
X257787Y195254D01*
X213396Y287312D02*
X213396D01*
X213396Y285270D02*
Y287312D01*
Y285270D02*
X214450Y284215D01*
X219713D01*
X221998Y281931D01*
Y271820D02*
Y281931D01*
X219713Y269535D02*
X221998Y271820D01*
X208458Y269535D02*
X219713D01*
X208458Y262655D02*
Y269535D01*
Y262655D02*
X227704D01*
X229988Y260371D01*
Y250260D02*
Y260371D01*
X227704Y247975D02*
X229988Y250260D01*
X211558Y247975D02*
X227704D01*
X211558Y241095D02*
Y247975D01*
Y241095D02*
X211946D01*
X220078Y232963D01*
X220078D02*
X220078Y232963D01*
X211111Y290404D02*
X213396Y288120D01*
X211111Y290404D02*
X211111D01*
X199615Y301900D02*
X211111Y290404D01*
X213396Y287312D02*
Y288120D01*
X257787Y165992D02*
Y195254D01*
X255600Y156193D02*
Y157330D01*
X253915Y159015D02*
Y162120D01*
X257787Y165992D01*
X253915Y159015D02*
X255600Y157330D01*
X14599Y37006D02*
Y42885D01*
X12730Y35136D02*
X14599Y37006D01*
X12730Y34000D02*
Y35136D01*
X11748Y45737D02*
X14599Y42885D01*
X11748Y45737D02*
Y242197D01*
X208688Y287312D02*
X209496Y286504D01*
Y283654D02*
Y286504D01*
Y283654D02*
X212835Y280315D01*
X218098D01*
Y273435D02*
Y280315D01*
X206842Y273435D02*
X218098D01*
X204558Y271151D02*
X206842Y273435D01*
X204558Y261040D02*
Y271151D01*
Y261040D02*
X206842Y258755D01*
X226088D01*
Y251875D02*
Y258755D01*
X209943Y251875D02*
X226088D01*
X207659Y249591D02*
X209943Y251875D01*
X207659Y239480D02*
Y249591D01*
Y239480D02*
X209943Y237195D01*
X210330D01*
X214563Y232963D01*
X198000Y298000D02*
X208688Y287312D01*
X248330Y157330D02*
X250015Y159015D01*
X248330Y156193D02*
Y157330D01*
X250015Y159015D02*
Y163735D01*
X252391Y166111D01*
X252337Y195189D02*
X253237Y194289D01*
X253237D02*
X253237D01*
X253237Y187409D02*
Y194289D01*
X250266Y187409D02*
X253237D01*
X250266Y180529D02*
Y187409D01*
Y180529D02*
X253887D01*
Y167607D02*
Y180529D01*
X252391Y166111D02*
X253887Y167607D01*
X214563Y232963D02*
X227201Y220324D01*
X249134Y198392D02*
X252337Y195189D01*
X227201Y220324D02*
X227838Y219688D01*
X227838D02*
X227838Y219688D01*
X227838Y219688D01*
X232703Y214823D01*
X230238Y212358D02*
X232703Y214823D01*
X230238Y212358D02*
X235102Y207493D01*
X237568Y209958D01*
X242432Y205093D01*
X240051Y202712D02*
X242432Y205093D01*
X240051Y202712D02*
X244916Y197847D01*
X247297Y200228D01*
X248498Y199028D01*
X249134Y198392D01*
X15648Y47352D02*
X18499Y44500D01*
Y37433D02*
Y44500D01*
X20369Y34427D02*
Y35563D01*
X18499Y37433D02*
X20369Y35563D01*
X15648Y47352D02*
Y240582D01*
X167785Y60050D02*
X200500D01*
X163000Y245565D02*
Y260515D01*
X168385Y265900D01*
X190615D01*
X196900Y230100D02*
Y259615D01*
Y230100D02*
X220470Y206530D01*
Y190478D02*
Y206530D01*
Y190478D02*
X232900Y178048D01*
Y153228D02*
Y178048D01*
X221051Y111807D02*
X222744D01*
X159557Y75915D02*
X159743Y76100D01*
Y85072D01*
X159557Y68278D02*
X167785Y60050D01*
X159557Y68278D02*
Y75915D01*
X158939Y85876D02*
X159743Y85072D01*
X244373Y141755D02*
X267654D01*
X232900Y153228D02*
X244373Y141755D01*
X267654D02*
X276479Y132930D01*
X271921Y111807D02*
X276479Y116366D01*
X270305Y111807D02*
X271921D01*
X276479Y116366D02*
Y132930D01*
X222744Y111807D02*
Y111807D01*
Y111807D02*
X226402D01*
X229741Y115146D01*
Y120403D01*
X236621D01*
Y100969D02*
Y120403D01*
Y100969D02*
X238905Y98685D01*
X249016D01*
X251301Y100969D01*
Y119986D01*
X258181D01*
Y115146D02*
Y119986D01*
Y115146D02*
X261520Y111807D01*
X268263D01*
X268263Y111807D01*
X270305D01*
X214418Y105175D02*
X221051Y111807D01*
X214418Y86162D02*
Y105175D01*
X209250Y80994D02*
X214418Y86162D01*
X200500Y60050D02*
X209250Y68800D01*
Y80994D01*
X344850Y30335D02*
Y45413D01*
X346535Y47098D02*
Y48235D01*
X344850Y45413D02*
X346535Y47098D01*
X25509Y49983D02*
X65674Y9818D01*
X25509Y49983D02*
Y63574D01*
X28650Y66715D01*
X24750Y81100D02*
X28650Y77200D01*
Y66715D02*
Y77200D01*
X169400Y63950D02*
X198885D01*
X166900Y243950D02*
Y258900D01*
X170000Y262000D01*
X189000D01*
X163457Y69893D02*
X169400Y63950D01*
X216570Y188862D02*
Y204914D01*
Y188862D02*
X229000Y176433D01*
Y151613D02*
Y176433D01*
X219435Y115707D02*
X222744D01*
X163457Y69893D02*
Y74299D01*
X163643Y80089D02*
X165716Y82162D01*
X163457Y74299D02*
X163643Y74485D01*
Y80089D01*
X165716Y82162D02*
Y83243D01*
X242757Y137855D02*
X266038D01*
X229000Y151613D02*
X242757Y137855D01*
X266038D02*
X272579Y131315D01*
X270305Y115707D02*
X272579Y117981D01*
Y131315D01*
X222744Y115707D02*
X224786D01*
X225841Y116762D01*
Y122019D01*
X228125Y124303D01*
X238236D01*
X240521Y122019D01*
Y102585D02*
Y122019D01*
Y102585D02*
X247401D01*
Y121601D01*
X249685Y123886D01*
X259796D01*
X262081Y121601D01*
Y116762D02*
Y121601D01*
Y116762D02*
X263135Y115707D01*
X268263D01*
X268263Y115707D01*
X270305D01*
Y115707D01*
X198649Y222835D02*
X216570Y204914D01*
X189000Y262000D02*
X191329Y259671D01*
X210518Y106790D02*
X219435Y115707D01*
X210518Y87777D02*
Y106790D01*
X198885Y63950D02*
X205350Y70415D01*
Y82609D02*
X210518Y87777D01*
X205350Y70415D02*
Y82609D01*
X340950Y31950D02*
Y45413D01*
X339265Y47098D02*
Y48235D01*
Y47098D02*
X340950Y45413D01*
X29409Y51599D02*
X67290Y13718D01*
X29409Y51599D02*
Y61959D01*
X32550Y65100D01*
Y78815D01*
X28650Y82715D02*
X32550Y78815D01*
X193900Y193822D02*
X195585Y192136D01*
Y191000D02*
Y192136D01*
X193900Y193822D02*
Y196700D01*
X196227Y199027D01*
X367593Y121144D02*
X369303Y122853D01*
Y123989D01*
X328666Y62666D02*
X330022Y64022D01*
X367593Y112521D02*
Y121144D01*
X330022Y64022D02*
Y74950D01*
X367593Y112521D01*
X288971Y22971D02*
X290395Y24395D01*
X74569Y22971D02*
X288971D01*
X328666Y62666D02*
X328666D01*
X327222Y61222D02*
X328666Y62666D01*
X327222Y59731D02*
Y61222D01*
Y59731D02*
X331790Y55163D01*
Y51932D02*
Y55163D01*
X324640Y44782D02*
X331790Y51932D01*
X321410Y44782D02*
X324640D01*
X310475Y55717D02*
X321410Y44782D01*
X305610Y50852D02*
X310475Y55717D01*
X305610Y50852D02*
X317570Y38892D01*
Y35661D02*
Y38892D01*
X310421Y28512D02*
X317570Y35661D01*
X307190Y28512D02*
X310421D01*
X296736Y38966D02*
X307190Y28512D01*
X291871Y34101D02*
X296736Y38966D01*
X291871Y34101D02*
X293625Y32347D01*
Y27625D02*
Y32347D01*
X291894Y25894D02*
X293625Y27625D01*
X291894Y25894D02*
Y25894D01*
X290395Y24395D02*
X291894Y25894D01*
X38856Y58684D02*
X74569Y22971D01*
X190000Y193822D02*
Y198315D01*
X188315Y191000D02*
Y192136D01*
X190000Y193822D01*
Y198315D02*
X192327Y200642D01*
X362000Y122864D02*
X363694Y121170D01*
X362000Y122864D02*
Y124000D01*
X325908Y65424D02*
X326122Y65637D01*
X363694Y114137D02*
Y121170D01*
X326122Y65637D02*
Y76565D01*
X363694Y114137D01*
X287355Y26871D02*
X287994Y27509D01*
X76185Y26871D02*
X287355D01*
X325908Y65424D02*
Y65424D01*
X323322Y62837D02*
X325908Y65424D01*
X323322Y58115D02*
Y62837D01*
Y58115D02*
X327890Y53547D01*
X323025Y48682D02*
X327890Y53547D01*
X312091Y59617D02*
X323025Y48682D01*
X308860Y59617D02*
X312091D01*
X301710Y52467D02*
X308860Y59617D01*
X301710Y49236D02*
Y52467D01*
Y49236D02*
X313670Y37277D01*
X308805Y32412D02*
X313670Y37277D01*
X298351Y42866D02*
X308805Y32412D01*
X295121Y42866D02*
X298351D01*
X287971Y35716D02*
X295121Y42866D01*
X287971Y32485D02*
Y35716D01*
Y32485D02*
X289725Y30731D01*
Y29240D02*
Y30731D01*
X287994Y27509D02*
X289725Y29240D01*
X287280Y27509D02*
X287994D01*
X42756Y60300D02*
X76185Y26871D01*
X178860Y95140D02*
X182627Y91373D01*
X195627D01*
X200207Y95953D01*
X178860Y95140D02*
Y107000D01*
X198668Y174591D02*
Y175727D01*
Y174591D02*
X200207Y173052D01*
Y95953D02*
Y173052D01*
X178860Y107000D02*
X178861D01*
Y110658D01*
X175522Y113997D02*
X178861Y110658D01*
X165614Y113997D02*
X175522D01*
X165614D02*
Y120877D01*
X180938D01*
X183223Y123161D01*
Y133272D01*
X180938Y135557D02*
X183223Y133272D01*
X166880Y135557D02*
X180938D01*
X166880D02*
Y142437D01*
X175522D01*
X178861Y145776D01*
Y155000D01*
X178860D02*
X178861D01*
X349988Y115688D02*
Y121165D01*
X351697Y122874D02*
Y124010D01*
X349988Y121165D02*
X351697Y122874D01*
X54194Y158291D02*
Y161194D01*
X54157Y126416D02*
Y158254D01*
X54194Y161194D02*
X60050Y167050D01*
X54157Y126416D02*
X54194Y126379D01*
X54157Y158254D02*
X54194Y158291D01*
X349890Y115590D02*
X349988Y115688D01*
X270970Y36670D02*
X270970D01*
X270970D02*
X273556Y39256D01*
Y43978D01*
X265615Y51920D02*
X273556Y43978D01*
X265615Y51920D02*
X270480Y56785D01*
X282069Y45195D01*
X285300D01*
X292449Y52345D01*
Y55576D01*
X280860Y67165D02*
X292449Y55576D01*
X280860Y67165D02*
X285725Y72030D01*
X297314Y60441D01*
X300545D01*
X307694Y67590D01*
Y70821D01*
X296105Y82410D02*
X307694Y70821D01*
X296105Y82410D02*
X300970Y87275D01*
X312559Y75686D01*
X315790D01*
X322939Y82835D01*
Y86066D01*
X311350Y97655D02*
X322939Y86066D01*
X311350Y97655D02*
X316215Y102520D01*
X327804Y90931D01*
X331035D01*
X338185Y98080D01*
Y101311D01*
X332146Y107350D02*
X338185Y101311D01*
X332146Y107350D02*
X337011Y112215D01*
X339402Y109824D01*
X344124D01*
X347303Y113004D01*
X347303D01*
X349890Y115590D01*
Y115590D01*
X54194Y62553D02*
Y126379D01*
X267182Y32882D02*
X270970Y36670D01*
X54194Y62553D02*
X83864Y32882D01*
X267182D01*
X172500Y184325D02*
X174960Y181864D01*
Y93524D02*
X181011Y87473D01*
X205937Y174743D02*
Y175879D01*
X181011Y87473D02*
X197242D01*
X204107Y94338D02*
Y172913D01*
X205937Y174743D01*
X197242Y87473D02*
X204107Y94338D01*
X174960Y93524D02*
Y107000D01*
Y155000D02*
Y181864D01*
Y107000D02*
Y109042D01*
X173906Y110097D02*
X174960Y109042D01*
X163998Y110097D02*
X173906D01*
X161714Y112381D02*
X163998Y110097D01*
X161714Y112381D02*
Y122492D01*
X163998Y124777D01*
X179323D01*
Y131657D01*
X165264D02*
X179323D01*
X162980Y133941D02*
X165264Y131657D01*
X162980Y133941D02*
Y144052D01*
X165264Y146337D01*
X173906D01*
X174960Y147391D01*
Y155000D01*
X344395Y122885D02*
Y124021D01*
Y122885D02*
X346088Y121191D01*
X58094Y156675D02*
Y159578D01*
X61665Y163150D01*
X346088Y119391D02*
Y121191D01*
X268212Y39427D02*
Y39427D01*
Y39427D02*
X269656Y40872D01*
Y42363D01*
X261715Y50304D02*
X269656Y42363D01*
X261715Y50304D02*
Y53535D01*
X268864Y60684D01*
X272095D01*
X283684Y49095D01*
X288549Y53960D01*
X276960Y65549D02*
X288549Y53960D01*
X276960Y65549D02*
Y68780D01*
X284109Y75930D01*
X287340D01*
X298929Y64341D01*
X303794Y69205D01*
X292205Y80795D02*
X303794Y69205D01*
X292205Y80795D02*
Y84025D01*
X299355Y91175D01*
X302586D01*
X314175Y79586D01*
X319039Y84451D01*
X307450Y96040D02*
X319039Y84451D01*
X307450Y96040D02*
Y99270D01*
X314600Y106420D01*
X317831D01*
X329420Y94831D01*
X334285Y99696D01*
X328246Y105734D02*
X334285Y99696D01*
X328246Y105734D02*
Y108965D01*
X335396Y116115D01*
X338626D01*
X341017Y113724D01*
X342508D01*
X344546Y115761D01*
Y115761D01*
X346088Y117304D01*
Y119391D01*
X85479Y36783D02*
X265567D01*
X268212Y39427D01*
X58094Y64168D02*
X85479Y36783D01*
X58094Y64168D02*
Y116248D01*
Y121488D01*
X60300D01*
Y125828D01*
X58094D02*
X60300D01*
X58094D02*
Y130168D01*
X60803D01*
Y134508D01*
X58057D02*
X60803D01*
X58057D02*
Y138848D01*
X60803D01*
Y143188D01*
X58057D02*
X60803D01*
X58057D02*
Y147528D01*
X59721D01*
Y151868D01*
X58089D02*
X59721D01*
X58089D02*
Y152909D01*
X58092Y155775D01*
X58094Y156675D01*
X347000Y161270D02*
X348136D01*
X349822Y159585D01*
X66100Y71480D02*
Y122318D01*
X358233Y134938D02*
X365721Y142427D01*
X349822Y159585D02*
X357965D01*
X365721Y151829D01*
Y142427D02*
Y151829D01*
X328637Y134938D02*
X358233D01*
X66100Y71480D02*
X94872Y42708D01*
X236406D01*
X347000Y154000D02*
X348136D01*
X349822Y155685D01*
X70000Y73095D02*
Y120703D01*
X356617Y138838D02*
X361821Y144042D01*
X356349Y155685D02*
X361821Y150213D01*
Y144042D02*
Y150213D01*
X349822Y155685D02*
X356349D01*
X327021Y138838D02*
X356617D01*
X324591Y136409D02*
X327021Y138838D01*
X96487Y46607D02*
X234790D01*
X70000Y73095D02*
X96487Y46607D01*
X234790D02*
X280091Y91909D01*
X417855Y317659D02*
X421279Y314235D01*
Y311450D02*
Y314235D01*
D39*
X592970Y261638D02*
X605532D01*
X589565Y263826D02*
X590782D01*
X588991Y264400D02*
X589565Y263826D01*
X590782D02*
X592970Y261638D01*
X605532D02*
X606796Y260375D01*
X626649Y260669D02*
X626900Y260419D01*
X607140Y260669D02*
X626649D01*
X606820Y260350D02*
X607140Y260669D01*
X120016Y99442D02*
X124208Y95250D01*
X134840D01*
X121620Y82550D02*
X134840D01*
X118444Y79374D02*
X121620Y82550D01*
X117897Y79374D02*
X118444D01*
X119204Y99442D02*
X120016D01*
X270150Y432950D02*
X280650D01*
X287400D01*
X290840Y436390D01*
Y443520D01*
D40*
X563670Y298000D02*
X564120Y298450D01*
X547704Y457534D02*
X548565Y458395D01*
X547702Y455266D02*
X547704Y455267D01*
X547702Y451729D02*
X548581Y450850D01*
X567470D01*
X547702Y451729D02*
Y455266D01*
X547704Y455267D02*
Y457534D01*
X548622Y235829D02*
Y240296D01*
Y235829D02*
X549500Y234950D01*
X564120D01*
X545852Y225410D02*
Y239148D01*
X549012Y222250D02*
X567470D01*
X545852Y225410D02*
X549012Y222250D01*
X548339Y240579D02*
Y240679D01*
X540136Y244865D02*
X545852Y239148D01*
X548339Y240579D02*
X548622Y240296D01*
X517728Y247996D02*
X541022D01*
X548339Y240679D01*
X549078Y196421D02*
X567041D01*
X546499Y199000D02*
X549078Y196421D01*
X546000Y199000D02*
X546499D01*
X514605Y244865D02*
X540136D01*
X567320Y311000D02*
X567470Y311150D01*
X546000Y311000D02*
X567320D01*
X546000Y362000D02*
X567420D01*
Y336600D02*
X567470Y336550D01*
X567420Y323900D02*
X567470Y323850D01*
X567420Y349300D02*
X567470Y349250D01*
X567420Y362000D02*
X567470Y361950D01*
X546000Y323900D02*
X567420D01*
X546000Y336600D02*
X567420D01*
X546000Y349300D02*
X567420D01*
X567120Y375000D02*
X567470Y374650D01*
X546000Y375000D02*
X567120D01*
Y387000D02*
X567470Y387350D01*
X546000Y387000D02*
X567120D01*
X567420Y400000D02*
X567470Y400050D01*
X546000Y400000D02*
X567420D01*
X547407Y412750D02*
X567470D01*
X545157Y415000D02*
X547407Y412750D01*
X544000Y415000D02*
X545157D01*
X566920Y426000D02*
X567470Y425450D01*
X546170Y426000D02*
X566920D01*
X546000Y438000D02*
X566090D01*
X587224Y400553D02*
X602967D01*
Y387853D02*
X603470Y387350D01*
X602967Y413253D02*
X603470Y412750D01*
X602967Y425953D02*
X603470Y425450D01*
X602967Y400553D02*
X603470Y400050D01*
X587224Y387853D02*
X602967D01*
X587224Y425953D02*
X602967D01*
X587224Y413253D02*
X602967D01*
X588000Y435000D02*
X591150Y438150D01*
X603470D01*
Y450850D02*
X621197D01*
X620619Y460139D02*
X622075Y458683D01*
Y451729D02*
Y458683D01*
X621197Y450850D02*
X622075Y451729D01*
X620619Y460139D02*
Y461357D01*
X603470Y374650D02*
X622993D01*
X625643Y372000D01*
X626000D01*
X603520Y362000D02*
X626000D01*
X603470Y323850D02*
X603520Y323900D01*
X626000D01*
X603520Y336600D02*
X626000D01*
X603470Y349250D02*
X603520Y349300D01*
X626000D01*
X603470Y361950D02*
X603520Y362000D01*
X603470Y336550D02*
X603520Y336600D01*
X603470Y311150D02*
X621854D01*
X625936Y315232D01*
X626384Y305966D02*
X626750D01*
X630580Y302135D01*
Y299843D02*
Y302135D01*
Y299843D02*
X630580Y299843D01*
Y279286D02*
Y299843D01*
X624259Y272964D02*
X630580Y279286D01*
X604157Y297764D02*
X625560D01*
X603470Y298450D02*
X604157Y297764D01*
X606906Y272964D02*
X624259D01*
X606820Y273050D02*
X606906Y272964D01*
X625762Y252659D02*
X626901D01*
X621137Y248034D02*
X625762Y252659D01*
X615586Y247650D02*
X615970Y248034D01*
X621137D01*
X590970Y247650D02*
X615586D01*
X604040Y222250D02*
X604291Y222000D01*
X625000D01*
X604040Y209550D02*
X604490Y210000D01*
X625000D01*
X604040Y196850D02*
X604601Y197411D01*
X624364D01*
X604040Y184150D02*
X604191Y184000D01*
X626000D01*
X604040Y171450D02*
X604491Y171000D01*
X625000D01*
X604040Y158750D02*
X604290Y159000D01*
X626000D01*
X604091Y146000D02*
X625000D01*
X604040Y146050D02*
X604091Y146000D01*
X604040Y133350D02*
X604391Y133000D01*
X625000D01*
X124648Y133350D02*
X136840D01*
X117395Y138347D02*
X119651D01*
X124648Y133350D01*
X116534Y139208D02*
X117395Y138347D01*
X383779Y247700D02*
Y264200D01*
X386279Y266700D01*
X582995Y184150D02*
X583145Y184300D01*
X478154Y245770D02*
X481974Y241950D01*
X478154Y245770D02*
Y251074D01*
X478028Y251200D02*
X478154Y251074D01*
X481974Y241950D02*
X488529D01*
X428650Y322200D02*
Y322700D01*
X79831Y323850D02*
X98840D01*
X79831Y323850D02*
X79831Y323850D01*
X428650Y322700D02*
X437333Y331384D01*
X488529Y241950D02*
X493745D01*
X498315Y246521D01*
Y318590D01*
X485522Y331384D02*
X498315Y318590D01*
X437333Y331384D02*
X485522D01*
X478028Y282200D02*
Y288361D01*
X481118Y291450D01*
X433650Y313200D02*
Y320101D01*
X79831Y311150D02*
X96840D01*
X433650Y320101D02*
X441391Y327842D01*
X481118Y291450D02*
X488529D01*
X483086Y327842D02*
X488529Y322400D01*
Y291450D02*
Y322400D01*
X441391Y327842D02*
X483086D01*
X319618Y291450D02*
X327029D01*
X316529Y282200D02*
Y288361D01*
X327029Y291450D02*
X330929D01*
X316529Y288361D02*
X319618Y291450D01*
X330929D02*
X339000Y283379D01*
X336680Y257475D02*
X339000Y259795D01*
Y283379D01*
X336680Y232674D02*
Y257475D01*
X316654Y245770D02*
X320474Y241950D01*
X316654Y245770D02*
Y251074D01*
X316529Y251200D02*
X316654Y251074D01*
X320474Y241950D02*
X327029D01*
X117052Y122998D02*
X118012D01*
X120360Y120650D01*
X326694Y229984D02*
X326861Y230151D01*
Y241783D02*
X327029Y241950D01*
X326861Y230151D02*
Y241783D01*
X120360Y120650D02*
X136840D01*
X590970Y273929D02*
Y273971D01*
Y273929D02*
X591849Y273050D01*
X588991Y275951D02*
Y277100D01*
Y275951D02*
X590970Y273971D01*
X591849Y273050D02*
X603470D01*
X414041Y376619D02*
X414200Y376460D01*
X274650Y517200D02*
X285800D01*
X286000Y517000D01*
X269079Y517200D02*
X274650D01*
X267650Y515771D02*
X269079Y517200D01*
X414041Y376619D02*
Y393739D01*
X413881Y393898D02*
X414041Y393739D01*
X408467Y399313D02*
X413881Y393898D01*
X395313Y399313D02*
X408467D01*
X387000Y391000D02*
X395313Y399313D01*
X270800Y405200D02*
X285000Y391000D01*
X387000D01*
X265650Y405200D02*
X270800D01*
X261650Y409200D02*
X265650Y405200D01*
X261650Y409200D02*
Y443200D01*
X267650Y449200D01*
Y515771D01*
X423417Y356577D02*
X431008D01*
X423300Y356460D02*
X423417Y356577D01*
X431008D02*
X431124Y356693D01*
X431450Y357019D01*
Y372999D01*
X423700Y376460D02*
X427989D01*
X431450Y372999D01*
X588000Y250000D02*
X588620D01*
X590970Y247650D01*
X458449Y342370D02*
X488364D01*
X506743Y323991D01*
Y258981D02*
Y323991D01*
Y258981D02*
X517728Y247996D01*
X396861Y424139D02*
X404961D01*
X396000Y425000D02*
X396861Y424139D01*
X404961D02*
X405650Y423450D01*
X451608Y365490D02*
X456203Y360894D01*
Y344617D02*
X458449Y342370D01*
X456203Y344617D02*
Y360894D01*
X401115Y408000D02*
X405650Y412536D01*
X400000Y408000D02*
X401115D01*
X405650Y412536D02*
Y423450D01*
X501946Y257524D02*
Y322227D01*
X488892Y335280D02*
X501946Y322227D01*
Y257524D02*
X514605Y244865D01*
X401634Y465450D02*
X405650D01*
X400946Y466139D02*
X401634Y465450D01*
X397000Y467000D02*
X397861Y466139D01*
X400946D01*
X405650Y465450D02*
X412550D01*
X415000Y463000D01*
Y405000D02*
Y463000D01*
Y405000D02*
X439000Y381000D01*
Y346000D02*
Y381000D01*
Y346000D02*
X449720Y335280D01*
X488892D01*
X567041Y196421D02*
X567470Y196850D01*
X382200Y394000D02*
X390400Y402200D01*
X286635Y394000D02*
X382200D01*
X272435Y408200D02*
X286635Y394000D01*
X265529Y432950D02*
X270150D01*
X264650Y432071D02*
X265529Y432950D01*
X266650Y408200D02*
X272435D01*
X264650Y410200D02*
Y432071D01*
Y410200D02*
X266650Y408200D01*
X582995Y171450D02*
X583145Y171600D01*
X567615Y171450D02*
X582995D01*
Y158750D02*
X583145Y158900D01*
X567615Y158750D02*
X582995D01*
Y146050D02*
X583145Y146200D01*
X567615Y146050D02*
X582995D01*
Y133350D02*
X583145Y133500D01*
X567615Y133350D02*
X582995D01*
X261875Y401875D02*
X262000Y402000D01*
X268000D01*
X393722Y98702D02*
X396702D01*
X405000Y107000D02*
Y124550D01*
X393000Y97980D02*
X393722Y98702D01*
X396702D02*
X405000Y107000D01*
Y124550D02*
X438300Y157850D01*
X399386Y109386D02*
Y124386D01*
X395000Y105000D02*
X399386Y109386D01*
X386000Y105000D02*
X395000D01*
X393201Y111518D02*
X395079Y113397D01*
X393201Y110300D02*
Y111518D01*
X395079Y113397D02*
Y124000D01*
X427000Y155920D01*
X399386Y124386D02*
X432000Y157000D01*
X427000Y155920D02*
Y177000D01*
X414012Y182210D02*
X421790D01*
X427000Y177000D01*
X418342Y184980D02*
X424020D01*
X432000Y177000D01*
Y157000D02*
Y177000D01*
X438300Y157850D02*
Y177431D01*
X425830Y189901D02*
X438300Y177431D01*
X259176Y78176D02*
X285000Y104000D01*
X225590Y78176D02*
X259176D01*
X236438Y92036D02*
X243609Y84865D01*
X225889Y92036D02*
X236438D01*
X243609Y84865D02*
X261865D01*
X282000Y105000D01*
X298000Y141000D02*
Y175000D01*
X285000Y188000D02*
X298000Y175000D01*
X285000Y188000D02*
Y194000D01*
X288000Y189000D02*
Y195901D01*
Y189000D02*
X301000Y176000D01*
X285000Y123000D02*
X301000Y139000D01*
Y176000D01*
X274000Y205000D02*
X285000Y194000D01*
X278000Y205901D02*
Y234000D01*
Y205901D02*
X288000Y195901D01*
X282000Y125000D02*
X298000Y141000D01*
X282000Y105000D02*
Y125000D01*
X285000Y104000D02*
Y123000D01*
X407704Y188518D02*
Y201170D01*
Y188518D02*
X414012Y182210D01*
X415240Y188082D02*
X418342Y184980D01*
X278000Y234000D02*
X282513Y238513D01*
X274000Y205000D02*
Y253152D01*
X290029Y269181D01*
X442200Y282200D02*
X463029D01*
X282513Y251353D02*
X289932D01*
X290029Y251450D01*
X290279Y251200D01*
X301529D01*
X282513Y238513D02*
Y251353D01*
X290029Y269181D02*
Y281950D01*
X283000Y342000D02*
X288450Y347450D01*
X273581Y332581D02*
X283000Y342000D01*
X277000Y348000D02*
X283000Y342000D01*
X277000Y348000D02*
Y383504D01*
X265926Y394579D02*
X277000Y383504D01*
X268000Y402000D02*
X284000Y386000D01*
X389454D01*
X401279Y321700D02*
Y374176D01*
X389454Y386000D02*
X401279Y374176D01*
X329000Y343000D02*
X348865D01*
X291000D02*
X329000D01*
X329029Y342971D01*
X301279Y281950D02*
X301529Y282200D01*
X290029Y281950D02*
X301279D01*
X278628Y286223D02*
X282901Y281950D01*
X278628Y286223D02*
Y330628D01*
X291000Y343000D01*
X273581Y285066D02*
Y332581D01*
X282901Y281950D02*
X290029D01*
X288450Y347450D02*
X376550D01*
X348865Y343000D02*
X355410Y336455D01*
X329029Y302450D02*
Y342971D01*
X376550Y347450D02*
X393779Y330221D01*
Y285700D02*
Y330221D01*
X398779Y285700D02*
Y291200D01*
X401279Y293700D01*
Y321700D01*
X410029D01*
X410029Y321700D01*
X661550Y126334D02*
X665800D01*
X671850Y120284D01*
X665500Y112384D02*
X671850D01*
X661550Y106334D02*
X673700D01*
X679750Y112384D01*
X661550Y116334D02*
X665500Y112384D01*
X661549Y181868D02*
X665499Y177918D01*
X661545Y322930D02*
X665796D01*
X671845Y316880D01*
X661546Y312930D02*
X665496Y308980D01*
X671845D01*
X661546Y302930D02*
X673696D01*
X679746Y308980D01*
X661550Y257394D02*
X665800D01*
X671850Y251344D01*
X661550Y247394D02*
X665500Y243444D01*
X671850D01*
X661550Y237394D02*
X673700D01*
X679750Y243444D01*
X673699Y171868D02*
X679749Y177918D01*
X661549Y171868D02*
X673699D01*
X665499Y177918D02*
X671849D01*
X665799Y191868D02*
X671849Y185818D01*
X661549Y191868D02*
X665799D01*
X442276Y251276D02*
X451354D01*
X439412Y248412D02*
X442276Y251276D01*
X439412Y240452D02*
Y248412D01*
Y240452D02*
X452656Y227208D01*
X434104Y274104D02*
X442200Y282200D01*
X434104Y253399D02*
Y274104D01*
X313779Y329400D02*
X322029D01*
X373779Y285700D02*
Y290392D01*
X368858Y295313D02*
X373779Y290392D01*
X361279Y295313D02*
X368858D01*
X406359Y293142D02*
X410157Y289343D01*
X409279Y279200D02*
X410157Y280079D01*
X405279Y279200D02*
X409279D01*
X411129Y311450D02*
X411279D01*
X406359Y293142D02*
Y306680D01*
X411129Y311450D01*
X410157Y280079D02*
Y289343D01*
X350279Y297450D02*
X352416Y295313D01*
X361279D01*
X378759Y290314D02*
Y294370D01*
X371279Y301700D02*
X371429D01*
X378759Y294370D01*
X366359Y306620D02*
X371279Y301700D01*
X378759Y290314D02*
X378779Y290294D01*
Y285700D02*
Y290294D01*
X350279Y297450D02*
Y301700D01*
X361279Y295313D02*
Y301700D01*
X366359Y306620D02*
Y316780D01*
X371279Y321700D01*
X383779Y285700D02*
Y292393D01*
X451779Y251200D02*
X463028Y251200D01*
D41*
X637824Y220747D02*
X637941Y220864D01*
X638909Y227973D02*
X644679Y233742D01*
X638625Y227973D02*
X638909D01*
X637941Y220864D02*
X645800D01*
X523580Y170420D02*
X523866Y170134D01*
X518169Y165515D02*
X518250D01*
X514089Y169595D02*
X518169Y165515D01*
X531134Y170000D02*
Y170866D01*
X526540Y175460D02*
X531134Y170866D01*
X515990Y172920D02*
X518490Y170420D01*
X523580D01*
X514982Y183682D02*
X521619D01*
X512155Y186509D02*
X514982Y183682D01*
X521619D02*
X521937Y184000D01*
X456629Y189049D02*
X519126D01*
X519588Y188587D01*
X521937Y184000D02*
X526000D01*
X639100Y302930D02*
X652046D01*
X639219Y235696D02*
Y252246D01*
X645423Y247394D02*
X652050D01*
X644679Y233742D02*
Y246650D01*
X637800Y253664D02*
X639219Y252246D01*
X637800Y253664D02*
Y268935D01*
X638771Y181834D02*
X638805Y181868D01*
X652049D01*
X639271Y171334D02*
X639805Y171868D01*
X652049D01*
X628899Y139864D02*
X643800D01*
X628074Y126412D02*
X628526Y126864D01*
X634800D01*
X513602Y172920D02*
X515990D01*
X517072Y178000D02*
X531134D01*
X511708Y169595D02*
X514089D01*
X515540Y175460D02*
X526540D01*
X423755Y157368D02*
Y173435D01*
X391029Y124642D02*
X423755Y157368D01*
X391029Y120029D02*
Y124642D01*
X405091Y179555D02*
X417635D01*
X423755Y173435D01*
X378000Y103000D02*
Y107000D01*
X391029Y120029D01*
X391987Y192658D02*
X405091Y179555D01*
X375867Y185778D02*
Y208539D01*
X371120Y190841D02*
Y213792D01*
X371279Y213950D01*
X375867Y185778D02*
X381323Y180323D01*
X370962Y190683D02*
X371120Y190841D01*
X375867Y208539D02*
X381279Y213950D01*
X403486Y224991D02*
X451674Y176803D01*
X402263Y221991D02*
X449991Y174263D01*
X406181Y230991D02*
X454138Y183034D01*
X408687Y236991D02*
X456629Y189049D01*
X407724Y233991D02*
X455206Y186509D01*
X404902Y227991D02*
X452884Y180008D01*
X373779Y238354D02*
Y247700D01*
X367279Y239854D02*
Y254200D01*
X405279Y269200D02*
X411381D01*
X405279Y274200D02*
X410935D01*
X405279Y264200D02*
X410916D01*
X405279Y254200D02*
X412061D01*
X405279Y259200D02*
X411666D01*
X363200D02*
X367279D01*
X362259Y258259D02*
X363200Y259200D01*
X362259Y240874D02*
Y258259D01*
X361200Y264200D02*
X367279D01*
X359009Y262009D02*
X361200Y264200D01*
X359009Y239124D02*
Y262009D01*
X359779Y269200D02*
X367279D01*
X356239Y265660D02*
X359779Y269200D01*
X356239Y236894D02*
Y265660D01*
X353469Y266807D02*
X360861Y274200D01*
X367279D01*
X353469Y235746D02*
Y266807D01*
X356239Y236894D02*
X371392Y221740D01*
X353469Y235746D02*
X370245Y218970D01*
X378779Y239354D02*
Y247700D01*
X398779Y241354D02*
Y247700D01*
X393779Y241385D02*
Y247700D01*
X388779Y240354D02*
Y247700D01*
X645330Y116334D02*
X652050D01*
X634800Y126864D02*
X645330Y116334D01*
X645796Y342930D02*
X658457D01*
X661546Y332930D02*
Y339841D01*
X658457Y342930D02*
X661546Y339841D01*
X638734Y335869D02*
X645796Y342930D01*
X638734Y322930D02*
Y335869D01*
X652046Y322930D02*
Y332930D01*
X652050Y257394D02*
Y267394D01*
X658796Y275930D02*
X661550Y273175D01*
X644796Y275930D02*
X658796D01*
X661550Y267394D02*
Y273175D01*
X637800Y268935D02*
X644796Y275930D01*
X652050Y126334D02*
Y136334D01*
X652049Y191868D02*
X652049Y191868D01*
X652049Y191868D02*
Y201868D01*
X661549D02*
Y207177D01*
X659796Y208930D02*
X661549Y207177D01*
X645796Y208930D02*
X659796D01*
X638737Y201872D02*
X645796Y208930D01*
X638737Y191868D02*
Y201872D01*
X643800Y139864D02*
X648866Y144930D01*
X661550Y136334D02*
Y142175D01*
X658796Y144930D02*
X661550Y142175D01*
X648866Y144930D02*
X658796D01*
X509719Y176803D02*
X513602Y172920D01*
X451674Y176803D02*
X509719D01*
X507040Y174263D02*
X511708Y169595D01*
X449991Y174263D02*
X507040D01*
X452884Y180008D02*
X510992D01*
X515540Y175460D01*
X454138Y183034D02*
X512038D01*
X517072Y178000D01*
X455206Y186509D02*
X512155D01*
X428661Y243472D02*
X464378Y207755D01*
X425857Y242246D02*
X463197Y204905D01*
X422761Y241089D02*
X461951Y201898D01*
X419783Y239137D02*
X460508Y198412D01*
X416938Y237535D02*
X459206Y195268D01*
X393141Y221991D02*
X402263D01*
X395169Y227991D02*
X404902D01*
X397004Y233991D02*
X407724D01*
X398172Y236991D02*
X408687D01*
X394141Y224991D02*
X403486D01*
X396087Y230991D02*
X406181D01*
X644679Y246650D02*
X645423Y247394D01*
X645800Y220864D02*
X652050Y227114D01*
Y237394D01*
X482841Y204905D02*
X493800Y215864D01*
X463197Y204905D02*
X482841D01*
X412061Y254200D02*
X416938Y249323D01*
Y237535D02*
Y249323D01*
X498205Y195268D02*
X507800Y204864D01*
X459206Y195268D02*
X498205D01*
X632800Y118864D02*
X632865Y118799D01*
Y114864D02*
Y118799D01*
Y114864D02*
X641395Y106334D01*
X652050D01*
X638734Y312930D02*
X652046D01*
X460508Y198412D02*
X493349D01*
X507800Y212864D01*
X503198Y192261D02*
X507800Y196864D01*
X457960Y192261D02*
X503198D01*
X387800Y227332D02*
X393141Y221991D01*
X362259Y240874D02*
X375800Y227332D01*
X387800D01*
X367279Y239854D02*
X376915Y230218D01*
X388915D02*
X394141Y224991D01*
X376915Y230218D02*
X388915D01*
X373779Y238354D02*
X379145Y232988D01*
X390173D02*
X395169Y227991D01*
X379145Y232988D02*
X390173D01*
X393779Y241385D02*
X398172Y236991D01*
X378779Y239354D02*
X382375Y235758D01*
X391320D02*
X396087Y230991D01*
X382375Y235758D02*
X391320D01*
X388779Y240354D02*
X390605Y238528D01*
X392468D02*
X397004Y233991D01*
X390605Y238528D02*
X392468D01*
X410230Y239991D02*
X457960Y192261D01*
X400141Y239991D02*
X410230D01*
X398779Y241354D02*
X400141Y239991D01*
X419783Y239137D02*
Y251082D01*
X411666Y259200D02*
X419783Y251082D01*
X487834Y201898D02*
X493800Y207864D01*
X461951Y201898D02*
X487834D01*
X477691Y207755D02*
X493800Y223864D01*
X464378Y207755D02*
X477691D01*
X422761Y241089D02*
Y252355D01*
X410916Y264200D02*
X422761Y252355D01*
X425857Y242246D02*
Y254724D01*
X411381Y269200D02*
X425857Y254724D01*
X428661Y243472D02*
Y256474D01*
X410935Y274200D02*
X428661Y256474D01*
X373622Y224510D02*
X385622D01*
X390800Y219332D02*
X395897D01*
X385622Y224510D02*
X390800Y219332D01*
X395897D02*
X401279Y213950D01*
X383489Y221740D02*
X391279Y213950D01*
X371392Y221740D02*
X383489D01*
X370245Y218970D02*
X376259D01*
X381279Y213950D01*
X359009Y239124D02*
X373622Y224510D01*
X350699Y275120D02*
X354779Y279200D01*
X350699Y234530D02*
Y275120D01*
Y234530D02*
X371279Y213950D01*
X371279D01*
X354779Y279200D02*
X367279D01*
D42*
X567471Y234950D02*
X582953D01*
X529356Y200721D02*
X530250Y199827D01*
X529356Y200721D02*
Y206394D01*
X530250Y198745D02*
Y199827D01*
X528250Y207500D02*
X529356Y206394D01*
X534750Y398750D02*
X538000D01*
X531000Y393282D02*
Y395000D01*
X534750Y398750D01*
X538000Y380050D02*
Y389250D01*
X405650Y474950D02*
Y484150D01*
Y432950D02*
Y442150D01*
X414600Y348310D02*
Y356460D01*
X384902Y314423D02*
Y316992D01*
X370911Y331200D02*
X371279D01*
X364661Y337450D02*
X370911Y331200D01*
X364279Y337450D02*
X364661D01*
X412900Y293700D02*
Y294782D01*
X381279Y310800D02*
X384902Y314423D01*
X411279Y296404D02*
X412900Y294782D01*
X411279Y296404D02*
Y301950D01*
X343383Y311200D02*
X350279D01*
X343328Y311255D02*
X343383Y311200D01*
X274500Y526850D02*
X274650Y526700D01*
X266150Y526850D02*
X274500D01*
X266000Y527000D02*
X266150Y526850D01*
X270150Y415200D02*
Y423450D01*
X95490Y298450D02*
X98840D01*
X79831D02*
X95490D01*
X79831Y298450D02*
X79831Y298450D01*
X567471Y285750D02*
X582953D01*
X567471Y273050D02*
X582953D01*
X567471Y260350D02*
X582953D01*
X581369Y245529D02*
X582267D01*
X567471Y247650D02*
X579248D01*
X581369Y245529D01*
X572900Y465200D02*
Y474847D01*
X572894Y474853D02*
X572900Y474847D01*
X567471Y222250D02*
X582953D01*
X567471Y196850D02*
X582953D01*
X679121Y328636D02*
X679433Y328324D01*
Y317192D02*
X679746Y316880D01*
X679433Y317192D02*
Y328324D01*
X679415Y262995D02*
X679583Y262827D01*
Y251512D02*
X679750Y251344D01*
X679583Y251512D02*
Y262827D01*
X679643Y185924D02*
Y196314D01*
Y185924D02*
X679749Y185818D01*
X679537Y196420D02*
X679643Y196314D01*
X679761Y120295D02*
Y130639D01*
X679750Y120284D02*
X679761Y120295D01*
Y130639D02*
X679772Y130650D01*
X426050Y301950D02*
X429000Y299000D01*
X421279Y301950D02*
X426050D01*
X378000Y317921D02*
Y337000D01*
X371279Y311200D02*
X378000Y317921D01*
X361279Y311200D02*
Y317757D01*
X360107Y318928D02*
X361279Y317757D01*
X349709Y318928D02*
X360107D01*
X383115Y300264D02*
X383361D01*
X381279Y302100D02*
X383115Y300264D01*
X383361D02*
X389049Y294576D01*
X371279Y311200D02*
X380379Y302100D01*
X381279D01*
X292600Y329400D02*
X304279D01*
X290029Y326829D02*
X292600Y329400D01*
X349635Y318855D02*
X349709Y318928D01*
X290029Y291450D02*
Y326829D01*
X389049Y290211D02*
Y294576D01*
X388779Y289941D02*
X389049Y290211D01*
X388779Y285700D02*
Y289941D01*
X319029Y297023D02*
Y302700D01*
X311529Y289523D02*
X319029Y297023D01*
X311529Y282200D02*
Y289523D01*
X411279Y311450D02*
X411537D01*
X417746Y317659D01*
X417855D01*
X317279Y271450D02*
X327029D01*
X311529Y277200D02*
X317279Y271450D01*
X311529Y277200D02*
Y282200D01*
X473028Y277200D02*
X478778Y271450D01*
X488529D01*
X473028Y282200D02*
Y290200D01*
X480528Y297700D02*
Y302700D01*
X473028Y277200D02*
Y282200D01*
Y290200D02*
X480528Y297700D01*
D43*
X536707Y226771D02*
X538800Y228864D01*
X536707Y216398D02*
Y226771D01*
X537520Y196241D02*
Y201756D01*
X536707Y202569D02*
Y216398D01*
X518524Y200190D02*
Y222201D01*
X537520Y196241D02*
X545674Y188086D01*
X536707Y202569D02*
X537520Y201756D01*
X518524Y200190D02*
X527367Y191346D01*
X518524Y222201D02*
X525161Y228839D01*
X527367Y191346D02*
X529476D01*
X538404Y182418D01*
Y160272D02*
Y182418D01*
X545674Y148272D02*
Y188086D01*
X525161Y228839D02*
X534805Y238482D01*
X539418D01*
X582000Y75194D02*
X586000Y71193D01*
X582000Y75194D02*
Y80000D01*
X533132Y155000D02*
X538404Y160272D01*
X457280Y155000D02*
X533132D01*
X540402Y143000D02*
X545674Y148272D01*
X461000Y143000D02*
X540402D01*
X564120Y273050D02*
X567470D01*
X438000Y105000D02*
Y111000D01*
X437783Y135503D02*
X457280Y155000D01*
X437783Y128783D02*
Y135503D01*
X437431Y34800D02*
Y40800D01*
X451000Y101500D02*
Y133000D01*
X461000Y143000D01*
X442000Y92500D02*
X451000Y101500D01*
X437181Y73550D02*
X442000Y78369D01*
Y92500D01*
D44*
X480528Y311400D02*
X480529Y319050D01*
X470528Y311400D02*
X470528Y319050D01*
X468028Y245147D02*
Y251200D01*
X464252Y241411D02*
X467989Y245147D01*
X460528Y319050D02*
X460528Y311400D01*
X319029D02*
X319029Y319050D01*
X309028Y311400D02*
X309029Y319050D01*
X299029Y319050D02*
X299029Y311400D01*
X462740Y241411D02*
X462877Y241274D01*
Y237002D02*
Y241274D01*
X462740Y241411D02*
X464252Y241411D01*
X306529Y245147D02*
Y251200D01*
X302752Y241411D02*
X306489Y245147D01*
X301240Y241411D02*
X301377Y241274D01*
X301240Y241411D02*
X302752Y241411D01*
X466068Y233700D02*
X466179Y233700D01*
X464278Y235490D02*
Y235600D01*
X462877Y237002D02*
X464278Y235600D01*
Y235490D02*
X466068Y233700D01*
X466179Y223700D02*
Y233700D01*
X425000Y113734D02*
X428250Y116985D01*
Y121000D01*
X426216Y69800D02*
X427681Y68335D01*
Y65000D02*
Y68335D01*
X427681Y46784D02*
X428431Y46034D01*
X427681Y46784D02*
Y50800D01*
X428431Y39800D02*
Y46034D01*
X425000Y105000D02*
Y113734D01*
X302779Y235490D02*
X304568Y233700D01*
X304679Y223700D02*
Y233700D01*
X304568Y233700D02*
X304679Y233700D01*
X301377Y237002D02*
X302779Y235600D01*
X301377Y237002D02*
Y241274D01*
X302779Y235490D02*
Y235600D01*
X420431Y69800D02*
X426216D01*
X446354Y241950D02*
X451529D01*
X444432Y243872D02*
X446354Y241950D01*
X465779Y291450D02*
X470528Y296200D01*
Y302700D01*
X465779Y291450D02*
X468028Y289200D01*
X460497Y291450D02*
X465779D01*
X468028Y282200D02*
Y289200D01*
X460528Y291482D02*
Y302700D01*
X451529Y291450D02*
X460497D01*
X460528Y291482D01*
X309029Y294476D02*
Y302700D01*
X299029Y291482D02*
Y302700D01*
X298997Y291450D02*
X299029Y291482D01*
X290029Y291450D02*
X298997D01*
X304279D01*
X306529Y282200D02*
Y289200D01*
X290029Y232029D02*
Y241950D01*
X304279Y291450D02*
X305141Y290588D01*
X306529Y289200D01*
X305141Y290588D02*
X305141Y290588D01*
X309029Y294476D01*
X333023Y267944D02*
Y275956D01*
X327029Y281950D02*
X333023Y275956D01*
X327029Y251450D02*
Y261950D01*
X333023Y267944D01*
X313379Y223700D02*
Y233700D01*
X311569Y244478D02*
X311569Y245673D01*
X311529Y245713D02*
X311569Y245673D01*
X312937Y234141D02*
X313379Y233700D01*
X311569Y244478D02*
X311826Y244220D01*
X312937Y234141D02*
Y240711D01*
X311826Y241702D02*
Y244220D01*
Y241702D02*
X312263Y241265D01*
X312383D01*
X312937Y240711D01*
X494523Y267944D02*
Y275956D01*
X488529Y281950D02*
X494523Y275956D01*
X488529Y251450D02*
Y261950D01*
X494523Y267944D01*
X474879Y223700D02*
Y233700D01*
X473069Y244478D02*
X473069Y245673D01*
X473028Y245713D02*
X473069Y245673D01*
X474437Y234141D02*
X474879Y233700D01*
X473069Y244478D02*
X473326Y244220D01*
X474437Y234141D02*
Y240711D01*
X473326Y241702D02*
Y244220D01*
Y241702D02*
X473763Y241265D01*
X473883D01*
X474437Y240711D01*
X311529Y245713D02*
Y251200D01*
X313279Y261950D02*
X327029Y261950D01*
X311529Y251200D02*
Y256218D01*
X307845Y261950D02*
X313279D01*
X306821Y260926D02*
X307845Y261950D01*
X306821Y260926D02*
X311529Y256218D01*
X473831Y259921D02*
X479802D01*
X481832Y261950D02*
X488529D01*
X473831Y258974D02*
Y259921D01*
X473028Y245713D02*
Y251200D01*
X479802Y259921D02*
X481832Y261950D01*
X473028Y258171D02*
X473831Y258974D01*
X473028Y251200D02*
Y258171D01*
D45*
X567615Y184150D02*
X582995D01*
D46*
X437214Y58583D02*
Y65000D01*
X437750Y111250D02*
Y121000D01*
Y111250D02*
X438000Y111000D01*
X437750Y121000D02*
Y128750D01*
X437181Y50800D02*
Y58550D01*
Y41050D02*
Y50800D01*
X437181Y65000D02*
Y73550D01*
D47*
X298107Y202107D02*
X342893D01*
X383859Y161141D01*
X403878D01*
Y162016D01*
X408762Y166900D01*
X293384Y208000D02*
X297000Y204384D01*
X290000Y208000D02*
X293384D01*
D48*
X558800Y520700D02*
D03*
Y12700D02*
D03*
X584200D02*
D03*
X635000D02*
D03*
X609600D02*
D03*
X584200Y520700D02*
D03*
X609600D02*
D03*
X635000D02*
D03*
D49*
X585470Y88900D02*
D03*
Y444500D02*
D03*
X116840Y88900D02*
D03*
Y444500D02*
D03*
X626970Y73309D02*
D03*
X548565Y458395D02*
D03*
X638625Y227973D02*
D03*
X637824Y220747D02*
D03*
X518250Y165515D02*
D03*
X523866Y170134D02*
D03*
X531134Y170000D02*
D03*
X545000Y298000D02*
D03*
X536900Y280200D02*
D03*
X530250Y198745D02*
D03*
X519588Y188587D02*
D03*
X546000Y199000D02*
D03*
X539418Y238482D02*
D03*
X546000Y311000D02*
D03*
Y323900D02*
D03*
Y336600D02*
D03*
Y362000D02*
D03*
Y349300D02*
D03*
Y375000D02*
D03*
Y387000D02*
D03*
Y400000D02*
D03*
X544000Y415000D02*
D03*
X546170Y426000D02*
D03*
X546000Y438000D02*
D03*
X587224Y400553D02*
D03*
Y413253D02*
D03*
Y387853D02*
D03*
Y425953D02*
D03*
X588000Y435000D02*
D03*
X620619Y461357D02*
D03*
X626000Y372000D02*
D03*
Y362000D02*
D03*
Y336600D02*
D03*
Y349300D02*
D03*
Y323900D02*
D03*
X625936Y315232D02*
D03*
X626384Y305966D02*
D03*
X639100Y302930D02*
D03*
X625560Y297764D02*
D03*
X625368Y284914D02*
D03*
X624259Y272964D02*
D03*
X626900Y260419D02*
D03*
X626901Y252659D02*
D03*
X626780Y238608D02*
D03*
X639219Y235696D02*
D03*
X625000Y222000D02*
D03*
Y210000D02*
D03*
X624364Y197411D02*
D03*
X626000Y184000D02*
D03*
X638771Y181834D02*
D03*
X625000Y171000D02*
D03*
X639271Y171334D02*
D03*
X626000Y159000D02*
D03*
X625000Y146000D02*
D03*
X628899Y139864D02*
D03*
X625000Y133000D02*
D03*
X628074Y126412D02*
D03*
X624226Y119661D02*
D03*
X625719Y95048D02*
D03*
X625135Y107986D02*
D03*
X649336Y96613D02*
D03*
X654341Y86381D02*
D03*
X628315Y52833D02*
D03*
X77000Y82000D02*
D03*
Y94700D02*
D03*
X591650Y465200D02*
D03*
X591644Y474852D02*
D03*
X538000Y380050D02*
D03*
X465000Y366000D02*
D03*
X480529Y319050D02*
D03*
X470528Y319050D02*
D03*
X588991Y264400D02*
D03*
X504059Y242941D02*
D03*
X462740Y241411D02*
D03*
X405650Y484150D02*
D03*
Y442150D02*
D03*
X405020Y393700D02*
D03*
X414600Y348310D02*
D03*
X460528Y319050D02*
D03*
X384902Y316992D02*
D03*
X364279Y337450D02*
D03*
X319029Y319050D02*
D03*
X309029Y319050D02*
D03*
X299029Y319050D02*
D03*
X412900Y293700D02*
D03*
X386279Y266700D02*
D03*
X343328Y311255D02*
D03*
X301240Y241411D02*
D03*
X582953Y209550D02*
D03*
X583145Y184300D02*
D03*
X583191Y97989D02*
D03*
X428431Y39800D02*
D03*
X376605Y123979D02*
D03*
X425000Y105000D02*
D03*
X362000Y80000D02*
D03*
X347000Y146730D02*
D03*
Y168540D02*
D03*
X357000Y118000D02*
D03*
X350000Y79000D02*
D03*
X420431Y69800D02*
D03*
X340070Y76250D02*
D03*
X337092Y124031D02*
D03*
X385000Y44000D02*
D03*
X353800D02*
D03*
X332000D02*
D03*
X325000Y29000D02*
D03*
X266000Y527000D02*
D03*
X237000Y520000D02*
D03*
X221366Y497933D02*
D03*
X213695Y508986D02*
D03*
X214400Y481400D02*
D03*
X199557Y497776D02*
D03*
X199070Y483000D02*
D03*
X170000Y482000D02*
D03*
X184341Y481400D02*
D03*
X239000Y470000D02*
D03*
X240591Y423598D02*
D03*
X225000Y458000D02*
D03*
X287650Y415200D02*
D03*
X270150D02*
D03*
X255818Y411178D02*
D03*
X265000Y387000D02*
D03*
X208347Y445229D02*
D03*
X200000Y445000D02*
D03*
X189007Y430499D02*
D03*
X155850Y336550D02*
D03*
Y374650D02*
D03*
Y298450D02*
D03*
X148000Y482000D02*
D03*
X104000Y459000D02*
D03*
X116840Y457200D02*
D03*
X117000Y413000D02*
D03*
X76831Y374650D02*
D03*
Y336550D02*
D03*
Y298450D02*
D03*
X282540Y162000D02*
D03*
X213605Y175152D02*
D03*
X262870Y156167D02*
D03*
X241060Y156193D02*
D03*
X202900Y191000D02*
D03*
X181000D02*
D03*
X191000Y175000D02*
D03*
X214420Y75600D02*
D03*
X199979Y75897D02*
D03*
X155850Y260350D02*
D03*
X169775Y76194D02*
D03*
X154000Y75000D02*
D03*
X252000Y47000D02*
D03*
X119122Y222023D02*
D03*
X119020Y180299D02*
D03*
Y150000D02*
D03*
X76831Y222250D02*
D03*
Y260350D02*
D03*
X78000Y184000D02*
D03*
X118000Y111000D02*
D03*
X115000Y64000D02*
D03*
X76831Y146050D02*
D03*
Y107950D02*
D03*
X28000Y36000D02*
D03*
X9000Y26000D02*
D03*
X531134Y178000D02*
D03*
X217684Y456453D02*
D03*
X206827Y497776D02*
D03*
X212427Y451432D02*
D03*
X214097Y497776D02*
D03*
X187309Y438308D02*
D03*
X220211Y512211D02*
D03*
X192449Y443449D02*
D03*
X230270Y515000D02*
D03*
X248551Y423449D02*
D03*
X76251Y361950D02*
D03*
X253692Y418308D02*
D03*
X76831Y349250D02*
D03*
X275270Y162000D02*
D03*
X428650Y322200D02*
D03*
X76831Y323850D02*
D03*
X268000Y162000D02*
D03*
X433650Y313200D02*
D03*
X76831Y311150D02*
D03*
X255600Y156193D02*
D03*
X12730Y34000D02*
D03*
X248330Y156193D02*
D03*
X20369Y34427D02*
D03*
X158939Y85876D02*
D03*
X346535Y48235D02*
D03*
X165716Y83243D02*
D03*
X339265Y48235D02*
D03*
X195585Y191000D02*
D03*
X369303Y123989D02*
D03*
X188315Y191000D02*
D03*
X362000Y124000D02*
D03*
X198668Y175727D02*
D03*
X351697Y124010D02*
D03*
X205937Y175879D02*
D03*
X344395Y124021D02*
D03*
X336680Y232674D02*
D03*
X116534Y139208D02*
D03*
X347000Y161270D02*
D03*
X117052Y122998D02*
D03*
X326694Y229984D02*
D03*
X347000Y154000D02*
D03*
X117897Y79374D02*
D03*
X119204Y99442D02*
D03*
X290000Y208000D02*
D03*
X297000D02*
D03*
X290000Y201000D02*
D03*
X297000D02*
D03*
X404096Y168192D02*
D03*
X411367Y160922D02*
D03*
X404096D02*
D03*
X411367Y168192D02*
D03*
X582953Y285750D02*
D03*
X438000Y105000D02*
D03*
X588991Y277100D02*
D03*
X286000Y517000D02*
D03*
X413881Y393898D02*
D03*
X536567Y268475D02*
D03*
X538800Y228864D02*
D03*
X582953Y273050D02*
D03*
X437431Y34800D02*
D03*
X538000Y409000D02*
D03*
X582953Y260350D02*
D03*
X431124Y356693D02*
D03*
X588000Y250000D02*
D03*
X582267Y245529D02*
D03*
X561900Y466200D02*
D03*
X582953Y234950D02*
D03*
X396000Y425000D02*
D03*
X451608Y365490D02*
D03*
X400000Y408000D02*
D03*
X582953Y222250D02*
D03*
X397000Y467000D02*
D03*
X582953Y196850D02*
D03*
X390400Y402200D02*
D03*
X290840Y443520D02*
D03*
X583145Y171600D02*
D03*
Y158900D02*
D03*
Y146200D02*
D03*
Y133500D02*
D03*
X679121Y328636D02*
D03*
X679415Y262995D02*
D03*
X679537Y196420D02*
D03*
X679772Y130650D02*
D03*
X444432Y243872D02*
D03*
X671800Y90864D02*
D03*
X460497Y291450D02*
D03*
X429000Y299000D02*
D03*
X430150Y81730D02*
D03*
Y89000D02*
D03*
X422880D02*
D03*
Y81730D02*
D03*
X378000Y337000D02*
D03*
X349635Y318855D02*
D03*
X309029Y294476D02*
D03*
X290029Y232029D02*
D03*
X386867Y174778D02*
D03*
X88976Y460995D02*
D03*
X86964Y468348D02*
D03*
X584130Y107950D02*
D03*
Y120650D02*
D03*
X312263Y241265D02*
D03*
X473763D02*
D03*
X306821Y260926D02*
D03*
X473831Y259921D02*
D03*
X586000Y71193D02*
D03*
X261875Y401875D02*
D03*
X225590Y78176D02*
D03*
X225889Y92036D02*
D03*
X415240Y188082D02*
D03*
X381323Y180323D02*
D03*
X370962Y190683D02*
D03*
X425830Y189901D02*
D03*
X393201Y110300D02*
D03*
X391987Y192658D02*
D03*
X393000Y97980D02*
D03*
X386000Y105000D02*
D03*
X265926Y394579D02*
D03*
X273581Y285066D02*
D03*
X378000Y103000D02*
D03*
X282513Y251353D02*
D03*
X410029Y321700D02*
D03*
X329029Y302450D02*
D03*
X355410Y336455D02*
D03*
X526000Y184000D02*
D03*
X434104Y253399D02*
D03*
X452656Y227208D02*
D03*
X407704Y201170D02*
D03*
X507800Y204864D02*
D03*
X632800Y118864D02*
D03*
X638737Y191868D02*
D03*
X638734Y312930D02*
D03*
Y322930D02*
D03*
X507800Y212864D02*
D03*
Y196864D02*
D03*
X493800Y207864D02*
D03*
Y215864D02*
D03*
X493800Y223864D02*
D03*
X322029Y329400D02*
D03*
X371279Y213950D02*
D03*
X381279Y213950D02*
D03*
X391279Y213950D02*
D03*
X401279Y213950D02*
D03*
X417855Y317659D02*
D03*
X383779Y292393D02*
D03*
M02*
