G04*
G04 #@! TF.GenerationSoftware,Altium Limited,Altium Designer,26.1.1 (7)*
G04*
G04 Layer_Physical_Order=2*
G04 Layer_Color=36540*
%FSLAX44Y44*%
%MOMM*%
G71*
G04*
G04 #@! TF.SameCoordinates,92A7BCAF-68E7-4111-A48F-47A069CEA177*
G04*
G04*
G04 #@! TF.FilePolarity,Positive*
G04*
G01*
G75*
%ADD48C,1.7000*%
%ADD49C,0.6000*%
G36*
X308341Y530341D02*
Y458259D01*
X305707D01*
X304536Y458026D01*
X302331Y457113D01*
X301338Y456449D01*
X299651Y454762D01*
X298988Y453769D01*
X298074Y451564D01*
X297841Y450393D01*
Y448007D01*
X297996Y447230D01*
X298026Y447076D01*
X296103Y446493D01*
X296092Y446520D01*
X295927Y446918D01*
X294239Y448606D01*
X292034Y449520D01*
X289647D01*
X287442Y448606D01*
X285754Y446918D01*
X284840Y444713D01*
Y442326D01*
X285754Y440121D01*
X287442Y438433D01*
X289647Y437519D01*
X292034D01*
X294239Y438433D01*
X295927Y440121D01*
X296840Y442326D01*
Y444713D01*
X298688Y445353D01*
X298727Y445261D01*
X298988Y444631D01*
X299651Y443638D01*
X301338Y441951D01*
X302331Y441287D01*
X304536Y440374D01*
X305707Y440141D01*
X308341D01*
Y404200D01*
Y403007D01*
X308574Y401836D01*
X309487Y399631D01*
X310151Y398638D01*
X311838Y396951D01*
X312831Y396287D01*
X315036Y395374D01*
X316206Y395141D01*
X318594D01*
X319764Y395374D01*
X321969Y396287D01*
X322962Y396951D01*
X324649Y398638D01*
X325312Y399631D01*
X325938Y401141D01*
X359862D01*
X360488Y399631D01*
X361151Y398638D01*
X362838Y396951D01*
X363831Y396287D01*
X366036Y395374D01*
X367206Y395141D01*
X369594D01*
X370764Y395374D01*
X372969Y396287D01*
X373962Y396951D01*
X375649Y398638D01*
X376312Y399631D01*
X377226Y401836D01*
X377459Y403007D01*
Y404200D01*
Y440141D01*
X380093D01*
X381264Y440374D01*
X383469Y441287D01*
X384462Y441951D01*
X386149Y443638D01*
X386813Y444631D01*
X387726Y446836D01*
X387959Y448007D01*
Y450393D01*
X387726Y451564D01*
X386813Y453769D01*
X386149Y454762D01*
X384462Y456449D01*
X383469Y457113D01*
X381264Y458026D01*
X380093Y458259D01*
X377459D01*
Y530341D01*
X458341D01*
Y458259D01*
X455706D01*
X454536Y458026D01*
X452331Y457113D01*
X451338Y456449D01*
X449651Y454762D01*
X448988Y453769D01*
X448074Y451564D01*
X447841Y450393D01*
Y448007D01*
X448074Y446836D01*
X448988Y444631D01*
X449651Y443638D01*
X451338Y441951D01*
X452331Y441287D01*
X454536Y440374D01*
X455706Y440141D01*
X458341D01*
Y404200D01*
Y403007D01*
X458574Y401836D01*
X459487Y399631D01*
X460151Y398638D01*
X461838Y396951D01*
X462831Y396287D01*
X465036Y395374D01*
X466207Y395141D01*
X468593D01*
X469764Y395374D01*
X471969Y396287D01*
X472962Y396951D01*
X474649Y398638D01*
X475312Y399631D01*
X475938Y401141D01*
X509862D01*
X510488Y399631D01*
X511151Y398638D01*
X512838Y396951D01*
X513831Y396287D01*
X516036Y395374D01*
X517206Y395141D01*
X519594D01*
X520764Y395374D01*
X522969Y396287D01*
X523962Y396951D01*
X525649Y398638D01*
X526312Y399631D01*
X527226Y401836D01*
X527459Y403007D01*
Y404200D01*
Y440141D01*
X530093D01*
X531264Y440374D01*
X533469Y441287D01*
X534462Y441951D01*
X536149Y443638D01*
X536813Y444631D01*
X537726Y446836D01*
X537959Y448007D01*
Y450393D01*
X537726Y451564D01*
X536813Y453769D01*
X536149Y454762D01*
X534462Y456449D01*
X533469Y457113D01*
X531264Y458026D01*
X530093Y458259D01*
X527459D01*
Y530341D01*
X550000D01*
X550828Y528341D01*
X549966Y527479D01*
X548512Y524961D01*
X547760Y522153D01*
Y521700D01*
X558800D01*
X569840D01*
Y522153D01*
X569088Y524961D01*
X567634Y527479D01*
X566772Y528341D01*
X567600Y530341D01*
X574749D01*
X575578Y528341D01*
X574998Y527761D01*
X573484Y525139D01*
X572700Y522214D01*
Y519186D01*
X573484Y516261D01*
X574998Y513639D01*
X577139Y511498D01*
X579761Y509984D01*
X582686Y509200D01*
X585714D01*
X588639Y509984D01*
X591261Y511498D01*
X593402Y513639D01*
X594916Y516261D01*
X595700Y519186D01*
Y522214D01*
X594916Y525139D01*
X593402Y527761D01*
X592822Y528341D01*
X593651Y530341D01*
X600149D01*
X600978Y528341D01*
X600398Y527761D01*
X598884Y525139D01*
X598100Y522214D01*
Y519186D01*
X598884Y516261D01*
X600398Y513639D01*
X602539Y511498D01*
X605161Y509984D01*
X608086Y509200D01*
X611114D01*
X614039Y509984D01*
X616661Y511498D01*
X618802Y513639D01*
X620316Y516261D01*
X621100Y519186D01*
Y522214D01*
X620316Y525139D01*
X618802Y527761D01*
X618222Y528341D01*
X619050Y530341D01*
X625550D01*
X626378Y528341D01*
X625798Y527761D01*
X624284Y525139D01*
X623500Y522214D01*
Y519186D01*
X624284Y516261D01*
X625798Y513639D01*
X627939Y511498D01*
X630561Y509984D01*
X633486Y509200D01*
X636514D01*
X639439Y509984D01*
X642061Y511498D01*
X644202Y513639D01*
X645716Y516261D01*
X646500Y519186D01*
Y522214D01*
X645716Y525139D01*
X644964Y526443D01*
X646564Y527671D01*
X657342Y516893D01*
Y403860D01*
X657342Y403860D01*
X657574Y402690D01*
X658237Y401697D01*
X658237Y401697D01*
X682741Y377193D01*
Y335796D01*
X680742Y334459D01*
X680314Y334636D01*
X677927D01*
X675722Y333723D01*
X674034Y332035D01*
X673121Y329830D01*
Y327443D01*
X674034Y325238D01*
X675722Y323550D01*
X677927Y322636D01*
X680314D01*
X680742Y322813D01*
X682741Y321477D01*
Y269911D01*
X681078Y268800D01*
X680608Y268995D01*
X678221D01*
X676016Y268082D01*
X674328Y266394D01*
X673415Y264189D01*
Y261802D01*
X674328Y259597D01*
X676016Y257909D01*
X678221Y256995D01*
X680608D01*
X681078Y257190D01*
X682741Y256079D01*
Y203387D01*
X681078Y202276D01*
X680730Y202420D01*
X678343D01*
X676138Y201506D01*
X674450Y199818D01*
X673537Y197613D01*
Y195226D01*
X674450Y193021D01*
X676138Y191333D01*
X678343Y190420D01*
X680730D01*
X681078Y190564D01*
X682741Y189453D01*
Y137715D01*
X681078Y136604D01*
X680966Y136650D01*
X678579D01*
X676374Y135737D01*
X674686Y134049D01*
X673772Y131844D01*
Y129457D01*
X674686Y127252D01*
X676374Y125564D01*
X678579Y124650D01*
X680966D01*
X681078Y124697D01*
X682741Y123586D01*
Y52067D01*
X658237Y27563D01*
X657574Y26570D01*
X657342Y25400D01*
X657342Y25400D01*
Y9316D01*
X657075Y7975D01*
X656551Y6712D01*
X655792Y5575D01*
X654825Y4608D01*
X653688Y3849D01*
X652425Y3325D01*
X651084Y3059D01*
X644451D01*
X643622Y5059D01*
X644202Y5639D01*
X645716Y8261D01*
X646500Y11186D01*
Y14214D01*
X645716Y17139D01*
X644202Y19761D01*
X642061Y21902D01*
X639439Y23416D01*
X636514Y24200D01*
X633486D01*
X630561Y23416D01*
X627939Y21902D01*
X625798Y19761D01*
X624284Y17139D01*
X623500Y14214D01*
Y11186D01*
X624284Y8261D01*
X625798Y5639D01*
X626378Y5059D01*
X625550Y3059D01*
X619050D01*
X618222Y5059D01*
X618802Y5639D01*
X620316Y8261D01*
X621100Y11186D01*
Y14214D01*
X620316Y17139D01*
X618802Y19761D01*
X616661Y21902D01*
X614039Y23416D01*
X611114Y24200D01*
X608086D01*
X605161Y23416D01*
X602539Y21902D01*
X600398Y19761D01*
X598884Y17139D01*
X598100Y14214D01*
Y11186D01*
X598884Y8261D01*
X600398Y5639D01*
X600978Y5059D01*
X600149Y3059D01*
X593651D01*
X592822Y5059D01*
X593402Y5639D01*
X594916Y8261D01*
X595700Y11186D01*
Y14214D01*
X594916Y17139D01*
X593402Y19761D01*
X591261Y21902D01*
X588639Y23416D01*
X585714Y24200D01*
X582686D01*
X579761Y23416D01*
X577139Y21902D01*
X574998Y19761D01*
X573484Y17139D01*
X572700Y14214D01*
Y11186D01*
X573484Y8261D01*
X574998Y5639D01*
X575578Y5059D01*
X574749Y3059D01*
X567600D01*
X566772Y5059D01*
X567634Y5921D01*
X569088Y8439D01*
X569840Y11247D01*
Y11700D01*
X558800D01*
X547760D01*
Y11247D01*
X548512Y8439D01*
X549966Y5921D01*
X550828Y5059D01*
X550000Y3059D01*
X527459D01*
Y75141D01*
X530093D01*
X531264Y75374D01*
X533469Y76287D01*
X534462Y76951D01*
X536149Y78638D01*
X536812Y79631D01*
X537726Y81836D01*
X537959Y83006D01*
Y85393D01*
X537726Y86564D01*
X536812Y88769D01*
X536149Y89762D01*
X534462Y91449D01*
X533469Y92112D01*
X531264Y93026D01*
X530093Y93259D01*
X527459D01*
Y129200D01*
Y130393D01*
X527226Y131564D01*
X526312Y133769D01*
X525649Y134762D01*
X523961Y136449D01*
X522969Y137113D01*
X520764Y138026D01*
X519593Y138259D01*
X517206D01*
X516036Y138026D01*
X513831Y137113D01*
X512838Y136449D01*
X511151Y134762D01*
X510488Y133769D01*
X509862Y132259D01*
X475938D01*
X475312Y133769D01*
X474649Y134762D01*
X472962Y136449D01*
X471969Y137113D01*
X469764Y138026D01*
X468593Y138259D01*
X466207D01*
X465036Y138026D01*
X462831Y137113D01*
X461838Y136449D01*
X460150Y134762D01*
X459487Y133769D01*
X458574Y131564D01*
X458341Y130393D01*
Y129200D01*
Y93259D01*
X455706D01*
X454536Y93026D01*
X452331Y92112D01*
X451338Y91449D01*
X449650Y89762D01*
X448988Y88769D01*
X448074Y86564D01*
X447841Y85393D01*
Y83006D01*
X448074Y81836D01*
X448988Y79631D01*
X449650Y78638D01*
X451338Y76950D01*
X452331Y76287D01*
X454536Y75374D01*
X455706Y75141D01*
X458341D01*
Y3059D01*
X9316D01*
X7976Y3325D01*
X6712Y3849D01*
X5575Y4608D01*
X4608Y5575D01*
X3849Y6712D01*
X3325Y7975D01*
X3059Y9316D01*
Y10000D01*
Y523400D01*
X3059Y524084D01*
X3325Y525425D01*
X3849Y526688D01*
X4608Y527825D01*
X5575Y528792D01*
X6712Y529551D01*
X7975Y530075D01*
X9316Y530341D01*
X10000D01*
X308341Y530341D01*
D02*
G37*
%LPC*%
G36*
X231464Y521000D02*
X229076D01*
X226871Y520087D01*
X225183Y518399D01*
X224828Y517540D01*
X223610Y517297D01*
X221404Y518211D01*
X219017D01*
X216812Y517297D01*
X215124Y515610D01*
X214211Y513404D01*
Y511017D01*
X215124Y508812D01*
X216812Y507124D01*
X219017Y506211D01*
X221404D01*
X223610Y507124D01*
X225297Y508812D01*
X225653Y509671D01*
X226871Y509913D01*
X229076Y509000D01*
X231464D01*
X233669Y509913D01*
X235357Y511601D01*
X236270Y513806D01*
Y516194D01*
X235357Y518399D01*
X233669Y520087D01*
X231464Y521000D01*
D02*
G37*
G36*
X287194Y523000D02*
X284806D01*
X282601Y522087D01*
X280914Y520399D01*
X280000Y518194D01*
Y515807D01*
X280914Y513601D01*
X282601Y511913D01*
X284806Y511000D01*
X287194D01*
X289399Y511913D01*
X291087Y513601D01*
X292000Y515807D01*
Y518194D01*
X291087Y520399D01*
X289399Y522087D01*
X287194Y523000D01*
D02*
G37*
G36*
X569840Y519700D02*
X559800D01*
Y509660D01*
X560253D01*
X563061Y510412D01*
X565579Y511866D01*
X567634Y513921D01*
X569088Y516439D01*
X569840Y519247D01*
Y519700D01*
D02*
G37*
G36*
X557800D02*
X547760D01*
Y519247D01*
X548512Y516439D01*
X549966Y513921D01*
X552021Y511866D01*
X554539Y510412D01*
X557347Y509660D01*
X557800D01*
Y519700D01*
D02*
G37*
G36*
X215291Y503776D02*
X212904D01*
X210699Y502862D01*
X210462Y502626D01*
X210226Y502862D01*
X208021Y503776D01*
X205634D01*
X203428Y502862D01*
X201741Y501175D01*
X200827Y498969D01*
Y496582D01*
X201741Y494377D01*
X203428Y492689D01*
X205634Y491776D01*
X208021D01*
X210226Y492689D01*
X210462Y492925D01*
X210699Y492689D01*
X212904Y491776D01*
X215291D01*
X217496Y492689D01*
X219184Y494377D01*
X220097Y496582D01*
Y498969D01*
X219184Y501175D01*
X217496Y502862D01*
X215291Y503776D01*
D02*
G37*
G36*
X398194Y473000D02*
X395807D01*
X393601Y472087D01*
X391913Y470399D01*
X391000Y468194D01*
Y465807D01*
X391913Y463601D01*
X393601Y461913D01*
X395807Y461000D01*
X398194D01*
X400399Y461913D01*
X402086Y463601D01*
X403000Y465807D01*
Y468194D01*
X402086Y470399D01*
X400399Y472087D01*
X398194Y473000D01*
D02*
G37*
G36*
X563093Y472200D02*
X560706D01*
X558501Y471287D01*
X556813Y469599D01*
X555900Y467393D01*
Y465007D01*
X556813Y462801D01*
X558501Y461114D01*
X560706Y460200D01*
X563093D01*
X565299Y461114D01*
X566987Y462801D01*
X567900Y465007D01*
Y467393D01*
X566987Y469599D01*
X565299Y471287D01*
X563093Y472200D01*
D02*
G37*
G36*
X621812Y467357D02*
X619425D01*
X617220Y466443D01*
X615532Y464756D01*
X614619Y462550D01*
Y460163D01*
X615532Y457958D01*
X617220Y456270D01*
X619425Y455357D01*
X621812D01*
X624018Y456270D01*
X625705Y457958D01*
X626619Y460163D01*
Y462550D01*
X625705Y464756D01*
X624018Y466443D01*
X621812Y467357D01*
D02*
G37*
G36*
X88158Y474348D02*
X85771D01*
X83565Y473434D01*
X81878Y471746D01*
X80964Y469541D01*
Y467154D01*
X81878Y464949D01*
X83463Y463363D01*
X82977Y462188D01*
Y459802D01*
X83890Y457596D01*
X85578Y455909D01*
X87783Y454995D01*
X90170D01*
X92375Y455909D01*
X94063Y457596D01*
X94976Y459802D01*
Y462188D01*
X94063Y464394D01*
X92478Y465979D01*
X92964Y467154D01*
Y469541D01*
X92051Y471746D01*
X90363Y473434D01*
X88158Y474348D01*
D02*
G37*
G36*
X549758Y464395D02*
X547371D01*
X545166Y463481D01*
X543478Y461794D01*
X542565Y459589D01*
Y457201D01*
X543478Y454996D01*
X545166Y453308D01*
X547371Y452395D01*
X549758D01*
X551963Y453308D01*
X553651Y454996D01*
X554565Y457201D01*
Y459589D01*
X553651Y461794D01*
X551963Y463481D01*
X549758Y464395D01*
D02*
G37*
G36*
X218878Y462453D02*
X216491D01*
X214285Y461540D01*
X212598Y459852D01*
X211684Y457647D01*
Y457432D01*
X211233D01*
X209028Y456519D01*
X207340Y454831D01*
X206427Y452626D01*
Y450239D01*
X207340Y448033D01*
X209028Y446346D01*
X211233Y445432D01*
X213620D01*
X215825Y446346D01*
X217513Y448033D01*
X218427Y450239D01*
Y450453D01*
X218878D01*
X221083Y451367D01*
X222771Y453055D01*
X223684Y455260D01*
Y457647D01*
X222771Y459852D01*
X221083Y461540D01*
X218878Y462453D01*
D02*
G37*
G36*
X117888Y449770D02*
X115792D01*
X113855Y448967D01*
X112372Y447485D01*
X111570Y445548D01*
Y443451D01*
X112372Y441514D01*
X113855Y440032D01*
X115792Y439230D01*
X117888D01*
X119825Y440032D01*
X121308Y441514D01*
X122110Y443451D01*
Y445548D01*
X121308Y447485D01*
X119825Y448967D01*
X117888Y449770D01*
D02*
G37*
G36*
X193643Y449449D02*
X191256D01*
X189051Y448536D01*
X187363Y446848D01*
X186449Y444643D01*
Y444309D01*
X186115D01*
X183910Y443395D01*
X182222Y441707D01*
X181309Y439502D01*
Y437115D01*
X182222Y434910D01*
X183910Y433222D01*
X186115Y432309D01*
X188502D01*
X190707Y433222D01*
X192395Y434910D01*
X193309Y437115D01*
Y437449D01*
X193643D01*
X195848Y438363D01*
X197536Y440051D01*
X198449Y442256D01*
Y444643D01*
X197536Y446848D01*
X195848Y448536D01*
X193643Y449449D01*
D02*
G37*
G36*
X397193Y431000D02*
X394807D01*
X392601Y430087D01*
X390913Y428399D01*
X390000Y426194D01*
Y423806D01*
X390913Y421601D01*
X392601Y419913D01*
X394807Y419000D01*
X397193D01*
X399399Y419913D01*
X401087Y421601D01*
X402000Y423806D01*
Y426194D01*
X401087Y428399D01*
X399399Y430087D01*
X397193Y431000D01*
D02*
G37*
G36*
X249744Y429449D02*
X247357D01*
X245152Y428536D01*
X243464Y426848D01*
X242551Y424643D01*
Y422256D01*
X243464Y420051D01*
X245152Y418363D01*
X247357Y417449D01*
X247691D01*
Y417115D01*
X248605Y414910D01*
X250293Y413222D01*
X252498Y412309D01*
X254885D01*
X257090Y413222D01*
X258778Y414910D01*
X259692Y417115D01*
Y419502D01*
X258778Y421707D01*
X257090Y423395D01*
X254885Y424309D01*
X254551D01*
Y424643D01*
X253637Y426848D01*
X251950Y428536D01*
X249744Y429449D01*
D02*
G37*
G36*
X401194Y414000D02*
X398806D01*
X396601Y413087D01*
X394913Y411399D01*
X394000Y409193D01*
X392000Y408032D01*
X391594Y408200D01*
X389207D01*
X387001Y407287D01*
X385313Y405599D01*
X384400Y403394D01*
Y401007D01*
X385313Y398801D01*
X387001Y397113D01*
X389207Y396200D01*
X391594D01*
X393799Y397113D01*
X395487Y398801D01*
X396400Y401007D01*
X398400Y402168D01*
X398806Y402000D01*
X401194D01*
X403399Y402913D01*
X405087Y404601D01*
X406000Y406806D01*
Y409193D01*
X405087Y411399D01*
X403399Y413087D01*
X401194Y414000D01*
D02*
G37*
G36*
X263069Y407875D02*
X260682D01*
X258477Y406962D01*
X256789Y405274D01*
X255875Y403069D01*
Y400682D01*
X256789Y398477D01*
X258477Y396789D01*
X260073Y396128D01*
X259925Y395772D01*
Y393385D01*
X260839Y391180D01*
X262527Y389492D01*
X264732Y388579D01*
X267119D01*
X269324Y389492D01*
X271012Y391180D01*
X271925Y393385D01*
Y395772D01*
X271012Y397977D01*
X269324Y399665D01*
X267728Y400326D01*
X267875Y400682D01*
Y403069D01*
X266962Y405274D01*
X265274Y406962D01*
X263069Y407875D01*
D02*
G37*
G36*
X415075Y399898D02*
X412688D01*
X410482Y398984D01*
X408795Y397297D01*
X407881Y395091D01*
Y392704D01*
X408795Y390499D01*
X410482Y388811D01*
X412688Y387898D01*
X415075D01*
X417280Y388811D01*
X418968Y390499D01*
X419881Y392704D01*
Y395091D01*
X418968Y397297D01*
X417280Y398984D01*
X415075Y399898D01*
D02*
G37*
G36*
X586518Y449770D02*
X584422D01*
X582485Y448967D01*
X581002Y447485D01*
X580200Y445548D01*
Y443451D01*
X581002Y441514D01*
X582485Y440032D01*
X582598Y439985D01*
X582913Y438399D01*
X582000Y436194D01*
Y433806D01*
X582913Y431601D01*
X583650Y430864D01*
X582138Y429352D01*
X581224Y427146D01*
Y424759D01*
X582138Y422554D01*
X583825Y420866D01*
X584263Y420685D01*
Y418520D01*
X583825Y418339D01*
X582138Y416652D01*
X581224Y414446D01*
Y412059D01*
X582138Y409854D01*
X583825Y408166D01*
X584263Y407985D01*
Y405821D01*
X583825Y405639D01*
X582138Y403952D01*
X581224Y401746D01*
Y399359D01*
X582138Y397154D01*
X583825Y395466D01*
X584263Y395285D01*
Y393120D01*
X583825Y392939D01*
X582138Y391252D01*
X581224Y389046D01*
Y386659D01*
X582138Y384454D01*
X583825Y382766D01*
X586031Y381853D01*
X588418D01*
X590623Y382766D01*
X592311Y384454D01*
X593224Y386659D01*
Y389046D01*
X592311Y391252D01*
X590623Y392939D01*
X590186Y393120D01*
Y395285D01*
X590623Y395466D01*
X592311Y397154D01*
X593224Y399359D01*
Y401746D01*
X592311Y403952D01*
X590623Y405639D01*
X590186Y405821D01*
Y407985D01*
X590623Y408166D01*
X592311Y409854D01*
X593224Y412059D01*
Y414446D01*
X592311Y416652D01*
X590623Y418339D01*
X590186Y418520D01*
Y420685D01*
X590623Y420866D01*
X592311Y422554D01*
X593224Y424759D01*
Y427146D01*
X592311Y429352D01*
X591574Y430089D01*
X593087Y431601D01*
X594000Y433806D01*
Y436194D01*
X593087Y438399D01*
X591399Y440087D01*
X591204Y440167D01*
X590412Y442660D01*
X590740Y443451D01*
Y445548D01*
X589938Y447485D01*
X588455Y448967D01*
X586518Y449770D01*
D02*
G37*
G36*
X452801Y371490D02*
X450414D01*
X448209Y370576D01*
X446521Y368888D01*
X445608Y366683D01*
Y364296D01*
X446521Y362091D01*
X448209Y360403D01*
X450414Y359490D01*
X452801D01*
X455006Y360403D01*
X456694Y362091D01*
X457608Y364296D01*
Y366683D01*
X456694Y368888D01*
X455006Y370576D01*
X452801Y371490D01*
D02*
G37*
G36*
X432318Y362693D02*
X429931D01*
X427726Y361780D01*
X426038Y360092D01*
X425124Y357887D01*
Y355500D01*
X426038Y353295D01*
X427726Y351607D01*
X429931Y350694D01*
X432318D01*
X434523Y351607D01*
X436211Y353295D01*
X437124Y355500D01*
Y357887D01*
X436211Y360092D01*
X434523Y361780D01*
X432318Y362693D01*
D02*
G37*
G36*
X77444Y367950D02*
X75057D01*
X72852Y367037D01*
X71164Y365349D01*
X70251Y363144D01*
Y360756D01*
X71164Y358551D01*
X72852Y356863D01*
X73580Y356562D01*
Y354397D01*
X73432Y354336D01*
X71744Y352648D01*
X70831Y350443D01*
Y348056D01*
X71744Y345851D01*
X73432Y344163D01*
X75637Y343250D01*
X78024D01*
X80229Y344163D01*
X81917Y345851D01*
X82831Y348056D01*
Y350443D01*
X81917Y352648D01*
X80229Y354336D01*
X79502Y354637D01*
Y356802D01*
X79650Y356863D01*
X81337Y358551D01*
X82251Y360756D01*
Y363144D01*
X81337Y365349D01*
X79650Y367037D01*
X77444Y367950D01*
D02*
G37*
G36*
X379193Y343000D02*
X376806D01*
X374601Y342087D01*
X372914Y340399D01*
X372000Y338194D01*
Y335807D01*
X372914Y333601D01*
X374601Y331913D01*
X376806Y331000D01*
X379193D01*
X381399Y331913D01*
X383087Y333601D01*
X384000Y335807D01*
Y338194D01*
X383087Y340399D01*
X381399Y342087D01*
X379193Y343000D01*
D02*
G37*
G36*
X356603Y342455D02*
X354216D01*
X352011Y341542D01*
X350323Y339854D01*
X349410Y337649D01*
Y335262D01*
X350323Y333056D01*
X352011Y331368D01*
X354216Y330455D01*
X356603D01*
X358809Y331368D01*
X360496Y333056D01*
X361410Y335262D01*
Y337649D01*
X360496Y339854D01*
X358809Y341542D01*
X356603Y342455D01*
D02*
G37*
G36*
X323222Y335400D02*
X320835D01*
X318630Y334487D01*
X316942Y332799D01*
X316029Y330593D01*
Y328206D01*
X316942Y326001D01*
X318630Y324313D01*
X320835Y323400D01*
X323222D01*
X325427Y324313D01*
X327115Y326001D01*
X328028Y328206D01*
Y330593D01*
X327115Y332799D01*
X325427Y334487D01*
X323222Y335400D01*
D02*
G37*
G36*
X429843Y328200D02*
X427457D01*
X425251Y327287D01*
X423563Y325599D01*
X422879Y323948D01*
X421938Y323252D01*
X420650Y322995D01*
X419048Y323659D01*
X416661D01*
X415851Y323323D01*
X415115Y325099D01*
X413427Y326786D01*
X411222Y327700D01*
X408835D01*
X406630Y326786D01*
X404942Y325099D01*
X404029Y322893D01*
Y320507D01*
X404942Y318301D01*
X406630Y316613D01*
X408835Y315700D01*
X411222D01*
X412033Y316036D01*
X412768Y314260D01*
X414456Y312572D01*
X416661Y311659D01*
X419048D01*
X421253Y312572D01*
X422941Y314260D01*
X423625Y315911D01*
X424557Y316600D01*
X426506Y316463D01*
X427650Y314394D01*
Y312006D01*
X428563Y309801D01*
X430251Y308113D01*
X432457Y307200D01*
X434843D01*
X437049Y308113D01*
X438737Y309801D01*
X439650Y312006D01*
Y314394D01*
X438737Y316599D01*
X437049Y318287D01*
X435887Y318768D01*
X434650Y321007D01*
Y323394D01*
X433736Y325599D01*
X432049Y327287D01*
X429843Y328200D01*
D02*
G37*
G36*
X350828Y324855D02*
X348441D01*
X346236Y323941D01*
X344548Y322253D01*
X343635Y320048D01*
Y317661D01*
X344548Y315456D01*
X346236Y313768D01*
X348441Y312855D01*
X350828D01*
X353033Y313768D01*
X354721Y315456D01*
X355635Y317661D01*
Y320048D01*
X354721Y322253D01*
X353033Y323941D01*
X350828Y324855D01*
D02*
G37*
G36*
X78024Y329850D02*
X75637D01*
X73432Y328936D01*
X71744Y327248D01*
X70831Y325043D01*
Y322656D01*
X71744Y320451D01*
X73432Y318763D01*
X73869Y318582D01*
Y316417D01*
X73432Y316236D01*
X71744Y314548D01*
X70831Y312343D01*
Y309956D01*
X71744Y307751D01*
X73432Y306063D01*
X75637Y305150D01*
X78024D01*
X80229Y306063D01*
X81917Y307751D01*
X82831Y309956D01*
Y312343D01*
X81917Y314548D01*
X80229Y316236D01*
X79792Y316417D01*
Y318582D01*
X80229Y318763D01*
X81917Y320451D01*
X82831Y322656D01*
Y325043D01*
X81917Y327248D01*
X80229Y328936D01*
X78024Y329850D01*
D02*
G37*
G36*
X547193Y444000D02*
X544807D01*
X542601Y443087D01*
X540913Y441399D01*
X540000Y439193D01*
Y436806D01*
X540913Y434601D01*
X542412Y433103D01*
X542564Y432250D01*
X542483Y430798D01*
X541083Y429399D01*
X540170Y427193D01*
Y424807D01*
X541083Y422601D01*
X541448Y422237D01*
X541058Y420275D01*
X540601Y420087D01*
X538913Y418399D01*
X538000Y416194D01*
Y415000D01*
X536806D01*
X534601Y414086D01*
X532913Y412399D01*
X532000Y410193D01*
Y407807D01*
X532913Y405601D01*
X534601Y403913D01*
X536806Y403000D01*
X538583D01*
X539783Y401679D01*
X540000Y401193D01*
Y398806D01*
X540913Y396601D01*
X542601Y394913D01*
X543400Y394582D01*
Y392418D01*
X542601Y392086D01*
X540913Y390399D01*
X540000Y388194D01*
Y385807D01*
X540913Y383601D01*
X542362Y382152D01*
X542496Y381000D01*
X542362Y379848D01*
X540913Y378399D01*
X540000Y376194D01*
Y373806D01*
X540913Y371601D01*
X542601Y369913D01*
X543400Y369582D01*
Y367418D01*
X542601Y367087D01*
X540913Y365399D01*
X540000Y363194D01*
Y360807D01*
X540913Y358601D01*
X542601Y356913D01*
X543038Y356732D01*
Y354568D01*
X542601Y354387D01*
X540913Y352699D01*
X540000Y350494D01*
Y348107D01*
X540913Y345901D01*
X542601Y344213D01*
X543038Y344032D01*
Y341868D01*
X542601Y341687D01*
X540913Y339999D01*
X540000Y337794D01*
Y335407D01*
X540913Y333201D01*
X542601Y331513D01*
X543038Y331332D01*
Y329168D01*
X542601Y328987D01*
X540913Y327299D01*
X540000Y325093D01*
Y322707D01*
X540913Y320501D01*
X542601Y318813D01*
X543280Y318532D01*
Y316368D01*
X542601Y316087D01*
X540913Y314399D01*
X540000Y312194D01*
Y309806D01*
X540913Y307601D01*
X542601Y305913D01*
X544807Y305000D01*
X547193D01*
X549399Y305913D01*
X551087Y307601D01*
X552000Y309806D01*
Y312194D01*
X551087Y314399D01*
X549399Y316087D01*
X548720Y316368D01*
Y318532D01*
X549399Y318813D01*
X551087Y320501D01*
X552000Y322707D01*
Y325093D01*
X551087Y327299D01*
X549399Y328987D01*
X548962Y329168D01*
Y331332D01*
X549399Y331513D01*
X551087Y333201D01*
X552000Y335407D01*
Y337794D01*
X551087Y339999D01*
X549399Y341687D01*
X548962Y341868D01*
Y344032D01*
X549399Y344213D01*
X551087Y345901D01*
X552000Y348107D01*
Y350494D01*
X551087Y352699D01*
X549399Y354387D01*
X548962Y354568D01*
Y356732D01*
X549399Y356913D01*
X551087Y358601D01*
X552000Y360807D01*
Y363194D01*
X551087Y365399D01*
X549399Y367087D01*
X548600Y367418D01*
Y369582D01*
X549399Y369913D01*
X551087Y371601D01*
X552000Y373806D01*
Y376194D01*
X551087Y378399D01*
X549638Y379848D01*
X549504Y381000D01*
X549638Y382152D01*
X551087Y383601D01*
X552000Y385807D01*
Y388194D01*
X551087Y390399D01*
X549399Y392086D01*
X548600Y392418D01*
Y394582D01*
X549399Y394913D01*
X551087Y396601D01*
X552000Y398806D01*
Y401194D01*
X551087Y403399D01*
X549399Y405087D01*
X547193Y406000D01*
X546065D01*
X544674Y407692D01*
X544821Y408307D01*
X545356Y409067D01*
X547399Y409913D01*
X549087Y411601D01*
X550000Y413806D01*
Y416194D01*
X549087Y418399D01*
X548722Y418763D01*
X549113Y420724D01*
X549569Y420914D01*
X551257Y422601D01*
X552170Y424807D01*
Y427193D01*
X551257Y429399D01*
X549758Y430897D01*
X549606Y431750D01*
X549688Y433202D01*
X551087Y434601D01*
X552000Y436806D01*
Y439193D01*
X551087Y441399D01*
X549399Y443087D01*
X547193Y444000D01*
D02*
G37*
G36*
X627193Y378000D02*
X624807D01*
X622601Y377086D01*
X620913Y375399D01*
X620000Y373194D01*
Y370807D01*
X620913Y368601D01*
X622515Y367000D01*
X620913Y365399D01*
X620000Y363194D01*
Y360807D01*
X620913Y358601D01*
X622601Y356913D01*
X623038Y356732D01*
Y354568D01*
X622601Y354387D01*
X620913Y352699D01*
X620000Y350494D01*
Y348107D01*
X620913Y345901D01*
X622601Y344213D01*
X623038Y344032D01*
Y341868D01*
X622601Y341687D01*
X620913Y339999D01*
X620000Y337794D01*
Y335407D01*
X620913Y333201D01*
X622601Y331513D01*
X623038Y331332D01*
Y329168D01*
X622601Y328987D01*
X620913Y327299D01*
X620000Y325093D01*
Y322707D01*
X620913Y320501D01*
X621817Y319598D01*
X620850Y318631D01*
X619936Y316426D01*
Y314039D01*
X620850Y311833D01*
X622308Y310375D01*
X621298Y309364D01*
X620384Y307159D01*
Y304772D01*
X621298Y302567D01*
X621588Y302276D01*
X620474Y301162D01*
X619561Y298957D01*
Y296570D01*
X620474Y294365D01*
X622162Y292677D01*
X624367Y291763D01*
X626754D01*
X628959Y292677D01*
X630647Y294365D01*
X631561Y296570D01*
Y298957D01*
X631065Y300152D01*
X631419Y300570D01*
X633733Y300209D01*
X634014Y299531D01*
X635701Y297843D01*
X637907Y296930D01*
X640294D01*
X642499Y297843D01*
X644187Y299531D01*
X645100Y301737D01*
Y304123D01*
X644187Y306329D01*
X642499Y308016D01*
X642467Y308177D01*
X643821Y309531D01*
X644734Y311737D01*
Y314123D01*
X643821Y316329D01*
X642219Y317930D01*
X643821Y319531D01*
X644734Y321736D01*
Y324123D01*
X643821Y326329D01*
X642133Y328017D01*
X639928Y328930D01*
X637541D01*
X635336Y328017D01*
X633648Y326329D01*
X631486Y326335D01*
X631087Y327299D01*
X629399Y328987D01*
X628962Y329168D01*
Y331332D01*
X629399Y331513D01*
X631087Y333201D01*
X632000Y335407D01*
Y337794D01*
X631087Y339999D01*
X629399Y341687D01*
X628962Y341868D01*
Y344032D01*
X629399Y344213D01*
X631087Y345901D01*
X632000Y348107D01*
Y350494D01*
X631087Y352699D01*
X629399Y354387D01*
X628962Y354568D01*
Y356732D01*
X629399Y356913D01*
X631087Y358601D01*
X632000Y360807D01*
Y363194D01*
X631087Y365399D01*
X629485Y367000D01*
X631087Y368601D01*
X632000Y370807D01*
Y373194D01*
X631087Y375399D01*
X629399Y377086D01*
X627193Y378000D01*
D02*
G37*
G36*
X330222Y308450D02*
X327835D01*
X325630Y307537D01*
X323942Y305849D01*
X323029Y303643D01*
Y301257D01*
X323942Y299051D01*
X325630Y297363D01*
X327835Y296450D01*
X330222D01*
X332427Y297363D01*
X334115Y299051D01*
X335029Y301257D01*
Y303643D01*
X334115Y305849D01*
X332427Y307537D01*
X330222Y308450D01*
D02*
G37*
G36*
X430193Y305000D02*
X427807D01*
X425601Y304087D01*
X423913Y302399D01*
X423000Y300194D01*
Y297806D01*
X423913Y295601D01*
X425601Y293913D01*
X427807Y293000D01*
X430193D01*
X432399Y293913D01*
X434087Y295601D01*
X435000Y297806D01*
Y300194D01*
X434087Y302399D01*
X432399Y304087D01*
X430193Y305000D01*
D02*
G37*
G36*
X310222Y300476D02*
X307835D01*
X305630Y299562D01*
X303942Y297875D01*
X303029Y295669D01*
Y293282D01*
X303942Y291077D01*
X305630Y289389D01*
X307835Y288476D01*
X310222D01*
X312427Y289389D01*
X314115Y291077D01*
X315029Y293282D01*
Y295669D01*
X314115Y297875D01*
X312427Y299562D01*
X310222Y300476D01*
D02*
G37*
G36*
X384972Y298393D02*
X382585D01*
X380380Y297480D01*
X378692Y295792D01*
X377779Y293587D01*
Y291200D01*
X378692Y288995D01*
X380380Y287307D01*
X382585Y286394D01*
X384972D01*
X387177Y287307D01*
X388865Y288995D01*
X389779Y291200D01*
Y293587D01*
X388865Y295792D01*
X387177Y297480D01*
X384972Y298393D01*
D02*
G37*
G36*
X461690Y297450D02*
X459303D01*
X457098Y296537D01*
X455410Y294849D01*
X454497Y292644D01*
Y290257D01*
X455410Y288051D01*
X457098Y286364D01*
X459303Y285450D01*
X461690D01*
X463895Y286364D01*
X465583Y288051D01*
X466497Y290257D01*
Y292644D01*
X465583Y294849D01*
X463895Y296537D01*
X461690Y297450D01*
D02*
G37*
G36*
X274775Y291066D02*
X272388D01*
X270182Y290153D01*
X268495Y288465D01*
X267581Y286260D01*
Y283873D01*
X268495Y281668D01*
X270182Y279980D01*
X272388Y279066D01*
X274775D01*
X276980Y279980D01*
X278668Y281668D01*
X279581Y283873D01*
Y286260D01*
X278668Y288465D01*
X276980Y290153D01*
X274775Y291066D01*
D02*
G37*
G36*
X625453Y278964D02*
X623066D01*
X620861Y278051D01*
X619173Y276363D01*
X618259Y274158D01*
Y271771D01*
X619173Y269566D01*
X620861Y267878D01*
X623066Y266964D01*
X625453D01*
X627658Y267878D01*
X629346Y269566D01*
X630259Y271771D01*
Y274158D01*
X629346Y276363D01*
X627658Y278051D01*
X625453Y278964D01*
D02*
G37*
G36*
X538093Y286200D02*
X535706D01*
X533501Y285287D01*
X531813Y283599D01*
X530900Y281394D01*
Y279007D01*
X531813Y276801D01*
X532971Y275644D01*
X533123Y274044D01*
X532833Y273225D01*
X531481Y271873D01*
X530567Y269668D01*
Y267281D01*
X531481Y265076D01*
X533168Y263388D01*
X535374Y262475D01*
X537761D01*
X539966Y263388D01*
X541654Y265076D01*
X542567Y267281D01*
Y269668D01*
X541654Y271873D01*
X540496Y273031D01*
X540345Y274631D01*
X540634Y275449D01*
X541987Y276801D01*
X542900Y279007D01*
Y281394D01*
X541987Y283599D01*
X540299Y285287D01*
X538093Y286200D01*
D02*
G37*
G36*
X308015Y266926D02*
X305628D01*
X303423Y266012D01*
X301735Y264325D01*
X300821Y262119D01*
Y259732D01*
X301735Y257527D01*
X303423Y255839D01*
X305628Y254926D01*
X308015D01*
X310220Y255839D01*
X311908Y257527D01*
X312821Y259732D01*
Y262119D01*
X311908Y264325D01*
X310220Y266012D01*
X308015Y266926D01*
D02*
G37*
G36*
X475025Y265921D02*
X472638D01*
X470433Y265007D01*
X468745Y263319D01*
X467831Y261114D01*
Y258727D01*
X468745Y256522D01*
X470433Y254834D01*
X472638Y253921D01*
X475025D01*
X477230Y254834D01*
X478918Y256522D01*
X479832Y258727D01*
Y261114D01*
X478918Y263319D01*
X477230Y265007D01*
X475025Y265921D01*
D02*
G37*
G36*
X435298Y259399D02*
X432911D01*
X430705Y258486D01*
X429018Y256798D01*
X428104Y254593D01*
Y252206D01*
X429018Y250001D01*
X430705Y248313D01*
X432911Y247399D01*
X435298D01*
X437503Y248313D01*
X439191Y250001D01*
X440104Y252206D01*
Y254593D01*
X439191Y256798D01*
X437503Y258486D01*
X435298Y259399D01*
D02*
G37*
G36*
X628094Y258659D02*
X625707D01*
X623502Y257746D01*
X621814Y256058D01*
X620901Y253853D01*
Y251466D01*
X621814Y249260D01*
X623502Y247573D01*
X625707Y246659D01*
X628094D01*
X630299Y247573D01*
X631987Y249260D01*
X632901Y251466D01*
Y253853D01*
X631987Y256058D01*
X630299Y257746D01*
X628094Y258659D01*
D02*
G37*
G36*
X283706Y257353D02*
X281319D01*
X279114Y256439D01*
X277426Y254752D01*
X276513Y252547D01*
Y250159D01*
X277426Y247954D01*
X279114Y246266D01*
X281319Y245353D01*
X283706D01*
X285911Y246266D01*
X287599Y247954D01*
X288513Y250159D01*
Y252547D01*
X287599Y254752D01*
X285911Y256439D01*
X283706Y257353D01*
D02*
G37*
G36*
X445626Y249872D02*
X443239D01*
X441034Y248958D01*
X439346Y247270D01*
X438432Y245065D01*
Y242678D01*
X439346Y240473D01*
X441034Y238785D01*
X443239Y237872D01*
X445626D01*
X447831Y238785D01*
X449519Y240473D01*
X450432Y242678D01*
Y245065D01*
X449519Y247270D01*
X447831Y248958D01*
X445626Y249872D01*
D02*
G37*
G36*
X474957Y247265D02*
X472570D01*
X470364Y246352D01*
X468677Y244664D01*
X467763Y242459D01*
Y240072D01*
X468677Y237867D01*
X470364Y236179D01*
X472570Y235265D01*
X474957D01*
X477162Y236179D01*
X478850Y237867D01*
X479763Y240072D01*
Y242459D01*
X478850Y244664D01*
X477162Y246352D01*
X474957Y247265D01*
D02*
G37*
G36*
X313457D02*
X311070D01*
X308864Y246352D01*
X307177Y244664D01*
X306263Y242459D01*
Y240072D01*
X307177Y237867D01*
X308864Y236179D01*
X311070Y235265D01*
X313457D01*
X315662Y236179D01*
X317350Y237867D01*
X318263Y240072D01*
Y242459D01*
X317350Y244664D01*
X315662Y246352D01*
X313457Y247265D01*
D02*
G37*
G36*
X337873Y238674D02*
X335486D01*
X333281Y237761D01*
X331756Y236236D01*
X330093Y235070D01*
X327888Y235984D01*
X325501D01*
X323295Y235070D01*
X321608Y233383D01*
X320694Y231177D01*
Y228790D01*
X321608Y226585D01*
X323295Y224897D01*
X325501Y223984D01*
X327888D01*
X330093Y224897D01*
X331618Y226423D01*
X333281Y227588D01*
X335486Y226674D01*
X337873D01*
X340079Y227588D01*
X341766Y229275D01*
X342680Y231481D01*
Y233868D01*
X341766Y236073D01*
X340079Y237761D01*
X337873Y238674D01*
D02*
G37*
G36*
X291222Y238029D02*
X288835D01*
X286630Y237115D01*
X284942Y235427D01*
X284029Y233222D01*
Y230835D01*
X284942Y228630D01*
X286630Y226942D01*
X288835Y226029D01*
X291222D01*
X293427Y226942D01*
X295115Y228630D01*
X296029Y230835D01*
Y233222D01*
X295115Y235427D01*
X293427Y237115D01*
X291222Y238029D01*
D02*
G37*
G36*
X640412Y241696D02*
X638025D01*
X635820Y240782D01*
X634132Y239095D01*
X633219Y236889D01*
Y234502D01*
X634132Y232297D01*
X634298Y232131D01*
X633538Y231371D01*
X632625Y229166D01*
Y226779D01*
X632912Y226085D01*
X632314Y225248D01*
X630115Y225397D01*
X630014Y225471D01*
X628399Y227087D01*
X626194Y228000D01*
X623806D01*
X621601Y227087D01*
X619913Y225399D01*
X619000Y223193D01*
Y220807D01*
X619913Y218601D01*
X621362Y217152D01*
X621496Y216000D01*
X621362Y214848D01*
X619913Y213399D01*
X619000Y211194D01*
Y208806D01*
X619913Y206601D01*
X621601Y204914D01*
X621586Y202755D01*
X620966Y202498D01*
X619278Y200810D01*
X618364Y198605D01*
Y196218D01*
X619278Y194013D01*
X620966Y192325D01*
X623079Y191449D01*
X623204Y191099D01*
X623386Y189411D01*
X622601Y189086D01*
X620913Y187399D01*
X620000Y185194D01*
Y182806D01*
X620913Y180601D01*
X622601Y178913D01*
X622901Y178790D01*
Y176625D01*
X621601Y176087D01*
X619913Y174399D01*
X619000Y172194D01*
Y169806D01*
X619913Y167601D01*
X621601Y165913D01*
X621752Y165851D01*
X621914Y165514D01*
X622069Y163555D01*
X620913Y162399D01*
X620000Y160194D01*
Y157807D01*
X620913Y155601D01*
X622601Y153913D01*
X622901Y153790D01*
Y151625D01*
X621601Y151087D01*
X619913Y149399D01*
X619000Y147193D01*
Y144806D01*
X619913Y142601D01*
X621601Y140913D01*
X622651Y140479D01*
X622667Y138528D01*
X621601Y138087D01*
X619913Y136399D01*
X619000Y134193D01*
Y131806D01*
X619913Y129601D01*
X621601Y127913D01*
X622114Y127701D01*
X622074Y127605D01*
Y125264D01*
X620828Y124748D01*
X619140Y123060D01*
X618227Y120855D01*
Y118468D01*
X619140Y116263D01*
X620726Y114676D01*
X620833Y114507D01*
X621001Y112338D01*
X620048Y111385D01*
X619135Y109180D01*
Y106793D01*
X620048Y104588D01*
X621736Y102900D01*
X622753Y102478D01*
Y100314D01*
X622320Y100134D01*
X620632Y98446D01*
X619719Y96241D01*
Y93854D01*
X620632Y91649D01*
X622320Y89961D01*
X624525Y89047D01*
X626912D01*
X629117Y89961D01*
X630805Y91649D01*
X631719Y93854D01*
Y96241D01*
X630805Y98446D01*
X629117Y100134D01*
X628100Y100556D01*
Y102720D01*
X628533Y102900D01*
X630221Y104588D01*
X631135Y106793D01*
Y109180D01*
X630277Y111250D01*
X630510Y111714D01*
X631545Y112889D01*
X631607Y112864D01*
X633994D01*
X636199Y113777D01*
X637887Y115465D01*
X638800Y117670D01*
Y120057D01*
X637887Y122263D01*
X636199Y123951D01*
X635785Y124122D01*
X634074Y125218D01*
Y127605D01*
X633161Y129811D01*
X631473Y131498D01*
X630960Y131711D01*
X631000Y131806D01*
Y134193D01*
X630984Y134233D01*
X632298Y134777D01*
X633985Y136465D01*
X634899Y138671D01*
Y141057D01*
X633985Y143263D01*
X632298Y144951D01*
X631000Y145488D01*
Y147193D01*
X630087Y149399D01*
X628399Y151087D01*
X628100Y151210D01*
Y153375D01*
X629399Y153913D01*
X631087Y155601D01*
X632000Y157807D01*
Y160194D01*
X631087Y162399D01*
X629399Y164087D01*
X629248Y164149D01*
X629086Y164486D01*
X628931Y166445D01*
X630087Y167601D01*
X631000Y169806D01*
Y172194D01*
X630087Y174399D01*
X628399Y176087D01*
X628100Y176210D01*
Y178375D01*
X629399Y178913D01*
X630875Y180390D01*
X631105Y180420D01*
X632023Y180330D01*
X633019Y180041D01*
X633684Y178435D01*
X635372Y176748D01*
X634479Y175028D01*
X634184Y174733D01*
X633271Y172528D01*
Y170141D01*
X634184Y167936D01*
X635872Y166248D01*
X638078Y165334D01*
X640464D01*
X642670Y166248D01*
X644358Y167936D01*
X645271Y170141D01*
Y172528D01*
X644358Y174733D01*
X642670Y176421D01*
X643563Y178141D01*
X643857Y178435D01*
X644771Y180641D01*
Y183028D01*
X643857Y185233D01*
X642223Y186868D01*
X643824Y188469D01*
X644737Y190674D01*
Y193061D01*
X643824Y195267D01*
X642136Y196954D01*
X639931Y197868D01*
X637544D01*
X635339Y196954D01*
X633651Y195267D01*
X632737Y193061D01*
Y190674D01*
X633651Y188469D01*
X635079Y187041D01*
X633853Y185439D01*
X633666Y185414D01*
X632748Y185504D01*
X631752Y185793D01*
X631087Y187399D01*
X629399Y189086D01*
X627285Y189962D01*
X627160Y190312D01*
X626979Y192000D01*
X627763Y192325D01*
X629451Y194013D01*
X630364Y196218D01*
Y198605D01*
X629451Y200810D01*
X627763Y202498D01*
X627778Y204657D01*
X628399Y204914D01*
X630087Y206601D01*
X631000Y208806D01*
Y211194D01*
X630087Y213399D01*
X628638Y214848D01*
X628504Y216000D01*
X628638Y217152D01*
X630087Y218601D01*
X632235Y218561D01*
X632737Y217348D01*
X634425Y215660D01*
X636630Y214747D01*
X639017D01*
X641223Y215660D01*
X642910Y217348D01*
X643824Y219554D01*
Y221940D01*
X643019Y223882D01*
X643711Y224574D01*
X644625Y226779D01*
Y229166D01*
X643711Y231371D01*
X643545Y231537D01*
X644305Y232297D01*
X645219Y234502D01*
Y236889D01*
X644305Y239095D01*
X642617Y240782D01*
X640412Y241696D01*
D02*
G37*
G36*
X540612Y244482D02*
X538225D01*
X536020Y243569D01*
X534332Y241881D01*
X533419Y239676D01*
Y237289D01*
X534212Y235374D01*
X534332Y235084D01*
X534166Y232715D01*
X533714Y232263D01*
X532800Y230057D01*
Y227670D01*
X533714Y225465D01*
X535401Y223777D01*
X537607Y222864D01*
X539994D01*
X542199Y223777D01*
X543887Y225465D01*
X544800Y227670D01*
Y230057D01*
X544007Y231972D01*
X543887Y232263D01*
X544053Y234631D01*
X544505Y235084D01*
X545419Y237289D01*
Y239676D01*
X544505Y241881D01*
X542817Y243569D01*
X540612Y244482D01*
D02*
G37*
G36*
X453850Y233208D02*
X451463D01*
X449258Y232295D01*
X447570Y230607D01*
X446656Y228401D01*
Y226014D01*
X447570Y223809D01*
X449258Y222121D01*
X451463Y221208D01*
X453850D01*
X456055Y222121D01*
X457743Y223809D01*
X458656Y226014D01*
Y228401D01*
X457743Y230607D01*
X456055Y232295D01*
X453850Y233208D01*
D02*
G37*
G36*
X382472Y219950D02*
X380085D01*
X377880Y219037D01*
X376279Y217435D01*
X374677Y219037D01*
X372472Y219950D01*
X370085D01*
X367880Y219037D01*
X366192Y217349D01*
X365279Y215143D01*
Y212757D01*
X366192Y210551D01*
X367880Y208863D01*
X370085Y207950D01*
X372472D01*
X374677Y208863D01*
X376279Y210465D01*
X377880Y208864D01*
X380085Y207950D01*
X382472D01*
X384677Y208864D01*
X386279Y210465D01*
X387880Y208863D01*
X390085Y207950D01*
X392472D01*
X394677Y208863D01*
X396279Y210465D01*
X397880Y208863D01*
X400085Y207950D01*
X402472D01*
X404677Y208863D01*
X406365Y210551D01*
X407279Y212757D01*
Y215144D01*
X406365Y217349D01*
X404677Y219037D01*
X402472Y219950D01*
X400085D01*
X397880Y219037D01*
X396279Y217435D01*
X394677Y219037D01*
X392472Y219950D01*
X390085D01*
X387880Y219037D01*
X386279Y217435D01*
X384677Y219037D01*
X382472Y219950D01*
D02*
G37*
G36*
X584147Y291750D02*
X581760D01*
X579554Y290836D01*
X577867Y289148D01*
X576953Y286943D01*
Y284556D01*
X577867Y282351D01*
X579554Y280663D01*
X579992Y280482D01*
Y278317D01*
X579554Y278136D01*
X577867Y276448D01*
X576953Y274243D01*
Y271856D01*
X577867Y269651D01*
X579554Y267963D01*
X579992Y267782D01*
Y265617D01*
X579554Y265436D01*
X577867Y263748D01*
X576953Y261543D01*
Y259156D01*
X577867Y256951D01*
X579554Y255263D01*
X580693Y254792D01*
X581629Y252662D01*
X581074Y251529D01*
X578869Y250616D01*
X577181Y248928D01*
X576267Y246722D01*
Y244335D01*
X577181Y242130D01*
X578869Y240442D01*
X578110Y238592D01*
X577867Y238348D01*
X576953Y236143D01*
Y233756D01*
X577867Y231551D01*
X579554Y229863D01*
X579992Y229682D01*
Y227517D01*
X579554Y227336D01*
X577867Y225648D01*
X576953Y223443D01*
Y221056D01*
X577867Y218851D01*
X579554Y217163D01*
X581760Y216250D01*
X584147D01*
X586352Y217163D01*
X588040Y218851D01*
X588953Y221056D01*
Y223443D01*
X588040Y225648D01*
X586352Y227336D01*
X585915Y227517D01*
Y229682D01*
X586352Y229863D01*
X588040Y231551D01*
X588953Y233756D01*
Y236143D01*
X588040Y238348D01*
X586352Y240036D01*
X587110Y241887D01*
X587354Y242130D01*
X588128Y244000D01*
X589193D01*
X591399Y244914D01*
X593087Y246601D01*
X594000Y248806D01*
Y251194D01*
X593087Y253399D01*
X591399Y255087D01*
X589580Y255840D01*
X589136Y256160D01*
X588474Y258000D01*
X588953Y259156D01*
Y261543D01*
X588040Y263748D01*
X586352Y265436D01*
X585915Y265617D01*
Y267782D01*
X586352Y267963D01*
X588040Y269651D01*
X588640Y271100D01*
X590184D01*
X592389Y272013D01*
X594077Y273701D01*
X594991Y275906D01*
Y278293D01*
X594077Y280498D01*
X592389Y282186D01*
X590466Y282983D01*
X589259Y284098D01*
X588953Y284556D01*
Y286943D01*
X588040Y289148D01*
X586352Y290836D01*
X584147Y291750D01*
D02*
G37*
G36*
X298193Y214000D02*
X295807D01*
X293601Y213086D01*
X293500Y212985D01*
X293399Y213086D01*
X291194Y214000D01*
X288806D01*
X286601Y213086D01*
X284914Y211399D01*
X284000Y209193D01*
Y206807D01*
X284914Y204601D01*
X285015Y204500D01*
X284914Y204399D01*
X284000Y202194D01*
Y199806D01*
X284914Y197601D01*
X286601Y195914D01*
X288806Y195000D01*
X291194D01*
X293399Y195914D01*
X293500Y196015D01*
X293601Y195914D01*
X295807Y195000D01*
X298193D01*
X300399Y195914D01*
X302087Y197601D01*
X303000Y199806D01*
Y202194D01*
X302087Y204399D01*
X301985Y204500D01*
X302087Y204601D01*
X303000Y206807D01*
Y209193D01*
X302087Y211399D01*
X300399Y213086D01*
X298193Y214000D01*
D02*
G37*
G36*
X494994Y229864D02*
X492607D01*
X490402Y228951D01*
X488714Y227263D01*
X487800Y225057D01*
Y222670D01*
X488714Y220465D01*
X489315Y219864D01*
X488714Y219263D01*
X487800Y217057D01*
Y214671D01*
X488714Y212465D01*
X489315Y211864D01*
X488714Y211263D01*
X487800Y209057D01*
Y206670D01*
X488714Y204465D01*
X490401Y202777D01*
X492607Y201864D01*
X494994D01*
X497199Y202777D01*
X498887Y204465D01*
X499800Y206670D01*
Y209057D01*
X498887Y211263D01*
X498285Y211864D01*
X498887Y212465D01*
X499800Y214671D01*
Y217057D01*
X498887Y219263D01*
X498286Y219864D01*
X498887Y220465D01*
X499800Y222670D01*
Y225057D01*
X498887Y227263D01*
X497199Y228951D01*
X494994Y229864D01*
D02*
G37*
G36*
X196779Y197000D02*
X194392D01*
X192186Y196087D01*
X191950Y195850D01*
X191714Y196087D01*
X189508Y197000D01*
X187122D01*
X184916Y196087D01*
X183228Y194399D01*
X182315Y192194D01*
Y189806D01*
X183228Y187601D01*
X184916Y185913D01*
X187122Y185000D01*
X189508D01*
X191714Y185913D01*
X191950Y186150D01*
X192186Y185913D01*
X194392Y185000D01*
X196779D01*
X198984Y185913D01*
X200672Y187601D01*
X201585Y189806D01*
Y192194D01*
X200672Y194399D01*
X198984Y196087D01*
X196779Y197000D01*
D02*
G37*
G36*
X408898Y207170D02*
X406511D01*
X404306Y206256D01*
X402618Y204568D01*
X401704Y202363D01*
Y199976D01*
X402618Y197771D01*
X404306Y196083D01*
X406511Y195170D01*
X408898D01*
X411103Y196083D01*
X412791Y197771D01*
X413704Y199976D01*
Y202363D01*
X412791Y204568D01*
X411103Y206256D01*
X408898Y207170D01*
D02*
G37*
G36*
X427023Y195901D02*
X424636D01*
X422431Y194988D01*
X420743Y193300D01*
X419278Y193008D01*
X418541Y193209D01*
X416433Y194082D01*
X414046D01*
X411841Y193168D01*
X410153Y191480D01*
X409240Y189275D01*
Y186888D01*
X410153Y184683D01*
X411841Y182995D01*
X414046Y182082D01*
X416433D01*
X418638Y182995D01*
X420326Y184683D01*
X421791Y184974D01*
X422529Y184774D01*
X424636Y183901D01*
X427023D01*
X429228Y184814D01*
X430916Y186502D01*
X431830Y188708D01*
Y191094D01*
X430916Y193300D01*
X429228Y194988D01*
X427023Y195901D01*
D02*
G37*
G36*
X547193Y205000D02*
X544807D01*
X542601Y204087D01*
X540913Y202399D01*
X540000Y200194D01*
Y197806D01*
X540913Y195601D01*
X542601Y193913D01*
X544807Y193000D01*
X547193D01*
X549399Y193913D01*
X551087Y195601D01*
X552000Y197806D01*
Y200194D01*
X551087Y202399D01*
X549399Y204087D01*
X547193Y205000D01*
D02*
G37*
G36*
X508994Y218864D02*
X506607D01*
X504402Y217950D01*
X502714Y216263D01*
X501800Y214057D01*
Y211670D01*
X502714Y209465D01*
X503315Y208864D01*
X502714Y208263D01*
X501800Y206057D01*
Y203671D01*
X502714Y201465D01*
X503315Y200864D01*
X502714Y200263D01*
X501800Y198057D01*
Y195671D01*
X502714Y193465D01*
X504402Y191777D01*
X506607Y190864D01*
X508994D01*
X511199Y191777D01*
X512887Y193465D01*
X513800Y195671D01*
Y198057D01*
X512887Y200263D01*
X512285Y200864D01*
X512887Y201465D01*
X513800Y203671D01*
Y206057D01*
X512887Y208263D01*
X512285Y208864D01*
X512887Y209465D01*
X513800Y211670D01*
Y214057D01*
X512887Y216263D01*
X511199Y217950D01*
X508994Y218864D01*
D02*
G37*
G36*
X584147Y202850D02*
X581760D01*
X579554Y201936D01*
X577867Y200248D01*
X576953Y198043D01*
Y195656D01*
X577867Y193451D01*
X579554Y191763D01*
X581760Y190850D01*
X584147D01*
X586352Y191763D01*
X588040Y193451D01*
X588953Y195656D01*
Y198043D01*
X588040Y200248D01*
X586352Y201936D01*
X584147Y202850D01*
D02*
G37*
G36*
X393180Y198658D02*
X390793D01*
X388588Y197745D01*
X386900Y196057D01*
X385987Y193852D01*
Y191465D01*
X386900Y189260D01*
X388588Y187572D01*
X390793Y186658D01*
X393180D01*
X395386Y187572D01*
X397074Y189260D01*
X397987Y191465D01*
Y193852D01*
X397074Y196057D01*
X395386Y197745D01*
X393180Y198658D01*
D02*
G37*
G36*
X372156Y196683D02*
X369769D01*
X367564Y195769D01*
X365876Y194082D01*
X364962Y191876D01*
Y189489D01*
X365876Y187284D01*
X367564Y185596D01*
X369769Y184683D01*
X372156D01*
X374361Y185596D01*
X376049Y187284D01*
X376962Y189489D01*
Y191876D01*
X376049Y194082D01*
X374361Y195769D01*
X372156Y196683D01*
D02*
G37*
G36*
X207130Y181879D02*
X204743D01*
X202538Y180966D01*
X202226Y180654D01*
X202067Y180814D01*
X199862Y181727D01*
X197475D01*
X195270Y180814D01*
X193582Y179126D01*
X192668Y176921D01*
Y174534D01*
X193582Y172328D01*
X195270Y170641D01*
X197475Y169727D01*
X199862D01*
X202067Y170641D01*
X202378Y170952D01*
X202538Y170793D01*
X204743Y169879D01*
X207130D01*
X209335Y170793D01*
X211023Y172480D01*
X211937Y174686D01*
Y177073D01*
X211023Y179278D01*
X209335Y180966D01*
X207130Y181879D01*
D02*
G37*
G36*
X412560Y174192D02*
X410173D01*
X407968Y173278D01*
X407732Y173042D01*
X407495Y173278D01*
X405290Y174192D01*
X402903D01*
X400698Y173278D01*
X399010Y171591D01*
X398097Y169385D01*
Y166998D01*
X399010Y164793D01*
X399246Y164557D01*
X399010Y164321D01*
X398097Y162115D01*
Y159728D01*
X399010Y157523D01*
X400698Y155835D01*
X402903Y154922D01*
X405290D01*
X407495Y155835D01*
X407732Y156072D01*
X407968Y155835D01*
X410173Y154922D01*
X412560D01*
X414765Y155835D01*
X416453Y157523D01*
X417366Y159728D01*
Y162115D01*
X416453Y164321D01*
X416217Y164557D01*
X416453Y164793D01*
X417366Y166998D01*
Y169385D01*
X416453Y171591D01*
X414765Y173278D01*
X412560Y174192D01*
D02*
G37*
G36*
X382516Y186323D02*
X380129D01*
X377924Y185409D01*
X376236Y183721D01*
X375323Y181516D01*
Y179129D01*
X376236Y176924D01*
X377924Y175236D01*
X380129Y174323D01*
X380867D01*
Y173584D01*
X381781Y171379D01*
X383469Y169691D01*
X385674Y168778D01*
X388061D01*
X390266Y169691D01*
X391954Y171379D01*
X392867Y173584D01*
Y175972D01*
X391954Y178177D01*
X390266Y179865D01*
X388061Y180778D01*
X387323D01*
Y181516D01*
X386409Y183721D01*
X384721Y185409D01*
X382516Y186323D01*
D02*
G37*
G36*
X276464Y168000D02*
X274076D01*
X271871Y167087D01*
X271635Y166850D01*
X271399Y167087D01*
X269193Y168000D01*
X266807D01*
X264601Y167087D01*
X262913Y165399D01*
X262000Y163193D01*
Y161107D01*
X261189Y160508D01*
X260152Y160126D01*
X258999Y161280D01*
X256793Y162193D01*
X254407D01*
X252201Y161280D01*
X251965Y161044D01*
X251729Y161280D01*
X249524Y162193D01*
X247136D01*
X244931Y161280D01*
X243243Y159592D01*
X242330Y157387D01*
Y155000D01*
X243243Y152795D01*
X244931Y151107D01*
X247136Y150193D01*
X249524D01*
X251729Y151107D01*
X251965Y151343D01*
X252201Y151107D01*
X254407Y150193D01*
X256793D01*
X258999Y151107D01*
X260686Y152795D01*
X261600Y155000D01*
Y157086D01*
X262411Y157685D01*
X263448Y158067D01*
X264601Y156913D01*
X266807Y156000D01*
X269193D01*
X271399Y156913D01*
X271635Y157150D01*
X271871Y156913D01*
X274076Y156000D01*
X276464D01*
X278669Y156913D01*
X280357Y158601D01*
X281270Y160807D01*
Y163193D01*
X280357Y165399D01*
X278669Y167087D01*
X276464Y168000D01*
D02*
G37*
G36*
X520781Y194587D02*
X518394D01*
X516189Y193674D01*
X514501Y191986D01*
X513587Y189781D01*
Y187394D01*
X514501Y185189D01*
X516189Y183501D01*
X518394Y182588D01*
X520091D01*
X520913Y180601D01*
X522601Y178913D01*
X523758Y178434D01*
X523711Y176289D01*
X523287Y176134D01*
X522672D01*
X520467Y175221D01*
X518779Y173533D01*
X517943Y171515D01*
X517057D01*
X514851Y170602D01*
X513164Y168914D01*
X512250Y166709D01*
Y164321D01*
X513164Y162116D01*
X514851Y160429D01*
X517057Y159515D01*
X519444D01*
X521649Y160429D01*
X523337Y162116D01*
X524173Y164134D01*
X525059D01*
X527264Y165048D01*
X527433Y165216D01*
X527736Y164913D01*
X529941Y164000D01*
X532328D01*
X534533Y164913D01*
X536221Y166601D01*
X537134Y168806D01*
Y171194D01*
X536221Y173399D01*
X535620Y174000D01*
X536221Y174601D01*
X537134Y176807D01*
Y179193D01*
X536221Y181399D01*
X534533Y183087D01*
X532328Y184000D01*
X532000D01*
Y185194D01*
X531087Y187399D01*
X529399Y189086D01*
X527193Y190000D01*
X525497D01*
X524674Y191986D01*
X522986Y193674D01*
X520781Y194587D01*
D02*
G37*
G36*
X348194Y167270D02*
X345807D01*
X343601Y166357D01*
X341913Y164669D01*
X341000Y162463D01*
Y160077D01*
X341913Y157871D01*
X342150Y157635D01*
X341913Y157399D01*
X341000Y155194D01*
Y152807D01*
X341913Y150601D01*
X343601Y148913D01*
X345807Y148000D01*
X348194D01*
X350399Y148913D01*
X352087Y150601D01*
X353000Y152807D01*
Y155194D01*
X352087Y157399D01*
X351850Y157635D01*
X352087Y157871D01*
X353000Y160077D01*
Y162463D01*
X352087Y164669D01*
X350399Y166357D01*
X348194Y167270D01*
D02*
G37*
G36*
X117728Y145208D02*
X115341D01*
X113135Y144294D01*
X111448Y142606D01*
X110534Y140401D01*
Y138014D01*
X111448Y135809D01*
X113135Y134121D01*
X115341Y133208D01*
X117728D01*
X119933Y134121D01*
X121621Y135809D01*
X122534Y138014D01*
Y140401D01*
X121621Y142606D01*
X119933Y144294D01*
X117728Y145208D01*
D02*
G37*
G36*
X345588Y130021D02*
X343201D01*
X340996Y129108D01*
X339308Y127420D01*
X338395Y125215D01*
Y122828D01*
X339308Y120622D01*
X340996Y118934D01*
X343201Y118021D01*
X345588D01*
X347794Y118934D01*
X348041Y119182D01*
X348299Y118924D01*
X350504Y118011D01*
X352891D01*
X355096Y118924D01*
X355537Y119365D01*
X356854Y120548D01*
X358150Y119365D01*
X358601Y118913D01*
X360807Y118000D01*
X363194D01*
X365399Y118913D01*
X365646Y119161D01*
X365904Y118903D01*
X368109Y117990D01*
X370496D01*
X372701Y118903D01*
X374389Y120591D01*
X375303Y122796D01*
Y125183D01*
X374389Y127388D01*
X372701Y129076D01*
X370496Y129990D01*
X368109D01*
X365904Y129076D01*
X365657Y128829D01*
X365399Y129087D01*
X363194Y130000D01*
X360807D01*
X358601Y129087D01*
X358161Y128646D01*
X356843Y127463D01*
X355547Y128646D01*
X355096Y129097D01*
X352891Y130010D01*
X350504D01*
X348299Y129097D01*
X348051Y128850D01*
X347794Y129108D01*
X345588Y130021D01*
D02*
G37*
G36*
X118245Y128998D02*
X115858D01*
X113653Y128084D01*
X111965Y126396D01*
X111052Y124191D01*
Y121804D01*
X111965Y119599D01*
X113653Y117911D01*
X115858Y116998D01*
X118245D01*
X120450Y117911D01*
X122138Y119599D01*
X123052Y121804D01*
Y124191D01*
X122138Y126396D01*
X120450Y128084D01*
X118245Y128998D01*
D02*
G37*
G36*
X394394Y116300D02*
X392007D01*
X389802Y115387D01*
X388114Y113699D01*
X387201Y111494D01*
X385210Y111000D01*
X384807D01*
X382601Y110087D01*
X380914Y108399D01*
X380874Y108304D01*
X379193Y109000D01*
X376806D01*
X374601Y108087D01*
X372914Y106399D01*
X372000Y104193D01*
Y101806D01*
X372914Y99601D01*
X374601Y97913D01*
X376806Y97000D01*
X379193D01*
X381399Y97913D01*
X383087Y99601D01*
X383126Y99696D01*
X384807Y99000D01*
X387000D01*
Y96786D01*
X387913Y94581D01*
X389601Y92893D01*
X391806Y91980D01*
X394193D01*
X396399Y92893D01*
X398087Y94581D01*
X399000Y96786D01*
Y99173D01*
X398087Y101379D01*
X396399Y103067D01*
X396521Y105181D01*
X396599Y105213D01*
X398287Y106901D01*
X399201Y109107D01*
Y111494D01*
X398287Y113699D01*
X396599Y115387D01*
X394394Y116300D01*
D02*
G37*
G36*
X584339Y177600D02*
X581952D01*
X579746Y176687D01*
X578059Y174999D01*
X577145Y172794D01*
Y170406D01*
X578059Y168201D01*
X579746Y166514D01*
X580183Y166332D01*
Y164168D01*
X579746Y163987D01*
X578059Y162299D01*
X577145Y160093D01*
Y157706D01*
X578059Y155501D01*
X579746Y153813D01*
X580183Y153632D01*
Y151468D01*
X579746Y151287D01*
X578059Y149599D01*
X577145Y147394D01*
Y145007D01*
X578059Y142801D01*
X579746Y141114D01*
X580183Y140932D01*
Y138768D01*
X579746Y138587D01*
X578059Y136899D01*
X577145Y134693D01*
Y132306D01*
X578059Y130101D01*
X579746Y128413D01*
X580857Y127954D01*
Y125789D01*
X580731Y125737D01*
X579043Y124049D01*
X578130Y121844D01*
Y119457D01*
X579043Y117251D01*
X580731Y115563D01*
X581168Y115382D01*
Y113218D01*
X580731Y113037D01*
X579043Y111349D01*
X578130Y109143D01*
Y106756D01*
X579043Y104551D01*
X580731Y102863D01*
X582936Y101950D01*
X585323D01*
X587528Y102863D01*
X589216Y104551D01*
X590130Y106756D01*
Y109143D01*
X589216Y111349D01*
X587528Y113037D01*
X587091Y113218D01*
Y115382D01*
X587528Y115563D01*
X589216Y117251D01*
X590130Y119457D01*
Y121844D01*
X589216Y124049D01*
X587528Y125737D01*
X586418Y126196D01*
Y128361D01*
X586544Y128413D01*
X588232Y130101D01*
X589145Y132306D01*
Y134693D01*
X588232Y136899D01*
X586544Y138587D01*
X586107Y138768D01*
Y140932D01*
X586544Y141114D01*
X588232Y142801D01*
X589145Y145007D01*
Y147394D01*
X588232Y149599D01*
X586544Y151287D01*
X586107Y151468D01*
Y153632D01*
X586544Y153813D01*
X588232Y155501D01*
X589145Y157706D01*
Y160093D01*
X588232Y162299D01*
X586544Y163987D01*
X586107Y164168D01*
Y166332D01*
X586544Y166514D01*
X588232Y168201D01*
X589145Y170406D01*
Y172794D01*
X588232Y174999D01*
X586544Y176687D01*
X584339Y177600D01*
D02*
G37*
G36*
X439193Y111000D02*
X436806D01*
X434601Y110086D01*
X432913Y108399D01*
X432000Y106194D01*
Y103806D01*
X432913Y101601D01*
X434601Y99913D01*
X436806Y99000D01*
X439193D01*
X441399Y99913D01*
X443087Y101601D01*
X444000Y103806D01*
Y106194D01*
X443087Y108399D01*
X441399Y110086D01*
X439193Y111000D01*
D02*
G37*
G36*
X431343Y95000D02*
X428956D01*
X426751Y94087D01*
X426515Y93850D01*
X426279Y94087D01*
X424073Y95000D01*
X421687D01*
X419481Y94087D01*
X417793Y92399D01*
X416880Y90193D01*
Y87807D01*
X417793Y85601D01*
X418030Y85365D01*
X417793Y85129D01*
X416880Y82923D01*
Y80536D01*
X417793Y78331D01*
X419481Y76643D01*
X421687Y75730D01*
X424073D01*
X426279Y76643D01*
X426515Y76880D01*
X426751Y76643D01*
X428956Y75730D01*
X431343D01*
X433549Y76643D01*
X435237Y78331D01*
X436150Y80536D01*
Y82923D01*
X435237Y85129D01*
X435000Y85365D01*
X435237Y85601D01*
X436150Y87807D01*
Y90193D01*
X435237Y92399D01*
X433549Y94087D01*
X431343Y95000D01*
D02*
G37*
G36*
X672994Y96864D02*
X670607D01*
X668401Y95950D01*
X666714Y94263D01*
X665800Y92057D01*
Y89670D01*
X666714Y87465D01*
X668401Y85777D01*
X670607Y84864D01*
X672994D01*
X675199Y85777D01*
X676887Y87465D01*
X677800Y89670D01*
Y92057D01*
X676887Y94263D01*
X675199Y95950D01*
X672994Y96864D01*
D02*
G37*
G36*
X586518Y94170D02*
X584422D01*
X582485Y93367D01*
X581002Y91885D01*
X580200Y89948D01*
Y87851D01*
X581002Y85914D01*
X582485Y84432D01*
X584422Y83630D01*
X586518D01*
X588455Y84432D01*
X589938Y85914D01*
X590740Y87851D01*
Y89948D01*
X589938Y91885D01*
X588455Y93367D01*
X586518Y94170D01*
D02*
G37*
G36*
X650529Y102613D02*
X648142D01*
X645937Y101700D01*
X644249Y100012D01*
X643336Y97807D01*
Y95420D01*
X644249Y93215D01*
X645937Y91527D01*
X647680Y90805D01*
X648186Y90476D01*
X648772Y88613D01*
X648341Y87574D01*
Y85187D01*
X649255Y82982D01*
X650943Y81294D01*
X653148Y80381D01*
X655535D01*
X657740Y81294D01*
X659428Y82982D01*
X660341Y85187D01*
Y87574D01*
X659428Y89780D01*
X657740Y91467D01*
X655997Y92189D01*
X655491Y92519D01*
X654905Y94381D01*
X655336Y95420D01*
Y97807D01*
X654422Y100012D01*
X652734Y101700D01*
X650529Y102613D01*
D02*
G37*
G36*
X160133Y91875D02*
X157746D01*
X155540Y90962D01*
X153853Y89274D01*
X152939Y87069D01*
Y84682D01*
X153853Y82477D01*
X155540Y80789D01*
X157746Y79875D01*
X160133D01*
X160545Y80047D01*
X160629Y79844D01*
X162317Y78156D01*
X164522Y77243D01*
X166909D01*
X169114Y78156D01*
X170802Y79844D01*
X171716Y82049D01*
Y84436D01*
X170802Y86642D01*
X169114Y88329D01*
X166909Y89243D01*
X164522D01*
X164109Y89072D01*
X164026Y89274D01*
X162338Y90962D01*
X160133Y91875D01*
D02*
G37*
G36*
X78193Y100700D02*
X75806D01*
X73601Y99787D01*
X71913Y98099D01*
X71000Y95893D01*
Y93506D01*
X71913Y91301D01*
X73601Y89613D01*
X74038Y89432D01*
Y87268D01*
X73601Y87086D01*
X71913Y85399D01*
X71000Y83194D01*
Y80807D01*
X71913Y78601D01*
X73601Y76913D01*
X75806Y76000D01*
X78193D01*
X80399Y76913D01*
X82087Y78601D01*
X83000Y80807D01*
Y83194D01*
X82087Y85399D01*
X80399Y87086D01*
X79962Y87268D01*
Y89432D01*
X80399Y89613D01*
X82087Y91301D01*
X83000Y93506D01*
Y95893D01*
X82087Y98099D01*
X80399Y99787D01*
X78193Y100700D01*
D02*
G37*
G36*
X120398Y105442D02*
X118011D01*
X115806Y104528D01*
X114118Y102840D01*
X113204Y100635D01*
Y98248D01*
X114118Y96043D01*
X114402Y95759D01*
X113933Y93399D01*
X113855Y93367D01*
X112372Y91885D01*
X111570Y89948D01*
Y87851D01*
X112372Y85914D01*
X113855Y84432D01*
X113957Y83919D01*
X112810Y82773D01*
X111897Y80567D01*
Y78180D01*
X112810Y75975D01*
X114498Y74287D01*
X116703Y73374D01*
X119090D01*
X121296Y74287D01*
X122983Y75975D01*
X123897Y78180D01*
Y80567D01*
X122983Y82773D01*
X121296Y84460D01*
X121557Y86517D01*
X122110Y87851D01*
Y89948D01*
X121389Y91688D01*
X121344Y92010D01*
X121940Y94081D01*
X122603Y94355D01*
X124291Y96043D01*
X125204Y98248D01*
Y100635D01*
X124291Y102840D01*
X122603Y104528D01*
X120398Y105442D01*
D02*
G37*
G36*
X227082Y98036D02*
X224695D01*
X222490Y97122D01*
X220802Y95435D01*
X219889Y93229D01*
Y90842D01*
X220802Y88637D01*
X222490Y86949D01*
X224695Y86036D01*
X224397Y84176D01*
X222192Y83262D01*
X220504Y81574D01*
X219590Y79369D01*
Y76982D01*
X220504Y74777D01*
X222192Y73089D01*
X224397Y72176D01*
X226784D01*
X228989Y73089D01*
X230677Y74777D01*
X231590Y76982D01*
Y79369D01*
X230677Y81574D01*
X228989Y83262D01*
X226784Y84176D01*
X227082Y86036D01*
X229288Y86949D01*
X230975Y88637D01*
X231889Y90842D01*
Y93229D01*
X230975Y95435D01*
X229288Y97122D01*
X227082Y98036D01*
D02*
G37*
G36*
X628164Y79310D02*
X625777D01*
X623571Y78396D01*
X621884Y76708D01*
X620970Y74503D01*
Y72116D01*
X621884Y69911D01*
X623571Y68223D01*
X625777Y67309D01*
X628164D01*
X630369Y68223D01*
X632057Y69911D01*
X632970Y72116D01*
Y74503D01*
X632057Y76708D01*
X630369Y78396D01*
X628164Y79310D01*
D02*
G37*
G36*
X587193Y77193D02*
X584807D01*
X582601Y76280D01*
X580914Y74592D01*
X580000Y72387D01*
Y70000D01*
X580914Y67795D01*
X582601Y66107D01*
X584807Y65194D01*
X587193D01*
X589399Y66107D01*
X591087Y67795D01*
X592000Y70000D01*
Y72387D01*
X591087Y74592D01*
X589399Y76280D01*
X587193Y77193D01*
D02*
G37*
G36*
X347728Y54235D02*
X345341D01*
X343136Y53321D01*
X342900Y53085D01*
X342664Y53321D01*
X340458Y54235D01*
X338072D01*
X335866Y53321D01*
X334178Y51633D01*
X333265Y49428D01*
Y47041D01*
X334178Y44836D01*
X335866Y43148D01*
X338072Y42235D01*
X340458D01*
X342664Y43148D01*
X342900Y43384D01*
X343136Y43148D01*
X345341Y42235D01*
X347728D01*
X349934Y43148D01*
X351622Y44836D01*
X352535Y47041D01*
Y49428D01*
X351622Y51633D01*
X349934Y53321D01*
X347728Y54235D01*
D02*
G37*
G36*
X629509Y58833D02*
X627122D01*
X624917Y57920D01*
X623229Y56232D01*
X622315Y54026D01*
Y51639D01*
X623229Y49434D01*
X624917Y47746D01*
X627122Y46833D01*
X629509D01*
X631714Y47746D01*
X633402Y49434D01*
X634315Y51639D01*
Y54026D01*
X633402Y56232D01*
X631714Y57920D01*
X629509Y58833D01*
D02*
G37*
G36*
X21562Y40427D02*
X19176D01*
X16970Y39514D01*
X16336Y38879D01*
X16129Y39087D01*
X13923Y40000D01*
X11537D01*
X9331Y39087D01*
X7643Y37399D01*
X6730Y35194D01*
Y32806D01*
X7643Y30601D01*
X9331Y28914D01*
X11537Y28000D01*
X13923D01*
X16129Y28914D01*
X16763Y29548D01*
X16970Y29341D01*
X19176Y28427D01*
X21562D01*
X23768Y29341D01*
X25456Y31028D01*
X26369Y33233D01*
Y35621D01*
X25456Y37826D01*
X23768Y39514D01*
X21562Y40427D01*
D02*
G37*
G36*
X438624Y40800D02*
X436237D01*
X434032Y39887D01*
X432344Y38199D01*
X431431Y35993D01*
Y33607D01*
X432344Y31401D01*
X434032Y29713D01*
X436237Y28800D01*
X438624D01*
X440830Y29713D01*
X442517Y31401D01*
X443431Y33607D01*
Y35993D01*
X442517Y38199D01*
X440830Y39887D01*
X438624Y40800D01*
D02*
G37*
G36*
X560253Y23740D02*
X559800D01*
Y13700D01*
X569840D01*
Y14153D01*
X569088Y16961D01*
X567634Y19479D01*
X565579Y21534D01*
X563061Y22988D01*
X560253Y23740D01*
D02*
G37*
G36*
X557800D02*
X557347D01*
X554539Y22988D01*
X552021Y21534D01*
X549966Y19479D01*
X548512Y16961D01*
X547760Y14153D01*
Y13700D01*
X557800D01*
Y23740D01*
D02*
G37*
%LPD*%
D48*
X558800Y520700D02*
D03*
Y12700D02*
D03*
D49*
X545000Y298000D02*
D03*
X530250Y198745D02*
D03*
X625368Y284914D02*
D03*
X626900Y260419D02*
D03*
X626780Y238608D02*
D03*
X591650Y465200D02*
D03*
X591644Y474852D02*
D03*
X538000Y380050D02*
D03*
X465000Y366000D02*
D03*
X480529Y319050D02*
D03*
X470528Y319050D02*
D03*
X588991Y264400D02*
D03*
X504059Y242941D02*
D03*
X462740Y241411D02*
D03*
X405650Y484150D02*
D03*
Y442150D02*
D03*
X405020Y393700D02*
D03*
X414600Y348310D02*
D03*
X460528Y319050D02*
D03*
X384902Y316992D02*
D03*
X364279Y337450D02*
D03*
X319029Y319050D02*
D03*
X309029Y319050D02*
D03*
X299029Y319050D02*
D03*
X412900Y293700D02*
D03*
X386279Y266700D02*
D03*
X343328Y311255D02*
D03*
X301240Y241411D02*
D03*
X582953Y209550D02*
D03*
X583145Y184300D02*
D03*
X583191Y97989D02*
D03*
X428431Y39800D02*
D03*
X376605Y123979D02*
D03*
X425000Y105000D02*
D03*
X362000Y80000D02*
D03*
X347000Y146730D02*
D03*
Y168540D02*
D03*
X357000Y118000D02*
D03*
X350000Y79000D02*
D03*
X420431Y69800D02*
D03*
X340070Y76250D02*
D03*
X337092Y124031D02*
D03*
X385000Y44000D02*
D03*
X353800D02*
D03*
X332000D02*
D03*
X325000Y29000D02*
D03*
X266000Y527000D02*
D03*
X237000Y520000D02*
D03*
X221366Y497933D02*
D03*
X213695Y508986D02*
D03*
X214400Y481400D02*
D03*
X199557Y497776D02*
D03*
X199070Y483000D02*
D03*
X170000Y482000D02*
D03*
X184341Y481400D02*
D03*
X239000Y470000D02*
D03*
X240591Y423598D02*
D03*
X225000Y458000D02*
D03*
X287650Y415200D02*
D03*
X270150D02*
D03*
X255818Y411178D02*
D03*
X265000Y387000D02*
D03*
X208347Y445229D02*
D03*
X200000Y445000D02*
D03*
X189007Y430499D02*
D03*
X155850Y336550D02*
D03*
Y374650D02*
D03*
Y298450D02*
D03*
X148000Y482000D02*
D03*
X104000Y459000D02*
D03*
X116840Y457200D02*
D03*
X117000Y413000D02*
D03*
X76831Y374650D02*
D03*
Y336550D02*
D03*
Y298450D02*
D03*
X282540Y162000D02*
D03*
X213605Y175152D02*
D03*
X262870Y156167D02*
D03*
X241060Y156193D02*
D03*
X202900Y191000D02*
D03*
X181000D02*
D03*
X191000Y175000D02*
D03*
X214420Y75600D02*
D03*
X199979Y75897D02*
D03*
X155850Y260350D02*
D03*
X169775Y76194D02*
D03*
X154000Y75000D02*
D03*
X252000Y47000D02*
D03*
X119122Y222023D02*
D03*
X119020Y180299D02*
D03*
Y150000D02*
D03*
X76831Y222250D02*
D03*
Y260350D02*
D03*
X78000Y184000D02*
D03*
X118000Y111000D02*
D03*
X115000Y64000D02*
D03*
X76831Y146050D02*
D03*
Y107950D02*
D03*
X28000Y36000D02*
D03*
X9000Y26000D02*
D03*
M02*
