G04*
G04 #@! TF.GenerationSoftware,Altium Limited,Altium Designer,26.1.1 (7)*
G04*
G04 Layer_Color=2752767*
%FSLAX44Y44*%
%MOMM*%
G71*
G04*
G04 #@! TF.SameCoordinates,92A7BCAF-68E7-4111-A48F-47A069CEA177*
G04*
G04*
G04 #@! TF.FilePolarity,Positive*
G04*
G01*
G75*
%ADD74C,0.0508*%
%ADD75C,0.0677*%
D74*
X556768Y518668D02*
Y522732D01*
X560832D01*
Y518668D01*
X556768D01*
Y10668D02*
Y14732D01*
X560832D01*
Y10668D01*
X556768D01*
X582168D02*
Y14732D01*
X586232D01*
Y10668D01*
X582168D01*
X632968D02*
Y14732D01*
X637032D01*
Y10668D01*
X632968D01*
X607568D02*
Y14732D01*
X611632D01*
Y10668D01*
X607568D01*
X582168Y518668D02*
Y522732D01*
X586232D01*
Y518668D01*
X582168D01*
X607568D02*
Y522732D01*
X611632D01*
Y518668D01*
X607568D01*
X632968D02*
Y522732D01*
X637032D01*
Y518668D01*
X632968D01*
X585470Y86868D02*
X583438Y90932D01*
X587502D01*
X585470Y86868D01*
Y442468D02*
X583438Y446532D01*
X587502D01*
X585470Y442468D01*
X116840Y86868D02*
X114808Y90932D01*
X118872D01*
X116840Y86868D01*
Y442468D02*
X114808Y446532D01*
X118872D01*
X116840Y442468D01*
D75*
X629002Y73309D02*
G03*
X629002Y73309I-2032J0D01*
G01*
X550597Y458395D02*
G03*
X550597Y458395I-2032J0D01*
G01*
X640657Y227973D02*
G03*
X640657Y227973I-2032J0D01*
G01*
X639856Y220747D02*
G03*
X639856Y220747I-2032J0D01*
G01*
X520282Y165515D02*
G03*
X520282Y165515I-2032J0D01*
G01*
X525898Y170134D02*
G03*
X525898Y170134I-2032J0D01*
G01*
X533166Y170000D02*
G03*
X533166Y170000I-2032J0D01*
G01*
X547032Y298000D02*
G03*
X547032Y298000I-2032J0D01*
G01*
X538932Y280200D02*
G03*
X538932Y280200I-2032J0D01*
G01*
X532282Y198745D02*
G03*
X532282Y198745I-2032J0D01*
G01*
X521619Y188587D02*
G03*
X521619Y188587I-2032J0D01*
G01*
X548032Y199000D02*
G03*
X548032Y199000I-2032J0D01*
G01*
X541451Y238482D02*
G03*
X541451Y238482I-2032J0D01*
G01*
X548032Y311000D02*
G03*
X548032Y311000I-2032J0D01*
G01*
Y323900D02*
G03*
X548032Y323900I-2032J0D01*
G01*
Y336600D02*
G03*
X548032Y336600I-2032J0D01*
G01*
Y362000D02*
G03*
X548032Y362000I-2032J0D01*
G01*
Y349300D02*
G03*
X548032Y349300I-2032J0D01*
G01*
Y375000D02*
G03*
X548032Y375000I-2032J0D01*
G01*
Y387000D02*
G03*
X548032Y387000I-2032J0D01*
G01*
Y400000D02*
G03*
X548032Y400000I-2032J0D01*
G01*
X546032Y415000D02*
G03*
X546032Y415000I-2032J0D01*
G01*
X548202Y426000D02*
G03*
X548202Y426000I-2032J0D01*
G01*
X548032Y438000D02*
G03*
X548032Y438000I-2032J0D01*
G01*
X589256Y400553D02*
G03*
X589256Y400553I-2032J0D01*
G01*
Y413253D02*
G03*
X589256Y413253I-2032J0D01*
G01*
Y387853D02*
G03*
X589256Y387853I-2032J0D01*
G01*
Y425953D02*
G03*
X589256Y425953I-2032J0D01*
G01*
X590032Y435000D02*
G03*
X590032Y435000I-2032J0D01*
G01*
X622651Y461357D02*
G03*
X622651Y461357I-2032J0D01*
G01*
X628032Y372000D02*
G03*
X628032Y372000I-2032J0D01*
G01*
Y362000D02*
G03*
X628032Y362000I-2032J0D01*
G01*
Y336600D02*
G03*
X628032Y336600I-2032J0D01*
G01*
Y349300D02*
G03*
X628032Y349300I-2032J0D01*
G01*
Y323900D02*
G03*
X628032Y323900I-2032J0D01*
G01*
X627968Y315232D02*
G03*
X627968Y315232I-2032J0D01*
G01*
X628416Y305966D02*
G03*
X628416Y305966I-2032J0D01*
G01*
X641132Y302930D02*
G03*
X641132Y302930I-2032J0D01*
G01*
X627593Y297764D02*
G03*
X627593Y297764I-2032J0D01*
G01*
X627400Y284914D02*
G03*
X627400Y284914I-2032J0D01*
G01*
X626291Y272964D02*
G03*
X626291Y272964I-2032J0D01*
G01*
X628932Y260419D02*
G03*
X628932Y260419I-2032J0D01*
G01*
X628933Y252659D02*
G03*
X628933Y252659I-2032J0D01*
G01*
X628812Y238608D02*
G03*
X628812Y238608I-2032J0D01*
G01*
X641251Y235696D02*
G03*
X641251Y235696I-2032J0D01*
G01*
X627032Y222000D02*
G03*
X627032Y222000I-2032J0D01*
G01*
Y210000D02*
G03*
X627032Y210000I-2032J0D01*
G01*
X626396Y197411D02*
G03*
X626396Y197411I-2032J0D01*
G01*
X628032Y184000D02*
G03*
X628032Y184000I-2032J0D01*
G01*
X640803Y181834D02*
G03*
X640803Y181834I-2032J0D01*
G01*
X627032Y171000D02*
G03*
X627032Y171000I-2032J0D01*
G01*
X641303Y171334D02*
G03*
X641303Y171334I-2032J0D01*
G01*
X628032Y159000D02*
G03*
X628032Y159000I-2032J0D01*
G01*
X627032Y146000D02*
G03*
X627032Y146000I-2032J0D01*
G01*
X630931Y139864D02*
G03*
X630931Y139864I-2032J0D01*
G01*
X627032Y133000D02*
G03*
X627032Y133000I-2032J0D01*
G01*
X630106Y126412D02*
G03*
X630106Y126412I-2032J0D01*
G01*
X626259Y119661D02*
G03*
X626259Y119661I-2032J0D01*
G01*
X627751Y95048D02*
G03*
X627751Y95048I-2032J0D01*
G01*
X627167Y107986D02*
G03*
X627167Y107986I-2032J0D01*
G01*
X651368Y96613D02*
G03*
X651368Y96613I-2032J0D01*
G01*
X656373Y86381D02*
G03*
X656373Y86381I-2032J0D01*
G01*
X630347Y52833D02*
G03*
X630347Y52833I-2032J0D01*
G01*
X79032Y82000D02*
G03*
X79032Y82000I-2032J0D01*
G01*
Y94700D02*
G03*
X79032Y94700I-2032J0D01*
G01*
X593682Y465200D02*
G03*
X593682Y465200I-2032J0D01*
G01*
X593676Y474852D02*
G03*
X593676Y474852I-2032J0D01*
G01*
X540032Y380050D02*
G03*
X540032Y380050I-2032J0D01*
G01*
X467032Y366000D02*
G03*
X467032Y366000I-2032J0D01*
G01*
X482561Y319050D02*
G03*
X482561Y319050I-2032J0D01*
G01*
X472561Y319050D02*
G03*
X472561Y319050I-2032J0D01*
G01*
X591023Y264400D02*
G03*
X591023Y264400I-2032J0D01*
G01*
X506091Y242941D02*
G03*
X506091Y242941I-2032J0D01*
G01*
X464772Y241411D02*
G03*
X464772Y241411I-2032J0D01*
G01*
X407682Y484150D02*
G03*
X407682Y484150I-2032J0D01*
G01*
Y442150D02*
G03*
X407682Y442150I-2032J0D01*
G01*
X407052Y393700D02*
G03*
X407052Y393700I-2032J0D01*
G01*
X416632Y348310D02*
G03*
X416632Y348310I-2032J0D01*
G01*
X462561Y319050D02*
G03*
X462561Y319050I-2032J0D01*
G01*
X386934Y316992D02*
G03*
X386934Y316992I-2032J0D01*
G01*
X366311Y337450D02*
G03*
X366311Y337450I-2032J0D01*
G01*
X321061Y319050D02*
G03*
X321061Y319050I-2032J0D01*
G01*
X311061Y319050D02*
G03*
X311061Y319050I-2032J0D01*
G01*
X301061Y319050D02*
G03*
X301061Y319050I-2032J0D01*
G01*
X414932Y293700D02*
G03*
X414932Y293700I-2032J0D01*
G01*
X388311Y266700D02*
G03*
X388311Y266700I-2032J0D01*
G01*
X345360Y311255D02*
G03*
X345360Y311255I-2032J0D01*
G01*
X303272Y241411D02*
G03*
X303272Y241411I-2032J0D01*
G01*
X584985Y209550D02*
G03*
X584985Y209550I-2032J0D01*
G01*
X585177Y184300D02*
G03*
X585177Y184300I-2032J0D01*
G01*
X585223Y97989D02*
G03*
X585223Y97989I-2032J0D01*
G01*
X430463Y39800D02*
G03*
X430463Y39800I-2032J0D01*
G01*
X378637Y123979D02*
G03*
X378637Y123979I-2032J0D01*
G01*
X427032Y105000D02*
G03*
X427032Y105000I-2032J0D01*
G01*
X364032Y80000D02*
G03*
X364032Y80000I-2032J0D01*
G01*
X349032Y146730D02*
G03*
X349032Y146730I-2032J0D01*
G01*
Y168540D02*
G03*
X349032Y168540I-2032J0D01*
G01*
X359032Y118000D02*
G03*
X359032Y118000I-2032J0D01*
G01*
X352032Y79000D02*
G03*
X352032Y79000I-2032J0D01*
G01*
X422463Y69800D02*
G03*
X422463Y69800I-2032J0D01*
G01*
X342102Y76250D02*
G03*
X342102Y76250I-2032J0D01*
G01*
X339124Y124031D02*
G03*
X339124Y124031I-2032J0D01*
G01*
X387032Y44000D02*
G03*
X387032Y44000I-2032J0D01*
G01*
X355832D02*
G03*
X355832Y44000I-2032J0D01*
G01*
X334032D02*
G03*
X334032Y44000I-2032J0D01*
G01*
X327032Y29000D02*
G03*
X327032Y29000I-2032J0D01*
G01*
X268032Y527000D02*
G03*
X268032Y527000I-2032J0D01*
G01*
X239032Y520000D02*
G03*
X239032Y520000I-2032J0D01*
G01*
X223398Y497933D02*
G03*
X223398Y497933I-2032J0D01*
G01*
X215727Y508986D02*
G03*
X215727Y508986I-2032J0D01*
G01*
X216432Y481400D02*
G03*
X216432Y481400I-2032J0D01*
G01*
X201589Y497776D02*
G03*
X201589Y497776I-2032J0D01*
G01*
X201102Y483000D02*
G03*
X201102Y483000I-2032J0D01*
G01*
X172032Y482000D02*
G03*
X172032Y482000I-2032J0D01*
G01*
X186373Y481400D02*
G03*
X186373Y481400I-2032J0D01*
G01*
X241032Y470000D02*
G03*
X241032Y470000I-2032J0D01*
G01*
X242623Y423598D02*
G03*
X242623Y423598I-2032J0D01*
G01*
X227032Y458000D02*
G03*
X227032Y458000I-2032J0D01*
G01*
X289682Y415200D02*
G03*
X289682Y415200I-2032J0D01*
G01*
X272182D02*
G03*
X272182Y415200I-2032J0D01*
G01*
X257850Y411178D02*
G03*
X257850Y411178I-2032J0D01*
G01*
X267032Y387000D02*
G03*
X267032Y387000I-2032J0D01*
G01*
X210379Y445229D02*
G03*
X210379Y445229I-2032J0D01*
G01*
X202032Y445000D02*
G03*
X202032Y445000I-2032J0D01*
G01*
X191039Y430499D02*
G03*
X191039Y430499I-2032J0D01*
G01*
X157882Y336550D02*
G03*
X157882Y336550I-2032J0D01*
G01*
Y374650D02*
G03*
X157882Y374650I-2032J0D01*
G01*
Y298450D02*
G03*
X157882Y298450I-2032J0D01*
G01*
X150032Y482000D02*
G03*
X150032Y482000I-2032J0D01*
G01*
X106032Y459000D02*
G03*
X106032Y459000I-2032J0D01*
G01*
X118872Y457200D02*
G03*
X118872Y457200I-2032J0D01*
G01*
X119032Y413000D02*
G03*
X119032Y413000I-2032J0D01*
G01*
X78863Y374650D02*
G03*
X78863Y374650I-2032J0D01*
G01*
Y336550D02*
G03*
X78863Y336550I-2032J0D01*
G01*
Y298450D02*
G03*
X78863Y298450I-2032J0D01*
G01*
X284572Y162000D02*
G03*
X284572Y162000I-2032J0D01*
G01*
X215637Y175152D02*
G03*
X215637Y175152I-2032J0D01*
G01*
X264902Y156167D02*
G03*
X264902Y156167I-2032J0D01*
G01*
X243092Y156193D02*
G03*
X243092Y156193I-2032J0D01*
G01*
X204932Y191000D02*
G03*
X204932Y191000I-2032J0D01*
G01*
X183032D02*
G03*
X183032Y191000I-2032J0D01*
G01*
X193032Y175000D02*
G03*
X193032Y175000I-2032J0D01*
G01*
X216452Y75600D02*
G03*
X216452Y75600I-2032J0D01*
G01*
X202011Y75897D02*
G03*
X202011Y75897I-2032J0D01*
G01*
X157882Y260350D02*
G03*
X157882Y260350I-2032J0D01*
G01*
X171807Y76194D02*
G03*
X171807Y76194I-2032J0D01*
G01*
X156032Y75000D02*
G03*
X156032Y75000I-2032J0D01*
G01*
X254032Y47000D02*
G03*
X254032Y47000I-2032J0D01*
G01*
X121154Y222023D02*
G03*
X121154Y222023I-2032J0D01*
G01*
X121052Y180299D02*
G03*
X121052Y180299I-2032J0D01*
G01*
Y150000D02*
G03*
X121052Y150000I-2032J0D01*
G01*
X78863Y222250D02*
G03*
X78863Y222250I-2032J0D01*
G01*
Y260350D02*
G03*
X78863Y260350I-2032J0D01*
G01*
X80032Y184000D02*
G03*
X80032Y184000I-2032J0D01*
G01*
X120032Y111000D02*
G03*
X120032Y111000I-2032J0D01*
G01*
X117032Y64000D02*
G03*
X117032Y64000I-2032J0D01*
G01*
X78863Y146050D02*
G03*
X78863Y146050I-2032J0D01*
G01*
Y107950D02*
G03*
X78863Y107950I-2032J0D01*
G01*
X30032Y36000D02*
G03*
X30032Y36000I-2032J0D01*
G01*
X11032Y26000D02*
G03*
X11032Y26000I-2032J0D01*
G01*
X533166Y178000D02*
G03*
X533166Y178000I-2032J0D01*
G01*
X219716Y456453D02*
G03*
X219716Y456453I-2032J0D01*
G01*
X208859Y497776D02*
G03*
X208859Y497776I-2032J0D01*
G01*
X214459Y451432D02*
G03*
X214459Y451432I-2032J0D01*
G01*
X216129Y497776D02*
G03*
X216129Y497776I-2032J0D01*
G01*
X189341Y438308D02*
G03*
X189341Y438308I-2032J0D01*
G01*
X222243Y512211D02*
G03*
X222243Y512211I-2032J0D01*
G01*
X194481Y443449D02*
G03*
X194481Y443449I-2032J0D01*
G01*
X232302Y515000D02*
G03*
X232302Y515000I-2032J0D01*
G01*
X250583Y423449D02*
G03*
X250583Y423449I-2032J0D01*
G01*
X78283Y361950D02*
G03*
X78283Y361950I-2032J0D01*
G01*
X255723Y418308D02*
G03*
X255723Y418308I-2032J0D01*
G01*
X78863Y349250D02*
G03*
X78863Y349250I-2032J0D01*
G01*
X277302Y162000D02*
G03*
X277302Y162000I-2032J0D01*
G01*
X430682Y322200D02*
G03*
X430682Y322200I-2032J0D01*
G01*
X78863Y323850D02*
G03*
X78863Y323850I-2032J0D01*
G01*
X270032Y162000D02*
G03*
X270032Y162000I-2032J0D01*
G01*
X435682Y313200D02*
G03*
X435682Y313200I-2032J0D01*
G01*
X78863Y311150D02*
G03*
X78863Y311150I-2032J0D01*
G01*
X257632Y156193D02*
G03*
X257632Y156193I-2032J0D01*
G01*
X14762Y34000D02*
G03*
X14762Y34000I-2032J0D01*
G01*
X250362Y156193D02*
G03*
X250362Y156193I-2032J0D01*
G01*
X22401Y34427D02*
G03*
X22401Y34427I-2032J0D01*
G01*
X160971Y85876D02*
G03*
X160971Y85876I-2032J0D01*
G01*
X348567Y48235D02*
G03*
X348567Y48235I-2032J0D01*
G01*
X167748Y83243D02*
G03*
X167748Y83243I-2032J0D01*
G01*
X341297Y48235D02*
G03*
X341297Y48235I-2032J0D01*
G01*
X197617Y191000D02*
G03*
X197617Y191000I-2032J0D01*
G01*
X371335Y123989D02*
G03*
X371335Y123989I-2032J0D01*
G01*
X190347Y191000D02*
G03*
X190347Y191000I-2032J0D01*
G01*
X364032Y124000D02*
G03*
X364032Y124000I-2032J0D01*
G01*
X200700Y175727D02*
G03*
X200700Y175727I-2032J0D01*
G01*
X353729Y124010D02*
G03*
X353729Y124010I-2032J0D01*
G01*
X207969Y175879D02*
G03*
X207969Y175879I-2032J0D01*
G01*
X346427Y124021D02*
G03*
X346427Y124021I-2032J0D01*
G01*
X338712Y232674D02*
G03*
X338712Y232674I-2032J0D01*
G01*
X118566Y139208D02*
G03*
X118566Y139208I-2032J0D01*
G01*
X349032Y161270D02*
G03*
X349032Y161270I-2032J0D01*
G01*
X119084Y122998D02*
G03*
X119084Y122998I-2032J0D01*
G01*
X328726Y229984D02*
G03*
X328726Y229984I-2032J0D01*
G01*
X349032Y154000D02*
G03*
X349032Y154000I-2032J0D01*
G01*
X119929Y79374D02*
G03*
X119929Y79374I-2032J0D01*
G01*
X121236Y99442D02*
G03*
X121236Y99442I-2032J0D01*
G01*
X292032Y208000D02*
G03*
X292032Y208000I-2032J0D01*
G01*
X299032D02*
G03*
X299032Y208000I-2032J0D01*
G01*
X292032Y201000D02*
G03*
X292032Y201000I-2032J0D01*
G01*
X299032D02*
G03*
X299032Y201000I-2032J0D01*
G01*
X406129Y168192D02*
G03*
X406129Y168192I-2032J0D01*
G01*
X413399Y160922D02*
G03*
X413399Y160922I-2032J0D01*
G01*
X406129D02*
G03*
X406129Y160922I-2032J0D01*
G01*
X413399Y168192D02*
G03*
X413399Y168192I-2032J0D01*
G01*
X584985Y285750D02*
G03*
X584985Y285750I-2032J0D01*
G01*
X440032Y105000D02*
G03*
X440032Y105000I-2032J0D01*
G01*
X591023Y277100D02*
G03*
X591023Y277100I-2032J0D01*
G01*
X288032Y517000D02*
G03*
X288032Y517000I-2032J0D01*
G01*
X415913Y393898D02*
G03*
X415913Y393898I-2032J0D01*
G01*
X538599Y268475D02*
G03*
X538599Y268475I-2032J0D01*
G01*
X540832Y228864D02*
G03*
X540832Y228864I-2032J0D01*
G01*
X584985Y273050D02*
G03*
X584985Y273050I-2032J0D01*
G01*
X439463Y34800D02*
G03*
X439463Y34800I-2032J0D01*
G01*
X540032Y409000D02*
G03*
X540032Y409000I-2032J0D01*
G01*
X584985Y260350D02*
G03*
X584985Y260350I-2032J0D01*
G01*
X433156Y356693D02*
G03*
X433156Y356693I-2032J0D01*
G01*
X590032Y250000D02*
G03*
X590032Y250000I-2032J0D01*
G01*
X584299Y245529D02*
G03*
X584299Y245529I-2032J0D01*
G01*
X563932Y466200D02*
G03*
X563932Y466200I-2032J0D01*
G01*
X584985Y234950D02*
G03*
X584985Y234950I-2032J0D01*
G01*
X398032Y425000D02*
G03*
X398032Y425000I-2032J0D01*
G01*
X453640Y365490D02*
G03*
X453640Y365490I-2032J0D01*
G01*
X402032Y408000D02*
G03*
X402032Y408000I-2032J0D01*
G01*
X584985Y222250D02*
G03*
X584985Y222250I-2032J0D01*
G01*
X399032Y467000D02*
G03*
X399032Y467000I-2032J0D01*
G01*
X584985Y196850D02*
G03*
X584985Y196850I-2032J0D01*
G01*
X392432Y402200D02*
G03*
X392432Y402200I-2032J0D01*
G01*
X292872Y443520D02*
G03*
X292872Y443520I-2032J0D01*
G01*
X585177Y171600D02*
G03*
X585177Y171600I-2032J0D01*
G01*
Y158900D02*
G03*
X585177Y158900I-2032J0D01*
G01*
Y146200D02*
G03*
X585177Y146200I-2032J0D01*
G01*
Y133500D02*
G03*
X585177Y133500I-2032J0D01*
G01*
X681153Y328636D02*
G03*
X681153Y328636I-2032J0D01*
G01*
X681447Y262995D02*
G03*
X681447Y262995I-2032J0D01*
G01*
X681569Y196420D02*
G03*
X681569Y196420I-2032J0D01*
G01*
X681804Y130650D02*
G03*
X681804Y130650I-2032J0D01*
G01*
X446464Y243872D02*
G03*
X446464Y243872I-2032J0D01*
G01*
X673832Y90864D02*
G03*
X673832Y90864I-2032J0D01*
G01*
X462529Y291450D02*
G03*
X462529Y291450I-2032J0D01*
G01*
X431032Y299000D02*
G03*
X431032Y299000I-2032J0D01*
G01*
X432182Y81730D02*
G03*
X432182Y81730I-2032J0D01*
G01*
Y89000D02*
G03*
X432182Y89000I-2032J0D01*
G01*
X424912D02*
G03*
X424912Y89000I-2032J0D01*
G01*
Y81730D02*
G03*
X424912Y81730I-2032J0D01*
G01*
X380032Y337000D02*
G03*
X380032Y337000I-2032J0D01*
G01*
X351667Y318855D02*
G03*
X351667Y318855I-2032J0D01*
G01*
X311061Y294476D02*
G03*
X311061Y294476I-2032J0D01*
G01*
X292061Y232029D02*
G03*
X292061Y232029I-2032J0D01*
G01*
X388899Y174778D02*
G03*
X388899Y174778I-2032J0D01*
G01*
X91009Y460995D02*
G03*
X91009Y460995I-2032J0D01*
G01*
X88996Y468348D02*
G03*
X88996Y468348I-2032J0D01*
G01*
X586162Y107950D02*
G03*
X586162Y107950I-2032J0D01*
G01*
Y120650D02*
G03*
X586162Y120650I-2032J0D01*
G01*
X314295Y241265D02*
G03*
X314295Y241265I-2032J0D01*
G01*
X475795D02*
G03*
X475795Y241265I-2032J0D01*
G01*
X308853Y260926D02*
G03*
X308853Y260926I-2032J0D01*
G01*
X475863Y259921D02*
G03*
X475863Y259921I-2032J0D01*
G01*
X588032Y71193D02*
G03*
X588032Y71193I-2032J0D01*
G01*
X263907Y401875D02*
G03*
X263907Y401875I-2032J0D01*
G01*
X227622Y78176D02*
G03*
X227622Y78176I-2032J0D01*
G01*
X227921Y92036D02*
G03*
X227921Y92036I-2032J0D01*
G01*
X417272Y188082D02*
G03*
X417272Y188082I-2032J0D01*
G01*
X383355Y180323D02*
G03*
X383355Y180323I-2032J0D01*
G01*
X372994Y190683D02*
G03*
X372994Y190683I-2032J0D01*
G01*
X427862Y189901D02*
G03*
X427862Y189901I-2032J0D01*
G01*
X395233Y110300D02*
G03*
X395233Y110300I-2032J0D01*
G01*
X394019Y192658D02*
G03*
X394019Y192658I-2032J0D01*
G01*
X395032Y97980D02*
G03*
X395032Y97980I-2032J0D01*
G01*
X388032Y105000D02*
G03*
X388032Y105000I-2032J0D01*
G01*
X267957Y394579D02*
G03*
X267957Y394579I-2032J0D01*
G01*
X275613Y285066D02*
G03*
X275613Y285066I-2032J0D01*
G01*
X380032Y103000D02*
G03*
X380032Y103000I-2032J0D01*
G01*
X284545Y251353D02*
G03*
X284545Y251353I-2032J0D01*
G01*
X412061Y321700D02*
G03*
X412061Y321700I-2032J0D01*
G01*
X331061Y302450D02*
G03*
X331061Y302450I-2032J0D01*
G01*
X357442Y336455D02*
G03*
X357442Y336455I-2032J0D01*
G01*
X528032Y184000D02*
G03*
X528032Y184000I-2032J0D01*
G01*
X436136Y253399D02*
G03*
X436136Y253399I-2032J0D01*
G01*
X454688Y227208D02*
G03*
X454688Y227208I-2032J0D01*
G01*
X409736Y201170D02*
G03*
X409736Y201170I-2032J0D01*
G01*
X509832Y204864D02*
G03*
X509832Y204864I-2032J0D01*
G01*
X634832Y118864D02*
G03*
X634832Y118864I-2032J0D01*
G01*
X640769Y191868D02*
G03*
X640769Y191868I-2032J0D01*
G01*
X640766Y312930D02*
G03*
X640766Y312930I-2032J0D01*
G01*
Y322930D02*
G03*
X640766Y322930I-2032J0D01*
G01*
X509832Y212864D02*
G03*
X509832Y212864I-2032J0D01*
G01*
Y196864D02*
G03*
X509832Y196864I-2032J0D01*
G01*
X495832Y207864D02*
G03*
X495832Y207864I-2032J0D01*
G01*
Y215864D02*
G03*
X495832Y215864I-2032J0D01*
G01*
X495832Y223864D02*
G03*
X495832Y223864I-2032J0D01*
G01*
X324061Y329400D02*
G03*
X324061Y329400I-2032J0D01*
G01*
X373311Y213950D02*
G03*
X373311Y213950I-2032J0D01*
G01*
X383311Y213950D02*
G03*
X383311Y213950I-2032J0D01*
G01*
X393311Y213950D02*
G03*
X393311Y213950I-2032J0D01*
G01*
X403311Y213950D02*
G03*
X403311Y213950I-2032J0D01*
G01*
X419887Y317659D02*
G03*
X419887Y317659I-2032J0D01*
G01*
X385811Y292393D02*
G03*
X385811Y292393I-2032J0D01*
G01*
M02*
