%TF.GenerationSoftware,KiCad,Pcbnew,9.0.8*%
%TF.CreationDate,2026-09-18T00:25:55+05:30*%
%TF.ProjectId,Shield,53686965-6c64-42e6-9b69-6361645f7063,rev?*%
%TF.SameCoordinates,Original*%
%TF.FileFunction,Copper,L1,Top*%
%TF.FilePolarity,Positive*%
%FSLAX46Y46*%
G04 Gerber Fmt 4.6, Leading zero omitted, Abs format (unit mm)*
G04 Created by KiCad (PCBNEW 9.0.8) date 2026-09-18 00:25:55*
%MOMM*%
%LPD*%
G01*
G04 APERTURE LIST*
G04 Aperture macros list*
%AMRoundRect*
0 Rectangle with rounded corners*
0 $1 Rounding radius*
0 $2 $3 $4 $5 $6 $7 $8 $9 X,Y pos of 4 corners*
0 Add a 4 corners polygon primitive as box body*
4,1,4,$2,$3,$4,$5,$6,$7,$8,$9,$2,$3,0*
0 Add four circle primitives for the rounded corners*
1,1,$1+$1,$2,$3*
1,1,$1+$1,$4,$5*
1,1,$1+$1,$6,$7*
1,1,$1+$1,$8,$9*
0 Add four rect primitives between the rounded corners*
20,1,$1+$1,$2,$3,$4,$5,0*
20,1,$1+$1,$4,$5,$6,$7,0*
20,1,$1+$1,$6,$7,$8,$9,0*
20,1,$1+$1,$8,$9,$2,$3,0*%
G04 Aperture macros list end*
%TA.AperFunction,SMDPad,CuDef*%
%ADD10RoundRect,0.150000X-0.150000X-0.425000X0.150000X-0.425000X0.150000X0.425000X-0.150000X0.425000X0*%
%TD*%
%TA.AperFunction,SMDPad,CuDef*%
%ADD11RoundRect,0.075000X-0.075000X-0.500000X0.075000X-0.500000X0.075000X0.500000X-0.075000X0.500000X0*%
%TD*%
%TA.AperFunction,HeatsinkPad*%
%ADD12O,1.000000X2.100000*%
%TD*%
%TA.AperFunction,HeatsinkPad*%
%ADD13O,1.000000X1.800000*%
%TD*%
%TA.AperFunction,SMDPad,CuDef*%
%ADD14RoundRect,0.250000X-0.475000X0.250000X-0.475000X-0.250000X0.475000X-0.250000X0.475000X0.250000X0*%
%TD*%
%TA.AperFunction,SMDPad,CuDef*%
%ADD15RoundRect,0.200000X0.200000X-0.750000X0.200000X0.750000X-0.200000X0.750000X-0.200000X-0.750000X0*%
%TD*%
%TA.AperFunction,SMDPad,CuDef*%
%ADD16RoundRect,0.250000X0.450000X-0.262500X0.450000X0.262500X-0.450000X0.262500X-0.450000X-0.262500X0*%
%TD*%
%TA.AperFunction,SMDPad,CuDef*%
%ADD17R,1.500000X0.900000*%
%TD*%
%TA.AperFunction,ComponentPad*%
%ADD18R,1.650000X1.650000*%
%TD*%
%TA.AperFunction,ComponentPad*%
%ADD19C,1.650000*%
%TD*%
%TA.AperFunction,SMDPad,CuDef*%
%ADD20RoundRect,0.250000X0.250000X0.475000X-0.250000X0.475000X-0.250000X-0.475000X0.250000X-0.475000X0*%
%TD*%
%TA.AperFunction,SMDPad,CuDef*%
%ADD21RoundRect,0.250000X-0.250000X-0.475000X0.250000X-0.475000X0.250000X0.475000X-0.250000X0.475000X0*%
%TD*%
%TA.AperFunction,SMDPad,CuDef*%
%ADD22R,2.000000X0.600000*%
%TD*%
%TA.AperFunction,SMDPad,CuDef*%
%ADD23R,3.200000X2.300000*%
%TD*%
%TA.AperFunction,SMDPad,CuDef*%
%ADD24RoundRect,0.250000X0.262500X0.450000X-0.262500X0.450000X-0.262500X-0.450000X0.262500X-0.450000X0*%
%TD*%
%TA.AperFunction,SMDPad,CuDef*%
%ADD25RoundRect,0.175000X-0.175000X-0.625000X0.175000X-0.625000X0.175000X0.625000X-0.175000X0.625000X0*%
%TD*%
%TA.AperFunction,HeatsinkPad*%
%ADD26O,1.200000X3.100000*%
%TD*%
%TA.AperFunction,SMDPad,CuDef*%
%ADD27RoundRect,0.300000X-0.300000X-0.970000X0.300000X-0.970000X0.300000X0.970000X-0.300000X0.970000X0*%
%TD*%
%TA.AperFunction,SMDPad,CuDef*%
%ADD28R,2.790000X0.740000*%
%TD*%
%TA.AperFunction,SMDPad,CuDef*%
%ADD29R,0.599999X1.000000*%
%TD*%
%TA.AperFunction,SMDPad,CuDef*%
%ADD30RoundRect,0.150000X0.150000X0.200000X-0.150000X0.200000X-0.150000X-0.200000X0.150000X-0.200000X0*%
%TD*%
%TA.AperFunction,SMDPad,CuDef*%
%ADD31RoundRect,0.150000X-0.587500X-0.150000X0.587500X-0.150000X0.587500X0.150000X-0.587500X0.150000X0*%
%TD*%
%TA.AperFunction,SMDPad,CuDef*%
%ADD32RoundRect,0.033750X-0.526250X-0.101250X0.526250X-0.101250X0.526250X0.101250X-0.526250X0.101250X0*%
%TD*%
%TA.AperFunction,SMDPad,CuDef*%
%ADD33RoundRect,0.250000X-0.262500X-0.450000X0.262500X-0.450000X0.262500X0.450000X-0.262500X0.450000X0*%
%TD*%
%TA.AperFunction,SMDPad,CuDef*%
%ADD34RoundRect,0.250000X0.650000X-1.500000X0.650000X1.500000X-0.650000X1.500000X-0.650000X-1.500000X0*%
%TD*%
%TA.AperFunction,SMDPad,CuDef*%
%ADD35RoundRect,0.375000X0.375000X-0.625000X0.375000X0.625000X-0.375000X0.625000X-0.375000X-0.625000X0*%
%TD*%
%TA.AperFunction,SMDPad,CuDef*%
%ADD36RoundRect,0.500000X1.400000X-0.500000X1.400000X0.500000X-1.400000X0.500000X-1.400000X-0.500000X0*%
%TD*%
%TA.AperFunction,SMDPad,CuDef*%
%ADD37RoundRect,0.375000X-0.625000X-0.375000X0.625000X-0.375000X0.625000X0.375000X-0.625000X0.375000X0*%
%TD*%
%TA.AperFunction,SMDPad,CuDef*%
%ADD38RoundRect,0.500000X-0.500000X-1.400000X0.500000X-1.400000X0.500000X1.400000X-0.500000X1.400000X0*%
%TD*%
%TA.AperFunction,SMDPad,CuDef*%
%ADD39R,1.800000X1.000000*%
%TD*%
%TA.AperFunction,SMDPad,CuDef*%
%ADD40RoundRect,0.150000X-0.150000X-0.200000X0.150000X-0.200000X0.150000X0.200000X-0.150000X0.200000X0*%
%TD*%
%TA.AperFunction,SMDPad,CuDef*%
%ADD41RoundRect,0.250000X-0.450000X0.262500X-0.450000X-0.262500X0.450000X-0.262500X0.450000X0.262500X0*%
%TD*%
%TA.AperFunction,SMDPad,CuDef*%
%ADD42R,1.700000X2.700000*%
%TD*%
%TA.AperFunction,SMDPad,CuDef*%
%ADD43RoundRect,0.250000X0.475000X-0.250000X0.475000X0.250000X-0.475000X0.250000X-0.475000X-0.250000X0*%
%TD*%
%TA.AperFunction,SMDPad,CuDef*%
%ADD44R,0.604799X0.254800*%
%TD*%
%TA.AperFunction,SMDPad,CuDef*%
%ADD45R,0.200000X0.565000*%
%TD*%
%TA.AperFunction,SMDPad,CuDef*%
%ADD46R,0.400000X0.565000*%
%TD*%
%TA.AperFunction,SMDPad,CuDef*%
%ADD47RoundRect,0.115000X-0.890000X-0.345000X0.890000X-0.345000X0.890000X0.345000X-0.890000X0.345000X0*%
%TD*%
%TA.AperFunction,SMDPad,CuDef*%
%ADD48RoundRect,0.251250X-0.753750X-1.343750X0.753750X-1.343750X0.753750X1.343750X-0.753750X1.343750X0*%
%TD*%
%TA.AperFunction,ComponentPad*%
%ADD49R,1.700000X1.700000*%
%TD*%
%TA.AperFunction,ComponentPad*%
%ADD50C,1.700000*%
%TD*%
%TA.AperFunction,SMDPad,CuDef*%
%ADD51RoundRect,0.250000X0.312500X1.450000X-0.312500X1.450000X-0.312500X-1.450000X0.312500X-1.450000X0*%
%TD*%
%TA.AperFunction,WasherPad*%
%ADD52O,1.016000X1.905000*%
%TD*%
%TA.AperFunction,SMDPad,CuDef*%
%ADD53R,0.711200X1.193800*%
%TD*%
%TA.AperFunction,SMDPad,CuDef*%
%ADD54RoundRect,0.375000X0.625000X0.375000X-0.625000X0.375000X-0.625000X-0.375000X0.625000X-0.375000X0*%
%TD*%
%TA.AperFunction,SMDPad,CuDef*%
%ADD55RoundRect,0.500000X0.500000X1.400000X-0.500000X1.400000X-0.500000X-1.400000X0.500000X-1.400000X0*%
%TD*%
%TA.AperFunction,SMDPad,CuDef*%
%ADD56RoundRect,0.027500X-0.392500X-0.082500X0.392500X-0.082500X0.392500X0.082500X-0.392500X0.082500X0*%
%TD*%
%TA.AperFunction,SMDPad,CuDef*%
%ADD57RoundRect,0.027500X-0.082500X-0.392500X0.082500X-0.392500X0.082500X0.392500X-0.082500X0.392500X0*%
%TD*%
%TA.AperFunction,SMDPad,CuDef*%
%ADD58R,4.600000X4.600000*%
%TD*%
%TA.AperFunction,SMDPad,CuDef*%
%ADD59RoundRect,0.225000X0.375000X-0.225000X0.375000X0.225000X-0.375000X0.225000X-0.375000X-0.225000X0*%
%TD*%
%TA.AperFunction,SMDPad,CuDef*%
%ADD60RoundRect,0.250000X0.650000X-0.400000X0.650000X0.400000X-0.650000X0.400000X-0.650000X-0.400000X0*%
%TD*%
%TA.AperFunction,SMDPad,CuDef*%
%ADD61RoundRect,0.250000X-0.275000X-0.350000X0.275000X-0.350000X0.275000X0.350000X-0.275000X0.350000X0*%
%TD*%
%TA.AperFunction,SMDPad,CuDef*%
%ADD62R,1.000000X0.300000*%
%TD*%
%TA.AperFunction,SMDPad,CuDef*%
%ADD63R,1.300000X2.000000*%
%TD*%
%TA.AperFunction,SMDPad,CuDef*%
%ADD64RoundRect,0.250001X-2.324999X1.074999X-2.324999X-1.074999X2.324999X-1.074999X2.324999X1.074999X0*%
%TD*%
%TA.AperFunction,ViaPad*%
%ADD65C,0.600000*%
%TD*%
%TA.AperFunction,Conductor*%
%ADD66C,0.200000*%
%TD*%
%TA.AperFunction,Conductor*%
%ADD67C,0.500000*%
%TD*%
%TA.AperFunction,Conductor*%
%ADD68C,0.400000*%
%TD*%
%TA.AperFunction,Conductor*%
%ADD69C,0.180000*%
%TD*%
%TA.AperFunction,Conductor*%
%ADD70C,0.300000*%
%TD*%
G04 APERTURE END LIST*
D10*
%TO.P,J7,A1,GND*%
%TO.N,GND*%
X109630000Y-150835000D03*
%TO.P,J7,A4,VBUS*%
%TO.N,/5V-VBUS-PRT-4*%
X110430000Y-150835000D03*
D11*
%TO.P,J7,A5,CC1*%
%TO.N,Net-(J7-CC1)*%
X111580000Y-150835000D03*
%TO.P,J7,A6,D+*%
%TO.N,/DN4_D+*%
X112580000Y-150835000D03*
%TO.P,J7,A7,D-*%
%TO.N,/DN4_D-*%
X113080000Y-150835000D03*
%TO.P,J7,A8*%
%TO.N,N/C*%
X114080000Y-150835000D03*
D10*
%TO.P,J7,A9,VBUS*%
%TO.N,/5V-VBUS-PRT-4*%
X115230000Y-150835000D03*
%TO.P,J7,A12,GND*%
%TO.N,GND*%
X116030000Y-150835000D03*
%TO.P,J7,B1,GND*%
X116030000Y-150835000D03*
%TO.P,J7,B4,VBUS*%
%TO.N,/5V-VBUS-PRT-4*%
X115230000Y-150835000D03*
D11*
%TO.P,J7,B5,CC2*%
%TO.N,Net-(J7-CC2)*%
X114580000Y-150835000D03*
%TO.P,J7,B6,D+*%
%TO.N,/DN4_D+*%
X113580000Y-150835000D03*
%TO.P,J7,B7,D-*%
%TO.N,/DN4_D-*%
X112080000Y-150835000D03*
%TO.P,J7,B8*%
%TO.N,N/C*%
X111080000Y-150835000D03*
D10*
%TO.P,J7,B9,VBUS*%
%TO.N,/5V-VBUS-PRT-4*%
X110430000Y-150835000D03*
%TO.P,J7,B12,GND*%
%TO.N,GND*%
X109630000Y-150835000D03*
D12*
%TO.P,J7,S1,SHIELD*%
X108510000Y-151410000D03*
D13*
X108510000Y-155590000D03*
D12*
X117150000Y-151410000D03*
D13*
X117150000Y-155590000D03*
%TD*%
D14*
%TO.P,C25,1*%
%TO.N,/DN2_TX-*%
X67550000Y-137740000D03*
%TO.P,C25,2*%
%TO.N,/DN2_TX1+*%
X67550000Y-139640000D03*
%TD*%
D15*
%TO.P,Q1,1,E*%
%TO.N,GND*%
X115310000Y-130392500D03*
%TO.P,Q1,2,B*%
%TO.N,Net-(Q1-B)*%
X117210000Y-130392500D03*
%TO.P,Q1,3,C*%
%TO.N,Net-(Q1-C)*%
X116260000Y-127392500D03*
%TD*%
D16*
%TO.P,R7,1*%
%TO.N,Net-(Q1-B)*%
X118880000Y-124925000D03*
%TO.P,R7,2*%
%TO.N,/SOC_GPIO_100_PRST_LTE*%
X118880000Y-123100000D03*
%TD*%
D17*
%TO.P,LED1,1-VDD,VDD*%
%TO.N,/5V-VBUS*%
X157600000Y-112740000D03*
%TO.P,LED1,2-DOUT,DO*%
%TO.N,unconnected-(LED1-DO-Pad2-DOUT)*%
X157600000Y-116040000D03*
%TO.P,LED1,3-GND,GND*%
%TO.N,unconnected-(LED1-GND-Pad3-GND)*%
X162500000Y-116040000D03*
%TO.P,LED1,4-DIN,DI*%
%TO.N,Net-(LED1-DI)*%
X162500000Y-112740000D03*
%TD*%
D18*
%TO.P,J5,01,01*%
%TO.N,/MCU_PSSI_D0 {slash} PC6*%
X116730000Y-63870000D03*
D19*
%TO.P,J5,02,02*%
%TO.N,/MCU_SDMMC1_CMD {slash} PD2*%
X119270000Y-63870000D03*
%TO.P,J5,03,03*%
%TO.N,/MCU_PSSI_D1 {slash} PC7*%
X116730000Y-66410000D03*
%TO.P,J5,04,04*%
%TO.N,/MCU_TRACE_CLK {slash} PE2*%
X119270000Y-66410000D03*
%TO.P,J5,05,05*%
%TO.N,/MCU_PSSI_D2 {slash} PC8*%
X116730000Y-68950000D03*
%TO.P,J5,06,06*%
%TO.N,/MCU_TRACE_D0 {slash} PE3*%
X119270000Y-68950000D03*
%TO.P,J5,07,07*%
%TO.N,/MCU_PSSI_D3 {slash} PC9*%
X116730000Y-71490000D03*
%TO.P,J5,08,08*%
%TO.N,/MCU_TRACE_D2 {slash} PE5*%
X119270000Y-71490000D03*
%TO.P,J5,09,09*%
%TO.N,/MCU_PSSI_D4 {slash} PE4*%
X116730000Y-74030000D03*
%TO.P,J5,10,10*%
%TO.N,/MCU_TRACE_D3 {slash} PE6*%
X119270000Y-74030000D03*
%TO.P,J5,11,11*%
%TO.N,/MCU_PSSI_D5 {slash} PI4*%
X116730000Y-76570000D03*
%TO.P,J5,12,12*%
%TO.N,unconnected-(J5-Pad12)*%
X119270000Y-76570000D03*
%TO.P,J5,13,13*%
%TO.N,/MCU_PSSI_D6 {slash} PI6*%
X116730000Y-79110000D03*
%TO.P,J5,14,14*%
%TO.N,GND*%
X119270000Y-79110000D03*
%TO.P,J5,15,15*%
%TO.N,/MCU_PSSI_D7 {slash} PI7*%
X116730000Y-81650000D03*
%TO.P,J5,16,16*%
%TO.N,/MCU_I2C4_SCL {slash} PF14*%
X119270000Y-81650000D03*
%TO.P,J5,17,17*%
%TO.N,/MCU_PSSI_PDCK {slash} PD9*%
X116730000Y-84190000D03*
%TO.P,J5,18,18*%
%TO.N,/MCU_I2C4_SDA {slash} PF15*%
X119270000Y-84190000D03*
%TO.P,J5,19,19*%
%TO.N,/MCU_PSSI_RDY {slash} PI5*%
X116730000Y-86730000D03*
%TO.P,J5,20,20*%
%TO.N,/MCU_OPAMP1_VOUT {slash} PA3*%
X119270000Y-86730000D03*
%TO.P,J5,21,21*%
%TO.N,/MCU_PSSI_DE {slash} PD8*%
X116730000Y-89270000D03*
%TO.P,J5,22,22*%
%TO.N,/MCU_OPAMP1_VINP {slash} PA0*%
X119270000Y-89270000D03*
%TO.P,J5,23,23*%
%TO.N,/MCU_MCO {slash} PA8*%
X116730000Y-91810000D03*
%TO.P,J5,24,24*%
%TO.N,/MCU_OPAMP1_VINM {slash} PA1*%
X119270000Y-91810000D03*
%TO.P,J5,25,25*%
%TO.N,/MCU_CRS_SYNC {slash} PA10*%
X116730000Y-94350000D03*
%TO.P,J5,26,26*%
%TO.N,/SOC_GPIO_98*%
X119270000Y-94350000D03*
%TO.P,J5,27,27*%
%TO.N,/SOC_GPIO_0_SE0*%
X116730000Y-96890000D03*
%TO.P,J5,28,28*%
%TO.N,/SOC_GPIO_99*%
X119270000Y-96890000D03*
%TO.P,J5,29,29*%
%TO.N,/SOC_GPIO_1_SEO*%
X116730000Y-99430000D03*
%TO.P,J5,30,30*%
%TO.N,unconnected-(J5-Pad30)*%
X119270000Y-99430000D03*
%TO.P,J5,31,31*%
%TO.N,/SOC_GPIO_2_SEO*%
X116730000Y-101970000D03*
%TO.P,J5,32,32*%
%TO.N,unconnected-(J5-Pad32)*%
X119270000Y-101970000D03*
%TO.P,J5,33,33*%
%TO.N,/SOC_GPIO_3_SEO*%
X116730000Y-104510000D03*
%TO.P,J5,34,34*%
%TO.N,unconnected-(J5-Pad34)*%
X119270000Y-104510000D03*
%TO.P,J5,35,35*%
%TO.N,/SOC_GPIO_86_SEO*%
X116730000Y-107050000D03*
%TO.P,J5,36,36*%
%TO.N,/JOUT_5V*%
X119270000Y-107050000D03*
%TO.P,J5,37,37*%
%TO.N,/SOC_GPIO_82_SEO*%
X116730000Y-109590000D03*
%TO.P,J5,38,38*%
%TO.N,/VIN*%
X119270000Y-109590000D03*
%TO.P,J5,39,39*%
%TO.N,/JOUT_3V3*%
X116730000Y-112130000D03*
%TO.P,J5,40,40*%
%TO.N,GND*%
X119270000Y-112130000D03*
%TD*%
D20*
%TO.P,C36,1*%
%TO.N,GND*%
X35870000Y-119490000D03*
%TO.P,C36,2*%
%TO.N,/5V-VBUS*%
X33970000Y-119490000D03*
%TD*%
D21*
%TO.P,C7,1*%
%TO.N,GND*%
X66690000Y-98630000D03*
%TO.P,C7,2*%
%TO.N,VDD33*%
X68590000Y-98630000D03*
%TD*%
D22*
%TO.P,J6,1,~{WAKE}*%
%TO.N,unconnected-(J6-~{WAKE}-Pad1)*%
X128290000Y-68790000D03*
%TO.P,J6,2,+3V3AUX*%
%TO.N,/3V3-VBUS-2*%
X136490000Y-69190000D03*
%TO.P,J6,3,COEX1*%
%TO.N,unconnected-(J6-COEX1-Pad3)*%
X128290000Y-69590000D03*
%TO.P,J6,4,GND*%
%TO.N,GND*%
X136490000Y-69990000D03*
%TO.P,J6,5,COEX2*%
%TO.N,unconnected-(J6-COEX2-Pad5)*%
X128290000Y-70390000D03*
%TO.P,J6,6,+1V5*%
%TO.N,unconnected-(J6-+1V5-Pad6)*%
X136490000Y-70790000D03*
%TO.P,J6,7,~{CLKREQ}*%
%TO.N,unconnected-(J6-~{CLKREQ}-Pad7)*%
X128290000Y-71190000D03*
%TO.P,J6,8,UIM_PWR*%
%TO.N,unconnected-(J6-UIM_PWR-Pad8)*%
X136490000Y-71590000D03*
%TO.P,J6,9,GND*%
%TO.N,GND*%
X128290000Y-71990000D03*
%TO.P,J6,10,UIM_DATA*%
%TO.N,unconnected-(J6-UIM_DATA-Pad10)*%
X136490000Y-72390000D03*
%TO.P,J6,11,REFCLK-*%
%TO.N,unconnected-(J6-REFCLK--Pad11)*%
X128290000Y-72790000D03*
%TO.P,J6,12,UIM_CLK*%
%TO.N,unconnected-(J6-UIM_CLK-Pad12)*%
X136490000Y-73190000D03*
%TO.P,J6,13,REFCLK+*%
%TO.N,unconnected-(J6-REFCLK+-Pad13)*%
X128290000Y-73590000D03*
%TO.P,J6,14,~{UIM_RESET}*%
%TO.N,unconnected-(J6-~{UIM_RESET}-Pad14)*%
X136490000Y-73990000D03*
%TO.P,J6,15,GND*%
%TO.N,GND*%
X128290000Y-74390000D03*
%TO.P,J6,16,UIM_VPP*%
%TO.N,unconnected-(J6-UIM_VPP-Pad16)*%
X136490000Y-74790000D03*
%TO.P,J6,17,UIM_C8*%
%TO.N,unconnected-(J6-UIM_C8-Pad17)*%
X128290000Y-78390000D03*
%TO.P,J6,18,GND*%
%TO.N,GND*%
X136490000Y-78790000D03*
%TO.P,J6,19,UIM_C4*%
%TO.N,unconnected-(J6-UIM_C4-Pad19)*%
X128290000Y-79190000D03*
%TO.P,J6,20,~{W_DISABLE}*%
%TO.N,unconnected-(J6-~{W_DISABLE}-Pad20)*%
X136490000Y-79590000D03*
%TO.P,J6,21,GND*%
%TO.N,GND*%
X128290000Y-79990000D03*
%TO.P,J6,22,~{PERST}*%
%TO.N,/MCU_PE7_LR*%
X136490000Y-80390000D03*
%TO.P,J6,23,PERn0*%
%TO.N,unconnected-(J6-PERn0-Pad23)*%
X128290000Y-80790000D03*
%TO.P,J6,24,+3V3AUX*%
%TO.N,/3V3-VBUS-2*%
X136490000Y-81190000D03*
%TO.P,J6,25,PERp0*%
%TO.N,unconnected-(J6-PERp0-Pad25)*%
X128290000Y-81590000D03*
%TO.P,J6,26,GND*%
%TO.N,GND*%
X136490000Y-81990000D03*
%TO.P,J6,27,GND*%
X128290000Y-82390000D03*
%TO.P,J6,28,+1V5*%
%TO.N,unconnected-(J6-+1V5-Pad28)*%
X136490000Y-82790000D03*
%TO.P,J6,29,GND*%
%TO.N,GND*%
X128290000Y-83190000D03*
%TO.P,J6,30,SMB_CLK*%
%TO.N,unconnected-(J6-SMB_CLK-Pad30)*%
X136490000Y-83590000D03*
%TO.P,J6,31,PETn0*%
%TO.N,unconnected-(J6-PETn0-Pad31)*%
X128290000Y-83990000D03*
%TO.P,J6,32,SMB_DATA*%
%TO.N,unconnected-(J6-SMB_DATA-Pad32)*%
X136490000Y-84390000D03*
%TO.P,J6,33,PETp0*%
%TO.N,unconnected-(J6-PETp0-Pad33)*%
X128290000Y-84790000D03*
%TO.P,J6,34,GND*%
%TO.N,GND*%
X136490000Y-85190000D03*
%TO.P,J6,35,GND*%
X128290000Y-85590000D03*
%TO.P,J6,36,USB_D-*%
%TO.N,unconnected-(J6-USB_D--Pad36)*%
X136490000Y-85990000D03*
%TO.P,J6,37,GND*%
%TO.N,GND*%
X128290000Y-86390000D03*
%TO.P,J6,38,USB_D+*%
%TO.N,unconnected-(J6-USB_D+-Pad38)*%
X136490000Y-86790000D03*
%TO.P,J6,39,+3V3AUX*%
%TO.N,/3V3-VBUS-2*%
X128290000Y-87190000D03*
%TO.P,J6,40,GND*%
%TO.N,GND*%
X136490000Y-87590000D03*
%TO.P,J6,41,+3V3AUX*%
%TO.N,/3V3-VBUS-2*%
X128290000Y-87990000D03*
%TO.P,J6,42,~{LED_WWAN}*%
%TO.N,unconnected-(J6-~{LED_WWAN}-Pad42)*%
X136490000Y-88390000D03*
%TO.P,J6,43,GND*%
%TO.N,GND*%
X128290000Y-88790000D03*
%TO.P,J6,44,~{LED_WLAN}*%
%TO.N,unconnected-(J6-~{LED_WLAN}-Pad44)*%
X136490000Y-89190000D03*
%TO.P,J6,45,Reserved*%
%TO.N,/LR_SCK*%
X128290000Y-89590000D03*
%TO.P,J6,46,~{LED_WPAN}*%
%TO.N,unconnected-(J6-~{LED_WPAN}-Pad46)*%
X136490000Y-89990000D03*
%TO.P,J6,47,Reserved*%
%TO.N,/LR_MISO*%
X128290000Y-90390000D03*
%TO.P,J6,48,+1V5*%
%TO.N,unconnected-(J6-+1V5-Pad48)*%
X136490000Y-90790000D03*
%TO.P,J6,49,Reserved*%
%TO.N,/LR_MOSI*%
X128290000Y-91190000D03*
%TO.P,J6,50,GND*%
%TO.N,GND*%
X136490000Y-91590000D03*
%TO.P,J6,51,Reserved*%
X128290000Y-91990000D03*
%TO.P,J6,52,+3V3AUX*%
%TO.N,/3V3-VBUS-2*%
X136490000Y-92390000D03*
D23*
%TO.P,J6,P1*%
%TO.N,N/C*%
X128890000Y-65940000D03*
%TO.P,J6,P2*%
X128890000Y-95240000D03*
%TD*%
D21*
%TO.P,C10,1*%
%TO.N,GND*%
X102237500Y-122932500D03*
%TO.P,C10,2*%
%TO.N,/5V-VBUS*%
X104137500Y-122932500D03*
%TD*%
%TO.P,C3,1*%
%TO.N,GND*%
X73155000Y-108135000D03*
%TO.P,C3,2*%
%TO.N,Net-(U2-XTALI{slash}CLK_IN)*%
X75055000Y-108135000D03*
%TD*%
D24*
%TO.P,R10,1*%
%TO.N,VDD33*%
X96350000Y-110740000D03*
%TO.P,R10,2*%
%TO.N,/RST*%
X94525000Y-110740000D03*
%TD*%
D14*
%TO.P,C27,1*%
%TO.N,/DN3_TX+*%
X86820000Y-137310000D03*
%TO.P,C27,2*%
%TO.N,/DN3_TX1-*%
X86820000Y-139210000D03*
%TD*%
D25*
%TO.P,J9,1,VBUS*%
%TO.N,Net-(J9-VBUS)*%
X39195000Y-144540000D03*
%TO.P,J9,2,D-*%
%TO.N,/UP_D-*%
X41195000Y-144540000D03*
%TO.P,J9,3,D+*%
%TO.N,/UP_D+*%
X43195000Y-144540000D03*
%TO.P,J9,4,GND*%
%TO.N,GND*%
X45195000Y-144540000D03*
%TO.P,J9,5,SSRX-*%
%TO.N,/UP_RX-*%
X46195000Y-144540000D03*
%TO.P,J9,6,SSRX+*%
%TO.N,/UP_RX+*%
X44195000Y-144540000D03*
%TO.P,J9,7,DRAIN*%
%TO.N,GND*%
X42195000Y-144540000D03*
%TO.P,J9,8,SSTX-*%
%TO.N,/UP_TX-*%
X40195000Y-144540000D03*
%TO.P,J9,9,SSTX+*%
%TO.N,/UP_TX+*%
X38195000Y-144540000D03*
D26*
%TO.P,J9,10,SHIELD*%
%TO.N,GND*%
X35795000Y-145690000D03*
D27*
X35795000Y-151890000D03*
D26*
X48595000Y-145690000D03*
D27*
X48595000Y-151890000D03*
%TD*%
D28*
%TO.P,J2,1,1*%
%TO.N,/MCU_PSSI_D0 {slash} PC6*%
X103824000Y-70190000D03*
%TO.P,J2,2,2*%
%TO.N,/MCU_SDMMC1_CMD {slash} PD2*%
X99760000Y-70190000D03*
%TO.P,J2,3,3*%
%TO.N,/MCU_PSSI_D1 {slash} PC7*%
X103824000Y-71460000D03*
%TO.P,J2,4,4*%
%TO.N,/MCU_TRACE_CLK {slash} PE2*%
X99760000Y-71460000D03*
%TO.P,J2,5,5*%
%TO.N,/MCU_PSSI_D2 {slash} PC8*%
X103824000Y-72730000D03*
%TO.P,J2,6,6*%
%TO.N,/MCU_TRACE_D0 {slash} PE3*%
X99760000Y-72730000D03*
%TO.P,J2,7,7*%
%TO.N,/MCU_PSSI_D3 {slash} PC9*%
X103824000Y-74000000D03*
%TO.P,J2,8,8*%
%TO.N,/MCU_TRACE_D2 {slash} PE5*%
X99760000Y-74000000D03*
%TO.P,J2,9,9*%
%TO.N,/MCU_PSSI_D4 {slash} PE4*%
X103824000Y-75270000D03*
%TO.P,J2,10,10*%
%TO.N,/MCU_TRACE_D3 {slash} PE6*%
X99760000Y-75270000D03*
%TO.P,J2,11,11*%
%TO.N,/MCU_PSSI_D5 {slash} PI4*%
X103824000Y-76540000D03*
%TO.P,J2,12,12*%
%TO.N,/MCU_PE7_LR*%
X99760000Y-76540000D03*
%TO.P,J2,13,13*%
%TO.N,/MCU_PSSI_D6 {slash} PI6*%
X103824000Y-77810000D03*
%TO.P,J2,14,14*%
%TO.N,/MCU_PE8_LED*%
X99760000Y-77810000D03*
%TO.P,J2,15,15*%
%TO.N,/MCU_PSSI_D7 {slash} PI7*%
X103824000Y-79080000D03*
%TO.P,J2,16,16*%
%TO.N,/MCU_I2C4_SCL {slash} PF14*%
X99760000Y-79080000D03*
%TO.P,J2,17,17*%
%TO.N,/MCU_PSSI_PDCK {slash} PD9*%
X103824000Y-80350000D03*
%TO.P,J2,18,18*%
%TO.N,/MCU_I2C4_SDA {slash} PF15*%
X99760000Y-80350000D03*
%TO.P,J2,19,19*%
%TO.N,/MCU_PSSI_RDY {slash} PI5*%
X103824000Y-81620000D03*
%TO.P,J2,20,20*%
%TO.N,/MCU_OPAMP1_VOUT {slash} PA3*%
X99760000Y-81620000D03*
%TO.P,J2,21,21*%
%TO.N,/MCU_PSSI_DE {slash} PD8*%
X103824000Y-82890000D03*
%TO.P,J2,22,22*%
%TO.N,/MCU_OPAMP1_VINP {slash} PA0*%
X99760000Y-82890000D03*
%TO.P,J2,23,23*%
%TO.N,/MCU_MCO {slash} PA8*%
X103824000Y-84160000D03*
%TO.P,J2,24,24*%
%TO.N,/MCU_OPAMP1_VINM {slash} PA1*%
X99760000Y-84160000D03*
%TO.P,J2,25,25*%
%TO.N,/MCU_CRS_SYNC {slash} PA10*%
X103824000Y-85430000D03*
%TO.P,J2,26,26*%
%TO.N,GND*%
X99760000Y-85430000D03*
%TO.P,J2,27,27*%
X103824000Y-86700000D03*
%TO.P,J2,28,28*%
%TO.N,unconnected-(J2-Pad28)*%
X99760000Y-86700000D03*
%TO.P,J2,29,29*%
%TO.N,unconnected-(J2-Pad29)*%
X103824000Y-87970000D03*
%TO.P,J2,30,30*%
%TO.N,unconnected-(J2-Pad30)*%
X99760000Y-87970000D03*
%TO.P,J2,31,31*%
%TO.N,unconnected-(J2-Pad31)*%
X103824000Y-89240000D03*
%TO.P,J2,32,32*%
%TO.N,unconnected-(J2-Pad32)*%
X99760000Y-89240000D03*
%TO.P,J2,33,33*%
%TO.N,unconnected-(J2-Pad33)*%
X103824000Y-90510000D03*
%TO.P,J2,34,34*%
%TO.N,unconnected-(J2-Pad34)*%
X99760000Y-90510000D03*
%TO.P,J2,35,35*%
%TO.N,GND*%
X103824000Y-91780000D03*
%TO.P,J2,36,36*%
%TO.N,unconnected-(J2-Pad36)*%
X99760000Y-91780000D03*
%TO.P,J2,37,37*%
%TO.N,/SOC_GPIO_0_SE0*%
X103824000Y-93050000D03*
%TO.P,J2,38,38*%
%TO.N,unconnected-(J2-Pad38)*%
X99760000Y-93050000D03*
%TO.P,J2,39,39*%
%TO.N,/SOC_GPIO_1_SEO*%
X103824000Y-94320000D03*
%TO.P,J2,40,40*%
%TO.N,unconnected-(J2-Pad40)*%
X99760000Y-94320000D03*
%TO.P,J2,41,41*%
%TO.N,/SOC_GPIO_2_SEO*%
X103824000Y-95590000D03*
%TO.P,J2,42,42*%
%TO.N,unconnected-(J2-Pad42)*%
X99760000Y-95590000D03*
%TO.P,J2,43,43*%
%TO.N,/SOC_GPIO_3_SEO*%
X103824000Y-96860000D03*
%TO.P,J2,44,44*%
%TO.N,GND*%
X99760000Y-96860000D03*
%TO.P,J2,45,45*%
%TO.N,/SOC_GPIO_86_SEO*%
X103824000Y-98130000D03*
%TO.P,J2,46,46*%
%TO.N,/SOC_GPIO_98*%
X99760000Y-98130000D03*
%TO.P,J2,47,47*%
%TO.N,/SOC_GPIO_82_SEO*%
X103824000Y-99400000D03*
%TO.P,J2,48,48*%
%TO.N,/SOC_GPIO_99*%
X99760000Y-99400000D03*
%TO.P,J2,49,49*%
%TO.N,/SOC_GPIO_18_PWM_LED*%
X103824000Y-100670000D03*
%TO.P,J2,50,50*%
%TO.N,/SOC_GPIO_100_PRST_LTE*%
X99760000Y-100670000D03*
%TO.P,J2,51,51*%
%TO.N,/SOC_GPIO_28_PWM*%
X103824000Y-101940000D03*
%TO.P,J2,52,52*%
%TO.N,/SOC_GPIO_101_PPS*%
X99760000Y-101940000D03*
%TO.P,J2,53,53*%
%TO.N,/JOUT_3V3*%
X103824000Y-103210000D03*
%TO.P,J2,54,54*%
%TO.N,/JOUT_5V*%
X99760000Y-103210000D03*
%TO.P,J2,55,55*%
%TO.N,/JOUT_3V3*%
X103824000Y-104480000D03*
%TO.P,J2,56,56*%
%TO.N,/JOUT_5V*%
X99760000Y-104480000D03*
%TO.P,J2,57,57*%
%TO.N,unconnected-(J2-Pad57)*%
X103824000Y-105750000D03*
%TO.P,J2,58,58*%
%TO.N,GND*%
X99760000Y-105750000D03*
%TO.P,J2,59,59*%
%TO.N,unconnected-(J2-Pad59)*%
X103824000Y-107020000D03*
%TO.P,J2,60,60*%
%TO.N,unconnected-(J2-Pad60)*%
X99760000Y-107020000D03*
%TD*%
D21*
%TO.P,C28,1*%
%TO.N,GND*%
X102217500Y-120612500D03*
%TO.P,C28,2*%
%TO.N,/5V-VBUS*%
X104117500Y-120612500D03*
%TD*%
D14*
%TO.P,C1,1*%
%TO.N,GND*%
X37150000Y-103970000D03*
%TO.P,C1,2*%
%TO.N,/1V8*%
X37150000Y-105870000D03*
%TD*%
D20*
%TO.P,C5,1*%
%TO.N,GND*%
X46030000Y-114120000D03*
%TO.P,C5,2*%
%TO.N,/3V3*%
X44130000Y-114120000D03*
%TD*%
D29*
%TO.P,U9,1,OUT*%
%TO.N,/5V-VBUS-PRT-4*%
X116719999Y-141190000D03*
%TO.P,U9,2,GND*%
%TO.N,GND*%
X115769998Y-141190000D03*
%TO.P,U9,3,OC_N*%
%TO.N,unconnected-(U9-OC_N-Pad3)*%
X114820000Y-141190000D03*
%TO.P,U9,4,EN*%
%TO.N,/PRT_CTL4*%
X114820000Y-143940000D03*
%TO.P,U9,5,IN*%
%TO.N,/5V-VBUS*%
X116719999Y-143940000D03*
%TD*%
D30*
%TO.P,D4,1,K*%
%TO.N,VDD12*%
X91370000Y-108270000D03*
%TO.P,D4,2,A*%
%TO.N,/RST*%
X92770000Y-108270000D03*
%TD*%
D29*
%TO.P,U7,1,OUT*%
%TO.N,/5V-VBUS-PRT-2*%
X60230000Y-140260000D03*
%TO.P,U7,2,GND*%
%TO.N,GND*%
X61180001Y-140260000D03*
%TO.P,U7,3,OC_N*%
%TO.N,unconnected-(U7-OC_N-Pad3)*%
X62129999Y-140260000D03*
%TO.P,U7,4,EN*%
%TO.N,/PRT_CTL2*%
X62129999Y-137510000D03*
%TO.P,U7,5,IN*%
%TO.N,/5V-VBUS*%
X60230000Y-137510000D03*
%TD*%
D31*
%TO.P,Q3,1,B*%
%TO.N,Net-(Q3-B)*%
X43005000Y-120960000D03*
%TO.P,Q3,2,E*%
%TO.N,/SOC_GPIO_18_PWM_LED*%
X43005000Y-122860000D03*
%TO.P,Q3,3,C*%
%TO.N,Net-(LED2-DI)*%
X44880000Y-121910000D03*
%TD*%
D21*
%TO.P,C21,1*%
%TO.N,GND*%
X114819998Y-138660000D03*
%TO.P,C21,2*%
%TO.N,/5V-VBUS*%
X116719998Y-138660000D03*
%TD*%
D32*
%TO.P,U1,1,SDA_B*%
%TO.N,/SDA1*%
X43355769Y-105281878D03*
%TO.P,U1,2,GND*%
%TO.N,GND*%
X43355769Y-105781878D03*
%TO.P,U1,3,VCCA*%
%TO.N,/1V8*%
X43355769Y-106281878D03*
%TO.P,U1,4,SDA_A*%
%TO.N,/SDA*%
X43355769Y-106781878D03*
%TO.P,U1,5,SCL_A*%
%TO.N,/SCL*%
X46165769Y-106781878D03*
%TO.P,U1,6,OE*%
%TO.N,Net-(U1-OE)*%
X46165769Y-106281878D03*
%TO.P,U1,7,VCCB*%
%TO.N,/3V3*%
X46165769Y-105781878D03*
%TO.P,U1,8,SCL_B*%
%TO.N,/SCL1*%
X46165769Y-105281878D03*
%TD*%
D33*
%TO.P,R4,1*%
%TO.N,Net-(U2-SPI_CE_N{slash}CFG_NON_REM{slash}GPIO7)*%
X92265000Y-114930000D03*
%TO.P,R4,2*%
%TO.N,VDD33*%
X94090000Y-114930000D03*
%TD*%
D21*
%TO.P,C23,1*%
%TO.N,GND*%
X110520000Y-141420000D03*
%TO.P,C23,2*%
%TO.N,/5V-VBUS-PRT-4*%
X112420000Y-141420000D03*
%TD*%
D34*
%TO.P,D2,1,A1*%
%TO.N,GND*%
X78710000Y-86690000D03*
%TO.P,D2,2,A2*%
%TO.N,Net-(D1-K)*%
X78710000Y-81690000D03*
%TD*%
D35*
%TO.P,U5,1,GND*%
%TO.N,unconnected-(U5-GND-Pad1)*%
X33630000Y-114530000D03*
%TO.P,U5,2,VO*%
%TO.N,/1V8*%
X35930000Y-114530000D03*
D36*
X35930000Y-108230000D03*
D35*
%TO.P,U5,3,VI*%
%TO.N,/3V3*%
X38230000Y-114530000D03*
%TD*%
D37*
%TO.P,U4,1,GND*%
%TO.N,GND*%
X136860000Y-100740000D03*
%TO.P,U4,2,VO*%
%TO.N,/3V3-VBUS-2*%
X136860000Y-103040000D03*
D38*
X143160000Y-103040000D03*
D37*
%TO.P,U4,3,VI*%
%TO.N,/5V-VBUS*%
X136860000Y-105340000D03*
%TD*%
D20*
%TO.P,C19,1*%
%TO.N,GND*%
X85090000Y-133940000D03*
%TO.P,C19,2*%
%TO.N,/5V-VBUS-PRT-3*%
X83190000Y-133940000D03*
%TD*%
D39*
%TO.P,Y1,1,1*%
%TO.N,Net-(U2-XTALI{slash}CLK_IN)*%
X77220000Y-108030000D03*
%TO.P,Y1,2,2*%
%TO.N,Net-(U2-XTALO)*%
X77220000Y-105530000D03*
%TD*%
D40*
%TO.P,D3,1,K*%
%TO.N,VDD33*%
X95560000Y-108280000D03*
%TO.P,D3,2,A*%
%TO.N,/RST*%
X94160000Y-108280000D03*
%TD*%
D33*
%TO.P,R16,1*%
%TO.N,Net-(U10-FB)*%
X111245000Y-126382500D03*
%TO.P,R16,2*%
%TO.N,/VBUCK*%
X113070000Y-126382500D03*
%TD*%
D41*
%TO.P,R1,1*%
%TO.N,/UP_VBUS*%
X52500000Y-147347500D03*
%TO.P,R1,2*%
%TO.N,Net-(J9-VBUS)*%
X52500000Y-149172500D03*
%TD*%
D21*
%TO.P,C17,1*%
%TO.N,GND*%
X61536851Y-130368026D03*
%TO.P,C17,2*%
%TO.N,/5V-VBUS-PRT-2*%
X63436851Y-130368026D03*
%TD*%
D42*
%TO.P,J16,1,1*%
%TO.N,/MIC2_INP*%
X187100000Y-108900000D03*
%TO.P,J16,2,2*%
%TO.N,/HPH_REF*%
X187090100Y-118600000D03*
%TO.P,J16,3,3*%
%TO.N,/HPH_R*%
X184550100Y-108900000D03*
%TO.P,J16,4,4*%
%TO.N,/HPH_L*%
X180400000Y-118600000D03*
%TO.P,J16,5,5*%
%TO.N,unconnected-(J16-Pad5)*%
X178400000Y-118600000D03*
%TO.P,J16,6,6*%
%TO.N,unconnected-(J16-Pad6)*%
X179450000Y-108900000D03*
%TD*%
D29*
%TO.P,U8,1,OUT*%
%TO.N,/5V-VBUS-PRT-3*%
X82120001Y-139520000D03*
%TO.P,U8,2,GND*%
%TO.N,GND*%
X83070002Y-139520000D03*
%TO.P,U8,3,OC_N*%
%TO.N,unconnected-(U8-OC_N-Pad3)*%
X84020000Y-139520000D03*
%TO.P,U8,4,EN*%
%TO.N,/PRT_CTL3*%
X84020000Y-136770000D03*
%TO.P,U8,5,IN*%
%TO.N,/5V-VBUS*%
X82120001Y-136770000D03*
%TD*%
D24*
%TO.P,R20,1*%
%TO.N,Net-(LED2-DI)*%
X35805000Y-122130000D03*
%TO.P,R20,2*%
%TO.N,/5V-VBUS*%
X33980000Y-122130000D03*
%TD*%
D43*
%TO.P,C12,1*%
%TO.N,GND*%
X146410000Y-104090000D03*
%TO.P,C12,2*%
%TO.N,/3V3-VBUS-2*%
X146410000Y-102190000D03*
%TD*%
D33*
%TO.P,R3,1*%
%TO.N,/1V8*%
X43855769Y-108511878D03*
%TO.P,R3,2*%
%TO.N,Net-(U1-OE)*%
X45680769Y-108511878D03*
%TD*%
D41*
%TO.P,R6,1*%
%TO.N,Net-(J8-~{W_DISABLE})*%
X118860000Y-118432500D03*
%TO.P,R6,2*%
%TO.N,/VBUCK*%
X118860000Y-120257500D03*
%TD*%
D16*
%TO.P,R12,1*%
%TO.N,GND*%
X85089598Y-71777005D03*
%TO.P,R12,2*%
%TO.N,Net-(J11-CC1)*%
X85089598Y-69952005D03*
%TD*%
D33*
%TO.P,R18,1*%
%TO.N,/5V-VBUS*%
X161207500Y-109520000D03*
%TO.P,R18,2*%
%TO.N,Net-(LED1-DI)*%
X163032500Y-109520000D03*
%TD*%
D14*
%TO.P,C30,1*%
%TO.N,GND*%
X116230000Y-118392500D03*
%TO.P,C30,2*%
%TO.N,/VBUCK*%
X116230000Y-120292500D03*
%TD*%
%TO.P,C26,1*%
%TO.N,/DN3_TX-*%
X89440000Y-137310000D03*
%TO.P,C26,2*%
%TO.N,/DN3_TX1+*%
X89440000Y-139210000D03*
%TD*%
D21*
%TO.P,C29,1*%
%TO.N,Net-(U10-SW)*%
X107027500Y-126422500D03*
%TO.P,C29,2*%
%TO.N,Net-(U10-BST)*%
X108927500Y-126422500D03*
%TD*%
D25*
%TO.P,J14,1,VBUS*%
%TO.N,/5V-VBUS-PRT-2*%
X66060000Y-144660000D03*
%TO.P,J14,2,D-*%
%TO.N,/DN2_D-*%
X68060000Y-144660000D03*
%TO.P,J14,3,D+*%
%TO.N,/DN2_D+*%
X70060000Y-144660000D03*
%TO.P,J14,4,GND*%
%TO.N,GND*%
X72060000Y-144660000D03*
%TO.P,J14,5,SSRX-*%
%TO.N,/DN2_RX-*%
X73060000Y-144660000D03*
%TO.P,J14,6,SSRX+*%
%TO.N,/DN2_RX+*%
X71060000Y-144660000D03*
%TO.P,J14,7,DRAIN*%
%TO.N,GND*%
X69060000Y-144660000D03*
%TO.P,J14,8,SSTX-*%
%TO.N,/DN2_TX1+*%
X67060000Y-144660000D03*
%TO.P,J14,9,SSTX+*%
%TO.N,/DN2_TX1-*%
X65060000Y-144660000D03*
D26*
%TO.P,J14,10,SHIELD*%
%TO.N,GND*%
X62660000Y-145810000D03*
D27*
X62660000Y-152010000D03*
D26*
X75460000Y-145810000D03*
D27*
X75460000Y-152010000D03*
%TD*%
D21*
%TO.P,C16,1*%
%TO.N,GND*%
X61636851Y-133818026D03*
%TO.P,C16,2*%
%TO.N,/5V-VBUS-PRT-2*%
X63536851Y-133818026D03*
%TD*%
D44*
%TO.P,U10,1,VIN*%
%TO.N,/5V-VBUS*%
X107147500Y-123012501D03*
%TO.P,U10,2,SW*%
%TO.N,Net-(U10-SW)*%
X107147500Y-123512500D03*
%TO.P,U10,3,GND*%
%TO.N,GND*%
X107147500Y-124012499D03*
%TO.P,U10,4,BST*%
%TO.N,Net-(U10-BST)*%
X108844500Y-124012499D03*
%TO.P,U10,5,EN*%
%TO.N,unconnected-(U10-EN-Pad5)*%
X108844500Y-123512500D03*
%TO.P,U10,6,FB*%
%TO.N,Net-(U10-FB)*%
X108844500Y-123012501D03*
%TD*%
D20*
%TO.P,C4,1*%
%TO.N,GND*%
X46040000Y-111690000D03*
%TO.P,C4,2*%
%TO.N,/3V3*%
X44140000Y-111690000D03*
%TD*%
D45*
%TO.P,D6,1,IO1*%
%TO.N,/DN3_D-*%
X91850000Y-139410000D03*
%TO.P,D6,2,IO2*%
%TO.N,/DN3_D+*%
X92350000Y-139410000D03*
D46*
%TO.P,D6,3,GND*%
%TO.N,GND*%
X92850000Y-139410000D03*
D45*
%TO.P,D6,4,IO3*%
%TO.N,/DN3_RX+*%
X93350000Y-139410000D03*
%TO.P,D6,5,IO4*%
%TO.N,/DN3_RX-*%
X93850000Y-139410000D03*
%TO.P,D6,6,NC*%
%TO.N,unconnected-(D6-NC-Pad6)*%
X93850000Y-138575000D03*
%TO.P,D6,7,NC*%
%TO.N,unconnected-(D6-NC-Pad7)*%
X93350000Y-138575000D03*
D46*
%TO.P,D6,8,GND*%
%TO.N,GND*%
X92850000Y-138575000D03*
D45*
%TO.P,D6,9,NC*%
%TO.N,unconnected-(D6-NC-Pad9)*%
X92350000Y-138575000D03*
%TO.P,D6,10,NC*%
%TO.N,unconnected-(D6-NC-Pad10)*%
X91850000Y-138575000D03*
%TD*%
D21*
%TO.P,C20,1*%
%TO.N,GND*%
X78050000Y-137070000D03*
%TO.P,C20,2*%
%TO.N,/5V-VBUS*%
X79950000Y-137070000D03*
%TD*%
D47*
%TO.P,U6,1,GND*%
%TO.N,GND*%
X72710000Y-93980000D03*
%TO.P,U6,2,VOUT*%
%TO.N,VDD12*%
X72710000Y-96280000D03*
%TO.P,U6,3,VIN*%
%TO.N,VDD33*%
X72710000Y-98580000D03*
D48*
%TO.P,U6,4,VOUT*%
%TO.N,VDD12*%
X78610000Y-96280000D03*
%TD*%
D14*
%TO.P,C32,1*%
%TO.N,GND*%
X171860000Y-111730000D03*
%TO.P,C32,2*%
%TO.N,/MIC2_BIAS*%
X171860000Y-113630000D03*
%TD*%
D49*
%TO.P,J13,1,Pin_1*%
%TO.N,/LR_MISO*%
X126960000Y-104040000D03*
D50*
%TO.P,J13,2,Pin_2*%
%TO.N,unconnected-(J13-Pin_2-Pad2)*%
X126960000Y-101500000D03*
%TO.P,J13,3,Pin_3*%
%TO.N,/LR_SCK*%
X129500000Y-104040000D03*
%TO.P,J13,4,Pin_4*%
%TO.N,/LR_MOSI*%
X129500000Y-101500000D03*
%TO.P,J13,5,Pin_5*%
%TO.N,unconnected-(J13-Pin_5-Pad5)*%
X132040000Y-104040000D03*
%TO.P,J13,6,Pin_6*%
%TO.N,GND*%
X132040000Y-101500000D03*
%TD*%
D21*
%TO.P,C8,1*%
%TO.N,GND*%
X66720000Y-96280000D03*
%TO.P,C8,2*%
%TO.N,VDD12*%
X68620000Y-96280000D03*
%TD*%
D25*
%TO.P,J15,1,VBUS*%
%TO.N,/5V-VBUS-PRT-3*%
X88600000Y-144600000D03*
%TO.P,J15,2,D-*%
%TO.N,/DN3_D-*%
X90600000Y-144600000D03*
%TO.P,J15,3,D+*%
%TO.N,/DN3_D+*%
X92600000Y-144600000D03*
%TO.P,J15,4,GND*%
%TO.N,GND*%
X94600000Y-144600000D03*
%TO.P,J15,5,SSRX-*%
%TO.N,/DN3_RX-*%
X95600000Y-144600000D03*
%TO.P,J15,6,SSRX+*%
%TO.N,/DN3_RX+*%
X93600000Y-144600000D03*
%TO.P,J15,7,DRAIN*%
%TO.N,GND*%
X91600000Y-144600000D03*
%TO.P,J15,8,SSTX-*%
%TO.N,/DN3_TX1+*%
X89600000Y-144600000D03*
%TO.P,J15,9,SSTX+*%
%TO.N,/DN3_TX1-*%
X87600000Y-144600000D03*
D26*
%TO.P,J15,10,SHIELD*%
%TO.N,GND*%
X85200000Y-145750000D03*
D27*
X85200000Y-151950000D03*
D26*
X98000000Y-145750000D03*
D27*
X98000000Y-151950000D03*
%TD*%
D20*
%TO.P,C9,1*%
%TO.N,GND*%
X92920000Y-90900000D03*
%TO.P,C9,2*%
%TO.N,/5V-VBUS*%
X91020000Y-90900000D03*
%TD*%
D51*
%TO.P,F1,1*%
%TO.N,Net-(D1-K)*%
X79147500Y-75370000D03*
%TO.P,F1,2*%
%TO.N,Net-(F1-Pad2)*%
X74872500Y-75370000D03*
%TD*%
D52*
%TO.P,J11,*%
%TO.N,*%
X83970540Y-61825551D03*
X83970000Y-65575550D03*
X75330000Y-65575550D03*
X75329460Y-61825551D03*
D53*
%TO.P,J11,A5,CC1*%
%TO.N,Net-(J11-CC1)*%
X80149999Y-66105550D03*
%TO.P,J11,A9,VBUS*%
%TO.N,Net-(F1-Pad2)*%
X78130000Y-66105550D03*
%TO.P,J11,A12,GND*%
%TO.N,GND*%
X76900000Y-66105550D03*
%TO.P,J11,B5,CC2*%
%TO.N,Net-(J11-CC2)*%
X79150001Y-66105550D03*
%TO.P,J11,B9,VBUS*%
%TO.N,Net-(F1-Pad2)*%
X81170000Y-66105550D03*
%TO.P,J11,B12,GND*%
%TO.N,GND*%
X82400000Y-66105550D03*
%TD*%
D54*
%TO.P,U3,1,GND*%
%TO.N,GND*%
X92460000Y-98570000D03*
%TO.P,U3,2,VO*%
%TO.N,VDD33*%
X92460000Y-96270000D03*
D55*
X86160000Y-96270000D03*
D54*
%TO.P,U3,3,VI*%
%TO.N,/5V-VBUS*%
X92460000Y-93970000D03*
%TD*%
D33*
%TO.P,R9,1*%
%TO.N,GND*%
X73240000Y-111270000D03*
%TO.P,R9,2*%
%TO.N,Net-(U2-RBIAS)*%
X75065000Y-111270000D03*
%TD*%
D21*
%TO.P,C14,1*%
%TO.N,GND*%
X84320000Y-84920000D03*
%TO.P,C14,2*%
%TO.N,/5V-VBUS*%
X86220000Y-84920000D03*
%TD*%
D14*
%TO.P,C31,1*%
%TO.N,GND*%
X112740000Y-118352500D03*
%TO.P,C31,2*%
%TO.N,/VBUCK*%
X112740000Y-120252500D03*
%TD*%
D33*
%TO.P,R13,1*%
%TO.N,/5V-VBUS-PRT-4*%
X105525000Y-147400000D03*
%TO.P,R13,2*%
%TO.N,Net-(J7-CC1)*%
X107350000Y-147400000D03*
%TD*%
D41*
%TO.P,R17,1*%
%TO.N,/MIC2_BIAS*%
X171790000Y-117157500D03*
%TO.P,R17,2*%
%TO.N,/MIC2_INP*%
X171790000Y-118982500D03*
%TD*%
D24*
%TO.P,R14,1*%
%TO.N,/5V-VBUS-PRT-4*%
X116630000Y-146487500D03*
%TO.P,R14,2*%
%TO.N,Net-(J7-CC2)*%
X114805000Y-146487500D03*
%TD*%
%TO.P,R15,1*%
%TO.N,GND*%
X113070000Y-123482500D03*
%TO.P,R15,2*%
%TO.N,Net-(U10-FB)*%
X111245000Y-123482500D03*
%TD*%
D21*
%TO.P,C35,1*%
%TO.N,GND*%
X157220000Y-109500000D03*
%TO.P,C35,2*%
%TO.N,/5V-VBUS*%
X159120000Y-109500000D03*
%TD*%
D56*
%TO.P,U2,1,USB2DN_DP1/PRT_DIS_P1*%
%TO.N,/LTE_D+*%
X78799254Y-114095000D03*
%TO.P,U2,2,USB2DN_DM1/PRT_DIS_M1*%
%TO.N,/LTE_D-*%
X78799254Y-114495000D03*
%TO.P,U2,3,USB3DN_TXDP1*%
%TO.N,unconnected-(U2-USB3DN_TXDP1-Pad3)*%
X78799254Y-114895000D03*
%TO.P,U2,4,USB3DN_TXDM1*%
%TO.N,unconnected-(U2-USB3DN_TXDM1-Pad4)*%
X78799254Y-115295000D03*
%TO.P,U2,5,VDD12*%
%TO.N,VDD12*%
X78799254Y-115695000D03*
%TO.P,U2,6,USB3DN_RXDP1*%
%TO.N,unconnected-(U2-USB3DN_RXDP1-Pad6)*%
X78799254Y-116095000D03*
%TO.P,U2,7,USB3DN_RXDM1*%
%TO.N,unconnected-(U2-USB3DN_RXDM1-Pad7)*%
X78799254Y-116495000D03*
%TO.P,U2,8,USB2DN_DP2/PRT_DIS_P2*%
%TO.N,/DN2_D+*%
X78799254Y-116895000D03*
%TO.P,U2,9,USB2DN_DM2/PRT_DIS_M2*%
%TO.N,/DN2_D-*%
X78799254Y-117295000D03*
%TO.P,U2,10,USB3DN_TXDP2*%
%TO.N,/DN2_TX+*%
X78799254Y-117695000D03*
%TO.P,U2,11,USB3DN_TXDM2*%
%TO.N,/DN2_TX-*%
X78799254Y-118095000D03*
%TO.P,U2,12,VDD12*%
%TO.N,VDD12*%
X78799254Y-118495000D03*
%TO.P,U2,13,USB3DN_RXDP2*%
%TO.N,/DN2_RX+*%
X78799254Y-118895000D03*
%TO.P,U2,14,USB3DN_RXDM2*%
%TO.N,/DN2_RX-*%
X78799254Y-119295000D03*
D57*
%TO.P,U2,15,VDD12*%
%TO.N,VDD12*%
X79634254Y-120130000D03*
%TO.P,U2,16,VDD33*%
%TO.N,VDD33*%
X80034254Y-120130000D03*
%TO.P,U2,17,USB2DN_DP3/PRT_DIS_P3*%
%TO.N,/DN3_D+*%
X80434254Y-120130000D03*
%TO.P,U2,18,USB2DN_DM3/PRT_DIS_M3*%
%TO.N,/DN3_D-*%
X80834254Y-120130000D03*
%TO.P,U2,19,USB3DN_TXDP3*%
%TO.N,/DN3_TX+*%
X81234254Y-120130000D03*
%TO.P,U2,20,USB3DN_TXDM3*%
%TO.N,/DN3_TX-*%
X81634254Y-120130000D03*
%TO.P,U2,21,VDD12*%
%TO.N,VDD12*%
X82034254Y-120130000D03*
%TO.P,U2,22,USB3DN_RXDP3*%
%TO.N,/DN3_RX+*%
X82434254Y-120130000D03*
%TO.P,U2,23,USB3DN_RXDM3*%
%TO.N,/DN3_RX-*%
X82834254Y-120130000D03*
%TO.P,U2,24,USB2DN_DP4/PRT_DIS_P4*%
%TO.N,/DN4_D+*%
X83234254Y-120130000D03*
%TO.P,U2,25,USB2DN_DM4/PRT_DIS_M4*%
%TO.N,/DN4_D-*%
X83634254Y-120130000D03*
%TO.P,U2,26,USB3DN_TXDP4*%
%TO.N,unconnected-(U2-USB3DN_TXDP4-Pad26)*%
X84034254Y-120130000D03*
%TO.P,U2,27,USB3DN_TXDM4*%
%TO.N,unconnected-(U2-USB3DN_TXDM4-Pad27)*%
X84434254Y-120130000D03*
%TO.P,U2,28,VDD12*%
%TO.N,VDD12*%
X84834254Y-120130000D03*
D56*
%TO.P,U2,29,USB3DN_RXDP4*%
%TO.N,unconnected-(U2-USB3DN_RXDP4-Pad29)*%
X85669254Y-119295000D03*
%TO.P,U2,30,USB3DN_RXDM4*%
%TO.N,unconnected-(U2-USB3DN_RXDM4-Pad30)*%
X85669254Y-118895000D03*
%TO.P,U2,31,VDD33*%
%TO.N,VDD33*%
X85669254Y-118495000D03*
%TO.P,U2,32,PRT_CTL4/GANG_PWR*%
%TO.N,/PRT_CTL4*%
X85669254Y-118095000D03*
%TO.P,U2,33,VDD12*%
%TO.N,VDD12*%
X85669254Y-117695000D03*
%TO.P,U2,34,PRT_CTL3*%
%TO.N,/PRT_CTL3*%
X85669254Y-117295000D03*
%TO.P,U2,35,PRT_CTL2*%
%TO.N,/PRT_CTL2*%
X85669254Y-116895000D03*
%TO.P,U2,36,PRT_CTL1*%
%TO.N,unconnected-(U2-PRT_CTL1-Pad36)*%
X85669254Y-116495000D03*
%TO.P,U2,37,VBUS_DET/GPIO16*%
%TO.N,/UP_VBUS*%
X85669254Y-116095000D03*
%TO.P,U2,38,SPI_CLK/SMCLK/GPIO4*%
%TO.N,unconnected-(U2-SPI_CLK{slash}SMCLK{slash}GPIO4-Pad38)*%
X85669254Y-115695000D03*
%TO.P,U2,39,SPI_DO/SMDAT/GPIO5*%
%TO.N,unconnected-(U2-SPI_DO{slash}SMDAT{slash}GPIO5-Pad39)*%
X85669254Y-115295000D03*
%TO.P,U2,40,SPI_DI/CFG_BC_EN/GPIO9*%
%TO.N,Net-(U2-SPI_DI{slash}CFG_BC_EN{slash}GPIO9)*%
X85669254Y-114895000D03*
%TO.P,U2,41,SPI_CE_N/CFG_NON_REM/GPIO7*%
%TO.N,Net-(U2-SPI_CE_N{slash}CFG_NON_REM{slash}GPIO7)*%
X85669254Y-114495000D03*
%TO.P,U2,42,RESET_N*%
%TO.N,/RST*%
X85669254Y-114095000D03*
D57*
%TO.P,U2,43,VDD12*%
%TO.N,VDD12*%
X84834254Y-113260000D03*
%TO.P,U2,44,VDD33*%
%TO.N,VDD33*%
X84434254Y-113260000D03*
%TO.P,U2,45,USB2UP_DP*%
%TO.N,/UP_D-*%
X84034254Y-113260000D03*
%TO.P,U2,46,USB2UP_DM*%
%TO.N,/UP_D+*%
X83634254Y-113260000D03*
%TO.P,U2,47,USB3UP_TXDP*%
%TO.N,/UP_TX+*%
X83234254Y-113260000D03*
%TO.P,U2,48,USB3UP_TXDM*%
%TO.N,/UP_TX-*%
X82834254Y-113260000D03*
%TO.P,U2,49,VDD12*%
%TO.N,VDD12*%
X82434254Y-113260000D03*
%TO.P,U2,50,USB3UP_RXDP*%
%TO.N,/UP_RX+*%
X82034254Y-113260000D03*
%TO.P,U2,51,USB3UP_RXDM*%
%TO.N,/UP_RX-*%
X81634254Y-113260000D03*
%TO.P,U2,52,ATEST*%
%TO.N,unconnected-(U2-ATEST-Pad52)*%
X81234254Y-113260000D03*
%TO.P,U2,53,XTALO*%
%TO.N,Net-(U2-XTALO)*%
X80834254Y-113260000D03*
%TO.P,U2,54,XTALI/CLK_IN*%
%TO.N,Net-(U2-XTALI{slash}CLK_IN)*%
X80434254Y-113260000D03*
%TO.P,U2,55,VDD33*%
%TO.N,VDD33*%
X80034254Y-113260000D03*
%TO.P,U2,56,RBIAS*%
%TO.N,Net-(U2-RBIAS)*%
X79634254Y-113260000D03*
D58*
%TO.P,U2,57,VSS*%
%TO.N,unconnected-(U2-VSS-Pad57)*%
X82234254Y-116695000D03*
%TD*%
D20*
%TO.P,C34,1*%
%TO.N,GND*%
X162050000Y-102490000D03*
%TO.P,C34,2*%
%TO.N,/3V3-VBUS-2*%
X160150000Y-102490000D03*
%TD*%
D21*
%TO.P,C15,1*%
%TO.N,GND*%
X56760000Y-130400000D03*
%TO.P,C15,2*%
%TO.N,/5V-VBUS*%
X58660000Y-130400000D03*
%TD*%
D14*
%TO.P,C2,1*%
%TO.N,GND*%
X34840000Y-103940000D03*
%TO.P,C2,2*%
%TO.N,/1V8*%
X34840000Y-105840000D03*
%TD*%
D24*
%TO.P,R5,1*%
%TO.N,GND*%
X94062500Y-117320000D03*
%TO.P,R5,2*%
%TO.N,Net-(U2-SPI_DI{slash}CFG_BC_EN{slash}GPIO9)*%
X92237500Y-117320000D03*
%TD*%
D20*
%TO.P,C33,2*%
%TO.N,/1V8*%
X38270000Y-119530000D03*
%TO.P,C33,1*%
%TO.N,GND*%
X40170000Y-119530000D03*
%TD*%
D21*
%TO.P,C13,1*%
%TO.N,GND*%
X90600000Y-110750000D03*
%TO.P,C13,2*%
%TO.N,/RST*%
X92500000Y-110750000D03*
%TD*%
D31*
%TO.P,Q2,1,B*%
%TO.N,Net-(Q2-B)*%
X164687500Y-105040000D03*
%TO.P,Q2,2,E*%
%TO.N,/MCU_PE8_LED*%
X164687500Y-106940000D03*
%TO.P,Q2,3,C*%
%TO.N,Net-(LED1-DI)*%
X166562500Y-105990000D03*
%TD*%
D45*
%TO.P,D5,1,IO1*%
%TO.N,/DN2_D-*%
X69660000Y-139455000D03*
%TO.P,D5,2,IO2*%
%TO.N,/DN2_D+*%
X70160000Y-139455000D03*
D46*
%TO.P,D5,3,GND*%
%TO.N,GND*%
X70660000Y-139455000D03*
D45*
%TO.P,D5,4,IO3*%
%TO.N,/DN2_RX+*%
X71160000Y-139455000D03*
%TO.P,D5,5,IO4*%
%TO.N,/DN2_RX-*%
X71660000Y-139455000D03*
%TO.P,D5,6,NC*%
%TO.N,unconnected-(D5-NC-Pad6)*%
X71660000Y-138620000D03*
%TO.P,D5,7,NC*%
%TO.N,unconnected-(D5-NC-Pad7)*%
X71160000Y-138620000D03*
D46*
%TO.P,D5,8,GND*%
%TO.N,GND*%
X70660000Y-138620000D03*
D45*
%TO.P,D5,9,NC*%
%TO.N,unconnected-(D5-NC-Pad9)*%
X70160000Y-138620000D03*
%TO.P,D5,10,NC*%
%TO.N,unconnected-(D5-NC-Pad10)*%
X69660000Y-138620000D03*
%TD*%
D33*
%TO.P,R19,1*%
%TO.N,/3V3-VBUS-2*%
X160150000Y-105110000D03*
%TO.P,R19,2*%
%TO.N,Net-(Q2-B)*%
X161975000Y-105110000D03*
%TD*%
D21*
%TO.P,C22,1*%
%TO.N,GND*%
X110550000Y-138680000D03*
%TO.P,C22,2*%
%TO.N,/5V-VBUS-PRT-4*%
X112450000Y-138680000D03*
%TD*%
D17*
%TO.P,LED2,1-VDD,VDD*%
%TO.N,/5V-VBUS*%
X34450000Y-126530000D03*
%TO.P,LED2,2-DOUT,DO*%
%TO.N,unconnected-(LED2-DO-Pad2-DOUT)*%
X34450000Y-129830000D03*
%TO.P,LED2,3-GND,GND*%
%TO.N,GND*%
X39350000Y-129830000D03*
%TO.P,LED2,4-DIN,DI*%
%TO.N,Net-(LED2-DI)*%
X39350000Y-126530000D03*
%TD*%
D21*
%TO.P,C18,1*%
%TO.N,GND*%
X78080000Y-133930000D03*
%TO.P,C18,2*%
%TO.N,/5V-VBUS-PRT-3*%
X79980000Y-133930000D03*
%TD*%
D16*
%TO.P,R2,1*%
%TO.N,GND*%
X55117500Y-149172500D03*
%TO.P,R2,2*%
%TO.N,/UP_VBUS*%
X55117500Y-147347500D03*
%TD*%
D28*
%TO.P,J1,1,1*%
%TO.N,GND*%
X57564000Y-70190000D03*
%TO.P,J1,2,2*%
X53500000Y-70190000D03*
%TO.P,J1,3,3*%
%TO.N,/DSI_CK-*%
X57564000Y-71460000D03*
%TO.P,J1,4,4*%
%TO.N,/DSI_D1+*%
X53500000Y-71460000D03*
%TO.P,J1,5,5*%
%TO.N,/DSI_CK+*%
X57564000Y-72730000D03*
%TO.P,J1,6,6*%
%TO.N,/DSI_D1-*%
X53500000Y-72730000D03*
%TO.P,J1,7,7*%
%TO.N,GND*%
X57564000Y-74000000D03*
%TO.P,J1,8,8*%
X53500000Y-74000000D03*
%TO.P,J1,9,9*%
%TO.N,/DSI_D2-*%
X57564000Y-75270000D03*
%TO.P,J1,10,10*%
%TO.N,/DSI_D0+*%
X53500000Y-75270000D03*
%TO.P,J1,11,11*%
%TO.N,/DSI_D2+*%
X57564000Y-76540000D03*
%TO.P,J1,12,12*%
%TO.N,/DSI_D0-*%
X53500000Y-76540000D03*
%TO.P,J1,13,13*%
%TO.N,GND*%
X57564000Y-77810000D03*
%TO.P,J1,14,14*%
X53500000Y-77810000D03*
%TO.P,J1,15,15*%
%TO.N,/DSI_D3-*%
X57564000Y-79080000D03*
%TO.P,J1,16,16*%
%TO.N,unconnected-(J1-Pad16)*%
X53500000Y-79080000D03*
%TO.P,J1,17,17*%
%TO.N,/DSI_D3+*%
X57564000Y-80350000D03*
%TO.P,J1,18,18*%
%TO.N,/CAM_EN*%
X53500000Y-80350000D03*
%TO.P,J1,19,19*%
%TO.N,GND*%
X57564000Y-81620000D03*
%TO.P,J1,20,20*%
X53500000Y-81620000D03*
%TO.P,J1,21,21*%
%TO.N,unconnected-(J1-Pad21)*%
X57564000Y-82890000D03*
%TO.P,J1,22,22*%
%TO.N,/SDA*%
X53500000Y-82890000D03*
%TO.P,J1,23,23*%
%TO.N,unconnected-(J1-Pad23)*%
X57564000Y-84160000D03*
%TO.P,J1,24,24*%
%TO.N,/SCL*%
X53500000Y-84160000D03*
%TO.P,J1,25,25*%
%TO.N,GND*%
X57564000Y-85430000D03*
%TO.P,J1,26,26*%
X53500000Y-85430000D03*
%TO.P,J1,27,27*%
%TO.N,unconnected-(J1-Pad27)*%
X57564000Y-86700000D03*
%TO.P,J1,28,28*%
%TO.N,/CSI_D3+*%
X53500000Y-86700000D03*
%TO.P,J1,29,29*%
%TO.N,unconnected-(J1-Pad29)*%
X57564000Y-87970000D03*
%TO.P,J1,30,30*%
%TO.N,/CSI_D3-*%
X53500000Y-87970000D03*
%TO.P,J1,31,31*%
%TO.N,GND*%
X57564000Y-89240000D03*
%TO.P,J1,32,32*%
X53500000Y-89240000D03*
%TO.P,J1,33,33*%
%TO.N,unconnected-(J1-Pad33)*%
X57564000Y-90510000D03*
%TO.P,J1,34,34*%
%TO.N,/CSI_D2+*%
X53500000Y-90510000D03*
%TO.P,J1,35,35*%
%TO.N,unconnected-(J1-Pad35)*%
X57564000Y-91780000D03*
%TO.P,J1,36,36*%
%TO.N,/CSI_D2-*%
X53500000Y-91780000D03*
%TO.P,J1,37,37*%
%TO.N,GND*%
X57564000Y-93050000D03*
%TO.P,J1,38,38*%
X53500000Y-93050000D03*
%TO.P,J1,39,39*%
%TO.N,unconnected-(J1-Pad39)*%
X57564000Y-94320000D03*
%TO.P,J1,40,40*%
%TO.N,/CSI_CK+*%
X53500000Y-94320000D03*
%TO.P,J1,41,41*%
%TO.N,unconnected-(J1-Pad41)*%
X57564000Y-95590000D03*
%TO.P,J1,42,42*%
%TO.N,/CSI_CK-*%
X53500000Y-95590000D03*
%TO.P,J1,43,43*%
%TO.N,GND*%
X57564000Y-96860000D03*
%TO.P,J1,44,44*%
X53500000Y-96860000D03*
%TO.P,J1,45,45*%
%TO.N,unconnected-(J1-Pad45)*%
X57564000Y-98130000D03*
%TO.P,J1,46,46*%
%TO.N,/CSI_D1+*%
X53500000Y-98130000D03*
%TO.P,J1,47,47*%
%TO.N,unconnected-(J1-Pad47)*%
X57564000Y-99400000D03*
%TO.P,J1,48,48*%
%TO.N,/CSI_D1-*%
X53500000Y-99400000D03*
%TO.P,J1,49,49*%
%TO.N,GND*%
X57564000Y-100670000D03*
%TO.P,J1,50,50*%
X53500000Y-100670000D03*
%TO.P,J1,51,51*%
%TO.N,unconnected-(J1-Pad51)*%
X57564000Y-101940000D03*
%TO.P,J1,52,52*%
%TO.N,/CSI_D0+*%
X53500000Y-101940000D03*
%TO.P,J1,53,53*%
%TO.N,unconnected-(J1-Pad53)*%
X57564000Y-103210000D03*
%TO.P,J1,54,54*%
%TO.N,/CSI_D0-*%
X53500000Y-103210000D03*
%TO.P,J1,55,55*%
%TO.N,GND*%
X57564000Y-104480000D03*
%TO.P,J1,56,56*%
X53500000Y-104480000D03*
%TO.P,J1,57,57*%
%TO.N,/5V-VBUS*%
X57564000Y-105750000D03*
%TO.P,J1,58,58*%
%TO.N,/3V3*%
X53500000Y-105750000D03*
%TO.P,J1,59,59*%
%TO.N,/VIN*%
X57564000Y-107020000D03*
%TO.P,J1,60,60*%
%TO.N,/3V3*%
X53500000Y-107020000D03*
%TD*%
D14*
%TO.P,C24,1*%
%TO.N,/DN2_TX+*%
X65280000Y-137820000D03*
%TO.P,C24,2*%
%TO.N,/DN2_TX1-*%
X65280000Y-139720000D03*
%TD*%
D16*
%TO.P,R8,1*%
%TO.N,Net-(Q1-C)*%
X116250000Y-124942500D03*
%TO.P,R8,2*%
%TO.N,/VBUCK*%
X116250000Y-123117500D03*
%TD*%
D59*
%TO.P,J12,1,VCC*%
%TO.N,/SIM_VCC*%
X133500000Y-119405000D03*
%TO.P,J12,2,RST*%
%TO.N,/SIM_RST*%
X133500000Y-116865000D03*
%TO.P,J12,3,CLK*%
%TO.N,/SIM_CLK*%
X133500000Y-114325000D03*
%TO.P,J12,5,GND*%
%TO.N,GND*%
X133500000Y-118135000D03*
%TO.P,J12,6,VPP*%
%TO.N,/SIM_VPP*%
X133500000Y-115595000D03*
%TO.P,J12,7,I/O*%
%TO.N,/SIM_DT*%
X133500000Y-113055000D03*
D60*
%TO.P,J12,CD*%
%TO.N,N/C*%
X146400000Y-122080000D03*
%TO.P,J12,SH,SH*%
%TO.N,GND*%
X137600000Y-122080000D03*
X137600000Y-110380000D03*
X146400000Y-110380000D03*
%TD*%
D16*
%TO.P,R11,1*%
%TO.N,GND*%
X81711960Y-71778051D03*
%TO.P,R11,2*%
%TO.N,Net-(J11-CC2)*%
X81711960Y-69953051D03*
%TD*%
D61*
%TO.P,L1,1,1*%
%TO.N,Net-(U10-SW)*%
X106877500Y-120182500D03*
%TO.P,L1,2,2*%
%TO.N,/VBUCK*%
X109177500Y-120182500D03*
%TD*%
D62*
%TO.P,J3,1*%
%TO.N,GND*%
X38100000Y-98729990D03*
%TO.P,J3,2*%
%TO.N,/CSI_D0-*%
X38100000Y-98229990D03*
%TO.P,J3,3*%
%TO.N,/CSI_D0+*%
X38100000Y-97729990D03*
%TO.P,J3,4*%
%TO.N,GND*%
X38100000Y-97229990D03*
%TO.P,J3,5*%
%TO.N,/CSI_D1-*%
X38100000Y-96729990D03*
%TO.P,J3,6*%
%TO.N,/CSI_D1+*%
X38100000Y-96229990D03*
%TO.P,J3,7*%
%TO.N,GND*%
X38100000Y-95729990D03*
%TO.P,J3,8*%
%TO.N,/CSI_CK-*%
X38100000Y-95229990D03*
%TO.P,J3,9*%
%TO.N,/CSI_CK+*%
X38100000Y-94729990D03*
%TO.P,J3,10*%
%TO.N,GND*%
X38100000Y-94229990D03*
%TO.P,J3,11*%
%TO.N,/CSI_D2-*%
X38100000Y-93729990D03*
%TO.P,J3,12*%
%TO.N,/CSI_D2+*%
X38100000Y-93229990D03*
%TO.P,J3,13*%
%TO.N,GND*%
X38100000Y-92729990D03*
%TO.P,J3,14*%
%TO.N,/CSI_D3-*%
X38100000Y-92229990D03*
%TO.P,J3,15*%
%TO.N,/CSI_D3+*%
X38100000Y-91729990D03*
%TO.P,J3,16*%
%TO.N,GND*%
X38100000Y-91229990D03*
%TO.P,J3,17*%
%TO.N,/CAM_EN*%
X38100000Y-90729990D03*
%TO.P,J3,18*%
%TO.N,unconnected-(J3-Pad18)*%
X38100000Y-90229990D03*
%TO.P,J3,19*%
%TO.N,GND*%
X38100000Y-89729990D03*
%TO.P,J3,20*%
%TO.N,/SCL1*%
X38100000Y-89229990D03*
%TO.P,J3,21*%
%TO.N,/SDA1*%
X38100000Y-88729990D03*
%TO.P,J3,22*%
%TO.N,/3V3*%
X38100000Y-88229990D03*
D63*
%TO.P,J3,P1*%
%TO.N,GND*%
X35400000Y-101029980D03*
%TO.P,J3,P2*%
X35400000Y-85930000D03*
%TD*%
D21*
%TO.P,C6,1*%
%TO.N,GND*%
X73124739Y-105431765D03*
%TO.P,C6,2*%
%TO.N,Net-(U2-XTALO)*%
X75024739Y-105431765D03*
%TD*%
D14*
%TO.P,C11,1*%
%TO.N,GND*%
X83230000Y-94580000D03*
%TO.P,C11,2*%
%TO.N,VDD33*%
X83230000Y-96480000D03*
%TD*%
D24*
%TO.P,R21,1*%
%TO.N,Net-(Q3-B)*%
X40150000Y-122040000D03*
%TO.P,R21,2*%
%TO.N,/1V8*%
X38325000Y-122040000D03*
%TD*%
D64*
%TO.P,D1,1,K*%
%TO.N,Net-(D1-K)*%
X85350000Y-74807500D03*
%TO.P,D1,2,A*%
%TO.N,/5V-VBUS*%
X85350000Y-81357500D03*
%TD*%
D22*
%TO.P,J8,1,~{WAKE}*%
%TO.N,unconnected-(J8-~{WAKE}-Pad1)*%
X124651272Y-128386408D03*
%TO.P,J8,2,+3V3AUX*%
%TO.N,/VBUCK*%
X132851272Y-128786408D03*
%TO.P,J8,3,COEX1*%
%TO.N,unconnected-(J8-COEX1-Pad3)*%
X124651272Y-129186408D03*
%TO.P,J8,4,GND*%
%TO.N,GND*%
X132851272Y-129586408D03*
%TO.P,J8,5,COEX2*%
%TO.N,unconnected-(J8-COEX2-Pad5)*%
X124651272Y-129986408D03*
%TO.P,J8,6,+1V5*%
%TO.N,unconnected-(J8-+1V5-Pad6)*%
X132851272Y-130386408D03*
%TO.P,J8,7,~{CLKREQ}*%
%TO.N,unconnected-(J8-~{CLKREQ}-Pad7)*%
X124651272Y-130786408D03*
%TO.P,J8,8,UIM_PWR*%
%TO.N,/SIM_VCC*%
X132851272Y-131186408D03*
%TO.P,J8,9,GND*%
%TO.N,GND*%
X124651272Y-131586408D03*
%TO.P,J8,10,UIM_DATA*%
%TO.N,/SIM_DT*%
X132851272Y-131986408D03*
%TO.P,J8,11,REFCLK-*%
%TO.N,/SOC_GPIO_101_PPS*%
X124651272Y-132386408D03*
%TO.P,J8,12,UIM_CLK*%
%TO.N,/SIM_CLK*%
X132851272Y-132786408D03*
%TO.P,J8,13,REFCLK+*%
%TO.N,unconnected-(J8-REFCLK+-Pad13)*%
X124651272Y-133186408D03*
%TO.P,J8,14,~{UIM_RESET}*%
%TO.N,/SIM_RST*%
X132851272Y-133586408D03*
%TO.P,J8,15,GND*%
%TO.N,GND*%
X124651272Y-133986408D03*
%TO.P,J8,16,UIM_VPP*%
%TO.N,/SIM_VPP*%
X132851272Y-134386408D03*
%TO.P,J8,17,UIM_C8*%
%TO.N,unconnected-(J8-UIM_C8-Pad17)*%
X124651272Y-137986408D03*
%TO.P,J8,18,GND*%
%TO.N,GND*%
X132851272Y-138386408D03*
%TO.P,J8,19,UIM_C4*%
%TO.N,unconnected-(J8-UIM_C4-Pad19)*%
X124651272Y-138786408D03*
%TO.P,J8,20,~{W_DISABLE}*%
%TO.N,Net-(J8-~{W_DISABLE})*%
X132851272Y-139186408D03*
%TO.P,J8,21,GND*%
%TO.N,GND*%
X124651272Y-139586408D03*
%TO.P,J8,22,~{PERST}*%
%TO.N,/VBUCK*%
X132851272Y-139986408D03*
%TO.P,J8,23,PERn0*%
%TO.N,unconnected-(J8-PERn0-Pad23)*%
X124651272Y-140386408D03*
%TO.P,J8,24,+3V3AUX*%
%TO.N,/VBUCK*%
X132851272Y-140786408D03*
%TO.P,J8,25,PERp0*%
%TO.N,unconnected-(J8-PERp0-Pad25)*%
X124651272Y-141186408D03*
%TO.P,J8,26,GND*%
%TO.N,GND*%
X132851272Y-141586408D03*
%TO.P,J8,27,GND*%
X124651272Y-141986408D03*
%TO.P,J8,28,+1V5*%
%TO.N,unconnected-(J8-+1V5-Pad28)*%
X132851272Y-142386408D03*
%TO.P,J8,29,GND*%
%TO.N,GND*%
X124651272Y-142786408D03*
%TO.P,J8,30,SMB_CLK*%
%TO.N,unconnected-(J8-SMB_CLK-Pad30)*%
X132851272Y-143186408D03*
%TO.P,J8,31,PETn0*%
%TO.N,unconnected-(J8-PETn0-Pad31)*%
X124651272Y-143586408D03*
%TO.P,J8,32,SMB_DATA*%
%TO.N,unconnected-(J8-SMB_DATA-Pad32)*%
X132851272Y-143986408D03*
%TO.P,J8,33,PETp0*%
%TO.N,unconnected-(J8-PETp0-Pad33)*%
X124651272Y-144386408D03*
%TO.P,J8,34,GND*%
%TO.N,GND*%
X132851272Y-144786408D03*
%TO.P,J8,35,GND*%
X124651272Y-145186408D03*
%TO.P,J8,36,USB_D-*%
%TO.N,/LTE_D-*%
X132851272Y-145586408D03*
%TO.P,J8,37,GND*%
%TO.N,GND*%
X124651272Y-145986408D03*
%TO.P,J8,38,USB_D+*%
%TO.N,/LTE_D+*%
X132851272Y-146386408D03*
%TO.P,J8,39,+3V3AUX*%
%TO.N,/VBUCK*%
X124651272Y-146786408D03*
%TO.P,J8,40,GND*%
%TO.N,GND*%
X132851272Y-147186408D03*
%TO.P,J8,41,+3V3AUX*%
%TO.N,/VBUCK*%
X124651272Y-147586408D03*
%TO.P,J8,42,~{LED_WWAN}*%
%TO.N,unconnected-(J8-~{LED_WWAN}-Pad42)*%
X132851272Y-147986408D03*
%TO.P,J8,43,GND*%
%TO.N,GND*%
X124651272Y-148386408D03*
%TO.P,J8,44,~{LED_WLAN}*%
%TO.N,unconnected-(J8-~{LED_WLAN}-Pad44)*%
X132851272Y-148786408D03*
%TO.P,J8,45,Reserved*%
%TO.N,unconnected-(J8-Reserved-Pad45)*%
X124651272Y-149186408D03*
%TO.P,J8,46,~{LED_WPAN}*%
%TO.N,unconnected-(J8-~{LED_WPAN}-Pad46)*%
X132851272Y-149586408D03*
%TO.P,J8,47,Reserved*%
%TO.N,unconnected-(J8-Reserved-Pad47)*%
X124651272Y-149986408D03*
%TO.P,J8,48,+1V5*%
%TO.N,unconnected-(J8-+1V5-Pad48)*%
X132851272Y-150386408D03*
%TO.P,J8,49,Reserved*%
%TO.N,unconnected-(J8-Reserved-Pad49)*%
X124651272Y-150786408D03*
%TO.P,J8,50,GND*%
%TO.N,GND*%
X132851272Y-151186408D03*
%TO.P,J8,51,Reserved*%
X124651272Y-151586408D03*
%TO.P,J8,52,+3V3AUX*%
%TO.N,/VBUCK*%
X132851272Y-151986408D03*
D23*
%TO.P,J8,P1*%
%TO.N,N/C*%
X125251272Y-125536408D03*
%TO.P,J8,P2*%
X125251272Y-154836408D03*
%TD*%
D65*
%TO.N,/MCU_PE8_LED*%
X96460000Y-77750000D03*
X165210000Y-108510000D03*
%TO.N,/SOC_GPIO_18_PWM_LED*%
X107310000Y-101290000D03*
X58710000Y-109850000D03*
X107430000Y-113270000D03*
X107210000Y-105190000D03*
%TO.N,/3V3*%
X41000000Y-105200000D03*
X42050000Y-111690000D03*
%TO.N,VDD33*%
X78370000Y-110440000D03*
X84820000Y-109660000D03*
X78270000Y-123150000D03*
X91750000Y-121140000D03*
X88340000Y-121120000D03*
%TO.N,VDD12*%
X88900000Y-107550000D03*
X81000000Y-96380000D03*
%TO.N,/DN2_D+*%
X68570521Y-119679479D03*
X69485000Y-149672574D03*
%TO.N,/DN2_RX-*%
X72485000Y-122700000D03*
X72485000Y-149708957D03*
%TO.N,/DN2_RX+*%
X71635000Y-122700000D03*
X71635000Y-149708957D03*
%TO.N,/DN2_D-*%
X67969479Y-120280521D03*
X68635000Y-149672574D03*
%TO.N,/DN3_D+*%
X92354641Y-149443812D03*
X79110521Y-124229479D03*
%TO.N,/DN3_RX+*%
X94829479Y-149730521D03*
X83479479Y-126170521D03*
%TO.N,/DN3_RX-*%
X95430521Y-149129479D03*
X84080521Y-125569479D03*
%TO.N,/DN3_D-*%
X91753599Y-150044854D03*
X78509479Y-124830521D03*
%TO.N,/SCL*%
X48500000Y-106760000D03*
X49980000Y-84900000D03*
%TO.N,/DSI_CK-*%
X61710000Y-71670000D03*
%TO.N,/DSI_D3+*%
X61970000Y-80140000D03*
%TO.N,/DSI_D2+*%
X61700000Y-76330000D03*
%TO.N,/DSI_CK+*%
X61710000Y-72520000D03*
%TO.N,/DSI_D1+*%
X35998684Y-72617137D03*
%TO.N,/DSI_D1-*%
X35998684Y-73467137D03*
%TO.N,/SDA*%
X48500000Y-103830000D03*
X49230000Y-84270000D03*
%TO.N,/DSI_D3-*%
X61970000Y-79290000D03*
%TO.N,/DSI_D0-*%
X34109479Y-74100521D03*
%TO.N,/DSI_D0+*%
X34710521Y-73499479D03*
%TO.N,/DSI_D2-*%
X61700000Y-75480000D03*
%TO.N,/MCU_OPAMP1_VINP {slash} PA0*%
X96550000Y-83030000D03*
%TO.N,/MCU_TRACE_D3 {slash} PE6*%
X96550000Y-75460000D03*
%TO.N,/MCU_TRACE_CLK {slash} PE2*%
X96545891Y-71809895D03*
%TO.N,/MCU_I2C4_SDA {slash} PF15*%
X96550000Y-80650000D03*
%TO.N,/MCU_OPAMP1_VOUT {slash} PA3*%
X96550000Y-81800000D03*
%TO.N,/SOC_GPIO_98*%
X96740000Y-98160000D03*
%TO.N,/JOUT_5V*%
X95710000Y-104490000D03*
%TO.N,/SOC_GPIO_99*%
X96730000Y-99390000D03*
%TO.N,/MCU_OPAMP1_VINM {slash} PA1*%
X96550000Y-84310000D03*
%TO.N,/MCU_I2C4_SCL {slash} PF14*%
X96550000Y-79260000D03*
%TO.N,/MCU_TRACE_D2 {slash} PE5*%
X96550000Y-74090000D03*
%TO.N,/MCU_TRACE_D0 {slash} PE3*%
X96550000Y-72710000D03*
%TO.N,/SCL1*%
X39350000Y-89580000D03*
X48010000Y-104920000D03*
%TO.N,/DN4_D-*%
X112189479Y-155229479D03*
X111459479Y-153920521D03*
%TO.N,/DN4_D+*%
X112790521Y-155830521D03*
X112060521Y-153319479D03*
%TO.N,/SIM_CLK*%
X131141272Y-132370000D03*
X131620000Y-114640000D03*
%TO.N,/LTE_D+*%
X72839479Y-114369479D03*
X128601793Y-147306929D03*
%TO.N,/LTE_D-*%
X128000751Y-146705887D03*
X73440521Y-114970521D03*
%TO.N,/SIM_DT*%
X131530000Y-113070000D03*
X134548105Y-131538105D03*
%TO.N,Net-(J8-~{W_DISABLE})*%
X135291272Y-138126408D03*
X120730000Y-118600000D03*
%TO.N,/UP_D+*%
X84640000Y-104645000D03*
X40080521Y-138259479D03*
%TO.N,/UP_D-*%
X39479479Y-138860521D03*
X84640000Y-103795000D03*
%TO.N,/UP_RX-*%
X80679479Y-105329479D03*
X42139658Y-138630775D03*
%TO.N,/UP_RX+*%
X81280521Y-105930521D03*
X42139658Y-139480775D03*
%TO.N,/UP_TX-*%
X80740000Y-103195000D03*
X37585521Y-139354479D03*
%TO.N,/UP_TX+*%
X80740000Y-102345000D03*
X36984479Y-139955521D03*
%TO.N,/UP_VBUS*%
X91040000Y-120160000D03*
X52480000Y-142300000D03*
%TO.N,/PRT_CTL3*%
X85470000Y-136260000D03*
X89290000Y-119810000D03*
%TO.N,/PRT_CTL2*%
X64900000Y-135440000D03*
X90100000Y-118210000D03*
%TO.N,/SOC_GPIO_101_PPS*%
X97120000Y-102570000D03*
X122230000Y-131840000D03*
%TO.N,/SOC_GPIO_100_PRST_LTE*%
X117760000Y-121770000D03*
X96730000Y-101070000D03*
%TO.N,/MCU_PE7_LR*%
X138870000Y-80410000D03*
X96570000Y-76660000D03*
%TD*%
D66*
%TO.N,/3V3-VBUS-2*%
X146710000Y-102490000D02*
X146410000Y-102190000D01*
X160150000Y-102490000D02*
X146710000Y-102490000D01*
X160150000Y-105110000D02*
X160150000Y-102490000D01*
%TO.N,Net-(Q2-B)*%
X164687500Y-105040000D02*
X162045000Y-105040000D01*
%TO.N,/MCU_PE8_LED*%
X96520000Y-77810000D02*
X99760000Y-77810000D01*
X96460000Y-77750000D02*
X96520000Y-77810000D01*
X164687500Y-107987500D02*
X165210000Y-108510000D01*
X164687500Y-106940000D02*
X164687500Y-107987500D01*
%TO.N,Net-(LED1-DI)*%
X163750000Y-105990000D02*
X166562500Y-105990000D01*
X163032500Y-106707500D02*
X163750000Y-105990000D01*
X163032500Y-109520000D02*
X163032500Y-106707500D01*
X163032500Y-111097500D02*
X163032500Y-109520000D01*
X162500000Y-111630000D02*
X163032500Y-111097500D01*
X162500000Y-112740000D02*
X162500000Y-111630000D01*
%TO.N,/5V-VBUS*%
X159120000Y-111010000D02*
X159120000Y-109500000D01*
X157600000Y-112530000D02*
X159120000Y-111010000D01*
X157600000Y-112740000D02*
X157600000Y-112530000D01*
X161187500Y-109500000D02*
X161207500Y-109520000D01*
X159120000Y-109500000D02*
X161187500Y-109500000D01*
%TO.N,Net-(LED2-DI)*%
X42576948Y-121910000D02*
X44880000Y-121910000D01*
X39350000Y-125136948D02*
X42576948Y-121910000D01*
X39350000Y-126530000D02*
X39350000Y-125136948D01*
%TO.N,/SOC_GPIO_18_PWM_LED*%
X47270000Y-118141948D02*
X55561948Y-109850000D01*
X47270000Y-122160000D02*
X47270000Y-118141948D01*
X43005000Y-122860000D02*
X46570000Y-122860000D01*
X46570000Y-122860000D02*
X47270000Y-122160000D01*
X55561948Y-109850000D02*
X58710000Y-109850000D01*
%TO.N,/1V8*%
X38270000Y-118690000D02*
X35930000Y-116350000D01*
X38270000Y-119530000D02*
X38270000Y-118690000D01*
X35930000Y-116350000D02*
X35930000Y-114530000D01*
X38325000Y-119585000D02*
X38270000Y-119530000D01*
X38325000Y-122040000D02*
X38325000Y-119585000D01*
%TO.N,Net-(Q3-B)*%
X41870000Y-120960000D02*
X40790000Y-122040000D01*
X40790000Y-122040000D02*
X40150000Y-122040000D01*
X43005000Y-120960000D02*
X41870000Y-120960000D01*
%TO.N,/SOC_GPIO_18_PWM_LED*%
X106690000Y-100670000D02*
X103824000Y-100670000D01*
X107430000Y-105410000D02*
X107210000Y-105190000D01*
X107430000Y-113270000D02*
X107430000Y-105410000D01*
X107310000Y-101290000D02*
X106690000Y-100670000D01*
%TO.N,Net-(LED2-DI)*%
X35805000Y-123335000D02*
X35805000Y-122130000D01*
X39000000Y-126530000D02*
X35805000Y-123335000D01*
X39350000Y-126530000D02*
X39000000Y-126530000D01*
D67*
%TO.N,/5V-VBUS*%
X58660000Y-130400000D02*
X58660000Y-126660000D01*
X58660000Y-126660000D02*
X58660000Y-111720000D01*
D68*
X57370000Y-127950000D02*
X35870000Y-127950000D01*
X58660000Y-126660000D02*
X57370000Y-127950000D01*
D67*
X62780000Y-107600000D02*
X62780000Y-105750000D01*
D68*
X35870000Y-127950000D02*
X34450000Y-126530000D01*
D67*
X58660000Y-111720000D02*
X62780000Y-107600000D01*
D66*
X33980000Y-126060000D02*
X34450000Y-126530000D01*
X33980000Y-122130000D02*
X33980000Y-126060000D01*
X33970000Y-119490000D02*
X33970000Y-122120000D01*
X33970000Y-122120000D02*
X33980000Y-122130000D01*
D69*
%TO.N,Net-(U2-XTALI{slash}CLK_IN)*%
X75160000Y-108030000D02*
X75055000Y-108135000D01*
X78804254Y-108030000D02*
X77220000Y-108030000D01*
X80434254Y-113260000D02*
X80434254Y-109660000D01*
X80434254Y-109660000D02*
X78804254Y-108030000D01*
X77220000Y-108030000D02*
X75160000Y-108030000D01*
D66*
%TO.N,/3V3*%
X53500000Y-105750000D02*
X49240000Y-105750000D01*
X50510000Y-107020000D02*
X49240000Y-105750000D01*
X46010000Y-109820000D02*
X47710000Y-109820000D01*
X44140000Y-111690000D02*
X46010000Y-109820000D01*
X47710000Y-109820000D02*
X50510000Y-107020000D01*
X44130000Y-111700000D02*
X44140000Y-111690000D01*
X43700000Y-114530000D02*
X38230000Y-114530000D01*
X36540000Y-100740000D02*
X41000000Y-105200000D01*
X38100000Y-88229990D02*
X37224325Y-88229990D01*
X42050000Y-111690000D02*
X44140000Y-111690000D01*
X44130000Y-114120000D02*
X44110000Y-114120000D01*
X44110000Y-114120000D02*
X43700000Y-114530000D01*
X36540000Y-88914315D02*
X36540000Y-100740000D01*
X46197647Y-105750000D02*
X46165769Y-105781878D01*
X44130000Y-114120000D02*
X44130000Y-111700000D01*
X53500000Y-107020000D02*
X50510000Y-107020000D01*
X49240000Y-105750000D02*
X46197647Y-105750000D01*
X37224325Y-88229990D02*
X36540000Y-88914315D01*
D69*
%TO.N,Net-(U2-XTALO)*%
X77220000Y-105530000D02*
X75122974Y-105530000D01*
X77220000Y-105545746D02*
X77220000Y-105530000D01*
X75122974Y-105530000D02*
X75024739Y-105431765D01*
X80834254Y-109160000D02*
X77220000Y-105545746D01*
X80834254Y-113260000D02*
X80834254Y-109160000D01*
D70*
%TO.N,VDD33*%
X91750000Y-121130000D02*
X94530000Y-118350000D01*
X84434254Y-110930000D02*
X88694254Y-106670000D01*
D69*
X79074254Y-123150000D02*
X78270000Y-123150000D01*
D70*
X68590000Y-98630000D02*
X72660000Y-98630000D01*
X85950000Y-96480000D02*
X83230000Y-96480000D01*
X88694254Y-106670000D02*
X90070000Y-106670000D01*
X96350000Y-112190000D02*
X96350000Y-110740000D01*
D69*
X80034254Y-122190000D02*
X79074254Y-123150000D01*
D70*
X94300000Y-114930000D02*
X94090000Y-114930000D01*
D66*
X84434254Y-113260000D02*
X84434254Y-110930000D01*
D70*
X81130000Y-98580000D02*
X83230000Y-96480000D01*
X78944254Y-110380000D02*
X78430000Y-110380000D01*
X90260000Y-104530000D02*
X90260000Y-106480000D01*
X72710000Y-98580000D02*
X81130000Y-98580000D01*
X86160000Y-96270000D02*
X85950000Y-96480000D01*
X91750000Y-121140000D02*
X91750000Y-121130000D01*
D69*
X80034254Y-120130000D02*
X80034254Y-122190000D01*
D70*
X94572170Y-118350000D02*
X94905000Y-118017170D01*
X90070000Y-106670000D02*
X94880000Y-106670000D01*
X94530000Y-118350000D02*
X94572170Y-118350000D01*
D69*
X87589254Y-118495000D02*
X87954254Y-118860000D01*
X87954254Y-120734254D02*
X87954254Y-118860000D01*
D70*
X95560000Y-108980000D02*
X96350000Y-109770000D01*
X90260000Y-106480000D02*
X90070000Y-106670000D01*
X84434254Y-110045746D02*
X84434254Y-110930000D01*
X95560000Y-107350000D02*
X95560000Y-108280000D01*
X95830000Y-116460000D02*
X94300000Y-114930000D01*
X94905000Y-118017170D02*
X94905000Y-117975000D01*
X94905000Y-117975000D02*
X95830000Y-117050000D01*
X84820000Y-109660000D02*
X84434254Y-110045746D01*
X95560000Y-108280000D02*
X95560000Y-108980000D01*
X80034254Y-111470000D02*
X78944254Y-110380000D01*
X86160000Y-96270000D02*
X86160000Y-100430000D01*
D69*
X85669254Y-118495000D02*
X87589254Y-118495000D01*
X88340000Y-121120000D02*
X87954254Y-120734254D01*
D70*
X95830000Y-117050000D02*
X95830000Y-116460000D01*
X94090000Y-114930000D02*
X94090000Y-114450000D01*
D69*
X78430000Y-110380000D02*
X78370000Y-110440000D01*
D70*
X96350000Y-109770000D02*
X96350000Y-110740000D01*
D69*
X86160000Y-96270000D02*
X86090000Y-96270000D01*
D70*
X94090000Y-114450000D02*
X96350000Y-112190000D01*
D66*
X80034254Y-113260000D02*
X80034254Y-111470000D01*
D70*
X92460000Y-96270000D02*
X86160000Y-96270000D01*
X86160000Y-100430000D02*
X90260000Y-104530000D01*
X94880000Y-106670000D02*
X95560000Y-107350000D01*
D69*
%TO.N,VDD12*%
X79939254Y-119265000D02*
X79634254Y-119570000D01*
X79664254Y-114125000D02*
X82069254Y-114125000D01*
D70*
X84834254Y-113260000D02*
X89824254Y-108270000D01*
X89824254Y-108270000D02*
X91370000Y-108270000D01*
D69*
X78799254Y-118495000D02*
X79339254Y-118495000D01*
X82434254Y-113760000D02*
X82434254Y-113260000D01*
X79295746Y-118495000D02*
X79489254Y-118301492D01*
X85172762Y-117695000D02*
X84834254Y-117356492D01*
X84834254Y-113756492D02*
X84465746Y-114125000D01*
X79489254Y-115888508D02*
X79295746Y-115695000D01*
X84834254Y-113260000D02*
X84834254Y-113756492D01*
D70*
X80900000Y-96280000D02*
X78610000Y-96280000D01*
D69*
X79664254Y-115326492D02*
X79664254Y-114125000D01*
D70*
X89620000Y-108270000D02*
X88900000Y-107550000D01*
D69*
X82034254Y-119633508D02*
X81665746Y-119265000D01*
X84834254Y-120130000D02*
X84834254Y-117880000D01*
X85019254Y-117695000D02*
X85669254Y-117695000D01*
X84465746Y-114125000D02*
X82069254Y-114125000D01*
D70*
X72710000Y-96280000D02*
X68620000Y-96280000D01*
X89824254Y-108270000D02*
X89620000Y-108270000D01*
D69*
X79489254Y-118301492D02*
X79489254Y-115888508D01*
X79295746Y-115695000D02*
X79664254Y-115326492D01*
X84834254Y-117356492D02*
X84834254Y-113756492D01*
X78799254Y-118495000D02*
X79295746Y-118495000D01*
X81000000Y-96380000D02*
X80900000Y-96280000D01*
X84834254Y-117880000D02*
X85019254Y-117695000D01*
X85669254Y-117695000D02*
X85172762Y-117695000D01*
X82069254Y-114125000D02*
X82434254Y-113760000D01*
X79339254Y-118495000D02*
X79634254Y-118790000D01*
X81665746Y-119265000D02*
X79939254Y-119265000D01*
X79295746Y-115695000D02*
X78799254Y-115695000D01*
X82034254Y-120130000D02*
X82034254Y-119633508D01*
X79634254Y-118790000D02*
X79634254Y-119570000D01*
X79634254Y-119570000D02*
X79634254Y-120130000D01*
D70*
X78610000Y-96280000D02*
X72710000Y-96280000D01*
D67*
%TO.N,/5V-VBUS*%
X91020000Y-91680000D02*
X92460000Y-93120000D01*
X93280000Y-87360000D02*
X94860000Y-88940000D01*
D70*
X116719999Y-143940000D02*
X118080000Y-143940000D01*
D67*
X126250000Y-114540000D02*
X135450000Y-105340000D01*
X94860000Y-88940000D02*
X94860000Y-105801472D01*
X62210000Y-105750000D02*
X57564000Y-105750000D01*
X98360000Y-129750000D02*
X103870000Y-135260000D01*
X86220000Y-87800000D02*
X89320000Y-90900000D01*
X91020000Y-90900000D02*
X91020000Y-91680000D01*
X64190000Y-104340000D02*
X62780000Y-105750000D01*
X96160000Y-107200000D02*
X100730000Y-111770000D01*
X58895000Y-135365000D02*
X58660000Y-135130000D01*
X100730000Y-114540000D02*
X103140000Y-114540000D01*
X114650000Y-135260000D02*
X116719998Y-137329998D01*
X98360000Y-116910000D02*
X100730000Y-114540000D01*
X103140000Y-114540000D02*
X126250000Y-114540000D01*
X58660000Y-144860000D02*
X58660000Y-135130000D01*
X98360000Y-116910000D02*
X98360000Y-129750000D01*
X70990000Y-153020000D02*
X66820000Y-153020000D01*
X62780000Y-105750000D02*
X62210000Y-105750000D01*
X103870000Y-135260000D02*
X114650000Y-135260000D01*
X60230000Y-137510000D02*
X60230000Y-136700000D01*
D69*
X57564000Y-105750000D02*
X59990000Y-105750000D01*
D67*
X64190000Y-92130000D02*
X64190000Y-104340000D01*
X86220000Y-87360000D02*
X93280000Y-87360000D01*
X79950000Y-144060000D02*
X70990000Y-153020000D01*
X104117500Y-120612500D02*
X104117500Y-115517500D01*
X66820000Y-153020000D02*
X58660000Y-144860000D01*
X104117500Y-115517500D02*
X103140000Y-114540000D01*
X89320000Y-90900000D02*
X65420000Y-90900000D01*
D70*
X104117500Y-120612500D02*
X104117500Y-122912500D01*
D67*
X86220000Y-87360000D02*
X86220000Y-87800000D01*
D70*
X118080000Y-143940000D02*
X119010000Y-143010000D01*
D67*
X100730000Y-111770000D02*
X100730000Y-114540000D01*
X62210000Y-105750000D02*
X61910000Y-105750000D01*
D70*
X118160000Y-138590000D02*
X116789998Y-138590000D01*
D67*
X79950000Y-137070000D02*
X79950000Y-144060000D01*
X86220000Y-82227500D02*
X86220000Y-87360000D01*
D68*
X81820001Y-137070000D02*
X82120001Y-136770000D01*
D67*
X60230000Y-136700000D02*
X58676851Y-135146851D01*
X89320000Y-90900000D02*
X91020000Y-90900000D01*
X92460000Y-93120000D02*
X92460000Y-93970000D01*
D70*
X119010000Y-139440000D02*
X118160000Y-138590000D01*
D67*
X58660000Y-135130000D02*
X58660000Y-130400000D01*
D70*
X116719998Y-138660000D02*
X116719998Y-137329998D01*
D67*
X135450000Y-105340000D02*
X136860000Y-105340000D01*
D70*
X104217501Y-123012501D02*
X107147500Y-123012501D01*
D67*
X65420000Y-90900000D02*
X64190000Y-92130000D01*
D70*
X119010000Y-143010000D02*
X119010000Y-139440000D01*
D67*
X85350000Y-81357500D02*
X86220000Y-82227500D01*
X94860000Y-105801472D02*
X96160000Y-107101472D01*
X96160000Y-107101472D02*
X96160000Y-107200000D01*
D68*
X79950000Y-137070000D02*
X81820001Y-137070000D01*
D66*
%TO.N,/3V3-VBUS-2*%
X134640000Y-69940000D02*
X134640000Y-80340000D01*
X128290000Y-87190000D02*
X129490000Y-87190000D01*
X133850000Y-92390000D02*
X136490000Y-92390000D01*
X134640000Y-80340000D02*
X135490000Y-81190000D01*
X145560000Y-103040000D02*
X146410000Y-102190000D01*
X129490000Y-87190000D02*
X135490000Y-81190000D01*
X128290000Y-87990000D02*
X129450000Y-87990000D01*
X135490000Y-81190000D02*
X136490000Y-81190000D01*
X143160000Y-103040000D02*
X145560000Y-103040000D01*
X128290000Y-87190000D02*
X128290000Y-87990000D01*
X136860000Y-103040000D02*
X143160000Y-103040000D01*
X138160000Y-92390000D02*
X136490000Y-92390000D01*
X135390000Y-69190000D02*
X134640000Y-69940000D01*
X136490000Y-69190000D02*
X135390000Y-69190000D01*
X129450000Y-87990000D02*
X133850000Y-92390000D01*
X143160000Y-97390000D02*
X138160000Y-92390000D01*
X143160000Y-103040000D02*
X143160000Y-97390000D01*
D69*
%TO.N,/RST*%
X89069254Y-114095000D02*
X90555000Y-114095000D01*
X92500000Y-112130000D02*
X92500000Y-110750000D01*
X92500000Y-108540000D02*
X92770000Y-108270000D01*
X94525000Y-110740000D02*
X94525000Y-108645000D01*
X94150000Y-108270000D02*
X94160000Y-108280000D01*
X92770000Y-108270000D02*
X94150000Y-108270000D01*
X92500000Y-110750000D02*
X92500000Y-108540000D01*
X94525000Y-108645000D02*
X94160000Y-108280000D01*
X85669254Y-114095000D02*
X89069254Y-114095000D01*
X92510000Y-112140000D02*
X92500000Y-112130000D01*
X90555000Y-114095000D02*
X92510000Y-112140000D01*
D70*
%TO.N,/5V-VBUS-PRT-2*%
X64120000Y-144539998D02*
X61350002Y-141770000D01*
X61180000Y-138170002D02*
X61180000Y-136910000D01*
D69*
X63546851Y-133828026D02*
X63536851Y-133818026D01*
D70*
X66060000Y-145460000D02*
X65650000Y-145870000D01*
X60510000Y-141770000D02*
X60230000Y-141490000D01*
X61180000Y-136910000D02*
X63536851Y-134553149D01*
X64510000Y-145870000D02*
X64120000Y-145480000D01*
X60230000Y-140260000D02*
X60230000Y-139120002D01*
X60230000Y-139120002D02*
X61180000Y-138170002D01*
X64120000Y-145480000D02*
X64120000Y-144539998D01*
X61350002Y-141770000D02*
X60510000Y-141770000D01*
X60230000Y-141490000D02*
X60230000Y-140260000D01*
X65650000Y-145870000D02*
X64510000Y-145870000D01*
X66060000Y-144660000D02*
X66060000Y-145460000D01*
X63536851Y-133818026D02*
X63536851Y-130468026D01*
X63536851Y-134553149D02*
X63536851Y-133818026D01*
D69*
%TO.N,/5V-VBUS-PRT-3*%
X83150000Y-137350003D02*
X83140000Y-137340003D01*
X84720000Y-141280000D02*
X82650000Y-141280000D01*
X88600000Y-145420000D02*
X88190000Y-145830000D01*
X88190000Y-145830000D02*
X86940000Y-145830000D01*
X82120001Y-138380002D02*
X83150000Y-137350003D01*
X88600000Y-144600000D02*
X88600000Y-145420000D01*
X83140000Y-137340003D02*
X83140000Y-133940000D01*
X86940000Y-145830000D02*
X86750000Y-145640000D01*
X82120001Y-139520000D02*
X82120001Y-138380002D01*
X83190000Y-133940000D02*
X79990000Y-133940000D01*
X82650000Y-141280000D02*
X82120001Y-140750001D01*
X82120001Y-140750001D02*
X82120001Y-139520000D01*
X86750000Y-143310000D02*
X84720000Y-141280000D01*
X79990000Y-133940000D02*
X79980000Y-133930000D01*
X86750000Y-145640000D02*
X86750000Y-143310000D01*
%TO.N,/5V-VBUS-PRT-4*%
X112420000Y-138710000D02*
X112450000Y-138680000D01*
X110605000Y-154625000D02*
X112620000Y-156640000D01*
X110430000Y-150835000D02*
X110605000Y-151010000D01*
X105525000Y-147400000D02*
X105525000Y-148505000D01*
X112620000Y-156640000D02*
X112787144Y-156640000D01*
X116719999Y-141619998D02*
X116719999Y-141190000D01*
X110605000Y-151010000D02*
X110605000Y-154625000D01*
X116630000Y-148090000D02*
X116630000Y-146487500D01*
X115055000Y-154372144D02*
X115055000Y-151010000D01*
X110430000Y-149960018D02*
X110430000Y-150835000D01*
X115055000Y-151010000D02*
X115230000Y-150835000D01*
X112420000Y-141420000D02*
X112420000Y-140010000D01*
X116630000Y-146487500D02*
X115810000Y-145667500D01*
D66*
X112450000Y-139550000D02*
X112450000Y-138680000D01*
D69*
X115230000Y-150835000D02*
X115230000Y-149490000D01*
X109559982Y-149090000D02*
X110430000Y-149960018D01*
X105525000Y-148505000D02*
X106110000Y-149090000D01*
X115230000Y-149490000D02*
X116630000Y-148090000D01*
D66*
X116239999Y-140010000D02*
X112910000Y-140010000D01*
X112910000Y-140010000D02*
X112450000Y-139550000D01*
D69*
X115810000Y-142529997D02*
X116719999Y-141619998D01*
D66*
X116719999Y-141190000D02*
X116719999Y-140490000D01*
X116719999Y-140490000D02*
X116239999Y-140010000D01*
D69*
X115810000Y-145667500D02*
X115810000Y-142529997D01*
X112420000Y-140010000D02*
X112420000Y-138710000D01*
X106110000Y-149090000D02*
X109559982Y-149090000D01*
X112787144Y-156640000D02*
X115055000Y-154372144D01*
D66*
%TO.N,/DN2_TX1-*%
X65835000Y-140275000D02*
X65280000Y-139720000D01*
X65060000Y-144660000D02*
X65060000Y-143459999D01*
X65835000Y-142684999D02*
X65835000Y-140275000D01*
X65060000Y-143459999D02*
X65835000Y-142684999D01*
D69*
%TO.N,/DN2_TX-*%
X66240000Y-130098023D02*
X66670000Y-130098023D01*
X66150969Y-124294183D02*
X66264109Y-124181044D01*
X68289277Y-123794976D02*
X68515551Y-124021251D01*
X68044051Y-131163023D02*
X68044051Y-131003023D01*
X66670000Y-128498023D02*
X67509050Y-128498023D01*
X66670000Y-124961706D02*
X66150969Y-124442675D01*
X67543967Y-123049667D02*
X68137251Y-123642951D01*
X67282336Y-123162804D02*
X67395475Y-123049666D01*
X65400949Y-126898023D02*
X66135000Y-126898023D01*
X66670000Y-130468023D02*
X66240000Y-130468023D01*
X66135000Y-131698023D02*
X66670000Y-131698023D01*
X66670000Y-127268023D02*
X66135000Y-127268023D01*
X67509051Y-128868023D02*
X66670000Y-128868023D01*
X65295949Y-128763023D02*
X65295949Y-128603023D01*
X66670000Y-136860000D02*
X66670000Y-132603023D01*
X66135000Y-127268023D02*
X65400949Y-127268023D01*
X68137251Y-123642951D02*
X68289279Y-123794979D01*
X67309933Y-125078376D02*
X67903214Y-125671658D01*
X68027645Y-124056605D02*
X68027648Y-124056607D01*
X70924901Y-121463409D02*
X74278310Y-118110000D01*
X66670000Y-126363023D02*
X66670000Y-126203023D01*
X68044051Y-129563023D02*
X68044051Y-129403023D01*
X68659818Y-125671658D02*
X68772955Y-125558520D01*
X66240000Y-128868023D02*
X65400949Y-128868023D01*
X68772955Y-124801915D02*
X68179673Y-124208633D01*
X69791239Y-124540334D02*
X69904376Y-124427196D01*
X67550000Y-137740000D02*
X66670000Y-136860000D01*
X74278310Y-118110000D02*
X78784254Y-118110000D01*
X69385292Y-123003016D02*
X69498429Y-122889880D01*
X68044050Y-127963023D02*
X68044050Y-127803023D01*
X65295949Y-130363023D02*
X65295949Y-130203023D01*
X78799254Y-118095000D02*
X78784254Y-118110000D01*
X67875620Y-123904579D02*
X67282336Y-123311296D01*
X68289279Y-123794979D02*
X68289277Y-123794976D01*
X66670000Y-126203023D02*
X66670000Y-125718310D01*
X68027648Y-124056607D02*
X67875620Y-123904579D01*
X67157907Y-124926350D02*
X67157905Y-124926348D01*
X66240000Y-130468023D02*
X65400949Y-130468023D01*
X66670000Y-130098023D02*
X67509051Y-130098023D01*
X66670000Y-128868023D02*
X66240000Y-128868023D01*
X67509050Y-127268023D02*
X66670000Y-127268023D01*
X65400949Y-130098023D02*
X66240000Y-130098023D01*
X65400949Y-128498023D02*
X66240000Y-128498023D01*
X67157905Y-124926348D02*
X67309933Y-125078376D01*
X66670000Y-131698023D02*
X67509051Y-131698023D01*
X69904376Y-123670592D02*
X69385292Y-123151508D01*
X65295943Y-131963023D02*
X65295943Y-131803023D01*
X65295949Y-127163023D02*
X65295949Y-127003023D01*
X68179673Y-124208633D02*
X68027645Y-124056605D01*
X69498429Y-122889880D02*
X70924901Y-121463409D01*
X66412601Y-124181044D02*
X66931633Y-124700076D01*
X66931633Y-124700076D02*
X67157907Y-124926350D01*
X66135000Y-132068023D02*
X65400943Y-132068023D01*
X66240000Y-128498023D02*
X66670000Y-128498023D01*
X65400943Y-131698023D02*
X66135000Y-131698023D01*
X78784254Y-118110000D02*
X78055622Y-118110000D01*
X68515551Y-124021251D02*
X69034634Y-124540334D01*
X67509051Y-130468023D02*
X66670000Y-130468023D01*
X68772955Y-125558520D02*
G75*
G03*
X68772973Y-124801897I-378255J378320D01*
G01*
X65295949Y-127003023D02*
G75*
G02*
X65400949Y-126898049I104951J23D01*
G01*
X67509050Y-128498023D02*
G75*
G03*
X68044023Y-127963023I-50J535023D01*
G01*
X67509051Y-130098023D02*
G75*
G03*
X68044123Y-129563023I49J535023D01*
G01*
X65400943Y-132068023D02*
G75*
G02*
X65295877Y-131963023I-43J105023D01*
G01*
X67395475Y-123049666D02*
G75*
G02*
X67543946Y-123049687I74225J-74234D01*
G01*
X66670000Y-132603023D02*
G75*
G03*
X66135000Y-132068000I-535000J23D01*
G01*
X67903214Y-125671658D02*
G75*
G03*
X68659818Y-125671658I378302J378301D01*
G01*
X65400949Y-127268023D02*
G75*
G02*
X65295877Y-127163023I-49J105023D01*
G01*
X66150969Y-124442675D02*
G75*
G02*
X66150940Y-124294154I74231J74275D01*
G01*
X67282336Y-123311296D02*
G75*
G02*
X67282386Y-123162854I74264J74196D01*
G01*
X67509051Y-131698023D02*
G75*
G03*
X68044123Y-131163023I49J535023D01*
G01*
X65295949Y-128603023D02*
G75*
G02*
X65400949Y-128498049I104951J23D01*
G01*
X65400949Y-128868023D02*
G75*
G02*
X65295877Y-128763023I-49J105023D01*
G01*
X65400949Y-130468023D02*
G75*
G02*
X65295877Y-130363023I-49J105023D01*
G01*
X69385292Y-123151508D02*
G75*
G02*
X69385330Y-123003054I74208J74208D01*
G01*
X65295949Y-130203023D02*
G75*
G02*
X65400949Y-130098049I104951J23D01*
G01*
X66670000Y-125718310D02*
G75*
G03*
X66670008Y-124961698I-378300J378310D01*
G01*
X69034634Y-124540334D02*
G75*
G03*
X69791239Y-124540335I378303J378303D01*
G01*
X66264109Y-124181044D02*
G75*
G02*
X66412601Y-124181044I74246J-74245D01*
G01*
X68044051Y-131003023D02*
G75*
G03*
X67509051Y-130468049I-534951J23D01*
G01*
X68044051Y-129403023D02*
G75*
G03*
X67509051Y-128868049I-534951J23D01*
G01*
X65295943Y-131803023D02*
G75*
G02*
X65400943Y-131698043I104957J23D01*
G01*
X69904376Y-124427196D02*
G75*
G03*
X69904370Y-123670598I-378276J378296D01*
G01*
X66135000Y-126898023D02*
G75*
G03*
X66670023Y-126363023I0J535023D01*
G01*
X68044050Y-127803023D02*
G75*
G03*
X67509050Y-127267950I-535050J23D01*
G01*
%TO.N,/DN2_TX+*%
X66240000Y-129668023D02*
X66670000Y-129668023D01*
X69487183Y-124236278D02*
X69600320Y-124123140D01*
X67461963Y-124622295D02*
X67461960Y-124622293D01*
X66670000Y-131268023D02*
X67509051Y-131268023D01*
X78784254Y-117680000D02*
X77877510Y-117680000D01*
X66135000Y-127698023D02*
X65400949Y-127698023D01*
X64865949Y-128763023D02*
X64865949Y-128603023D01*
X68355763Y-125367602D02*
X68468900Y-125254464D01*
X66240000Y-129298023D02*
X65400949Y-129298023D01*
X65400949Y-126468023D02*
X66135000Y-126468023D01*
X66670000Y-128068023D02*
X67509050Y-128068023D01*
X66240000Y-128068023D02*
X66670000Y-128068023D01*
X66670000Y-129668023D02*
X67509051Y-129668023D01*
X66365946Y-125265761D02*
X65846915Y-124746730D01*
X66240000Y-130898023D02*
X65400949Y-130898023D01*
X66240000Y-126203023D02*
X66240000Y-125540198D01*
X65400943Y-131268023D02*
X66135000Y-131268023D01*
X66670000Y-127698023D02*
X66135000Y-127698023D01*
X67848023Y-122745611D02*
X68441307Y-123338895D01*
X64865943Y-131963023D02*
X64865943Y-131803023D01*
X66240000Y-136860000D02*
X66240000Y-132603023D01*
X67723590Y-124360661D02*
X67723591Y-124360664D01*
X67509051Y-129298023D02*
X66670000Y-129298023D01*
X66670000Y-130898023D02*
X66240000Y-130898023D01*
X65846915Y-123990126D02*
X65960053Y-123876989D01*
X67614051Y-129563023D02*
X67614051Y-129403023D01*
X64865949Y-127163023D02*
X64865949Y-127003023D01*
X68441307Y-123338895D02*
X68593335Y-123490923D01*
X65280000Y-137820000D02*
X66240000Y-136860000D01*
X68593332Y-123490921D02*
X68819607Y-123717195D01*
X68593335Y-123490923D02*
X68593332Y-123490921D01*
X67461960Y-124622293D02*
X67613988Y-124774321D01*
X64865949Y-130363023D02*
X64865949Y-130203023D01*
X67723591Y-124360664D02*
X67571563Y-124208636D01*
X74100198Y-117680000D02*
X78784254Y-117680000D01*
X67235689Y-124396021D02*
X67461963Y-124622295D01*
X78799254Y-117695000D02*
X78784254Y-117680000D01*
X67614051Y-131163023D02*
X67614051Y-131003023D01*
X69194373Y-122585824D02*
X70620845Y-121159353D01*
X66240000Y-125540198D02*
X66365945Y-125414255D01*
X66978280Y-122858748D02*
X67091419Y-122745610D01*
X65400949Y-129668023D02*
X66240000Y-129668023D01*
X69600320Y-123974648D02*
X69081236Y-123455564D01*
X65400949Y-128068023D02*
X66240000Y-128068023D01*
X70620845Y-121159353D02*
X74100198Y-117680000D01*
X66716657Y-123876989D02*
X67235689Y-124396021D01*
X67613988Y-124774321D02*
X68207270Y-125367602D01*
X69081236Y-122698960D02*
X69194373Y-122585824D01*
X67571563Y-124208636D02*
X66978280Y-123615352D01*
X66240000Y-126363023D02*
X66240000Y-126203023D01*
X67509050Y-127698023D02*
X66670000Y-127698023D01*
X67614050Y-127963023D02*
X67614050Y-127803023D01*
X68468900Y-125105971D02*
X67875618Y-124512689D01*
X67875618Y-124512689D02*
X67723590Y-124360661D01*
X68819607Y-123717195D02*
X69338690Y-124236278D01*
X66135000Y-132498023D02*
X65400943Y-132498023D01*
X66135000Y-131268023D02*
X66670000Y-131268023D01*
X66670000Y-129298023D02*
X66240000Y-129298023D01*
X67509051Y-130898023D02*
X66670000Y-130898023D01*
X69600320Y-124123140D02*
G75*
G03*
X69600314Y-123974654I-74220J74240D01*
G01*
X69081236Y-123455564D02*
G75*
G02*
X69081274Y-122698998I378264J378264D01*
G01*
X68207270Y-125367602D02*
G75*
G03*
X68355763Y-125367603I74247J74250D01*
G01*
X66135000Y-126468023D02*
G75*
G03*
X66240023Y-126363023I0J105023D01*
G01*
X65400949Y-127698023D02*
G75*
G02*
X64865877Y-127163023I-49J535023D01*
G01*
X65400949Y-129298023D02*
G75*
G02*
X64865877Y-128763023I-49J535023D01*
G01*
X64865943Y-131803023D02*
G75*
G02*
X65400943Y-131268043I534957J23D01*
G01*
X67091419Y-122745610D02*
G75*
G02*
X67848002Y-122745631I378281J-378290D01*
G01*
X65400943Y-132498023D02*
G75*
G02*
X64865877Y-131963023I-43J535023D01*
G01*
X64865949Y-127003023D02*
G75*
G02*
X65400949Y-126468049I534951J23D01*
G01*
X66365945Y-125414255D02*
G75*
G03*
X66365954Y-125265754I-74245J74255D01*
G01*
X67614051Y-129403023D02*
G75*
G03*
X67509051Y-129298049I-104951J23D01*
G01*
X64865949Y-128603023D02*
G75*
G02*
X65400949Y-128068049I534951J23D01*
G01*
X64865949Y-130203023D02*
G75*
G02*
X65400949Y-129668049I534951J23D01*
G01*
X65846915Y-124746730D02*
G75*
G02*
X65846887Y-123990098I378285J378330D01*
G01*
X67509051Y-131268023D02*
G75*
G03*
X67614123Y-131163023I49J105023D01*
G01*
X65400949Y-130898023D02*
G75*
G02*
X64865877Y-130363023I-49J535023D01*
G01*
X66978280Y-123615352D02*
G75*
G02*
X66978330Y-122858798I378320J378252D01*
G01*
X65960053Y-123876989D02*
G75*
G02*
X66716657Y-123876989I378302J-378301D01*
G01*
X69338690Y-124236278D02*
G75*
G03*
X69487183Y-124236279I74247J74250D01*
G01*
X67509050Y-128068023D02*
G75*
G03*
X67614023Y-127963023I-50J105023D01*
G01*
X66240000Y-132603023D02*
G75*
G03*
X66135000Y-132498000I-105000J23D01*
G01*
X67614050Y-127803023D02*
G75*
G03*
X67509050Y-127697950I-105050J23D01*
G01*
X67509051Y-129668023D02*
G75*
G03*
X67614123Y-129563023I49J105023D01*
G01*
X68468900Y-125254464D02*
G75*
G03*
X68468918Y-125105953I-74200J74264D01*
G01*
X67614051Y-131003023D02*
G75*
G03*
X67509051Y-130898049I-104951J23D01*
G01*
D66*
%TO.N,/DN2_TX1+*%
X66285000Y-140905000D02*
X67550000Y-139640000D01*
X67060000Y-144660000D02*
X67060000Y-143459999D01*
X67060000Y-143459999D02*
X66285000Y-142684999D01*
X66285000Y-142684999D02*
X66285000Y-140905000D01*
D69*
%TO.N,/DN3_TX+*%
X82739446Y-130125684D02*
X84313465Y-128551662D01*
X83999513Y-132162151D02*
X83884961Y-132047599D01*
X85618078Y-129538079D02*
X85618077Y-129538077D01*
X85522616Y-129124419D02*
X85363518Y-129283517D01*
X87351196Y-127664951D02*
X87236644Y-127550399D01*
X82853998Y-131016636D02*
X82739446Y-130902084D01*
X88496710Y-128810466D02*
X88382158Y-128695914D01*
X85458980Y-129697177D02*
X85618078Y-129538079D01*
X84631661Y-128233464D02*
X86205681Y-126659443D01*
X85363518Y-129283517D02*
X85204419Y-129442615D01*
X85204419Y-129442615D02*
X83630398Y-131016636D01*
X87096637Y-127550399D02*
X85522616Y-129124419D01*
X84218002Y-128138002D02*
X84147999Y-128208006D01*
D66*
X86820000Y-137310000D02*
X86820000Y-136222499D01*
D69*
X81219254Y-125457452D02*
X81219254Y-120145000D01*
X84472562Y-128392562D02*
X84631661Y-128233464D01*
X88242151Y-128695914D02*
X86738134Y-130199930D01*
X86738134Y-130199930D02*
X86349934Y-130588130D01*
X86349934Y-130588130D02*
X84775913Y-132162151D01*
X81708483Y-129871121D02*
X81593931Y-129756569D01*
X85618077Y-129538077D02*
X85777176Y-129378979D01*
X84377101Y-127978904D02*
X84218003Y-128138002D01*
X86992694Y-131230892D02*
X86992694Y-131230891D01*
X85951122Y-126404884D02*
X84377101Y-127978904D01*
X84472563Y-128392564D02*
X84472562Y-128392562D01*
D66*
X86820000Y-136222499D02*
X87905000Y-135137499D01*
D69*
X84147999Y-128208006D02*
X83988900Y-128367104D01*
X87905000Y-132143198D02*
X86992694Y-131230892D01*
X85777176Y-129378979D02*
X87351196Y-127804958D01*
X84313465Y-128551662D02*
X84472563Y-128392564D01*
X86992694Y-130454490D02*
X88496710Y-128950473D01*
X86205681Y-126519436D02*
X86091129Y-126404884D01*
X82295776Y-126533974D02*
X81219254Y-125457452D01*
X83884961Y-131271199D02*
X85458980Y-129697177D01*
X83097947Y-127336145D02*
X82983396Y-127221593D01*
X83988900Y-128367104D02*
X82484883Y-129871121D01*
D66*
X87905000Y-135137499D02*
X87905000Y-132143198D01*
D69*
X84218003Y-128138002D02*
X84218002Y-128138002D01*
X82983396Y-127221593D02*
X82295776Y-126533974D01*
X81593931Y-128980169D02*
X83097946Y-127476151D01*
X82739446Y-130902084D02*
G75*
G02*
X82739462Y-130125700I388154J388184D01*
G01*
X83884961Y-132047599D02*
G75*
G02*
X83884962Y-131271200I388239J388199D01*
G01*
X88496710Y-128950473D02*
G75*
G03*
X88496680Y-128810497I-70010J69973D01*
G01*
X86091129Y-126404884D02*
G75*
G03*
X85951123Y-126404884I-70003J-70001D01*
G01*
X84775913Y-132162151D02*
G75*
G02*
X83999513Y-132162151I-388200J388199D01*
G01*
X81593931Y-129756569D02*
G75*
G02*
X81593962Y-128980200I388169J388169D01*
G01*
X83630398Y-131016636D02*
G75*
G02*
X82853998Y-131016636I-388200J388199D01*
G01*
X87236644Y-127550399D02*
G75*
G03*
X87096638Y-127550399I-70003J-70001D01*
G01*
X82484883Y-129871121D02*
G75*
G02*
X81708483Y-129871121I-388200J388199D01*
G01*
X83097946Y-127476151D02*
G75*
G03*
X83097995Y-127336098I-70046J70051D01*
G01*
X86205681Y-126659443D02*
G75*
G03*
X86205721Y-126519396I-69981J70043D01*
G01*
X87351196Y-127804958D02*
G75*
G03*
X87351151Y-127664997I-69996J69958D01*
G01*
X88382158Y-128695914D02*
G75*
G03*
X88242152Y-128695914I-70003J-70001D01*
G01*
X86992694Y-131230891D02*
G75*
G02*
X86992703Y-130454499I388206J388191D01*
G01*
%TO.N,/DN3_TX-*%
X83829801Y-127889808D02*
X83670703Y-128048907D01*
X83057642Y-130443880D02*
X84631661Y-128869858D01*
X83172193Y-130698438D02*
X83057641Y-130583886D01*
X85204420Y-128806223D02*
X85045322Y-128965321D01*
X83670703Y-128048907D02*
X82166686Y-129552924D01*
X84317708Y-131843953D02*
X84203156Y-131729401D01*
X88355000Y-131956802D02*
X87310892Y-130912694D01*
X86031736Y-130269933D02*
X84457716Y-131843954D01*
X84631661Y-128869858D02*
X84790759Y-128710760D01*
X85632926Y-126086688D02*
X84058905Y-127660708D01*
X85045320Y-128965320D02*
X84886221Y-129124418D01*
X85045322Y-128965321D02*
X85045320Y-128965320D01*
X86095372Y-129697176D02*
X87669393Y-128123155D01*
X84203157Y-131589395D02*
X85777176Y-130015373D01*
X87923955Y-128377717D02*
X86419938Y-129881733D01*
X85777176Y-130015373D02*
X85936274Y-129856275D01*
X86190835Y-130110835D02*
X86031736Y-130269933D01*
D66*
X89440000Y-136222499D02*
X88355000Y-135137499D01*
D69*
X82026678Y-129552923D02*
X81912126Y-129438371D01*
X88814907Y-128492269D02*
X88700355Y-128377717D01*
X84886221Y-129124418D02*
X83312201Y-130698439D01*
X84949857Y-128551661D02*
X86523878Y-126977640D01*
X86419938Y-129881733D02*
X86190835Y-130110835D01*
X83416143Y-127017947D02*
X83301593Y-126903396D01*
X83301593Y-126903396D02*
X82613974Y-126215776D01*
X87310891Y-130772687D02*
X88814907Y-129268670D01*
X86523878Y-126201240D02*
X86409326Y-126086688D01*
X83899805Y-127819805D02*
X83829801Y-127889808D01*
X87669393Y-127346755D02*
X87554841Y-127232203D01*
X83899807Y-127819806D02*
X83899805Y-127819805D01*
X87310892Y-130912694D02*
X87310891Y-130912694D01*
X84058905Y-127660708D02*
X83899807Y-127819806D01*
D66*
X89440000Y-137310000D02*
X89440000Y-136222499D01*
D69*
X81912127Y-129298365D02*
X83416142Y-127794347D01*
X84790759Y-128710760D02*
X84949857Y-128551661D01*
D66*
X88355000Y-135137499D02*
X88355000Y-131956802D01*
D69*
X82613974Y-126215776D02*
X81649254Y-125251056D01*
X81649254Y-125251056D02*
X81649254Y-120145000D01*
X86778441Y-127232203D02*
X85204420Y-128806223D01*
X85936274Y-129856275D02*
X86095372Y-129697176D01*
X83057641Y-130583886D02*
G75*
G02*
X83057658Y-130443897I69959J69986D01*
G01*
X84457716Y-131843954D02*
G75*
G02*
X84317696Y-131843966I-70016J70054D01*
G01*
X87669393Y-128123155D02*
G75*
G03*
X87669348Y-127346800I-388193J388155D01*
G01*
X86523878Y-126977640D02*
G75*
G03*
X86523918Y-126201200I-388178J388240D01*
G01*
X88700355Y-128377717D02*
G75*
G03*
X87923955Y-128377717I-388200J-388199D01*
G01*
X88814907Y-129268670D02*
G75*
G03*
X88814877Y-128492300I-388207J388170D01*
G01*
X86409326Y-126086688D02*
G75*
G03*
X85632926Y-126086688I-388200J-388199D01*
G01*
X87310891Y-130912694D02*
G75*
G02*
X87310900Y-130772696I70009J69994D01*
G01*
X82166686Y-129552924D02*
G75*
G02*
X82026695Y-129552906I-69986J70024D01*
G01*
X84203156Y-131729401D02*
G75*
G02*
X84203158Y-131589396I70044J70001D01*
G01*
X83312201Y-130698439D02*
G75*
G02*
X83172195Y-130698436I-70001J70039D01*
G01*
X83416142Y-127794347D02*
G75*
G03*
X83416190Y-127017901I-388242J388247D01*
G01*
X87554841Y-127232203D02*
G75*
G03*
X86778441Y-127232203I-388200J-388199D01*
G01*
X81912126Y-129438371D02*
G75*
G02*
X81912158Y-129298397I69974J69971D01*
G01*
D66*
%TO.N,Net-(U10-SW)*%
X106877500Y-120182500D02*
X107749899Y-121054899D01*
X107027500Y-126422500D02*
X107027500Y-125312500D01*
X106127500Y-123832500D02*
X106447500Y-123512500D01*
X107749899Y-123439901D02*
X107677300Y-123512500D01*
X106127500Y-124412500D02*
X106127500Y-123832500D01*
X107677300Y-123512500D02*
X107147500Y-123512500D01*
X107027500Y-125312500D02*
X106127500Y-124412500D01*
X106447500Y-123512500D02*
X107147500Y-123512500D01*
X107749899Y-121054899D02*
X107749899Y-123439901D01*
%TO.N,Net-(U10-BST)*%
X108927500Y-124095499D02*
X108844500Y-124012499D01*
X108927500Y-126422500D02*
X108927500Y-124095499D01*
D70*
%TO.N,/VBUCK*%
X131091272Y-151986408D02*
X132851272Y-151986408D01*
D66*
X112670000Y-120182500D02*
X112740000Y-120252500D01*
D70*
X132851272Y-139986408D02*
X131651272Y-139986408D01*
X116250000Y-123117500D02*
X116250000Y-120312500D01*
X126437500Y-120257500D02*
X118860000Y-120257500D01*
X109177500Y-120182500D02*
X112670000Y-120182500D01*
X132851272Y-128786408D02*
X132851272Y-126671272D01*
X131651272Y-139986408D02*
X130491272Y-138826408D01*
X112740000Y-120252500D02*
X118855000Y-120252500D01*
X112257500Y-125570000D02*
X112257500Y-120735000D01*
X125921272Y-147586408D02*
X126291272Y-147216408D01*
X130491272Y-138826408D02*
X130491272Y-129408728D01*
X126356272Y-145501408D02*
X131071272Y-140786408D01*
X126356272Y-147251408D02*
X131091272Y-151986408D01*
D66*
X116250000Y-120312500D02*
X116230000Y-120292500D01*
D70*
X126291272Y-147186408D02*
X125891272Y-146786408D01*
X131113592Y-128786408D02*
X132851272Y-128786408D01*
X131071272Y-140786408D02*
X132771272Y-140786408D01*
X132851272Y-126671272D02*
X126437500Y-120257500D01*
X130491272Y-129408728D02*
X131113592Y-128786408D01*
D66*
X118855000Y-120252500D02*
X118860000Y-120257500D01*
D70*
X113070000Y-126382500D02*
X112257500Y-125570000D01*
D69*
X124651272Y-147586408D02*
X125921272Y-147586408D01*
D70*
X112257500Y-120735000D02*
X112740000Y-120252500D01*
X126356272Y-147251408D02*
X126356272Y-145501408D01*
D69*
X125891272Y-146786408D02*
X124651272Y-146786408D01*
D67*
%TO.N,Net-(D1-K)*%
X79710000Y-74807500D02*
X85350000Y-74807500D01*
X79147500Y-75370000D02*
X79147500Y-81252500D01*
X79147500Y-75370000D02*
X79710000Y-74807500D01*
D66*
%TO.N,/DN2_D+*%
X68570521Y-119679479D02*
X68721562Y-119830520D01*
X70060000Y-144660000D02*
X70060000Y-143459999D01*
X69285000Y-146635001D02*
X69285000Y-149472574D01*
D69*
X70060000Y-143459999D02*
X69285000Y-142684999D01*
X70160000Y-139878751D02*
X70160000Y-139455000D01*
X69285000Y-141269561D02*
X70125000Y-140429561D01*
X70125000Y-139913751D02*
X70160000Y-139878751D01*
X78784254Y-116880000D02*
X73703606Y-116880000D01*
D66*
X69285000Y-149472574D02*
X69485000Y-149672574D01*
D69*
X78799254Y-116895000D02*
X78784254Y-116880000D01*
X73703606Y-116880000D02*
X70753086Y-119830520D01*
D66*
X70060000Y-145860001D02*
X69285000Y-146635001D01*
X70060000Y-144660000D02*
X70060000Y-145860001D01*
D69*
X69285000Y-142684999D02*
X69285000Y-141269561D01*
D66*
X68721562Y-119830520D02*
X70737528Y-119830520D01*
D69*
X70753086Y-119830520D02*
X70737528Y-119830520D01*
X70125000Y-140429561D02*
X70125000Y-139913751D01*
D66*
%TO.N,/DN2_RX-*%
X73060000Y-144660000D02*
X73060000Y-143459999D01*
X72285000Y-146635001D02*
X72285000Y-148710000D01*
X73060000Y-144660000D02*
X73060000Y-145860001D01*
X72285001Y-149508958D02*
X72485000Y-149708957D01*
D69*
X72285001Y-122500001D02*
X72285001Y-121384999D01*
X72285000Y-142684999D02*
X72285000Y-141315448D01*
X72285001Y-121384999D02*
X74348021Y-119321979D01*
X71625000Y-139913751D02*
X71660000Y-139878751D01*
D66*
X72285000Y-148710000D02*
X72285001Y-148710001D01*
X72285001Y-148710001D02*
X72285001Y-149508958D01*
D69*
X71625000Y-140655448D02*
X71625000Y-139913751D01*
X71660000Y-139878751D02*
X71660000Y-139455000D01*
X74348021Y-119321979D02*
X78615321Y-119321979D01*
X73060000Y-143459999D02*
X72285000Y-142684999D01*
X72285000Y-141315448D02*
X71625000Y-140655448D01*
X78620322Y-119326980D02*
X78799254Y-119326980D01*
D66*
X72485000Y-122700000D02*
X72285001Y-122500001D01*
D69*
X78615321Y-119321979D02*
X78620322Y-119326980D01*
D66*
X73060000Y-145860001D02*
X72285000Y-146635001D01*
D69*
%TO.N,/DN2_RX+*%
X71160000Y-139878751D02*
X71160000Y-139455000D01*
X71835000Y-141480000D02*
X71195000Y-140840000D01*
D66*
X71060000Y-145860001D02*
X71835000Y-146635001D01*
X71060000Y-144660000D02*
X71060000Y-143459999D01*
D69*
X71834999Y-121198607D02*
X74163607Y-118869999D01*
X78277761Y-118869999D02*
X78282762Y-118875000D01*
X71195000Y-139913751D02*
X71160000Y-139878751D01*
X71834999Y-122500001D02*
X71834999Y-121198607D01*
X78282762Y-118875000D02*
X78779254Y-118875000D01*
D66*
X71834999Y-148710001D02*
X71834999Y-149508958D01*
X71835000Y-148710000D02*
X71834999Y-148710001D01*
X71834999Y-149508958D02*
X71635000Y-149708957D01*
X71635000Y-122700000D02*
X71834999Y-122500001D01*
D69*
X71835000Y-142684999D02*
X71835000Y-141480000D01*
X71060000Y-143459999D02*
X71835000Y-142684999D01*
X71195000Y-140840000D02*
X71195000Y-139913751D01*
X78779254Y-118875000D02*
X78799254Y-118895000D01*
D66*
X71060000Y-144660000D02*
X71060000Y-145860001D01*
X71835000Y-146635001D02*
X71835000Y-148710000D01*
D69*
X74163607Y-118869999D02*
X78277761Y-118869999D01*
%TO.N,/DN2_D-*%
X69660000Y-139878751D02*
X69660000Y-139455000D01*
X68835000Y-142684999D02*
X68835000Y-141111449D01*
X78784254Y-117310000D02*
X73910000Y-117310000D01*
X69695000Y-139913751D02*
X69660000Y-139878751D01*
X69695000Y-140251449D02*
X69695000Y-139913751D01*
X70939479Y-120280521D02*
X70923923Y-120280521D01*
D66*
X67969479Y-120280521D02*
X70923923Y-120280521D01*
X68060000Y-144660000D02*
X68060000Y-143459999D01*
D69*
X73910000Y-117310000D02*
X70939479Y-120280521D01*
D66*
X68835000Y-146635001D02*
X68835000Y-149472574D01*
D69*
X78799254Y-117295000D02*
X78784254Y-117310000D01*
X68835000Y-141111449D02*
X69695000Y-140251449D01*
D66*
X68060000Y-145860001D02*
X68835000Y-146635001D01*
X68835000Y-149472574D02*
X68635000Y-149672574D01*
D69*
X68060000Y-143459999D02*
X68835000Y-142684999D01*
D66*
X68060000Y-144660000D02*
X68060000Y-145860001D01*
%TO.N,/DN3_D+*%
X91825000Y-149197014D02*
X92071798Y-149443812D01*
X91825000Y-141263198D02*
X92325000Y-140763198D01*
X91825000Y-146575001D02*
X91825000Y-149197014D01*
X92325000Y-139858751D02*
X92350000Y-139833751D01*
D69*
X80434254Y-122905746D02*
X79110521Y-124229479D01*
D66*
X92600000Y-144600000D02*
X92600000Y-145800001D01*
X92600000Y-144600000D02*
X92600000Y-143399999D01*
X92600000Y-145800001D02*
X91825000Y-146575001D01*
X92350000Y-139833751D02*
X92350000Y-139410000D01*
X92600000Y-143399999D02*
X91825000Y-142624999D01*
X92325000Y-140763198D02*
X92325000Y-139858751D01*
D69*
X80434254Y-120130000D02*
X80434254Y-122905746D01*
D66*
X91825000Y-142624999D02*
X91825000Y-141263198D01*
X92071798Y-149443812D02*
X92354641Y-149443812D01*
D69*
%TO.N,/DN3_RX+*%
X82419254Y-120145000D02*
X82419254Y-124827453D01*
D66*
X94375000Y-146575001D02*
X94375000Y-148993199D01*
X94829479Y-149447678D02*
X94829479Y-149730521D01*
X93600000Y-144600000D02*
X93600000Y-145800001D01*
X94375000Y-148993199D02*
X94829479Y-149447678D01*
X93600000Y-144600000D02*
X93600000Y-143399999D01*
X83479479Y-126170521D02*
X83479479Y-125889479D01*
D69*
X83479479Y-125889479D02*
X82419254Y-124829254D01*
D66*
X93375000Y-140953198D02*
X93375000Y-139858751D01*
X93350000Y-139833751D02*
X93350000Y-139410000D01*
D69*
X82419254Y-124829254D02*
X82419254Y-124827453D01*
D66*
X93375000Y-139858751D02*
X93350000Y-139833751D01*
X93600000Y-145800001D02*
X94375000Y-146575001D01*
X94375000Y-141953198D02*
X93375000Y-140953198D01*
X94375000Y-142624999D02*
X94375000Y-141953198D01*
X93600000Y-143399999D02*
X94375000Y-142624999D01*
%TO.N,/DN3_RX-*%
X93825000Y-139858751D02*
X93850000Y-139833751D01*
X94825000Y-148806801D02*
X95147678Y-149129479D01*
X94825000Y-141766802D02*
X93825000Y-140766802D01*
X95600000Y-145800001D02*
X94825000Y-146575001D01*
X93825000Y-140766802D02*
X93825000Y-139858751D01*
X93850000Y-139833751D02*
X93850000Y-139410000D01*
D69*
X82849254Y-120145000D02*
X82849254Y-124621055D01*
D66*
X84080521Y-125569479D02*
X83797678Y-125569479D01*
X95600000Y-144600000D02*
X95600000Y-145800001D01*
D69*
X83797678Y-125569479D02*
X82849254Y-124621055D01*
D66*
X95147678Y-149129479D02*
X95430521Y-149129479D01*
X95600000Y-144600000D02*
X95600000Y-143399999D01*
X94825000Y-146575001D02*
X94825000Y-148806801D01*
X95600000Y-143399999D02*
X94825000Y-142624999D01*
X94825000Y-142624999D02*
X94825000Y-141766802D01*
%TO.N,/DN3_D-*%
X91850000Y-139833751D02*
X91850000Y-139410000D01*
D69*
X80849254Y-123296848D02*
X79315581Y-124830521D01*
X80849254Y-123296848D02*
X80849254Y-120145000D01*
X79315581Y-124830521D02*
X78509479Y-124830521D01*
D66*
X91375000Y-142624999D02*
X91375000Y-141076802D01*
X91375000Y-149383412D02*
X91753599Y-149762011D01*
X90600000Y-145800001D02*
X91375000Y-146575001D01*
X91753599Y-149762011D02*
X91753599Y-150044854D01*
D69*
X80849254Y-120145000D02*
X80834254Y-120130000D01*
D66*
X90600000Y-143399999D02*
X91375000Y-142624999D01*
X91875000Y-139858751D02*
X91850000Y-139833751D01*
X91875000Y-140576802D02*
X91875000Y-139858751D01*
X90600000Y-144600000D02*
X90600000Y-145800001D01*
X90600000Y-144600000D02*
X90600000Y-143399999D01*
X91375000Y-141076802D02*
X91875000Y-140576802D01*
X91375000Y-146575001D02*
X91375000Y-149383412D01*
D67*
%TO.N,Net-(F1-Pad2)*%
X78130000Y-65328650D02*
X78773099Y-64685551D01*
X81170000Y-65286091D02*
X81170000Y-66105550D01*
X74872500Y-73052511D02*
X78130000Y-69795011D01*
X80569460Y-64685551D02*
X81170000Y-65286091D01*
X78130000Y-69795011D02*
X78130000Y-66105550D01*
X74872500Y-75370000D02*
X74872500Y-73052511D01*
X78773099Y-64685551D02*
X80569460Y-64685551D01*
X78130000Y-66105550D02*
X78130000Y-65328650D01*
D66*
%TO.N,/SCL*%
X50720000Y-84160000D02*
X49980000Y-84900000D01*
X48500000Y-106760000D02*
X48478122Y-106781878D01*
X48478122Y-106781878D02*
X46165769Y-106781878D01*
X53500000Y-84160000D02*
X50720000Y-84160000D01*
%TO.N,/CSI_D2+*%
X43743816Y-90920000D02*
X43563816Y-90920000D01*
X51407499Y-90510000D02*
X50997499Y-90920000D01*
X50997499Y-90920000D02*
X45363816Y-90920000D01*
X45228816Y-90785000D02*
X45228816Y-90717566D01*
X38850001Y-93229990D02*
X38100000Y-93229990D01*
X43878816Y-90717566D02*
X43878816Y-90785000D01*
X43563816Y-90920000D02*
X43556241Y-90920000D01*
X53500000Y-90510000D02*
X51407499Y-90510000D01*
X44643816Y-90132566D02*
X44463816Y-90132566D01*
X43021802Y-90920000D02*
X40686812Y-93254990D01*
X40686812Y-93254990D02*
X38875001Y-93254990D01*
X43556241Y-90920000D02*
X43021802Y-90920000D01*
X38875001Y-93254990D02*
X38850001Y-93229990D01*
X45228816Y-90717566D02*
G75*
G03*
X44643816Y-90132584I-585016J-34D01*
G01*
X45363816Y-90920000D02*
G75*
G02*
X45228800Y-90785000I-16J135000D01*
G01*
X43878816Y-90785000D02*
G75*
G02*
X43743816Y-90920016I-135016J0D01*
G01*
X44463816Y-90132566D02*
G75*
G03*
X43878766Y-90717566I-16J-585034D01*
G01*
%TO.N,/CSI_CK-*%
X43918382Y-95180000D02*
X43918382Y-94827232D01*
X45373382Y-95180000D02*
X45655950Y-95180000D01*
X38850001Y-95229990D02*
X38875001Y-95204990D01*
X45655950Y-95180000D02*
X50997499Y-95180000D01*
X42928900Y-95885518D02*
X43340623Y-95885518D01*
X38875001Y-95204990D02*
X39099070Y-95204990D01*
X45096150Y-95180000D02*
X45373382Y-95180000D01*
X51407499Y-95590000D02*
X53500000Y-95590000D01*
X38100000Y-95229990D02*
X38850001Y-95229990D01*
X39124060Y-95180000D02*
X42223382Y-95180000D01*
X50997499Y-95180000D02*
X51407499Y-95590000D01*
X43918382Y-95307759D02*
X43918382Y-95180000D01*
X39099070Y-95204990D02*
X39124060Y-95180000D01*
X43918382Y-94827232D02*
X43918382Y-94602232D01*
X44046150Y-94474464D02*
X44390614Y-94474464D01*
X42223382Y-95180000D02*
G75*
G02*
X42351200Y-95307759I18J-127800D01*
G01*
X43918382Y-94602232D02*
G75*
G02*
X44046150Y-94474482I127718J32D01*
G01*
X43340623Y-95885518D02*
G75*
G03*
X43918318Y-95307759I-23J577718D01*
G01*
X42351141Y-95307759D02*
G75*
G03*
X42928900Y-95885559I577759J-41D01*
G01*
X44390614Y-94474464D02*
G75*
G02*
X44518336Y-94602232I-14J-127736D01*
G01*
X44518382Y-94602232D02*
G75*
G03*
X45096150Y-95179918I577718J32D01*
G01*
%TO.N,/DSI_CK-*%
X57564000Y-71460000D02*
X57973999Y-71869999D01*
X61510001Y-71869999D02*
X61710000Y-71670000D01*
X57973999Y-71869999D02*
X61510001Y-71869999D01*
%TO.N,/CSI_D3+*%
X51407499Y-86700000D02*
X50997499Y-87110000D01*
X40446812Y-91754990D02*
X38875001Y-91754990D01*
X50997499Y-87110000D02*
X45091802Y-87110000D01*
X38875001Y-91754990D02*
X38850001Y-91729990D01*
X38850001Y-91729990D02*
X38100000Y-91729990D01*
X53500000Y-86700000D02*
X51407499Y-86700000D01*
X45091802Y-87110000D02*
X40446812Y-91754990D01*
%TO.N,/CSI_D3-*%
X45278198Y-87560000D02*
X40633208Y-92204990D01*
X50997499Y-87560000D02*
X45278198Y-87560000D01*
X40633208Y-92204990D02*
X38875001Y-92204990D01*
X51407499Y-87970000D02*
X50997499Y-87560000D01*
X53500000Y-87970000D02*
X51407499Y-87970000D01*
X38850001Y-92229990D02*
X38100000Y-92229990D01*
X38875001Y-92204990D02*
X38850001Y-92229990D01*
%TO.N,/CSI_D0+*%
X40023188Y-97754990D02*
X44618198Y-102350000D01*
X50997499Y-102350000D02*
X51407499Y-101940000D01*
X38875001Y-97754990D02*
X40023188Y-97754990D01*
X51407499Y-101940000D02*
X53500000Y-101940000D01*
X38100000Y-97729990D02*
X38850001Y-97729990D01*
X38850001Y-97729990D02*
X38875001Y-97754990D01*
X44618198Y-102350000D02*
X50997499Y-102350000D01*
%TO.N,/DSI_D3+*%
X57973999Y-79940001D02*
X61770001Y-79940001D01*
X61770001Y-79940001D02*
X61970000Y-80140000D01*
X57564000Y-80350000D02*
X57973999Y-79940001D01*
%TO.N,/DSI_D2+*%
X57973999Y-76130001D02*
X61500001Y-76130001D01*
X61500001Y-76130001D02*
X61700000Y-76330000D01*
X57564000Y-76540000D02*
X57973999Y-76130001D01*
%TO.N,/CSI_D2-*%
X51407499Y-91780000D02*
X50997499Y-91370000D01*
X40873208Y-93704990D02*
X38875001Y-93704990D01*
X38875001Y-93704990D02*
X38850001Y-93729990D01*
X50997499Y-91370000D02*
X45363816Y-91370000D01*
X43563816Y-91370000D02*
X43556241Y-91370000D01*
X44328816Y-90717566D02*
X44328816Y-90785000D01*
X43556241Y-91370000D02*
X43208198Y-91370000D01*
X38850001Y-93729990D02*
X38100000Y-93729990D01*
X53500000Y-91780000D02*
X51407499Y-91780000D01*
X43208198Y-91370000D02*
X40873208Y-93704990D01*
X44643816Y-90582566D02*
X44463816Y-90582566D01*
X44778816Y-90785000D02*
X44778816Y-90717566D01*
X43743816Y-91370000D02*
X43563816Y-91370000D01*
X45363816Y-91370000D02*
G75*
G02*
X44778800Y-90785000I-16J585000D01*
G01*
X44463816Y-90582566D02*
G75*
G03*
X44328766Y-90717566I-16J-135034D01*
G01*
X44328816Y-90785000D02*
G75*
G02*
X43743816Y-91370016I-585016J0D01*
G01*
X44778816Y-90717566D02*
G75*
G03*
X44643816Y-90582584I-135016J-34D01*
G01*
%TO.N,/CSI_D1+*%
X51407499Y-98130000D02*
X50997499Y-98540000D01*
X42308198Y-98540000D02*
X40023188Y-96254990D01*
X53500000Y-98130000D02*
X51407499Y-98130000D01*
X50997499Y-98540000D02*
X45501712Y-98540000D01*
X44661712Y-97690723D02*
X44451712Y-97690723D01*
X40023188Y-96254990D02*
X38875001Y-96254990D01*
X38875001Y-96254990D02*
X38850001Y-96229990D01*
X43401712Y-98540000D02*
X43146386Y-98540000D01*
X43146386Y-98540000D02*
X42308198Y-98540000D01*
X38850001Y-96229990D02*
X38100000Y-96229990D01*
X45306712Y-98345000D02*
X45306712Y-98335723D01*
X43806712Y-98335723D02*
X43806712Y-98345000D01*
X43611712Y-98540000D02*
X43401712Y-98540000D01*
X45306712Y-98335723D02*
G75*
G03*
X44661712Y-97690688I-645012J23D01*
G01*
X44451712Y-97690723D02*
G75*
G03*
X43806723Y-98335723I-12J-644977D01*
G01*
X45501712Y-98540000D02*
G75*
G02*
X45306700Y-98345000I-12J195000D01*
G01*
X43806712Y-98345000D02*
G75*
G02*
X43611712Y-98540012I-195012J0D01*
G01*
%TO.N,/DSI_CK+*%
X61510001Y-72320001D02*
X61710000Y-72520000D01*
X57973999Y-72320001D02*
X61510001Y-72320001D01*
X57564000Y-72730000D02*
X57973999Y-72320001D01*
%TO.N,/CSI_D0-*%
X44431802Y-102800000D02*
X50997499Y-102800000D01*
X38850001Y-98229990D02*
X38875001Y-98204990D01*
X38875001Y-98204990D02*
X39836792Y-98204990D01*
X51407499Y-103210000D02*
X53500000Y-103210000D01*
X38100000Y-98229990D02*
X38850001Y-98229990D01*
X50997499Y-102800000D02*
X51407499Y-103210000D01*
X39836792Y-98204990D02*
X44431802Y-102800000D01*
%TO.N,/DSI_D1+*%
X41999092Y-71870000D02*
X41799092Y-71870000D01*
X43624092Y-73015267D02*
X43624092Y-72320000D01*
X42999092Y-70549733D02*
X42799092Y-70549733D01*
X43624092Y-72320000D02*
X43624092Y-71695000D01*
X44999092Y-70549733D02*
X44799092Y-70549733D01*
X37601802Y-71870000D02*
X36654666Y-72817136D01*
X50997499Y-71870000D02*
X45799092Y-71870000D01*
X36654666Y-72817136D02*
X36198683Y-72817136D01*
X41083223Y-71870000D02*
X37601802Y-71870000D01*
X42174092Y-71174733D02*
X42174092Y-71695000D01*
X43624092Y-71695000D02*
X43624092Y-71174733D01*
X53500000Y-71460000D02*
X51407499Y-71460000D01*
X44174092Y-71695000D02*
X44174092Y-72320000D01*
X44174092Y-72320000D02*
X44174092Y-73015267D01*
X44174092Y-71174733D02*
X44174092Y-71695000D01*
X43999092Y-73190267D02*
X43799092Y-73190267D01*
X45624092Y-71695000D02*
X45624092Y-71174733D01*
X36198683Y-72817136D02*
X35998684Y-72617137D01*
X41799092Y-71870000D02*
X41083223Y-71870000D01*
X51407499Y-71460000D02*
X50997499Y-71870000D01*
X43624092Y-71174733D02*
G75*
G03*
X42999092Y-70549708I-624992J33D01*
G01*
X44174092Y-73015267D02*
G75*
G02*
X43999092Y-73190292I-174992J-33D01*
G01*
X42799092Y-70549733D02*
G75*
G03*
X42174133Y-71174733I8J-624967D01*
G01*
X45624092Y-71174733D02*
G75*
G03*
X44999092Y-70549708I-624992J33D01*
G01*
X43799092Y-73190267D02*
G75*
G02*
X43624133Y-73015267I8J174967D01*
G01*
X45799092Y-71870000D02*
G75*
G02*
X45624100Y-71695000I8J175000D01*
G01*
X42174092Y-71695000D02*
G75*
G02*
X41999092Y-71869992I-174992J0D01*
G01*
X44799092Y-70549733D02*
G75*
G03*
X44174133Y-71174733I8J-624967D01*
G01*
%TO.N,/CSI_D1-*%
X39836792Y-96704990D02*
X38875001Y-96704990D01*
X51407499Y-99400000D02*
X50997499Y-98990000D01*
X38850001Y-96729990D02*
X38100000Y-96729990D01*
X42121802Y-98990000D02*
X39836792Y-96704990D01*
X44856712Y-98345000D02*
X44856712Y-98335723D01*
X53500000Y-99400000D02*
X51407499Y-99400000D01*
X44661712Y-98140723D02*
X44451712Y-98140723D01*
X44256712Y-98335723D02*
X44256712Y-98345000D01*
X43146386Y-98990000D02*
X42121802Y-98990000D01*
X38875001Y-96704990D02*
X38850001Y-96729990D01*
X43611712Y-98990000D02*
X43401712Y-98990000D01*
X43401712Y-98990000D02*
X43146386Y-98990000D01*
X50997499Y-98990000D02*
X45501712Y-98990000D01*
X45501712Y-98990000D02*
G75*
G02*
X44856700Y-98345000I-12J645000D01*
G01*
X44256712Y-98345000D02*
G75*
G02*
X43611712Y-98990012I-645012J0D01*
G01*
X44856712Y-98335723D02*
G75*
G03*
X44661712Y-98140688I-195012J23D01*
G01*
X44451712Y-98140723D02*
G75*
G03*
X44256723Y-98335723I-12J-194977D01*
G01*
%TO.N,/CAM_EN*%
X51030000Y-80350000D02*
X40650010Y-90729990D01*
X53500000Y-80350000D02*
X51030000Y-80350000D01*
X40650010Y-90729990D02*
X38100000Y-90729990D01*
%TO.N,/DSI_D1-*%
X37788198Y-72320000D02*
X36841060Y-73267138D01*
X50997499Y-72320000D02*
X45799092Y-72320000D01*
X36198683Y-73267138D02*
X35998684Y-73467137D01*
X41999092Y-72320000D02*
X41799092Y-72320000D01*
X44999092Y-70999733D02*
X44799092Y-70999733D01*
X44624092Y-72320000D02*
X44624092Y-73015267D01*
X43174092Y-71695000D02*
X43174092Y-71174733D01*
X53500000Y-72730000D02*
X51407499Y-72730000D01*
X42999092Y-70999733D02*
X42799092Y-70999733D01*
X41799092Y-72320000D02*
X41083223Y-72320000D01*
X51407499Y-72730000D02*
X50997499Y-72320000D01*
X44624092Y-71695000D02*
X44624092Y-72320000D01*
X41083223Y-72320000D02*
X37788198Y-72320000D01*
X43999092Y-73640267D02*
X43799092Y-73640267D01*
X36841060Y-73267138D02*
X36198683Y-73267138D01*
X43174092Y-72320000D02*
X43174092Y-71695000D01*
X43174092Y-73015267D02*
X43174092Y-72320000D01*
X45174092Y-71695000D02*
X45174092Y-71174733D01*
X42624092Y-71174733D02*
X42624092Y-71695000D01*
X44624092Y-71174733D02*
X44624092Y-71695000D01*
X45174092Y-71174733D02*
G75*
G03*
X44999092Y-70999708I-174992J33D01*
G01*
X44799092Y-70999733D02*
G75*
G03*
X44624133Y-71174733I8J-174967D01*
G01*
X43799092Y-73640267D02*
G75*
G02*
X43174133Y-73015267I8J624967D01*
G01*
X42799092Y-70999733D02*
G75*
G03*
X42624133Y-71174733I8J-174967D01*
G01*
X43174092Y-71174733D02*
G75*
G03*
X42999092Y-70999708I-174992J33D01*
G01*
X45799092Y-72320000D02*
G75*
G02*
X45174100Y-71695000I8J625000D01*
G01*
X42624092Y-71695000D02*
G75*
G02*
X41999092Y-72319992I-624992J0D01*
G01*
X44624092Y-73015267D02*
G75*
G02*
X43999092Y-73640292I-624992J-33D01*
G01*
%TO.N,/SDA*%
X43956197Y-106781878D02*
X43355769Y-106781878D01*
X53500000Y-82890000D02*
X50610000Y-82890000D01*
X44215769Y-106114231D02*
X44215769Y-106522306D01*
X46500000Y-103830000D02*
X44215769Y-106114231D01*
X50610000Y-82890000D02*
X49230000Y-84270000D01*
X44215769Y-106522306D02*
X43956197Y-106781878D01*
X48500000Y-103830000D02*
X46500000Y-103830000D01*
%TO.N,/DSI_D3-*%
X57564000Y-79080000D02*
X57973999Y-79489999D01*
X61770001Y-79489999D02*
X61970000Y-79290000D01*
X57973999Y-79489999D02*
X61770001Y-79489999D01*
%TO.N,/DSI_D0-*%
X45275674Y-76130000D02*
X36421801Y-76130000D01*
X34392322Y-74100521D02*
X34109479Y-74100521D01*
X51407499Y-76540000D02*
X50997499Y-76130000D01*
X50997499Y-76130000D02*
X47411900Y-76130000D01*
X46611900Y-77530671D02*
X46411900Y-77530671D01*
X45786900Y-76905671D02*
X45786900Y-76305000D01*
X47236900Y-76305000D02*
X47236900Y-76905671D01*
X45611900Y-76130000D02*
X45411900Y-76130000D01*
X53500000Y-76540000D02*
X51407499Y-76540000D01*
X36421801Y-76130000D02*
X34392322Y-74100521D01*
X45411900Y-76130000D02*
X45275674Y-76130000D01*
X46411900Y-77530671D02*
G75*
G02*
X45786929Y-76905671I0J624971D01*
G01*
X47236900Y-76905671D02*
G75*
G02*
X46611900Y-77530700I-625000J-29D01*
G01*
X47411900Y-76130000D02*
G75*
G03*
X47236900Y-76305000I0J-175000D01*
G01*
X45786900Y-76305000D02*
G75*
G03*
X45611900Y-76130000I-175000J0D01*
G01*
%TO.N,/DSI_D0+*%
X45411900Y-75680000D02*
X45275674Y-75680000D01*
X45611900Y-75680000D02*
X45411900Y-75680000D01*
X46611900Y-77080671D02*
X46411900Y-77080671D01*
X46236900Y-76905671D02*
X46236900Y-76305000D01*
X51407499Y-75270000D02*
X50997499Y-75680000D01*
X50997499Y-75680000D02*
X47411900Y-75680000D01*
X46786900Y-76305000D02*
X46786900Y-76905671D01*
X34710521Y-73782322D02*
X34710521Y-73499479D01*
X36608199Y-75680000D02*
X34710521Y-73782322D01*
X45275674Y-75680000D02*
X36608199Y-75680000D01*
X53500000Y-75270000D02*
X51407499Y-75270000D01*
X47411900Y-75680000D02*
G75*
G03*
X46786900Y-76305000I0J-625000D01*
G01*
X46236900Y-76305000D02*
G75*
G03*
X45611900Y-75680000I-625000J0D01*
G01*
X46411900Y-77080671D02*
G75*
G02*
X46236929Y-76905671I0J174971D01*
G01*
X46786900Y-76905671D02*
G75*
G02*
X46611900Y-77080700I-175000J-29D01*
G01*
%TO.N,/CSI_CK+*%
X45655950Y-94730000D02*
X50997499Y-94730000D01*
X42928900Y-95435518D02*
X43340623Y-95435518D01*
X43468382Y-94827232D02*
X43468382Y-94602232D01*
X43468382Y-95180000D02*
X43468382Y-94827232D01*
X44046150Y-94024464D02*
X44390614Y-94024464D01*
X38850001Y-94729990D02*
X38875001Y-94754990D01*
X38926864Y-94754990D02*
X38951854Y-94730000D01*
X45373382Y-94730000D02*
X45655950Y-94730000D01*
X38100000Y-94729990D02*
X38850001Y-94729990D01*
X38875001Y-94754990D02*
X38926864Y-94754990D01*
X43468382Y-95307759D02*
X43468382Y-95180000D01*
X45096150Y-94730000D02*
X45373382Y-94730000D01*
X51407499Y-94320000D02*
X53500000Y-94320000D01*
X38951854Y-94730000D02*
X42223382Y-94730000D01*
X50997499Y-94730000D02*
X51407499Y-94320000D01*
X42801141Y-95307759D02*
G75*
G03*
X42928900Y-95435559I127759J-41D01*
G01*
X43468382Y-94602232D02*
G75*
G02*
X44046150Y-94024482I577718J32D01*
G01*
X42223382Y-94730000D02*
G75*
G02*
X42801200Y-95307759I18J-577800D01*
G01*
X43340623Y-95435518D02*
G75*
G03*
X43468318Y-95307759I-23J127718D01*
G01*
X44968382Y-94602232D02*
G75*
G03*
X45096150Y-94729918I127718J32D01*
G01*
X44390614Y-94024464D02*
G75*
G02*
X44968336Y-94602232I-14J-577736D01*
G01*
%TO.N,/DSI_D2-*%
X57973999Y-75679999D02*
X61500001Y-75679999D01*
X57564000Y-75270000D02*
X57973999Y-75679999D01*
X61500001Y-75679999D02*
X61700000Y-75480000D01*
%TO.N,/MCU_OPAMP1_VINP {slash} PA0*%
X99760000Y-82890000D02*
X96690000Y-82890000D01*
X96690000Y-82890000D02*
X96550000Y-83030000D01*
%TO.N,/SOC_GPIO_86_SEO*%
X103824000Y-98130000D02*
X106790000Y-98130000D01*
X116710000Y-107070000D02*
X116730000Y-107050000D01*
X106790000Y-98130000D02*
X115730000Y-107070000D01*
X115730000Y-107070000D02*
X116710000Y-107070000D01*
%TO.N,/MCU_PSSI_D4 {slash} PE4*%
X103824000Y-75270000D02*
X112840000Y-75270000D01*
X114080000Y-74030000D02*
X116730000Y-74030000D01*
X112840000Y-75270000D02*
X114080000Y-74030000D01*
%TO.N,/JOUT_3V3*%
X115310000Y-112130000D02*
X116730000Y-112130000D01*
X106970000Y-103790000D02*
X106280000Y-104480000D01*
X106280000Y-104480000D02*
X103824000Y-104480000D01*
X106970000Y-103790000D02*
X115310000Y-112130000D01*
X106390000Y-103210000D02*
X106970000Y-103790000D01*
X103824000Y-103210000D02*
X106390000Y-103210000D01*
%TO.N,/MCU_TRACE_D3 {slash} PE6*%
X96580000Y-75460000D02*
X96770000Y-75270000D01*
X96550000Y-75460000D02*
X96580000Y-75460000D01*
X96770000Y-75270000D02*
X99760000Y-75270000D01*
%TO.N,/SOC_GPIO_3_SEO*%
X103824000Y-96860000D02*
X107910000Y-96860000D01*
X115560000Y-104510000D02*
X116730000Y-104510000D01*
X107910000Y-96860000D02*
X115560000Y-104510000D01*
%TO.N,/MCU_PSSI_DE {slash} PD8*%
X108000000Y-82890000D02*
X114380000Y-89270000D01*
X114380000Y-89270000D02*
X116730000Y-89270000D01*
X103824000Y-82890000D02*
X108000000Y-82890000D01*
%TO.N,/MCU_TRACE_CLK {slash} PE2*%
X96895786Y-71460000D02*
X96545891Y-71809895D01*
X99760000Y-71460000D02*
X96895786Y-71460000D01*
%TO.N,/MCU_PSSI_D1 {slash} PC7*%
X109300000Y-71460000D02*
X114350000Y-66410000D01*
X103824000Y-71460000D02*
X109300000Y-71460000D01*
X114350000Y-66410000D02*
X116730000Y-66410000D01*
%TO.N,/MCU_I2C4_SDA {slash} PF15*%
X99760000Y-80350000D02*
X96850000Y-80350000D01*
X96850000Y-80350000D02*
X96550000Y-80650000D01*
%TO.N,/SOC_GPIO_0_SE0*%
X114500000Y-96930000D02*
X116690000Y-96930000D01*
X110580000Y-93050000D02*
X114460000Y-96930000D01*
X103824000Y-93050000D02*
X110580000Y-93050000D01*
X114460000Y-96930000D02*
X114500000Y-96930000D01*
X116690000Y-96930000D02*
X116730000Y-96890000D01*
%TO.N,/MCU_OPAMP1_VOUT {slash} PA3*%
X96730000Y-81620000D02*
X96550000Y-81800000D01*
X99760000Y-81620000D02*
X96730000Y-81620000D01*
%TO.N,/MCU_PSSI_D7 {slash} PI7*%
X115060000Y-81650000D02*
X116730000Y-81650000D01*
X112490000Y-79080000D02*
X115060000Y-81650000D01*
X103824000Y-79080000D02*
X112490000Y-79080000D01*
%TO.N,/SOC_GPIO_98*%
X99750000Y-98120000D02*
X96780000Y-98120000D01*
X99760000Y-98130000D02*
X99750000Y-98120000D01*
X96780000Y-98120000D02*
X96740000Y-98160000D01*
%TO.N,/JOUT_5V*%
X99760000Y-104480000D02*
X95720000Y-104480000D01*
X95720000Y-104480000D02*
X95710000Y-104490000D01*
X99760000Y-103210000D02*
X99760000Y-104480000D01*
%TO.N,/MCU_PSSI_D6 {slash} PI6*%
X113360000Y-77810000D02*
X114660000Y-79110000D01*
X114940000Y-79110000D02*
X116730000Y-79110000D01*
X103824000Y-77810000D02*
X113360000Y-77810000D01*
X114660000Y-79110000D02*
X114940000Y-79110000D01*
%TO.N,/SOC_GPIO_99*%
X96740000Y-99400000D02*
X96730000Y-99390000D01*
X99760000Y-99400000D02*
X96740000Y-99400000D01*
%TO.N,/MCU_PSSI_D5 {slash} PI4*%
X103824000Y-76540000D02*
X116700000Y-76540000D01*
X116700000Y-76540000D02*
X116730000Y-76570000D01*
%TO.N,/MCU_OPAMP1_VINM {slash} PA1*%
X99760000Y-84160000D02*
X96700000Y-84160000D01*
X96700000Y-84160000D02*
X96550000Y-84310000D01*
%TO.N,/MCU_PSSI_D2 {slash} PC8*%
X114270000Y-68950000D02*
X114710000Y-68950000D01*
X114710000Y-68950000D02*
X116730000Y-68950000D01*
X110490000Y-72730000D02*
X114270000Y-68950000D01*
X103824000Y-72730000D02*
X110490000Y-72730000D01*
%TO.N,/MCU_PSSI_D0 {slash} PC6*%
X103824000Y-70190000D02*
X108360000Y-70190000D01*
X114680000Y-63870000D02*
X116730000Y-63870000D01*
X108360000Y-70190000D02*
X114680000Y-63870000D01*
%TO.N,/MCU_I2C4_SCL {slash} PF14*%
X96730000Y-79080000D02*
X96550000Y-79260000D01*
X99760000Y-79080000D02*
X96730000Y-79080000D01*
%TO.N,/MCU_PSSI_D3 {slash} PC9*%
X103824000Y-74000000D02*
X111750000Y-74000000D01*
X111750000Y-74000000D02*
X114260000Y-71490000D01*
X114260000Y-71490000D02*
X116730000Y-71490000D01*
%TO.N,/SOC_GPIO_1_SEO*%
X114770000Y-99430000D02*
X116730000Y-99430000D01*
X103824000Y-94320000D02*
X109660000Y-94320000D01*
X109660000Y-94320000D02*
X114770000Y-99430000D01*
%TO.N,/MCU_PSSI_RDY {slash} PI5*%
X109840000Y-81620000D02*
X114950000Y-86730000D01*
X103824000Y-81620000D02*
X109840000Y-81620000D01*
X114950000Y-86730000D02*
X116730000Y-86730000D01*
%TO.N,/SOC_GPIO_82_SEO*%
X115870000Y-109590000D02*
X111470000Y-105190000D01*
X116730000Y-109590000D02*
X115870000Y-109590000D01*
X106540000Y-99400000D02*
X103824000Y-99400000D01*
X111470000Y-105190000D02*
X111470000Y-104330000D01*
X111470000Y-104330000D02*
X106540000Y-99400000D01*
%TO.N,/MCU_TRACE_D2 {slash} PE5*%
X96810000Y-74000000D02*
X99760000Y-74000000D01*
X96720000Y-74090000D02*
X96810000Y-74000000D01*
X96550000Y-74090000D02*
X96720000Y-74090000D01*
%TO.N,/MCU_PSSI_PDCK {slash} PD9*%
X103824000Y-80350000D02*
X110970000Y-80350000D01*
X114820000Y-84190000D02*
X116730000Y-84190000D01*
X110970000Y-80350000D02*
X114810000Y-84190000D01*
%TO.N,/MCU_MCO {slash} PA8*%
X114590000Y-91810000D02*
X116730000Y-91810000D01*
X103824000Y-84160000D02*
X106940000Y-84160000D01*
X106940000Y-84160000D02*
X114590000Y-91810000D01*
%TO.N,/MCU_TRACE_D0 {slash} PE3*%
X96770000Y-72710000D02*
X96790000Y-72730000D01*
X96790000Y-72730000D02*
X99760000Y-72730000D01*
X96550000Y-72710000D02*
X96770000Y-72710000D01*
%TO.N,/SOC_GPIO_2_SEO*%
X108310000Y-95590000D02*
X114690000Y-101970000D01*
X114690000Y-101970000D02*
X116730000Y-101970000D01*
X103824000Y-95590000D02*
X108310000Y-95590000D01*
%TO.N,/SCL1*%
X38999990Y-89229990D02*
X38100000Y-89229990D01*
X47648122Y-105281878D02*
X48010000Y-104920000D01*
X46165769Y-105281878D02*
X47648122Y-105281878D01*
X39350000Y-89580000D02*
X38999990Y-89229990D01*
%TO.N,/SDA1*%
X37290010Y-88729990D02*
X38100000Y-88729990D01*
X37030000Y-99530000D02*
X37030000Y-88990000D01*
X37030000Y-88990000D02*
X37290010Y-88729990D01*
X42781878Y-105281878D02*
X37030000Y-99530000D01*
X43355769Y-105281878D02*
X42781878Y-105281878D01*
%TO.N,/LR_SCK*%
X130790000Y-90730000D02*
X129650000Y-89590000D01*
X129650000Y-89590000D02*
X128290000Y-89590000D01*
X129500000Y-104040000D02*
X130790000Y-102750000D01*
X130790000Y-102750000D02*
X130790000Y-90730000D01*
%TO.N,/LR_MISO*%
X126960000Y-104040000D02*
X125810000Y-102890000D01*
X127190000Y-90390000D02*
X128290000Y-90390000D01*
X125810000Y-91770000D02*
X127190000Y-90390000D01*
X125810000Y-102890000D02*
X125810000Y-91770000D01*
%TO.N,/LR_MOSI*%
X129500000Y-101500000D02*
X126512843Y-98512843D01*
X126512843Y-98512843D02*
X126512843Y-91632843D01*
X126512843Y-91632843D02*
X126955686Y-91190000D01*
X126955686Y-91190000D02*
X128290000Y-91190000D01*
%TO.N,/DN4_D-*%
X99693145Y-135304947D02*
X113080000Y-148691802D01*
D69*
X83649254Y-123507640D02*
X84126614Y-123985000D01*
D66*
X99521439Y-134320484D02*
X99606291Y-134405336D01*
X99539323Y-135151126D02*
X99624177Y-135235979D01*
X84126614Y-123985000D02*
X88373198Y-123985000D01*
X113080000Y-150835000D02*
X113080000Y-151697501D01*
X99606291Y-134744748D02*
X99539322Y-134811714D01*
X99624177Y-135235979D02*
X99693145Y-135304947D01*
X111459479Y-152872323D02*
X112080000Y-152251802D01*
X113080000Y-151697501D02*
X113105000Y-151722501D01*
X112080000Y-152251802D02*
X112080000Y-152130000D01*
X111459479Y-153920521D02*
X111459479Y-152872323D01*
X99115061Y-134387452D02*
X99182027Y-134320483D01*
X112472322Y-155229479D02*
X112189479Y-155229479D01*
D69*
X83649254Y-120145000D02*
X83649254Y-123507640D01*
D66*
X112080000Y-152130000D02*
X112080000Y-150835000D01*
X88373198Y-123985000D02*
X98775649Y-134387451D01*
X113105000Y-151722501D02*
X113105000Y-154596801D01*
X113080000Y-148691802D02*
X113080000Y-150835000D01*
X113105000Y-154596801D02*
X112472322Y-155229479D01*
X98775649Y-134387451D02*
G75*
G03*
X99115105Y-134387497I169751J169751D01*
G01*
X99182027Y-134320483D02*
G75*
G02*
X99521406Y-134320516I169673J-169717D01*
G01*
X99539322Y-134811714D02*
G75*
G03*
X99539342Y-135151106I169678J-169686D01*
G01*
X99606291Y-134405336D02*
G75*
G02*
X99606249Y-134744706I-169691J-169664D01*
G01*
D69*
%TO.N,/DN4_D+*%
X83219254Y-120145000D02*
X83219254Y-123714036D01*
D66*
X83940218Y-124435000D02*
X88186802Y-124435000D01*
X111909480Y-153058718D02*
X112580000Y-152388198D01*
X113580000Y-151697501D02*
X113555000Y-151722501D01*
X113555000Y-154783199D02*
X112790521Y-155547678D01*
X112580000Y-152388198D02*
X112580000Y-150835000D01*
X111909480Y-153168438D02*
X111909480Y-153058718D01*
X113580000Y-150835000D02*
X113580000Y-151697501D01*
X113555000Y-151722501D02*
X113555000Y-154783199D01*
X112580000Y-148828198D02*
X112580000Y-150835000D01*
X112060521Y-153319479D02*
X111909480Y-153168438D01*
D69*
X83219254Y-123714036D02*
X83940218Y-124435000D01*
D66*
X112790521Y-155547678D02*
X112790521Y-155830521D01*
X88186802Y-124435000D02*
X112580000Y-148828198D01*
D69*
%TO.N,Net-(J7-CC2)*%
X114580000Y-150835000D02*
X114580000Y-146712500D01*
X114580000Y-146712500D02*
X114805000Y-146487500D01*
%TO.N,Net-(J7-CC1)*%
X109910000Y-147400000D02*
X107350000Y-147400000D01*
X111580000Y-149070000D02*
X109910000Y-147400000D01*
X111580000Y-150835000D02*
X111580000Y-149070000D01*
D66*
%TO.N,/SIM_VCC*%
X132851272Y-131186408D02*
X134051272Y-131186408D01*
X134460000Y-130777680D02*
X134460000Y-120365000D01*
X134051272Y-131186408D02*
X134460000Y-130777680D01*
X134460000Y-120365000D02*
X133500000Y-119405000D01*
%TO.N,/SIM_RST*%
X135310000Y-118075000D02*
X134100000Y-116865000D01*
X132851272Y-133586408D02*
X134051272Y-133586408D01*
X135310000Y-132327680D02*
X135310000Y-118075000D01*
X134051272Y-133586408D02*
X135310000Y-132327680D01*
X134100000Y-116865000D02*
X133500000Y-116865000D01*
%TO.N,/SIM_CLK*%
X131557680Y-132786408D02*
X131141272Y-132370000D01*
X131620000Y-114640000D02*
X131935000Y-114325000D01*
X131935000Y-114325000D02*
X133500000Y-114325000D01*
X132851272Y-132786408D02*
X131557680Y-132786408D01*
%TO.N,/LTE_D+*%
X131351271Y-146386408D02*
X131176271Y-146211408D01*
X73122322Y-114369479D02*
X73423780Y-114068021D01*
X78612038Y-114043020D02*
X78799254Y-114043020D01*
X73423780Y-114068021D02*
X78587037Y-114068021D01*
X131176271Y-146211408D02*
X129414471Y-146211408D01*
X128601793Y-147024086D02*
X128601793Y-147306929D01*
X72839479Y-114369479D02*
X73122322Y-114369479D01*
X132851272Y-146386408D02*
X131351271Y-146386408D01*
X129414471Y-146211408D02*
X128601793Y-147024086D01*
X78587037Y-114068021D02*
X78612038Y-114043020D01*
%TO.N,/LTE_D-*%
X132851272Y-145586408D02*
X131351271Y-145586408D01*
X129228073Y-145761408D02*
X128283594Y-146705887D01*
X73440521Y-114970521D02*
X73440521Y-114687678D01*
X78789254Y-114505000D02*
X78799254Y-114495000D01*
X73608198Y-114520001D02*
X78263619Y-114520001D01*
X78278620Y-114505000D02*
X78789254Y-114505000D01*
X73440521Y-114687678D02*
X73608198Y-114520001D01*
X128283594Y-146705887D02*
X128000751Y-146705887D01*
X78263619Y-114520001D02*
X78278620Y-114505000D01*
X131351271Y-145586408D02*
X131176271Y-145761408D01*
X131176271Y-145761408D02*
X129228073Y-145761408D01*
%TO.N,/SIM_DT*%
X133485000Y-113070000D02*
X133500000Y-113055000D01*
X134047995Y-131986408D02*
X132851272Y-131986408D01*
X134496298Y-131538105D02*
X134047995Y-131986408D01*
X131530000Y-113070000D02*
X133485000Y-113070000D01*
X134548105Y-131538105D02*
X134496298Y-131538105D01*
%TO.N,Net-(J8-~{W_DISABLE})*%
X134231272Y-139186408D02*
X135291272Y-138126408D01*
X120730000Y-118600000D02*
X119027500Y-118600000D01*
X119027500Y-118600000D02*
X118860000Y-118432500D01*
X132851272Y-139186408D02*
X134231272Y-139186408D01*
%TO.N,/SIM_VPP*%
X135710000Y-132493365D02*
X135710000Y-117205000D01*
X135710000Y-117205000D02*
X134100000Y-115595000D01*
X133816957Y-134386408D02*
X135710000Y-132493365D01*
X132851272Y-134386408D02*
X133816957Y-134386408D01*
X134100000Y-115595000D02*
X133500000Y-115595000D01*
%TO.N,/UP_D+*%
X42420000Y-140881802D02*
X40080521Y-138542322D01*
X84853603Y-104645000D02*
X85335000Y-105126397D01*
X85335000Y-107086802D02*
X83657541Y-108764261D01*
X43195000Y-143339999D02*
X42420000Y-142564999D01*
X40080521Y-138542322D02*
X40080521Y-138259479D01*
X83657541Y-108764261D02*
X83634254Y-108787548D01*
X85335000Y-105126397D02*
X85335000Y-107086802D01*
X84640000Y-104645000D02*
X84853603Y-104645000D01*
X83634254Y-108787548D02*
X83634254Y-113260000D01*
X43195000Y-144540000D02*
X43195000Y-143339999D01*
X42420000Y-142564999D02*
X42420000Y-140881802D01*
D69*
%TO.N,Net-(J9-VBUS)*%
X43222500Y-149172500D02*
X39195000Y-145145000D01*
X39195000Y-145145000D02*
X39195000Y-144540000D01*
X52500000Y-149172500D02*
X43222500Y-149172500D01*
D66*
%TO.N,/UP_D-*%
X85785000Y-104940000D02*
X85785000Y-107273198D01*
X41195000Y-144540000D02*
X41195000Y-143339999D01*
X84034254Y-109983638D02*
X84034254Y-113260000D01*
X84037541Y-109020657D02*
X84037541Y-109980352D01*
X41970000Y-141068198D02*
X39762322Y-138860521D01*
X85785000Y-107273198D02*
X84107541Y-108950657D01*
X84640000Y-103795000D02*
X85785000Y-104940000D01*
X41195000Y-143339999D02*
X41970000Y-142564999D01*
X41970000Y-142564999D02*
X41970000Y-141068198D01*
X39762322Y-138860521D02*
X39479479Y-138860521D01*
X84037541Y-109980352D02*
X84034254Y-109983638D01*
X84107541Y-108950657D02*
X84037541Y-109020657D01*
%TO.N,/UP_RX-*%
X46195000Y-143339999D02*
X45420000Y-142564999D01*
X42339657Y-138830774D02*
X42139658Y-138630775D01*
X45420000Y-142564999D02*
X45420000Y-141031802D01*
X80679479Y-105329479D02*
X80679479Y-107917273D01*
X45420000Y-141031802D02*
X43218972Y-138830774D01*
X43218972Y-138830774D02*
X42339657Y-138830774D01*
D69*
X81630135Y-108867929D02*
X81630135Y-113255881D01*
D66*
X46195000Y-144540000D02*
X46195000Y-143339999D01*
D69*
X81630135Y-113255881D02*
X81634254Y-113260000D01*
D66*
X80679479Y-107917273D02*
X81630135Y-108867929D01*
%TO.N,/UP_RX+*%
X44195000Y-144540000D02*
X44195000Y-143339999D01*
D69*
X82080135Y-108681533D02*
X82080135Y-112717627D01*
D66*
X44195000Y-143339999D02*
X44970000Y-142564999D01*
X43032578Y-139280776D02*
X42339657Y-139280776D01*
X81280521Y-105930521D02*
X81129480Y-106081562D01*
X42339657Y-139280776D02*
X42139658Y-139480775D01*
X44970000Y-141218198D02*
X43032578Y-139280776D01*
D69*
X82054254Y-113240000D02*
X82034254Y-113260000D01*
D66*
X81129480Y-106081562D02*
X81129480Y-107730878D01*
D69*
X82080135Y-112717627D02*
X82054254Y-112743508D01*
D66*
X81129480Y-107730878D02*
X82080135Y-108681533D01*
X44970000Y-142564999D02*
X44970000Y-141218198D01*
D69*
X82054254Y-112743508D02*
X82054254Y-113240000D01*
D66*
%TO.N,/UP_TX-*%
X40195000Y-143339999D02*
X39420000Y-142564999D01*
X80740000Y-103195000D02*
X80953603Y-103195000D01*
X40195000Y-144540000D02*
X40195000Y-143339999D01*
D69*
X82830000Y-113255746D02*
X82834254Y-113260000D01*
D66*
X39420000Y-142564999D02*
X39420000Y-141471802D01*
X37585521Y-139637322D02*
X37585521Y-139354479D01*
X80953603Y-103195000D02*
X82814254Y-105055651D01*
X39420000Y-141471802D02*
X37585521Y-139637322D01*
D69*
X82830000Y-105071397D02*
X82830000Y-113255746D01*
X82814254Y-105055651D02*
X82830000Y-105071397D01*
D66*
%TO.N,/UP_TX+*%
X80740000Y-102345000D02*
X83212238Y-104817238D01*
X38970000Y-142564999D02*
X38970000Y-141658198D01*
X38195000Y-143339999D02*
X38970000Y-142564999D01*
D69*
X83212238Y-112741492D02*
X83214254Y-112743508D01*
D66*
X37267322Y-139955521D02*
X36984479Y-139955521D01*
X38195000Y-144540000D02*
X38195000Y-143339999D01*
D69*
X83214254Y-112743508D02*
X83214254Y-113240000D01*
D66*
X38970000Y-141658198D02*
X37267322Y-139955521D01*
D69*
X83212238Y-104817238D02*
X83212238Y-112741492D01*
X83214254Y-113240000D02*
X83234254Y-113260000D01*
D67*
%TO.N,Net-(J11-CC1)*%
X80149999Y-66105550D02*
X80149999Y-66882450D01*
X81643100Y-68375551D02*
X84739460Y-68375551D01*
X80149999Y-66882450D02*
X81643100Y-68375551D01*
X85089598Y-68725689D02*
X85089598Y-69952005D01*
X84739460Y-68375551D02*
X85089598Y-68725689D01*
%TO.N,Net-(J11-CC2)*%
X81711960Y-69953051D02*
X81286960Y-69953051D01*
X81286960Y-69953051D02*
X79150001Y-67816092D01*
X79150001Y-67816092D02*
X79150001Y-66105550D01*
D66*
%TO.N,Net-(Q1-C)*%
X116260000Y-127392500D02*
X116260000Y-124952500D01*
X116260000Y-124952500D02*
X116250000Y-124942500D01*
%TO.N,Net-(Q1-B)*%
X118880000Y-124925000D02*
X118880000Y-128722500D01*
X118880000Y-128722500D02*
X117210000Y-130392500D01*
D69*
%TO.N,/UP_VBUS*%
X52480000Y-142300000D02*
X52417500Y-142362500D01*
X88791102Y-116095000D02*
X91040000Y-118343898D01*
X85669254Y-116095000D02*
X88791102Y-116095000D01*
X52500000Y-142320000D02*
X52480000Y-142300000D01*
X52500000Y-147347500D02*
X55117500Y-147347500D01*
X91040000Y-118343898D02*
X91040000Y-120160000D01*
X52500000Y-147347500D02*
X52500000Y-142320000D01*
D66*
%TO.N,Net-(U1-OE)*%
X45305769Y-106541450D02*
X45305769Y-108136878D01*
X45565341Y-106281878D02*
X45305769Y-106541450D01*
X46165769Y-106281878D02*
X45565341Y-106281878D01*
X45305769Y-108136878D02*
X45680769Y-108511878D01*
D69*
%TO.N,Net-(U2-SPI_CE_N{slash}CFG_NON_REM{slash}GPIO7)*%
X85669254Y-114495000D02*
X88629254Y-114495000D01*
X88629254Y-114495000D02*
X89064254Y-114930000D01*
X89064254Y-114930000D02*
X92265000Y-114930000D01*
%TO.N,Net-(U2-SPI_DI{slash}CFG_BC_EN{slash}GPIO9)*%
X85669254Y-114895000D02*
X88289254Y-114895000D01*
X90714254Y-117320000D02*
X92237500Y-117320000D01*
X88289254Y-114895000D02*
X90714254Y-117320000D01*
%TO.N,Net-(U2-RBIAS)*%
X75065000Y-111270000D02*
X79184254Y-111270000D01*
X79184254Y-111270000D02*
X79634254Y-111720000D01*
X79634254Y-113260000D02*
X79634254Y-111720000D01*
D66*
%TO.N,Net-(U10-FB)*%
X111245000Y-126382500D02*
X111245000Y-123482500D01*
X108844500Y-123012501D02*
X110775001Y-123012501D01*
X110775001Y-123012501D02*
X111245000Y-123482500D01*
D69*
%TO.N,/PRT_CTL3*%
X84960000Y-136770000D02*
X85470000Y-136260000D01*
X87929254Y-117295000D02*
X85669254Y-117295000D01*
X89290000Y-118655746D02*
X87929254Y-117295000D01*
X89290000Y-119810000D02*
X89290000Y-118655746D01*
X84020000Y-136770000D02*
X84960000Y-136770000D01*
%TO.N,/PRT_CTL2*%
X88269254Y-116875000D02*
X85689254Y-116875000D01*
X90100000Y-118210000D02*
X89604254Y-118210000D01*
X62129999Y-137510000D02*
X62129999Y-136610001D01*
X85689254Y-116875000D02*
X85669254Y-116895000D01*
X62129999Y-136610001D02*
X63300000Y-135440000D01*
X63300000Y-135440000D02*
X64900000Y-135440000D01*
X89604254Y-118210000D02*
X88269254Y-116875000D01*
%TO.N,/PRT_CTL4*%
X89460000Y-121090000D02*
X88450000Y-120080000D01*
D66*
X114820000Y-143940000D02*
X111080000Y-143940000D01*
D69*
X88450000Y-118605746D02*
X87939254Y-118095000D01*
D66*
X111080000Y-143940000D02*
X89460000Y-122320000D01*
D69*
X87939254Y-118095000D02*
X85669254Y-118095000D01*
X89460000Y-121090000D02*
X89460000Y-122320000D01*
X88450000Y-120080000D02*
X88450000Y-118605746D01*
D66*
%TO.N,/DN3_TX1+*%
X88825000Y-139825000D02*
X89440000Y-139210000D01*
X89600000Y-143399999D02*
X88825000Y-142624999D01*
X89600000Y-144600000D02*
X89600000Y-143399999D01*
X88825000Y-142624999D02*
X88825000Y-139825000D01*
%TO.N,/DN3_TX1-*%
X87600000Y-143399999D02*
X88375000Y-142624999D01*
X88375000Y-140765000D02*
X86820000Y-139210000D01*
X88375000Y-142624999D02*
X88375000Y-140765000D01*
X87600000Y-144600000D02*
X87600000Y-143399999D01*
%TO.N,/MCU_CRS_SYNC {slash} PA10*%
X115200000Y-94350000D02*
X116730000Y-94350000D01*
X103824000Y-85430000D02*
X106280000Y-85430000D01*
X106280000Y-85430000D02*
X115200000Y-94350000D01*
%TO.N,/1V8*%
X34840000Y-107140000D02*
X34840000Y-105840000D01*
X41680000Y-106281878D02*
X39261878Y-106281878D01*
X34870000Y-105870000D02*
X34840000Y-105840000D01*
X38850000Y-105870000D02*
X37150000Y-105870000D01*
X37150000Y-105870000D02*
X34870000Y-105870000D01*
X43061878Y-108511878D02*
X43855769Y-108511878D01*
X41680000Y-106281878D02*
X41680000Y-107130000D01*
X35930000Y-108230000D02*
X34840000Y-107140000D01*
X43355769Y-106281878D02*
X41680000Y-106281878D01*
X35930000Y-114530000D02*
X35930000Y-108230000D01*
X41680000Y-107130000D02*
X43061878Y-108511878D01*
X39261878Y-106281878D02*
X38850000Y-105870000D01*
%TO.N,/SOC_GPIO_101_PPS*%
X99760000Y-101940000D02*
X97750000Y-101940000D01*
X97750000Y-101940000D02*
X97120000Y-102570000D01*
X122776408Y-132386408D02*
X122230000Y-131840000D01*
X124651272Y-132386408D02*
X122776408Y-132386408D01*
%TO.N,/SOC_GPIO_100_PRST_LTE*%
X99760000Y-100670000D02*
X97130000Y-100670000D01*
X118880000Y-122890000D02*
X117760000Y-121770000D01*
X118880000Y-123100000D02*
X118880000Y-122890000D01*
X97130000Y-100670000D02*
X96730000Y-101070000D01*
%TO.N,/MCU_PE7_LR*%
X96690000Y-76540000D02*
X99760000Y-76540000D01*
X138840000Y-80380000D02*
X138870000Y-80410000D01*
X136490000Y-80390000D02*
X136500000Y-80380000D01*
X136500000Y-80380000D02*
X138840000Y-80380000D01*
X96570000Y-76660000D02*
X96690000Y-76540000D01*
%TD*%
M02*
