%TF.GenerationSoftware,KiCad,Pcbnew,9.0.8*%
%TF.CreationDate,2026-09-18T00:25:55+05:30*%
%TF.ProjectId,Shield,53686965-6c64-42e6-9b69-6361645f7063,rev?*%
%TF.SameCoordinates,Original*%
%TF.FileFunction,Profile,NP*%
%FSLAX46Y46*%
G04 Gerber Fmt 4.6, Leading zero omitted, Abs format (unit mm)*
G04 Created by KiCad (PCBNEW 9.0.8) date 2026-09-18 00:25:55*
%MOMM*%
%LPD*%
G01*
G04 APERTURE LIST*
%TA.AperFunction,Profile*%
%ADD10C,0.050000*%
%TD*%
%TA.AperFunction,Profile*%
%ADD11C,0.254000*%
%TD*%
G04 APERTURE END LIST*
D10*
X30360000Y-58730000D02*
X192340000Y-58730000D01*
X192340000Y-158290000D01*
X30360000Y-158290000D01*
X30360000Y-58730000D01*
D11*
%TO.C,J16*%
X182999400Y-109674800D02*
X180603100Y-109674800D01*
X180603100Y-109674800D02*
X180603100Y-110504600D01*
X189895800Y-109999200D02*
X188399700Y-109999200D01*
X188399700Y-109999200D02*
X188399700Y-110499600D01*
X188399700Y-110499600D02*
X182999700Y-110502200D01*
X182999400Y-110502400D02*
X182999400Y-109674800D01*
X180603100Y-110504600D02*
X177902800Y-110504600D01*
X177902800Y-110504600D02*
X177902800Y-117006600D01*
X191889000Y-111209900D02*
X189894700Y-111209900D01*
X191861700Y-111210400D02*
X191889000Y-111209900D01*
X189895800Y-111210800D02*
X189895800Y-109999200D01*
X189893400Y-116196800D02*
X191901900Y-116196800D01*
X189893400Y-116196800D02*
X189893400Y-117499900D01*
X188400000Y-116999900D02*
X184203900Y-116999900D01*
X181794800Y-117006600D02*
X181794800Y-117678500D01*
X177902800Y-117006600D02*
X181794800Y-117006600D01*
X189893400Y-117499900D02*
X188400000Y-117499900D01*
X188400000Y-117499900D02*
X188400000Y-116999900D01*
X184203900Y-117678500D02*
X184203900Y-116998100D01*
X181794800Y-117678500D02*
X184203900Y-117678500D01*
%TD*%
M02*
