%TF.GenerationSoftware,KiCad,Pcbnew,9.0.8*%
%TF.CreationDate,2026-09-18T00:25:55+05:30*%
%TF.ProjectId,Shield,53686965-6c64-42e6-9b69-6361645f7063,rev?*%
%TF.SameCoordinates,Original*%
%TF.FileFunction,Paste,Top*%
%TF.FilePolarity,Positive*%
%FSLAX46Y46*%
G04 Gerber Fmt 4.6, Leading zero omitted, Abs format (unit mm)*
G04 Created by KiCad (PCBNEW 9.0.8) date 2026-09-18 00:25:55*
%MOMM*%
%LPD*%
G01*
G04 APERTURE LIST*
G04 Aperture macros list*
%AMRoundRect*
0 Rectangle with rounded corners*
0 $1 Rounding radius*
0 $2 $3 $4 $5 $6 $7 $8 $9 X,Y pos of 4 corners*
0 Add a 4 corners polygon primitive as box body*
4,1,4,$2,$3,$4,$5,$6,$7,$8,$9,$2,$3,0*
0 Add four circle primitives for the rounded corners*
1,1,$1+$1,$2,$3*
1,1,$1+$1,$4,$5*
1,1,$1+$1,$6,$7*
1,1,$1+$1,$8,$9*
0 Add four rect primitives between the rounded corners*
20,1,$1+$1,$2,$3,$4,$5,0*
20,1,$1+$1,$4,$5,$6,$7,0*
20,1,$1+$1,$6,$7,$8,$9,0*
20,1,$1+$1,$8,$9,$2,$3,0*%
G04 Aperture macros list end*
%ADD10C,0.010000*%
%ADD11RoundRect,0.150000X-0.150000X-0.425000X0.150000X-0.425000X0.150000X0.425000X-0.150000X0.425000X0*%
%ADD12RoundRect,0.075000X-0.075000X-0.500000X0.075000X-0.500000X0.075000X0.500000X-0.075000X0.500000X0*%
%ADD13O,1.000000X2.100000*%
%ADD14O,1.000000X1.800000*%
%ADD15RoundRect,0.250000X-0.475000X0.250000X-0.475000X-0.250000X0.475000X-0.250000X0.475000X0.250000X0*%
%ADD16RoundRect,0.200000X0.200000X-0.750000X0.200000X0.750000X-0.200000X0.750000X-0.200000X-0.750000X0*%
%ADD17RoundRect,0.250000X0.450000X-0.262500X0.450000X0.262500X-0.450000X0.262500X-0.450000X-0.262500X0*%
%ADD18R,1.500000X0.900000*%
%ADD19RoundRect,0.250000X0.250000X0.475000X-0.250000X0.475000X-0.250000X-0.475000X0.250000X-0.475000X0*%
%ADD20RoundRect,0.250000X-0.250000X-0.475000X0.250000X-0.475000X0.250000X0.475000X-0.250000X0.475000X0*%
%ADD21R,2.000000X0.600000*%
%ADD22R,3.200000X2.300000*%
%ADD23RoundRect,0.250000X0.262500X0.450000X-0.262500X0.450000X-0.262500X-0.450000X0.262500X-0.450000X0*%
%ADD24RoundRect,0.175000X-0.175000X-0.625000X0.175000X-0.625000X0.175000X0.625000X-0.175000X0.625000X0*%
%ADD25RoundRect,0.300000X-0.300000X-0.970000X0.300000X-0.970000X0.300000X0.970000X-0.300000X0.970000X0*%
%ADD26R,2.790000X0.740000*%
%ADD27R,0.599999X1.000000*%
%ADD28RoundRect,0.150000X0.150000X0.200000X-0.150000X0.200000X-0.150000X-0.200000X0.150000X-0.200000X0*%
%ADD29RoundRect,0.150000X-0.587500X-0.150000X0.587500X-0.150000X0.587500X0.150000X-0.587500X0.150000X0*%
%ADD30RoundRect,0.033750X-0.526250X-0.101250X0.526250X-0.101250X0.526250X0.101250X-0.526250X0.101250X0*%
%ADD31RoundRect,0.250000X-0.262500X-0.450000X0.262500X-0.450000X0.262500X0.450000X-0.262500X0.450000X0*%
%ADD32RoundRect,0.250000X0.650000X-1.500000X0.650000X1.500000X-0.650000X1.500000X-0.650000X-1.500000X0*%
%ADD33RoundRect,0.375000X0.375000X-0.625000X0.375000X0.625000X-0.375000X0.625000X-0.375000X-0.625000X0*%
%ADD34RoundRect,0.500000X1.400000X-0.500000X1.400000X0.500000X-1.400000X0.500000X-1.400000X-0.500000X0*%
%ADD35RoundRect,0.375000X-0.625000X-0.375000X0.625000X-0.375000X0.625000X0.375000X-0.625000X0.375000X0*%
%ADD36RoundRect,0.500000X-0.500000X-1.400000X0.500000X-1.400000X0.500000X1.400000X-0.500000X1.400000X0*%
%ADD37R,1.800000X1.000000*%
%ADD38RoundRect,0.150000X-0.150000X-0.200000X0.150000X-0.200000X0.150000X0.200000X-0.150000X0.200000X0*%
%ADD39RoundRect,0.250000X-0.450000X0.262500X-0.450000X-0.262500X0.450000X-0.262500X0.450000X0.262500X0*%
%ADD40R,1.700000X2.700000*%
%ADD41RoundRect,0.250000X0.475000X-0.250000X0.475000X0.250000X-0.475000X0.250000X-0.475000X-0.250000X0*%
%ADD42R,0.604799X0.254800*%
%ADD43R,0.200000X0.565000*%
%ADD44RoundRect,0.115000X-0.890000X-0.345000X0.890000X-0.345000X0.890000X0.345000X-0.890000X0.345000X0*%
%ADD45RoundRect,0.251250X-0.753750X-1.343750X0.753750X-1.343750X0.753750X1.343750X-0.753750X1.343750X0*%
%ADD46RoundRect,0.250000X0.312500X1.450000X-0.312500X1.450000X-0.312500X-1.450000X0.312500X-1.450000X0*%
%ADD47R,0.711200X1.193800*%
%ADD48RoundRect,0.375000X0.625000X0.375000X-0.625000X0.375000X-0.625000X-0.375000X0.625000X-0.375000X0*%
%ADD49RoundRect,0.500000X0.500000X1.400000X-0.500000X1.400000X-0.500000X-1.400000X0.500000X-1.400000X0*%
%ADD50RoundRect,0.027500X-0.392500X-0.082500X0.392500X-0.082500X0.392500X0.082500X-0.392500X0.082500X0*%
%ADD51RoundRect,0.027500X-0.082500X-0.392500X0.082500X-0.392500X0.082500X0.392500X-0.082500X0.392500X0*%
%ADD52RoundRect,0.225000X0.375000X-0.225000X0.375000X0.225000X-0.375000X0.225000X-0.375000X-0.225000X0*%
%ADD53RoundRect,0.250000X0.650000X-0.400000X0.650000X0.400000X-0.650000X0.400000X-0.650000X-0.400000X0*%
%ADD54RoundRect,0.250000X-0.275000X-0.350000X0.275000X-0.350000X0.275000X0.350000X-0.275000X0.350000X0*%
%ADD55R,1.000000X0.300000*%
%ADD56R,1.300000X2.000000*%
%ADD57RoundRect,0.250001X-2.324999X1.074999X-2.324999X-1.074999X2.324999X-1.074999X2.324999X1.074999X0*%
G04 APERTURE END LIST*
%TO.C,J2*%
D10*
X101155000Y-69820000D02*
X98365000Y-69820000D01*
X98365000Y-70560000D01*
X101155000Y-70560000D01*
X101155000Y-69820000D01*
G36*
X101155000Y-69820000D02*
G01*
X98365000Y-69820000D01*
X98365000Y-70560000D01*
X101155000Y-70560000D01*
X101155000Y-69820000D01*
G37*
X101155000Y-71090000D02*
X98365000Y-71090000D01*
X98365000Y-71830000D01*
X101155000Y-71830000D01*
X101155000Y-71090000D01*
G36*
X101155000Y-71090000D02*
G01*
X98365000Y-71090000D01*
X98365000Y-71830000D01*
X101155000Y-71830000D01*
X101155000Y-71090000D01*
G37*
X101155000Y-72360000D02*
X98365000Y-72360000D01*
X98365000Y-73100000D01*
X101155000Y-73100000D01*
X101155000Y-72360000D01*
G36*
X101155000Y-72360000D02*
G01*
X98365000Y-72360000D01*
X98365000Y-73100000D01*
X101155000Y-73100000D01*
X101155000Y-72360000D01*
G37*
X101155000Y-73630000D02*
X98365000Y-73630000D01*
X98365000Y-74370000D01*
X101155000Y-74370000D01*
X101155000Y-73630000D01*
G36*
X101155000Y-73630000D02*
G01*
X98365000Y-73630000D01*
X98365000Y-74370000D01*
X101155000Y-74370000D01*
X101155000Y-73630000D01*
G37*
X101155000Y-74900000D02*
X98365000Y-74900000D01*
X98365000Y-75640000D01*
X101155000Y-75640000D01*
X101155000Y-74900000D01*
G36*
X101155000Y-74900000D02*
G01*
X98365000Y-74900000D01*
X98365000Y-75640000D01*
X101155000Y-75640000D01*
X101155000Y-74900000D01*
G37*
X101155000Y-76170000D02*
X98365000Y-76170000D01*
X98365000Y-76910000D01*
X101155000Y-76910000D01*
X101155000Y-76170000D01*
G36*
X101155000Y-76170000D02*
G01*
X98365000Y-76170000D01*
X98365000Y-76910000D01*
X101155000Y-76910000D01*
X101155000Y-76170000D01*
G37*
X101155000Y-77440000D02*
X98365000Y-77440000D01*
X98365000Y-78180000D01*
X101155000Y-78180000D01*
X101155000Y-77440000D01*
G36*
X101155000Y-77440000D02*
G01*
X98365000Y-77440000D01*
X98365000Y-78180000D01*
X101155000Y-78180000D01*
X101155000Y-77440000D01*
G37*
X101155000Y-78710000D02*
X98365000Y-78710000D01*
X98365000Y-79450000D01*
X101155000Y-79450000D01*
X101155000Y-78710000D01*
G36*
X101155000Y-78710000D02*
G01*
X98365000Y-78710000D01*
X98365000Y-79450000D01*
X101155000Y-79450000D01*
X101155000Y-78710000D01*
G37*
X101155000Y-79980000D02*
X98365000Y-79980000D01*
X98365000Y-80720000D01*
X101155000Y-80720000D01*
X101155000Y-79980000D01*
G36*
X101155000Y-79980000D02*
G01*
X98365000Y-79980000D01*
X98365000Y-80720000D01*
X101155000Y-80720000D01*
X101155000Y-79980000D01*
G37*
X101155000Y-81250000D02*
X98365000Y-81250000D01*
X98365000Y-81990000D01*
X101155000Y-81990000D01*
X101155000Y-81250000D01*
G36*
X101155000Y-81250000D02*
G01*
X98365000Y-81250000D01*
X98365000Y-81990000D01*
X101155000Y-81990000D01*
X101155000Y-81250000D01*
G37*
X101155000Y-82520000D02*
X98365000Y-82520000D01*
X98365000Y-83260000D01*
X101155000Y-83260000D01*
X101155000Y-82520000D01*
G36*
X101155000Y-82520000D02*
G01*
X98365000Y-82520000D01*
X98365000Y-83260000D01*
X101155000Y-83260000D01*
X101155000Y-82520000D01*
G37*
X101155000Y-83790000D02*
X98365000Y-83790000D01*
X98365000Y-84530000D01*
X101155000Y-84530000D01*
X101155000Y-83790000D01*
G36*
X101155000Y-83790000D02*
G01*
X98365000Y-83790000D01*
X98365000Y-84530000D01*
X101155000Y-84530000D01*
X101155000Y-83790000D01*
G37*
X101155000Y-85060000D02*
X98365000Y-85060000D01*
X98365000Y-85800000D01*
X101155000Y-85800000D01*
X101155000Y-85060000D01*
G36*
X101155000Y-85060000D02*
G01*
X98365000Y-85060000D01*
X98365000Y-85800000D01*
X101155000Y-85800000D01*
X101155000Y-85060000D01*
G37*
X101155000Y-86330000D02*
X98365000Y-86330000D01*
X98365000Y-87070000D01*
X101155000Y-87070000D01*
X101155000Y-86330000D01*
G36*
X101155000Y-86330000D02*
G01*
X98365000Y-86330000D01*
X98365000Y-87070000D01*
X101155000Y-87070000D01*
X101155000Y-86330000D01*
G37*
X101155000Y-87600000D02*
X98365000Y-87600000D01*
X98365000Y-88340000D01*
X101155000Y-88340000D01*
X101155000Y-87600000D01*
G36*
X101155000Y-87600000D02*
G01*
X98365000Y-87600000D01*
X98365000Y-88340000D01*
X101155000Y-88340000D01*
X101155000Y-87600000D01*
G37*
X101155000Y-88870000D02*
X98365000Y-88870000D01*
X98365000Y-89610000D01*
X101155000Y-89610000D01*
X101155000Y-88870000D01*
G36*
X101155000Y-88870000D02*
G01*
X98365000Y-88870000D01*
X98365000Y-89610000D01*
X101155000Y-89610000D01*
X101155000Y-88870000D01*
G37*
X101155000Y-90140000D02*
X98365000Y-90140000D01*
X98365000Y-90880000D01*
X101155000Y-90880000D01*
X101155000Y-90140000D01*
G36*
X101155000Y-90140000D02*
G01*
X98365000Y-90140000D01*
X98365000Y-90880000D01*
X101155000Y-90880000D01*
X101155000Y-90140000D01*
G37*
X101155000Y-91410000D02*
X98365000Y-91410000D01*
X98365000Y-92150000D01*
X101155000Y-92150000D01*
X101155000Y-91410000D01*
G36*
X101155000Y-91410000D02*
G01*
X98365000Y-91410000D01*
X98365000Y-92150000D01*
X101155000Y-92150000D01*
X101155000Y-91410000D01*
G37*
X101155000Y-92680000D02*
X98365000Y-92680000D01*
X98365000Y-93420000D01*
X101155000Y-93420000D01*
X101155000Y-92680000D01*
G36*
X101155000Y-92680000D02*
G01*
X98365000Y-92680000D01*
X98365000Y-93420000D01*
X101155000Y-93420000D01*
X101155000Y-92680000D01*
G37*
X101155000Y-93950000D02*
X98365000Y-93950000D01*
X98365000Y-94690000D01*
X101155000Y-94690000D01*
X101155000Y-93950000D01*
G36*
X101155000Y-93950000D02*
G01*
X98365000Y-93950000D01*
X98365000Y-94690000D01*
X101155000Y-94690000D01*
X101155000Y-93950000D01*
G37*
X101155000Y-95220000D02*
X98365000Y-95220000D01*
X98365000Y-95960000D01*
X101155000Y-95960000D01*
X101155000Y-95220000D01*
G36*
X101155000Y-95220000D02*
G01*
X98365000Y-95220000D01*
X98365000Y-95960000D01*
X101155000Y-95960000D01*
X101155000Y-95220000D01*
G37*
X101155000Y-96490000D02*
X98365000Y-96490000D01*
X98365000Y-97230000D01*
X101155000Y-97230000D01*
X101155000Y-96490000D01*
G36*
X101155000Y-96490000D02*
G01*
X98365000Y-96490000D01*
X98365000Y-97230000D01*
X101155000Y-97230000D01*
X101155000Y-96490000D01*
G37*
X101155000Y-97760000D02*
X98365000Y-97760000D01*
X98365000Y-98500000D01*
X101155000Y-98500000D01*
X101155000Y-97760000D01*
G36*
X101155000Y-97760000D02*
G01*
X98365000Y-97760000D01*
X98365000Y-98500000D01*
X101155000Y-98500000D01*
X101155000Y-97760000D01*
G37*
X101155000Y-99030000D02*
X98365000Y-99030000D01*
X98365000Y-99770000D01*
X101155000Y-99770000D01*
X101155000Y-99030000D01*
G36*
X101155000Y-99030000D02*
G01*
X98365000Y-99030000D01*
X98365000Y-99770000D01*
X101155000Y-99770000D01*
X101155000Y-99030000D01*
G37*
X101155000Y-100300000D02*
X98365000Y-100300000D01*
X98365000Y-101040000D01*
X101155000Y-101040000D01*
X101155000Y-100300000D01*
G36*
X101155000Y-100300000D02*
G01*
X98365000Y-100300000D01*
X98365000Y-101040000D01*
X101155000Y-101040000D01*
X101155000Y-100300000D01*
G37*
X101155000Y-101570000D02*
X98365000Y-101570000D01*
X98365000Y-102310000D01*
X101155000Y-102310000D01*
X101155000Y-101570000D01*
G36*
X101155000Y-101570000D02*
G01*
X98365000Y-101570000D01*
X98365000Y-102310000D01*
X101155000Y-102310000D01*
X101155000Y-101570000D01*
G37*
X101155000Y-102840000D02*
X98365000Y-102840000D01*
X98365000Y-103580000D01*
X101155000Y-103580000D01*
X101155000Y-102840000D01*
G36*
X101155000Y-102840000D02*
G01*
X98365000Y-102840000D01*
X98365000Y-103580000D01*
X101155000Y-103580000D01*
X101155000Y-102840000D01*
G37*
X101155000Y-104110000D02*
X98365000Y-104110000D01*
X98365000Y-104850000D01*
X101155000Y-104850000D01*
X101155000Y-104110000D01*
G36*
X101155000Y-104110000D02*
G01*
X98365000Y-104110000D01*
X98365000Y-104850000D01*
X101155000Y-104850000D01*
X101155000Y-104110000D01*
G37*
X101155000Y-105380000D02*
X98365000Y-105380000D01*
X98365000Y-106120000D01*
X101155000Y-106120000D01*
X101155000Y-105380000D01*
G36*
X101155000Y-105380000D02*
G01*
X98365000Y-105380000D01*
X98365000Y-106120000D01*
X101155000Y-106120000D01*
X101155000Y-105380000D01*
G37*
X101155000Y-106650000D02*
X98365000Y-106650000D01*
X98365000Y-107390000D01*
X101155000Y-107390000D01*
X101155000Y-106650000D01*
G36*
X101155000Y-106650000D02*
G01*
X98365000Y-106650000D01*
X98365000Y-107390000D01*
X101155000Y-107390000D01*
X101155000Y-106650000D01*
G37*
X105219000Y-69820000D02*
X102429000Y-69820000D01*
X102429000Y-70560000D01*
X105219000Y-70560000D01*
X105219000Y-69820000D01*
G36*
X105219000Y-69820000D02*
G01*
X102429000Y-69820000D01*
X102429000Y-70560000D01*
X105219000Y-70560000D01*
X105219000Y-69820000D01*
G37*
X105219000Y-71090000D02*
X102429000Y-71090000D01*
X102429000Y-71830000D01*
X105219000Y-71830000D01*
X105219000Y-71090000D01*
G36*
X105219000Y-71090000D02*
G01*
X102429000Y-71090000D01*
X102429000Y-71830000D01*
X105219000Y-71830000D01*
X105219000Y-71090000D01*
G37*
X105219000Y-72360000D02*
X102429000Y-72360000D01*
X102429000Y-73100000D01*
X105219000Y-73100000D01*
X105219000Y-72360000D01*
G36*
X105219000Y-72360000D02*
G01*
X102429000Y-72360000D01*
X102429000Y-73100000D01*
X105219000Y-73100000D01*
X105219000Y-72360000D01*
G37*
X105219000Y-73630000D02*
X102429000Y-73630000D01*
X102429000Y-74370000D01*
X105219000Y-74370000D01*
X105219000Y-73630000D01*
G36*
X105219000Y-73630000D02*
G01*
X102429000Y-73630000D01*
X102429000Y-74370000D01*
X105219000Y-74370000D01*
X105219000Y-73630000D01*
G37*
X105219000Y-74900000D02*
X102429000Y-74900000D01*
X102429000Y-75640000D01*
X105219000Y-75640000D01*
X105219000Y-74900000D01*
G36*
X105219000Y-74900000D02*
G01*
X102429000Y-74900000D01*
X102429000Y-75640000D01*
X105219000Y-75640000D01*
X105219000Y-74900000D01*
G37*
X105219000Y-76170000D02*
X102429000Y-76170000D01*
X102429000Y-76910000D01*
X105219000Y-76910000D01*
X105219000Y-76170000D01*
G36*
X105219000Y-76170000D02*
G01*
X102429000Y-76170000D01*
X102429000Y-76910000D01*
X105219000Y-76910000D01*
X105219000Y-76170000D01*
G37*
X105219000Y-77440000D02*
X102429000Y-77440000D01*
X102429000Y-78180000D01*
X105219000Y-78180000D01*
X105219000Y-77440000D01*
G36*
X105219000Y-77440000D02*
G01*
X102429000Y-77440000D01*
X102429000Y-78180000D01*
X105219000Y-78180000D01*
X105219000Y-77440000D01*
G37*
X105219000Y-78710000D02*
X102429000Y-78710000D01*
X102429000Y-79450000D01*
X105219000Y-79450000D01*
X105219000Y-78710000D01*
G36*
X105219000Y-78710000D02*
G01*
X102429000Y-78710000D01*
X102429000Y-79450000D01*
X105219000Y-79450000D01*
X105219000Y-78710000D01*
G37*
X105219000Y-79980000D02*
X102429000Y-79980000D01*
X102429000Y-80720000D01*
X105219000Y-80720000D01*
X105219000Y-79980000D01*
G36*
X105219000Y-79980000D02*
G01*
X102429000Y-79980000D01*
X102429000Y-80720000D01*
X105219000Y-80720000D01*
X105219000Y-79980000D01*
G37*
X105219000Y-81250000D02*
X102429000Y-81250000D01*
X102429000Y-81990000D01*
X105219000Y-81990000D01*
X105219000Y-81250000D01*
G36*
X105219000Y-81250000D02*
G01*
X102429000Y-81250000D01*
X102429000Y-81990000D01*
X105219000Y-81990000D01*
X105219000Y-81250000D01*
G37*
X105219000Y-82520000D02*
X102429000Y-82520000D01*
X102429000Y-83260000D01*
X105219000Y-83260000D01*
X105219000Y-82520000D01*
G36*
X105219000Y-82520000D02*
G01*
X102429000Y-82520000D01*
X102429000Y-83260000D01*
X105219000Y-83260000D01*
X105219000Y-82520000D01*
G37*
X105219000Y-83790000D02*
X102429000Y-83790000D01*
X102429000Y-84530000D01*
X105219000Y-84530000D01*
X105219000Y-83790000D01*
G36*
X105219000Y-83790000D02*
G01*
X102429000Y-83790000D01*
X102429000Y-84530000D01*
X105219000Y-84530000D01*
X105219000Y-83790000D01*
G37*
X105219000Y-85060000D02*
X102429000Y-85060000D01*
X102429000Y-85800000D01*
X105219000Y-85800000D01*
X105219000Y-85060000D01*
G36*
X105219000Y-85060000D02*
G01*
X102429000Y-85060000D01*
X102429000Y-85800000D01*
X105219000Y-85800000D01*
X105219000Y-85060000D01*
G37*
X105219000Y-86330000D02*
X102429000Y-86330000D01*
X102429000Y-87070000D01*
X105219000Y-87070000D01*
X105219000Y-86330000D01*
G36*
X105219000Y-86330000D02*
G01*
X102429000Y-86330000D01*
X102429000Y-87070000D01*
X105219000Y-87070000D01*
X105219000Y-86330000D01*
G37*
X105219000Y-87600000D02*
X102429000Y-87600000D01*
X102429000Y-88340000D01*
X105219000Y-88340000D01*
X105219000Y-87600000D01*
G36*
X105219000Y-87600000D02*
G01*
X102429000Y-87600000D01*
X102429000Y-88340000D01*
X105219000Y-88340000D01*
X105219000Y-87600000D01*
G37*
X105219000Y-88870000D02*
X102429000Y-88870000D01*
X102429000Y-89610000D01*
X105219000Y-89610000D01*
X105219000Y-88870000D01*
G36*
X105219000Y-88870000D02*
G01*
X102429000Y-88870000D01*
X102429000Y-89610000D01*
X105219000Y-89610000D01*
X105219000Y-88870000D01*
G37*
X105219000Y-90140000D02*
X102429000Y-90140000D01*
X102429000Y-90880000D01*
X105219000Y-90880000D01*
X105219000Y-90140000D01*
G36*
X105219000Y-90140000D02*
G01*
X102429000Y-90140000D01*
X102429000Y-90880000D01*
X105219000Y-90880000D01*
X105219000Y-90140000D01*
G37*
X105219000Y-91410000D02*
X102429000Y-91410000D01*
X102429000Y-92150000D01*
X105219000Y-92150000D01*
X105219000Y-91410000D01*
G36*
X105219000Y-91410000D02*
G01*
X102429000Y-91410000D01*
X102429000Y-92150000D01*
X105219000Y-92150000D01*
X105219000Y-91410000D01*
G37*
X105219000Y-92680000D02*
X102429000Y-92680000D01*
X102429000Y-93420000D01*
X105219000Y-93420000D01*
X105219000Y-92680000D01*
G36*
X105219000Y-92680000D02*
G01*
X102429000Y-92680000D01*
X102429000Y-93420000D01*
X105219000Y-93420000D01*
X105219000Y-92680000D01*
G37*
X105219000Y-93950000D02*
X102429000Y-93950000D01*
X102429000Y-94690000D01*
X105219000Y-94690000D01*
X105219000Y-93950000D01*
G36*
X105219000Y-93950000D02*
G01*
X102429000Y-93950000D01*
X102429000Y-94690000D01*
X105219000Y-94690000D01*
X105219000Y-93950000D01*
G37*
X105219000Y-95220000D02*
X102429000Y-95220000D01*
X102429000Y-95960000D01*
X105219000Y-95960000D01*
X105219000Y-95220000D01*
G36*
X105219000Y-95220000D02*
G01*
X102429000Y-95220000D01*
X102429000Y-95960000D01*
X105219000Y-95960000D01*
X105219000Y-95220000D01*
G37*
X105219000Y-96490000D02*
X102429000Y-96490000D01*
X102429000Y-97230000D01*
X105219000Y-97230000D01*
X105219000Y-96490000D01*
G36*
X105219000Y-96490000D02*
G01*
X102429000Y-96490000D01*
X102429000Y-97230000D01*
X105219000Y-97230000D01*
X105219000Y-96490000D01*
G37*
X105219000Y-97760000D02*
X102429000Y-97760000D01*
X102429000Y-98500000D01*
X105219000Y-98500000D01*
X105219000Y-97760000D01*
G36*
X105219000Y-97760000D02*
G01*
X102429000Y-97760000D01*
X102429000Y-98500000D01*
X105219000Y-98500000D01*
X105219000Y-97760000D01*
G37*
X105219000Y-99030000D02*
X102429000Y-99030000D01*
X102429000Y-99770000D01*
X105219000Y-99770000D01*
X105219000Y-99030000D01*
G36*
X105219000Y-99030000D02*
G01*
X102429000Y-99030000D01*
X102429000Y-99770000D01*
X105219000Y-99770000D01*
X105219000Y-99030000D01*
G37*
X105219000Y-100300000D02*
X102429000Y-100300000D01*
X102429000Y-101040000D01*
X105219000Y-101040000D01*
X105219000Y-100300000D01*
G36*
X105219000Y-100300000D02*
G01*
X102429000Y-100300000D01*
X102429000Y-101040000D01*
X105219000Y-101040000D01*
X105219000Y-100300000D01*
G37*
X105219000Y-101570000D02*
X102429000Y-101570000D01*
X102429000Y-102310000D01*
X105219000Y-102310000D01*
X105219000Y-101570000D01*
G36*
X105219000Y-101570000D02*
G01*
X102429000Y-101570000D01*
X102429000Y-102310000D01*
X105219000Y-102310000D01*
X105219000Y-101570000D01*
G37*
X105219000Y-102840000D02*
X102429000Y-102840000D01*
X102429000Y-103580000D01*
X105219000Y-103580000D01*
X105219000Y-102840000D01*
G36*
X105219000Y-102840000D02*
G01*
X102429000Y-102840000D01*
X102429000Y-103580000D01*
X105219000Y-103580000D01*
X105219000Y-102840000D01*
G37*
X105219000Y-104110000D02*
X102429000Y-104110000D01*
X102429000Y-104850000D01*
X105219000Y-104850000D01*
X105219000Y-104110000D01*
G36*
X105219000Y-104110000D02*
G01*
X102429000Y-104110000D01*
X102429000Y-104850000D01*
X105219000Y-104850000D01*
X105219000Y-104110000D01*
G37*
X105219000Y-105380000D02*
X102429000Y-105380000D01*
X102429000Y-106120000D01*
X105219000Y-106120000D01*
X105219000Y-105380000D01*
G36*
X105219000Y-105380000D02*
G01*
X102429000Y-105380000D01*
X102429000Y-106120000D01*
X105219000Y-106120000D01*
X105219000Y-105380000D01*
G37*
X105219000Y-106650000D02*
X102429000Y-106650000D01*
X102429000Y-107390000D01*
X105219000Y-107390000D01*
X105219000Y-106650000D01*
G36*
X105219000Y-106650000D02*
G01*
X102429000Y-106650000D01*
X102429000Y-107390000D01*
X105219000Y-107390000D01*
X105219000Y-106650000D01*
G37*
%TO.C,D6*%
X93030000Y-138857500D02*
X92670000Y-138857500D01*
X92670000Y-138292500D01*
X93030000Y-138292500D01*
X93030000Y-138857500D01*
G36*
X93030000Y-138857500D02*
G01*
X92670000Y-138857500D01*
X92670000Y-138292500D01*
X93030000Y-138292500D01*
X93030000Y-138857500D01*
G37*
X93030000Y-139692500D02*
X92670000Y-139692500D01*
X92670000Y-139127500D01*
X93030000Y-139127500D01*
X93030000Y-139692500D01*
G36*
X93030000Y-139692500D02*
G01*
X92670000Y-139692500D01*
X92670000Y-139127500D01*
X93030000Y-139127500D01*
X93030000Y-139692500D01*
G37*
%TO.C,U2*%
X83684254Y-118145140D02*
X80784114Y-118145140D01*
X80784114Y-115245000D01*
X83684254Y-115245000D01*
X83684254Y-118145140D01*
G36*
X83684254Y-118145140D02*
G01*
X80784114Y-118145140D01*
X80784114Y-115245000D01*
X83684254Y-115245000D01*
X83684254Y-118145140D01*
G37*
%TO.C,D5*%
X70840000Y-138902500D02*
X70480000Y-138902500D01*
X70480000Y-138337500D01*
X70840000Y-138337500D01*
X70840000Y-138902500D01*
G36*
X70840000Y-138902500D02*
G01*
X70480000Y-138902500D01*
X70480000Y-138337500D01*
X70840000Y-138337500D01*
X70840000Y-138902500D01*
G37*
X70840000Y-139737500D02*
X70480000Y-139737500D01*
X70480000Y-139172500D01*
X70840000Y-139172500D01*
X70840000Y-139737500D01*
G36*
X70840000Y-139737500D02*
G01*
X70480000Y-139737500D01*
X70480000Y-139172500D01*
X70840000Y-139172500D01*
X70840000Y-139737500D01*
G37*
%TO.C,J1*%
X54895000Y-69820000D02*
X52105000Y-69820000D01*
X52105000Y-70560000D01*
X54895000Y-70560000D01*
X54895000Y-69820000D01*
G36*
X54895000Y-69820000D02*
G01*
X52105000Y-69820000D01*
X52105000Y-70560000D01*
X54895000Y-70560000D01*
X54895000Y-69820000D01*
G37*
X54895000Y-71090000D02*
X52105000Y-71090000D01*
X52105000Y-71830000D01*
X54895000Y-71830000D01*
X54895000Y-71090000D01*
G36*
X54895000Y-71090000D02*
G01*
X52105000Y-71090000D01*
X52105000Y-71830000D01*
X54895000Y-71830000D01*
X54895000Y-71090000D01*
G37*
X54895000Y-72360000D02*
X52105000Y-72360000D01*
X52105000Y-73100000D01*
X54895000Y-73100000D01*
X54895000Y-72360000D01*
G36*
X54895000Y-72360000D02*
G01*
X52105000Y-72360000D01*
X52105000Y-73100000D01*
X54895000Y-73100000D01*
X54895000Y-72360000D01*
G37*
X54895000Y-73630000D02*
X52105000Y-73630000D01*
X52105000Y-74370000D01*
X54895000Y-74370000D01*
X54895000Y-73630000D01*
G36*
X54895000Y-73630000D02*
G01*
X52105000Y-73630000D01*
X52105000Y-74370000D01*
X54895000Y-74370000D01*
X54895000Y-73630000D01*
G37*
X54895000Y-74900000D02*
X52105000Y-74900000D01*
X52105000Y-75640000D01*
X54895000Y-75640000D01*
X54895000Y-74900000D01*
G36*
X54895000Y-74900000D02*
G01*
X52105000Y-74900000D01*
X52105000Y-75640000D01*
X54895000Y-75640000D01*
X54895000Y-74900000D01*
G37*
X54895000Y-76170000D02*
X52105000Y-76170000D01*
X52105000Y-76910000D01*
X54895000Y-76910000D01*
X54895000Y-76170000D01*
G36*
X54895000Y-76170000D02*
G01*
X52105000Y-76170000D01*
X52105000Y-76910000D01*
X54895000Y-76910000D01*
X54895000Y-76170000D01*
G37*
X54895000Y-77440000D02*
X52105000Y-77440000D01*
X52105000Y-78180000D01*
X54895000Y-78180000D01*
X54895000Y-77440000D01*
G36*
X54895000Y-77440000D02*
G01*
X52105000Y-77440000D01*
X52105000Y-78180000D01*
X54895000Y-78180000D01*
X54895000Y-77440000D01*
G37*
X54895000Y-78710000D02*
X52105000Y-78710000D01*
X52105000Y-79450000D01*
X54895000Y-79450000D01*
X54895000Y-78710000D01*
G36*
X54895000Y-78710000D02*
G01*
X52105000Y-78710000D01*
X52105000Y-79450000D01*
X54895000Y-79450000D01*
X54895000Y-78710000D01*
G37*
X54895000Y-79980000D02*
X52105000Y-79980000D01*
X52105000Y-80720000D01*
X54895000Y-80720000D01*
X54895000Y-79980000D01*
G36*
X54895000Y-79980000D02*
G01*
X52105000Y-79980000D01*
X52105000Y-80720000D01*
X54895000Y-80720000D01*
X54895000Y-79980000D01*
G37*
X54895000Y-81250000D02*
X52105000Y-81250000D01*
X52105000Y-81990000D01*
X54895000Y-81990000D01*
X54895000Y-81250000D01*
G36*
X54895000Y-81250000D02*
G01*
X52105000Y-81250000D01*
X52105000Y-81990000D01*
X54895000Y-81990000D01*
X54895000Y-81250000D01*
G37*
X54895000Y-82520000D02*
X52105000Y-82520000D01*
X52105000Y-83260000D01*
X54895000Y-83260000D01*
X54895000Y-82520000D01*
G36*
X54895000Y-82520000D02*
G01*
X52105000Y-82520000D01*
X52105000Y-83260000D01*
X54895000Y-83260000D01*
X54895000Y-82520000D01*
G37*
X54895000Y-83790000D02*
X52105000Y-83790000D01*
X52105000Y-84530000D01*
X54895000Y-84530000D01*
X54895000Y-83790000D01*
G36*
X54895000Y-83790000D02*
G01*
X52105000Y-83790000D01*
X52105000Y-84530000D01*
X54895000Y-84530000D01*
X54895000Y-83790000D01*
G37*
X54895000Y-85060000D02*
X52105000Y-85060000D01*
X52105000Y-85800000D01*
X54895000Y-85800000D01*
X54895000Y-85060000D01*
G36*
X54895000Y-85060000D02*
G01*
X52105000Y-85060000D01*
X52105000Y-85800000D01*
X54895000Y-85800000D01*
X54895000Y-85060000D01*
G37*
X54895000Y-86330000D02*
X52105000Y-86330000D01*
X52105000Y-87070000D01*
X54895000Y-87070000D01*
X54895000Y-86330000D01*
G36*
X54895000Y-86330000D02*
G01*
X52105000Y-86330000D01*
X52105000Y-87070000D01*
X54895000Y-87070000D01*
X54895000Y-86330000D01*
G37*
X54895000Y-87600000D02*
X52105000Y-87600000D01*
X52105000Y-88340000D01*
X54895000Y-88340000D01*
X54895000Y-87600000D01*
G36*
X54895000Y-87600000D02*
G01*
X52105000Y-87600000D01*
X52105000Y-88340000D01*
X54895000Y-88340000D01*
X54895000Y-87600000D01*
G37*
X54895000Y-88870000D02*
X52105000Y-88870000D01*
X52105000Y-89610000D01*
X54895000Y-89610000D01*
X54895000Y-88870000D01*
G36*
X54895000Y-88870000D02*
G01*
X52105000Y-88870000D01*
X52105000Y-89610000D01*
X54895000Y-89610000D01*
X54895000Y-88870000D01*
G37*
X54895000Y-90140000D02*
X52105000Y-90140000D01*
X52105000Y-90880000D01*
X54895000Y-90880000D01*
X54895000Y-90140000D01*
G36*
X54895000Y-90140000D02*
G01*
X52105000Y-90140000D01*
X52105000Y-90880000D01*
X54895000Y-90880000D01*
X54895000Y-90140000D01*
G37*
X54895000Y-91410000D02*
X52105000Y-91410000D01*
X52105000Y-92150000D01*
X54895000Y-92150000D01*
X54895000Y-91410000D01*
G36*
X54895000Y-91410000D02*
G01*
X52105000Y-91410000D01*
X52105000Y-92150000D01*
X54895000Y-92150000D01*
X54895000Y-91410000D01*
G37*
X54895000Y-92680000D02*
X52105000Y-92680000D01*
X52105000Y-93420000D01*
X54895000Y-93420000D01*
X54895000Y-92680000D01*
G36*
X54895000Y-92680000D02*
G01*
X52105000Y-92680000D01*
X52105000Y-93420000D01*
X54895000Y-93420000D01*
X54895000Y-92680000D01*
G37*
X54895000Y-93950000D02*
X52105000Y-93950000D01*
X52105000Y-94690000D01*
X54895000Y-94690000D01*
X54895000Y-93950000D01*
G36*
X54895000Y-93950000D02*
G01*
X52105000Y-93950000D01*
X52105000Y-94690000D01*
X54895000Y-94690000D01*
X54895000Y-93950000D01*
G37*
X54895000Y-95220000D02*
X52105000Y-95220000D01*
X52105000Y-95960000D01*
X54895000Y-95960000D01*
X54895000Y-95220000D01*
G36*
X54895000Y-95220000D02*
G01*
X52105000Y-95220000D01*
X52105000Y-95960000D01*
X54895000Y-95960000D01*
X54895000Y-95220000D01*
G37*
X54895000Y-96490000D02*
X52105000Y-96490000D01*
X52105000Y-97230000D01*
X54895000Y-97230000D01*
X54895000Y-96490000D01*
G36*
X54895000Y-96490000D02*
G01*
X52105000Y-96490000D01*
X52105000Y-97230000D01*
X54895000Y-97230000D01*
X54895000Y-96490000D01*
G37*
X54895000Y-97760000D02*
X52105000Y-97760000D01*
X52105000Y-98500000D01*
X54895000Y-98500000D01*
X54895000Y-97760000D01*
G36*
X54895000Y-97760000D02*
G01*
X52105000Y-97760000D01*
X52105000Y-98500000D01*
X54895000Y-98500000D01*
X54895000Y-97760000D01*
G37*
X54895000Y-99030000D02*
X52105000Y-99030000D01*
X52105000Y-99770000D01*
X54895000Y-99770000D01*
X54895000Y-99030000D01*
G36*
X54895000Y-99030000D02*
G01*
X52105000Y-99030000D01*
X52105000Y-99770000D01*
X54895000Y-99770000D01*
X54895000Y-99030000D01*
G37*
X54895000Y-100300000D02*
X52105000Y-100300000D01*
X52105000Y-101040000D01*
X54895000Y-101040000D01*
X54895000Y-100300000D01*
G36*
X54895000Y-100300000D02*
G01*
X52105000Y-100300000D01*
X52105000Y-101040000D01*
X54895000Y-101040000D01*
X54895000Y-100300000D01*
G37*
X54895000Y-101570000D02*
X52105000Y-101570000D01*
X52105000Y-102310000D01*
X54895000Y-102310000D01*
X54895000Y-101570000D01*
G36*
X54895000Y-101570000D02*
G01*
X52105000Y-101570000D01*
X52105000Y-102310000D01*
X54895000Y-102310000D01*
X54895000Y-101570000D01*
G37*
X54895000Y-102840000D02*
X52105000Y-102840000D01*
X52105000Y-103580000D01*
X54895000Y-103580000D01*
X54895000Y-102840000D01*
G36*
X54895000Y-102840000D02*
G01*
X52105000Y-102840000D01*
X52105000Y-103580000D01*
X54895000Y-103580000D01*
X54895000Y-102840000D01*
G37*
X54895000Y-104110000D02*
X52105000Y-104110000D01*
X52105000Y-104850000D01*
X54895000Y-104850000D01*
X54895000Y-104110000D01*
G36*
X54895000Y-104110000D02*
G01*
X52105000Y-104110000D01*
X52105000Y-104850000D01*
X54895000Y-104850000D01*
X54895000Y-104110000D01*
G37*
X54895000Y-105380000D02*
X52105000Y-105380000D01*
X52105000Y-106120000D01*
X54895000Y-106120000D01*
X54895000Y-105380000D01*
G36*
X54895000Y-105380000D02*
G01*
X52105000Y-105380000D01*
X52105000Y-106120000D01*
X54895000Y-106120000D01*
X54895000Y-105380000D01*
G37*
X54895000Y-106650000D02*
X52105000Y-106650000D01*
X52105000Y-107390000D01*
X54895000Y-107390000D01*
X54895000Y-106650000D01*
G36*
X54895000Y-106650000D02*
G01*
X52105000Y-106650000D01*
X52105000Y-107390000D01*
X54895000Y-107390000D01*
X54895000Y-106650000D01*
G37*
X58959000Y-69820000D02*
X56169000Y-69820000D01*
X56169000Y-70560000D01*
X58959000Y-70560000D01*
X58959000Y-69820000D01*
G36*
X58959000Y-69820000D02*
G01*
X56169000Y-69820000D01*
X56169000Y-70560000D01*
X58959000Y-70560000D01*
X58959000Y-69820000D01*
G37*
X58959000Y-71090000D02*
X56169000Y-71090000D01*
X56169000Y-71830000D01*
X58959000Y-71830000D01*
X58959000Y-71090000D01*
G36*
X58959000Y-71090000D02*
G01*
X56169000Y-71090000D01*
X56169000Y-71830000D01*
X58959000Y-71830000D01*
X58959000Y-71090000D01*
G37*
X58959000Y-72360000D02*
X56169000Y-72360000D01*
X56169000Y-73100000D01*
X58959000Y-73100000D01*
X58959000Y-72360000D01*
G36*
X58959000Y-72360000D02*
G01*
X56169000Y-72360000D01*
X56169000Y-73100000D01*
X58959000Y-73100000D01*
X58959000Y-72360000D01*
G37*
X58959000Y-73630000D02*
X56169000Y-73630000D01*
X56169000Y-74370000D01*
X58959000Y-74370000D01*
X58959000Y-73630000D01*
G36*
X58959000Y-73630000D02*
G01*
X56169000Y-73630000D01*
X56169000Y-74370000D01*
X58959000Y-74370000D01*
X58959000Y-73630000D01*
G37*
X58959000Y-74900000D02*
X56169000Y-74900000D01*
X56169000Y-75640000D01*
X58959000Y-75640000D01*
X58959000Y-74900000D01*
G36*
X58959000Y-74900000D02*
G01*
X56169000Y-74900000D01*
X56169000Y-75640000D01*
X58959000Y-75640000D01*
X58959000Y-74900000D01*
G37*
X58959000Y-76170000D02*
X56169000Y-76170000D01*
X56169000Y-76910000D01*
X58959000Y-76910000D01*
X58959000Y-76170000D01*
G36*
X58959000Y-76170000D02*
G01*
X56169000Y-76170000D01*
X56169000Y-76910000D01*
X58959000Y-76910000D01*
X58959000Y-76170000D01*
G37*
X58959000Y-77440000D02*
X56169000Y-77440000D01*
X56169000Y-78180000D01*
X58959000Y-78180000D01*
X58959000Y-77440000D01*
G36*
X58959000Y-77440000D02*
G01*
X56169000Y-77440000D01*
X56169000Y-78180000D01*
X58959000Y-78180000D01*
X58959000Y-77440000D01*
G37*
X58959000Y-78710000D02*
X56169000Y-78710000D01*
X56169000Y-79450000D01*
X58959000Y-79450000D01*
X58959000Y-78710000D01*
G36*
X58959000Y-78710000D02*
G01*
X56169000Y-78710000D01*
X56169000Y-79450000D01*
X58959000Y-79450000D01*
X58959000Y-78710000D01*
G37*
X58959000Y-79980000D02*
X56169000Y-79980000D01*
X56169000Y-80720000D01*
X58959000Y-80720000D01*
X58959000Y-79980000D01*
G36*
X58959000Y-79980000D02*
G01*
X56169000Y-79980000D01*
X56169000Y-80720000D01*
X58959000Y-80720000D01*
X58959000Y-79980000D01*
G37*
X58959000Y-81250000D02*
X56169000Y-81250000D01*
X56169000Y-81990000D01*
X58959000Y-81990000D01*
X58959000Y-81250000D01*
G36*
X58959000Y-81250000D02*
G01*
X56169000Y-81250000D01*
X56169000Y-81990000D01*
X58959000Y-81990000D01*
X58959000Y-81250000D01*
G37*
X58959000Y-82520000D02*
X56169000Y-82520000D01*
X56169000Y-83260000D01*
X58959000Y-83260000D01*
X58959000Y-82520000D01*
G36*
X58959000Y-82520000D02*
G01*
X56169000Y-82520000D01*
X56169000Y-83260000D01*
X58959000Y-83260000D01*
X58959000Y-82520000D01*
G37*
X58959000Y-83790000D02*
X56169000Y-83790000D01*
X56169000Y-84530000D01*
X58959000Y-84530000D01*
X58959000Y-83790000D01*
G36*
X58959000Y-83790000D02*
G01*
X56169000Y-83790000D01*
X56169000Y-84530000D01*
X58959000Y-84530000D01*
X58959000Y-83790000D01*
G37*
X58959000Y-85060000D02*
X56169000Y-85060000D01*
X56169000Y-85800000D01*
X58959000Y-85800000D01*
X58959000Y-85060000D01*
G36*
X58959000Y-85060000D02*
G01*
X56169000Y-85060000D01*
X56169000Y-85800000D01*
X58959000Y-85800000D01*
X58959000Y-85060000D01*
G37*
X58959000Y-86330000D02*
X56169000Y-86330000D01*
X56169000Y-87070000D01*
X58959000Y-87070000D01*
X58959000Y-86330000D01*
G36*
X58959000Y-86330000D02*
G01*
X56169000Y-86330000D01*
X56169000Y-87070000D01*
X58959000Y-87070000D01*
X58959000Y-86330000D01*
G37*
X58959000Y-87600000D02*
X56169000Y-87600000D01*
X56169000Y-88340000D01*
X58959000Y-88340000D01*
X58959000Y-87600000D01*
G36*
X58959000Y-87600000D02*
G01*
X56169000Y-87600000D01*
X56169000Y-88340000D01*
X58959000Y-88340000D01*
X58959000Y-87600000D01*
G37*
X58959000Y-88870000D02*
X56169000Y-88870000D01*
X56169000Y-89610000D01*
X58959000Y-89610000D01*
X58959000Y-88870000D01*
G36*
X58959000Y-88870000D02*
G01*
X56169000Y-88870000D01*
X56169000Y-89610000D01*
X58959000Y-89610000D01*
X58959000Y-88870000D01*
G37*
X58959000Y-90140000D02*
X56169000Y-90140000D01*
X56169000Y-90880000D01*
X58959000Y-90880000D01*
X58959000Y-90140000D01*
G36*
X58959000Y-90140000D02*
G01*
X56169000Y-90140000D01*
X56169000Y-90880000D01*
X58959000Y-90880000D01*
X58959000Y-90140000D01*
G37*
X58959000Y-91410000D02*
X56169000Y-91410000D01*
X56169000Y-92150000D01*
X58959000Y-92150000D01*
X58959000Y-91410000D01*
G36*
X58959000Y-91410000D02*
G01*
X56169000Y-91410000D01*
X56169000Y-92150000D01*
X58959000Y-92150000D01*
X58959000Y-91410000D01*
G37*
X58959000Y-92680000D02*
X56169000Y-92680000D01*
X56169000Y-93420000D01*
X58959000Y-93420000D01*
X58959000Y-92680000D01*
G36*
X58959000Y-92680000D02*
G01*
X56169000Y-92680000D01*
X56169000Y-93420000D01*
X58959000Y-93420000D01*
X58959000Y-92680000D01*
G37*
X58959000Y-93950000D02*
X56169000Y-93950000D01*
X56169000Y-94690000D01*
X58959000Y-94690000D01*
X58959000Y-93950000D01*
G36*
X58959000Y-93950000D02*
G01*
X56169000Y-93950000D01*
X56169000Y-94690000D01*
X58959000Y-94690000D01*
X58959000Y-93950000D01*
G37*
X58959000Y-95220000D02*
X56169000Y-95220000D01*
X56169000Y-95960000D01*
X58959000Y-95960000D01*
X58959000Y-95220000D01*
G36*
X58959000Y-95220000D02*
G01*
X56169000Y-95220000D01*
X56169000Y-95960000D01*
X58959000Y-95960000D01*
X58959000Y-95220000D01*
G37*
X58959000Y-96490000D02*
X56169000Y-96490000D01*
X56169000Y-97230000D01*
X58959000Y-97230000D01*
X58959000Y-96490000D01*
G36*
X58959000Y-96490000D02*
G01*
X56169000Y-96490000D01*
X56169000Y-97230000D01*
X58959000Y-97230000D01*
X58959000Y-96490000D01*
G37*
X58959000Y-97760000D02*
X56169000Y-97760000D01*
X56169000Y-98500000D01*
X58959000Y-98500000D01*
X58959000Y-97760000D01*
G36*
X58959000Y-97760000D02*
G01*
X56169000Y-97760000D01*
X56169000Y-98500000D01*
X58959000Y-98500000D01*
X58959000Y-97760000D01*
G37*
X58959000Y-99030000D02*
X56169000Y-99030000D01*
X56169000Y-99770000D01*
X58959000Y-99770000D01*
X58959000Y-99030000D01*
G36*
X58959000Y-99030000D02*
G01*
X56169000Y-99030000D01*
X56169000Y-99770000D01*
X58959000Y-99770000D01*
X58959000Y-99030000D01*
G37*
X58959000Y-100300000D02*
X56169000Y-100300000D01*
X56169000Y-101040000D01*
X58959000Y-101040000D01*
X58959000Y-100300000D01*
G36*
X58959000Y-100300000D02*
G01*
X56169000Y-100300000D01*
X56169000Y-101040000D01*
X58959000Y-101040000D01*
X58959000Y-100300000D01*
G37*
X58959000Y-101570000D02*
X56169000Y-101570000D01*
X56169000Y-102310000D01*
X58959000Y-102310000D01*
X58959000Y-101570000D01*
G36*
X58959000Y-101570000D02*
G01*
X56169000Y-101570000D01*
X56169000Y-102310000D01*
X58959000Y-102310000D01*
X58959000Y-101570000D01*
G37*
X58959000Y-102840000D02*
X56169000Y-102840000D01*
X56169000Y-103580000D01*
X58959000Y-103580000D01*
X58959000Y-102840000D01*
G36*
X58959000Y-102840000D02*
G01*
X56169000Y-102840000D01*
X56169000Y-103580000D01*
X58959000Y-103580000D01*
X58959000Y-102840000D01*
G37*
X58959000Y-104110000D02*
X56169000Y-104110000D01*
X56169000Y-104850000D01*
X58959000Y-104850000D01*
X58959000Y-104110000D01*
G36*
X58959000Y-104110000D02*
G01*
X56169000Y-104110000D01*
X56169000Y-104850000D01*
X58959000Y-104850000D01*
X58959000Y-104110000D01*
G37*
X58959000Y-105380000D02*
X56169000Y-105380000D01*
X56169000Y-106120000D01*
X58959000Y-106120000D01*
X58959000Y-105380000D01*
G36*
X58959000Y-105380000D02*
G01*
X56169000Y-105380000D01*
X56169000Y-106120000D01*
X58959000Y-106120000D01*
X58959000Y-105380000D01*
G37*
X58959000Y-106650000D02*
X56169000Y-106650000D01*
X56169000Y-107390000D01*
X58959000Y-107390000D01*
X58959000Y-106650000D01*
G36*
X58959000Y-106650000D02*
G01*
X56169000Y-106650000D01*
X56169000Y-107390000D01*
X58959000Y-107390000D01*
X58959000Y-106650000D01*
G37*
%TD*%
D11*
%TO.C,J7*%
X109630000Y-150835000D03*
X110430000Y-150835000D03*
D12*
X111580000Y-150835000D03*
X112580000Y-150835000D03*
X113080000Y-150835000D03*
X114080000Y-150835000D03*
D11*
X115230000Y-150835000D03*
X116030000Y-150835000D03*
X116030000Y-150835000D03*
X115230000Y-150835000D03*
D12*
X114580000Y-150835000D03*
X113580000Y-150835000D03*
X112080000Y-150835000D03*
X111080000Y-150835000D03*
D11*
X110430000Y-150835000D03*
X109630000Y-150835000D03*
D13*
X108510000Y-151410000D03*
D14*
X108510000Y-155590000D03*
D13*
X117150000Y-151410000D03*
D14*
X117150000Y-155590000D03*
%TD*%
D15*
%TO.C,C25*%
X67550000Y-137740000D03*
X67550000Y-139640000D03*
%TD*%
D16*
%TO.C,Q1*%
X115310000Y-130392500D03*
X117210000Y-130392500D03*
X116260000Y-127392500D03*
%TD*%
D17*
%TO.C,R7*%
X118880000Y-124925000D03*
X118880000Y-123100000D03*
%TD*%
D18*
%TO.C,LED1*%
X157600000Y-112740000D03*
X157600000Y-116040000D03*
X162500000Y-116040000D03*
X162500000Y-112740000D03*
%TD*%
D19*
%TO.C,C36*%
X35870000Y-119490000D03*
X33970000Y-119490000D03*
%TD*%
D20*
%TO.C,C7*%
X66690000Y-98630000D03*
X68590000Y-98630000D03*
%TD*%
D21*
%TO.C,J6*%
X128290000Y-68790000D03*
X136490000Y-69190000D03*
X128290000Y-69590000D03*
X136490000Y-69990000D03*
X128290000Y-70390000D03*
X136490000Y-70790000D03*
X128290000Y-71190000D03*
X136490000Y-71590000D03*
X128290000Y-71990000D03*
X136490000Y-72390000D03*
X128290000Y-72790000D03*
X136490000Y-73190000D03*
X128290000Y-73590000D03*
X136490000Y-73990000D03*
X128290000Y-74390000D03*
X136490000Y-74790000D03*
X128290000Y-78390000D03*
X136490000Y-78790000D03*
X128290000Y-79190000D03*
X136490000Y-79590000D03*
X128290000Y-79990000D03*
X136490000Y-80390000D03*
X128290000Y-80790000D03*
X136490000Y-81190000D03*
X128290000Y-81590000D03*
X136490000Y-81990000D03*
X128290000Y-82390000D03*
X136490000Y-82790000D03*
X128290000Y-83190000D03*
X136490000Y-83590000D03*
X128290000Y-83990000D03*
X136490000Y-84390000D03*
X128290000Y-84790000D03*
X136490000Y-85190000D03*
X128290000Y-85590000D03*
X136490000Y-85990000D03*
X128290000Y-86390000D03*
X136490000Y-86790000D03*
X128290000Y-87190000D03*
X136490000Y-87590000D03*
X128290000Y-87990000D03*
X136490000Y-88390000D03*
X128290000Y-88790000D03*
X136490000Y-89190000D03*
X128290000Y-89590000D03*
X136490000Y-89990000D03*
X128290000Y-90390000D03*
X136490000Y-90790000D03*
X128290000Y-91190000D03*
X136490000Y-91590000D03*
X128290000Y-91990000D03*
X136490000Y-92390000D03*
D22*
X128890000Y-65940000D03*
X128890000Y-95240000D03*
%TD*%
D20*
%TO.C,C10*%
X102237500Y-122932500D03*
X104137500Y-122932500D03*
%TD*%
%TO.C,C3*%
X73155000Y-108135000D03*
X75055000Y-108135000D03*
%TD*%
D23*
%TO.C,R10*%
X96350000Y-110740000D03*
X94525000Y-110740000D03*
%TD*%
D15*
%TO.C,C27*%
X86820000Y-137310000D03*
X86820000Y-139210000D03*
%TD*%
D24*
%TO.C,J9*%
X39195000Y-144540000D03*
X41195000Y-144540000D03*
X43195000Y-144540000D03*
X45195000Y-144540000D03*
X46195000Y-144540000D03*
X44195000Y-144540000D03*
X42195000Y-144540000D03*
X40195000Y-144540000D03*
X38195000Y-144540000D03*
D25*
X35795000Y-151890000D03*
X48595000Y-151890000D03*
%TD*%
D26*
%TO.C,J2*%
X103824000Y-70190000D03*
X99760000Y-70190000D03*
X103824000Y-71460000D03*
X99760000Y-71460000D03*
X103824000Y-72730000D03*
X99760000Y-72730000D03*
X103824000Y-74000000D03*
X99760000Y-74000000D03*
X103824000Y-75270000D03*
X99760000Y-75270000D03*
X103824000Y-76540000D03*
X99760000Y-76540000D03*
X103824000Y-77810000D03*
X99760000Y-77810000D03*
X103824000Y-79080000D03*
X99760000Y-79080000D03*
X103824000Y-80350000D03*
X99760000Y-80350000D03*
X103824000Y-81620000D03*
X99760000Y-81620000D03*
X103824000Y-82890000D03*
X99760000Y-82890000D03*
X103824000Y-84160000D03*
X99760000Y-84160000D03*
X103824000Y-85430000D03*
X99760000Y-85430000D03*
X103824000Y-86700000D03*
X99760000Y-86700000D03*
X103824000Y-87970000D03*
X99760000Y-87970000D03*
X103824000Y-89240000D03*
X99760000Y-89240000D03*
X103824000Y-90510000D03*
X99760000Y-90510000D03*
X103824000Y-91780000D03*
X99760000Y-91780000D03*
X103824000Y-93050000D03*
X99760000Y-93050000D03*
X103824000Y-94320000D03*
X99760000Y-94320000D03*
X103824000Y-95590000D03*
X99760000Y-95590000D03*
X103824000Y-96860000D03*
X99760000Y-96860000D03*
X103824000Y-98130000D03*
X99760000Y-98130000D03*
X103824000Y-99400000D03*
X99760000Y-99400000D03*
X103824000Y-100670000D03*
X99760000Y-100670000D03*
X103824000Y-101940000D03*
X99760000Y-101940000D03*
X103824000Y-103210000D03*
X99760000Y-103210000D03*
X103824000Y-104480000D03*
X99760000Y-104480000D03*
X103824000Y-105750000D03*
X99760000Y-105750000D03*
X103824000Y-107020000D03*
X99760000Y-107020000D03*
%TD*%
D20*
%TO.C,C28*%
X102217500Y-120612500D03*
X104117500Y-120612500D03*
%TD*%
D15*
%TO.C,C1*%
X37150000Y-103970000D03*
X37150000Y-105870000D03*
%TD*%
D19*
%TO.C,C5*%
X46030000Y-114120000D03*
X44130000Y-114120000D03*
%TD*%
D27*
%TO.C,U9*%
X116719999Y-141190000D03*
X115769998Y-141190000D03*
X114820000Y-141190000D03*
X114820000Y-143940000D03*
X116719999Y-143940000D03*
%TD*%
D28*
%TO.C,D4*%
X91370000Y-108270000D03*
X92770000Y-108270000D03*
%TD*%
D27*
%TO.C,U7*%
X60230000Y-140260000D03*
X61180001Y-140260000D03*
X62129999Y-140260000D03*
X62129999Y-137510000D03*
X60230000Y-137510000D03*
%TD*%
D29*
%TO.C,Q3*%
X43005000Y-120960000D03*
X43005000Y-122860000D03*
X44880000Y-121910000D03*
%TD*%
D20*
%TO.C,C21*%
X114819998Y-138660000D03*
X116719998Y-138660000D03*
%TD*%
D30*
%TO.C,U1*%
X43355769Y-105281878D03*
X43355769Y-105781878D03*
X43355769Y-106281878D03*
X43355769Y-106781878D03*
X46165769Y-106781878D03*
X46165769Y-106281878D03*
X46165769Y-105781878D03*
X46165769Y-105281878D03*
%TD*%
D31*
%TO.C,R4*%
X92265000Y-114930000D03*
X94090000Y-114930000D03*
%TD*%
D20*
%TO.C,C23*%
X110520000Y-141420000D03*
X112420000Y-141420000D03*
%TD*%
D32*
%TO.C,D2*%
X78710000Y-86690000D03*
X78710000Y-81690000D03*
%TD*%
D33*
%TO.C,U5*%
X33630000Y-114530000D03*
X35930000Y-114530000D03*
D34*
X35930000Y-108230000D03*
D33*
X38230000Y-114530000D03*
%TD*%
D35*
%TO.C,U4*%
X136860000Y-100740000D03*
X136860000Y-103040000D03*
D36*
X143160000Y-103040000D03*
D35*
X136860000Y-105340000D03*
%TD*%
D19*
%TO.C,C19*%
X85090000Y-133940000D03*
X83190000Y-133940000D03*
%TD*%
D37*
%TO.C,Y1*%
X77220000Y-108030000D03*
X77220000Y-105530000D03*
%TD*%
D38*
%TO.C,D3*%
X95560000Y-108280000D03*
X94160000Y-108280000D03*
%TD*%
D31*
%TO.C,R16*%
X111245000Y-126382500D03*
X113070000Y-126382500D03*
%TD*%
D39*
%TO.C,R1*%
X52500000Y-147347500D03*
X52500000Y-149172500D03*
%TD*%
D20*
%TO.C,C17*%
X61536851Y-130368026D03*
X63436851Y-130368026D03*
%TD*%
D40*
%TO.C,J16*%
X187100000Y-108900000D03*
X187090100Y-118600000D03*
X184550100Y-108900000D03*
X180400000Y-118600000D03*
X178400000Y-118600000D03*
X179450000Y-108900000D03*
%TD*%
D27*
%TO.C,U8*%
X82120001Y-139520000D03*
X83070002Y-139520000D03*
X84020000Y-139520000D03*
X84020000Y-136770000D03*
X82120001Y-136770000D03*
%TD*%
D23*
%TO.C,R20*%
X35805000Y-122130000D03*
X33980000Y-122130000D03*
%TD*%
D41*
%TO.C,C12*%
X146410000Y-104090000D03*
X146410000Y-102190000D03*
%TD*%
D31*
%TO.C,R3*%
X43855769Y-108511878D03*
X45680769Y-108511878D03*
%TD*%
D39*
%TO.C,R6*%
X118860000Y-118432500D03*
X118860000Y-120257500D03*
%TD*%
D17*
%TO.C,R12*%
X85089598Y-71777005D03*
X85089598Y-69952005D03*
%TD*%
D31*
%TO.C,R18*%
X161207500Y-109520000D03*
X163032500Y-109520000D03*
%TD*%
D15*
%TO.C,C30*%
X116230000Y-118392500D03*
X116230000Y-120292500D03*
%TD*%
%TO.C,C26*%
X89440000Y-137310000D03*
X89440000Y-139210000D03*
%TD*%
D20*
%TO.C,C29*%
X107027500Y-126422500D03*
X108927500Y-126422500D03*
%TD*%
D24*
%TO.C,J14*%
X66060000Y-144660000D03*
X68060000Y-144660000D03*
X70060000Y-144660000D03*
X72060000Y-144660000D03*
X73060000Y-144660000D03*
X71060000Y-144660000D03*
X69060000Y-144660000D03*
X67060000Y-144660000D03*
X65060000Y-144660000D03*
D25*
X62660000Y-152010000D03*
X75460000Y-152010000D03*
%TD*%
D20*
%TO.C,C16*%
X61636851Y-133818026D03*
X63536851Y-133818026D03*
%TD*%
D42*
%TO.C,U10*%
X107147500Y-123012501D03*
X107147500Y-123512500D03*
X107147500Y-124012499D03*
X108844500Y-124012499D03*
X108844500Y-123512500D03*
X108844500Y-123012501D03*
%TD*%
D19*
%TO.C,C4*%
X46040000Y-111690000D03*
X44140000Y-111690000D03*
%TD*%
D43*
%TO.C,D6*%
X91850000Y-139410000D03*
X92350000Y-139410000D03*
X93350000Y-139410000D03*
X93850000Y-139410000D03*
X93850000Y-138575000D03*
X93350000Y-138575000D03*
X92350000Y-138575000D03*
X91850000Y-138575000D03*
%TD*%
D20*
%TO.C,C20*%
X78050000Y-137070000D03*
X79950000Y-137070000D03*
%TD*%
D44*
%TO.C,U6*%
X72710000Y-93980000D03*
X72710000Y-96280000D03*
X72710000Y-98580000D03*
D45*
X78610000Y-96280000D03*
%TD*%
D15*
%TO.C,C32*%
X171860000Y-111730000D03*
X171860000Y-113630000D03*
%TD*%
D20*
%TO.C,C8*%
X66720000Y-96280000D03*
X68620000Y-96280000D03*
%TD*%
D24*
%TO.C,J15*%
X88600000Y-144600000D03*
X90600000Y-144600000D03*
X92600000Y-144600000D03*
X94600000Y-144600000D03*
X95600000Y-144600000D03*
X93600000Y-144600000D03*
X91600000Y-144600000D03*
X89600000Y-144600000D03*
X87600000Y-144600000D03*
D25*
X85200000Y-151950000D03*
X98000000Y-151950000D03*
%TD*%
D19*
%TO.C,C9*%
X92920000Y-90900000D03*
X91020000Y-90900000D03*
%TD*%
D46*
%TO.C,F1*%
X79147500Y-75370000D03*
X74872500Y-75370000D03*
%TD*%
D47*
%TO.C,J11*%
X80149999Y-66105550D03*
X78130000Y-66105550D03*
X76900000Y-66105550D03*
X79150001Y-66105550D03*
X81170000Y-66105550D03*
X82400000Y-66105550D03*
%TD*%
D48*
%TO.C,U3*%
X92460000Y-98570000D03*
X92460000Y-96270000D03*
D49*
X86160000Y-96270000D03*
D48*
X92460000Y-93970000D03*
%TD*%
D31*
%TO.C,R9*%
X73240000Y-111270000D03*
X75065000Y-111270000D03*
%TD*%
D20*
%TO.C,C14*%
X84320000Y-84920000D03*
X86220000Y-84920000D03*
%TD*%
D15*
%TO.C,C31*%
X112740000Y-118352500D03*
X112740000Y-120252500D03*
%TD*%
D31*
%TO.C,R13*%
X105525000Y-147400000D03*
X107350000Y-147400000D03*
%TD*%
D39*
%TO.C,R17*%
X171790000Y-117157500D03*
X171790000Y-118982500D03*
%TD*%
D23*
%TO.C,R14*%
X116630000Y-146487500D03*
X114805000Y-146487500D03*
%TD*%
%TO.C,R15*%
X113070000Y-123482500D03*
X111245000Y-123482500D03*
%TD*%
D20*
%TO.C,C35*%
X157220000Y-109500000D03*
X159120000Y-109500000D03*
%TD*%
D50*
%TO.C,U2*%
X78799254Y-114095000D03*
X78799254Y-114495000D03*
X78799254Y-114895000D03*
X78799254Y-115295000D03*
X78799254Y-115695000D03*
X78799254Y-116095000D03*
X78799254Y-116495000D03*
X78799254Y-116895000D03*
X78799254Y-117295000D03*
X78799254Y-117695000D03*
X78799254Y-118095000D03*
X78799254Y-118495000D03*
X78799254Y-118895000D03*
X78799254Y-119295000D03*
D51*
X79634254Y-120130000D03*
X80034254Y-120130000D03*
X80434254Y-120130000D03*
X80834254Y-120130000D03*
X81234254Y-120130000D03*
X81634254Y-120130000D03*
X82034254Y-120130000D03*
X82434254Y-120130000D03*
X82834254Y-120130000D03*
X83234254Y-120130000D03*
X83634254Y-120130000D03*
X84034254Y-120130000D03*
X84434254Y-120130000D03*
X84834254Y-120130000D03*
D50*
X85669254Y-119295000D03*
X85669254Y-118895000D03*
X85669254Y-118495000D03*
X85669254Y-118095000D03*
X85669254Y-117695000D03*
X85669254Y-117295000D03*
X85669254Y-116895000D03*
X85669254Y-116495000D03*
X85669254Y-116095000D03*
X85669254Y-115695000D03*
X85669254Y-115295000D03*
X85669254Y-114895000D03*
X85669254Y-114495000D03*
X85669254Y-114095000D03*
D51*
X84834254Y-113260000D03*
X84434254Y-113260000D03*
X84034254Y-113260000D03*
X83634254Y-113260000D03*
X83234254Y-113260000D03*
X82834254Y-113260000D03*
X82434254Y-113260000D03*
X82034254Y-113260000D03*
X81634254Y-113260000D03*
X81234254Y-113260000D03*
X80834254Y-113260000D03*
X80434254Y-113260000D03*
X80034254Y-113260000D03*
X79634254Y-113260000D03*
%TD*%
D19*
%TO.C,C34*%
X162050000Y-102490000D03*
X160150000Y-102490000D03*
%TD*%
D20*
%TO.C,C15*%
X56760000Y-130400000D03*
X58660000Y-130400000D03*
%TD*%
D15*
%TO.C,C2*%
X34840000Y-103940000D03*
X34840000Y-105840000D03*
%TD*%
D23*
%TO.C,R5*%
X94062500Y-117320000D03*
X92237500Y-117320000D03*
%TD*%
D19*
%TO.C,C33*%
X38270000Y-119530000D03*
X40170000Y-119530000D03*
%TD*%
D20*
%TO.C,C13*%
X90600000Y-110750000D03*
X92500000Y-110750000D03*
%TD*%
D29*
%TO.C,Q2*%
X164687500Y-105040000D03*
X164687500Y-106940000D03*
X166562500Y-105990000D03*
%TD*%
D43*
%TO.C,D5*%
X69660000Y-139455000D03*
X70160000Y-139455000D03*
X71160000Y-139455000D03*
X71660000Y-139455000D03*
X71660000Y-138620000D03*
X71160000Y-138620000D03*
X70160000Y-138620000D03*
X69660000Y-138620000D03*
%TD*%
D31*
%TO.C,R19*%
X160150000Y-105110000D03*
X161975000Y-105110000D03*
%TD*%
D20*
%TO.C,C22*%
X110550000Y-138680000D03*
X112450000Y-138680000D03*
%TD*%
D18*
%TO.C,LED2*%
X34450000Y-126530000D03*
X34450000Y-129830000D03*
X39350000Y-129830000D03*
X39350000Y-126530000D03*
%TD*%
D20*
%TO.C,C18*%
X78080000Y-133930000D03*
X79980000Y-133930000D03*
%TD*%
D17*
%TO.C,R2*%
X55117500Y-149172500D03*
X55117500Y-147347500D03*
%TD*%
D26*
%TO.C,J1*%
X57564000Y-70190000D03*
X53500000Y-70190000D03*
X57564000Y-71460000D03*
X53500000Y-71460000D03*
X57564000Y-72730000D03*
X53500000Y-72730000D03*
X57564000Y-74000000D03*
X53500000Y-74000000D03*
X57564000Y-75270000D03*
X53500000Y-75270000D03*
X57564000Y-76540000D03*
X53500000Y-76540000D03*
X57564000Y-77810000D03*
X53500000Y-77810000D03*
X57564000Y-79080000D03*
X53500000Y-79080000D03*
X57564000Y-80350000D03*
X53500000Y-80350000D03*
X57564000Y-81620000D03*
X53500000Y-81620000D03*
X57564000Y-82890000D03*
X53500000Y-82890000D03*
X57564000Y-84160000D03*
X53500000Y-84160000D03*
X57564000Y-85430000D03*
X53500000Y-85430000D03*
X57564000Y-86700000D03*
X53500000Y-86700000D03*
X57564000Y-87970000D03*
X53500000Y-87970000D03*
X57564000Y-89240000D03*
X53500000Y-89240000D03*
X57564000Y-90510000D03*
X53500000Y-90510000D03*
X57564000Y-91780000D03*
X53500000Y-91780000D03*
X57564000Y-93050000D03*
X53500000Y-93050000D03*
X57564000Y-94320000D03*
X53500000Y-94320000D03*
X57564000Y-95590000D03*
X53500000Y-95590000D03*
X57564000Y-96860000D03*
X53500000Y-96860000D03*
X57564000Y-98130000D03*
X53500000Y-98130000D03*
X57564000Y-99400000D03*
X53500000Y-99400000D03*
X57564000Y-100670000D03*
X53500000Y-100670000D03*
X57564000Y-101940000D03*
X53500000Y-101940000D03*
X57564000Y-103210000D03*
X53500000Y-103210000D03*
X57564000Y-104480000D03*
X53500000Y-104480000D03*
X57564000Y-105750000D03*
X53500000Y-105750000D03*
X57564000Y-107020000D03*
X53500000Y-107020000D03*
%TD*%
D15*
%TO.C,C24*%
X65280000Y-137820000D03*
X65280000Y-139720000D03*
%TD*%
D17*
%TO.C,R8*%
X116250000Y-124942500D03*
X116250000Y-123117500D03*
%TD*%
D52*
%TO.C,J12*%
X133500000Y-119405000D03*
X133500000Y-116865000D03*
X133500000Y-114325000D03*
X133500000Y-118135000D03*
X133500000Y-115595000D03*
X133500000Y-113055000D03*
D53*
X146400000Y-122080000D03*
X137600000Y-122080000D03*
X137600000Y-110380000D03*
X146400000Y-110380000D03*
%TD*%
D17*
%TO.C,R11*%
X81711960Y-71778051D03*
X81711960Y-69953051D03*
%TD*%
D54*
%TO.C,L1*%
X106877500Y-120182500D03*
X109177500Y-120182500D03*
%TD*%
D55*
%TO.C,J3*%
X38100000Y-98729990D03*
X38100000Y-98229990D03*
X38100000Y-97729990D03*
X38100000Y-97229990D03*
X38100000Y-96729990D03*
X38100000Y-96229990D03*
X38100000Y-95729990D03*
X38100000Y-95229990D03*
X38100000Y-94729990D03*
X38100000Y-94229990D03*
X38100000Y-93729990D03*
X38100000Y-93229990D03*
X38100000Y-92729990D03*
X38100000Y-92229990D03*
X38100000Y-91729990D03*
X38100000Y-91229990D03*
X38100000Y-90729990D03*
X38100000Y-90229990D03*
X38100000Y-89729990D03*
X38100000Y-89229990D03*
X38100000Y-88729990D03*
X38100000Y-88229990D03*
D56*
X35400000Y-101029980D03*
X35400000Y-85930000D03*
%TD*%
D20*
%TO.C,C6*%
X73124739Y-105431765D03*
X75024739Y-105431765D03*
%TD*%
D15*
%TO.C,C11*%
X83230000Y-94580000D03*
X83230000Y-96480000D03*
%TD*%
D23*
%TO.C,R21*%
X40150000Y-122040000D03*
X38325000Y-122040000D03*
%TD*%
D57*
%TO.C,D1*%
X85350000Y-74807500D03*
X85350000Y-81357500D03*
%TD*%
D21*
%TO.C,J8*%
X124651272Y-128386408D03*
X132851272Y-128786408D03*
X124651272Y-129186408D03*
X132851272Y-129586408D03*
X124651272Y-129986408D03*
X132851272Y-130386408D03*
X124651272Y-130786408D03*
X132851272Y-131186408D03*
X124651272Y-131586408D03*
X132851272Y-131986408D03*
X124651272Y-132386408D03*
X132851272Y-132786408D03*
X124651272Y-133186408D03*
X132851272Y-133586408D03*
X124651272Y-133986408D03*
X132851272Y-134386408D03*
X124651272Y-137986408D03*
X132851272Y-138386408D03*
X124651272Y-138786408D03*
X132851272Y-139186408D03*
X124651272Y-139586408D03*
X132851272Y-139986408D03*
X124651272Y-140386408D03*
X132851272Y-140786408D03*
X124651272Y-141186408D03*
X132851272Y-141586408D03*
X124651272Y-141986408D03*
X132851272Y-142386408D03*
X124651272Y-142786408D03*
X132851272Y-143186408D03*
X124651272Y-143586408D03*
X132851272Y-143986408D03*
X124651272Y-144386408D03*
X132851272Y-144786408D03*
X124651272Y-145186408D03*
X132851272Y-145586408D03*
X124651272Y-145986408D03*
X132851272Y-146386408D03*
X124651272Y-146786408D03*
X132851272Y-147186408D03*
X124651272Y-147586408D03*
X132851272Y-147986408D03*
X124651272Y-148386408D03*
X132851272Y-148786408D03*
X124651272Y-149186408D03*
X132851272Y-149586408D03*
X124651272Y-149986408D03*
X132851272Y-150386408D03*
X124651272Y-150786408D03*
X132851272Y-151186408D03*
X124651272Y-151586408D03*
X132851272Y-151986408D03*
D22*
X125251272Y-125536408D03*
X125251272Y-154836408D03*
%TD*%
M02*
