%TF.GenerationSoftware,KiCad,Pcbnew,9.0.8*%
%TF.CreationDate,2026-09-18T00:25:55+05:30*%
%TF.ProjectId,Shield,53686965-6c64-42e6-9b69-6361645f7063,rev?*%
%TF.SameCoordinates,Original*%
%TF.FileFunction,Soldermask,Bot*%
%TF.FilePolarity,Negative*%
%FSLAX46Y46*%
G04 Gerber Fmt 4.6, Leading zero omitted, Abs format (unit mm)*
G04 Created by KiCad (PCBNEW 9.0.8) date 2026-09-18 00:25:55*
%MOMM*%
%LPD*%
G01*
G04 APERTURE LIST*
G04 Aperture macros list*
%AMRoundRect*
0 Rectangle with rounded corners*
0 $1 Rounding radius*
0 $2 $3 $4 $5 $6 $7 $8 $9 X,Y pos of 4 corners*
0 Add a 4 corners polygon primitive as box body*
4,1,4,$2,$3,$4,$5,$6,$7,$8,$9,$2,$3,0*
0 Add four circle primitives for the rounded corners*
1,1,$1+$1,$2,$3*
1,1,$1+$1,$4,$5*
1,1,$1+$1,$6,$7*
1,1,$1+$1,$8,$9*
0 Add four rect primitives between the rounded corners*
20,1,$1+$1,$2,$3,$4,$5,0*
20,1,$1+$1,$4,$5,$6,$7,0*
20,1,$1+$1,$6,$7,$8,$9,0*
20,1,$1+$1,$8,$9,$2,$3,0*%
G04 Aperture macros list end*
%ADD10C,0.650000*%
%ADD11O,1.000000X2.100000*%
%ADD12O,1.000000X1.800000*%
%ADD13RoundRect,0.102000X-0.825000X0.825000X-0.825000X-0.825000X0.825000X-0.825000X0.825000X0.825000X0*%
%ADD14C,1.854000*%
%ADD15C,1.600000*%
%ADD16C,1.100000*%
%ADD17O,1.200000X3.100000*%
%ADD18R,1.700000X1.700000*%
%ADD19C,1.700000*%
%ADD20O,1.016000X1.905000*%
%ADD21RoundRect,0.102000X0.500000X-0.150000X0.500000X0.150000X-0.500000X0.150000X-0.500000X-0.150000X0*%
%ADD22RoundRect,0.102000X0.650000X-1.000000X0.650000X1.000000X-0.650000X1.000000X-0.650000X-1.000000X0*%
G04 APERTURE END LIST*
D10*
%TO.C,J7*%
X109940000Y-151910000D03*
X115720000Y-151910000D03*
D11*
X108510000Y-151410000D03*
D12*
X108510000Y-155590000D03*
D11*
X117150000Y-151410000D03*
D12*
X117150000Y-155590000D03*
%TD*%
D13*
%TO.C,J5*%
X116730000Y-63870000D03*
D14*
X119270000Y-63870000D03*
X116730000Y-66410000D03*
X119270000Y-66410000D03*
X116730000Y-68950000D03*
X119270000Y-68950000D03*
X116730000Y-71490000D03*
X119270000Y-71490000D03*
X116730000Y-74030000D03*
X119270000Y-74030000D03*
X116730000Y-76570000D03*
X119270000Y-76570000D03*
X116730000Y-79110000D03*
X119270000Y-79110000D03*
X116730000Y-81650000D03*
X119270000Y-81650000D03*
X116730000Y-84190000D03*
X119270000Y-84190000D03*
X116730000Y-86730000D03*
X119270000Y-86730000D03*
X116730000Y-89270000D03*
X119270000Y-89270000D03*
X116730000Y-91810000D03*
X119270000Y-91810000D03*
X116730000Y-94350000D03*
X119270000Y-94350000D03*
X116730000Y-96890000D03*
X119270000Y-96890000D03*
X116730000Y-99430000D03*
X119270000Y-99430000D03*
X116730000Y-101970000D03*
X119270000Y-101970000D03*
X116730000Y-104510000D03*
X119270000Y-104510000D03*
X116730000Y-107050000D03*
X119270000Y-107050000D03*
X116730000Y-109590000D03*
X119270000Y-109590000D03*
X116730000Y-112130000D03*
X119270000Y-112130000D03*
%TD*%
D15*
%TO.C,J6*%
X132390000Y-68090000D03*
D16*
X132390000Y-93090000D03*
%TD*%
D17*
%TO.C,J9*%
X35795000Y-145690000D03*
X48595000Y-145690000D03*
%TD*%
%TO.C,J14*%
X62660000Y-145810000D03*
X75460000Y-145810000D03*
%TD*%
D18*
%TO.C,J13*%
X126960000Y-104040000D03*
D19*
X126960000Y-101500000D03*
X129500000Y-104040000D03*
X129500000Y-101500000D03*
X132040000Y-104040000D03*
X132040000Y-101500000D03*
%TD*%
D17*
%TO.C,J15*%
X85200000Y-145750000D03*
X98000000Y-145750000D03*
%TD*%
D20*
%TO.C,J11*%
X83970540Y-61825551D03*
X83970000Y-65575550D03*
X75330000Y-65575550D03*
X75329460Y-61825551D03*
%TD*%
D15*
%TO.C,J8*%
X128751272Y-127686408D03*
D16*
X128751272Y-152686408D03*
%TD*%
D21*
%TO.C,J4*%
X38110000Y-68740000D03*
X38110000Y-69240000D03*
X38110000Y-69740000D03*
X38110000Y-70240000D03*
X38110000Y-70740000D03*
X38110000Y-71240000D03*
X38110000Y-71740000D03*
X38110000Y-72240000D03*
X38110000Y-72740000D03*
X38110000Y-73240000D03*
X38110000Y-73740000D03*
X38110000Y-74240000D03*
X38110000Y-74740000D03*
X38110000Y-75240000D03*
X38110000Y-75740000D03*
X38110000Y-76240000D03*
X38110000Y-76740000D03*
X38110000Y-77240000D03*
X38110000Y-77740000D03*
X38110000Y-78240000D03*
X38110000Y-78740000D03*
X38110000Y-79240000D03*
D22*
X35410000Y-66440010D03*
X35410000Y-81539990D03*
%TD*%
M02*
