%TF.GenerationSoftware,KiCad,Pcbnew,9.0.8*%
%TF.CreationDate,2026-09-18T00:25:55+05:30*%
%TF.ProjectId,Shield,53686965-6c64-42e6-9b69-6361645f7063,rev?*%
%TF.SameCoordinates,Original*%
%TF.FileFunction,Copper,L3,Inr*%
%TF.FilePolarity,Positive*%
%FSLAX46Y46*%
G04 Gerber Fmt 4.6, Leading zero omitted, Abs format (unit mm)*
G04 Created by KiCad (PCBNEW 9.0.8) date 2026-09-18 00:25:55*
%MOMM*%
%LPD*%
G01*
G04 APERTURE LIST*
%TA.AperFunction,HeatsinkPad*%
%ADD10O,1.000000X2.100000*%
%TD*%
%TA.AperFunction,HeatsinkPad*%
%ADD11O,1.000000X1.800000*%
%TD*%
%TA.AperFunction,ComponentPad*%
%ADD12R,1.650000X1.650000*%
%TD*%
%TA.AperFunction,ComponentPad*%
%ADD13C,1.650000*%
%TD*%
%TA.AperFunction,HeatsinkPad*%
%ADD14O,1.200000X3.100000*%
%TD*%
%TA.AperFunction,ComponentPad*%
%ADD15R,1.700000X1.700000*%
%TD*%
%TA.AperFunction,ComponentPad*%
%ADD16C,1.700000*%
%TD*%
%TA.AperFunction,WasherPad*%
%ADD17O,1.016000X1.905000*%
%TD*%
%TA.AperFunction,ViaPad*%
%ADD18C,0.600000*%
%TD*%
G04 APERTURE END LIST*
D10*
%TO.N,GND*%
%TO.C,J7*%
X108510000Y-151410000D03*
D11*
X108510000Y-155590000D03*
D10*
X117150000Y-151410000D03*
D11*
X117150000Y-155590000D03*
%TD*%
D12*
%TO.N,/MCU_PSSI_D0 {slash} PC6*%
%TO.C,J5*%
X116730000Y-63870000D03*
D13*
%TO.N,/MCU_SDMMC1_CMD {slash} PD2*%
X119270000Y-63870000D03*
%TO.N,/MCU_PSSI_D1 {slash} PC7*%
X116730000Y-66410000D03*
%TO.N,/MCU_TRACE_CLK {slash} PE2*%
X119270000Y-66410000D03*
%TO.N,/MCU_PSSI_D2 {slash} PC8*%
X116730000Y-68950000D03*
%TO.N,/MCU_TRACE_D0 {slash} PE3*%
X119270000Y-68950000D03*
%TO.N,/MCU_PSSI_D3 {slash} PC9*%
X116730000Y-71490000D03*
%TO.N,/MCU_TRACE_D2 {slash} PE5*%
X119270000Y-71490000D03*
%TO.N,/MCU_PSSI_D4 {slash} PE4*%
X116730000Y-74030000D03*
%TO.N,/MCU_TRACE_D3 {slash} PE6*%
X119270000Y-74030000D03*
%TO.N,/MCU_PSSI_D5 {slash} PI4*%
X116730000Y-76570000D03*
%TO.N,unconnected-(J5-Pad12)*%
X119270000Y-76570000D03*
%TO.N,/MCU_PSSI_D6 {slash} PI6*%
X116730000Y-79110000D03*
%TO.N,GND*%
X119270000Y-79110000D03*
%TO.N,/MCU_PSSI_D7 {slash} PI7*%
X116730000Y-81650000D03*
%TO.N,/MCU_I2C4_SCL {slash} PF14*%
X119270000Y-81650000D03*
%TO.N,/MCU_PSSI_PDCK {slash} PD9*%
X116730000Y-84190000D03*
%TO.N,/MCU_I2C4_SDA {slash} PF15*%
X119270000Y-84190000D03*
%TO.N,/MCU_PSSI_RDY {slash} PI5*%
X116730000Y-86730000D03*
%TO.N,/MCU_OPAMP1_VOUT {slash} PA3*%
X119270000Y-86730000D03*
%TO.N,/MCU_PSSI_DE {slash} PD8*%
X116730000Y-89270000D03*
%TO.N,/MCU_OPAMP1_VINP {slash} PA0*%
X119270000Y-89270000D03*
%TO.N,/MCU_MCO {slash} PA8*%
X116730000Y-91810000D03*
%TO.N,/MCU_OPAMP1_VINM {slash} PA1*%
X119270000Y-91810000D03*
%TO.N,/MCU_CRS_SYNC {slash} PA10*%
X116730000Y-94350000D03*
%TO.N,/SOC_GPIO_98*%
X119270000Y-94350000D03*
%TO.N,/SOC_GPIO_0_SE0*%
X116730000Y-96890000D03*
%TO.N,/SOC_GPIO_99*%
X119270000Y-96890000D03*
%TO.N,/SOC_GPIO_1_SEO*%
X116730000Y-99430000D03*
%TO.N,unconnected-(J5-Pad30)*%
X119270000Y-99430000D03*
%TO.N,/SOC_GPIO_2_SEO*%
X116730000Y-101970000D03*
%TO.N,unconnected-(J5-Pad32)*%
X119270000Y-101970000D03*
%TO.N,/SOC_GPIO_3_SEO*%
X116730000Y-104510000D03*
%TO.N,unconnected-(J5-Pad34)*%
X119270000Y-104510000D03*
%TO.N,/SOC_GPIO_86_SEO*%
X116730000Y-107050000D03*
%TO.N,/JOUT_5V*%
X119270000Y-107050000D03*
%TO.N,/SOC_GPIO_82_SEO*%
X116730000Y-109590000D03*
%TO.N,/VIN*%
X119270000Y-109590000D03*
%TO.N,/JOUT_3V3*%
X116730000Y-112130000D03*
%TO.N,GND*%
X119270000Y-112130000D03*
%TD*%
D14*
%TO.N,GND*%
%TO.C,J9*%
X35795000Y-145690000D03*
X48595000Y-145690000D03*
%TD*%
%TO.N,GND*%
%TO.C,J14*%
X62660000Y-145810000D03*
X75460000Y-145810000D03*
%TD*%
D15*
%TO.N,/LR_MISO*%
%TO.C,J13*%
X126960000Y-104040000D03*
D16*
%TO.N,unconnected-(J13-Pin_2-Pad2)*%
X126960000Y-101500000D03*
%TO.N,/LR_SCK*%
X129500000Y-104040000D03*
%TO.N,/LR_MOSI*%
X129500000Y-101500000D03*
%TO.N,unconnected-(J13-Pin_5-Pad5)*%
X132040000Y-104040000D03*
%TO.N,GND*%
X132040000Y-101500000D03*
%TD*%
D14*
%TO.N,GND*%
%TO.C,J15*%
X85200000Y-145750000D03*
X98000000Y-145750000D03*
%TD*%
D17*
%TO.N,*%
%TO.C,J11*%
X83970540Y-61825551D03*
X83970000Y-65575550D03*
X75330000Y-65575550D03*
X75329460Y-61825551D03*
%TD*%
D18*
%TO.N,/MCU_PE8_LED*%
X96460000Y-77750000D03*
X165210000Y-108510000D03*
%TO.N,/SOC_GPIO_18_PWM_LED*%
X107310000Y-101290000D03*
X58710000Y-109850000D03*
X107430000Y-113270000D03*
X107210000Y-105190000D03*
%TO.N,/3V3*%
X41000000Y-105200000D03*
X42050000Y-111690000D03*
%TO.N,VDD33*%
X78370000Y-110440000D03*
X84820000Y-109660000D03*
X78270000Y-123150000D03*
X91750000Y-121140000D03*
X88340000Y-121120000D03*
%TO.N,VDD12*%
X88900000Y-107550000D03*
X81000000Y-96380000D03*
%TO.N,/DN2_D+*%
X68570521Y-119679479D03*
X69485000Y-149672574D03*
%TO.N,/DN2_RX-*%
X72485000Y-122700000D03*
X72485000Y-149708957D03*
%TO.N,/DN2_RX+*%
X71635000Y-122700000D03*
X71635000Y-149708957D03*
%TO.N,/DN2_D-*%
X67969479Y-120280521D03*
X68635000Y-149672574D03*
%TO.N,/DN3_D+*%
X92354641Y-149443812D03*
X79110521Y-124229479D03*
%TO.N,/DN3_RX+*%
X94829479Y-149730521D03*
X83479479Y-126170521D03*
%TO.N,/DN3_RX-*%
X95430521Y-149129479D03*
X84080521Y-125569479D03*
%TO.N,/DN3_D-*%
X91753599Y-150044854D03*
X78509479Y-124830521D03*
%TO.N,/SCL*%
X48500000Y-106760000D03*
X49980000Y-84900000D03*
%TO.N,/DSI_CK-*%
X61710000Y-71670000D03*
%TO.N,/DSI_D3+*%
X61970000Y-80140000D03*
%TO.N,/DSI_D2+*%
X61700000Y-76330000D03*
%TO.N,/DSI_CK+*%
X61710000Y-72520000D03*
%TO.N,/DSI_D1+*%
X35998684Y-72617137D03*
%TO.N,/DSI_D1-*%
X35998684Y-73467137D03*
%TO.N,/SDA*%
X48500000Y-103830000D03*
X49230000Y-84270000D03*
%TO.N,/DSI_D3-*%
X61970000Y-79290000D03*
%TO.N,/DSI_D0-*%
X34109479Y-74100521D03*
%TO.N,/DSI_D0+*%
X34710521Y-73499479D03*
%TO.N,/DSI_D2-*%
X61700000Y-75480000D03*
%TO.N,/MCU_OPAMP1_VINP {slash} PA0*%
X96550000Y-83030000D03*
%TO.N,/MCU_TRACE_D3 {slash} PE6*%
X96550000Y-75460000D03*
%TO.N,/MCU_TRACE_CLK {slash} PE2*%
X96545891Y-71809895D03*
%TO.N,/MCU_I2C4_SDA {slash} PF15*%
X96550000Y-80650000D03*
%TO.N,/MCU_OPAMP1_VOUT {slash} PA3*%
X96550000Y-81800000D03*
%TO.N,/SOC_GPIO_98*%
X96740000Y-98160000D03*
%TO.N,/JOUT_5V*%
X95710000Y-104490000D03*
%TO.N,/SOC_GPIO_99*%
X96730000Y-99390000D03*
%TO.N,/MCU_OPAMP1_VINM {slash} PA1*%
X96550000Y-84310000D03*
%TO.N,/MCU_I2C4_SCL {slash} PF14*%
X96550000Y-79260000D03*
%TO.N,/MCU_TRACE_D2 {slash} PE5*%
X96550000Y-74090000D03*
%TO.N,/MCU_TRACE_D0 {slash} PE3*%
X96550000Y-72710000D03*
%TO.N,/SCL1*%
X39350000Y-89580000D03*
X48010000Y-104920000D03*
%TO.N,/DN4_D-*%
X112189479Y-155229479D03*
X111459479Y-153920521D03*
%TO.N,/DN4_D+*%
X112790521Y-155830521D03*
X112060521Y-153319479D03*
%TO.N,/SIM_CLK*%
X131141272Y-132370000D03*
X131620000Y-114640000D03*
%TO.N,/LTE_D+*%
X72839479Y-114369479D03*
X128601793Y-147306929D03*
%TO.N,/LTE_D-*%
X128000751Y-146705887D03*
X73440521Y-114970521D03*
%TO.N,/SIM_DT*%
X131530000Y-113070000D03*
X134548105Y-131538105D03*
%TO.N,Net-(J8-~{W_DISABLE})*%
X135291272Y-138126408D03*
X120730000Y-118600000D03*
%TO.N,/UP_D+*%
X84640000Y-104645000D03*
X40080521Y-138259479D03*
%TO.N,/UP_D-*%
X39479479Y-138860521D03*
X84640000Y-103795000D03*
%TO.N,/UP_RX-*%
X80679479Y-105329479D03*
X42139658Y-138630775D03*
%TO.N,/UP_RX+*%
X81280521Y-105930521D03*
X42139658Y-139480775D03*
%TO.N,/UP_TX-*%
X80740000Y-103195000D03*
X37585521Y-139354479D03*
%TO.N,/UP_TX+*%
X80740000Y-102345000D03*
X36984479Y-139955521D03*
%TO.N,/UP_VBUS*%
X91040000Y-120160000D03*
X52480000Y-142300000D03*
%TO.N,/PRT_CTL3*%
X85470000Y-136260000D03*
X89290000Y-119810000D03*
%TO.N,/PRT_CTL2*%
X64900000Y-135440000D03*
X90100000Y-118210000D03*
%TO.N,/SOC_GPIO_101_PPS*%
X97120000Y-102570000D03*
X122230000Y-131840000D03*
%TO.N,/SOC_GPIO_100_PRST_LTE*%
X117760000Y-121770000D03*
X96730000Y-101070000D03*
%TO.N,/MCU_PE7_LR*%
X138870000Y-80410000D03*
X96570000Y-76660000D03*
%TD*%
%TA.AperFunction,Conductor*%
%TO.N,GND*%
G36*
X191782539Y-59250185D02*
G01*
X191828294Y-59302989D01*
X191839500Y-59354500D01*
X191839500Y-110585400D01*
X191819815Y-110652439D01*
X191767011Y-110698194D01*
X191715500Y-110709400D01*
X190520300Y-110709400D01*
X190453261Y-110689715D01*
X190407506Y-110636911D01*
X190396300Y-110585400D01*
X190396300Y-109933310D01*
X190396300Y-109933308D01*
X190362192Y-109806014D01*
X190296300Y-109691886D01*
X190203114Y-109598700D01*
X190146050Y-109565754D01*
X190088987Y-109532808D01*
X190022514Y-109514997D01*
X189961692Y-109498700D01*
X188465592Y-109498700D01*
X188333808Y-109498700D01*
X188206512Y-109532808D01*
X188092386Y-109598700D01*
X188092383Y-109598702D01*
X187999202Y-109691883D01*
X187999200Y-109691886D01*
X187933309Y-109806012D01*
X187906118Y-109907488D01*
X187869752Y-109967148D01*
X187806905Y-109997677D01*
X187786403Y-109999394D01*
X183623960Y-110001399D01*
X183556911Y-109981747D01*
X183511130Y-109928965D01*
X183499900Y-109877399D01*
X183499900Y-109608910D01*
X183499900Y-109608908D01*
X183465792Y-109481614D01*
X183399900Y-109367486D01*
X183306714Y-109274300D01*
X183249650Y-109241354D01*
X183192587Y-109208408D01*
X183128939Y-109191354D01*
X183065292Y-109174300D01*
X180668992Y-109174300D01*
X180537208Y-109174300D01*
X180409912Y-109208408D01*
X180295786Y-109274300D01*
X180295783Y-109274302D01*
X180202602Y-109367483D01*
X180202600Y-109367486D01*
X180136708Y-109481612D01*
X180102600Y-109608908D01*
X180102600Y-109880100D01*
X180082915Y-109947139D01*
X180030111Y-109992894D01*
X179978600Y-110004100D01*
X177836908Y-110004100D01*
X177709612Y-110038208D01*
X177595486Y-110104100D01*
X177595483Y-110104102D01*
X177502302Y-110197283D01*
X177502300Y-110197286D01*
X177436408Y-110311412D01*
X177402300Y-110438708D01*
X177402300Y-117072491D01*
X177436408Y-117199787D01*
X177469354Y-117256850D01*
X177502300Y-117313914D01*
X177595486Y-117407100D01*
X177709614Y-117472992D01*
X177836908Y-117507100D01*
X181170300Y-117507100D01*
X181237339Y-117526785D01*
X181283094Y-117579589D01*
X181294300Y-117631100D01*
X181294300Y-117744391D01*
X181328408Y-117871687D01*
X181344986Y-117900400D01*
X181394300Y-117985814D01*
X181487486Y-118079000D01*
X181582070Y-118133608D01*
X181600259Y-118144110D01*
X181601614Y-118144892D01*
X181728908Y-118179000D01*
X181728910Y-118179000D01*
X184269790Y-118179000D01*
X184269792Y-118179000D01*
X184397086Y-118144892D01*
X184511214Y-118079000D01*
X184604400Y-117985814D01*
X184670292Y-117871686D01*
X184704400Y-117744392D01*
X184704400Y-117624400D01*
X184724085Y-117557361D01*
X184776889Y-117511606D01*
X184828400Y-117500400D01*
X187786830Y-117500400D01*
X187853869Y-117520085D01*
X187899624Y-117572889D01*
X187906605Y-117592307D01*
X187933608Y-117693087D01*
X187962777Y-117743608D01*
X187999500Y-117807214D01*
X188092686Y-117900400D01*
X188206814Y-117966292D01*
X188334108Y-118000400D01*
X188334110Y-118000400D01*
X189959290Y-118000400D01*
X189959292Y-118000400D01*
X190086586Y-117966292D01*
X190200714Y-117900400D01*
X190293900Y-117807214D01*
X190359792Y-117693086D01*
X190393900Y-117565792D01*
X190393900Y-116821300D01*
X190413585Y-116754261D01*
X190466389Y-116708506D01*
X190517900Y-116697300D01*
X191715500Y-116697300D01*
X191782539Y-116716985D01*
X191828294Y-116769789D01*
X191839500Y-116821300D01*
X191839500Y-157665500D01*
X191819815Y-157732539D01*
X191767011Y-157778294D01*
X191715500Y-157789500D01*
X30984500Y-157789500D01*
X30917461Y-157769815D01*
X30871706Y-157717011D01*
X30860500Y-157665500D01*
X30860500Y-155091504D01*
X107510000Y-155091504D01*
X107510000Y-155340000D01*
X108210000Y-155340000D01*
X108210000Y-155840000D01*
X107510000Y-155840000D01*
X107510000Y-156088495D01*
X107548427Y-156281681D01*
X107548430Y-156281693D01*
X107623807Y-156463671D01*
X107623814Y-156463684D01*
X107733248Y-156627462D01*
X107733251Y-156627466D01*
X107872533Y-156766748D01*
X107872537Y-156766751D01*
X108036315Y-156876185D01*
X108036328Y-156876192D01*
X108218308Y-156951569D01*
X108260000Y-156959862D01*
X108260000Y-156156988D01*
X108269940Y-156174205D01*
X108325795Y-156230060D01*
X108394204Y-156269556D01*
X108470504Y-156290000D01*
X108549496Y-156290000D01*
X108625796Y-156269556D01*
X108694205Y-156230060D01*
X108750060Y-156174205D01*
X108760000Y-156156988D01*
X108760000Y-156959862D01*
X108801690Y-156951569D01*
X108801692Y-156951569D01*
X108983671Y-156876192D01*
X108983684Y-156876185D01*
X109147462Y-156766751D01*
X109147466Y-156766748D01*
X109286748Y-156627466D01*
X109286751Y-156627462D01*
X109396185Y-156463684D01*
X109396192Y-156463671D01*
X109471569Y-156281693D01*
X109471572Y-156281681D01*
X109509999Y-156088495D01*
X109510000Y-156088492D01*
X109510000Y-155840000D01*
X108810000Y-155840000D01*
X108810000Y-155340000D01*
X109510000Y-155340000D01*
X109510000Y-155163587D01*
X111688979Y-155163587D01*
X111688979Y-155295371D01*
X111706033Y-155359018D01*
X111723087Y-155422666D01*
X111727335Y-155430023D01*
X111788979Y-155536793D01*
X111882165Y-155629979D01*
X111996293Y-155695871D01*
X112123587Y-155729979D01*
X112123589Y-155729979D01*
X112166021Y-155729979D01*
X112233060Y-155749664D01*
X112278815Y-155802468D01*
X112290021Y-155853979D01*
X112290021Y-155896412D01*
X112324129Y-156023708D01*
X112327471Y-156029496D01*
X112390021Y-156137835D01*
X112483207Y-156231021D01*
X112597335Y-156296913D01*
X112724629Y-156331021D01*
X112724631Y-156331021D01*
X112856411Y-156331021D01*
X112856413Y-156331021D01*
X112983707Y-156296913D01*
X113097835Y-156231021D01*
X113191021Y-156137835D01*
X113256913Y-156023707D01*
X113291021Y-155896413D01*
X113291021Y-155764629D01*
X113256913Y-155637335D01*
X113252665Y-155629978D01*
X113248084Y-155622042D01*
X113191021Y-155523207D01*
X113097835Y-155430021D01*
X113040771Y-155397075D01*
X112983708Y-155364129D01*
X112893655Y-155340000D01*
X112856413Y-155330021D01*
X112813979Y-155330021D01*
X112813592Y-155329907D01*
X112813204Y-155330019D01*
X112779987Y-155320039D01*
X112746940Y-155310336D01*
X112746677Y-155310032D01*
X112746289Y-155309916D01*
X112723727Y-155283546D01*
X112701185Y-155257532D01*
X112701039Y-155257031D01*
X112700865Y-155256827D01*
X112700539Y-155255308D01*
X112691133Y-155222901D01*
X112689979Y-155214502D01*
X112689979Y-155163587D01*
X112670665Y-155091504D01*
X116150000Y-155091504D01*
X116150000Y-155340000D01*
X116850000Y-155340000D01*
X116850000Y-155840000D01*
X116150000Y-155840000D01*
X116150000Y-156088495D01*
X116188427Y-156281681D01*
X116188430Y-156281693D01*
X116263807Y-156463671D01*
X116263814Y-156463684D01*
X116373248Y-156627462D01*
X116373251Y-156627466D01*
X116512533Y-156766748D01*
X116512537Y-156766751D01*
X116676315Y-156876185D01*
X116676328Y-156876192D01*
X116858308Y-156951569D01*
X116900000Y-156959862D01*
X116900000Y-156156988D01*
X116909940Y-156174205D01*
X116965795Y-156230060D01*
X117034204Y-156269556D01*
X117110504Y-156290000D01*
X117189496Y-156290000D01*
X117265796Y-156269556D01*
X117334205Y-156230060D01*
X117390060Y-156174205D01*
X117400000Y-156156988D01*
X117400000Y-156959862D01*
X117441690Y-156951569D01*
X117441692Y-156951569D01*
X117623671Y-156876192D01*
X117623684Y-156876185D01*
X117787462Y-156766751D01*
X117787466Y-156766748D01*
X117926748Y-156627466D01*
X117926751Y-156627462D01*
X118036185Y-156463684D01*
X118036192Y-156463671D01*
X118111569Y-156281693D01*
X118111572Y-156281681D01*
X118149999Y-156088495D01*
X118150000Y-156088492D01*
X118150000Y-155840000D01*
X117450000Y-155840000D01*
X117450000Y-155340000D01*
X118150000Y-155340000D01*
X118150000Y-155091508D01*
X118149999Y-155091504D01*
X118111572Y-154898318D01*
X118111569Y-154898306D01*
X118036192Y-154716328D01*
X118036185Y-154716315D01*
X117926751Y-154552537D01*
X117926748Y-154552533D01*
X117787466Y-154413251D01*
X117787462Y-154413248D01*
X117623684Y-154303814D01*
X117623671Y-154303807D01*
X117441691Y-154228429D01*
X117441683Y-154228427D01*
X117400000Y-154220135D01*
X117400000Y-155023011D01*
X117390060Y-155005795D01*
X117334205Y-154949940D01*
X117265796Y-154910444D01*
X117189496Y-154890000D01*
X117110504Y-154890000D01*
X117034204Y-154910444D01*
X116965795Y-154949940D01*
X116909940Y-155005795D01*
X116900000Y-155023011D01*
X116900000Y-154220136D01*
X116899999Y-154220135D01*
X116858316Y-154228427D01*
X116858308Y-154228429D01*
X116676328Y-154303807D01*
X116676315Y-154303814D01*
X116512537Y-154413248D01*
X116512533Y-154413251D01*
X116373251Y-154552533D01*
X116373248Y-154552537D01*
X116263814Y-154716315D01*
X116263807Y-154716328D01*
X116188430Y-154898306D01*
X116188427Y-154898318D01*
X116150000Y-155091504D01*
X112670665Y-155091504D01*
X112655871Y-155036293D01*
X112589979Y-154922165D01*
X112496793Y-154828979D01*
X112439729Y-154796033D01*
X112382666Y-154763087D01*
X112319018Y-154746033D01*
X112255371Y-154728979D01*
X112123587Y-154728979D01*
X111996291Y-154763087D01*
X111882165Y-154828979D01*
X111882162Y-154828981D01*
X111788981Y-154922162D01*
X111788979Y-154922165D01*
X111723087Y-155036291D01*
X111688979Y-155163587D01*
X109510000Y-155163587D01*
X109510000Y-155091508D01*
X109509999Y-155091504D01*
X109471572Y-154898318D01*
X109471569Y-154898306D01*
X109396192Y-154716328D01*
X109396185Y-154716315D01*
X109286751Y-154552537D01*
X109286748Y-154552533D01*
X109147466Y-154413251D01*
X109147462Y-154413248D01*
X108983684Y-154303814D01*
X108983671Y-154303807D01*
X108801691Y-154228429D01*
X108801683Y-154228427D01*
X108760000Y-154220135D01*
X108760000Y-155023011D01*
X108750060Y-155005795D01*
X108694205Y-154949940D01*
X108625796Y-154910444D01*
X108549496Y-154890000D01*
X108470504Y-154890000D01*
X108394204Y-154910444D01*
X108325795Y-154949940D01*
X108269940Y-155005795D01*
X108260000Y-155023011D01*
X108260000Y-154220136D01*
X108259999Y-154220135D01*
X108218316Y-154228427D01*
X108218308Y-154228429D01*
X108036328Y-154303807D01*
X108036315Y-154303814D01*
X107872537Y-154413248D01*
X107872533Y-154413251D01*
X107733251Y-154552533D01*
X107733248Y-154552537D01*
X107623814Y-154716315D01*
X107623807Y-154716328D01*
X107548430Y-154898306D01*
X107548427Y-154898318D01*
X107510000Y-155091504D01*
X30860500Y-155091504D01*
X30860500Y-153854629D01*
X110958979Y-153854629D01*
X110958979Y-153986412D01*
X110993087Y-154113708D01*
X111026033Y-154170771D01*
X111058979Y-154227835D01*
X111152165Y-154321021D01*
X111266293Y-154386913D01*
X111393587Y-154421021D01*
X111393589Y-154421021D01*
X111525369Y-154421021D01*
X111525371Y-154421021D01*
X111652665Y-154386913D01*
X111766793Y-154321021D01*
X111859979Y-154227835D01*
X111925871Y-154113707D01*
X111959979Y-153986413D01*
X111959979Y-153943979D01*
X111979664Y-153876940D01*
X112032468Y-153831185D01*
X112083979Y-153819979D01*
X112126411Y-153819979D01*
X112126413Y-153819979D01*
X112253707Y-153785871D01*
X112367835Y-153719979D01*
X112461021Y-153626793D01*
X112526913Y-153512665D01*
X112561021Y-153385371D01*
X112561021Y-153253587D01*
X112526913Y-153126293D01*
X112461021Y-153012165D01*
X112367835Y-152918979D01*
X112310771Y-152886033D01*
X112253708Y-152853087D01*
X112190060Y-152836033D01*
X112126413Y-152818979D01*
X111994629Y-152818979D01*
X111867333Y-152853087D01*
X111753207Y-152918979D01*
X111753204Y-152918981D01*
X111660023Y-153012162D01*
X111660021Y-153012165D01*
X111594129Y-153126291D01*
X111560021Y-153253587D01*
X111560021Y-153296021D01*
X111540336Y-153363060D01*
X111487532Y-153408815D01*
X111436021Y-153420021D01*
X111393587Y-153420021D01*
X111266291Y-153454129D01*
X111152165Y-153520021D01*
X111152162Y-153520023D01*
X111058981Y-153613204D01*
X111058979Y-153613207D01*
X110993087Y-153727333D01*
X110958979Y-153854629D01*
X30860500Y-153854629D01*
X30860500Y-150761504D01*
X107510000Y-150761504D01*
X107510000Y-151160000D01*
X108210000Y-151160000D01*
X108210000Y-151660000D01*
X107510000Y-151660000D01*
X107510000Y-152058495D01*
X107548427Y-152251681D01*
X107548430Y-152251693D01*
X107623807Y-152433671D01*
X107623814Y-152433684D01*
X107733248Y-152597462D01*
X107733251Y-152597466D01*
X107872533Y-152736748D01*
X107872537Y-152736751D01*
X108036315Y-152846185D01*
X108036328Y-152846192D01*
X108218308Y-152921569D01*
X108260000Y-152929862D01*
X108260000Y-152126988D01*
X108269940Y-152144205D01*
X108325795Y-152200060D01*
X108394204Y-152239556D01*
X108470504Y-152260000D01*
X108549496Y-152260000D01*
X108625796Y-152239556D01*
X108694205Y-152200060D01*
X108750060Y-152144205D01*
X108760000Y-152126988D01*
X108760000Y-152929862D01*
X108801690Y-152921569D01*
X108801692Y-152921569D01*
X108983671Y-152846192D01*
X108983684Y-152846185D01*
X109147462Y-152736751D01*
X109147466Y-152736748D01*
X109286748Y-152597466D01*
X109286751Y-152597462D01*
X109396185Y-152433684D01*
X109396186Y-152433682D01*
X109400129Y-152424163D01*
X109443968Y-152369757D01*
X109510261Y-152347689D01*
X109577961Y-152364965D01*
X109583400Y-152368647D01*
X109586634Y-152370514D01*
X109586635Y-152370515D01*
X109717865Y-152446281D01*
X109864234Y-152485500D01*
X109864236Y-152485500D01*
X110015764Y-152485500D01*
X110015766Y-152485500D01*
X110162135Y-152446281D01*
X110293365Y-152370515D01*
X110400515Y-152263365D01*
X110476281Y-152132135D01*
X110515500Y-151985766D01*
X110515500Y-151834234D01*
X115144500Y-151834234D01*
X115144500Y-151985765D01*
X115183719Y-152132136D01*
X115209111Y-152176115D01*
X115259485Y-152263365D01*
X115366635Y-152370515D01*
X115497865Y-152446281D01*
X115644234Y-152485500D01*
X115644236Y-152485500D01*
X115795764Y-152485500D01*
X115795766Y-152485500D01*
X115942135Y-152446281D01*
X116073365Y-152370515D01*
X116073366Y-152370513D01*
X116080403Y-152366451D01*
X116081676Y-152368656D01*
X116134956Y-152348043D01*
X116203405Y-152362063D01*
X116253407Y-152410864D01*
X116259867Y-152424157D01*
X116263809Y-152433674D01*
X116263814Y-152433684D01*
X116373248Y-152597462D01*
X116373251Y-152597466D01*
X116512533Y-152736748D01*
X116512537Y-152736751D01*
X116676315Y-152846185D01*
X116676328Y-152846192D01*
X116858308Y-152921569D01*
X116900000Y-152929862D01*
X116900000Y-152126988D01*
X116909940Y-152144205D01*
X116965795Y-152200060D01*
X117034204Y-152239556D01*
X117110504Y-152260000D01*
X117189496Y-152260000D01*
X117265796Y-152239556D01*
X117334205Y-152200060D01*
X117390060Y-152144205D01*
X117400000Y-152126988D01*
X117400000Y-152929862D01*
X117441690Y-152921569D01*
X117441692Y-152921569D01*
X117623671Y-152846192D01*
X117623684Y-152846185D01*
X117787462Y-152736751D01*
X117787466Y-152736748D01*
X117916653Y-152607561D01*
X127950772Y-152607561D01*
X127950772Y-152765254D01*
X127981533Y-152919897D01*
X127981536Y-152919909D01*
X128041874Y-153065580D01*
X128041881Y-153065593D01*
X128129482Y-153196696D01*
X128129485Y-153196700D01*
X128240979Y-153308194D01*
X128240983Y-153308197D01*
X128372086Y-153395798D01*
X128372099Y-153395805D01*
X128512908Y-153454129D01*
X128517775Y-153456145D01*
X128672425Y-153486907D01*
X128672428Y-153486908D01*
X128672430Y-153486908D01*
X128830116Y-153486908D01*
X128830117Y-153486907D01*
X128984769Y-153456145D01*
X129130451Y-153395802D01*
X129261561Y-153308197D01*
X129373061Y-153196697D01*
X129460666Y-153065587D01*
X129521009Y-152919905D01*
X129551772Y-152765250D01*
X129551772Y-152607566D01*
X129551772Y-152607563D01*
X129551771Y-152607561D01*
X129521010Y-152452918D01*
X129521009Y-152452911D01*
X129486880Y-152370515D01*
X129460669Y-152307235D01*
X129460662Y-152307222D01*
X129373061Y-152176119D01*
X129373058Y-152176115D01*
X129261564Y-152064621D01*
X129261560Y-152064618D01*
X129130457Y-151977017D01*
X129130444Y-151977010D01*
X128984773Y-151916672D01*
X128984761Y-151916669D01*
X128830117Y-151885908D01*
X128830114Y-151885908D01*
X128672430Y-151885908D01*
X128672427Y-151885908D01*
X128517782Y-151916669D01*
X128517770Y-151916672D01*
X128372099Y-151977010D01*
X128372086Y-151977017D01*
X128240983Y-152064618D01*
X128240979Y-152064621D01*
X128129485Y-152176115D01*
X128129482Y-152176119D01*
X128041881Y-152307222D01*
X128041874Y-152307235D01*
X127981536Y-152452906D01*
X127981533Y-152452918D01*
X127950772Y-152607561D01*
X117916653Y-152607561D01*
X117926748Y-152597466D01*
X117926751Y-152597462D01*
X117970103Y-152532583D01*
X118036185Y-152433684D01*
X118036192Y-152433671D01*
X118111569Y-152251693D01*
X118111572Y-152251681D01*
X118149999Y-152058495D01*
X118150000Y-152058492D01*
X118150000Y-151660000D01*
X117450000Y-151660000D01*
X117450000Y-151160000D01*
X118150000Y-151160000D01*
X118150000Y-150761508D01*
X118149999Y-150761504D01*
X118111572Y-150568318D01*
X118111569Y-150568306D01*
X118036192Y-150386328D01*
X118036185Y-150386315D01*
X117926751Y-150222537D01*
X117926748Y-150222533D01*
X117787466Y-150083251D01*
X117787462Y-150083248D01*
X117623684Y-149973814D01*
X117623671Y-149973807D01*
X117441691Y-149898429D01*
X117441683Y-149898427D01*
X117400000Y-149890135D01*
X117400000Y-150693011D01*
X117390060Y-150675795D01*
X117334205Y-150619940D01*
X117265796Y-150580444D01*
X117189496Y-150560000D01*
X117110504Y-150560000D01*
X117034204Y-150580444D01*
X116965795Y-150619940D01*
X116909940Y-150675795D01*
X116900000Y-150693011D01*
X116900000Y-149890136D01*
X116899999Y-149890135D01*
X116858316Y-149898427D01*
X116858308Y-149898429D01*
X116676328Y-149973807D01*
X116676315Y-149973814D01*
X116512537Y-150083248D01*
X116512533Y-150083251D01*
X116373251Y-150222533D01*
X116373248Y-150222537D01*
X116263814Y-150386315D01*
X116263807Y-150386328D01*
X116188430Y-150568306D01*
X116188427Y-150568318D01*
X116150000Y-150761504D01*
X116150000Y-151160000D01*
X116850000Y-151160000D01*
X116850000Y-151660000D01*
X116311784Y-151660000D01*
X116244745Y-151640315D01*
X116204397Y-151598000D01*
X116180515Y-151556635D01*
X116073365Y-151449485D01*
X116007750Y-151411602D01*
X115942136Y-151373719D01*
X115868950Y-151354109D01*
X115795766Y-151334500D01*
X115644234Y-151334500D01*
X115497863Y-151373719D01*
X115366635Y-151449485D01*
X115366632Y-151449487D01*
X115259487Y-151556632D01*
X115259485Y-151556635D01*
X115183719Y-151687863D01*
X115144500Y-151834234D01*
X110515500Y-151834234D01*
X110476281Y-151687865D01*
X110400515Y-151556635D01*
X110293365Y-151449485D01*
X110227750Y-151411602D01*
X110162136Y-151373719D01*
X110088950Y-151354109D01*
X110015766Y-151334500D01*
X109864234Y-151334500D01*
X109717863Y-151373719D01*
X109586635Y-151449485D01*
X109586632Y-151449487D01*
X109479487Y-151556632D01*
X109479483Y-151556638D01*
X109455603Y-151598000D01*
X109405036Y-151646216D01*
X109348216Y-151660000D01*
X108810000Y-151660000D01*
X108810000Y-151160000D01*
X109510000Y-151160000D01*
X109510000Y-150761508D01*
X109509999Y-150761504D01*
X109471572Y-150568318D01*
X109471569Y-150568306D01*
X109396192Y-150386328D01*
X109396185Y-150386315D01*
X109286751Y-150222537D01*
X109286748Y-150222533D01*
X109147466Y-150083251D01*
X109147462Y-150083248D01*
X108983684Y-149973814D01*
X108983671Y-149973807D01*
X108801691Y-149898429D01*
X108801683Y-149898427D01*
X108760000Y-149890135D01*
X108760000Y-150693011D01*
X108750060Y-150675795D01*
X108694205Y-150619940D01*
X108625796Y-150580444D01*
X108549496Y-150560000D01*
X108470504Y-150560000D01*
X108394204Y-150580444D01*
X108325795Y-150619940D01*
X108269940Y-150675795D01*
X108260000Y-150693011D01*
X108260000Y-149890136D01*
X108259999Y-149890135D01*
X108218316Y-149898427D01*
X108218308Y-149898429D01*
X108036328Y-149973807D01*
X108036315Y-149973814D01*
X107872537Y-150083248D01*
X107872533Y-150083251D01*
X107733251Y-150222533D01*
X107733248Y-150222537D01*
X107623814Y-150386315D01*
X107623807Y-150386328D01*
X107548430Y-150568306D01*
X107548427Y-150568318D01*
X107510000Y-150761504D01*
X30860500Y-150761504D01*
X30860500Y-149606682D01*
X68134500Y-149606682D01*
X68134500Y-149738466D01*
X68144249Y-149774849D01*
X68168608Y-149865761D01*
X68193476Y-149908832D01*
X68234500Y-149979888D01*
X68327686Y-150073074D01*
X68441814Y-150138966D01*
X68569108Y-150173074D01*
X68569110Y-150173074D01*
X68700890Y-150173074D01*
X68700892Y-150173074D01*
X68828186Y-150138966D01*
X68942314Y-150073074D01*
X68972319Y-150043069D01*
X69033642Y-150009584D01*
X69103334Y-150014568D01*
X69147681Y-150043069D01*
X69177686Y-150073074D01*
X69291814Y-150138966D01*
X69419108Y-150173074D01*
X69419110Y-150173074D01*
X69550890Y-150173074D01*
X69550892Y-150173074D01*
X69678186Y-150138966D01*
X69792314Y-150073074D01*
X69885500Y-149979888D01*
X69951392Y-149865760D01*
X69985500Y-149738466D01*
X69985500Y-149643065D01*
X71134500Y-149643065D01*
X71134500Y-149774849D01*
X71140278Y-149796412D01*
X71168608Y-149902144D01*
X71192954Y-149944311D01*
X71234500Y-150016271D01*
X71327686Y-150109457D01*
X71426521Y-150166520D01*
X71437873Y-150173074D01*
X71441814Y-150175349D01*
X71569108Y-150209457D01*
X71569110Y-150209457D01*
X71700890Y-150209457D01*
X71700892Y-150209457D01*
X71828186Y-150175349D01*
X71942314Y-150109457D01*
X71972319Y-150079452D01*
X72033642Y-150045967D01*
X72103334Y-150050951D01*
X72147681Y-150079452D01*
X72177686Y-150109457D01*
X72276521Y-150166520D01*
X72287873Y-150173074D01*
X72291814Y-150175349D01*
X72419108Y-150209457D01*
X72419110Y-150209457D01*
X72550890Y-150209457D01*
X72550892Y-150209457D01*
X72678186Y-150175349D01*
X72792314Y-150109457D01*
X72885500Y-150016271D01*
X72907040Y-149978962D01*
X91253099Y-149978962D01*
X91253099Y-150110746D01*
X91269799Y-150173073D01*
X91287207Y-150238041D01*
X91320153Y-150295104D01*
X91353099Y-150352168D01*
X91446285Y-150445354D01*
X91560413Y-150511246D01*
X91687707Y-150545354D01*
X91687709Y-150545354D01*
X91819489Y-150545354D01*
X91819491Y-150545354D01*
X91946785Y-150511246D01*
X92060913Y-150445354D01*
X92154099Y-150352168D01*
X92219991Y-150238040D01*
X92254099Y-150110746D01*
X92254099Y-150068312D01*
X92273784Y-150001273D01*
X92326588Y-149955518D01*
X92378099Y-149944312D01*
X92420531Y-149944312D01*
X92420533Y-149944312D01*
X92547827Y-149910204D01*
X92661955Y-149844312D01*
X92755141Y-149751126D01*
X92805080Y-149664629D01*
X94328979Y-149664629D01*
X94328979Y-149796412D01*
X94363087Y-149923708D01*
X94374983Y-149944312D01*
X94428979Y-150037835D01*
X94522165Y-150131021D01*
X94636293Y-150196913D01*
X94763587Y-150231021D01*
X94763589Y-150231021D01*
X94895369Y-150231021D01*
X94895371Y-150231021D01*
X95022665Y-150196913D01*
X95136793Y-150131021D01*
X95229979Y-150037835D01*
X95295871Y-149923707D01*
X95329979Y-149796413D01*
X95329979Y-149753979D01*
X95349664Y-149686940D01*
X95402468Y-149641185D01*
X95453979Y-149629979D01*
X95496411Y-149629979D01*
X95496413Y-149629979D01*
X95623707Y-149595871D01*
X95737835Y-149529979D01*
X95831021Y-149436793D01*
X95896913Y-149322665D01*
X95931021Y-149195371D01*
X95931021Y-149063587D01*
X95896913Y-148936293D01*
X95831021Y-148822165D01*
X95737835Y-148728979D01*
X95680771Y-148696033D01*
X95623708Y-148663087D01*
X95560060Y-148646033D01*
X95496413Y-148628979D01*
X95364629Y-148628979D01*
X95237333Y-148663087D01*
X95123207Y-148728979D01*
X95123204Y-148728981D01*
X95030023Y-148822162D01*
X95030021Y-148822165D01*
X94964129Y-148936291D01*
X94930021Y-149063587D01*
X94930021Y-149106021D01*
X94910336Y-149173060D01*
X94857532Y-149218815D01*
X94806021Y-149230021D01*
X94763587Y-149230021D01*
X94636291Y-149264129D01*
X94522165Y-149330021D01*
X94522162Y-149330023D01*
X94428981Y-149423204D01*
X94428979Y-149423207D01*
X94363087Y-149537333D01*
X94328979Y-149664629D01*
X92805080Y-149664629D01*
X92821033Y-149636998D01*
X92855141Y-149509704D01*
X92855141Y-149377920D01*
X92821033Y-149250626D01*
X92755141Y-149136498D01*
X92661955Y-149043312D01*
X92604891Y-149010366D01*
X92547828Y-148977420D01*
X92484180Y-148960366D01*
X92420533Y-148943312D01*
X92288749Y-148943312D01*
X92161453Y-148977420D01*
X92047327Y-149043312D01*
X92047324Y-149043314D01*
X91954143Y-149136495D01*
X91954141Y-149136498D01*
X91888249Y-149250624D01*
X91854141Y-149377920D01*
X91854141Y-149420354D01*
X91834456Y-149487393D01*
X91781652Y-149533148D01*
X91730141Y-149544354D01*
X91687707Y-149544354D01*
X91560411Y-149578462D01*
X91446285Y-149644354D01*
X91446282Y-149644356D01*
X91353101Y-149737537D01*
X91353099Y-149737540D01*
X91287207Y-149851666D01*
X91262383Y-149944312D01*
X91253099Y-149978962D01*
X72907040Y-149978962D01*
X72951392Y-149902143D01*
X72985500Y-149774849D01*
X72985500Y-149643065D01*
X72951392Y-149515771D01*
X72885500Y-149401643D01*
X72792314Y-149308457D01*
X72735250Y-149275511D01*
X72678187Y-149242565D01*
X72589549Y-149218815D01*
X72550892Y-149208457D01*
X72419108Y-149208457D01*
X72291812Y-149242565D01*
X72177686Y-149308457D01*
X72177683Y-149308459D01*
X72147681Y-149338462D01*
X72086358Y-149371947D01*
X72016666Y-149366963D01*
X71972319Y-149338462D01*
X71942316Y-149308459D01*
X71942314Y-149308457D01*
X71885250Y-149275511D01*
X71828187Y-149242565D01*
X71739549Y-149218815D01*
X71700892Y-149208457D01*
X71569108Y-149208457D01*
X71441812Y-149242565D01*
X71327686Y-149308457D01*
X71327683Y-149308459D01*
X71234502Y-149401640D01*
X71234500Y-149401643D01*
X71168608Y-149515769D01*
X71162830Y-149537335D01*
X71134500Y-149643065D01*
X69985500Y-149643065D01*
X69985500Y-149606682D01*
X69951392Y-149479388D01*
X69885500Y-149365260D01*
X69792314Y-149272074D01*
X69735250Y-149239128D01*
X69678187Y-149206182D01*
X69614539Y-149189128D01*
X69550892Y-149172074D01*
X69419108Y-149172074D01*
X69291812Y-149206182D01*
X69177686Y-149272074D01*
X69177683Y-149272076D01*
X69147681Y-149302079D01*
X69086358Y-149335564D01*
X69016666Y-149330580D01*
X68972319Y-149302079D01*
X68942316Y-149272076D01*
X68942314Y-149272074D01*
X68885250Y-149239128D01*
X68828187Y-149206182D01*
X68764539Y-149189128D01*
X68700892Y-149172074D01*
X68569108Y-149172074D01*
X68441812Y-149206182D01*
X68327686Y-149272074D01*
X68327683Y-149272076D01*
X68234502Y-149365257D01*
X68234500Y-149365260D01*
X68168608Y-149479386D01*
X68147802Y-149557036D01*
X68134500Y-149606682D01*
X30860500Y-149606682D01*
X30860500Y-144653428D01*
X34695000Y-144653428D01*
X34695000Y-145440000D01*
X35495000Y-145440000D01*
X35495000Y-145940000D01*
X34695000Y-145940000D01*
X34695000Y-146726571D01*
X34722085Y-146897584D01*
X34775591Y-147062257D01*
X34854195Y-147216524D01*
X34955967Y-147356602D01*
X35078397Y-147479032D01*
X35218475Y-147580804D01*
X35372744Y-147659408D01*
X35537415Y-147712914D01*
X35537414Y-147712914D01*
X35544999Y-147714115D01*
X35545000Y-147714114D01*
X35545000Y-146806988D01*
X35554940Y-146824205D01*
X35610795Y-146880060D01*
X35679204Y-146919556D01*
X35755504Y-146940000D01*
X35834496Y-146940000D01*
X35910796Y-146919556D01*
X35979205Y-146880060D01*
X36035060Y-146824205D01*
X36045000Y-146806988D01*
X36045000Y-147714115D01*
X36052584Y-147712914D01*
X36217255Y-147659408D01*
X36371524Y-147580804D01*
X36511602Y-147479032D01*
X36634032Y-147356602D01*
X36735804Y-147216524D01*
X36814408Y-147062257D01*
X36867914Y-146897584D01*
X36895000Y-146726571D01*
X36895000Y-145940000D01*
X36095000Y-145940000D01*
X36095000Y-145440000D01*
X36895000Y-145440000D01*
X36895000Y-144653428D01*
X47495000Y-144653428D01*
X47495000Y-145440000D01*
X48295000Y-145440000D01*
X48295000Y-145940000D01*
X47495000Y-145940000D01*
X47495000Y-146726571D01*
X47522085Y-146897584D01*
X47575591Y-147062257D01*
X47654195Y-147216524D01*
X47755967Y-147356602D01*
X47878397Y-147479032D01*
X48018475Y-147580804D01*
X48172744Y-147659408D01*
X48337415Y-147712914D01*
X48337414Y-147712914D01*
X48344999Y-147714115D01*
X48345000Y-147714114D01*
X48345000Y-146806988D01*
X48354940Y-146824205D01*
X48410795Y-146880060D01*
X48479204Y-146919556D01*
X48555504Y-146940000D01*
X48634496Y-146940000D01*
X48710796Y-146919556D01*
X48779205Y-146880060D01*
X48835060Y-146824205D01*
X48845000Y-146806988D01*
X48845000Y-147714115D01*
X48852584Y-147712914D01*
X49017255Y-147659408D01*
X49171524Y-147580804D01*
X49311602Y-147479032D01*
X49434032Y-147356602D01*
X49535804Y-147216524D01*
X49614408Y-147062257D01*
X49667914Y-146897584D01*
X49695000Y-146726571D01*
X49695000Y-145940000D01*
X48895000Y-145940000D01*
X48895000Y-145440000D01*
X49695000Y-145440000D01*
X49695000Y-144773428D01*
X61560000Y-144773428D01*
X61560000Y-145560000D01*
X62360000Y-145560000D01*
X62360000Y-146060000D01*
X61560000Y-146060000D01*
X61560000Y-146846571D01*
X61587085Y-147017584D01*
X61640591Y-147182257D01*
X61719195Y-147336524D01*
X61820967Y-147476602D01*
X61943397Y-147599032D01*
X62083475Y-147700804D01*
X62237744Y-147779408D01*
X62402415Y-147832914D01*
X62402414Y-147832914D01*
X62409999Y-147834115D01*
X62410000Y-147834114D01*
X62410000Y-146926988D01*
X62419940Y-146944205D01*
X62475795Y-147000060D01*
X62544204Y-147039556D01*
X62620504Y-147060000D01*
X62699496Y-147060000D01*
X62775796Y-147039556D01*
X62844205Y-147000060D01*
X62900060Y-146944205D01*
X62910000Y-146926988D01*
X62910000Y-147834115D01*
X62917584Y-147832914D01*
X63082255Y-147779408D01*
X63236524Y-147700804D01*
X63376602Y-147599032D01*
X63499032Y-147476602D01*
X63600804Y-147336524D01*
X63679408Y-147182257D01*
X63732914Y-147017584D01*
X63760000Y-146846571D01*
X63760000Y-146060000D01*
X62960000Y-146060000D01*
X62960000Y-145560000D01*
X63760000Y-145560000D01*
X63760000Y-144773428D01*
X74360000Y-144773428D01*
X74360000Y-145560000D01*
X75160000Y-145560000D01*
X75160000Y-146060000D01*
X74360000Y-146060000D01*
X74360000Y-146846571D01*
X74387085Y-147017584D01*
X74440591Y-147182257D01*
X74519195Y-147336524D01*
X74620967Y-147476602D01*
X74743397Y-147599032D01*
X74883475Y-147700804D01*
X75037744Y-147779408D01*
X75202415Y-147832914D01*
X75202414Y-147832914D01*
X75209999Y-147834115D01*
X75210000Y-147834114D01*
X75210000Y-146926988D01*
X75219940Y-146944205D01*
X75275795Y-147000060D01*
X75344204Y-147039556D01*
X75420504Y-147060000D01*
X75499496Y-147060000D01*
X75575796Y-147039556D01*
X75644205Y-147000060D01*
X75700060Y-146944205D01*
X75710000Y-146926988D01*
X75710000Y-147834115D01*
X75717584Y-147832914D01*
X75882255Y-147779408D01*
X76036524Y-147700804D01*
X76176602Y-147599032D01*
X76299032Y-147476602D01*
X76400804Y-147336524D01*
X76479408Y-147182257D01*
X76532914Y-147017584D01*
X76560000Y-146846571D01*
X76560000Y-146060000D01*
X75760000Y-146060000D01*
X75760000Y-145560000D01*
X76560000Y-145560000D01*
X76560000Y-144773430D01*
X76552797Y-144727955D01*
X76552797Y-144727953D01*
X76550496Y-144713428D01*
X84100000Y-144713428D01*
X84100000Y-145500000D01*
X84900000Y-145500000D01*
X84900000Y-146000000D01*
X84100000Y-146000000D01*
X84100000Y-146786571D01*
X84127085Y-146957584D01*
X84180591Y-147122257D01*
X84259195Y-147276524D01*
X84360967Y-147416602D01*
X84483397Y-147539032D01*
X84623475Y-147640804D01*
X84777744Y-147719408D01*
X84942415Y-147772914D01*
X84942414Y-147772914D01*
X84949999Y-147774115D01*
X84950000Y-147774114D01*
X84950000Y-146866988D01*
X84959940Y-146884205D01*
X85015795Y-146940060D01*
X85084204Y-146979556D01*
X85160504Y-147000000D01*
X85239496Y-147000000D01*
X85315796Y-146979556D01*
X85384205Y-146940060D01*
X85440060Y-146884205D01*
X85450000Y-146866988D01*
X85450000Y-147774115D01*
X85457584Y-147772914D01*
X85622255Y-147719408D01*
X85776524Y-147640804D01*
X85916602Y-147539032D01*
X86039032Y-147416602D01*
X86140804Y-147276524D01*
X86219408Y-147122257D01*
X86272914Y-146957584D01*
X86300000Y-146786571D01*
X86300000Y-146000000D01*
X85500000Y-146000000D01*
X85500000Y-145500000D01*
X86300000Y-145500000D01*
X86300000Y-144713428D01*
X96900000Y-144713428D01*
X96900000Y-145500000D01*
X97700000Y-145500000D01*
X97700000Y-146000000D01*
X96900000Y-146000000D01*
X96900000Y-146786571D01*
X96927085Y-146957584D01*
X96980591Y-147122257D01*
X97059195Y-147276524D01*
X97160967Y-147416602D01*
X97283397Y-147539032D01*
X97423475Y-147640804D01*
X97577744Y-147719408D01*
X97742415Y-147772914D01*
X97742414Y-147772914D01*
X97749999Y-147774115D01*
X97750000Y-147774114D01*
X97750000Y-146866988D01*
X97759940Y-146884205D01*
X97815795Y-146940060D01*
X97884204Y-146979556D01*
X97960504Y-147000000D01*
X98039496Y-147000000D01*
X98115796Y-146979556D01*
X98184205Y-146940060D01*
X98240060Y-146884205D01*
X98250000Y-146866988D01*
X98250000Y-147774115D01*
X98257584Y-147772914D01*
X98422255Y-147719408D01*
X98576524Y-147640804D01*
X98716602Y-147539032D01*
X98839032Y-147416602D01*
X98940804Y-147276524D01*
X99019408Y-147122257D01*
X99072914Y-146957584D01*
X99100000Y-146786571D01*
X99100000Y-146639995D01*
X127500251Y-146639995D01*
X127500251Y-146771779D01*
X127514298Y-146824205D01*
X127534359Y-146899074D01*
X127538607Y-146906431D01*
X127600251Y-147013201D01*
X127693437Y-147106387D01*
X127807565Y-147172279D01*
X127934859Y-147206387D01*
X127934861Y-147206387D01*
X127977293Y-147206387D01*
X128044332Y-147226072D01*
X128090087Y-147278876D01*
X128101293Y-147330387D01*
X128101293Y-147372820D01*
X128135401Y-147500116D01*
X128157870Y-147539032D01*
X128201293Y-147614243D01*
X128294479Y-147707429D01*
X128408607Y-147773321D01*
X128535901Y-147807429D01*
X128535903Y-147807429D01*
X128667683Y-147807429D01*
X128667685Y-147807429D01*
X128794979Y-147773321D01*
X128909107Y-147707429D01*
X129002293Y-147614243D01*
X129068185Y-147500115D01*
X129102293Y-147372821D01*
X129102293Y-147241037D01*
X129068185Y-147113743D01*
X129063937Y-147106386D01*
X129037156Y-147060000D01*
X129002293Y-146999615D01*
X128909107Y-146906429D01*
X128852043Y-146873483D01*
X128794980Y-146840537D01*
X128702643Y-146815796D01*
X128667685Y-146806429D01*
X128625251Y-146806429D01*
X128558212Y-146786744D01*
X128512457Y-146733940D01*
X128501251Y-146682429D01*
X128501251Y-146639997D01*
X128501251Y-146639995D01*
X128467143Y-146512701D01*
X128401251Y-146398573D01*
X128308065Y-146305387D01*
X128251001Y-146272441D01*
X128193938Y-146239495D01*
X128130290Y-146222441D01*
X128066643Y-146205387D01*
X127934859Y-146205387D01*
X127807563Y-146239495D01*
X127693437Y-146305387D01*
X127693434Y-146305389D01*
X127600253Y-146398570D01*
X127600251Y-146398573D01*
X127534359Y-146512699D01*
X127500251Y-146639995D01*
X99100000Y-146639995D01*
X99100000Y-146000000D01*
X98300000Y-146000000D01*
X98300000Y-145500000D01*
X99100000Y-145500000D01*
X99100000Y-144713428D01*
X99072914Y-144542415D01*
X99019408Y-144377742D01*
X98940804Y-144223475D01*
X98839032Y-144083397D01*
X98716602Y-143960967D01*
X98576524Y-143859195D01*
X98422257Y-143780591D01*
X98257589Y-143727087D01*
X98257581Y-143727085D01*
X98250000Y-143725884D01*
X98250000Y-144633011D01*
X98240060Y-144615795D01*
X98184205Y-144559940D01*
X98115796Y-144520444D01*
X98039496Y-144500000D01*
X97960504Y-144500000D01*
X97884204Y-144520444D01*
X97815795Y-144559940D01*
X97759940Y-144615795D01*
X97750000Y-144633011D01*
X97750000Y-143725884D01*
X97749999Y-143725884D01*
X97742418Y-143727085D01*
X97742410Y-143727087D01*
X97577742Y-143780591D01*
X97423475Y-143859195D01*
X97283397Y-143960967D01*
X97160967Y-144083397D01*
X97059195Y-144223475D01*
X96980591Y-144377742D01*
X96927085Y-144542415D01*
X96900000Y-144713428D01*
X86300000Y-144713428D01*
X86272914Y-144542415D01*
X86219408Y-144377742D01*
X86140804Y-144223475D01*
X86039032Y-144083397D01*
X85916602Y-143960967D01*
X85776524Y-143859195D01*
X85622257Y-143780591D01*
X85457589Y-143727087D01*
X85457581Y-143727085D01*
X85450000Y-143725884D01*
X85450000Y-144633011D01*
X85440060Y-144615795D01*
X85384205Y-144559940D01*
X85315796Y-144520444D01*
X85239496Y-144500000D01*
X85160504Y-144500000D01*
X85084204Y-144520444D01*
X85015795Y-144559940D01*
X84959940Y-144615795D01*
X84950000Y-144633011D01*
X84950000Y-143725884D01*
X84949999Y-143725884D01*
X84942418Y-143727085D01*
X84942410Y-143727087D01*
X84777742Y-143780591D01*
X84623475Y-143859195D01*
X84483397Y-143960967D01*
X84360967Y-144083397D01*
X84259195Y-144223475D01*
X84180591Y-144377742D01*
X84127085Y-144542415D01*
X84100000Y-144713428D01*
X76550496Y-144713428D01*
X76532914Y-144602416D01*
X76532914Y-144602415D01*
X76479408Y-144437742D01*
X76400804Y-144283475D01*
X76299032Y-144143397D01*
X76176602Y-144020967D01*
X76036524Y-143919195D01*
X75882257Y-143840591D01*
X75717589Y-143787087D01*
X75717581Y-143787085D01*
X75710000Y-143785884D01*
X75710000Y-144693011D01*
X75700060Y-144675795D01*
X75644205Y-144619940D01*
X75575796Y-144580444D01*
X75499496Y-144560000D01*
X75420504Y-144560000D01*
X75344204Y-144580444D01*
X75275795Y-144619940D01*
X75219940Y-144675795D01*
X75210000Y-144693011D01*
X75210000Y-143785884D01*
X75209999Y-143785884D01*
X75202418Y-143787085D01*
X75202410Y-143787087D01*
X75037742Y-143840591D01*
X74883475Y-143919195D01*
X74743397Y-144020967D01*
X74620967Y-144143397D01*
X74519195Y-144283475D01*
X74440591Y-144437742D01*
X74387085Y-144602415D01*
X74360000Y-144773428D01*
X63760000Y-144773428D01*
X63732914Y-144602415D01*
X63679408Y-144437742D01*
X63600804Y-144283475D01*
X63499032Y-144143397D01*
X63376602Y-144020967D01*
X63236524Y-143919195D01*
X63082257Y-143840591D01*
X62917589Y-143787087D01*
X62917581Y-143787085D01*
X62910000Y-143785884D01*
X62910000Y-144693011D01*
X62900060Y-144675795D01*
X62844205Y-144619940D01*
X62775796Y-144580444D01*
X62699496Y-144560000D01*
X62620504Y-144560000D01*
X62544204Y-144580444D01*
X62475795Y-144619940D01*
X62419940Y-144675795D01*
X62410000Y-144693011D01*
X62410000Y-143785884D01*
X62409999Y-143785884D01*
X62402418Y-143787085D01*
X62402410Y-143787087D01*
X62237742Y-143840591D01*
X62083475Y-143919195D01*
X61943397Y-144020967D01*
X61820967Y-144143397D01*
X61719195Y-144283475D01*
X61640591Y-144437742D01*
X61587085Y-144602415D01*
X61560000Y-144773428D01*
X49695000Y-144773428D01*
X49695000Y-144653428D01*
X49667914Y-144482415D01*
X49614408Y-144317742D01*
X49535804Y-144163475D01*
X49434032Y-144023397D01*
X49311602Y-143900967D01*
X49171524Y-143799195D01*
X49017257Y-143720591D01*
X48852589Y-143667087D01*
X48852581Y-143667085D01*
X48845000Y-143665884D01*
X48845000Y-144573011D01*
X48835060Y-144555795D01*
X48779205Y-144499940D01*
X48710796Y-144460444D01*
X48634496Y-144440000D01*
X48555504Y-144440000D01*
X48479204Y-144460444D01*
X48410795Y-144499940D01*
X48354940Y-144555795D01*
X48345000Y-144573011D01*
X48345000Y-143665884D01*
X48344999Y-143665884D01*
X48337418Y-143667085D01*
X48337410Y-143667087D01*
X48172742Y-143720591D01*
X48018475Y-143799195D01*
X47878397Y-143900967D01*
X47755967Y-144023397D01*
X47654195Y-144163475D01*
X47575591Y-144317742D01*
X47522085Y-144482415D01*
X47495000Y-144653428D01*
X36895000Y-144653428D01*
X36867914Y-144482415D01*
X36814408Y-144317742D01*
X36735804Y-144163475D01*
X36634032Y-144023397D01*
X36511602Y-143900967D01*
X36371524Y-143799195D01*
X36217257Y-143720591D01*
X36052589Y-143667087D01*
X36052581Y-143667085D01*
X36045000Y-143665884D01*
X36045000Y-144573011D01*
X36035060Y-144555795D01*
X35979205Y-144499940D01*
X35910796Y-144460444D01*
X35834496Y-144440000D01*
X35755504Y-144440000D01*
X35679204Y-144460444D01*
X35610795Y-144499940D01*
X35554940Y-144555795D01*
X35545000Y-144573011D01*
X35545000Y-143665884D01*
X35544999Y-143665884D01*
X35537418Y-143667085D01*
X35537410Y-143667087D01*
X35372742Y-143720591D01*
X35218475Y-143799195D01*
X35078397Y-143900967D01*
X34955967Y-144023397D01*
X34854195Y-144163475D01*
X34775591Y-144317742D01*
X34722085Y-144482415D01*
X34695000Y-144653428D01*
X30860500Y-144653428D01*
X30860500Y-142234108D01*
X51979500Y-142234108D01*
X51979500Y-142365891D01*
X52013608Y-142493187D01*
X52046554Y-142550250D01*
X52079500Y-142607314D01*
X52172686Y-142700500D01*
X52286814Y-142766392D01*
X52414108Y-142800500D01*
X52414110Y-142800500D01*
X52545890Y-142800500D01*
X52545892Y-142800500D01*
X52673186Y-142766392D01*
X52787314Y-142700500D01*
X52880500Y-142607314D01*
X52946392Y-142493186D01*
X52980500Y-142365892D01*
X52980500Y-142234108D01*
X52946392Y-142106814D01*
X52880500Y-141992686D01*
X52787314Y-141899500D01*
X52730250Y-141866554D01*
X52673187Y-141833608D01*
X52609539Y-141816554D01*
X52545892Y-141799500D01*
X52414108Y-141799500D01*
X52286812Y-141833608D01*
X52172686Y-141899500D01*
X52172683Y-141899502D01*
X52079502Y-141992683D01*
X52079500Y-141992686D01*
X52013608Y-142106812D01*
X51979500Y-142234108D01*
X30860500Y-142234108D01*
X30860500Y-139889629D01*
X36483979Y-139889629D01*
X36483979Y-140021412D01*
X36518087Y-140148708D01*
X36551033Y-140205771D01*
X36583979Y-140262835D01*
X36677165Y-140356021D01*
X36791293Y-140421913D01*
X36918587Y-140456021D01*
X36918589Y-140456021D01*
X37050369Y-140456021D01*
X37050371Y-140456021D01*
X37177665Y-140421913D01*
X37291793Y-140356021D01*
X37384979Y-140262835D01*
X37450871Y-140148707D01*
X37484979Y-140021413D01*
X37484979Y-139978979D01*
X37504664Y-139911940D01*
X37557468Y-139866185D01*
X37608979Y-139854979D01*
X37651411Y-139854979D01*
X37651413Y-139854979D01*
X37778707Y-139820871D01*
X37892835Y-139754979D01*
X37986021Y-139661793D01*
X38051913Y-139547665D01*
X38086021Y-139420371D01*
X38086021Y-139288587D01*
X38051913Y-139161293D01*
X37986021Y-139047165D01*
X37892835Y-138953979D01*
X37845086Y-138926411D01*
X37788757Y-138893889D01*
X37788756Y-138893889D01*
X37778707Y-138888087D01*
X37651413Y-138853979D01*
X37519629Y-138853979D01*
X37392333Y-138888087D01*
X37278207Y-138953979D01*
X37278204Y-138953981D01*
X37185023Y-139047162D01*
X37185021Y-139047165D01*
X37119129Y-139161291D01*
X37085021Y-139288587D01*
X37085021Y-139331021D01*
X37065336Y-139398060D01*
X37012532Y-139443815D01*
X36961021Y-139455021D01*
X36918587Y-139455021D01*
X36791291Y-139489129D01*
X36677165Y-139555021D01*
X36677162Y-139555023D01*
X36583981Y-139648204D01*
X36583979Y-139648207D01*
X36518087Y-139762333D01*
X36483979Y-139889629D01*
X30860500Y-139889629D01*
X30860500Y-138794629D01*
X38978979Y-138794629D01*
X38978979Y-138926412D01*
X39013087Y-139053708D01*
X39028426Y-139080275D01*
X39078979Y-139167835D01*
X39172165Y-139261021D01*
X39286293Y-139326913D01*
X39413587Y-139361021D01*
X39413589Y-139361021D01*
X39545369Y-139361021D01*
X39545371Y-139361021D01*
X39672665Y-139326913D01*
X39786793Y-139261021D01*
X39879979Y-139167835D01*
X39945871Y-139053707D01*
X39979979Y-138926413D01*
X39979979Y-138883979D01*
X39999664Y-138816940D01*
X40052468Y-138771185D01*
X40103979Y-138759979D01*
X40146411Y-138759979D01*
X40146413Y-138759979D01*
X40273707Y-138725871D01*
X40387835Y-138659979D01*
X40481021Y-138566793D01*
X40482124Y-138564883D01*
X41639158Y-138564883D01*
X41639158Y-138696666D01*
X41673266Y-138823962D01*
X41690597Y-138853979D01*
X41739158Y-138938089D01*
X41739160Y-138938091D01*
X41769163Y-138968094D01*
X41802648Y-139029417D01*
X41797664Y-139099109D01*
X41769163Y-139143456D01*
X41739160Y-139173458D01*
X41739158Y-139173461D01*
X41673266Y-139287587D01*
X41653590Y-139361020D01*
X41639158Y-139414883D01*
X41639158Y-139546667D01*
X41641397Y-139555023D01*
X41673266Y-139673962D01*
X41706212Y-139731025D01*
X41739158Y-139788089D01*
X41832344Y-139881275D01*
X41946472Y-139947167D01*
X42073766Y-139981275D01*
X42073768Y-139981275D01*
X42205548Y-139981275D01*
X42205550Y-139981275D01*
X42332844Y-139947167D01*
X42446972Y-139881275D01*
X42540158Y-139788089D01*
X42606050Y-139673961D01*
X42640158Y-139546667D01*
X42640158Y-139414883D01*
X42606050Y-139287589D01*
X42540158Y-139173461D01*
X42510153Y-139143456D01*
X42476668Y-139082133D01*
X42481652Y-139012441D01*
X42510153Y-138968094D01*
X42524270Y-138953977D01*
X42540158Y-138938089D01*
X42606050Y-138823961D01*
X42640158Y-138696667D01*
X42640158Y-138564883D01*
X42606050Y-138437589D01*
X42540158Y-138323461D01*
X42446972Y-138230275D01*
X42381194Y-138192298D01*
X42332845Y-138164383D01*
X42269197Y-138147329D01*
X42205550Y-138130275D01*
X42073766Y-138130275D01*
X41946470Y-138164383D01*
X41832344Y-138230275D01*
X41832341Y-138230277D01*
X41739160Y-138323458D01*
X41739158Y-138323461D01*
X41673266Y-138437587D01*
X41639158Y-138564883D01*
X40482124Y-138564883D01*
X40546913Y-138452665D01*
X40581021Y-138325371D01*
X40581021Y-138193587D01*
X40546913Y-138066293D01*
X40543578Y-138060516D01*
X134790772Y-138060516D01*
X134790772Y-138192300D01*
X134800947Y-138230275D01*
X134824880Y-138319595D01*
X134855543Y-138372703D01*
X134890772Y-138433722D01*
X134983958Y-138526908D01*
X135098086Y-138592800D01*
X135225380Y-138626908D01*
X135225382Y-138626908D01*
X135357162Y-138626908D01*
X135357164Y-138626908D01*
X135484458Y-138592800D01*
X135598586Y-138526908D01*
X135691772Y-138433722D01*
X135757664Y-138319594D01*
X135791772Y-138192300D01*
X135791772Y-138060516D01*
X135757664Y-137933222D01*
X135691772Y-137819094D01*
X135598586Y-137725908D01*
X135541522Y-137692962D01*
X135484459Y-137660016D01*
X135420811Y-137642962D01*
X135357164Y-137625908D01*
X135225380Y-137625908D01*
X135098084Y-137660016D01*
X134983958Y-137725908D01*
X134983955Y-137725910D01*
X134890774Y-137819091D01*
X134890772Y-137819094D01*
X134824880Y-137933220D01*
X134819805Y-137952162D01*
X134790772Y-138060516D01*
X40543578Y-138060516D01*
X40481021Y-137952165D01*
X40387835Y-137858979D01*
X40330771Y-137826033D01*
X40273708Y-137793087D01*
X40210060Y-137776033D01*
X40146413Y-137758979D01*
X40014629Y-137758979D01*
X39887333Y-137793087D01*
X39773207Y-137858979D01*
X39773204Y-137858981D01*
X39680023Y-137952162D01*
X39680021Y-137952165D01*
X39614129Y-138066291D01*
X39580021Y-138193587D01*
X39580021Y-138236021D01*
X39560336Y-138303060D01*
X39507532Y-138348815D01*
X39456021Y-138360021D01*
X39413587Y-138360021D01*
X39286291Y-138394129D01*
X39172165Y-138460021D01*
X39172162Y-138460023D01*
X39078981Y-138553204D01*
X39078979Y-138553207D01*
X39013087Y-138667333D01*
X38978979Y-138794629D01*
X30860500Y-138794629D01*
X30860500Y-136194108D01*
X84969500Y-136194108D01*
X84969500Y-136325891D01*
X85003608Y-136453187D01*
X85036554Y-136510250D01*
X85069500Y-136567314D01*
X85162686Y-136660500D01*
X85276814Y-136726392D01*
X85404108Y-136760500D01*
X85404110Y-136760500D01*
X85535890Y-136760500D01*
X85535892Y-136760500D01*
X85663186Y-136726392D01*
X85777314Y-136660500D01*
X85870500Y-136567314D01*
X85936392Y-136453186D01*
X85970500Y-136325892D01*
X85970500Y-136194108D01*
X85936392Y-136066814D01*
X85870500Y-135952686D01*
X85777314Y-135859500D01*
X85720250Y-135826554D01*
X85663187Y-135793608D01*
X85599539Y-135776554D01*
X85535892Y-135759500D01*
X85404108Y-135759500D01*
X85276812Y-135793608D01*
X85162686Y-135859500D01*
X85162683Y-135859502D01*
X85069502Y-135952683D01*
X85069500Y-135952686D01*
X85003608Y-136066812D01*
X84969500Y-136194108D01*
X30860500Y-136194108D01*
X30860500Y-135374108D01*
X64399500Y-135374108D01*
X64399500Y-135505891D01*
X64433608Y-135633187D01*
X64466554Y-135690250D01*
X64499500Y-135747314D01*
X64592686Y-135840500D01*
X64706814Y-135906392D01*
X64834108Y-135940500D01*
X64834110Y-135940500D01*
X64965890Y-135940500D01*
X64965892Y-135940500D01*
X65093186Y-135906392D01*
X65207314Y-135840500D01*
X65300500Y-135747314D01*
X65366392Y-135633186D01*
X65400500Y-135505892D01*
X65400500Y-135374108D01*
X65366392Y-135246814D01*
X65300500Y-135132686D01*
X65207314Y-135039500D01*
X65150250Y-135006554D01*
X65093187Y-134973608D01*
X65029539Y-134956554D01*
X64965892Y-134939500D01*
X64834108Y-134939500D01*
X64706812Y-134973608D01*
X64592686Y-135039500D01*
X64592683Y-135039502D01*
X64499502Y-135132683D01*
X64499500Y-135132686D01*
X64433608Y-135246812D01*
X64399500Y-135374108D01*
X30860500Y-135374108D01*
X30860500Y-131774108D01*
X121729500Y-131774108D01*
X121729500Y-131905891D01*
X121763608Y-132033187D01*
X121780638Y-132062683D01*
X121829500Y-132147314D01*
X121922686Y-132240500D01*
X122036814Y-132306392D01*
X122164108Y-132340500D01*
X122164110Y-132340500D01*
X122295890Y-132340500D01*
X122295892Y-132340500D01*
X122423186Y-132306392D01*
X122427142Y-132304108D01*
X130640772Y-132304108D01*
X130640772Y-132435891D01*
X130674880Y-132563187D01*
X130707826Y-132620250D01*
X130740772Y-132677314D01*
X130833958Y-132770500D01*
X130948086Y-132836392D01*
X131075380Y-132870500D01*
X131075382Y-132870500D01*
X131207162Y-132870500D01*
X131207164Y-132870500D01*
X131334458Y-132836392D01*
X131448586Y-132770500D01*
X131541772Y-132677314D01*
X131607664Y-132563186D01*
X131641772Y-132435892D01*
X131641772Y-132304108D01*
X131607664Y-132176814D01*
X131541772Y-132062686D01*
X131448586Y-131969500D01*
X131391522Y-131936554D01*
X131334459Y-131903608D01*
X131270811Y-131886554D01*
X131207164Y-131869500D01*
X131075380Y-131869500D01*
X130948084Y-131903608D01*
X130833958Y-131969500D01*
X130833955Y-131969502D01*
X130740774Y-132062683D01*
X130740772Y-132062686D01*
X130674880Y-132176812D01*
X130640772Y-132304108D01*
X122427142Y-132304108D01*
X122537314Y-132240500D01*
X122630500Y-132147314D01*
X122696392Y-132033186D01*
X122730500Y-131905892D01*
X122730500Y-131774108D01*
X122696392Y-131646814D01*
X122630500Y-131532686D01*
X122570027Y-131472213D01*
X134047605Y-131472213D01*
X134047605Y-131603996D01*
X134081713Y-131731292D01*
X134114659Y-131788355D01*
X134147605Y-131845419D01*
X134240791Y-131938605D01*
X134354919Y-132004497D01*
X134482213Y-132038605D01*
X134482215Y-132038605D01*
X134613995Y-132038605D01*
X134613997Y-132038605D01*
X134741291Y-132004497D01*
X134855419Y-131938605D01*
X134948605Y-131845419D01*
X135014497Y-131731291D01*
X135048605Y-131603997D01*
X135048605Y-131472213D01*
X135014497Y-131344919D01*
X134948605Y-131230791D01*
X134855419Y-131137605D01*
X134798355Y-131104659D01*
X134741292Y-131071713D01*
X134677644Y-131054659D01*
X134613997Y-131037605D01*
X134482213Y-131037605D01*
X134354917Y-131071713D01*
X134240791Y-131137605D01*
X134240788Y-131137607D01*
X134147607Y-131230788D01*
X134147605Y-131230791D01*
X134081713Y-131344917D01*
X134047605Y-131472213D01*
X122570027Y-131472213D01*
X122537314Y-131439500D01*
X122480250Y-131406554D01*
X122423187Y-131373608D01*
X122359539Y-131356554D01*
X122295892Y-131339500D01*
X122164108Y-131339500D01*
X122036812Y-131373608D01*
X121922686Y-131439500D01*
X121922683Y-131439502D01*
X121829502Y-131532683D01*
X121829500Y-131532686D01*
X121763608Y-131646812D01*
X121729500Y-131774108D01*
X30860500Y-131774108D01*
X30860500Y-127582938D01*
X127700772Y-127582938D01*
X127700772Y-127789877D01*
X127741140Y-127992820D01*
X127741142Y-127992828D01*
X127820330Y-128184004D01*
X127935296Y-128356065D01*
X128081614Y-128502383D01*
X128081617Y-128502385D01*
X128253674Y-128617349D01*
X128444852Y-128696538D01*
X128647802Y-128736907D01*
X128647806Y-128736908D01*
X128647807Y-128736908D01*
X128854738Y-128736908D01*
X128854739Y-128736907D01*
X129057692Y-128696538D01*
X129248870Y-128617349D01*
X129420927Y-128502385D01*
X129567249Y-128356063D01*
X129682213Y-128184006D01*
X129761402Y-127992828D01*
X129801772Y-127789873D01*
X129801772Y-127582943D01*
X129761402Y-127379988D01*
X129682213Y-127188810D01*
X129567249Y-127016753D01*
X129567247Y-127016750D01*
X129420929Y-126870432D01*
X129334898Y-126812949D01*
X129248870Y-126755467D01*
X129057692Y-126676278D01*
X129057684Y-126676276D01*
X128854741Y-126635908D01*
X128854737Y-126635908D01*
X128647807Y-126635908D01*
X128647802Y-126635908D01*
X128444859Y-126676276D01*
X128444851Y-126676278D01*
X128253675Y-126755466D01*
X128081614Y-126870432D01*
X127935296Y-127016750D01*
X127820330Y-127188811D01*
X127741142Y-127379987D01*
X127741140Y-127379995D01*
X127700772Y-127582938D01*
X30860500Y-127582938D01*
X30860500Y-126104629D01*
X82978979Y-126104629D01*
X82978979Y-126236412D01*
X83013087Y-126363708D01*
X83046033Y-126420771D01*
X83078979Y-126477835D01*
X83172165Y-126571021D01*
X83286293Y-126636913D01*
X83413587Y-126671021D01*
X83413589Y-126671021D01*
X83545369Y-126671021D01*
X83545371Y-126671021D01*
X83672665Y-126636913D01*
X83786793Y-126571021D01*
X83879979Y-126477835D01*
X83945871Y-126363707D01*
X83979979Y-126236413D01*
X83979979Y-126193979D01*
X83999664Y-126126940D01*
X84052468Y-126081185D01*
X84103979Y-126069979D01*
X84146411Y-126069979D01*
X84146413Y-126069979D01*
X84273707Y-126035871D01*
X84387835Y-125969979D01*
X84481021Y-125876793D01*
X84546913Y-125762665D01*
X84581021Y-125635371D01*
X84581021Y-125503587D01*
X84546913Y-125376293D01*
X84481021Y-125262165D01*
X84387835Y-125168979D01*
X84330771Y-125136033D01*
X84273708Y-125103087D01*
X84210060Y-125086033D01*
X84146413Y-125068979D01*
X84014629Y-125068979D01*
X83887333Y-125103087D01*
X83773207Y-125168979D01*
X83773204Y-125168981D01*
X83680023Y-125262162D01*
X83680021Y-125262165D01*
X83614129Y-125376291D01*
X83580021Y-125503587D01*
X83580021Y-125546021D01*
X83560336Y-125613060D01*
X83507532Y-125658815D01*
X83456021Y-125670021D01*
X83413587Y-125670021D01*
X83286291Y-125704129D01*
X83172165Y-125770021D01*
X83172162Y-125770023D01*
X83078981Y-125863204D01*
X83078979Y-125863207D01*
X83013087Y-125977333D01*
X82978979Y-126104629D01*
X30860500Y-126104629D01*
X30860500Y-124764629D01*
X78008979Y-124764629D01*
X78008979Y-124896412D01*
X78043087Y-125023708D01*
X78069225Y-125068979D01*
X78108979Y-125137835D01*
X78202165Y-125231021D01*
X78316293Y-125296913D01*
X78443587Y-125331021D01*
X78443589Y-125331021D01*
X78575369Y-125331021D01*
X78575371Y-125331021D01*
X78702665Y-125296913D01*
X78816793Y-125231021D01*
X78909979Y-125137835D01*
X78975871Y-125023707D01*
X79009979Y-124896413D01*
X79009979Y-124853979D01*
X79029664Y-124786940D01*
X79082468Y-124741185D01*
X79133979Y-124729979D01*
X79176411Y-124729979D01*
X79176413Y-124729979D01*
X79303707Y-124695871D01*
X79417835Y-124629979D01*
X79511021Y-124536793D01*
X79576913Y-124422665D01*
X79611021Y-124295371D01*
X79611021Y-124163587D01*
X79576913Y-124036293D01*
X79511021Y-123922165D01*
X79417835Y-123828979D01*
X79360771Y-123796033D01*
X79303708Y-123763087D01*
X79240060Y-123746033D01*
X79176413Y-123728979D01*
X79044629Y-123728979D01*
X78917333Y-123763087D01*
X78803207Y-123828979D01*
X78803204Y-123828981D01*
X78710023Y-123922162D01*
X78710021Y-123922165D01*
X78644129Y-124036291D01*
X78610021Y-124163587D01*
X78610021Y-124206021D01*
X78590336Y-124273060D01*
X78537532Y-124318815D01*
X78486021Y-124330021D01*
X78443587Y-124330021D01*
X78316291Y-124364129D01*
X78202165Y-124430021D01*
X78202162Y-124430023D01*
X78108981Y-124523204D01*
X78108979Y-124523207D01*
X78043087Y-124637333D01*
X78008979Y-124764629D01*
X30860500Y-124764629D01*
X30860500Y-122634108D01*
X71134500Y-122634108D01*
X71134500Y-122765891D01*
X71168608Y-122893187D01*
X71201554Y-122950250D01*
X71234500Y-123007314D01*
X71327686Y-123100500D01*
X71441814Y-123166392D01*
X71569108Y-123200500D01*
X71569110Y-123200500D01*
X71700890Y-123200500D01*
X71700892Y-123200500D01*
X71828186Y-123166392D01*
X71942314Y-123100500D01*
X71972319Y-123070495D01*
X72033642Y-123037010D01*
X72103334Y-123041994D01*
X72147681Y-123070495D01*
X72177686Y-123100500D01*
X72291814Y-123166392D01*
X72419108Y-123200500D01*
X72419110Y-123200500D01*
X72550890Y-123200500D01*
X72550892Y-123200500D01*
X72678186Y-123166392D01*
X72792314Y-123100500D01*
X72808706Y-123084108D01*
X77769500Y-123084108D01*
X77769500Y-123215891D01*
X77803608Y-123343187D01*
X77836554Y-123400250D01*
X77869500Y-123457314D01*
X77962686Y-123550500D01*
X78076814Y-123616392D01*
X78204108Y-123650500D01*
X78204110Y-123650500D01*
X78335890Y-123650500D01*
X78335892Y-123650500D01*
X78463186Y-123616392D01*
X78577314Y-123550500D01*
X78670500Y-123457314D01*
X78736392Y-123343186D01*
X78770500Y-123215892D01*
X78770500Y-123084108D01*
X78736392Y-122956814D01*
X78670500Y-122842686D01*
X78577314Y-122749500D01*
X78520250Y-122716554D01*
X78463187Y-122683608D01*
X78399539Y-122666554D01*
X78335892Y-122649500D01*
X78204108Y-122649500D01*
X78076812Y-122683608D01*
X77962686Y-122749500D01*
X77962683Y-122749502D01*
X77869502Y-122842683D01*
X77869500Y-122842686D01*
X77803608Y-122956812D01*
X77769500Y-123084108D01*
X72808706Y-123084108D01*
X72885500Y-123007314D01*
X72951392Y-122893186D01*
X72985500Y-122765892D01*
X72985500Y-122634108D01*
X72951392Y-122506814D01*
X72885500Y-122392686D01*
X72792314Y-122299500D01*
X72735250Y-122266554D01*
X72678187Y-122233608D01*
X72614539Y-122216554D01*
X72550892Y-122199500D01*
X72419108Y-122199500D01*
X72291812Y-122233608D01*
X72177686Y-122299500D01*
X72177683Y-122299502D01*
X72147681Y-122329505D01*
X72086358Y-122362990D01*
X72016666Y-122358006D01*
X71972319Y-122329505D01*
X71942316Y-122299502D01*
X71942314Y-122299500D01*
X71885250Y-122266554D01*
X71828187Y-122233608D01*
X71764539Y-122216554D01*
X71700892Y-122199500D01*
X71569108Y-122199500D01*
X71441812Y-122233608D01*
X71327686Y-122299500D01*
X71327683Y-122299502D01*
X71234502Y-122392683D01*
X71234500Y-122392686D01*
X71168608Y-122506812D01*
X71134500Y-122634108D01*
X30860500Y-122634108D01*
X30860500Y-121704108D01*
X117259500Y-121704108D01*
X117259500Y-121835891D01*
X117293608Y-121963187D01*
X117326554Y-122020250D01*
X117359500Y-122077314D01*
X117452686Y-122170500D01*
X117566814Y-122236392D01*
X117694108Y-122270500D01*
X117694110Y-122270500D01*
X117825890Y-122270500D01*
X117825892Y-122270500D01*
X117953186Y-122236392D01*
X118067314Y-122170500D01*
X118160500Y-122077314D01*
X118226392Y-121963186D01*
X118260500Y-121835892D01*
X118260500Y-121704108D01*
X118226392Y-121576814D01*
X118160500Y-121462686D01*
X118067314Y-121369500D01*
X118004418Y-121333187D01*
X117953187Y-121303608D01*
X117889539Y-121286554D01*
X117825892Y-121269500D01*
X117694108Y-121269500D01*
X117566812Y-121303608D01*
X117452686Y-121369500D01*
X117452683Y-121369502D01*
X117359502Y-121462683D01*
X117359500Y-121462686D01*
X117293608Y-121576812D01*
X117259500Y-121704108D01*
X30860500Y-121704108D01*
X30860500Y-121054108D01*
X87839500Y-121054108D01*
X87839500Y-121185892D01*
X87844859Y-121205891D01*
X87873608Y-121313187D01*
X87906121Y-121369500D01*
X87939500Y-121427314D01*
X88032686Y-121520500D01*
X88146814Y-121586392D01*
X88274108Y-121620500D01*
X88274110Y-121620500D01*
X88405890Y-121620500D01*
X88405892Y-121620500D01*
X88533186Y-121586392D01*
X88647314Y-121520500D01*
X88740500Y-121427314D01*
X88806392Y-121313186D01*
X88840500Y-121185892D01*
X88840500Y-121054108D01*
X88806392Y-120926814D01*
X88740500Y-120812686D01*
X88647314Y-120719500D01*
X88580665Y-120681020D01*
X88533187Y-120653608D01*
X88437924Y-120628083D01*
X88405892Y-120619500D01*
X88274108Y-120619500D01*
X88146812Y-120653608D01*
X88032686Y-120719500D01*
X88032683Y-120719502D01*
X87939502Y-120812683D01*
X87939500Y-120812686D01*
X87873608Y-120926812D01*
X87868249Y-120946814D01*
X87839500Y-121054108D01*
X30860500Y-121054108D01*
X30860500Y-120214629D01*
X67468979Y-120214629D01*
X67468979Y-120346412D01*
X67503087Y-120473708D01*
X67503455Y-120474345D01*
X67568979Y-120587835D01*
X67662165Y-120681021D01*
X67776293Y-120746913D01*
X67903587Y-120781021D01*
X67903589Y-120781021D01*
X68035369Y-120781021D01*
X68035371Y-120781021D01*
X68162665Y-120746913D01*
X68276793Y-120681021D01*
X68369979Y-120587835D01*
X68435871Y-120473707D01*
X68469979Y-120346413D01*
X68469979Y-120303979D01*
X68489664Y-120236940D01*
X68542468Y-120191185D01*
X68593979Y-120179979D01*
X68636411Y-120179979D01*
X68636413Y-120179979D01*
X68763707Y-120145871D01*
X68877835Y-120079979D01*
X68971021Y-119986793D01*
X69036913Y-119872665D01*
X69071021Y-119745371D01*
X69071021Y-119744108D01*
X88789500Y-119744108D01*
X88789500Y-119875892D01*
X88790607Y-119880023D01*
X88823608Y-120003187D01*
X88823609Y-120003188D01*
X88889500Y-120117314D01*
X88982686Y-120210500D01*
X89096814Y-120276392D01*
X89224108Y-120310500D01*
X89224110Y-120310500D01*
X89355890Y-120310500D01*
X89355892Y-120310500D01*
X89483186Y-120276392D01*
X89597314Y-120210500D01*
X89690500Y-120117314D01*
X89703898Y-120094108D01*
X90539500Y-120094108D01*
X90539500Y-120225891D01*
X90573608Y-120353187D01*
X90606554Y-120410250D01*
X90639500Y-120467314D01*
X90732686Y-120560500D01*
X90846814Y-120626392D01*
X90974108Y-120660500D01*
X90974110Y-120660500D01*
X91105889Y-120660500D01*
X91105892Y-120660500D01*
X91226874Y-120628083D01*
X91296721Y-120629746D01*
X91354584Y-120668908D01*
X91382088Y-120733137D01*
X91370502Y-120802039D01*
X91353686Y-120825656D01*
X91354447Y-120826240D01*
X91349500Y-120832686D01*
X91283608Y-120946812D01*
X91249500Y-121074108D01*
X91249500Y-121205891D01*
X91283608Y-121333187D01*
X91304574Y-121369500D01*
X91349500Y-121447314D01*
X91442686Y-121540500D01*
X91522173Y-121586392D01*
X91556810Y-121606390D01*
X91556814Y-121606392D01*
X91684108Y-121640500D01*
X91684110Y-121640500D01*
X91815890Y-121640500D01*
X91815892Y-121640500D01*
X91943186Y-121606392D01*
X92057314Y-121540500D01*
X92150500Y-121447314D01*
X92216392Y-121333186D01*
X92250500Y-121205892D01*
X92250500Y-121074108D01*
X92216392Y-120946814D01*
X92150500Y-120832686D01*
X92057314Y-120739500D01*
X91956026Y-120681021D01*
X91943187Y-120673608D01*
X91868544Y-120653608D01*
X91815892Y-120639500D01*
X91684108Y-120639500D01*
X91563127Y-120671916D01*
X91493277Y-120670253D01*
X91435414Y-120631090D01*
X91407911Y-120566861D01*
X91419498Y-120497959D01*
X91436316Y-120474345D01*
X91435553Y-120473760D01*
X91440492Y-120467321D01*
X91440500Y-120467314D01*
X91506392Y-120353186D01*
X91540500Y-120225892D01*
X91540500Y-120094108D01*
X91506392Y-119966814D01*
X91440500Y-119852686D01*
X91347314Y-119759500D01*
X91284198Y-119723060D01*
X91233187Y-119693608D01*
X91169539Y-119676554D01*
X91105892Y-119659500D01*
X90974108Y-119659500D01*
X90846812Y-119693608D01*
X90732686Y-119759500D01*
X90732683Y-119759502D01*
X90639502Y-119852683D01*
X90639500Y-119852686D01*
X90573608Y-119966812D01*
X90539500Y-120094108D01*
X89703898Y-120094108D01*
X89756392Y-120003186D01*
X89790500Y-119875892D01*
X89790500Y-119744108D01*
X89756392Y-119616814D01*
X89690500Y-119502686D01*
X89597314Y-119409500D01*
X89532643Y-119372162D01*
X89483187Y-119343608D01*
X89419539Y-119326554D01*
X89355892Y-119309500D01*
X89224108Y-119309500D01*
X89096812Y-119343608D01*
X88982686Y-119409500D01*
X88982683Y-119409502D01*
X88889502Y-119502683D01*
X88889500Y-119502686D01*
X88823608Y-119616812D01*
X88812170Y-119659500D01*
X88789500Y-119744108D01*
X69071021Y-119744108D01*
X69071021Y-119613587D01*
X69036913Y-119486293D01*
X68971021Y-119372165D01*
X68877835Y-119278979D01*
X68820771Y-119246033D01*
X68763708Y-119213087D01*
X68700060Y-119196033D01*
X68636413Y-119178979D01*
X68504629Y-119178979D01*
X68377333Y-119213087D01*
X68263207Y-119278979D01*
X68263204Y-119278981D01*
X68170023Y-119372162D01*
X68170021Y-119372165D01*
X68104129Y-119486291D01*
X68070021Y-119613587D01*
X68070021Y-119656021D01*
X68050336Y-119723060D01*
X67997532Y-119768815D01*
X67946021Y-119780021D01*
X67903587Y-119780021D01*
X67776291Y-119814129D01*
X67662165Y-119880021D01*
X67662162Y-119880023D01*
X67568981Y-119973204D01*
X67568979Y-119973207D01*
X67503087Y-120087333D01*
X67468979Y-120214629D01*
X30860500Y-120214629D01*
X30860500Y-118144108D01*
X89599500Y-118144108D01*
X89599500Y-118275891D01*
X89633608Y-118403187D01*
X89666554Y-118460250D01*
X89699500Y-118517314D01*
X89792686Y-118610500D01*
X89906814Y-118676392D01*
X90034108Y-118710500D01*
X90034110Y-118710500D01*
X90165890Y-118710500D01*
X90165892Y-118710500D01*
X90293186Y-118676392D01*
X90407314Y-118610500D01*
X90483706Y-118534108D01*
X120229500Y-118534108D01*
X120229500Y-118665892D01*
X120241452Y-118710499D01*
X120263608Y-118793187D01*
X120296554Y-118850250D01*
X120329500Y-118907314D01*
X120422686Y-119000500D01*
X120536814Y-119066392D01*
X120664108Y-119100500D01*
X120664110Y-119100500D01*
X120795890Y-119100500D01*
X120795892Y-119100500D01*
X120923186Y-119066392D01*
X121037314Y-119000500D01*
X121130500Y-118907314D01*
X121196392Y-118793186D01*
X121230500Y-118665892D01*
X121230500Y-118534108D01*
X121196392Y-118406814D01*
X121130500Y-118292686D01*
X121037314Y-118199500D01*
X120980250Y-118166554D01*
X120923187Y-118133608D01*
X120859539Y-118116554D01*
X120795892Y-118099500D01*
X120664108Y-118099500D01*
X120536812Y-118133608D01*
X120422686Y-118199500D01*
X120422683Y-118199502D01*
X120329502Y-118292683D01*
X120329500Y-118292686D01*
X120263608Y-118406812D01*
X120248290Y-118463981D01*
X120229500Y-118534108D01*
X90483706Y-118534108D01*
X90500500Y-118517314D01*
X90566392Y-118403186D01*
X90600500Y-118275892D01*
X90600500Y-118144108D01*
X90566392Y-118016814D01*
X90500500Y-117902686D01*
X90407314Y-117809500D01*
X90350250Y-117776554D01*
X90293187Y-117743608D01*
X90229539Y-117726554D01*
X90165892Y-117709500D01*
X90034108Y-117709500D01*
X89906812Y-117743608D01*
X89792686Y-117809500D01*
X89792683Y-117809502D01*
X89699502Y-117902683D01*
X89699500Y-117902686D01*
X89633608Y-118016812D01*
X89599500Y-118144108D01*
X30860500Y-118144108D01*
X30860500Y-114303587D01*
X72338979Y-114303587D01*
X72338979Y-114435371D01*
X72356033Y-114499018D01*
X72373087Y-114562666D01*
X72406033Y-114619729D01*
X72438979Y-114676793D01*
X72532165Y-114769979D01*
X72646293Y-114835871D01*
X72773587Y-114869979D01*
X72773589Y-114869979D01*
X72816021Y-114869979D01*
X72883060Y-114889664D01*
X72928815Y-114942468D01*
X72940021Y-114993979D01*
X72940021Y-115036413D01*
X72941116Y-115040499D01*
X72974129Y-115163708D01*
X73007075Y-115220771D01*
X73040021Y-115277835D01*
X73133207Y-115371021D01*
X73247335Y-115436913D01*
X73374629Y-115471021D01*
X73374631Y-115471021D01*
X73506411Y-115471021D01*
X73506413Y-115471021D01*
X73633707Y-115436913D01*
X73747835Y-115371021D01*
X73841021Y-115277835D01*
X73906913Y-115163707D01*
X73941021Y-115036413D01*
X73941021Y-114904629D01*
X73906913Y-114777335D01*
X73902665Y-114769978D01*
X73865665Y-114705892D01*
X73841021Y-114663207D01*
X73751922Y-114574108D01*
X131119500Y-114574108D01*
X131119500Y-114705891D01*
X131153608Y-114833187D01*
X131186216Y-114889664D01*
X131219500Y-114947314D01*
X131312686Y-115040500D01*
X131426814Y-115106392D01*
X131554108Y-115140500D01*
X131554110Y-115140500D01*
X131685890Y-115140500D01*
X131685892Y-115140500D01*
X131813186Y-115106392D01*
X131927314Y-115040500D01*
X132020500Y-114947314D01*
X132086392Y-114833186D01*
X132120500Y-114705892D01*
X132120500Y-114574108D01*
X132086392Y-114446814D01*
X132020500Y-114332686D01*
X131927314Y-114239500D01*
X131817837Y-114176293D01*
X131813187Y-114173608D01*
X131749539Y-114156554D01*
X131685892Y-114139500D01*
X131554108Y-114139500D01*
X131426812Y-114173608D01*
X131312686Y-114239500D01*
X131312683Y-114239502D01*
X131219502Y-114332683D01*
X131219500Y-114332686D01*
X131153608Y-114446812D01*
X131119500Y-114574108D01*
X73751922Y-114574108D01*
X73747835Y-114570021D01*
X73690771Y-114537075D01*
X73633708Y-114504129D01*
X73553743Y-114482703D01*
X73506413Y-114470021D01*
X73463979Y-114470021D01*
X73396940Y-114450336D01*
X73351185Y-114397532D01*
X73339979Y-114346021D01*
X73339979Y-114303589D01*
X73339979Y-114303587D01*
X73305871Y-114176293D01*
X73239979Y-114062165D01*
X73146793Y-113968979D01*
X73089729Y-113936033D01*
X73032666Y-113903087D01*
X72969018Y-113886033D01*
X72905371Y-113868979D01*
X72773587Y-113868979D01*
X72646291Y-113903087D01*
X72532165Y-113968979D01*
X72532162Y-113968981D01*
X72438981Y-114062162D01*
X72438979Y-114062165D01*
X72373087Y-114176291D01*
X72356151Y-114239500D01*
X72338979Y-114303587D01*
X30860500Y-114303587D01*
X30860500Y-113204108D01*
X106929500Y-113204108D01*
X106929500Y-113335892D01*
X106946554Y-113399539D01*
X106963608Y-113463187D01*
X106996554Y-113520250D01*
X107029500Y-113577314D01*
X107122686Y-113670500D01*
X107236814Y-113736392D01*
X107364108Y-113770500D01*
X107364110Y-113770500D01*
X107495890Y-113770500D01*
X107495892Y-113770500D01*
X107623186Y-113736392D01*
X107737314Y-113670500D01*
X107830500Y-113577314D01*
X107896392Y-113463186D01*
X107930500Y-113335892D01*
X107930500Y-113204108D01*
X107896392Y-113076814D01*
X107830500Y-112962686D01*
X107737314Y-112869500D01*
X107659287Y-112824451D01*
X107623187Y-112803608D01*
X107548955Y-112783718D01*
X107495892Y-112769500D01*
X107364108Y-112769500D01*
X107236812Y-112803608D01*
X107122686Y-112869500D01*
X107122683Y-112869502D01*
X107029502Y-112962683D01*
X107029500Y-112962686D01*
X106963608Y-113076812D01*
X106942524Y-113155500D01*
X106929500Y-113204108D01*
X30860500Y-113204108D01*
X30860500Y-111624108D01*
X41549500Y-111624108D01*
X41549500Y-111755892D01*
X41556734Y-111782889D01*
X41583608Y-111883187D01*
X41603539Y-111917708D01*
X41649500Y-111997314D01*
X41742686Y-112090500D01*
X41856814Y-112156392D01*
X41984108Y-112190500D01*
X41984110Y-112190500D01*
X42115890Y-112190500D01*
X42115892Y-112190500D01*
X42243186Y-112156392D01*
X42357314Y-112090500D01*
X42418822Y-112028992D01*
X115704500Y-112028992D01*
X115704500Y-112231007D01*
X115743907Y-112429119D01*
X115743909Y-112429127D01*
X115821212Y-112615752D01*
X115821217Y-112615762D01*
X115933441Y-112783718D01*
X116076281Y-112926558D01*
X116244237Y-113038782D01*
X116244241Y-113038784D01*
X116244244Y-113038786D01*
X116430873Y-113116091D01*
X116628992Y-113155499D01*
X116628996Y-113155500D01*
X116628997Y-113155500D01*
X116831004Y-113155500D01*
X116831005Y-113155499D01*
X117029127Y-113116091D01*
X117215756Y-113038786D01*
X117383718Y-112926558D01*
X117526558Y-112783718D01*
X117638786Y-112615756D01*
X117716091Y-112429127D01*
X117725242Y-112383117D01*
X117757625Y-112321210D01*
X117818340Y-112286634D01*
X117888110Y-112290372D01*
X117944782Y-112331238D01*
X117969332Y-112387910D01*
X117977626Y-112440274D01*
X118042075Y-112638627D01*
X118136759Y-112824451D01*
X118172627Y-112873818D01*
X118172627Y-112873819D01*
X118746212Y-112300234D01*
X118757482Y-112342292D01*
X118829890Y-112467708D01*
X118932292Y-112570110D01*
X119057708Y-112642518D01*
X119099765Y-112653787D01*
X118526179Y-113227371D01*
X118526180Y-113227372D01*
X118575543Y-113263236D01*
X118575556Y-113263244D01*
X118761372Y-113357924D01*
X118959727Y-113422373D01*
X119165721Y-113455000D01*
X119374279Y-113455000D01*
X119580272Y-113422373D01*
X119778627Y-113357924D01*
X119964451Y-113263240D01*
X120013818Y-113227372D01*
X120013818Y-113227371D01*
X119790555Y-113004108D01*
X131029500Y-113004108D01*
X131029500Y-113135891D01*
X131063608Y-113263187D01*
X131063639Y-113263240D01*
X131129500Y-113377314D01*
X131222686Y-113470500D01*
X131336814Y-113536392D01*
X131464108Y-113570500D01*
X131464110Y-113570500D01*
X131595890Y-113570500D01*
X131595892Y-113570500D01*
X131723186Y-113536392D01*
X131837314Y-113470500D01*
X131930500Y-113377314D01*
X131996392Y-113263186D01*
X132030500Y-113135892D01*
X132030500Y-113004108D01*
X131996392Y-112876814D01*
X131930500Y-112762686D01*
X131837314Y-112669500D01*
X131780250Y-112636554D01*
X131723187Y-112603608D01*
X131659539Y-112586554D01*
X131595892Y-112569500D01*
X131464108Y-112569500D01*
X131336812Y-112603608D01*
X131222686Y-112669500D01*
X131222683Y-112669502D01*
X131129502Y-112762683D01*
X131129500Y-112762686D01*
X131063608Y-112876812D01*
X131029500Y-113004108D01*
X119790555Y-113004108D01*
X119440234Y-112653787D01*
X119482292Y-112642518D01*
X119607708Y-112570110D01*
X119710110Y-112467708D01*
X119782518Y-112342292D01*
X119793787Y-112300234D01*
X120367371Y-112873818D01*
X120367372Y-112873818D01*
X120403240Y-112824451D01*
X120497924Y-112638627D01*
X120562373Y-112440272D01*
X120595000Y-112234279D01*
X120595000Y-112025720D01*
X120562373Y-111819727D01*
X120497924Y-111621372D01*
X120403244Y-111435556D01*
X120403236Y-111435543D01*
X120367372Y-111386180D01*
X120367371Y-111386179D01*
X119793787Y-111959764D01*
X119782518Y-111917708D01*
X119710110Y-111792292D01*
X119607708Y-111689890D01*
X119482292Y-111617482D01*
X119440233Y-111606212D01*
X120013819Y-111032627D01*
X119964451Y-110996759D01*
X119778627Y-110902075D01*
X119580274Y-110837626D01*
X119527910Y-110829332D01*
X119464776Y-110799402D01*
X119427846Y-110740090D01*
X119428844Y-110670227D01*
X119467455Y-110611995D01*
X119523117Y-110585242D01*
X119569127Y-110576091D01*
X119755756Y-110498786D01*
X119923718Y-110386558D01*
X120066558Y-110243718D01*
X120178786Y-110075756D01*
X120256091Y-109889127D01*
X120295500Y-109691003D01*
X120295500Y-109488997D01*
X120256091Y-109290873D01*
X120178786Y-109104244D01*
X120178784Y-109104241D01*
X120178782Y-109104237D01*
X120066558Y-108936281D01*
X119923718Y-108793441D01*
X119755762Y-108681217D01*
X119755752Y-108681212D01*
X119569127Y-108603909D01*
X119569119Y-108603907D01*
X119371007Y-108564500D01*
X119371003Y-108564500D01*
X119168997Y-108564500D01*
X119168992Y-108564500D01*
X118970880Y-108603907D01*
X118970872Y-108603909D01*
X118784247Y-108681212D01*
X118784237Y-108681217D01*
X118616281Y-108793441D01*
X118473441Y-108936281D01*
X118361217Y-109104237D01*
X118361212Y-109104247D01*
X118283909Y-109290872D01*
X118283907Y-109290880D01*
X118244500Y-109488992D01*
X118244500Y-109691007D01*
X118283907Y-109889119D01*
X118283909Y-109889127D01*
X118361212Y-110075752D01*
X118361217Y-110075762D01*
X118473441Y-110243718D01*
X118616281Y-110386558D01*
X118784237Y-110498782D01*
X118784241Y-110498784D01*
X118784244Y-110498786D01*
X118970873Y-110576091D01*
X119016880Y-110585242D01*
X119078790Y-110617625D01*
X119113365Y-110678340D01*
X119109626Y-110748110D01*
X119068761Y-110804783D01*
X119012089Y-110829332D01*
X118959725Y-110837626D01*
X118761372Y-110902075D01*
X118575552Y-110996757D01*
X118526180Y-111032627D01*
X119099766Y-111606212D01*
X119057708Y-111617482D01*
X118932292Y-111689890D01*
X118829890Y-111792292D01*
X118757482Y-111917708D01*
X118746212Y-111959765D01*
X118172627Y-111386180D01*
X118136757Y-111435552D01*
X118042075Y-111621372D01*
X117977626Y-111819725D01*
X117969332Y-111872089D01*
X117939401Y-111935223D01*
X117880089Y-111972153D01*
X117810227Y-111971155D01*
X117751995Y-111932544D01*
X117725242Y-111876881D01*
X117716091Y-111830873D01*
X117638786Y-111644244D01*
X117638784Y-111644241D01*
X117638782Y-111644237D01*
X117526558Y-111476281D01*
X117383718Y-111333441D01*
X117215762Y-111221217D01*
X117215752Y-111221212D01*
X117029127Y-111143909D01*
X117029119Y-111143907D01*
X116831007Y-111104500D01*
X116831003Y-111104500D01*
X116628997Y-111104500D01*
X116628992Y-111104500D01*
X116430880Y-111143907D01*
X116430872Y-111143909D01*
X116244247Y-111221212D01*
X116244237Y-111221217D01*
X116076281Y-111333441D01*
X115933441Y-111476281D01*
X115821217Y-111644237D01*
X115821212Y-111644247D01*
X115743909Y-111830872D01*
X115743907Y-111830880D01*
X115704500Y-112028992D01*
X42418822Y-112028992D01*
X42450500Y-111997314D01*
X42516392Y-111883186D01*
X42550500Y-111755892D01*
X42550500Y-111624108D01*
X42516392Y-111496814D01*
X42450500Y-111382686D01*
X42357314Y-111289500D01*
X42300250Y-111256554D01*
X42243187Y-111223608D01*
X42179539Y-111206554D01*
X42115892Y-111189500D01*
X41984108Y-111189500D01*
X41856812Y-111223608D01*
X41742686Y-111289500D01*
X41742683Y-111289502D01*
X41649502Y-111382683D01*
X41649500Y-111382686D01*
X41583608Y-111496812D01*
X41553100Y-111610673D01*
X41549500Y-111624108D01*
X30860500Y-111624108D01*
X30860500Y-110374108D01*
X77869500Y-110374108D01*
X77869500Y-110505892D01*
X77884060Y-110560232D01*
X77903608Y-110633187D01*
X77929678Y-110678340D01*
X77969500Y-110747314D01*
X78062686Y-110840500D01*
X78176814Y-110906392D01*
X78304108Y-110940500D01*
X78304110Y-110940500D01*
X78435890Y-110940500D01*
X78435892Y-110940500D01*
X78563186Y-110906392D01*
X78677314Y-110840500D01*
X78770500Y-110747314D01*
X78836392Y-110633186D01*
X78870500Y-110505892D01*
X78870500Y-110374108D01*
X78836392Y-110246814D01*
X78770500Y-110132686D01*
X78677314Y-110039500D01*
X78604875Y-109997677D01*
X78563187Y-109973608D01*
X78464401Y-109947139D01*
X78435892Y-109939500D01*
X78304108Y-109939500D01*
X78176812Y-109973608D01*
X78062686Y-110039500D01*
X78062683Y-110039502D01*
X77969502Y-110132683D01*
X77969500Y-110132686D01*
X77903608Y-110246812D01*
X77884965Y-110316390D01*
X77869500Y-110374108D01*
X30860500Y-110374108D01*
X30860500Y-109784108D01*
X58209500Y-109784108D01*
X58209500Y-109915891D01*
X58243608Y-110043187D01*
X58253604Y-110060500D01*
X58309500Y-110157314D01*
X58402686Y-110250500D01*
X58487210Y-110299300D01*
X58516810Y-110316390D01*
X58516814Y-110316392D01*
X58644108Y-110350500D01*
X58644110Y-110350500D01*
X58775890Y-110350500D01*
X58775892Y-110350500D01*
X58903186Y-110316392D01*
X59017314Y-110250500D01*
X59110500Y-110157314D01*
X59176392Y-110043186D01*
X59210500Y-109915892D01*
X59210500Y-109784108D01*
X59176392Y-109656814D01*
X59140189Y-109594108D01*
X84319500Y-109594108D01*
X84319500Y-109725891D01*
X84353608Y-109853187D01*
X84384959Y-109907488D01*
X84419500Y-109967314D01*
X84512686Y-110060500D01*
X84626814Y-110126392D01*
X84754108Y-110160500D01*
X84754110Y-110160500D01*
X84885890Y-110160500D01*
X84885892Y-110160500D01*
X85013186Y-110126392D01*
X85127314Y-110060500D01*
X85220500Y-109967314D01*
X85286392Y-109853186D01*
X85320500Y-109725892D01*
X85320500Y-109594108D01*
X85292335Y-109488992D01*
X115704500Y-109488992D01*
X115704500Y-109691007D01*
X115743907Y-109889119D01*
X115743909Y-109889127D01*
X115821212Y-110075752D01*
X115821217Y-110075762D01*
X115933441Y-110243718D01*
X116076281Y-110386558D01*
X116244237Y-110498782D01*
X116244241Y-110498784D01*
X116244244Y-110498786D01*
X116430873Y-110576091D01*
X116611376Y-110611995D01*
X116628992Y-110615499D01*
X116628996Y-110615500D01*
X116628997Y-110615500D01*
X116831004Y-110615500D01*
X116831005Y-110615499D01*
X117029127Y-110576091D01*
X117215756Y-110498786D01*
X117383718Y-110386558D01*
X117526558Y-110243718D01*
X117638786Y-110075756D01*
X117716091Y-109889127D01*
X117755500Y-109691003D01*
X117755500Y-109488997D01*
X117716091Y-109290873D01*
X117638786Y-109104244D01*
X117638784Y-109104241D01*
X117638782Y-109104237D01*
X117526558Y-108936281D01*
X117383718Y-108793441D01*
X117215762Y-108681217D01*
X117215752Y-108681212D01*
X117029127Y-108603909D01*
X117029119Y-108603907D01*
X116831007Y-108564500D01*
X116831003Y-108564500D01*
X116628997Y-108564500D01*
X116628992Y-108564500D01*
X116430880Y-108603907D01*
X116430872Y-108603909D01*
X116244247Y-108681212D01*
X116244237Y-108681217D01*
X116076281Y-108793441D01*
X115933441Y-108936281D01*
X115821217Y-109104237D01*
X115821212Y-109104247D01*
X115743909Y-109290872D01*
X115743907Y-109290880D01*
X115704500Y-109488992D01*
X85292335Y-109488992D01*
X85286392Y-109466814D01*
X85220500Y-109352686D01*
X85127314Y-109259500D01*
X85070250Y-109226554D01*
X85013187Y-109193608D01*
X84941127Y-109174300D01*
X84885892Y-109159500D01*
X84754108Y-109159500D01*
X84626812Y-109193608D01*
X84512686Y-109259500D01*
X84512683Y-109259502D01*
X84419502Y-109352683D01*
X84419500Y-109352686D01*
X84353608Y-109466812D01*
X84319500Y-109594108D01*
X59140189Y-109594108D01*
X59110500Y-109542686D01*
X59017314Y-109449500D01*
X58960250Y-109416554D01*
X58903187Y-109383608D01*
X58787782Y-109352686D01*
X58775892Y-109349500D01*
X58644108Y-109349500D01*
X58516812Y-109383608D01*
X58402686Y-109449500D01*
X58402683Y-109449502D01*
X58309502Y-109542683D01*
X58309500Y-109542686D01*
X58243608Y-109656812D01*
X58209500Y-109784108D01*
X30860500Y-109784108D01*
X30860500Y-108444108D01*
X164709500Y-108444108D01*
X164709500Y-108575891D01*
X164743608Y-108703187D01*
X164776554Y-108760250D01*
X164809500Y-108817314D01*
X164902686Y-108910500D01*
X165016814Y-108976392D01*
X165144108Y-109010500D01*
X165144110Y-109010500D01*
X165275890Y-109010500D01*
X165275892Y-109010500D01*
X165403186Y-108976392D01*
X165517314Y-108910500D01*
X165610500Y-108817314D01*
X165676392Y-108703186D01*
X165710500Y-108575892D01*
X165710500Y-108444108D01*
X165676392Y-108316814D01*
X165610500Y-108202686D01*
X165517314Y-108109500D01*
X165458423Y-108075499D01*
X165403187Y-108043608D01*
X165339539Y-108026554D01*
X165275892Y-108009500D01*
X165144108Y-108009500D01*
X165016812Y-108043608D01*
X164902686Y-108109500D01*
X164902683Y-108109502D01*
X164809502Y-108202683D01*
X164809500Y-108202686D01*
X164743608Y-108316812D01*
X164709500Y-108444108D01*
X30860500Y-108444108D01*
X30860500Y-107484108D01*
X88399500Y-107484108D01*
X88399500Y-107615891D01*
X88433608Y-107743187D01*
X88466554Y-107800250D01*
X88499500Y-107857314D01*
X88592686Y-107950500D01*
X88706814Y-108016392D01*
X88834108Y-108050500D01*
X88834110Y-108050500D01*
X88965890Y-108050500D01*
X88965892Y-108050500D01*
X89093186Y-108016392D01*
X89207314Y-107950500D01*
X89300500Y-107857314D01*
X89366392Y-107743186D01*
X89400500Y-107615892D01*
X89400500Y-107484108D01*
X89366392Y-107356814D01*
X89300500Y-107242686D01*
X89207314Y-107149500D01*
X89150250Y-107116554D01*
X89093187Y-107083608D01*
X89052026Y-107072579D01*
X88965892Y-107049500D01*
X88834108Y-107049500D01*
X88706812Y-107083608D01*
X88592686Y-107149500D01*
X88592683Y-107149502D01*
X88499502Y-107242683D01*
X88499500Y-107242686D01*
X88433608Y-107356812D01*
X88399500Y-107484108D01*
X30860500Y-107484108D01*
X30860500Y-106694108D01*
X47999500Y-106694108D01*
X47999500Y-106825891D01*
X48033608Y-106953187D01*
X48066554Y-107010250D01*
X48099500Y-107067314D01*
X48192686Y-107160500D01*
X48306814Y-107226392D01*
X48434108Y-107260500D01*
X48434110Y-107260500D01*
X48565890Y-107260500D01*
X48565892Y-107260500D01*
X48693186Y-107226392D01*
X48807314Y-107160500D01*
X48900500Y-107067314D01*
X48966392Y-106953186D01*
X48967516Y-106948992D01*
X115704500Y-106948992D01*
X115704500Y-107151007D01*
X115743907Y-107349119D01*
X115743909Y-107349127D01*
X115821212Y-107535752D01*
X115821217Y-107535762D01*
X115933441Y-107703718D01*
X116076281Y-107846558D01*
X116244237Y-107958782D01*
X116244241Y-107958784D01*
X116244244Y-107958786D01*
X116430873Y-108036091D01*
X116628992Y-108075499D01*
X116628996Y-108075500D01*
X116628997Y-108075500D01*
X116831004Y-108075500D01*
X116831005Y-108075499D01*
X117029127Y-108036091D01*
X117215756Y-107958786D01*
X117383718Y-107846558D01*
X117526558Y-107703718D01*
X117638786Y-107535756D01*
X117716091Y-107349127D01*
X117755500Y-107151003D01*
X117755500Y-106948997D01*
X117755499Y-106948992D01*
X118244500Y-106948992D01*
X118244500Y-107151007D01*
X118283907Y-107349119D01*
X118283909Y-107349127D01*
X118361212Y-107535752D01*
X118361217Y-107535762D01*
X118473441Y-107703718D01*
X118616281Y-107846558D01*
X118784237Y-107958782D01*
X118784241Y-107958784D01*
X118784244Y-107958786D01*
X118970873Y-108036091D01*
X119168992Y-108075499D01*
X119168996Y-108075500D01*
X119168997Y-108075500D01*
X119371004Y-108075500D01*
X119371005Y-108075499D01*
X119569127Y-108036091D01*
X119755756Y-107958786D01*
X119923718Y-107846558D01*
X120066558Y-107703718D01*
X120178786Y-107535756D01*
X120256091Y-107349127D01*
X120295500Y-107151003D01*
X120295500Y-106948997D01*
X120256091Y-106750873D01*
X120178786Y-106564244D01*
X120178784Y-106564241D01*
X120178782Y-106564237D01*
X120066558Y-106396281D01*
X119923718Y-106253441D01*
X119755762Y-106141217D01*
X119755752Y-106141212D01*
X119569127Y-106063909D01*
X119569119Y-106063907D01*
X119371007Y-106024500D01*
X119371003Y-106024500D01*
X119168997Y-106024500D01*
X119168992Y-106024500D01*
X118970880Y-106063907D01*
X118970872Y-106063909D01*
X118784247Y-106141212D01*
X118784237Y-106141217D01*
X118616281Y-106253441D01*
X118473441Y-106396281D01*
X118361217Y-106564237D01*
X118361212Y-106564247D01*
X118283909Y-106750872D01*
X118283907Y-106750880D01*
X118244500Y-106948992D01*
X117755499Y-106948992D01*
X117716091Y-106750873D01*
X117638786Y-106564244D01*
X117638784Y-106564241D01*
X117638782Y-106564237D01*
X117526558Y-106396281D01*
X117383718Y-106253441D01*
X117215762Y-106141217D01*
X117215752Y-106141212D01*
X117029127Y-106063909D01*
X117029119Y-106063907D01*
X116831007Y-106024500D01*
X116831003Y-106024500D01*
X116628997Y-106024500D01*
X116628992Y-106024500D01*
X116430880Y-106063907D01*
X116430872Y-106063909D01*
X116244247Y-106141212D01*
X116244237Y-106141217D01*
X116076281Y-106253441D01*
X115933441Y-106396281D01*
X115821217Y-106564237D01*
X115821212Y-106564247D01*
X115743909Y-106750872D01*
X115743907Y-106750880D01*
X115704500Y-106948992D01*
X48967516Y-106948992D01*
X49000500Y-106825892D01*
X49000500Y-106694108D01*
X48966392Y-106566814D01*
X48900500Y-106452686D01*
X48807314Y-106359500D01*
X48750250Y-106326554D01*
X48693187Y-106293608D01*
X48629539Y-106276554D01*
X48565892Y-106259500D01*
X48434108Y-106259500D01*
X48306812Y-106293608D01*
X48192686Y-106359500D01*
X48192683Y-106359502D01*
X48099502Y-106452683D01*
X48099500Y-106452686D01*
X48033608Y-106566812D01*
X47999500Y-106694108D01*
X30860500Y-106694108D01*
X30860500Y-105134108D01*
X40499500Y-105134108D01*
X40499500Y-105265892D01*
X40510396Y-105306558D01*
X40533608Y-105393187D01*
X40554875Y-105430021D01*
X40599500Y-105507314D01*
X40692686Y-105600500D01*
X40806814Y-105666392D01*
X40934108Y-105700500D01*
X40934110Y-105700500D01*
X41065890Y-105700500D01*
X41065892Y-105700500D01*
X41193186Y-105666392D01*
X41307314Y-105600500D01*
X41400500Y-105507314D01*
X41466392Y-105393186D01*
X41500500Y-105265892D01*
X41500500Y-105134108D01*
X41466392Y-105006814D01*
X41466390Y-105006810D01*
X41409331Y-104907981D01*
X41406185Y-104902533D01*
X41400500Y-104892686D01*
X41361922Y-104854108D01*
X47509500Y-104854108D01*
X47509500Y-104985892D01*
X47525472Y-105045500D01*
X47543608Y-105113187D01*
X47572783Y-105163718D01*
X47609500Y-105227314D01*
X47702686Y-105320500D01*
X47816814Y-105386392D01*
X47944108Y-105420500D01*
X47944110Y-105420500D01*
X48075890Y-105420500D01*
X48075892Y-105420500D01*
X48203186Y-105386392D01*
X48317314Y-105320500D01*
X48374227Y-105263587D01*
X80178979Y-105263587D01*
X80178979Y-105395371D01*
X80196033Y-105459018D01*
X80213087Y-105522666D01*
X80220497Y-105535500D01*
X80278979Y-105636793D01*
X80372165Y-105729979D01*
X80486293Y-105795871D01*
X80613587Y-105829979D01*
X80613589Y-105829979D01*
X80656021Y-105829979D01*
X80723060Y-105849664D01*
X80768815Y-105902468D01*
X80780021Y-105953979D01*
X80780021Y-105996412D01*
X80814129Y-106123708D01*
X80824238Y-106141217D01*
X80880021Y-106237835D01*
X80973207Y-106331021D01*
X81087335Y-106396913D01*
X81214629Y-106431021D01*
X81214631Y-106431021D01*
X81346411Y-106431021D01*
X81346413Y-106431021D01*
X81473707Y-106396913D01*
X81587835Y-106331021D01*
X81681021Y-106237835D01*
X81746913Y-106123707D01*
X81781021Y-105996413D01*
X81781021Y-105864629D01*
X81746913Y-105737335D01*
X81742665Y-105729978D01*
X81725646Y-105700500D01*
X81681021Y-105623207D01*
X81587835Y-105530021D01*
X81529065Y-105496090D01*
X81473708Y-105464129D01*
X81393743Y-105442703D01*
X81346413Y-105430021D01*
X81303979Y-105430021D01*
X81236940Y-105410336D01*
X81191185Y-105357532D01*
X81179979Y-105306021D01*
X81179979Y-105263589D01*
X81179979Y-105263587D01*
X81145871Y-105136293D01*
X81144609Y-105134108D01*
X81119432Y-105090500D01*
X81079979Y-105022165D01*
X80986793Y-104928979D01*
X80920144Y-104890499D01*
X80872666Y-104863087D01*
X80779732Y-104838186D01*
X80745371Y-104828979D01*
X80613587Y-104828979D01*
X80486291Y-104863087D01*
X80372165Y-104928979D01*
X80372162Y-104928981D01*
X80278981Y-105022162D01*
X80278979Y-105022165D01*
X80213087Y-105136291D01*
X80188698Y-105227313D01*
X80178979Y-105263587D01*
X48374227Y-105263587D01*
X48410500Y-105227314D01*
X48476392Y-105113186D01*
X48510500Y-104985892D01*
X48510500Y-104854108D01*
X48476392Y-104726814D01*
X48410500Y-104612686D01*
X48339995Y-104542181D01*
X48306510Y-104480858D01*
X48311494Y-104411166D01*
X48353366Y-104355233D01*
X48418830Y-104330816D01*
X48427676Y-104330500D01*
X48565890Y-104330500D01*
X48565892Y-104330500D01*
X48693186Y-104296392D01*
X48807314Y-104230500D01*
X48900500Y-104137314D01*
X48966392Y-104023186D01*
X49000500Y-103895892D01*
X49000500Y-103764108D01*
X48991122Y-103729108D01*
X84139500Y-103729108D01*
X84139500Y-103860891D01*
X84173608Y-103988187D01*
X84193815Y-104023186D01*
X84239500Y-104102314D01*
X84239502Y-104102316D01*
X84269505Y-104132319D01*
X84302990Y-104193642D01*
X84298006Y-104263334D01*
X84269505Y-104307681D01*
X84239502Y-104337683D01*
X84239500Y-104337686D01*
X84173608Y-104451812D01*
X84139500Y-104579108D01*
X84139500Y-104710891D01*
X84173608Y-104838187D01*
X84199298Y-104882683D01*
X84239500Y-104952314D01*
X84332686Y-105045500D01*
X84446814Y-105111392D01*
X84574108Y-105145500D01*
X84574110Y-105145500D01*
X84705890Y-105145500D01*
X84705892Y-105145500D01*
X84785729Y-105124108D01*
X106709500Y-105124108D01*
X106709500Y-105255892D01*
X106722932Y-105306021D01*
X106743608Y-105383187D01*
X106749382Y-105393187D01*
X106809500Y-105497314D01*
X106902686Y-105590500D01*
X107016814Y-105656392D01*
X107144108Y-105690500D01*
X107144110Y-105690500D01*
X107275890Y-105690500D01*
X107275892Y-105690500D01*
X107403186Y-105656392D01*
X107517314Y-105590500D01*
X107610500Y-105497314D01*
X107676392Y-105383186D01*
X107710500Y-105255892D01*
X107710500Y-105124108D01*
X107676392Y-104996814D01*
X107610500Y-104882686D01*
X107517314Y-104789500D01*
X107460250Y-104756554D01*
X107403187Y-104723608D01*
X107339539Y-104706554D01*
X107275892Y-104689500D01*
X107144108Y-104689500D01*
X107016812Y-104723608D01*
X106902686Y-104789500D01*
X106902683Y-104789502D01*
X106809502Y-104882683D01*
X106809500Y-104882686D01*
X106743608Y-104996812D01*
X106712426Y-105113187D01*
X106709500Y-105124108D01*
X84785729Y-105124108D01*
X84833186Y-105111392D01*
X84947314Y-105045500D01*
X85040500Y-104952314D01*
X85106392Y-104838186D01*
X85140500Y-104710892D01*
X85140500Y-104579108D01*
X85106392Y-104451814D01*
X85090396Y-104424108D01*
X95209500Y-104424108D01*
X95209500Y-104555891D01*
X95243608Y-104683187D01*
X95268797Y-104726814D01*
X95309500Y-104797314D01*
X95402686Y-104890500D01*
X95516814Y-104956392D01*
X95644108Y-104990500D01*
X95644110Y-104990500D01*
X95775890Y-104990500D01*
X95775892Y-104990500D01*
X95903186Y-104956392D01*
X96017314Y-104890500D01*
X96110500Y-104797314D01*
X96176392Y-104683186D01*
X96210500Y-104555892D01*
X96210500Y-104424108D01*
X96206450Y-104408992D01*
X115704500Y-104408992D01*
X115704500Y-104611007D01*
X115743907Y-104809119D01*
X115743909Y-104809127D01*
X115821212Y-104995752D01*
X115821217Y-104995762D01*
X115933441Y-105163718D01*
X116076281Y-105306558D01*
X116244237Y-105418782D01*
X116244241Y-105418784D01*
X116244244Y-105418786D01*
X116430873Y-105496091D01*
X116564471Y-105522665D01*
X116628992Y-105535499D01*
X116628996Y-105535500D01*
X116628997Y-105535500D01*
X116831004Y-105535500D01*
X116831005Y-105535499D01*
X117029127Y-105496091D01*
X117215756Y-105418786D01*
X117383718Y-105306558D01*
X117526558Y-105163718D01*
X117638786Y-104995756D01*
X117716091Y-104809127D01*
X117755500Y-104611003D01*
X117755500Y-104408997D01*
X117755499Y-104408992D01*
X118244500Y-104408992D01*
X118244500Y-104611007D01*
X118283907Y-104809119D01*
X118283909Y-104809127D01*
X118361212Y-104995752D01*
X118361217Y-104995762D01*
X118473441Y-105163718D01*
X118616281Y-105306558D01*
X118784237Y-105418782D01*
X118784241Y-105418784D01*
X118784244Y-105418786D01*
X118970873Y-105496091D01*
X119104471Y-105522665D01*
X119168992Y-105535499D01*
X119168996Y-105535500D01*
X119168997Y-105535500D01*
X119371004Y-105535500D01*
X119371005Y-105535499D01*
X119569127Y-105496091D01*
X119755756Y-105418786D01*
X119923718Y-105306558D01*
X120066558Y-105163718D01*
X120178786Y-104995756D01*
X120256091Y-104809127D01*
X120295500Y-104611003D01*
X120295500Y-104408997D01*
X120256091Y-104210873D01*
X120178786Y-104024244D01*
X120178784Y-104024241D01*
X120178782Y-104024237D01*
X120066558Y-103856281D01*
X119923718Y-103713441D01*
X119755762Y-103601217D01*
X119755752Y-103601212D01*
X119569127Y-103523909D01*
X119569119Y-103523907D01*
X119371007Y-103484500D01*
X119371003Y-103484500D01*
X119168997Y-103484500D01*
X119168992Y-103484500D01*
X118970880Y-103523907D01*
X118970872Y-103523909D01*
X118784247Y-103601212D01*
X118784237Y-103601217D01*
X118616281Y-103713441D01*
X118473441Y-103856281D01*
X118361217Y-104024237D01*
X118361212Y-104024247D01*
X118283909Y-104210872D01*
X118283907Y-104210880D01*
X118244500Y-104408992D01*
X117755499Y-104408992D01*
X117716091Y-104210873D01*
X117638786Y-104024244D01*
X117638784Y-104024241D01*
X117638782Y-104024237D01*
X117526558Y-103856281D01*
X117383718Y-103713441D01*
X117215762Y-103601217D01*
X117215752Y-103601212D01*
X117029127Y-103523909D01*
X117029119Y-103523907D01*
X116831007Y-103484500D01*
X116831003Y-103484500D01*
X116628997Y-103484500D01*
X116628992Y-103484500D01*
X116430880Y-103523907D01*
X116430872Y-103523909D01*
X116244247Y-103601212D01*
X116244237Y-103601217D01*
X116076281Y-103713441D01*
X115933441Y-103856281D01*
X115821217Y-104024237D01*
X115821212Y-104024247D01*
X115743909Y-104210872D01*
X115743907Y-104210880D01*
X115704500Y-104408992D01*
X96206450Y-104408992D01*
X96176392Y-104296814D01*
X96176148Y-104296392D01*
X96167563Y-104281521D01*
X96110500Y-104182686D01*
X96017314Y-104089500D01*
X95960250Y-104056554D01*
X95903187Y-104023608D01*
X95839539Y-104006554D01*
X95775892Y-103989500D01*
X95644108Y-103989500D01*
X95516812Y-104023608D01*
X95402686Y-104089500D01*
X95402683Y-104089502D01*
X95309502Y-104182683D01*
X95309500Y-104182686D01*
X95243608Y-104296812D01*
X95209500Y-104424108D01*
X85090396Y-104424108D01*
X85040500Y-104337686D01*
X85001231Y-104298417D01*
X84994112Y-104287430D01*
X84987729Y-104265988D01*
X84977010Y-104246358D01*
X84977954Y-104233152D01*
X84974177Y-104220464D01*
X84980398Y-104198978D01*
X84981994Y-104176666D01*
X84990848Y-104162888D01*
X84993610Y-104153352D01*
X85001282Y-104146652D01*
X85010495Y-104132319D01*
X85040500Y-104102314D01*
X85106392Y-103988186D01*
X85140500Y-103860892D01*
X85140500Y-103729108D01*
X85106392Y-103601814D01*
X85106044Y-103601212D01*
X85060707Y-103522686D01*
X85040500Y-103487686D01*
X84947314Y-103394500D01*
X84890250Y-103361554D01*
X84833187Y-103328608D01*
X84769539Y-103311554D01*
X84705892Y-103294500D01*
X84574108Y-103294500D01*
X84446812Y-103328608D01*
X84332686Y-103394500D01*
X84332683Y-103394502D01*
X84239502Y-103487683D01*
X84239500Y-103487686D01*
X84173608Y-103601812D01*
X84139500Y-103729108D01*
X48991122Y-103729108D01*
X48966392Y-103636814D01*
X48900500Y-103522686D01*
X48807314Y-103429500D01*
X48735756Y-103388186D01*
X48693187Y-103363608D01*
X48629539Y-103346554D01*
X48565892Y-103329500D01*
X48434108Y-103329500D01*
X48306812Y-103363608D01*
X48192686Y-103429500D01*
X48192683Y-103429502D01*
X48099502Y-103522683D01*
X48099500Y-103522686D01*
X48033608Y-103636812D01*
X47999500Y-103764108D01*
X47999500Y-103895891D01*
X48033608Y-104023187D01*
X48066554Y-104080250D01*
X48099500Y-104137314D01*
X48099502Y-104137316D01*
X48170005Y-104207819D01*
X48203490Y-104269142D01*
X48198506Y-104338834D01*
X48156634Y-104394767D01*
X48091170Y-104419184D01*
X48082324Y-104419500D01*
X47944108Y-104419500D01*
X47816812Y-104453608D01*
X47702686Y-104519500D01*
X47702683Y-104519502D01*
X47609502Y-104612683D01*
X47609500Y-104612686D01*
X47543608Y-104726812D01*
X47516233Y-104828979D01*
X47509500Y-104854108D01*
X41361922Y-104854108D01*
X41307314Y-104799500D01*
X41250250Y-104766554D01*
X41193187Y-104733608D01*
X41108400Y-104710890D01*
X41065892Y-104699500D01*
X40934108Y-104699500D01*
X40806812Y-104733608D01*
X40692686Y-104799500D01*
X40692683Y-104799502D01*
X40599502Y-104892683D01*
X40599500Y-104892686D01*
X40533608Y-105006812D01*
X40505587Y-105111391D01*
X40499500Y-105134108D01*
X30860500Y-105134108D01*
X30860500Y-102279108D01*
X80239500Y-102279108D01*
X80239500Y-102410892D01*
X80244872Y-102430941D01*
X80273608Y-102538187D01*
X80306554Y-102595250D01*
X80339500Y-102652314D01*
X80339502Y-102652316D01*
X80369505Y-102682319D01*
X80402990Y-102743642D01*
X80398006Y-102813334D01*
X80369505Y-102857681D01*
X80339502Y-102887683D01*
X80339500Y-102887686D01*
X80273608Y-103001812D01*
X80239500Y-103129108D01*
X80239500Y-103260891D01*
X80273608Y-103388187D01*
X80297461Y-103429500D01*
X80339500Y-103502314D01*
X80432686Y-103595500D01*
X80504244Y-103636814D01*
X80546810Y-103661390D01*
X80546814Y-103661392D01*
X80674108Y-103695500D01*
X80674110Y-103695500D01*
X80805890Y-103695500D01*
X80805892Y-103695500D01*
X80933186Y-103661392D01*
X81047314Y-103595500D01*
X81140500Y-103502314D01*
X81206392Y-103388186D01*
X81240500Y-103260892D01*
X81240500Y-103170247D01*
X125909500Y-103170247D01*
X125909500Y-104909752D01*
X125921131Y-104968229D01*
X125921132Y-104968230D01*
X125965447Y-105034552D01*
X126031769Y-105078867D01*
X126031770Y-105078868D01*
X126090247Y-105090499D01*
X126090250Y-105090500D01*
X126090252Y-105090500D01*
X127829750Y-105090500D01*
X127829751Y-105090499D01*
X127844568Y-105087552D01*
X127888229Y-105078868D01*
X127888229Y-105078867D01*
X127888231Y-105078867D01*
X127954552Y-105034552D01*
X127998867Y-104968231D01*
X127998867Y-104968229D01*
X127998868Y-104968229D01*
X128010499Y-104909752D01*
X128010500Y-104909750D01*
X128010500Y-103936530D01*
X128449500Y-103936530D01*
X128449500Y-104143469D01*
X128489868Y-104346412D01*
X128489870Y-104346420D01*
X128561562Y-104519500D01*
X128569059Y-104537598D01*
X128581282Y-104555891D01*
X128684024Y-104709657D01*
X128830342Y-104855975D01*
X128830345Y-104855977D01*
X129002402Y-104970941D01*
X129193580Y-105050130D01*
X129338052Y-105078867D01*
X129396530Y-105090499D01*
X129396534Y-105090500D01*
X129396535Y-105090500D01*
X129603466Y-105090500D01*
X129603467Y-105090499D01*
X129806420Y-105050130D01*
X129997598Y-104970941D01*
X130169655Y-104855977D01*
X130315977Y-104709655D01*
X130430941Y-104537598D01*
X130510130Y-104346420D01*
X130550500Y-104143465D01*
X130550500Y-103936535D01*
X130510130Y-103733580D01*
X130430941Y-103542402D01*
X130315977Y-103370345D01*
X130315975Y-103370342D01*
X130169657Y-103224024D01*
X130083626Y-103166541D01*
X129997598Y-103109059D01*
X129997593Y-103109057D01*
X129806420Y-103029870D01*
X129806412Y-103029868D01*
X129603469Y-102989500D01*
X129603465Y-102989500D01*
X129396535Y-102989500D01*
X129396530Y-102989500D01*
X129193587Y-103029868D01*
X129193579Y-103029870D01*
X129002403Y-103109058D01*
X128830342Y-103224024D01*
X128684024Y-103370342D01*
X128569058Y-103542403D01*
X128489870Y-103733579D01*
X128489868Y-103733587D01*
X128449500Y-103936530D01*
X128010500Y-103936530D01*
X128010500Y-103170249D01*
X128010499Y-103170247D01*
X127998868Y-103111770D01*
X127998867Y-103111769D01*
X127954552Y-103045447D01*
X127888230Y-103001132D01*
X127888229Y-103001131D01*
X127829752Y-102989500D01*
X127829748Y-102989500D01*
X126090252Y-102989500D01*
X126090247Y-102989500D01*
X126031770Y-103001131D01*
X126031769Y-103001132D01*
X125965447Y-103045447D01*
X125921132Y-103111769D01*
X125921131Y-103111770D01*
X125909500Y-103170247D01*
X81240500Y-103170247D01*
X81240500Y-103129108D01*
X81206392Y-103001814D01*
X81199282Y-102989500D01*
X81179994Y-102956092D01*
X81140500Y-102887686D01*
X81110495Y-102857681D01*
X81077010Y-102796358D01*
X81081994Y-102726666D01*
X81110495Y-102682319D01*
X81140500Y-102652314D01*
X81206392Y-102538186D01*
X81215523Y-102504108D01*
X96619500Y-102504108D01*
X96619500Y-102635891D01*
X96653608Y-102763187D01*
X96657542Y-102770000D01*
X96719500Y-102877314D01*
X96812686Y-102970500D01*
X96926814Y-103036392D01*
X97054108Y-103070500D01*
X97054110Y-103070500D01*
X97185890Y-103070500D01*
X97185892Y-103070500D01*
X97313186Y-103036392D01*
X97427314Y-102970500D01*
X97520500Y-102877314D01*
X97586392Y-102763186D01*
X97620500Y-102635892D01*
X97620500Y-102504108D01*
X97586392Y-102376814D01*
X97520500Y-102262686D01*
X97427314Y-102169500D01*
X97370250Y-102136554D01*
X97313187Y-102103608D01*
X97249539Y-102086554D01*
X97185892Y-102069500D01*
X97054108Y-102069500D01*
X96926812Y-102103608D01*
X96812686Y-102169500D01*
X96812683Y-102169502D01*
X96719502Y-102262683D01*
X96719500Y-102262686D01*
X96653608Y-102376812D01*
X96619500Y-102504108D01*
X81215523Y-102504108D01*
X81240500Y-102410892D01*
X81240500Y-102279108D01*
X81206392Y-102151814D01*
X81140500Y-102037686D01*
X81047314Y-101944500D01*
X80990250Y-101911554D01*
X80933187Y-101878608D01*
X80897299Y-101868992D01*
X115704500Y-101868992D01*
X115704500Y-102071007D01*
X115743907Y-102269119D01*
X115743909Y-102269127D01*
X115821212Y-102455752D01*
X115821217Y-102455762D01*
X115933441Y-102623718D01*
X116076281Y-102766558D01*
X116244237Y-102878782D01*
X116244241Y-102878784D01*
X116244244Y-102878786D01*
X116430873Y-102956091D01*
X116556025Y-102980985D01*
X116628992Y-102995499D01*
X116628996Y-102995500D01*
X116628997Y-102995500D01*
X116831004Y-102995500D01*
X116831005Y-102995499D01*
X117029127Y-102956091D01*
X117215756Y-102878786D01*
X117383718Y-102766558D01*
X117526558Y-102623718D01*
X117638786Y-102455756D01*
X117716091Y-102269127D01*
X117755500Y-102071003D01*
X117755500Y-101868997D01*
X117755499Y-101868992D01*
X118244500Y-101868992D01*
X118244500Y-102071007D01*
X118283907Y-102269119D01*
X118283909Y-102269127D01*
X118361212Y-102455752D01*
X118361217Y-102455762D01*
X118473441Y-102623718D01*
X118616281Y-102766558D01*
X118784237Y-102878782D01*
X118784241Y-102878784D01*
X118784244Y-102878786D01*
X118970873Y-102956091D01*
X119096025Y-102980985D01*
X119168992Y-102995499D01*
X119168996Y-102995500D01*
X119168997Y-102995500D01*
X119371004Y-102995500D01*
X119371005Y-102995499D01*
X119569127Y-102956091D01*
X119755756Y-102878786D01*
X119923718Y-102766558D01*
X120066558Y-102623718D01*
X120178786Y-102455756D01*
X120256091Y-102269127D01*
X120295500Y-102071003D01*
X120295500Y-101868997D01*
X120256091Y-101670873D01*
X120178786Y-101484244D01*
X120162140Y-101459331D01*
X120120178Y-101396530D01*
X125909500Y-101396530D01*
X125909500Y-101603469D01*
X125949868Y-101806412D01*
X125949870Y-101806420D01*
X126015939Y-101965925D01*
X126029059Y-101997598D01*
X126042836Y-102018217D01*
X126144024Y-102169657D01*
X126290342Y-102315975D01*
X126290345Y-102315977D01*
X126462402Y-102430941D01*
X126653580Y-102510130D01*
X126856530Y-102550499D01*
X126856534Y-102550500D01*
X126856535Y-102550500D01*
X127063466Y-102550500D01*
X127063467Y-102550499D01*
X127266420Y-102510130D01*
X127457598Y-102430941D01*
X127629655Y-102315977D01*
X127775977Y-102169655D01*
X127890941Y-101997598D01*
X127970130Y-101806420D01*
X128010500Y-101603465D01*
X128010500Y-101396535D01*
X128010499Y-101396530D01*
X128449500Y-101396530D01*
X128449500Y-101603469D01*
X128489868Y-101806412D01*
X128489870Y-101806420D01*
X128555939Y-101965925D01*
X128569059Y-101997598D01*
X128582836Y-102018217D01*
X128684024Y-102169657D01*
X128830342Y-102315975D01*
X128830345Y-102315977D01*
X129002402Y-102430941D01*
X129193580Y-102510130D01*
X129396530Y-102550499D01*
X129396534Y-102550500D01*
X129396535Y-102550500D01*
X129603466Y-102550500D01*
X129603467Y-102550499D01*
X129806420Y-102510130D01*
X129997598Y-102430941D01*
X130169655Y-102315977D01*
X130315977Y-102169655D01*
X130430941Y-101997598D01*
X130499165Y-101832889D01*
X130543004Y-101778488D01*
X130609298Y-101756423D01*
X130676998Y-101773702D01*
X130724609Y-101824839D01*
X130731656Y-101842026D01*
X130788904Y-102018216D01*
X130885375Y-102207550D01*
X130924728Y-102261716D01*
X131557037Y-101629408D01*
X131574075Y-101692993D01*
X131639901Y-101807007D01*
X131732993Y-101900099D01*
X131847007Y-101965925D01*
X131910590Y-101982962D01*
X131278282Y-102615269D01*
X131278282Y-102615270D01*
X131332449Y-102654624D01*
X131521782Y-102751095D01*
X131697973Y-102808343D01*
X131755648Y-102847780D01*
X131782847Y-102912139D01*
X131770932Y-102980985D01*
X131723688Y-103032461D01*
X131707108Y-103040835D01*
X131542403Y-103109057D01*
X131370342Y-103224024D01*
X131224024Y-103370342D01*
X131109058Y-103542403D01*
X131029870Y-103733579D01*
X131029868Y-103733587D01*
X130989500Y-103936530D01*
X130989500Y-104143469D01*
X131029868Y-104346412D01*
X131029870Y-104346420D01*
X131101562Y-104519500D01*
X131109059Y-104537598D01*
X131121282Y-104555891D01*
X131224024Y-104709657D01*
X131370342Y-104855975D01*
X131370345Y-104855977D01*
X131542402Y-104970941D01*
X131733580Y-105050130D01*
X131878052Y-105078867D01*
X131936530Y-105090499D01*
X131936534Y-105090500D01*
X131936535Y-105090500D01*
X132143466Y-105090500D01*
X132143467Y-105090499D01*
X132346420Y-105050130D01*
X132537598Y-104970941D01*
X132709655Y-104855977D01*
X132855977Y-104709655D01*
X132970941Y-104537598D01*
X133050130Y-104346420D01*
X133090500Y-104143465D01*
X133090500Y-103936535D01*
X133050130Y-103733580D01*
X132970941Y-103542402D01*
X132855977Y-103370345D01*
X132855975Y-103370342D01*
X132709657Y-103224024D01*
X132623626Y-103166541D01*
X132537598Y-103109059D01*
X132537593Y-103109057D01*
X132384028Y-103045448D01*
X132372890Y-103040834D01*
X132318488Y-102996994D01*
X132296423Y-102930700D01*
X132313702Y-102863001D01*
X132364839Y-102815390D01*
X132382026Y-102808343D01*
X132558217Y-102751095D01*
X132747554Y-102654622D01*
X132801716Y-102615270D01*
X132801717Y-102615270D01*
X132169408Y-101982962D01*
X132232993Y-101965925D01*
X132347007Y-101900099D01*
X132440099Y-101807007D01*
X132505925Y-101692993D01*
X132522962Y-101629409D01*
X133155270Y-102261717D01*
X133155270Y-102261716D01*
X133194622Y-102207554D01*
X133291095Y-102018217D01*
X133356757Y-101816130D01*
X133356757Y-101816127D01*
X133390000Y-101606246D01*
X133390000Y-101393753D01*
X133356757Y-101183872D01*
X133356757Y-101183869D01*
X133291095Y-100981782D01*
X133194624Y-100792449D01*
X133155270Y-100738282D01*
X133155269Y-100738282D01*
X132522962Y-101370590D01*
X132505925Y-101307007D01*
X132440099Y-101192993D01*
X132347007Y-101099901D01*
X132232993Y-101034075D01*
X132169409Y-101017037D01*
X132801716Y-100384728D01*
X132747550Y-100345375D01*
X132558217Y-100248904D01*
X132356129Y-100183242D01*
X132146246Y-100150000D01*
X131933754Y-100150000D01*
X131723872Y-100183242D01*
X131723869Y-100183242D01*
X131521782Y-100248904D01*
X131332439Y-100345380D01*
X131278282Y-100384727D01*
X131278282Y-100384728D01*
X131910591Y-101017037D01*
X131847007Y-101034075D01*
X131732993Y-101099901D01*
X131639901Y-101192993D01*
X131574075Y-101307007D01*
X131557037Y-101370591D01*
X130924728Y-100738282D01*
X130924727Y-100738282D01*
X130885380Y-100792439D01*
X130788905Y-100981781D01*
X130731656Y-101157974D01*
X130692218Y-101215649D01*
X130627859Y-101242847D01*
X130559013Y-101230932D01*
X130507537Y-101183688D01*
X130499164Y-101167107D01*
X130486234Y-101135892D01*
X130455301Y-101061212D01*
X130430943Y-101002405D01*
X130315975Y-100830342D01*
X130169657Y-100684024D01*
X130083626Y-100626541D01*
X129997598Y-100569059D01*
X129806420Y-100489870D01*
X129806412Y-100489868D01*
X129603469Y-100449500D01*
X129603465Y-100449500D01*
X129396535Y-100449500D01*
X129396530Y-100449500D01*
X129193587Y-100489868D01*
X129193579Y-100489870D01*
X129002403Y-100569058D01*
X128830342Y-100684024D01*
X128684024Y-100830342D01*
X128569058Y-101002403D01*
X128489870Y-101193579D01*
X128489868Y-101193587D01*
X128449500Y-101396530D01*
X128010499Y-101396530D01*
X127970130Y-101193580D01*
X127890941Y-101002402D01*
X127775977Y-100830345D01*
X127775975Y-100830342D01*
X127629657Y-100684024D01*
X127543626Y-100626541D01*
X127457598Y-100569059D01*
X127266420Y-100489870D01*
X127266412Y-100489868D01*
X127063469Y-100449500D01*
X127063465Y-100449500D01*
X126856535Y-100449500D01*
X126856530Y-100449500D01*
X126653587Y-100489868D01*
X126653579Y-100489870D01*
X126462403Y-100569058D01*
X126290342Y-100684024D01*
X126144024Y-100830342D01*
X126029058Y-101002403D01*
X125949870Y-101193579D01*
X125949868Y-101193587D01*
X125909500Y-101396530D01*
X120120178Y-101396530D01*
X120066561Y-101316286D01*
X120066555Y-101316278D01*
X119923718Y-101173441D01*
X119755762Y-101061217D01*
X119755752Y-101061212D01*
X119569127Y-100983909D01*
X119569119Y-100983907D01*
X119371007Y-100944500D01*
X119371003Y-100944500D01*
X119168997Y-100944500D01*
X119168992Y-100944500D01*
X118970880Y-100983907D01*
X118970872Y-100983909D01*
X118784247Y-101061212D01*
X118784237Y-101061217D01*
X118616281Y-101173441D01*
X118473441Y-101316281D01*
X118361217Y-101484237D01*
X118361212Y-101484247D01*
X118283909Y-101670872D01*
X118283907Y-101670880D01*
X118244500Y-101868992D01*
X117755499Y-101868992D01*
X117716091Y-101670873D01*
X117638786Y-101484244D01*
X117638784Y-101484241D01*
X117638782Y-101484237D01*
X117526558Y-101316281D01*
X117383718Y-101173441D01*
X117215762Y-101061217D01*
X117215752Y-101061212D01*
X117029127Y-100983909D01*
X117029119Y-100983907D01*
X116831007Y-100944500D01*
X116831003Y-100944500D01*
X116628997Y-100944500D01*
X116628992Y-100944500D01*
X116430880Y-100983907D01*
X116430872Y-100983909D01*
X116244247Y-101061212D01*
X116244237Y-101061217D01*
X116076281Y-101173441D01*
X115933441Y-101316281D01*
X115821217Y-101484237D01*
X115821212Y-101484247D01*
X115743909Y-101670872D01*
X115743907Y-101670880D01*
X115704500Y-101868992D01*
X80897299Y-101868992D01*
X80839682Y-101853554D01*
X80805892Y-101844500D01*
X80674108Y-101844500D01*
X80546812Y-101878608D01*
X80432686Y-101944500D01*
X80432683Y-101944502D01*
X80339502Y-102037683D01*
X80339500Y-102037686D01*
X80273608Y-102151812D01*
X80242174Y-102269127D01*
X80239500Y-102279108D01*
X30860500Y-102279108D01*
X30860500Y-101004108D01*
X96229500Y-101004108D01*
X96229500Y-101135892D01*
X96242307Y-101183688D01*
X96263608Y-101263187D01*
X96288908Y-101307007D01*
X96329500Y-101377314D01*
X96422686Y-101470500D01*
X96536814Y-101536392D01*
X96664108Y-101570500D01*
X96664110Y-101570500D01*
X96795890Y-101570500D01*
X96795892Y-101570500D01*
X96923186Y-101536392D01*
X97037314Y-101470500D01*
X97130500Y-101377314D01*
X97196392Y-101263186D01*
X97206863Y-101224108D01*
X106809500Y-101224108D01*
X106809500Y-101355892D01*
X106819645Y-101393753D01*
X106843608Y-101483187D01*
X106853316Y-101500001D01*
X106909500Y-101597314D01*
X107002686Y-101690500D01*
X107116814Y-101756392D01*
X107244108Y-101790500D01*
X107244110Y-101790500D01*
X107375890Y-101790500D01*
X107375892Y-101790500D01*
X107503186Y-101756392D01*
X107617314Y-101690500D01*
X107710500Y-101597314D01*
X107776392Y-101483186D01*
X107810500Y-101355892D01*
X107810500Y-101224108D01*
X107776392Y-101096814D01*
X107710500Y-100982686D01*
X107617314Y-100889500D01*
X107560250Y-100856554D01*
X107503187Y-100823608D01*
X107439539Y-100806554D01*
X107375892Y-100789500D01*
X107244108Y-100789500D01*
X107116812Y-100823608D01*
X107002686Y-100889500D01*
X107002683Y-100889502D01*
X106909502Y-100982683D01*
X106909500Y-100982686D01*
X106843608Y-101096812D01*
X106833138Y-101135889D01*
X106809500Y-101224108D01*
X97206863Y-101224108D01*
X97230500Y-101135892D01*
X97230500Y-101004108D01*
X97196392Y-100876814D01*
X97130500Y-100762686D01*
X97037314Y-100669500D01*
X96980250Y-100636554D01*
X96923187Y-100603608D01*
X96859539Y-100586554D01*
X96795892Y-100569500D01*
X96664108Y-100569500D01*
X96536812Y-100603608D01*
X96422686Y-100669500D01*
X96422683Y-100669502D01*
X96329502Y-100762683D01*
X96329500Y-100762686D01*
X96263608Y-100876812D01*
X96260208Y-100889502D01*
X96229500Y-101004108D01*
X30860500Y-101004108D01*
X30860500Y-99324108D01*
X96229500Y-99324108D01*
X96229500Y-99455891D01*
X96263608Y-99583187D01*
X96296554Y-99640250D01*
X96329500Y-99697314D01*
X96422686Y-99790500D01*
X96536814Y-99856392D01*
X96664108Y-99890500D01*
X96664110Y-99890500D01*
X96795890Y-99890500D01*
X96795892Y-99890500D01*
X96923186Y-99856392D01*
X97037314Y-99790500D01*
X97130500Y-99697314D01*
X97196392Y-99583186D01*
X97230500Y-99455892D01*
X97230500Y-99328992D01*
X115704500Y-99328992D01*
X115704500Y-99531007D01*
X115743907Y-99729119D01*
X115743909Y-99729127D01*
X115821212Y-99915752D01*
X115821217Y-99915762D01*
X115933441Y-100083718D01*
X116076281Y-100226558D01*
X116244237Y-100338782D01*
X116244241Y-100338784D01*
X116244244Y-100338786D01*
X116430873Y-100416091D01*
X116598833Y-100449500D01*
X116628992Y-100455499D01*
X116628996Y-100455500D01*
X116628997Y-100455500D01*
X116831004Y-100455500D01*
X116831005Y-100455499D01*
X117029127Y-100416091D01*
X117215756Y-100338786D01*
X117383718Y-100226558D01*
X117526558Y-100083718D01*
X117638786Y-99915756D01*
X117716091Y-99729127D01*
X117755500Y-99531003D01*
X117755500Y-99328997D01*
X117755499Y-99328992D01*
X118244500Y-99328992D01*
X118244500Y-99531007D01*
X118283907Y-99729119D01*
X118283909Y-99729127D01*
X118361212Y-99915752D01*
X118361217Y-99915762D01*
X118473441Y-100083718D01*
X118616281Y-100226558D01*
X118784237Y-100338782D01*
X118784241Y-100338784D01*
X118784244Y-100338786D01*
X118970873Y-100416091D01*
X119138833Y-100449500D01*
X119168992Y-100455499D01*
X119168996Y-100455500D01*
X119168997Y-100455500D01*
X119371004Y-100455500D01*
X119371005Y-100455499D01*
X119569127Y-100416091D01*
X119755756Y-100338786D01*
X119923718Y-100226558D01*
X120066558Y-100083718D01*
X120178786Y-99915756D01*
X120256091Y-99729127D01*
X120295500Y-99531003D01*
X120295500Y-99328997D01*
X120256091Y-99130873D01*
X120178786Y-98944244D01*
X120178784Y-98944241D01*
X120178782Y-98944237D01*
X120066558Y-98776281D01*
X119923718Y-98633441D01*
X119755762Y-98521217D01*
X119755752Y-98521212D01*
X119569127Y-98443909D01*
X119569119Y-98443907D01*
X119371007Y-98404500D01*
X119371003Y-98404500D01*
X119168997Y-98404500D01*
X119168992Y-98404500D01*
X118970880Y-98443907D01*
X118970872Y-98443909D01*
X118784247Y-98521212D01*
X118784237Y-98521217D01*
X118616281Y-98633441D01*
X118473441Y-98776281D01*
X118361217Y-98944237D01*
X118361212Y-98944247D01*
X118283909Y-99130872D01*
X118283907Y-99130880D01*
X118244500Y-99328992D01*
X117755499Y-99328992D01*
X117716091Y-99130873D01*
X117638786Y-98944244D01*
X117638784Y-98944241D01*
X117638782Y-98944237D01*
X117526558Y-98776281D01*
X117383718Y-98633441D01*
X117215762Y-98521217D01*
X117215752Y-98521212D01*
X117029127Y-98443909D01*
X117029119Y-98443907D01*
X116831007Y-98404500D01*
X116831003Y-98404500D01*
X116628997Y-98404500D01*
X116628992Y-98404500D01*
X116430880Y-98443907D01*
X116430872Y-98443909D01*
X116244247Y-98521212D01*
X116244237Y-98521217D01*
X116076281Y-98633441D01*
X115933441Y-98776281D01*
X115821217Y-98944237D01*
X115821212Y-98944247D01*
X115743909Y-99130872D01*
X115743907Y-99130880D01*
X115704500Y-99328992D01*
X97230500Y-99328992D01*
X97230500Y-99324108D01*
X97196392Y-99196814D01*
X97130500Y-99082686D01*
X97037314Y-98989500D01*
X96923186Y-98923608D01*
X96795892Y-98889500D01*
X96664108Y-98889500D01*
X96536814Y-98923608D01*
X96536812Y-98923608D01*
X96536812Y-98923609D01*
X96422686Y-98989500D01*
X96422683Y-98989502D01*
X96329502Y-99082683D01*
X96329500Y-99082686D01*
X96263608Y-99196812D01*
X96229500Y-99324108D01*
X30860500Y-99324108D01*
X30860500Y-98094108D01*
X96239500Y-98094108D01*
X96239500Y-98225891D01*
X96273608Y-98353187D01*
X96303234Y-98404500D01*
X96339500Y-98467314D01*
X96432686Y-98560500D01*
X96546814Y-98626392D01*
X96674108Y-98660500D01*
X96805892Y-98660500D01*
X96933186Y-98626392D01*
X97047314Y-98560500D01*
X97140500Y-98467314D01*
X97206392Y-98353186D01*
X97240500Y-98225892D01*
X97240500Y-98094108D01*
X97206392Y-97966814D01*
X97140500Y-97852686D01*
X97047314Y-97759500D01*
X96990250Y-97726554D01*
X96933187Y-97693608D01*
X96869539Y-97676554D01*
X96805892Y-97659500D01*
X96674108Y-97659500D01*
X96546812Y-97693608D01*
X96432686Y-97759500D01*
X96432683Y-97759502D01*
X96339502Y-97852683D01*
X96339500Y-97852686D01*
X96273608Y-97966812D01*
X96239500Y-98094108D01*
X30860500Y-98094108D01*
X30860500Y-96314108D01*
X80499500Y-96314108D01*
X80499500Y-96445891D01*
X80533608Y-96573187D01*
X80566554Y-96630250D01*
X80599500Y-96687314D01*
X80692686Y-96780500D01*
X80806814Y-96846392D01*
X80934108Y-96880500D01*
X80934110Y-96880500D01*
X81065890Y-96880500D01*
X81065892Y-96880500D01*
X81193186Y-96846392D01*
X81292605Y-96788992D01*
X115704500Y-96788992D01*
X115704500Y-96991007D01*
X115743907Y-97189119D01*
X115743909Y-97189127D01*
X115821212Y-97375752D01*
X115821217Y-97375762D01*
X115933441Y-97543718D01*
X116076281Y-97686558D01*
X116244237Y-97798782D01*
X116244241Y-97798784D01*
X116244244Y-97798786D01*
X116430873Y-97876091D01*
X116628992Y-97915499D01*
X116628996Y-97915500D01*
X116628997Y-97915500D01*
X116831004Y-97915500D01*
X116831005Y-97915499D01*
X117029127Y-97876091D01*
X117215756Y-97798786D01*
X117383718Y-97686558D01*
X117526558Y-97543718D01*
X117638786Y-97375756D01*
X117716091Y-97189127D01*
X117755500Y-96991003D01*
X117755500Y-96788997D01*
X117755499Y-96788992D01*
X118244500Y-96788992D01*
X118244500Y-96991007D01*
X118283907Y-97189119D01*
X118283909Y-97189127D01*
X118361212Y-97375752D01*
X118361217Y-97375762D01*
X118473441Y-97543718D01*
X118616281Y-97686558D01*
X118784237Y-97798782D01*
X118784241Y-97798784D01*
X118784244Y-97798786D01*
X118970873Y-97876091D01*
X119168992Y-97915499D01*
X119168996Y-97915500D01*
X119168997Y-97915500D01*
X119371004Y-97915500D01*
X119371005Y-97915499D01*
X119569127Y-97876091D01*
X119755756Y-97798786D01*
X119923718Y-97686558D01*
X120066558Y-97543718D01*
X120178786Y-97375756D01*
X120256091Y-97189127D01*
X120295500Y-96991003D01*
X120295500Y-96788997D01*
X120256091Y-96590873D01*
X120178786Y-96404244D01*
X120178784Y-96404241D01*
X120178782Y-96404237D01*
X120066558Y-96236281D01*
X119923718Y-96093441D01*
X119755762Y-95981217D01*
X119755752Y-95981212D01*
X119569127Y-95903909D01*
X119569119Y-95903907D01*
X119371007Y-95864500D01*
X119371003Y-95864500D01*
X119168997Y-95864500D01*
X119168992Y-95864500D01*
X118970880Y-95903907D01*
X118970872Y-95903909D01*
X118784247Y-95981212D01*
X118784237Y-95981217D01*
X118616281Y-96093441D01*
X118473441Y-96236281D01*
X118361217Y-96404237D01*
X118361212Y-96404247D01*
X118283909Y-96590872D01*
X118283907Y-96590880D01*
X118244500Y-96788992D01*
X117755499Y-96788992D01*
X117716091Y-96590873D01*
X117638786Y-96404244D01*
X117638784Y-96404241D01*
X117638782Y-96404237D01*
X117526558Y-96236281D01*
X117383718Y-96093441D01*
X117215762Y-95981217D01*
X117215752Y-95981212D01*
X117029127Y-95903909D01*
X117029119Y-95903907D01*
X116831007Y-95864500D01*
X116831003Y-95864500D01*
X116628997Y-95864500D01*
X116628992Y-95864500D01*
X116430880Y-95903907D01*
X116430872Y-95903909D01*
X116244247Y-95981212D01*
X116244237Y-95981217D01*
X116076281Y-96093441D01*
X115933441Y-96236281D01*
X115821217Y-96404237D01*
X115821212Y-96404247D01*
X115743909Y-96590872D01*
X115743907Y-96590880D01*
X115704500Y-96788992D01*
X81292605Y-96788992D01*
X81307314Y-96780500D01*
X81400500Y-96687314D01*
X81466392Y-96573186D01*
X81500500Y-96445892D01*
X81500500Y-96314108D01*
X81466392Y-96186814D01*
X81400500Y-96072686D01*
X81307314Y-95979500D01*
X81250250Y-95946554D01*
X81193187Y-95913608D01*
X81129539Y-95896554D01*
X81065892Y-95879500D01*
X80934108Y-95879500D01*
X80806812Y-95913608D01*
X80692686Y-95979500D01*
X80692683Y-95979502D01*
X80599502Y-96072683D01*
X80599500Y-96072686D01*
X80533608Y-96186812D01*
X80499500Y-96314108D01*
X30860500Y-96314108D01*
X30860500Y-94248992D01*
X115704500Y-94248992D01*
X115704500Y-94451007D01*
X115743907Y-94649119D01*
X115743909Y-94649127D01*
X115821212Y-94835752D01*
X115821217Y-94835762D01*
X115933441Y-95003718D01*
X116076281Y-95146558D01*
X116244237Y-95258782D01*
X116244241Y-95258784D01*
X116244244Y-95258786D01*
X116430873Y-95336091D01*
X116628992Y-95375499D01*
X116628996Y-95375500D01*
X116628997Y-95375500D01*
X116831004Y-95375500D01*
X116831005Y-95375499D01*
X117029127Y-95336091D01*
X117215756Y-95258786D01*
X117383718Y-95146558D01*
X117526558Y-95003718D01*
X117638786Y-94835756D01*
X117716091Y-94649127D01*
X117755500Y-94451003D01*
X117755500Y-94248997D01*
X117755499Y-94248992D01*
X118244500Y-94248992D01*
X118244500Y-94451007D01*
X118283907Y-94649119D01*
X118283909Y-94649127D01*
X118361212Y-94835752D01*
X118361217Y-94835762D01*
X118473441Y-95003718D01*
X118616281Y-95146558D01*
X118784237Y-95258782D01*
X118784241Y-95258784D01*
X118784244Y-95258786D01*
X118970873Y-95336091D01*
X119168992Y-95375499D01*
X119168996Y-95375500D01*
X119168997Y-95375500D01*
X119371004Y-95375500D01*
X119371005Y-95375499D01*
X119569127Y-95336091D01*
X119755756Y-95258786D01*
X119923718Y-95146558D01*
X120066558Y-95003718D01*
X120178786Y-94835756D01*
X120256091Y-94649127D01*
X120295500Y-94451003D01*
X120295500Y-94248997D01*
X120256091Y-94050873D01*
X120178786Y-93864244D01*
X120178784Y-93864241D01*
X120178782Y-93864237D01*
X120066558Y-93696281D01*
X119923718Y-93553441D01*
X119755762Y-93441217D01*
X119755752Y-93441212D01*
X119569127Y-93363909D01*
X119569119Y-93363907D01*
X119371007Y-93324500D01*
X119371003Y-93324500D01*
X119168997Y-93324500D01*
X119168992Y-93324500D01*
X118970880Y-93363907D01*
X118970872Y-93363909D01*
X118784247Y-93441212D01*
X118784237Y-93441217D01*
X118616281Y-93553441D01*
X118473441Y-93696281D01*
X118361217Y-93864237D01*
X118361212Y-93864247D01*
X118283909Y-94050872D01*
X118283907Y-94050880D01*
X118244500Y-94248992D01*
X117755499Y-94248992D01*
X117716091Y-94050873D01*
X117638786Y-93864244D01*
X117638784Y-93864241D01*
X117638782Y-93864237D01*
X117526558Y-93696281D01*
X117383718Y-93553441D01*
X117215762Y-93441217D01*
X117215752Y-93441212D01*
X117029127Y-93363909D01*
X117029119Y-93363907D01*
X116831007Y-93324500D01*
X116831003Y-93324500D01*
X116628997Y-93324500D01*
X116628992Y-93324500D01*
X116430880Y-93363907D01*
X116430872Y-93363909D01*
X116244247Y-93441212D01*
X116244237Y-93441217D01*
X116076281Y-93553441D01*
X115933441Y-93696281D01*
X115821217Y-93864237D01*
X115821212Y-93864247D01*
X115743909Y-94050872D01*
X115743907Y-94050880D01*
X115704500Y-94248992D01*
X30860500Y-94248992D01*
X30860500Y-93011153D01*
X131589500Y-93011153D01*
X131589500Y-93168846D01*
X131620261Y-93323489D01*
X131620264Y-93323501D01*
X131680602Y-93469172D01*
X131680609Y-93469185D01*
X131768210Y-93600288D01*
X131768213Y-93600292D01*
X131879707Y-93711786D01*
X131879711Y-93711789D01*
X132010814Y-93799390D01*
X132010827Y-93799397D01*
X132156498Y-93859735D01*
X132156503Y-93859737D01*
X132311153Y-93890499D01*
X132311156Y-93890500D01*
X132311158Y-93890500D01*
X132468844Y-93890500D01*
X132468845Y-93890499D01*
X132623497Y-93859737D01*
X132769179Y-93799394D01*
X132900289Y-93711789D01*
X133011789Y-93600289D01*
X133099394Y-93469179D01*
X133159737Y-93323497D01*
X133190500Y-93168842D01*
X133190500Y-93011158D01*
X133190500Y-93011155D01*
X133190499Y-93011153D01*
X133159738Y-92856510D01*
X133159737Y-92856503D01*
X133134714Y-92796091D01*
X133099397Y-92710827D01*
X133099390Y-92710814D01*
X133011789Y-92579711D01*
X133011786Y-92579707D01*
X132900292Y-92468213D01*
X132900288Y-92468210D01*
X132769185Y-92380609D01*
X132769172Y-92380602D01*
X132623501Y-92320264D01*
X132623489Y-92320261D01*
X132468845Y-92289500D01*
X132468842Y-92289500D01*
X132311158Y-92289500D01*
X132311155Y-92289500D01*
X132156510Y-92320261D01*
X132156498Y-92320264D01*
X132010827Y-92380602D01*
X132010814Y-92380609D01*
X131879711Y-92468210D01*
X131879707Y-92468213D01*
X131768213Y-92579707D01*
X131768210Y-92579711D01*
X131680609Y-92710814D01*
X131680602Y-92710827D01*
X131620264Y-92856498D01*
X131620261Y-92856510D01*
X131589500Y-93011153D01*
X30860500Y-93011153D01*
X30860500Y-91708992D01*
X115704500Y-91708992D01*
X115704500Y-91911007D01*
X115743907Y-92109119D01*
X115743909Y-92109127D01*
X115821212Y-92295752D01*
X115821217Y-92295762D01*
X115933441Y-92463718D01*
X116076281Y-92606558D01*
X116244237Y-92718782D01*
X116244241Y-92718784D01*
X116244244Y-92718786D01*
X116430873Y-92796091D01*
X116628992Y-92835499D01*
X116628996Y-92835500D01*
X116628997Y-92835500D01*
X116831004Y-92835500D01*
X116831005Y-92835499D01*
X117029127Y-92796091D01*
X117215756Y-92718786D01*
X117383718Y-92606558D01*
X117526558Y-92463718D01*
X117638786Y-92295756D01*
X117716091Y-92109127D01*
X117755500Y-91911003D01*
X117755500Y-91708997D01*
X117755499Y-91708992D01*
X118244500Y-91708992D01*
X118244500Y-91911007D01*
X118283907Y-92109119D01*
X118283909Y-92109127D01*
X118361212Y-92295752D01*
X118361217Y-92295762D01*
X118473441Y-92463718D01*
X118616281Y-92606558D01*
X118784237Y-92718782D01*
X118784241Y-92718784D01*
X118784244Y-92718786D01*
X118970873Y-92796091D01*
X119168992Y-92835499D01*
X119168996Y-92835500D01*
X119168997Y-92835500D01*
X119371004Y-92835500D01*
X119371005Y-92835499D01*
X119569127Y-92796091D01*
X119755756Y-92718786D01*
X119923718Y-92606558D01*
X120066558Y-92463718D01*
X120178786Y-92295756D01*
X120256091Y-92109127D01*
X120295500Y-91911003D01*
X120295500Y-91708997D01*
X120256091Y-91510873D01*
X120178786Y-91324244D01*
X120178784Y-91324241D01*
X120178782Y-91324237D01*
X120066558Y-91156281D01*
X119923718Y-91013441D01*
X119755762Y-90901217D01*
X119755752Y-90901212D01*
X119569127Y-90823909D01*
X119569119Y-90823907D01*
X119371007Y-90784500D01*
X119371003Y-90784500D01*
X119168997Y-90784500D01*
X119168992Y-90784500D01*
X118970880Y-90823907D01*
X118970872Y-90823909D01*
X118784247Y-90901212D01*
X118784237Y-90901217D01*
X118616281Y-91013441D01*
X118473441Y-91156281D01*
X118361217Y-91324237D01*
X118361212Y-91324247D01*
X118283909Y-91510872D01*
X118283907Y-91510880D01*
X118244500Y-91708992D01*
X117755499Y-91708992D01*
X117716091Y-91510873D01*
X117638786Y-91324244D01*
X117638784Y-91324241D01*
X117638782Y-91324237D01*
X117526558Y-91156281D01*
X117383718Y-91013441D01*
X117215762Y-90901217D01*
X117215752Y-90901212D01*
X117029127Y-90823909D01*
X117029119Y-90823907D01*
X116831007Y-90784500D01*
X116831003Y-90784500D01*
X116628997Y-90784500D01*
X116628992Y-90784500D01*
X116430880Y-90823907D01*
X116430872Y-90823909D01*
X116244247Y-90901212D01*
X116244237Y-90901217D01*
X116076281Y-91013441D01*
X115933441Y-91156281D01*
X115821217Y-91324237D01*
X115821212Y-91324247D01*
X115743909Y-91510872D01*
X115743907Y-91510880D01*
X115704500Y-91708992D01*
X30860500Y-91708992D01*
X30860500Y-89514108D01*
X38849500Y-89514108D01*
X38849500Y-89645891D01*
X38883608Y-89773187D01*
X38916554Y-89830250D01*
X38949500Y-89887314D01*
X39042686Y-89980500D01*
X39156814Y-90046392D01*
X39284108Y-90080500D01*
X39284110Y-90080500D01*
X39415890Y-90080500D01*
X39415892Y-90080500D01*
X39543186Y-90046392D01*
X39657314Y-89980500D01*
X39750500Y-89887314D01*
X39816392Y-89773186D01*
X39850500Y-89645892D01*
X39850500Y-89514108D01*
X39816392Y-89386814D01*
X39750500Y-89272686D01*
X39657314Y-89179500D01*
X39639114Y-89168992D01*
X115704500Y-89168992D01*
X115704500Y-89371007D01*
X115743907Y-89569119D01*
X115743909Y-89569127D01*
X115821212Y-89755752D01*
X115821217Y-89755762D01*
X115933441Y-89923718D01*
X116076281Y-90066558D01*
X116244237Y-90178782D01*
X116244241Y-90178784D01*
X116244244Y-90178786D01*
X116430873Y-90256091D01*
X116628992Y-90295499D01*
X116628996Y-90295500D01*
X116628997Y-90295500D01*
X116831004Y-90295500D01*
X116831005Y-90295499D01*
X117029127Y-90256091D01*
X117215756Y-90178786D01*
X117383718Y-90066558D01*
X117526558Y-89923718D01*
X117638786Y-89755756D01*
X117716091Y-89569127D01*
X117755500Y-89371003D01*
X117755500Y-89168997D01*
X117755499Y-89168992D01*
X118244500Y-89168992D01*
X118244500Y-89371007D01*
X118283907Y-89569119D01*
X118283909Y-89569127D01*
X118361212Y-89755752D01*
X118361217Y-89755762D01*
X118473441Y-89923718D01*
X118616281Y-90066558D01*
X118784237Y-90178782D01*
X118784241Y-90178784D01*
X118784244Y-90178786D01*
X118970873Y-90256091D01*
X119168992Y-90295499D01*
X119168996Y-90295500D01*
X119168997Y-90295500D01*
X119371004Y-90295500D01*
X119371005Y-90295499D01*
X119569127Y-90256091D01*
X119755756Y-90178786D01*
X119923718Y-90066558D01*
X120066558Y-89923718D01*
X120178786Y-89755756D01*
X120256091Y-89569127D01*
X120295500Y-89371003D01*
X120295500Y-89168997D01*
X120256091Y-88970873D01*
X120178786Y-88784244D01*
X120178784Y-88784241D01*
X120178782Y-88784237D01*
X120066558Y-88616281D01*
X119923718Y-88473441D01*
X119755762Y-88361217D01*
X119755752Y-88361212D01*
X119569127Y-88283909D01*
X119569119Y-88283907D01*
X119371007Y-88244500D01*
X119371003Y-88244500D01*
X119168997Y-88244500D01*
X119168992Y-88244500D01*
X118970880Y-88283907D01*
X118970872Y-88283909D01*
X118784247Y-88361212D01*
X118784237Y-88361217D01*
X118616281Y-88473441D01*
X118473441Y-88616281D01*
X118361217Y-88784237D01*
X118361212Y-88784247D01*
X118283909Y-88970872D01*
X118283907Y-88970880D01*
X118244500Y-89168992D01*
X117755499Y-89168992D01*
X117716091Y-88970873D01*
X117638786Y-88784244D01*
X117638784Y-88784241D01*
X117638782Y-88784237D01*
X117526558Y-88616281D01*
X117383718Y-88473441D01*
X117215762Y-88361217D01*
X117215752Y-88361212D01*
X117029127Y-88283909D01*
X117029119Y-88283907D01*
X116831007Y-88244500D01*
X116831003Y-88244500D01*
X116628997Y-88244500D01*
X116628992Y-88244500D01*
X116430880Y-88283907D01*
X116430872Y-88283909D01*
X116244247Y-88361212D01*
X116244237Y-88361217D01*
X116076281Y-88473441D01*
X115933441Y-88616281D01*
X115821217Y-88784237D01*
X115821212Y-88784247D01*
X115743909Y-88970872D01*
X115743907Y-88970880D01*
X115704500Y-89168992D01*
X39639114Y-89168992D01*
X39600250Y-89146554D01*
X39543187Y-89113608D01*
X39479539Y-89096554D01*
X39415892Y-89079500D01*
X39284108Y-89079500D01*
X39156812Y-89113608D01*
X39042686Y-89179500D01*
X39042683Y-89179502D01*
X38949502Y-89272683D01*
X38949500Y-89272686D01*
X38883608Y-89386812D01*
X38849500Y-89514108D01*
X30860500Y-89514108D01*
X30860500Y-86628992D01*
X115704500Y-86628992D01*
X115704500Y-86831007D01*
X115743907Y-87029119D01*
X115743909Y-87029127D01*
X115821212Y-87215752D01*
X115821217Y-87215762D01*
X115933441Y-87383718D01*
X116076281Y-87526558D01*
X116244237Y-87638782D01*
X116244241Y-87638784D01*
X116244244Y-87638786D01*
X116430873Y-87716091D01*
X116628992Y-87755499D01*
X116628996Y-87755500D01*
X116628997Y-87755500D01*
X116831004Y-87755500D01*
X116831005Y-87755499D01*
X117029127Y-87716091D01*
X117215756Y-87638786D01*
X117383718Y-87526558D01*
X117526558Y-87383718D01*
X117638786Y-87215756D01*
X117716091Y-87029127D01*
X117755500Y-86831003D01*
X117755500Y-86628997D01*
X117755499Y-86628992D01*
X118244500Y-86628992D01*
X118244500Y-86831007D01*
X118283907Y-87029119D01*
X118283909Y-87029127D01*
X118361212Y-87215752D01*
X118361217Y-87215762D01*
X118473441Y-87383718D01*
X118616281Y-87526558D01*
X118784237Y-87638782D01*
X118784241Y-87638784D01*
X118784244Y-87638786D01*
X118970873Y-87716091D01*
X119168992Y-87755499D01*
X119168996Y-87755500D01*
X119168997Y-87755500D01*
X119371004Y-87755500D01*
X119371005Y-87755499D01*
X119569127Y-87716091D01*
X119755756Y-87638786D01*
X119923718Y-87526558D01*
X120066558Y-87383718D01*
X120178786Y-87215756D01*
X120256091Y-87029127D01*
X120295500Y-86831003D01*
X120295500Y-86628997D01*
X120256091Y-86430873D01*
X120178786Y-86244244D01*
X120178784Y-86244241D01*
X120178782Y-86244237D01*
X120066558Y-86076281D01*
X119923718Y-85933441D01*
X119755762Y-85821217D01*
X119755752Y-85821212D01*
X119569127Y-85743909D01*
X119569119Y-85743907D01*
X119371007Y-85704500D01*
X119371003Y-85704500D01*
X119168997Y-85704500D01*
X119168992Y-85704500D01*
X118970880Y-85743907D01*
X118970872Y-85743909D01*
X118784247Y-85821212D01*
X118784237Y-85821217D01*
X118616281Y-85933441D01*
X118473441Y-86076281D01*
X118361217Y-86244237D01*
X118361212Y-86244247D01*
X118283909Y-86430872D01*
X118283907Y-86430880D01*
X118244500Y-86628992D01*
X117755499Y-86628992D01*
X117716091Y-86430873D01*
X117638786Y-86244244D01*
X117638784Y-86244241D01*
X117638782Y-86244237D01*
X117526558Y-86076281D01*
X117383718Y-85933441D01*
X117215762Y-85821217D01*
X117215752Y-85821212D01*
X117029127Y-85743909D01*
X117029119Y-85743907D01*
X116831007Y-85704500D01*
X116831003Y-85704500D01*
X116628997Y-85704500D01*
X116628992Y-85704500D01*
X116430880Y-85743907D01*
X116430872Y-85743909D01*
X116244247Y-85821212D01*
X116244237Y-85821217D01*
X116076281Y-85933441D01*
X115933441Y-86076281D01*
X115821217Y-86244237D01*
X115821212Y-86244247D01*
X115743909Y-86430872D01*
X115743907Y-86430880D01*
X115704500Y-86628992D01*
X30860500Y-86628992D01*
X30860500Y-84204108D01*
X48729500Y-84204108D01*
X48729500Y-84335892D01*
X48737579Y-84366044D01*
X48763608Y-84463187D01*
X48796554Y-84520250D01*
X48829500Y-84577314D01*
X48922686Y-84670500D01*
X49036814Y-84736392D01*
X49164108Y-84770500D01*
X49164110Y-84770500D01*
X49295890Y-84770500D01*
X49295892Y-84770500D01*
X49323408Y-84763127D01*
X49393256Y-84764790D01*
X49451119Y-84803952D01*
X49478623Y-84868181D01*
X49479500Y-84882902D01*
X49479500Y-84965892D01*
X49496554Y-85029539D01*
X49513608Y-85093187D01*
X49546554Y-85150250D01*
X49579500Y-85207314D01*
X49672686Y-85300500D01*
X49786814Y-85366392D01*
X49914108Y-85400500D01*
X49914110Y-85400500D01*
X50045890Y-85400500D01*
X50045892Y-85400500D01*
X50173186Y-85366392D01*
X50287314Y-85300500D01*
X50380500Y-85207314D01*
X50446392Y-85093186D01*
X50480500Y-84965892D01*
X50480500Y-84834108D01*
X50446392Y-84706814D01*
X50380500Y-84592686D01*
X50287314Y-84499500D01*
X50224418Y-84463187D01*
X50173187Y-84433608D01*
X50084463Y-84409835D01*
X50045892Y-84399500D01*
X49914108Y-84399500D01*
X49886590Y-84406873D01*
X49861596Y-84406277D01*
X49836853Y-84409835D01*
X49827270Y-84405459D01*
X49816740Y-84405208D01*
X49796037Y-84391195D01*
X49773297Y-84380810D01*
X49767601Y-84371948D01*
X49758879Y-84366044D01*
X49749039Y-84343063D01*
X49735523Y-84322032D01*
X49733242Y-84306172D01*
X49731377Y-84301815D01*
X49730500Y-84287097D01*
X49730500Y-84244108D01*
X96049500Y-84244108D01*
X96049500Y-84375892D01*
X96057642Y-84406277D01*
X96083608Y-84503187D01*
X96116554Y-84560250D01*
X96149500Y-84617314D01*
X96242686Y-84710500D01*
X96356814Y-84776392D01*
X96484108Y-84810500D01*
X96484110Y-84810500D01*
X96615890Y-84810500D01*
X96615892Y-84810500D01*
X96743186Y-84776392D01*
X96857314Y-84710500D01*
X96950500Y-84617314D01*
X97016392Y-84503186D01*
X97050500Y-84375892D01*
X97050500Y-84244108D01*
X97016392Y-84116814D01*
X97000329Y-84088992D01*
X115704500Y-84088992D01*
X115704500Y-84291007D01*
X115743907Y-84489119D01*
X115743909Y-84489127D01*
X115821212Y-84675752D01*
X115821217Y-84675762D01*
X115933441Y-84843718D01*
X116076281Y-84986558D01*
X116244237Y-85098782D01*
X116244241Y-85098784D01*
X116244244Y-85098786D01*
X116430873Y-85176091D01*
X116587838Y-85207313D01*
X116628992Y-85215499D01*
X116628996Y-85215500D01*
X116628997Y-85215500D01*
X116831004Y-85215500D01*
X116831005Y-85215499D01*
X117029127Y-85176091D01*
X117215756Y-85098786D01*
X117383718Y-84986558D01*
X117526558Y-84843718D01*
X117638786Y-84675756D01*
X117716091Y-84489127D01*
X117755500Y-84291003D01*
X117755500Y-84088997D01*
X117755499Y-84088992D01*
X118244500Y-84088992D01*
X118244500Y-84291007D01*
X118283907Y-84489119D01*
X118283909Y-84489127D01*
X118361212Y-84675752D01*
X118361217Y-84675762D01*
X118473441Y-84843718D01*
X118616281Y-84986558D01*
X118784237Y-85098782D01*
X118784241Y-85098784D01*
X118784244Y-85098786D01*
X118970873Y-85176091D01*
X119127838Y-85207313D01*
X119168992Y-85215499D01*
X119168996Y-85215500D01*
X119168997Y-85215500D01*
X119371004Y-85215500D01*
X119371005Y-85215499D01*
X119569127Y-85176091D01*
X119755756Y-85098786D01*
X119923718Y-84986558D01*
X120066558Y-84843718D01*
X120178786Y-84675756D01*
X120256091Y-84489127D01*
X120295500Y-84291003D01*
X120295500Y-84088997D01*
X120256091Y-83890873D01*
X120178786Y-83704244D01*
X120178784Y-83704241D01*
X120178782Y-83704237D01*
X120066558Y-83536281D01*
X119923718Y-83393441D01*
X119755762Y-83281217D01*
X119755752Y-83281212D01*
X119569127Y-83203909D01*
X119569119Y-83203907D01*
X119371007Y-83164500D01*
X119371003Y-83164500D01*
X119168997Y-83164500D01*
X119168992Y-83164500D01*
X118970880Y-83203907D01*
X118970872Y-83203909D01*
X118784247Y-83281212D01*
X118784237Y-83281217D01*
X118616281Y-83393441D01*
X118473441Y-83536281D01*
X118361217Y-83704237D01*
X118361212Y-83704247D01*
X118283909Y-83890872D01*
X118283907Y-83890880D01*
X118244500Y-84088992D01*
X117755499Y-84088992D01*
X117716091Y-83890873D01*
X117638786Y-83704244D01*
X117638784Y-83704241D01*
X117638782Y-83704237D01*
X117526558Y-83536281D01*
X117383718Y-83393441D01*
X117215762Y-83281217D01*
X117215752Y-83281212D01*
X117029127Y-83203909D01*
X117029119Y-83203907D01*
X116831007Y-83164500D01*
X116831003Y-83164500D01*
X116628997Y-83164500D01*
X116628992Y-83164500D01*
X116430880Y-83203907D01*
X116430872Y-83203909D01*
X116244247Y-83281212D01*
X116244237Y-83281217D01*
X116076281Y-83393441D01*
X115933441Y-83536281D01*
X115821217Y-83704237D01*
X115821212Y-83704247D01*
X115743909Y-83890872D01*
X115743907Y-83890880D01*
X115704500Y-84088992D01*
X97000329Y-84088992D01*
X96950500Y-84002686D01*
X96857314Y-83909500D01*
X96788032Y-83869500D01*
X96743187Y-83843608D01*
X96679539Y-83826554D01*
X96615892Y-83809500D01*
X96484108Y-83809500D01*
X96356812Y-83843608D01*
X96242686Y-83909500D01*
X96242683Y-83909502D01*
X96149502Y-84002683D01*
X96149500Y-84002686D01*
X96083608Y-84116812D01*
X96060218Y-84204108D01*
X96049500Y-84244108D01*
X49730500Y-84244108D01*
X49730500Y-84204110D01*
X49730500Y-84204108D01*
X49696392Y-84076814D01*
X49630500Y-83962686D01*
X49537314Y-83869500D01*
X49480250Y-83836554D01*
X49423187Y-83803608D01*
X49359539Y-83786554D01*
X49295892Y-83769500D01*
X49164108Y-83769500D01*
X49036812Y-83803608D01*
X48922686Y-83869500D01*
X48922683Y-83869502D01*
X48829502Y-83962683D01*
X48829500Y-83962686D01*
X48763608Y-84076812D01*
X48752890Y-84116814D01*
X48729500Y-84204108D01*
X30860500Y-84204108D01*
X30860500Y-82964108D01*
X96049500Y-82964108D01*
X96049500Y-83095891D01*
X96083608Y-83223187D01*
X96116554Y-83280250D01*
X96149500Y-83337314D01*
X96242686Y-83430500D01*
X96356814Y-83496392D01*
X96484108Y-83530500D01*
X96484110Y-83530500D01*
X96615890Y-83530500D01*
X96615892Y-83530500D01*
X96743186Y-83496392D01*
X96857314Y-83430500D01*
X96950500Y-83337314D01*
X97016392Y-83223186D01*
X97050500Y-83095892D01*
X97050500Y-82964108D01*
X97016392Y-82836814D01*
X96950500Y-82722686D01*
X96857314Y-82629500D01*
X96800250Y-82596554D01*
X96743187Y-82563608D01*
X96710618Y-82554881D01*
X96615892Y-82529500D01*
X96484108Y-82529500D01*
X96421948Y-82546155D01*
X96356812Y-82563608D01*
X96242686Y-82629500D01*
X96242683Y-82629502D01*
X96149502Y-82722683D01*
X96149500Y-82722686D01*
X96083608Y-82836812D01*
X96049500Y-82964108D01*
X30860500Y-82964108D01*
X30860500Y-79224108D01*
X61469500Y-79224108D01*
X61469500Y-79355891D01*
X61503608Y-79483187D01*
X61536554Y-79540250D01*
X61569500Y-79597314D01*
X61569502Y-79597316D01*
X61599505Y-79627319D01*
X61632990Y-79688642D01*
X61628006Y-79758334D01*
X61599505Y-79802681D01*
X61569502Y-79832683D01*
X61569500Y-79832686D01*
X61503608Y-79946812D01*
X61486811Y-80009500D01*
X61469500Y-80074108D01*
X61469500Y-80205892D01*
X61469897Y-80207372D01*
X61503608Y-80333187D01*
X61509915Y-80344110D01*
X61569500Y-80447314D01*
X61662686Y-80540500D01*
X61776814Y-80606392D01*
X61904108Y-80640500D01*
X61904110Y-80640500D01*
X62035890Y-80640500D01*
X62035892Y-80640500D01*
X62163186Y-80606392D01*
X62201783Y-80584108D01*
X96049500Y-80584108D01*
X96049500Y-80715892D01*
X96056285Y-80741214D01*
X96083608Y-80843187D01*
X96116554Y-80900250D01*
X96149500Y-80957314D01*
X96242686Y-81050500D01*
X96321312Y-81095895D01*
X96358928Y-81117613D01*
X96407143Y-81168181D01*
X96420365Y-81236788D01*
X96394397Y-81301652D01*
X96358928Y-81332387D01*
X96242686Y-81399500D01*
X96242683Y-81399502D01*
X96149502Y-81492683D01*
X96149500Y-81492686D01*
X96083608Y-81606812D01*
X96049500Y-81734108D01*
X96049500Y-81865891D01*
X96083608Y-81993187D01*
X96116554Y-82050250D01*
X96149500Y-82107314D01*
X96242686Y-82200500D01*
X96356814Y-82266392D01*
X96484108Y-82300500D01*
X96615892Y-82300500D01*
X96743186Y-82266392D01*
X96857314Y-82200500D01*
X96950500Y-82107314D01*
X97016392Y-81993186D01*
X97050500Y-81865892D01*
X97050500Y-81734108D01*
X97016392Y-81606814D01*
X97015291Y-81604908D01*
X97015291Y-81604906D01*
X97015290Y-81604905D01*
X96983011Y-81548997D01*
X96983008Y-81548992D01*
X115704500Y-81548992D01*
X115704500Y-81751007D01*
X115743907Y-81949119D01*
X115743909Y-81949127D01*
X115821212Y-82135752D01*
X115821217Y-82135762D01*
X115933441Y-82303718D01*
X116076281Y-82446558D01*
X116244237Y-82558782D01*
X116244241Y-82558784D01*
X116244244Y-82558786D01*
X116430873Y-82636091D01*
X116628992Y-82675499D01*
X116628996Y-82675500D01*
X116628997Y-82675500D01*
X116831004Y-82675500D01*
X116831005Y-82675499D01*
X117029127Y-82636091D01*
X117215756Y-82558786D01*
X117383718Y-82446558D01*
X117526558Y-82303718D01*
X117638786Y-82135756D01*
X117716091Y-81949127D01*
X117755500Y-81751003D01*
X117755500Y-81548997D01*
X117716091Y-81350873D01*
X117638786Y-81164244D01*
X117638784Y-81164241D01*
X117638782Y-81164237D01*
X117526558Y-80996281D01*
X117383718Y-80853441D01*
X117215762Y-80741217D01*
X117215752Y-80741212D01*
X117029127Y-80663909D01*
X117029119Y-80663907D01*
X116831007Y-80624500D01*
X116831003Y-80624500D01*
X116628997Y-80624500D01*
X116628992Y-80624500D01*
X116430880Y-80663907D01*
X116430872Y-80663909D01*
X116244247Y-80741212D01*
X116244237Y-80741217D01*
X116076281Y-80853441D01*
X115933441Y-80996281D01*
X115821217Y-81164237D01*
X115821212Y-81164247D01*
X115743909Y-81350872D01*
X115743907Y-81350880D01*
X115704500Y-81548992D01*
X96983008Y-81548992D01*
X96950500Y-81492686D01*
X96857314Y-81399500D01*
X96857312Y-81399499D01*
X96857310Y-81399497D01*
X96741072Y-81332387D01*
X96692856Y-81281820D01*
X96679634Y-81213213D01*
X96705602Y-81148348D01*
X96741072Y-81117613D01*
X96811658Y-81076859D01*
X96857314Y-81050500D01*
X96950500Y-80957314D01*
X97016392Y-80843186D01*
X97050500Y-80715892D01*
X97050500Y-80584108D01*
X97016392Y-80456814D01*
X96950500Y-80342686D01*
X96857314Y-80249500D01*
X96800250Y-80216554D01*
X96743187Y-80183608D01*
X96679539Y-80166554D01*
X96615892Y-80149500D01*
X96484108Y-80149500D01*
X96356812Y-80183608D01*
X96242686Y-80249500D01*
X96242683Y-80249502D01*
X96149502Y-80342683D01*
X96149500Y-80342686D01*
X96083608Y-80456812D01*
X96055516Y-80561657D01*
X96049500Y-80584108D01*
X62201783Y-80584108D01*
X62277314Y-80540500D01*
X62370500Y-80447314D01*
X62436392Y-80333186D01*
X62470500Y-80205892D01*
X62470500Y-80074108D01*
X62436392Y-79946814D01*
X62370500Y-79832686D01*
X62340495Y-79802681D01*
X62307010Y-79741358D01*
X62311994Y-79671666D01*
X62340495Y-79627319D01*
X62349187Y-79618627D01*
X62370500Y-79597314D01*
X62436392Y-79483186D01*
X62470500Y-79355892D01*
X62470500Y-79224108D01*
X62462462Y-79194108D01*
X96049500Y-79194108D01*
X96049500Y-79325892D01*
X96059475Y-79363121D01*
X96083608Y-79453187D01*
X96100929Y-79483187D01*
X96149500Y-79567314D01*
X96242686Y-79660500D01*
X96356814Y-79726392D01*
X96484108Y-79760500D01*
X96484110Y-79760500D01*
X96615890Y-79760500D01*
X96615892Y-79760500D01*
X96743186Y-79726392D01*
X96857314Y-79660500D01*
X96950500Y-79567314D01*
X97016392Y-79453186D01*
X97050500Y-79325892D01*
X97050500Y-79194108D01*
X97016392Y-79066814D01*
X97015291Y-79064908D01*
X97015291Y-79064906D01*
X97015290Y-79064905D01*
X96983008Y-79008992D01*
X115704500Y-79008992D01*
X115704500Y-79211007D01*
X115743907Y-79409119D01*
X115743909Y-79409127D01*
X115821212Y-79595752D01*
X115821217Y-79595762D01*
X115933441Y-79763718D01*
X116076281Y-79906558D01*
X116244237Y-80018782D01*
X116244241Y-80018784D01*
X116244244Y-80018786D01*
X116430873Y-80096091D01*
X116628992Y-80135499D01*
X116628996Y-80135500D01*
X116628997Y-80135500D01*
X116831004Y-80135500D01*
X116831005Y-80135499D01*
X117029127Y-80096091D01*
X117215756Y-80018786D01*
X117383718Y-79906558D01*
X117526558Y-79763718D01*
X117638786Y-79595756D01*
X117716091Y-79409127D01*
X117725242Y-79363117D01*
X117757625Y-79301210D01*
X117818340Y-79266634D01*
X117888110Y-79270372D01*
X117944782Y-79311238D01*
X117969332Y-79367910D01*
X117977626Y-79420274D01*
X118042075Y-79618627D01*
X118136759Y-79804451D01*
X118172627Y-79853818D01*
X118172627Y-79853819D01*
X118746212Y-79280234D01*
X118757482Y-79322292D01*
X118829890Y-79447708D01*
X118932292Y-79550110D01*
X119057708Y-79622518D01*
X119099765Y-79633787D01*
X118526179Y-80207371D01*
X118526180Y-80207372D01*
X118575543Y-80243236D01*
X118575556Y-80243244D01*
X118761372Y-80337924D01*
X118959727Y-80402373D01*
X119012087Y-80410667D01*
X119075222Y-80440596D01*
X119112153Y-80499908D01*
X119111155Y-80569770D01*
X119072545Y-80628003D01*
X119016881Y-80654757D01*
X118970878Y-80663907D01*
X118970872Y-80663909D01*
X118784247Y-80741212D01*
X118784237Y-80741217D01*
X118616281Y-80853441D01*
X118473441Y-80996281D01*
X118361217Y-81164237D01*
X118361212Y-81164247D01*
X118283909Y-81350872D01*
X118283907Y-81350880D01*
X118244500Y-81548992D01*
X118244500Y-81751007D01*
X118283907Y-81949119D01*
X118283909Y-81949127D01*
X118361212Y-82135752D01*
X118361217Y-82135762D01*
X118473441Y-82303718D01*
X118616281Y-82446558D01*
X118784237Y-82558782D01*
X118784241Y-82558784D01*
X118784244Y-82558786D01*
X118970873Y-82636091D01*
X119168992Y-82675499D01*
X119168996Y-82675500D01*
X119168997Y-82675500D01*
X119371004Y-82675500D01*
X119371005Y-82675499D01*
X119569127Y-82636091D01*
X119755756Y-82558786D01*
X119923718Y-82446558D01*
X120066558Y-82303718D01*
X120178786Y-82135756D01*
X120256091Y-81949127D01*
X120295500Y-81751003D01*
X120295500Y-81548997D01*
X120256091Y-81350873D01*
X120178786Y-81164244D01*
X120178784Y-81164241D01*
X120178782Y-81164237D01*
X120066558Y-80996281D01*
X119923718Y-80853441D01*
X119755762Y-80741217D01*
X119755752Y-80741212D01*
X119569127Y-80663909D01*
X119569119Y-80663907D01*
X119523119Y-80654757D01*
X119461208Y-80622372D01*
X119426634Y-80561657D01*
X119430373Y-80491887D01*
X119471239Y-80435215D01*
X119527912Y-80410667D01*
X119580273Y-80402373D01*
X119759595Y-80344108D01*
X138369500Y-80344108D01*
X138369500Y-80475891D01*
X138403608Y-80603187D01*
X138417936Y-80628003D01*
X138469500Y-80717314D01*
X138562686Y-80810500D01*
X138676814Y-80876392D01*
X138804108Y-80910500D01*
X138804110Y-80910500D01*
X138935890Y-80910500D01*
X138935892Y-80910500D01*
X139063186Y-80876392D01*
X139177314Y-80810500D01*
X139270500Y-80717314D01*
X139336392Y-80603186D01*
X139370500Y-80475892D01*
X139370500Y-80344108D01*
X139336392Y-80216814D01*
X139270500Y-80102686D01*
X139177314Y-80009500D01*
X139120250Y-79976554D01*
X139063187Y-79943608D01*
X138999539Y-79926554D01*
X138935892Y-79909500D01*
X138804108Y-79909500D01*
X138676812Y-79943608D01*
X138562686Y-80009500D01*
X138562683Y-80009502D01*
X138469502Y-80102683D01*
X138469500Y-80102686D01*
X138403608Y-80216812D01*
X138369500Y-80344108D01*
X119759595Y-80344108D01*
X119778627Y-80337924D01*
X119964451Y-80243240D01*
X119974878Y-80235665D01*
X119974879Y-80235664D01*
X120013818Y-80207371D01*
X119440234Y-79633787D01*
X119482292Y-79622518D01*
X119607708Y-79550110D01*
X119710110Y-79447708D01*
X119782518Y-79322292D01*
X119793787Y-79280234D01*
X120367371Y-79853818D01*
X120367372Y-79853818D01*
X120403240Y-79804451D01*
X120497924Y-79618627D01*
X120562373Y-79420272D01*
X120595000Y-79214279D01*
X120595000Y-79005720D01*
X120562373Y-78799727D01*
X120497924Y-78601372D01*
X120403244Y-78415556D01*
X120403236Y-78415543D01*
X120367372Y-78366180D01*
X120367371Y-78366179D01*
X119793787Y-78939764D01*
X119782518Y-78897708D01*
X119710110Y-78772292D01*
X119607708Y-78669890D01*
X119482292Y-78597482D01*
X119440233Y-78586212D01*
X120013819Y-78012627D01*
X119964451Y-77976759D01*
X119778627Y-77882075D01*
X119580274Y-77817626D01*
X119527910Y-77809332D01*
X119464776Y-77779402D01*
X119427846Y-77720090D01*
X119428844Y-77650227D01*
X119467455Y-77591995D01*
X119523117Y-77565242D01*
X119569127Y-77556091D01*
X119755756Y-77478786D01*
X119923718Y-77366558D01*
X120066558Y-77223718D01*
X120178786Y-77055756D01*
X120256091Y-76869127D01*
X120295500Y-76671003D01*
X120295500Y-76468997D01*
X120256091Y-76270873D01*
X120178786Y-76084244D01*
X120178784Y-76084241D01*
X120178782Y-76084237D01*
X120066558Y-75916281D01*
X119923718Y-75773441D01*
X119755762Y-75661217D01*
X119755752Y-75661212D01*
X119569127Y-75583909D01*
X119569119Y-75583907D01*
X119371007Y-75544500D01*
X119371003Y-75544500D01*
X119168997Y-75544500D01*
X119168992Y-75544500D01*
X118970880Y-75583907D01*
X118970872Y-75583909D01*
X118784247Y-75661212D01*
X118784237Y-75661217D01*
X118616281Y-75773441D01*
X118473441Y-75916281D01*
X118361217Y-76084237D01*
X118361212Y-76084247D01*
X118283909Y-76270872D01*
X118283907Y-76270880D01*
X118244500Y-76468992D01*
X118244500Y-76671007D01*
X118283907Y-76869119D01*
X118283909Y-76869127D01*
X118361212Y-77055752D01*
X118361217Y-77055762D01*
X118473441Y-77223718D01*
X118616281Y-77366558D01*
X118784237Y-77478782D01*
X118784241Y-77478784D01*
X118784244Y-77478786D01*
X118970873Y-77556091D01*
X119016880Y-77565242D01*
X119078790Y-77597625D01*
X119113365Y-77658340D01*
X119109626Y-77728110D01*
X119068761Y-77784783D01*
X119012089Y-77809332D01*
X118959725Y-77817626D01*
X118761372Y-77882075D01*
X118575552Y-77976757D01*
X118526180Y-78012627D01*
X119099766Y-78586212D01*
X119057708Y-78597482D01*
X118932292Y-78669890D01*
X118829890Y-78772292D01*
X118757482Y-78897708D01*
X118746212Y-78939765D01*
X118172627Y-78366180D01*
X118136757Y-78415552D01*
X118042075Y-78601372D01*
X117977626Y-78799725D01*
X117969332Y-78852089D01*
X117939401Y-78915223D01*
X117880089Y-78952153D01*
X117810227Y-78951155D01*
X117751995Y-78912544D01*
X117725242Y-78856881D01*
X117716091Y-78810873D01*
X117638786Y-78624244D01*
X117638784Y-78624241D01*
X117638782Y-78624237D01*
X117526558Y-78456281D01*
X117383718Y-78313441D01*
X117215762Y-78201217D01*
X117215752Y-78201212D01*
X117029127Y-78123909D01*
X117029119Y-78123907D01*
X116831007Y-78084500D01*
X116831003Y-78084500D01*
X116628997Y-78084500D01*
X116628992Y-78084500D01*
X116430880Y-78123907D01*
X116430872Y-78123909D01*
X116244247Y-78201212D01*
X116244237Y-78201217D01*
X116076281Y-78313441D01*
X115933441Y-78456281D01*
X115821217Y-78624237D01*
X115821212Y-78624247D01*
X115743909Y-78810872D01*
X115743907Y-78810880D01*
X115704500Y-79008992D01*
X96983008Y-79008992D01*
X96981119Y-79005720D01*
X96950500Y-78952686D01*
X96857314Y-78859500D01*
X96773090Y-78810873D01*
X96743187Y-78793608D01*
X96663633Y-78772292D01*
X96615892Y-78759500D01*
X96484108Y-78759500D01*
X96356812Y-78793608D01*
X96242686Y-78859500D01*
X96242683Y-78859502D01*
X96149502Y-78952683D01*
X96149500Y-78952686D01*
X96083608Y-79066812D01*
X96072036Y-79110000D01*
X96049500Y-79194108D01*
X62462462Y-79194108D01*
X62436392Y-79096814D01*
X62370500Y-78982686D01*
X62277314Y-78889500D01*
X62220250Y-78856554D01*
X62163187Y-78823608D01*
X62074060Y-78799727D01*
X62035892Y-78789500D01*
X61904108Y-78789500D01*
X61776812Y-78823608D01*
X61662686Y-78889500D01*
X61662683Y-78889502D01*
X61569502Y-78982683D01*
X61569500Y-78982686D01*
X61503608Y-79096812D01*
X61469500Y-79224108D01*
X30860500Y-79224108D01*
X30860500Y-77684108D01*
X95959500Y-77684108D01*
X95959500Y-77815891D01*
X95993608Y-77943187D01*
X96012990Y-77976757D01*
X96059500Y-78057314D01*
X96152686Y-78150500D01*
X96266814Y-78216392D01*
X96394108Y-78250500D01*
X96394110Y-78250500D01*
X96525890Y-78250500D01*
X96525892Y-78250500D01*
X96653186Y-78216392D01*
X96767314Y-78150500D01*
X96860500Y-78057314D01*
X96926392Y-77943186D01*
X96960500Y-77815892D01*
X96960500Y-77684108D01*
X96926392Y-77556814D01*
X96860500Y-77442686D01*
X96767314Y-77349500D01*
X96767311Y-77349498D01*
X96767307Y-77349495D01*
X96758030Y-77344139D01*
X96709816Y-77293571D01*
X96696595Y-77224963D01*
X96722565Y-77160099D01*
X96758033Y-77129367D01*
X96763186Y-77126392D01*
X96877314Y-77060500D01*
X96970500Y-76967314D01*
X97036392Y-76853186D01*
X97070500Y-76725892D01*
X97070500Y-76594108D01*
X97036976Y-76468992D01*
X115704500Y-76468992D01*
X115704500Y-76671007D01*
X115743907Y-76869119D01*
X115743909Y-76869127D01*
X115821212Y-77055752D01*
X115821217Y-77055762D01*
X115933441Y-77223718D01*
X116076281Y-77366558D01*
X116244237Y-77478782D01*
X116244241Y-77478784D01*
X116244244Y-77478786D01*
X116430873Y-77556091D01*
X116611376Y-77591995D01*
X116628992Y-77595499D01*
X116628996Y-77595500D01*
X116628997Y-77595500D01*
X116831004Y-77595500D01*
X116831005Y-77595499D01*
X117029127Y-77556091D01*
X117215756Y-77478786D01*
X117383718Y-77366558D01*
X117526558Y-77223718D01*
X117638786Y-77055756D01*
X117716091Y-76869127D01*
X117755500Y-76671003D01*
X117755500Y-76468997D01*
X117716091Y-76270873D01*
X117638786Y-76084244D01*
X117638784Y-76084241D01*
X117638782Y-76084237D01*
X117526558Y-75916281D01*
X117383718Y-75773441D01*
X117215762Y-75661217D01*
X117215752Y-75661212D01*
X117029127Y-75583909D01*
X117029119Y-75583907D01*
X116831007Y-75544500D01*
X116831003Y-75544500D01*
X116628997Y-75544500D01*
X116628992Y-75544500D01*
X116430880Y-75583907D01*
X116430872Y-75583909D01*
X116244247Y-75661212D01*
X116244237Y-75661217D01*
X116076281Y-75773441D01*
X115933441Y-75916281D01*
X115821217Y-76084237D01*
X115821212Y-76084247D01*
X115743909Y-76270872D01*
X115743907Y-76270880D01*
X115704500Y-76468992D01*
X97036976Y-76468992D01*
X97036392Y-76466814D01*
X96970500Y-76352686D01*
X96877314Y-76259500D01*
X96763186Y-76193608D01*
X96701556Y-76177094D01*
X96641897Y-76140730D01*
X96611368Y-76077883D01*
X96619663Y-76008507D01*
X96664148Y-75954629D01*
X96701554Y-75937546D01*
X96743186Y-75926392D01*
X96857314Y-75860500D01*
X96950500Y-75767314D01*
X97016392Y-75653186D01*
X97050500Y-75525892D01*
X97050500Y-75394108D01*
X97016392Y-75266814D01*
X96950500Y-75152686D01*
X96857314Y-75059500D01*
X96800250Y-75026554D01*
X96743187Y-74993608D01*
X96679539Y-74976554D01*
X96615892Y-74959500D01*
X96484108Y-74959500D01*
X96356812Y-74993608D01*
X96242686Y-75059500D01*
X96242683Y-75059502D01*
X96149502Y-75152683D01*
X96149500Y-75152686D01*
X96083608Y-75266812D01*
X96078249Y-75286814D01*
X96049500Y-75394108D01*
X96049500Y-75525892D01*
X96054859Y-75545891D01*
X96083608Y-75653187D01*
X96116554Y-75710250D01*
X96149500Y-75767314D01*
X96242686Y-75860500D01*
X96356814Y-75926392D01*
X96418443Y-75942905D01*
X96478101Y-75979268D01*
X96508631Y-76042115D01*
X96500337Y-76111491D01*
X96455852Y-76165369D01*
X96418442Y-76182454D01*
X96376812Y-76193608D01*
X96262686Y-76259500D01*
X96262683Y-76259502D01*
X96169502Y-76352683D01*
X96169500Y-76352686D01*
X96103608Y-76466812D01*
X96103024Y-76468992D01*
X96069500Y-76594108D01*
X96069500Y-76725892D01*
X96070735Y-76730500D01*
X96103608Y-76853187D01*
X96136554Y-76910250D01*
X96169500Y-76967314D01*
X96262686Y-77060500D01*
X96271967Y-77065858D01*
X96320182Y-77116426D01*
X96333404Y-77185033D01*
X96307436Y-77249898D01*
X96271967Y-77280632D01*
X96152686Y-77349500D01*
X96152683Y-77349502D01*
X96059502Y-77442683D01*
X96059500Y-77442686D01*
X95993608Y-77556812D01*
X95959500Y-77684108D01*
X30860500Y-77684108D01*
X30860500Y-75414108D01*
X61199500Y-75414108D01*
X61199500Y-75545891D01*
X61233608Y-75673187D01*
X61266554Y-75730250D01*
X61299500Y-75787314D01*
X61299502Y-75787316D01*
X61329505Y-75817319D01*
X61362990Y-75878642D01*
X61358006Y-75948334D01*
X61329505Y-75992681D01*
X61299502Y-76022683D01*
X61299500Y-76022686D01*
X61233608Y-76136812D01*
X61199500Y-76264108D01*
X61199500Y-76395891D01*
X61233608Y-76523187D01*
X61266554Y-76580250D01*
X61299500Y-76637314D01*
X61392686Y-76730500D01*
X61506814Y-76796392D01*
X61634108Y-76830500D01*
X61634110Y-76830500D01*
X61765890Y-76830500D01*
X61765892Y-76830500D01*
X61893186Y-76796392D01*
X62007314Y-76730500D01*
X62100500Y-76637314D01*
X62166392Y-76523186D01*
X62200500Y-76395892D01*
X62200500Y-76264108D01*
X62166392Y-76136814D01*
X62100500Y-76022686D01*
X62070495Y-75992681D01*
X62037010Y-75931358D01*
X62041994Y-75861666D01*
X62070495Y-75817319D01*
X62100500Y-75787314D01*
X62166392Y-75673186D01*
X62200500Y-75545892D01*
X62200500Y-75414108D01*
X62166392Y-75286814D01*
X62100500Y-75172686D01*
X62007314Y-75079500D01*
X61950250Y-75046554D01*
X61893187Y-75013608D01*
X61818544Y-74993608D01*
X61765892Y-74979500D01*
X61634108Y-74979500D01*
X61506812Y-75013608D01*
X61392686Y-75079500D01*
X61392683Y-75079502D01*
X61299502Y-75172683D01*
X61299500Y-75172686D01*
X61233608Y-75286812D01*
X61199500Y-75414108D01*
X30860500Y-75414108D01*
X30860500Y-74034629D01*
X33608979Y-74034629D01*
X33608979Y-74166412D01*
X33643087Y-74293708D01*
X33663532Y-74329119D01*
X33708979Y-74407835D01*
X33802165Y-74501021D01*
X33916293Y-74566913D01*
X34043587Y-74601021D01*
X34043589Y-74601021D01*
X34175369Y-74601021D01*
X34175371Y-74601021D01*
X34302665Y-74566913D01*
X34416793Y-74501021D01*
X34509979Y-74407835D01*
X34575871Y-74293707D01*
X34609979Y-74166413D01*
X34609979Y-74123979D01*
X34629664Y-74056940D01*
X34667554Y-74024108D01*
X96049500Y-74024108D01*
X96049500Y-74155891D01*
X96083608Y-74283187D01*
X96110127Y-74329119D01*
X96149500Y-74397314D01*
X96242686Y-74490500D01*
X96356814Y-74556392D01*
X96484108Y-74590500D01*
X96484110Y-74590500D01*
X96615890Y-74590500D01*
X96615892Y-74590500D01*
X96743186Y-74556392D01*
X96857314Y-74490500D01*
X96950500Y-74397314D01*
X97016392Y-74283186D01*
X97050500Y-74155892D01*
X97050500Y-74024108D01*
X97025014Y-73928992D01*
X115704500Y-73928992D01*
X115704500Y-74131007D01*
X115743907Y-74329119D01*
X115743909Y-74329127D01*
X115821212Y-74515752D01*
X115821217Y-74515762D01*
X115933441Y-74683718D01*
X116076281Y-74826558D01*
X116244237Y-74938782D01*
X116244241Y-74938784D01*
X116244244Y-74938786D01*
X116430873Y-75016091D01*
X116628992Y-75055499D01*
X116628996Y-75055500D01*
X116628997Y-75055500D01*
X116831004Y-75055500D01*
X116831005Y-75055499D01*
X117029127Y-75016091D01*
X117215756Y-74938786D01*
X117383718Y-74826558D01*
X117526558Y-74683718D01*
X117638786Y-74515756D01*
X117716091Y-74329127D01*
X117755500Y-74131003D01*
X117755500Y-73928997D01*
X117755499Y-73928992D01*
X118244500Y-73928992D01*
X118244500Y-74131007D01*
X118283907Y-74329119D01*
X118283909Y-74329127D01*
X118361212Y-74515752D01*
X118361217Y-74515762D01*
X118473441Y-74683718D01*
X118616281Y-74826558D01*
X118784237Y-74938782D01*
X118784241Y-74938784D01*
X118784244Y-74938786D01*
X118970873Y-75016091D01*
X119168992Y-75055499D01*
X119168996Y-75055500D01*
X119168997Y-75055500D01*
X119371004Y-75055500D01*
X119371005Y-75055499D01*
X119569127Y-75016091D01*
X119755756Y-74938786D01*
X119923718Y-74826558D01*
X120066558Y-74683718D01*
X120178786Y-74515756D01*
X120256091Y-74329127D01*
X120295500Y-74131003D01*
X120295500Y-73928997D01*
X120256091Y-73730873D01*
X120178786Y-73544244D01*
X120178784Y-73544241D01*
X120178782Y-73544237D01*
X120066558Y-73376281D01*
X119923718Y-73233441D01*
X119755762Y-73121217D01*
X119755752Y-73121212D01*
X119569127Y-73043909D01*
X119569119Y-73043907D01*
X119371007Y-73004500D01*
X119371003Y-73004500D01*
X119168997Y-73004500D01*
X119168992Y-73004500D01*
X118970880Y-73043907D01*
X118970872Y-73043909D01*
X118784247Y-73121212D01*
X118784237Y-73121217D01*
X118616281Y-73233441D01*
X118473441Y-73376281D01*
X118361217Y-73544237D01*
X118361212Y-73544247D01*
X118283909Y-73730872D01*
X118283907Y-73730880D01*
X118244500Y-73928992D01*
X117755499Y-73928992D01*
X117716091Y-73730873D01*
X117638786Y-73544244D01*
X117638784Y-73544241D01*
X117638782Y-73544237D01*
X117526558Y-73376281D01*
X117383718Y-73233441D01*
X117215762Y-73121217D01*
X117215752Y-73121212D01*
X117029127Y-73043909D01*
X117029119Y-73043907D01*
X116831007Y-73004500D01*
X116831003Y-73004500D01*
X116628997Y-73004500D01*
X116628992Y-73004500D01*
X116430880Y-73043907D01*
X116430872Y-73043909D01*
X116244247Y-73121212D01*
X116244237Y-73121217D01*
X116076281Y-73233441D01*
X115933441Y-73376281D01*
X115821217Y-73544237D01*
X115821212Y-73544247D01*
X115743909Y-73730872D01*
X115743907Y-73730880D01*
X115704500Y-73928992D01*
X97025014Y-73928992D01*
X97016392Y-73896814D01*
X96950500Y-73782686D01*
X96857314Y-73689500D01*
X96800250Y-73656554D01*
X96743187Y-73623608D01*
X96655157Y-73600021D01*
X96615892Y-73589500D01*
X96484108Y-73589500D01*
X96356812Y-73623608D01*
X96242686Y-73689500D01*
X96242683Y-73689502D01*
X96149502Y-73782683D01*
X96149500Y-73782686D01*
X96083608Y-73896812D01*
X96049500Y-74024108D01*
X34667554Y-74024108D01*
X34682468Y-74011185D01*
X34733979Y-73999979D01*
X34776411Y-73999979D01*
X34776413Y-73999979D01*
X34903707Y-73965871D01*
X35017835Y-73899979D01*
X35111021Y-73806793D01*
X35176913Y-73692665D01*
X35211021Y-73565371D01*
X35211021Y-73433587D01*
X35176913Y-73306293D01*
X35111021Y-73192165D01*
X35017835Y-73098979D01*
X34960771Y-73066033D01*
X34903708Y-73033087D01*
X34839112Y-73015779D01*
X34776413Y-72998979D01*
X34644629Y-72998979D01*
X34517333Y-73033087D01*
X34403207Y-73098979D01*
X34403204Y-73098981D01*
X34310023Y-73192162D01*
X34310021Y-73192165D01*
X34244129Y-73306291D01*
X34210021Y-73433587D01*
X34210021Y-73476021D01*
X34190336Y-73543060D01*
X34137532Y-73588815D01*
X34086021Y-73600021D01*
X34043587Y-73600021D01*
X33916291Y-73634129D01*
X33802165Y-73700021D01*
X33802162Y-73700023D01*
X33708981Y-73793204D01*
X33708979Y-73793207D01*
X33643087Y-73907333D01*
X33608979Y-74034629D01*
X30860500Y-74034629D01*
X30860500Y-72551245D01*
X35498184Y-72551245D01*
X35498184Y-72683029D01*
X35506265Y-72713187D01*
X35532292Y-72810324D01*
X35542103Y-72827316D01*
X35598184Y-72924451D01*
X35598186Y-72924453D01*
X35628189Y-72954456D01*
X35661674Y-73015779D01*
X35656690Y-73085471D01*
X35628189Y-73129818D01*
X35598186Y-73159820D01*
X35598184Y-73159823D01*
X35532292Y-73273949D01*
X35523626Y-73306293D01*
X35498184Y-73401245D01*
X35498184Y-73533029D01*
X35506850Y-73565370D01*
X35532292Y-73660324D01*
X35550965Y-73692666D01*
X35598184Y-73774451D01*
X35691370Y-73867637D01*
X35805498Y-73933529D01*
X35932792Y-73967637D01*
X35932794Y-73967637D01*
X36064574Y-73967637D01*
X36064576Y-73967637D01*
X36191870Y-73933529D01*
X36305998Y-73867637D01*
X36399184Y-73774451D01*
X36465076Y-73660323D01*
X36499184Y-73533029D01*
X36499184Y-73401245D01*
X36465076Y-73273951D01*
X36399184Y-73159823D01*
X36369179Y-73129818D01*
X36335694Y-73068495D01*
X36340678Y-72998803D01*
X36369179Y-72954456D01*
X36399184Y-72924451D01*
X36465076Y-72810323D01*
X36499184Y-72683029D01*
X36499184Y-72551245D01*
X36465076Y-72423951D01*
X36399184Y-72309823D01*
X36305998Y-72216637D01*
X36225588Y-72170212D01*
X36191871Y-72150745D01*
X36128223Y-72133691D01*
X36064576Y-72116637D01*
X35932792Y-72116637D01*
X35805496Y-72150745D01*
X35691370Y-72216637D01*
X35691367Y-72216639D01*
X35598186Y-72309820D01*
X35598184Y-72309823D01*
X35532292Y-72423949D01*
X35518321Y-72476091D01*
X35498184Y-72551245D01*
X30860500Y-72551245D01*
X30860500Y-71604108D01*
X61209500Y-71604108D01*
X61209500Y-71735892D01*
X61211674Y-71744005D01*
X61243608Y-71863187D01*
X61250883Y-71875787D01*
X61309500Y-71977314D01*
X61309502Y-71977316D01*
X61339505Y-72007319D01*
X61372990Y-72068642D01*
X61368006Y-72138334D01*
X61339505Y-72182681D01*
X61309502Y-72212683D01*
X61309500Y-72212686D01*
X61243608Y-72326812D01*
X61209500Y-72454108D01*
X61209500Y-72585891D01*
X61243608Y-72713187D01*
X61276554Y-72770250D01*
X61309500Y-72827314D01*
X61402686Y-72920500D01*
X61516814Y-72986392D01*
X61644108Y-73020500D01*
X61644110Y-73020500D01*
X61775890Y-73020500D01*
X61775892Y-73020500D01*
X61903186Y-72986392D01*
X62017314Y-72920500D01*
X62110500Y-72827314D01*
X62176392Y-72713186D01*
X62210500Y-72585892D01*
X62210500Y-72454108D01*
X62176392Y-72326814D01*
X62110500Y-72212686D01*
X62080495Y-72182681D01*
X62047010Y-72121358D01*
X62051994Y-72051666D01*
X62080495Y-72007319D01*
X62084733Y-72003081D01*
X62110500Y-71977314D01*
X62176392Y-71863186D01*
X62208327Y-71744003D01*
X96045391Y-71744003D01*
X96045391Y-71875786D01*
X96079499Y-72003082D01*
X96107550Y-72051666D01*
X96145391Y-72117209D01*
X96145393Y-72117211D01*
X96202502Y-72174320D01*
X96235987Y-72235643D01*
X96231003Y-72305335D01*
X96202504Y-72349681D01*
X96149500Y-72402686D01*
X96083608Y-72516812D01*
X96049500Y-72644108D01*
X96049500Y-72775891D01*
X96083608Y-72903187D01*
X96113209Y-72954456D01*
X96149500Y-73017314D01*
X96242686Y-73110500D01*
X96356814Y-73176392D01*
X96484108Y-73210500D01*
X96484110Y-73210500D01*
X96615890Y-73210500D01*
X96615892Y-73210500D01*
X96743186Y-73176392D01*
X96857314Y-73110500D01*
X96950500Y-73017314D01*
X97016392Y-72903186D01*
X97050500Y-72775892D01*
X97050500Y-72644108D01*
X97016392Y-72516814D01*
X97015633Y-72515500D01*
X96992881Y-72476092D01*
X96950500Y-72402686D01*
X96893388Y-72345574D01*
X96859903Y-72284251D01*
X96864887Y-72214559D01*
X96893388Y-72170212D01*
X96919882Y-72143718D01*
X96946391Y-72117209D01*
X97012283Y-72003081D01*
X97046391Y-71875787D01*
X97046391Y-71744003D01*
X97012283Y-71616709D01*
X96946391Y-71502581D01*
X96853205Y-71409395D01*
X96817866Y-71388992D01*
X115704500Y-71388992D01*
X115704500Y-71591007D01*
X115743907Y-71789119D01*
X115743909Y-71789127D01*
X115821212Y-71975752D01*
X115821217Y-71975762D01*
X115933441Y-72143718D01*
X116076281Y-72286558D01*
X116244237Y-72398782D01*
X116244241Y-72398784D01*
X116244244Y-72398786D01*
X116430873Y-72476091D01*
X116628992Y-72515499D01*
X116628996Y-72515500D01*
X116628997Y-72515500D01*
X116831004Y-72515500D01*
X116831005Y-72515499D01*
X117029127Y-72476091D01*
X117215756Y-72398786D01*
X117383718Y-72286558D01*
X117526558Y-72143718D01*
X117638786Y-71975756D01*
X117716091Y-71789127D01*
X117755500Y-71591003D01*
X117755500Y-71388997D01*
X117755499Y-71388992D01*
X118244500Y-71388992D01*
X118244500Y-71591007D01*
X118283907Y-71789119D01*
X118283909Y-71789127D01*
X118361212Y-71975752D01*
X118361217Y-71975762D01*
X118473441Y-72143718D01*
X118616281Y-72286558D01*
X118784237Y-72398782D01*
X118784241Y-72398784D01*
X118784244Y-72398786D01*
X118970873Y-72476091D01*
X119168992Y-72515499D01*
X119168996Y-72515500D01*
X119168997Y-72515500D01*
X119371004Y-72515500D01*
X119371005Y-72515499D01*
X119569127Y-72476091D01*
X119755756Y-72398786D01*
X119923718Y-72286558D01*
X120066558Y-72143718D01*
X120178786Y-71975756D01*
X120256091Y-71789127D01*
X120295500Y-71591003D01*
X120295500Y-71388997D01*
X120256091Y-71190873D01*
X120178786Y-71004244D01*
X120178784Y-71004241D01*
X120178782Y-71004237D01*
X120066558Y-70836281D01*
X119923718Y-70693441D01*
X119755762Y-70581217D01*
X119755752Y-70581212D01*
X119569127Y-70503909D01*
X119569119Y-70503907D01*
X119371007Y-70464500D01*
X119371003Y-70464500D01*
X119168997Y-70464500D01*
X119168992Y-70464500D01*
X118970880Y-70503907D01*
X118970872Y-70503909D01*
X118784247Y-70581212D01*
X118784237Y-70581217D01*
X118616281Y-70693441D01*
X118473441Y-70836281D01*
X118361217Y-71004237D01*
X118361212Y-71004247D01*
X118283909Y-71190872D01*
X118283907Y-71190880D01*
X118244500Y-71388992D01*
X117755499Y-71388992D01*
X117716091Y-71190873D01*
X117638786Y-71004244D01*
X117638784Y-71004241D01*
X117638782Y-71004237D01*
X117526558Y-70836281D01*
X117383718Y-70693441D01*
X117215762Y-70581217D01*
X117215752Y-70581212D01*
X117029127Y-70503909D01*
X117029119Y-70503907D01*
X116831007Y-70464500D01*
X116831003Y-70464500D01*
X116628997Y-70464500D01*
X116628992Y-70464500D01*
X116430880Y-70503907D01*
X116430872Y-70503909D01*
X116244247Y-70581212D01*
X116244237Y-70581217D01*
X116076281Y-70693441D01*
X115933441Y-70836281D01*
X115821217Y-71004237D01*
X115821212Y-71004247D01*
X115743909Y-71190872D01*
X115743907Y-71190880D01*
X115704500Y-71388992D01*
X96817866Y-71388992D01*
X96772298Y-71362683D01*
X96739078Y-71343503D01*
X96675430Y-71326449D01*
X96611783Y-71309395D01*
X96479999Y-71309395D01*
X96352703Y-71343503D01*
X96238577Y-71409395D01*
X96238574Y-71409397D01*
X96145393Y-71502578D01*
X96145391Y-71502581D01*
X96079499Y-71616707D01*
X96045391Y-71744003D01*
X62208327Y-71744003D01*
X62210500Y-71735892D01*
X62210500Y-71604108D01*
X62176392Y-71476814D01*
X62110500Y-71362686D01*
X62017314Y-71269500D01*
X61960250Y-71236554D01*
X61903187Y-71203608D01*
X61839539Y-71186554D01*
X61775892Y-71169500D01*
X61644108Y-71169500D01*
X61516812Y-71203608D01*
X61402686Y-71269500D01*
X61402683Y-71269502D01*
X61309502Y-71362683D01*
X61309500Y-71362686D01*
X61243608Y-71476812D01*
X61213011Y-71591003D01*
X61209500Y-71604108D01*
X30860500Y-71604108D01*
X30860500Y-68848992D01*
X115704500Y-68848992D01*
X115704500Y-69051007D01*
X115743907Y-69249119D01*
X115743909Y-69249127D01*
X115821212Y-69435752D01*
X115821217Y-69435762D01*
X115933441Y-69603718D01*
X116076281Y-69746558D01*
X116244237Y-69858782D01*
X116244241Y-69858784D01*
X116244244Y-69858786D01*
X116430873Y-69936091D01*
X116628992Y-69975499D01*
X116628996Y-69975500D01*
X116628997Y-69975500D01*
X116831004Y-69975500D01*
X116831005Y-69975499D01*
X117029127Y-69936091D01*
X117215756Y-69858786D01*
X117383718Y-69746558D01*
X117526558Y-69603718D01*
X117638786Y-69435756D01*
X117716091Y-69249127D01*
X117755500Y-69051003D01*
X117755500Y-68848997D01*
X117755499Y-68848992D01*
X118244500Y-68848992D01*
X118244500Y-69051007D01*
X118283907Y-69249119D01*
X118283909Y-69249127D01*
X118361212Y-69435752D01*
X118361217Y-69435762D01*
X118473441Y-69603718D01*
X118616281Y-69746558D01*
X118784237Y-69858782D01*
X118784241Y-69858784D01*
X118784244Y-69858786D01*
X118970873Y-69936091D01*
X119168992Y-69975499D01*
X119168996Y-69975500D01*
X119168997Y-69975500D01*
X119371004Y-69975500D01*
X119371005Y-69975499D01*
X119569127Y-69936091D01*
X119755756Y-69858786D01*
X119923718Y-69746558D01*
X120066558Y-69603718D01*
X120178786Y-69435756D01*
X120256091Y-69249127D01*
X120295500Y-69051003D01*
X120295500Y-68848997D01*
X120256091Y-68650873D01*
X120178786Y-68464244D01*
X120178784Y-68464241D01*
X120178782Y-68464237D01*
X120066558Y-68296281D01*
X119923718Y-68153441D01*
X119819110Y-68083545D01*
X119755762Y-68041217D01*
X119755752Y-68041212D01*
X119623739Y-67986530D01*
X131339500Y-67986530D01*
X131339500Y-68193469D01*
X131379868Y-68396412D01*
X131379870Y-68396420D01*
X131459058Y-68587596D01*
X131574024Y-68759657D01*
X131720342Y-68905975D01*
X131720345Y-68905977D01*
X131892402Y-69020941D01*
X132083580Y-69100130D01*
X132286530Y-69140499D01*
X132286534Y-69140500D01*
X132286535Y-69140500D01*
X132493466Y-69140500D01*
X132493467Y-69140499D01*
X132696420Y-69100130D01*
X132887598Y-69020941D01*
X133059655Y-68905977D01*
X133205977Y-68759655D01*
X133320941Y-68587598D01*
X133400130Y-68396420D01*
X133440500Y-68193465D01*
X133440500Y-67986535D01*
X133400130Y-67783580D01*
X133320941Y-67592402D01*
X133205977Y-67420345D01*
X133205975Y-67420342D01*
X133059657Y-67274024D01*
X132958686Y-67206558D01*
X132887598Y-67159059D01*
X132696420Y-67079870D01*
X132696412Y-67079868D01*
X132493469Y-67039500D01*
X132493465Y-67039500D01*
X132286535Y-67039500D01*
X132286530Y-67039500D01*
X132083587Y-67079868D01*
X132083579Y-67079870D01*
X131892403Y-67159058D01*
X131720342Y-67274024D01*
X131574024Y-67420342D01*
X131459058Y-67592403D01*
X131379870Y-67783579D01*
X131379868Y-67783587D01*
X131339500Y-67986530D01*
X119623739Y-67986530D01*
X119569127Y-67963909D01*
X119569119Y-67963907D01*
X119371007Y-67924500D01*
X119371003Y-67924500D01*
X119168997Y-67924500D01*
X119168992Y-67924500D01*
X118970880Y-67963907D01*
X118970872Y-67963909D01*
X118784247Y-68041212D01*
X118784237Y-68041217D01*
X118616281Y-68153441D01*
X118473441Y-68296281D01*
X118361217Y-68464237D01*
X118361212Y-68464247D01*
X118283909Y-68650872D01*
X118283907Y-68650880D01*
X118244500Y-68848992D01*
X117755499Y-68848992D01*
X117716091Y-68650873D01*
X117638786Y-68464244D01*
X117638784Y-68464241D01*
X117638782Y-68464237D01*
X117526558Y-68296281D01*
X117383718Y-68153441D01*
X117215762Y-68041217D01*
X117215752Y-68041212D01*
X117029127Y-67963909D01*
X117029119Y-67963907D01*
X116831007Y-67924500D01*
X116831003Y-67924500D01*
X116628997Y-67924500D01*
X116628992Y-67924500D01*
X116430880Y-67963907D01*
X116430872Y-67963909D01*
X116244247Y-68041212D01*
X116244237Y-68041217D01*
X116076281Y-68153441D01*
X115933441Y-68296281D01*
X115821217Y-68464237D01*
X115821212Y-68464247D01*
X115743909Y-68650872D01*
X115743907Y-68650880D01*
X115704500Y-68848992D01*
X30860500Y-68848992D01*
X30860500Y-65061264D01*
X74621500Y-65061264D01*
X74621500Y-66089835D01*
X74648725Y-66226704D01*
X74648727Y-66226712D01*
X74702134Y-66355647D01*
X74702139Y-66355657D01*
X74779671Y-66471691D01*
X74779674Y-66471695D01*
X74878354Y-66570375D01*
X74878358Y-66570378D01*
X74994392Y-66647910D01*
X74994396Y-66647912D01*
X74994399Y-66647914D01*
X75123338Y-66701323D01*
X75260214Y-66728549D01*
X75260218Y-66728550D01*
X75260219Y-66728550D01*
X75399782Y-66728550D01*
X75399783Y-66728549D01*
X75536662Y-66701323D01*
X75665601Y-66647914D01*
X75781642Y-66570378D01*
X75880328Y-66471692D01*
X75957864Y-66355651D01*
X76011273Y-66226712D01*
X76038500Y-66089831D01*
X76038500Y-65061269D01*
X76038499Y-65061264D01*
X83261500Y-65061264D01*
X83261500Y-66089835D01*
X83288725Y-66226704D01*
X83288727Y-66226712D01*
X83342134Y-66355647D01*
X83342139Y-66355657D01*
X83419671Y-66471691D01*
X83419674Y-66471695D01*
X83518354Y-66570375D01*
X83518358Y-66570378D01*
X83634392Y-66647910D01*
X83634396Y-66647912D01*
X83634399Y-66647914D01*
X83763338Y-66701323D01*
X83900214Y-66728549D01*
X83900218Y-66728550D01*
X83900219Y-66728550D01*
X84039782Y-66728550D01*
X84039783Y-66728549D01*
X84176662Y-66701323D01*
X84305601Y-66647914D01*
X84421642Y-66570378D01*
X84520328Y-66471692D01*
X84597864Y-66355651D01*
X84617191Y-66308992D01*
X115704500Y-66308992D01*
X115704500Y-66511007D01*
X115743907Y-66709119D01*
X115743909Y-66709127D01*
X115821212Y-66895752D01*
X115821217Y-66895762D01*
X115933441Y-67063718D01*
X116076281Y-67206558D01*
X116244237Y-67318782D01*
X116244241Y-67318784D01*
X116244244Y-67318786D01*
X116430873Y-67396091D01*
X116628992Y-67435499D01*
X116628996Y-67435500D01*
X116628997Y-67435500D01*
X116831004Y-67435500D01*
X116831005Y-67435499D01*
X117029127Y-67396091D01*
X117215756Y-67318786D01*
X117383718Y-67206558D01*
X117526558Y-67063718D01*
X117638786Y-66895756D01*
X117716091Y-66709127D01*
X117755500Y-66511003D01*
X117755500Y-66308997D01*
X117755499Y-66308992D01*
X118244500Y-66308992D01*
X118244500Y-66511007D01*
X118283907Y-66709119D01*
X118283909Y-66709127D01*
X118361212Y-66895752D01*
X118361217Y-66895762D01*
X118473441Y-67063718D01*
X118616281Y-67206558D01*
X118784237Y-67318782D01*
X118784241Y-67318784D01*
X118784244Y-67318786D01*
X118970873Y-67396091D01*
X119168992Y-67435499D01*
X119168996Y-67435500D01*
X119168997Y-67435500D01*
X119371004Y-67435500D01*
X119371005Y-67435499D01*
X119569127Y-67396091D01*
X119755756Y-67318786D01*
X119923718Y-67206558D01*
X120066558Y-67063718D01*
X120178786Y-66895756D01*
X120256091Y-66709127D01*
X120295500Y-66511003D01*
X120295500Y-66308997D01*
X120256091Y-66110873D01*
X120178786Y-65924244D01*
X120178784Y-65924241D01*
X120178782Y-65924237D01*
X120066558Y-65756281D01*
X119923718Y-65613441D01*
X119755762Y-65501217D01*
X119755752Y-65501212D01*
X119569127Y-65423909D01*
X119569119Y-65423907D01*
X119371007Y-65384500D01*
X119371003Y-65384500D01*
X119168997Y-65384500D01*
X119168992Y-65384500D01*
X118970880Y-65423907D01*
X118970872Y-65423909D01*
X118784247Y-65501212D01*
X118784237Y-65501217D01*
X118616281Y-65613441D01*
X118473441Y-65756281D01*
X118361217Y-65924237D01*
X118361212Y-65924247D01*
X118283909Y-66110872D01*
X118283907Y-66110880D01*
X118244500Y-66308992D01*
X117755499Y-66308992D01*
X117716091Y-66110873D01*
X117638786Y-65924244D01*
X117638784Y-65924241D01*
X117638782Y-65924237D01*
X117526558Y-65756281D01*
X117383718Y-65613441D01*
X117215762Y-65501217D01*
X117215752Y-65501212D01*
X117029127Y-65423909D01*
X117029119Y-65423907D01*
X116831007Y-65384500D01*
X116831003Y-65384500D01*
X116628997Y-65384500D01*
X116628992Y-65384500D01*
X116430880Y-65423907D01*
X116430872Y-65423909D01*
X116244247Y-65501212D01*
X116244237Y-65501217D01*
X116076281Y-65613441D01*
X115933441Y-65756281D01*
X115821217Y-65924237D01*
X115821212Y-65924247D01*
X115743909Y-66110872D01*
X115743907Y-66110880D01*
X115704500Y-66308992D01*
X84617191Y-66308992D01*
X84651273Y-66226712D01*
X84678500Y-66089831D01*
X84678500Y-65061269D01*
X84651273Y-64924388D01*
X84597864Y-64795449D01*
X84597862Y-64795446D01*
X84597860Y-64795442D01*
X84520328Y-64679408D01*
X84520325Y-64679404D01*
X84421645Y-64580724D01*
X84421641Y-64580721D01*
X84305607Y-64503189D01*
X84305597Y-64503184D01*
X84176662Y-64449777D01*
X84176654Y-64449775D01*
X84039785Y-64422550D01*
X84039781Y-64422550D01*
X83900219Y-64422550D01*
X83900214Y-64422550D01*
X83763345Y-64449775D01*
X83763337Y-64449777D01*
X83634402Y-64503184D01*
X83634392Y-64503189D01*
X83518358Y-64580721D01*
X83518354Y-64580724D01*
X83419674Y-64679404D01*
X83419671Y-64679408D01*
X83342139Y-64795442D01*
X83342134Y-64795452D01*
X83288727Y-64924387D01*
X83288725Y-64924395D01*
X83261500Y-65061264D01*
X76038499Y-65061264D01*
X76011273Y-64924388D01*
X75957864Y-64795449D01*
X75957862Y-64795446D01*
X75957860Y-64795442D01*
X75880328Y-64679408D01*
X75880325Y-64679404D01*
X75781645Y-64580724D01*
X75781641Y-64580721D01*
X75665607Y-64503189D01*
X75665597Y-64503184D01*
X75536662Y-64449777D01*
X75536654Y-64449775D01*
X75399785Y-64422550D01*
X75399781Y-64422550D01*
X75260219Y-64422550D01*
X75260214Y-64422550D01*
X75123345Y-64449775D01*
X75123337Y-64449777D01*
X74994402Y-64503184D01*
X74994392Y-64503189D01*
X74878358Y-64580721D01*
X74878354Y-64580724D01*
X74779674Y-64679404D01*
X74779671Y-64679408D01*
X74702139Y-64795442D01*
X74702134Y-64795452D01*
X74648727Y-64924387D01*
X74648725Y-64924395D01*
X74621500Y-65061264D01*
X30860500Y-65061264D01*
X30860500Y-63025247D01*
X115704500Y-63025247D01*
X115704500Y-64714752D01*
X115716131Y-64773229D01*
X115716132Y-64773230D01*
X115760447Y-64839552D01*
X115826769Y-64883867D01*
X115826770Y-64883868D01*
X115885247Y-64895499D01*
X115885250Y-64895500D01*
X115885252Y-64895500D01*
X117574750Y-64895500D01*
X117574751Y-64895499D01*
X117589568Y-64892552D01*
X117633229Y-64883868D01*
X117633229Y-64883867D01*
X117633231Y-64883867D01*
X117699552Y-64839552D01*
X117743867Y-64773231D01*
X117743867Y-64773229D01*
X117743868Y-64773229D01*
X117755499Y-64714752D01*
X117755500Y-64714750D01*
X117755500Y-63768992D01*
X118244500Y-63768992D01*
X118244500Y-63971007D01*
X118283907Y-64169119D01*
X118283909Y-64169127D01*
X118361212Y-64355752D01*
X118361217Y-64355762D01*
X118473441Y-64523718D01*
X118616281Y-64666558D01*
X118784237Y-64778782D01*
X118784241Y-64778784D01*
X118784244Y-64778786D01*
X118970873Y-64856091D01*
X119110519Y-64883868D01*
X119168992Y-64895499D01*
X119168996Y-64895500D01*
X119168997Y-64895500D01*
X119371004Y-64895500D01*
X119371005Y-64895499D01*
X119569127Y-64856091D01*
X119755756Y-64778786D01*
X119923718Y-64666558D01*
X120066558Y-64523718D01*
X120178786Y-64355756D01*
X120256091Y-64169127D01*
X120295500Y-63971003D01*
X120295500Y-63768997D01*
X120256091Y-63570873D01*
X120178786Y-63384244D01*
X120178784Y-63384241D01*
X120178782Y-63384237D01*
X120066558Y-63216281D01*
X119923718Y-63073441D01*
X119755762Y-62961217D01*
X119755752Y-62961212D01*
X119569127Y-62883909D01*
X119569119Y-62883907D01*
X119371007Y-62844500D01*
X119371003Y-62844500D01*
X119168997Y-62844500D01*
X119168992Y-62844500D01*
X118970880Y-62883907D01*
X118970872Y-62883909D01*
X118784247Y-62961212D01*
X118784237Y-62961217D01*
X118616281Y-63073441D01*
X118473441Y-63216281D01*
X118361217Y-63384237D01*
X118361212Y-63384247D01*
X118283909Y-63570872D01*
X118283907Y-63570880D01*
X118244500Y-63768992D01*
X117755500Y-63768992D01*
X117755500Y-63025249D01*
X117755499Y-63025247D01*
X117743868Y-62966770D01*
X117743867Y-62966769D01*
X117699552Y-62900447D01*
X117633230Y-62856132D01*
X117633229Y-62856131D01*
X117574752Y-62844500D01*
X117574748Y-62844500D01*
X115885252Y-62844500D01*
X115885247Y-62844500D01*
X115826770Y-62856131D01*
X115826769Y-62856132D01*
X115760447Y-62900447D01*
X115716132Y-62966769D01*
X115716131Y-62966770D01*
X115704500Y-63025247D01*
X30860500Y-63025247D01*
X30860500Y-61311265D01*
X74620960Y-61311265D01*
X74620960Y-62339836D01*
X74648185Y-62476705D01*
X74648187Y-62476713D01*
X74701594Y-62605648D01*
X74701599Y-62605658D01*
X74779131Y-62721692D01*
X74779134Y-62721696D01*
X74877814Y-62820376D01*
X74877818Y-62820379D01*
X74993852Y-62897911D01*
X74993856Y-62897913D01*
X74993859Y-62897915D01*
X75122798Y-62951324D01*
X75259674Y-62978550D01*
X75259678Y-62978551D01*
X75259679Y-62978551D01*
X75399242Y-62978551D01*
X75399243Y-62978550D01*
X75536122Y-62951324D01*
X75665061Y-62897915D01*
X75781102Y-62820379D01*
X75879788Y-62721693D01*
X75957324Y-62605652D01*
X76010733Y-62476713D01*
X76037960Y-62339832D01*
X76037960Y-61311270D01*
X76037959Y-61311265D01*
X83262040Y-61311265D01*
X83262040Y-62339836D01*
X83289265Y-62476705D01*
X83289267Y-62476713D01*
X83342674Y-62605648D01*
X83342679Y-62605658D01*
X83420211Y-62721692D01*
X83420214Y-62721696D01*
X83518894Y-62820376D01*
X83518898Y-62820379D01*
X83634932Y-62897911D01*
X83634936Y-62897913D01*
X83634939Y-62897915D01*
X83763878Y-62951324D01*
X83900754Y-62978550D01*
X83900758Y-62978551D01*
X83900759Y-62978551D01*
X84040322Y-62978551D01*
X84040323Y-62978550D01*
X84177202Y-62951324D01*
X84306141Y-62897915D01*
X84422182Y-62820379D01*
X84520868Y-62721693D01*
X84598404Y-62605652D01*
X84651813Y-62476713D01*
X84679040Y-62339832D01*
X84679040Y-61311270D01*
X84651813Y-61174389D01*
X84598404Y-61045450D01*
X84598402Y-61045447D01*
X84598400Y-61045443D01*
X84520868Y-60929409D01*
X84520865Y-60929405D01*
X84422185Y-60830725D01*
X84422181Y-60830722D01*
X84306147Y-60753190D01*
X84306137Y-60753185D01*
X84177202Y-60699778D01*
X84177194Y-60699776D01*
X84040325Y-60672551D01*
X84040321Y-60672551D01*
X83900759Y-60672551D01*
X83900754Y-60672551D01*
X83763885Y-60699776D01*
X83763877Y-60699778D01*
X83634942Y-60753185D01*
X83634932Y-60753190D01*
X83518898Y-60830722D01*
X83518894Y-60830725D01*
X83420214Y-60929405D01*
X83420211Y-60929409D01*
X83342679Y-61045443D01*
X83342674Y-61045453D01*
X83289267Y-61174388D01*
X83289265Y-61174396D01*
X83262040Y-61311265D01*
X76037959Y-61311265D01*
X76010733Y-61174389D01*
X75957324Y-61045450D01*
X75957322Y-61045447D01*
X75957320Y-61045443D01*
X75879788Y-60929409D01*
X75879785Y-60929405D01*
X75781105Y-60830725D01*
X75781101Y-60830722D01*
X75665067Y-60753190D01*
X75665057Y-60753185D01*
X75536122Y-60699778D01*
X75536114Y-60699776D01*
X75399245Y-60672551D01*
X75399241Y-60672551D01*
X75259679Y-60672551D01*
X75259674Y-60672551D01*
X75122805Y-60699776D01*
X75122797Y-60699778D01*
X74993862Y-60753185D01*
X74993852Y-60753190D01*
X74877818Y-60830722D01*
X74877814Y-60830725D01*
X74779134Y-60929405D01*
X74779131Y-60929409D01*
X74701599Y-61045443D01*
X74701594Y-61045453D01*
X74648187Y-61174388D01*
X74648185Y-61174396D01*
X74620960Y-61311265D01*
X30860500Y-61311265D01*
X30860500Y-59354500D01*
X30880185Y-59287461D01*
X30932989Y-59241706D01*
X30984500Y-59230500D01*
X191715500Y-59230500D01*
X191782539Y-59250185D01*
G37*
%TD.AperFunction*%
%TD*%
M02*
