M48
;Layer_Color=9474304
;FILE_FORMAT=2:5
INCH,LZ
;TYPE=PLATED
T01F00S00C0.01181
T02F00S00C0.03937
;TYPE=NON_PLATED
T03F00S00C0.03150
%
T01
X0003543Y0010236
X0127953Y0011417
X0247368Y00208
X0246839Y0028862
X0246346Y003742
X0246116Y0042514
X0245759Y0047111
X0249134Y0046797
X0247273Y0049768
X0246063Y0052362
X0247598Y0055064
X0246063Y005748
X0246457Y0062598
X0246063Y0067323
X0246457Y0072441
X0251485Y0071588
X0251471Y0075539
X0245813Y0077721
X0246063Y0082677
Y0087402
X0251112Y0086908
X0251427Y0089753
X0251661Y0092794
X0246764Y009394
X0246811Y0099472
X0246811Y0102527
X0245771Y0107466
X0246208Y0112171
X0246284Y011723
X0246608Y0120459
X0246431Y0124107
X0246457Y012752
Y013252
Y013752
Y014252
Y0146457
X025147Y0127138
Y0123201
X0251614Y0119264
X0267371Y0129384
X0267486Y0103541
X0267534Y0077331
X0251681Y0067454
X0267627Y0051437
X0264488Y0035773
X0257615Y0034008
X0255644Y0038037
X0229603Y0038578
X0229972Y00425
Y00475
X0229585Y0052559
Y0057559
Y0062559
Y0067559
Y0072559
X0229509Y00775
Y00825
Y00875
Y00925
X0229239Y0096665
X0231496Y0098425
X0231886Y0104094
X0229509Y01025
Y01075
X0231886Y0109094
X0229509Y01125
X0214567Y0117323
X0214961Y0122441
Y012752
Y013252
Y013752
Y014252
Y0147638
Y0152362
Y015748
X0214173Y0163386
X0211811Y0161024
X0215028Y0167717
X0231191Y0167698
Y0162698
Y0157698
Y0152698
X0211811Y0149626
X0183071Y0144095
X0177798Y0143894
X0169734Y014043
X0163228Y013713
X0161429Y0126654
X016451Y0125063
X016876Y012685
X0170728Y0123307
X0168898Y0117717
X0162559Y011563
X0151094Y0115116
X0151536Y01248
X0148819Y0132677
X0143417Y0132854
X0139925Y0132463
X0137652Y0125533
X0135169Y0122541
X0129539Y0119075
X0125602Y012561
X0121665Y012561
X0117728Y012561
X0126783Y0129685
X0121665Y0115935
X0120796Y0102727
X0118598Y0095044
X0122938Y0094986
X012862Y0090545
X0132551Y0091604
X0114184Y009135
X0114173Y008189
X0116929
Y0079134
X0114173
X0111236Y0063779
X0108374
X0105512
X0103492Y0061483
X010063Y0061493
X0097768
X0094906
X0136614Y006063
Y0057768
Y0063492
Y0066354
X0150127Y0070993
X015231Y006881
X0154326Y007585
X0154047Y0084232
X0157984Y0084232
X0160513Y0079201
X016348Y0074048
X0167649Y0074764
X0161955Y0066217
X0159093
Y0063355
X0161955
X0154803Y0043425
X0151969Y0041339
X0148819Y0040551
X0154724Y0038575
X0166488Y0035039
X016935
Y0032177
X0166488
X0165524Y002748
X0168674Y0015669
X0172217Y0013701
X0151575Y0017323
X0139291
X0136431Y001899
X0133569
X0130709Y0017323
X0133886Y003002
X0137795Y0031102
X014252Y0031496
X0140551Y0046457
X014252Y0048819
X0145395Y0048815
X014827Y0048811
X0138464Y0048823
X0135589Y0048827
X0132713Y0048831
X0146048Y0075072
X0146173Y0084232
X015011Y0084232
X0152078Y0105
X0170907Y0099764
X0174973Y0096013
X0182181Y0095044
X0186521Y0094986
X0186548Y0102331
X0181298Y0114744
X018131Y012561
X0185248Y012561
X0189184Y012561
X0211378Y0110315
X0211247Y0105699
X0212369Y0093891
X0212126Y0090104
X0214961Y0078347
X020876Y0078246
X0207087Y0072441
X0204562Y0074247
X0199921Y0077505
Y0080655
Y0083805
X019441Y0084986
Y0081836
X019441Y0088135
X0198449Y0095646
X0178211Y0089452
X0204035Y0065163
X0206246Y0066982
X0209108Y0066929
Y0070079
X0230709Y0028029
X0172441Y0041339
X0167323
X0099213Y0018504
X0111225Y0098958
X0107709Y0112231
X0104331Y0152362
X0104695Y0155346
X0103101Y0158219
X0100716Y0161881
X0099879Y0164688
X0097855Y0166712
X0094721Y0166771
X0106358Y0163465
X0113248
X0153701Y0158346
X015748Y016063
X0159457Y0155
X0162945Y0155078
X0155905Y0167323
X0061358Y01475
Y01325
Y01175
Y01025
X0046898Y0087411
X0046858Y0070984
Y0059055
X004588Y0054806
X0046083Y0048424
X0046457Y0043701
X0046931Y003915
X0046416Y0031249
X0045276Y0025197
X006063Y0029528
X0062574Y0033809
X0065242Y0032773
X0066841Y0029998
X0078732Y0029881
X0084417Y0029764
X0088815Y0030778
X0088933Y0036235
X0084096Y0068958
X0081077Y0069244
X0078216Y0069184
X0075197Y0068898
X007414Y0075197
X0077002
X0079882
X007126
X0030709Y0072441
X0030248Y00575
Y00425
X0030315Y0037284
Y0032283
X0011024Y0014173
X0008019Y0013554
X0005012Y0013386
X0030248Y00875
Y01025
Y01175
Y01225
Y01275
Y01325
Y01375
X003002Y01425
X0030248Y01475
X0046063Y0162598
X0046Y018
X0040945Y0180709
X003503Y0181494
X0034238Y0184389
X0058268Y0189764
X0066929
X0072575Y0189527
X0078374Y0190157
X0078566Y0195975
X0081428
X008429
X0087152Y0196037
X0086697Y0201658
X0084132Y0200388
X0084409Y0189527
X0085702Y0179706
X0088583Y0180315
X0083632Y0177729
X0082026Y0175287
X007874Y0175197
X0075767Y0174586
X0073743Y0172562
X0074412Y0169488
X0094095Y0185039
X0093307Y0204724
X0090658Y0202756
X0104724Y020748
X0112598Y0203543
X0114504Y0174614
X0159705Y0174075
X0156299Y0183858
X0159705Y019061
X021597Y0180471
X022122Y0183543
X0232933Y018315
X0232931Y018695
X0244338Y0181637
X0231496Y017126
X0214961Y0172441
T02
X022Y0005
X023
X024
X025
X024Y0205
X023
X022
X025
T03
X02305Y0035
X0046
Y0175
X02305
M30
